<svg version="1.1" xmlns="http://www.w3.org/2000/svg" xmlns:xlink="http://www.w3.org/1999/xlink" width="1658.7425986804035" height="2083.790499228272"><desc>title%20Accounts%0A%0Aactor%20Guest%0Aparticipant%20%22Guest%20Front-end%22%20as%20Guest%20Frontend%0Aparticipant%20NGINX%0Aparticipant%20%22Accounts%20Microservice%22%20as%20AccountsService%0Adatabase%20Accounts%20Database%0A%0AGuest%20-%3E%20Guest%20Frontend%20%3A%20Login%20attempt%0AGuest%20Frontend%20-%3E%20NGINX%20%3A%20Post%20Login%20attempt%0ANGINX%20-%3E%20AccountsService%20%3A%20Route%20to%20Accounts%20Microservice%0AAccountsService%20-%3E%20Accounts%20Database%20%3A%20Select%20Username%20and%20Password%20hash%0AAccounts%20Database%20--%3E%20AccountsService%20%3A%20Return%20existing%20user%20data%0A%0Aalt%20login%20was%20successful%0A%20%20%20%20AccountsService%20--%3E%20NGINX%20%3A%20Return%20success%20status%20response%20with%20success%20message%20body%0A%20%20%20%20NGINX%20--%3E%20Guest%20Frontend%20%3A%20Forward%20request%0A%20%20%20%20Guest%20Frontend%20--%3E%20Guest%20%3A%20Route%20user%20to%20homepage%0Aelse%20login%20was%20unsuccessful%0A%20%20%20%20AccountsService%20--%3E%20NGINX%20%3A%20Return%20error%20status%20with%20error%20message%20body%0A%20%20%20%20NGINX%20--%3E%20Guest%20Frontend%20%3A%20Forward%20response%0A%20%20%20%20Guest%20Frontend%20--%3E%20Guest%20%3A%20Display%20login%20fail%20message%0Aend%0A%0AGuest%20-%3E%20Guest%20Frontend%20%3A%20Create%20new%20guest%0AGuest%20Frontend%20-%3E%20NGINX%20%3A%20Post%20request%20for%20guest%20creation%0ANGINX%20-%3E%20AccountsService%20%3A%20Forward%20request%0AAccountsService%20-%3E%20Accounts%20Database%20%3A%20Get%20existing%20users%0AAccountsService%20%3C-%20Accounts%20Database%20%3A%20Return%20existing%20users%0Aalt%20Creation%20successsful%0A%20%20%20%20AccountsService%20--%3E%20NGINX%20%3A%20Return%20success%20status%20response%20with%20success%20message%20body%0A%20%20%20%20NGINX%20--%3E%20Guest%20Frontend%20%3A%20Forward%20response%0A%20%20%20%20Guest%20Frontend%20--%3E%20Guest%20%3A%20Route%20to%20login%20page%0Aelse%20Creation%20error%0A%20%20%20%20AccountsService%20--%3E%20NGINX%20%3A%20Return%20error%20status%20with%20error%20message%20body%0A%20%20%20%20NGINX%20--%3E%20Guest%20Frontend%20%3A%20Forward%20response%20%0A%20%20%20%20Guest%20Frontend%20--%3E%20Guest%20%3A%20Display%20account%20creation%20fail%20message%0Aend%0A%0A%20%20%20%20%20%20%20%0A</desc><defs/><g><g/><g/><g/><g/><g/><g/><g/><g/><g/><g/><g/><g/><g/><g/><g/><g/><g/><g/><g/><g/><g/><g/><g/><g/><g/><g/><g/><g/><g/><g/><g/><g/><g/><g/><g/><g/><g/><g/><g/><g/><g/><g/><g/><g/><g/><g/><g/><g/><g/><g/><g/><g/><g/><g/><g/><g/><g/><g/><g/><g/><g/><g/><g/><g/><g/><g/><g/><g/><g/><g/><g/><g/><g/><g/><g/><g/><g/><g/><g/><g/><g/><g/><g/><g/><g/><g/><g/><g/><g/><g/><g/><g/><g/><g/><g/><g/><g/><g/><g/><g/><g/><g/><g/><g/><g/><g/><g/><g/><g/><g/><g/><g/><g/><g/><g/><g/><g/><g/><g/><g/><g/><g/><g/><g/><g/><g/><g/><g/><g/><g/><g/><g/><g/><g/><g/><g/><g/><g/><g/><g/><g/><g/><g/><g/><g/><g/><g/><g/><g/><g/><g/><g/><g/><g/><g/><g/><g/><g/><g/><g/><g/><g/><g/><g/><g/><g/><g/><g/><g/><g/><g/><g/><g/><g/><g/><g/><g/><g/><g/><g/><g/><g/><g/><g/><g/><g/><g/><g/><g/><g/><g><rect fill="white" stroke="none" x="0" y="0" width="1658" height="2083"/></g><g/><g><path fill="none" stroke="black" paint-order="fill stroke markers" d=" M 107.43537555 188.1529839682727 L 107.43537555 2083.790499228272" stroke-miterlimit="10" stroke-width="1.9895439916666666" stroke-dasharray="18.36502146153846,7.9581759666666665"/><path fill="none" stroke="black" paint-order="fill stroke markers" d=" M 449.78411572657063 188.1529839682727 L 449.78411572657063 2083.790499228272" stroke-miterlimit="10" stroke-width="1.9895439916666666" stroke-dasharray="18.36502146153846,7.9581759666666665"/><path fill="none" stroke="black" paint-order="fill stroke markers" d=" M 739.1328559031413 188.1529839682727 L 739.1328559031413 2083.790499228272" stroke-miterlimit="10" stroke-width="1.9895439916666666" stroke-dasharray="18.36502146153846,7.9581759666666665"/><path fill="none" stroke="black" paint-order="fill stroke markers" d=" M 1243.0482636364745 188.1529839682727 L 1243.0482636364745 2083.790499228272" stroke-miterlimit="10" stroke-width="1.9895439916666666" stroke-dasharray="18.36502146153846,7.9581759666666665"/><path fill="none" stroke="black" paint-order="fill stroke markers" d=" M 1576.1970049574543 188.1529839682727 L 1576.1970049574543 2083.790499228272" stroke-miterlimit="10" stroke-width="1.9895439916666666" stroke-dasharray="18.36502146153846,7.9581759666666665"/></g><g><g><path fill="white" stroke="black" paint-order="fill stroke markers" d=" M 121.043856453 87.16373095127274 A 13.608480902999998 13.608480902999998 0 1 1 121.04384964876012 87.15012247263782 M 107.43537555 100.77221185427274 L 107.43537555 129.89913589227274 M 90.245715462 111.27700413027273 L 124.625035638 111.27700413027273 M 107.43537555 129.89913589227274 L 90.245715462 157.11609769827274 M 107.43537555 129.89913589227274 L 124.625035638 157.11609769827274" stroke-miterlimit="10" stroke-width="4.058669743" stroke-dasharray=""/></g><g><g/><text fill="black" stroke="none" font-family="sans-serif" font-size="11pt" font-style="normal" font-weight="normal" text-decoration="normal" x="85.93537555" y="180.99062559827274" text-anchor="start" dominant-baseline="alphabetic" xml:space="preserve">Guest</text></g><path fill="none" stroke="none"/><g><path fill="white" stroke="black" paint-order="fill stroke markers" d=" M 365.11358654271714 123.93050391727273 L 534.4546449104241 123.93050391727273 L 534.4546449104241 188.15298396827274 L 365.11358654271714 188.15298396827274 L 365.11358654271714 123.93050391727273 Z" stroke-miterlimit="10" stroke-width="3.819924464" stroke-dasharray=""/></g><g><text fill="black" stroke="none" font-family="sans-serif" font-size="11pt" font-style="normal" font-weight="normal" text-decoration="normal" x="391.0174493142171" y="164.27845606827273" text-anchor="start" dominant-baseline="alphabetic" xml:space="preserve">Guest Front-end</text></g><path fill="none" stroke="none"/><g><path fill="white" stroke="black" paint-order="fill stroke markers" d=" M 689.4289938945807 123.69175863827273 L 788.8367179117017 123.69175863827273 L 788.8367179117017 188.15298396827274 L 689.4289938945807 188.15298396827274 L 689.4289938945807 123.69175863827273 Z" stroke-miterlimit="10" stroke-width="3.819924464" stroke-dasharray=""/></g><g><g/><text fill="black" stroke="none" font-family="sans-serif" font-size="11pt" font-style="normal" font-weight="normal" text-decoration="normal" x="715.3328566660807" y="164.27845606827273" text-anchor="start" dominant-baseline="alphabetic" xml:space="preserve">NGINX</text></g><path fill="none" stroke="none"/><g><path fill="white" stroke="black" paint-order="fill stroke markers" d=" M 1135.5360710920254 123.93050391727273 L 1350.560456180924 123.93050391727273 L 1350.560456180924 188.15298396827274 L 1135.5360710920254 188.15298396827274 L 1135.5360710920254 123.93050391727273 Z" stroke-miterlimit="10" stroke-width="3.819924464" stroke-dasharray=""/></g><g><text fill="black" stroke="none" font-family="sans-serif" font-size="11pt" font-style="normal" font-weight="normal" text-decoration="normal" x="1161.4399338635253" y="164.27845606827273" text-anchor="start" dominant-baseline="alphabetic" xml:space="preserve">Accounts Microservice</text></g><g><path fill="white" stroke="black" paint-order="fill stroke markers" d=" M 1541.3401942234543 141.35890928427273 L 1541.3401942234543 91.22240069427274 L 1611.0538156914542 91.22240069427274 L 1611.0538156914542 141.35890928427273" stroke-miterlimit="10" stroke-width="4.058669743" stroke-dasharray=""/><path fill="white" stroke="black" paint-order="fill stroke markers" d=" M 1611.0538156914542 89.47956015757273 L 1611.0520728654412 89.6371294155278 L 1611.0468445616832 89.79468291668837 L 1611.0381313030061 89.95220490583563 L 1611.0259339607287 90.10967963090194 L 1611.010253754575 90.26709134454602 L 1610.9910922525523 90.42442430572765 L 1610.9684513707953 90.58166278128188 L 1610.942333373373 90.73879104749214 L 1610.9127408720633 90.89579339166276 L 1610.879676826092 91.05265411369017 L 1610.843144541836 91.20935752763287 L 1610.8031476724932 91.36588796328006 L 1610.7596902177172 91.52222976771861 L 1610.7127765232174 91.67836730689837 L 1610.662411280324 91.83428496719553 L 1610.6085995255196 91.98996715697399 L 1610.5513466399343 92.14539830814451 L 1610.4906583488096 92.30056287772149 L 1610.4265407209234 92.4554453493773 L 1610.3590001679854 92.61003023499381 L 1610.2880434439949 92.7643020762113 L 1610.2136776445645 92.9182454459742 L 1610.1359102062127 93.07184495007382 L 1610.0547489056182 93.22508522868775 L 1609.970201858844 93.37795095791583 L 1609.8822775205233 93.53042685131253 L 1609.7909846830175 93.68249766141557 L 1609.6963324755343 93.83414818127065 L 1609.598330363215 93.98536324595217 L 1609.4969881461896 94.13612773407968 L 1609.3923159585952 94.28642656933 L 1609.2843242675633 94.43624472194486 L 1609.173023872173 94.58556721023383 L 1609.0584259023713 94.73437910207252 L 1608.9405418178594 94.88266551639578 L 1608.8193834069477 95.03041162468571 L 1608.6949627853764 95.17760265245464 L 1608.5672923951038 95.32422388072243 L 1608.4363850030625 95.47026064748844 L 1608.3022536998828 95.61569834919769 L 1608.1649118985831 95.76052244220121 L 1608.024373333229 95.90471844421039 L 1607.8806520575602 96.04827193574518 L 1607.7337624435843 96.19116856157606 L 1607.5837191801402 96.33339403215953 L 1607.4305372714296 96.47493412506707 L 1607.2742320355153 96.61577468640729 L 1607.1148191027908 96.75590163224146 L 1606.9523144144164 96.89530094999176 L 1606.7867342207257 97.0339586998426 L 1606.6180950796002 97.1718610161345 L 1606.4464138548133 97.3089941087508 L 1606.2717077143443 97.44534426449646 L 1606.0939941286617 97.58089784846958 L 1605.9132908689762 97.71564130542468 L 1605.7296160054632 97.84956116112839 L 1605.5429879054554 97.98264402370673 L 1605.353425231608 98.11487658498432 L 1605.16094694003 98.24624562181525 L 1604.9655722783905 98.37673799740529 L 1604.7673207839923 98.50634066262565 L 1604.5662122818203 98.63504065731779 L 1604.3622668825565 98.7628251115895 L 1604.1555049805713 98.88968124710183 L 1603.9459472518824 99.01559637834697 L 1603.7336146520881 99.14055791391668 L 1603.5185284142717 99.26455335776157 L 1603.3007100468772 99.38757031044058 L 1603.0801813315602 99.50959647036095 L 1602.8569643210083 99.63061963500836 L 1602.6310813367365 99.75062770216722 L 1602.4025549668554 99.86960867113083 L 1602.171408063811 99.98755064390141 L 1601.9376637421012 100.10444182638 L 1601.7013453759637 100.22027052954574 L 1601.4624765970375 100.33502517062486 L 1601.221081292002 100.44869427424885 L 1600.9771836001864 100.56126647360209 L 1600.7308079111567 100.67273051155846 L 1600.4819788622763 100.78307524180704 L 1600.2307213362428 100.89228962996675 L 1599.9770604585997 101.0003627546898 L 1599.7210215952227 101.10728380875378 L 1599.4626303497855 101.21304210014237 L 1599.201912561197 101.31762705311459 L 1598.9388943010188 101.42102820926226 L 1598.6736018708577 101.52323522855596 L 1598.4060617997357 101.62423789037894 L 1598.136300841437 101.72402609454915 L 1597.8643459718326 101.82258986232935 L 1597.5902243861829 101.9199193374249 L 1597.3139634964177 102.0160047869694 L 1597.0355909283962 102.11083660249795 L 1596.755134519143 102.20440530090806 L 1596.4726223140653 102.29670152540783 L 1596.1880825641483 102.38771604645171 L 1595.9015437231296 102.4774397626635 L 1595.6130344446549 102.56586370174628 L 1595.3225835794115 102.65297902137988 L 1595.0302201722438 102.7387770101049 L 1594.735973459249 102.82324908819398 L 1594.439872864853 102.9063868085097 L 1594.1419479988685 102.98818185734932 L 1593.842228653534 103.0686260552761 L 1593.5407448005342 103.1477113579373 L 1593.2375265880032 103.22542985686854 L 1592.9326043375095 103.30177378028472 L 1592.6260085410242 103.37673549385708 L 1592.317769857871 103.45030750147677 L 1592.0079191116622 103.52248244600432 L 1591.6964872872134 103.59325311000542 L 1591.3835055274478 103.66261241647264 L 1591.0690051302806 103.73055342953315 L 1590.7530175454895 103.79706935514226 L 1590.4355743715694 103.86215354176281 L 1590.1167073525733 103.92579948103041 L 1589.7964483749377 103.98800080840415 L 1589.474829464293 104.04875130380314 L 1589.1518827822622 104.10804489222845 L 1588.8276406232449 104.16587564437067 L 1588.5021354111864 104.22223777720276 L 1588.1753996963369 104.2771256545584 L 1587.8474661519954 104.33053378769563 L 1587.518367571243 104.3824568358456 L 1587.1881368636639 104.43288960674678 L 1586.8568070520532 104.48182705716411 L 1586.5244112691164 104.52926429339334 L 1586.1909827541544 104.57519657175035 L 1585.856554849741 104.61961929904561 L 1585.5211609983883 104.6625280330434 L 1585.1848347392013 104.70391848290606 L 1584.847609704526 104.74378650962312 L 1584.5095196165848 104.78212812642512 L 1584.1705982841047 104.81893949918232 L 1583.8308795989367 104.85421694678814 L 1583.490397532666 104.88795694152722 L 1583.1491861332158 104.92015610942818 L 1582.8072795214414 104.95081123060109 L 1582.464711887719 104.97991923955935 L 1582.1215174885267 105.00747722552633 L 1581.7777306430185 105.03348243272642 L 1581.4333857295921 105.05793226066054 L 1581.0885171824523 105.08082426436629 L 1580.7431594881662 105.10215615466235 L 1580.3973471822153 105.12192579837752 L 1580.0511148455425 105.14013121856385 L 1579.7044971010926 105.15677059469452 L 1579.357528610351 105.17184226284577 L 1579.0102440698781 105.18534471586337 L 1578.662678207838 105.19727660351323 L 1578.314865780528 105.20763673261655 L 1577.9668415689002 105.21642406716907 L 1577.6186403750864 105.22363772844463 L 1577.2702970189155 105.22927699508311 L 1576.9218463344328 105.23334130316258 L 1576.5733231664165 105.23583024625559 L 1576.2247623668927 105.23674357546992 L 1575.8761987916512 105.23608119947339 L 1575.5276672967589 105.23384318450307 L 1575.179202735075 105.23002975435858 L 1574.830839952765 105.22464129037975 L 1574.4826137858172 105.21767833140851 L 1574.134559056558 105.20914157373494 L 1573.7867105701698 105.19903187102769 L 1573.439103111212 105.18735023424861 L 1573.0917714401405 105.17409783155163 L 1572.7447502898333 105.15927598816602 L 1572.3980743621157 105.14288618626372 L 1572.051778324292 105.12493006481128 L 1571.7058968056772 105.10540941940587 L 1571.360464394135 105.0843262020958 L 1571.0155156326186 105.06168252118519 L 1570.6710850157172 105.03748064102328 L 1570.3272069862046 105.01172298177791 L 1569.983915931598 104.98441211919355 L 1569.641246180716 104.9555507843337 L 1569.2992320002488 104.92514186330779 L 1568.9579075913293 104.89318839698257 L 1568.6173070861137 104.85969358067806 L 1568.277464544369 104.82466076384797 L 1567.9384139500658 104.7880934497448 L 1567.6001892079814 104.7499952950695 L 1567.2628241403079 104.71037010960575 L 1566.9263524832709 104.6692218558391 L 1566.5908078837558 104.62655464856063 L 1566.256223895943 104.5823727544555 L 1565.9226339779525 104.53668059167634 L 1565.5900714884979 104.48948272940132 L 1565.258569683551 104.44078388737735 L 1564.9281617130162 104.39058893544804 L 1564.5988806174153 104.33890289306676 L 1564.2707593245832 104.28573092879466 L 1563.943830646376 104.2310783597839 L 1563.6181272753888 104.1749506512458 L 1563.2936817816876 104.11735341590443 L 1562.9705266095511 104.05829241343537 L 1562.6486940742277 103.99777354988962 L 1562.328216358702 103.93580287710311 L 1562.0091255104792 103.87238659209147 L 1561.6914534383777 103.80753103643038 L 1561.3752319093403 103.74124269562132 L 1561.0604925452562 103.67352819844315 L 1560.7472668197995 103.60439431628917 L 1560.435586055282 103.53384796248997 L 1560.1254814195202 103.46189619162216 L 1559.8169839227194 103.38854619880283 L 1559.5101244143718 103.31380531897018 L 1559.204933580173 103.23768102614987 L 1558.901441938952 103.16018093270779 L 1558.59967983962 103.08131278858866 L 1558.2996774581352 103.00108448054118 L 1558.0014647944859 102.91950403132931 L 1557.7050716696901 102.83657959892997 L 1557.4105277228132 102.75231947571733 L 1557.1178624080044 102.66673208763345 L 1556.8271049915513 102.57982599334585 L 1556.5382845489532 102.49160988339152 L 1556.2514299620138 102.40209257930793 L 1555.9665699159527 102.31128303275094 L 1555.6837328965373 102.21919032459948 L 1555.4029471872334 102.12582366404763 L 1555.1242408663782 102.03119238768367 L 1554.8476418043717 101.93530595855636 L 1554.5731776608893 101.83817396522869 L 1554.3008758821168 101.73980612081907 L 1554.030763698005 101.64021226202996 L 1553.7628681195474 101.53940234816426 L 1553.4972159360786 101.43738646012932 L 1553.2338337125955 101.33417479942895 L 1552.972747787101 101.22977768714321 L 1552.71398426797 101.12420556289634 L 1552.4575690313388 101.01746898381276 L 1552.2035277185175 100.90957862346146 L 1551.9518857334256 100.80054527078855 L 1551.702668240052 100.69037982903843 L 1551.455900159938 100.5790933146635 L 1551.2116061696863 100.46669685622243 L 1550.9698106984924 100.35320169326741 L 1550.7305379257018 100.23861917522017 L 1550.4938117783922 100.122960760237 L 1550.2596559289814 100.00623801406304 L 1550.028093792859 99.88846260887564 L 1549.7991485260459 99.76964632211717 L 1549.5728430228776 99.64980103531728 L 1549.349199913716 99.5289387329048 L 1549.1282415626858 99.40707150100923 L 1548.9099900654378 99.28421152625222 L 1548.69446724694 99.16037109452886 L 1548.4816946592944 99.03556258977912 L 1548.2716935795825 98.90979849274946 L 1548.0644850077376 98.78309137974479 L 1547.8600896644439 98.65545392137082 L 1547.6585279890655 98.52689888126702 L 1547.4598201376018 98.39743911483028 L 1547.2639859806727 98.26708756792935 L 1547.0710451015304 98.1358572756103 L 1546.8810167941024 98.00376136079302 L 1546.6939200610605 97.87081303295888 L 1546.5097736119226 97.73702558682989 L 1546.3285958611798 97.60241240103917 L 1546.1504049264565 97.46698693679313 L 1545.9752186266976 97.33076273652533 L 1545.803054480387 97.19375342254229 L 1545.633929703796 97.05597269566121 L 1545.467861209261 96.91743433383999 L 1545.3048656034935 96.77815219079936 L 1545.1449591859177 96.63814019463753 L 1544.9881579470427 96.49741234643746 L 1544.8344775668613 96.3559827188667 L 1544.6839334132837 96.21386545477014 L 1544.5365405405998 96.07107476575577 L 1544.392313687974 95.92762493077348 L 1544.251267277971 95.78353029468724 L 1544.113415415115 95.63880526684059 L 1543.9787718844766 95.4934643196157 L 1543.8473501502974 95.34752198698617 L 1543.7191633546408 95.20099286306365 L 1543.5942243160796 95.05389160063842 L 1543.4725455284138 94.90623290971416 L 1543.3541391594206 94.75803155603688 L 1543.2390170496383 94.60930235961848 L 1543.1271907111816 94.46006019325463 L 1543.0186713265916 94.31031998103764 L 1542.9134697477164 94.1600966968639 L 1542.8115964946257 94.00940536293668 L 1542.7130617545604 93.85826104826377 L 1542.617875380912 93.70667886715071 L 1542.5260468922388 93.55467397768926 L 1542.437585471313 93.40226158024174 L 1542.3524999642032 93.24945691592085 L 1542.270798879389 93.09627526506569 L 1542.192490386911 92.9427319457137 L 1542.117582317553 92.78884231206887 L 1542.0460821620595 92.6346217529663 L 1541.9779970703864 92.48008569033341 L 1541.9133338509864 92.32524957764768 L 1541.8520989701274 92.17012889839134 L 1541.7942985512466 92.01473916450304 L 1541.7399383743375 91.8590959148267 L 1541.6890238753724 91.70321471355757 L 1541.6415601457593 91.54711114868589 L 1541.597551931831 91.39080083043804 L 1541.5570036343727 91.2342993897156 L 1541.5199193081799 91.07762247653223 L 1541.4863026616547 90.92078575844867 L 1541.4561570564335 90.76380491900605 L 1541.4294855070518 90.60669565615748 L 1541.4062906806423 90.44947368069833 L 1541.3865748966684 90.29215471469513 L 1541.3703401266919 90.13475448991338 L 1541.3575879941764 89.97728874624438 L 1541.3483197743244 89.81977323013129 L 1541.3425363939505 89.66222369299444 L 1541.3402384313874 89.50465588965629 L 1541.3414261164298 89.34708557676583 L 1541.34609933031 89.18952851122306 L 1541.3542576057107 89.03200044860324 L 1541.3659001268109 88.87451714158134 L 1541.3810257293685 88.71709433835684 L 1541.3996329008355 88.55974778107888 L 1541.4217197805106 88.40249320427206 L 1541.4472841597242 88.24534633326302 L 1541.4763234820593 88.0883228826079 L 1541.5088348436082 87.93143855452091 L 1541.5448149932618 87.77470903730413 L 1541.5842603330352 87.61815000377868 L 1541.627166918427 87.46177710971743 L 1541.6735304588149 87.3056059922795 L 1541.723346317883 87.14965226844647 L 1541.7766095140869 86.99393153346077 L 1541.8333147211517 86.83845935926612 L 1541.893456268604 86.6832512929504 L 1541.957028142339 86.5283228551909 L 1542.0240239852221 86.37368953870227 L 1542.094437097725 86.2193668066873 L 1542.1682604385953 86.06537009129062 L 1542.2454866255603 85.91171479205542 L 1542.3261079360657 85.75841627438356 L 1542.4101163080475 85.60548986799908 L 1542.4975033407384 85.45295086541519 L 1542.5882602955085 85.30081452040501 L 1542.6823780967372 85.14909604647627 L 1542.7798473327236 84.99781061534993 L 1542.8806582566247 84.84697335544304 L 1542.9848007874325 84.69659935035588 L 1543.0922645109804 84.54670363736366 L 1543.2030386809859 84.39730120591275 L 1543.317112220124 84.24840699612182 L 1543.4344737211363 84.10003589728775 L 1543.55511144797 83.95220274639678 L 1543.6790133369532 83.80492232664082 L 1543.8061669980002 83.6582093659391 L 1543.936559715851 83.51207853546543 L 1544.0701784513421 83.36654444818109 L 1544.2070098427116 83.22162165737353 L 1544.3470402069345 83.07732465520105 L 1544.4902555410908 82.93366787124364 L 1544.6366415237665 82.79066567105997 L 1544.7861835164854 82.64833235475088 L 1544.938866565173 82.5066821555294 L 1545.094675401651 82.36572923829742 L 1545.2535944451665 82.2254876982292 L 1545.4156078039468 82.08597155936187 L 1545.5806992767916 81.94719477319305 L 1545.7488523546908 81.80917121728572 L 1545.9200502224771 81.67191469388045 L 1546.094275760506 81.5354389285152 L 1546.2715115463693 81.39975756865279 L 1546.4517398566356 81.26488418231611 L 1546.6349426686245 81.13083225673142 L 1546.8211016622074 80.99761519697957 L 1547.0101982216397 80.8652463246555 L 1547.2022134374236 80.73373887653617 L 1547.3971281081972 80.60310600325677 L 1547.5949227426559 80.47336076799579 L 1547.795577561501 80.34451614516861 L 1547.999072499418 80.21658501913016 L 1548.2053872070826 80.08958018288645 L 1548.4145010531959 79.96351433681525 L 1548.6263931265476 79.83840008739611 L 1548.841042238107 79.71424994594972 L 1549.058426923142 79.59107632738674 L 1549.2785254433647 79.46889154896643 L 1549.501315789107 79.34770782906476 L 1549.7267756815197 79.22753728595278 L 1549.9548825748016 79.10839193658462 L 1550.1856136584533 78.99028369539596 L 1550.4189458595588 78.87322437311248 L 1550.6548558450927 78.75722567556886 L 1550.8933200242525 78.6422992025382 L 1551.1343145508195 78.52845644657201 L 1551.3778153255416 78.41570879185103 L 1551.6237979985442 78.30406751304679 L 1551.8722379717651 78.19354377419411 L 1552.1231104014141 78.08414862757479 L 1552.376390200457 77.97589301261233 L 1552.6320520411255 77.868787754778 L 1552.890070357448 77.76284356450834 L 1553.150419347808 77.65807103613409 L 1553.4130729775238 77.55448064682078 L 1553.678004981451 77.452082755521 L 1553.94518886661 77.35088760193858 L 1554.214597914835 77.25090530550452 L 1554.4862051854454 77.15214586436515 L 1554.759983517941 77.0546191543823 L 1555.0359055347162 76.95833492814567 L 1555.3139436437998 76.86330281399768 L 1555.594070041612 76.76953231507053 L 1555.8762567157469 76.67703280833597 L 1556.160475447772 76.5858135436676 L 1556.446697816051 76.49588364291587 L 1556.7348951985855 76.40725209899591 L 1557.0250387758776 76.31992777498826 L 1557.3170995338114 76.23391940325253 L 1557.6110482665542 76.14923558455425 L 1557.906855579478 76.06588478720468 L 1558.2044918920978 75.98387534621415 L 1558.5039274410303 75.90321546245838 L 1558.8051322829704 75.82391320185853 L 1559.1080762976846 75.74597649457459 L 1559.4127291910243 75.66941313421233 L 1559.7190604979537 75.594230777044 L 1560.0270395855975 75.52043694124265 L 1560.3366356563035 75.44803900613036 L 1560.6478177507227 75.37704421144032 L 1560.960554750905 75.30745965659284 L 1561.274815383411 75.23929229998542 L 1561.590568222439 75.1725489582969 L 1561.9077816929687 75.10723630580584 L 1562.226424073917 75.04336087372306 L 1562.546463501312 74.98092904953855 L 1562.867867971477 74.91994707638267 L 1563.1906053442328 74.86042105240195 L 1563.5146433461116 74.80235693014917 L 1563.8399495735828 74.74576051598817 L 1564.1664914962948 74.6906374695132 L 1564.4942364603276 74.63699330298299 L 1564.8231516914577 74.58483338076945 L 1565.1532042984363 74.53416291882138 L 1565.484361276278 74.48498698414272 L 1565.8165895095601 74.43731049428597 L 1566.149855775737 74.39113821686038 L 1566.4841267484594 74.34647476905522 L 1566.8193690009086 74.30332461717805 L 1567.155549009139 74.26169207620809 L 1567.4926331554295 74.22158130936475 L 1567.8305877316466 74.18299632769131 L 1568.1693789426145 74.14594098965375 L 1568.5089729094939 74.11041900075502 L 1568.8493356731717 74.07643391316438 L 1569.1904331976548 74.04398912536229 L 1569.532231373475 74.01308788180049 L 1569.8746960210997 73.9837332725776 L 1570.2177928943495 73.95592823313004 L 1570.5614876838229 73.92967554393861 L 1570.9057460203273 73.90497783025036 L 1571.2505334783161 73.88183756181606 L 1571.595815579331 73.86025705264328 L 1571.9415577954492 73.84023846076495 L 1572.2877255527374 73.82178378802357 L 1572.6342842347083 73.80489487987104 L 1572.9811991857828 73.78957342518412 L 1573.3284357147545 73.77582095609547 L 1573.67595909826 73.76363884784058 L 1574.0237345842504 73.7530283186201 L 1574.3717273954671 73.74399042947812 L 1574.719902732919 73.73652608419602 L 1575.0682257793626 73.73063602920209 L 1575.4166617027834 73.72632085349694 L 1575.765175659879 73.72358098859456 L 1576.1137327995448 73.72241670847913 L 1576.462298266357 73.72282812957769 L 1576.8108372040592 73.72481521074849 L 1577.1593147590486 73.72837775328506 L 1577.5076960838594 73.73351540093613 L 1577.85594634065 73.7402276399412 L 1578.2040307046846 73.74851379908195 L 1578.551914367817 73.7583730497494 L 1578.899562541971 73.76980440602668 L 1579.2469404626186 73.7828067247877 L 1579.594013392257 73.79737870581141 L 1579.9407466238831 73.81351889191187 L 1580.287105484462 73.83122566908389 L 1580.6330553383968 73.85049726666452 L 1580.9785615909902 73.87133175751008 L 1581.323589691905 73.89372705818883 L 1581.6681051386183 73.91768092918936 L 1582.0120734798727 73.94319097514453 L 1582.3554603191208 73.97025464507104 L 1582.6982313179649 73.9988692326244 L 1583.0403521995904 74.02903187636971 L 1583.3817887521946 74.06073956006777 L 1583.7225068324065 74.0939891129766 L 1584.0624723687022 74.12877721016861 L 1584.4016513648114 74.1651003728631 L 1584.740009903117 74.20295496877404 L 1585.077514148047 74.24233721247342 L 1585.4141303494584 74.28324316576963 L 1585.7498248460117 74.3256687381015 L 1586.0845640685368 74.3696096869471 L 1586.4183145433901 74.41506161824817 L 1586.7510428958028 74.46201998684948 L 1587.0827158532165 74.51048009695329 L 1587.4133002486121 74.56043710258896 L 1587.7427630238255 74.61188600809757 L 1588.0710712328537 74.66482166863145 L 1588.3981920451495 74.71923879066864 L 1588.724092748904 74.7751319325423 L 1589.0487407543185 74.83249550498479 L 1589.372103596863 74.89132377168671 L 1589.694148940523 74.9516108498704 L 1590.014844581032 75.01335071087827 L 1590.3341584490938 75.07653718077569 L 1590.6520586135873 75.14116394096828 L 1590.9685132847608 75.20722452883393 L 1591.2834908174113 75.27471233836887 L 1591.596959714048 75.34362062084841 L 1591.908888628042 75.4139424855017 L 1592.219246366762 75.48567090020089 L 1592.5280018946933 75.55879869216429 L 1592.8351243365396 75.63331854867363 L 1593.1405829803134 75.70922301780536 L 1593.4443472804041 75.78650450917581 L 1593.7463868606355 75.86515529470029 L 1594.046671517301 75.94516750936573 L 1594.3451712221854 76.02653315201738 L 1594.6418561255666 76.10924408615877 L 1594.9366965592014 76.1932920407654 L 1595.2296630392927 76.27866861111187 L 1595.5207262694362 76.36536525961226 L 1595.8098571435514 76.453373316674 L 1596.0970267487924 76.5426839815647 L 1596.3822063684372 76.63328832329232 L 1596.6653674847619 76.72517728149818 L 1596.9464817818907 76.81834166736301 L 1597.2255211486283 76.9127721645259 L 1597.5024576812707 77.0084593300158 L 1597.777263686395 77.1053935951959 L 1598.04991168363 77.20356526672047 L 1598.320374408403 77.30296452750417 L 1598.588624814667 77.40358143770375 L 1598.8546360776047 77.50540593571202 L 1599.118381596312 77.60842783916407 L 1599.3798349964563 77.71263684595536 L 1599.6389701329158 77.81802253527208 L 1599.8957610923926 77.92457436863312 L 1600.1501821960048 78.03228169094393 L 1600.402208001854 78.14113373156204 L 1600.6518133075697 78.25111960537409 L 1600.8989731528295 78.36222831388436 L 1601.1436628218544 78.47444874631458 L 1601.385857845882 78.58776968071503 L 1601.6255340056111 78.70217978508671 L 1601.862667333626 78.8176676185145 L 1602.097234116791 78.93422163231133 L 1602.3292108986236 79.05183017117294 L 1602.558574481639 79.17048147434345 L 1602.7853019296697 79.2901636767914 L 1603.0093705701602 79.41086481039628 L 1603.2307579964329 79.53257280514535 L 1603.4494420699298 79.65527549034051 L 1603.6654009224255 79.77896059581553 L 1603.8786129582152 79.90361575316292 L 1604.0890568562727 80.02922849697083 L 1604.2967115723836 80.15578626606954 L 1604.5015563412494 80.28327640478761 L 1604.703570678564 80.41168616421743 L 1604.9027343830617 80.54100270349004 L 1605.0990275385382 80.67121309105929 L 1605.2924305158415 80.80230430599492 L 1605.482923974835 80.93426323928469 L 1605.6704888663319 81.06707669514523 L 1605.8551064339988 81.20073139234162 L 1606.0367582162332 81.33521396551555 L 1606.215426048008 81.47051096652174 L 1606.391092062689 81.60660886577287 L 1606.5637386938213 81.7434940535924 L 1606.7333486768853 81.88115284157563 L 1606.8999050510242 82.01957146395846 L 1607.0633911607397 82.15873607899402 L 1607.2237906575565 82.29863277033678 L 1607.381087501659 82.43924754843417 L 1607.5352659634937 82.58056635192557 L 1607.686310625343 82.72257504904839 L 1607.8342063828663 82.86525943905127 L 1607.9789384466114 83.00860525361409 L 1608.1204923434925 83.15259815827487 L 1608.2588539182377 83.29722375386312 L 1608.394009334805 83.44246757793982 L 1608.5259450777653 83.58831510624358 L 1608.6546479536544 83.73475175414313 L 1608.7801050922917 83.88176287809569 L 1608.902303948068 84.02933377711139 L 1609.0212323011997 84.17744969422328 L 1609.1368782589502 84.32609581796311 L 1609.2492302568205 84.47525728384235 L 1609.3582770597043 84.62491917583874 L 1609.4640077630122 84.77506652788777 L 1609.566411793762 84.92568432537938 L 1609.6654789116358 85.07675750665932 L 1609.7611992100046 85.22827096453535 L 1609.8535631169182 85.38020954778797 L 1609.9425613960627 85.53255806268545 L 1610.0281851476848 85.68530127450326 L 1610.1104258094801 85.8384239090475 L 1610.1892751574517 85.99191065418235 L 1610.2647253067298 86.14574616136115 L 1610.3367687123628 86.2999150471614 L 1610.40539817007 86.454401894823 L 1610.4706068169626 86.60919125578992 L 1610.5323881322306 86.76426765125505 L 1610.590735937794 86.91961557370807 L 1610.6456443989207 87.07521948848621 L 1610.6971080248102 87.23106383532765 L 1610.7451216691431 87.38713302992755 L 1610.7896805305948 87.54341146549655 L 1610.8307801533163 87.6998835143213 L 1610.8684164273795 87.85653352932732 L 1610.9025855891887 88.01334584564364 L 1610.9332842218557 88.17030478216932 L 1610.9605092555432 88.32739464314149 L 1610.9842579677704 88.48459971970497 L 1611.0045279836859 88.64190429148312 L 1611.0213172763047 88.79929262814981 L 1611.0346241667119 88.95674899100257 L 1611.0444473242296 89.11425763453632 L 1611.0507857665498 89.27180280801794 L 1611.0536388598339 89.4293687570614 M 1611.0538156914542 139.61606874757274 L 1611.0520728654412 139.7736380055278 L 1611.0468445616832 139.93119150668838 L 1611.0381313030061 140.08871349583563 L 1611.0259339607287 140.24618822090196 L 1611.010253754575 140.403599934546 L 1610.9910922525523 140.56093289572766 L 1610.9684513707953 140.71817137128187 L 1610.942333373373 140.87529963749213 L 1610.9127408720633 141.03230198166275 L 1610.879676826092 141.1891627036902 L 1610.843144541836 141.34586611763288 L 1610.8031476724932 141.50239655328008 L 1610.7596902177172 141.65873835771862 L 1610.7127765232174 141.81487589689837 L 1610.662411280324 141.97079355719555 L 1610.6085995255196 142.126475746974 L 1610.5513466399343 142.2819068981445 L 1610.4906583488096 142.4370714677215 L 1610.4265407209234 142.5919539393773 L 1610.3590001679854 142.74653882499382 L 1610.2880434439949 142.9008106662113 L 1610.2136776445645 143.0547540359742 L 1610.1359102062127 143.20835354007383 L 1610.0547489056182 143.36159381868777 L 1609.970201858844 143.51445954791583 L 1609.8822775205233 143.66693544131255 L 1609.7909846830175 143.81900625141557 L 1609.6963324755343 143.97065677127065 L 1609.598330363215 144.12187183595216 L 1609.4969881461896 144.27263632407968 L 1609.3923159585952 144.42293515933 L 1609.2843242675633 144.57275331194487 L 1609.173023872173 144.72207580023382 L 1609.0584259023713 144.87088769207253 L 1608.9405418178594 145.01917410639578 L 1608.8193834069477 145.16692021468572 L 1608.6949627853764 145.31411124245466 L 1608.5672923951038 145.46073247072243 L 1608.4363850030625 145.60676923748844 L 1608.3022536998828 145.7522069391977 L 1608.1649118985831 145.89703103220123 L 1608.024373333229 146.0412270342104 L 1607.8806520575602 146.1847805257452 L 1607.7337624435843 146.32767715157607 L 1607.5837191801402 146.46990262215954 L 1607.4305372714296 146.61144271506706 L 1607.2742320355153 146.7522832764073 L 1607.1148191027908 146.89241022224147 L 1606.9523144144164 147.03180953999177 L 1606.7867342207257 147.1704672898426 L 1606.6180950796002 147.3083696061345 L 1606.4464138548133 147.4455026987508 L 1606.2717077143443 147.58185285449647 L 1606.0939941286617 147.71740643846957 L 1605.9132908689762 147.8521498954247 L 1605.7296160054632 147.9860697511284 L 1605.5429879054554 148.11915261370672 L 1605.353425231608 148.25138517498434 L 1605.16094694003 148.38275421181524 L 1604.9655722783905 148.5132465874053 L 1604.7673207839923 148.64284925262567 L 1604.5662122818203 148.7715492473178 L 1604.3622668825565 148.8993337015895 L 1604.1555049805713 149.02618983710184 L 1603.9459472518824 149.15210496834698 L 1603.7336146520881 149.2770665039167 L 1603.5185284142717 149.40106194776158 L 1603.3007100468772 149.52407890044057 L 1603.0801813315602 149.64610506036095 L 1602.8569643210083 149.76712822500838 L 1602.6310813367365 149.88713629216724 L 1602.4025549668554 150.00611726113084 L 1602.171408063811 150.12405923390142 L 1601.9376637421012 150.24095041638 L 1601.7013453759637 150.35677911954576 L 1601.4624765970375 150.47153376062485 L 1601.221081292002 150.58520286424886 L 1600.9771836001864 150.6977750636021 L 1600.7308079111567 150.80923910155846 L 1600.4819788622763 150.91958383180705 L 1600.2307213362428 151.02879821996675 L 1599.9770604585997 151.1368713446898 L 1599.7210215952227 151.24379239875378 L 1599.4626303497855 151.3495506901424 L 1599.201912561197 151.4541356431146 L 1598.9388943010188 151.55753679926227 L 1598.6736018708577 151.65974381855597 L 1598.4060617997357 151.76074648037894 L 1598.136300841437 151.86053468454915 L 1597.8643459718326 151.95909845232936 L 1597.5902243861829 152.05642792742492 L 1597.3139634964177 152.1525133769694 L 1597.0355909283962 152.24734519249796 L 1596.755134519143 152.34091389090807 L 1596.4726223140653 152.43321011540783 L 1596.1880825641483 152.52422463645172 L 1595.9015437231296 152.6139483526635 L 1595.6130344446549 152.7023722917463 L 1595.3225835794115 152.78948761137988 L 1595.0302201722438 152.87528560010492 L 1594.735973459249 152.959757678194 L 1594.439872864853 153.0428953985097 L 1594.1419479988685 153.1246904473493 L 1593.842228653534 153.2051346452761 L 1593.5407448005342 153.2842199479373 L 1593.2375265880032 153.36193844686855 L 1592.9326043375095 153.43828237028472 L 1592.6260085410242 153.5132440838571 L 1592.317769857871 153.58681609147678 L 1592.0079191116622 153.65899103600432 L 1591.6964872872134 153.7297617000054 L 1591.3835055274478 153.79912100647266 L 1591.0690051302806 153.86706201953317 L 1590.7530175454895 153.93357794514225 L 1590.4355743715694 153.9986621317628 L 1590.1167073525733 154.06230807103043 L 1589.7964483749377 154.12450939840414 L 1589.474829464293 154.18525989380313 L 1589.1518827822622 154.24455348222847 L 1588.8276406232449 154.30238423437066 L 1588.5021354111864 154.35874636720277 L 1588.1753996963369 154.4136342445584 L 1587.8474661519954 154.46704237769563 L 1587.518367571243 154.5189654258456 L 1587.1881368636639 154.5693981967468 L 1586.8568070520532 154.61833564716412 L 1586.5244112691164 154.66577288339334 L 1586.1909827541544 154.71170516175036 L 1585.856554849741 154.75612788904562 L 1585.5211609983883 154.7990366230434 L 1585.1848347392013 154.84042707290607 L 1584.847609704526 154.8802950996231 L 1584.5095196165848 154.9186367164251 L 1584.1705982841047 154.95544808918234 L 1583.8308795989367 154.99072553678815 L 1583.490397532666 155.02446553152723 L 1583.1491861332158 155.05666469942818 L 1582.8072795214414 155.0873198206011 L 1582.464711887719 155.11642782955934 L 1582.1215174885267 155.14398581552635 L 1581.7777306430185 155.1699910227264 L 1581.4333857295921 155.19444085066053 L 1581.0885171824523 155.21733285436628 L 1580.7431594881662 155.23866474466237 L 1580.3973471822153 155.2584343883775 L 1580.0511148455425 155.27663980856386 L 1579.7044971010926 155.2932791846945 L 1579.357528610351 155.3083508528458 L 1579.0102440698781 155.32185330586336 L 1578.662678207838 155.33378519351322 L 1578.314865780528 155.34414532261655 L 1577.9668415689002 155.35293265716908 L 1577.6186403750864 155.36014631844463 L 1577.2702970189155 155.36578558508313 L 1576.9218463344328 155.36984989316258 L 1576.5733231664165 155.3723388362556 L 1576.2247623668927 155.37325216546992 L 1575.8761987916512 155.3725897894734 L 1575.5276672967589 155.37035177450306 L 1575.179202735075 155.3665383443586 L 1574.830839952765 155.36114988037977 L 1574.4826137858172 155.3541869214085 L 1574.134559056558 155.34565016373494 L 1573.7867105701698 155.33554046102768 L 1573.439103111212 155.32385882424862 L 1573.0917714401405 155.31060642155165 L 1572.7447502898333 155.29578457816604 L 1572.3980743621157 155.27939477626373 L 1572.051778324292 155.2614386548113 L 1571.7058968056772 155.24191800940588 L 1571.360464394135 155.2208347920958 L 1571.0155156326186 155.1981911111852 L 1570.6710850157172 155.17398923102328 L 1570.3272069862046 155.14823157177793 L 1569.983915931598 155.12092070919357 L 1569.641246180716 155.0920593743337 L 1569.2992320002488 155.06165045330778 L 1568.9579075913293 155.02969698698257 L 1568.6173070861137 154.99620217067806 L 1568.277464544369 154.961169353848 L 1567.9384139500658 154.92460203974483 L 1567.6001892079814 154.8865038850695 L 1567.2628241403079 154.84687869960575 L 1566.9263524832709 154.8057304458391 L 1566.5908078837558 154.76306323856062 L 1566.256223895943 154.71888134445553 L 1565.9226339779525 154.67318918167635 L 1565.5900714884979 154.62599131940132 L 1565.258569683551 154.57729247737734 L 1564.9281617130162 154.52709752544806 L 1564.5988806174153 154.47541148306675 L 1564.2707593245832 154.42223951879467 L 1563.943830646376 154.3675869497839 L 1563.6181272753888 154.31145924124579 L 1563.2936817816876 154.25386200590444 L 1562.9705266095511 154.19480100343537 L 1562.6486940742277 154.13428213988962 L 1562.328216358702 154.0723114671031 L 1562.0091255104792 154.0088951820915 L 1561.6914534383777 153.94403962643037 L 1561.3752319093403 153.87775128562131 L 1561.0604925452562 153.81003678844317 L 1560.7472668197995 153.7409029062892 L 1560.435586055282 153.67035655248998 L 1560.1254814195202 153.59840478162215 L 1559.8169839227194 153.52505478880283 L 1559.5101244143718 153.45031390897017 L 1559.204933580173 153.3741896161499 L 1558.901441938952 153.2966895227078 L 1558.59967983962 153.21782137858867 L 1558.2996774581352 153.1375930705412 L 1558.0014647944859 153.0560126213293 L 1557.7050716696901 152.97308818892998 L 1557.4105277228132 152.88882806571732 L 1557.1178624080044 152.80324067763345 L 1556.8271049915513 152.71633458334585 L 1556.5382845489532 152.6281184733915 L 1556.2514299620138 152.53860116930795 L 1555.9665699159527 152.44779162275094 L 1555.6837328965373 152.3556989145995 L 1555.4029471872334 152.26233225404764 L 1555.1242408663782 152.16770097768367 L 1554.8476418043717 152.07181454855635 L 1554.5731776608893 151.9746825552287 L 1554.3008758821168 151.8763147108191 L 1554.030763698005 151.77672085202997 L 1553.7628681195474 151.67591093816426 L 1553.4972159360786 151.57389505012932 L 1553.2338337125955 151.47068338942896 L 1552.972747787101 151.36628627714322 L 1552.71398426797 151.26071415289636 L 1552.4575690313388 151.15397757381277 L 1552.2035277185175 151.04608721346145 L 1551.9518857334256 150.93705386078855 L 1551.702668240052 150.82688841903843 L 1551.455900159938 150.7156019046635 L 1551.2116061696863 150.60320544622243 L 1550.9698106984924 150.4897102832674 L 1550.7305379257018 150.37512776522016 L 1550.4938117783922 150.259469350237 L 1550.2596559289814 150.14274660406306 L 1550.028093792859 150.02497119887565 L 1549.7991485260459 149.9061549121172 L 1549.5728430228776 149.7863096253173 L 1549.349199913716 149.6654473229048 L 1549.1282415626858 149.54358009100923 L 1548.9099900654378 149.42072011625223 L 1548.69446724694 149.29687968452885 L 1548.4816946592944 149.17207117977912 L 1548.2716935795825 149.04630708274945 L 1548.0644850077376 148.91959996974478 L 1547.8600896644439 148.79196251137083 L 1547.6585279890655 148.66340747126702 L 1547.4598201376018 148.5339477048303 L 1547.2639859806727 148.40359615792937 L 1547.0710451015304 148.2723658656103 L 1546.8810167941024 148.14026995079303 L 1546.6939200610605 148.00732162295887 L 1546.5097736119226 147.8735341768299 L 1546.3285958611798 147.73892099103918 L 1546.1504049264565 147.60349552679313 L 1545.9752186266976 147.46727132652535 L 1545.803054480387 147.3302620125423 L 1545.633929703796 147.19248128566122 L 1545.467861209261 147.05394292384 L 1545.3048656034935 146.91466078079935 L 1545.1449591859177 146.77464878463755 L 1544.9881579470427 146.63392093643748 L 1544.8344775668613 146.4924913088667 L 1544.6839334132837 146.35037404477015 L 1544.5365405405998 146.20758335575576 L 1544.392313687974 146.06413352077348 L 1544.251267277971 145.92003888468724 L 1544.113415415115 145.7753138568406 L 1543.9787718844766 145.6299729096157 L 1543.8473501502974 145.48403057698619 L 1543.7191633546408 145.33750145306365 L 1543.5942243160796 145.19040019063843 L 1543.4725455284138 145.04274149971417 L 1543.3541391594206 144.8945401460369 L 1543.2390170496383 144.7458109496185 L 1543.1271907111816 144.59656878325464 L 1543.0186713265916 144.44682857103766 L 1542.9134697477164 144.29660528686392 L 1542.8115964946257 144.1459139529367 L 1542.7130617545604 143.9947696382638 L 1542.617875380912 143.84318745715072 L 1542.5260468922388 143.69118256768928 L 1542.437585471313 143.53877017024175 L 1542.3524999642032 143.38596550592084 L 1542.270798879389 143.2327838550657 L 1542.192490386911 143.0792405357137 L 1542.117582317553 142.92535090206886 L 1542.0460821620595 142.7711303429663 L 1541.9779970703864 142.61659428033343 L 1541.9133338509864 142.46175816764767 L 1541.8520989701274 142.30663748839135 L 1541.7942985512466 142.15124775450306 L 1541.7399383743375 141.9956045048267 L 1541.6890238753724 141.83972330355758 L 1541.6415601457593 141.68361973868588 L 1541.597551931831 141.52730942043806 L 1541.5570036343727 141.3708079797156 L 1541.5199193081799 141.21413106653225 L 1541.4863026616547 141.0572943484487 L 1541.4561570564335 140.90031350900605 L 1541.4294855070518 140.7432042461575 L 1541.4062906806423 140.58598227069834 L 1541.3865748966684 140.42866330469514 L 1541.3703401266919 140.27126307991338 L 1541.3575879941764 140.11379733624437 L 1541.3483197743244 139.9562818201313 L 1541.3425363939505 139.79873228299445 L 1541.3402384313874 139.64116447965628" stroke-miterlimit="10" stroke-width="4.058669743" stroke-dasharray=""/></g><g><g/><text fill="black" stroke="none" font-family="sans-serif" font-size="11pt" font-style="normal" font-weight="normal" text-decoration="normal" x="1505.588675184505" y="180.99062559827274" text-anchor="start" dominant-baseline="alphabetic" xml:space="preserve">Accounts Database</text></g></g><g><g><text fill="black" stroke="none" font-family="sans-serif" font-size="16pt" font-style="normal" font-weight="normal" text-decoration="normal" x="780.5666656494141" y="36.02883301272727" text-anchor="start" dominant-baseline="alphabetic" xml:space="preserve">Accounts</text></g><g><rect fill="white" stroke="none" x="223.5868988965226" y="235.90203976827272" width="110.04568966882812" height="31.03688627"/><text fill="black" stroke="none" font-family="sans-serif" font-size="11pt" font-style="normal" font-weight="normal" text-decoration="normal" x="227.1680780815226" y="257.3891148782727" text-anchor="start" dominant-baseline="alphabetic" xml:space="preserve">Login attempt</text></g><g><path fill="none" stroke="black" paint-order="fill stroke markers" d=" M 107.43537555 266.9389260382727 L 430.127421088904 266.9389260382727" stroke-miterlimit="10" stroke-width="1.9895439916666666" stroke-dasharray=""/><g transform="translate(449.78411572657063,266.9389260382727) translate(-449.78411572657063,-266.9389260382727)"><path fill="black" stroke="none" paint-order="stroke fill markers" d=" M 429.888675809904 256.9912060799394 L 449.78411572657063 266.9389260382727 L 429.888675809904 276.88664599660603 Z"/></g></g><g><rect fill="white" stroke="none" x="521.8023049132422" y="302.7507178882727" width="145.31235226648437" height="31.03688627"/><text fill="black" stroke="none" font-family="sans-serif" font-size="11pt" font-style="normal" font-weight="normal" text-decoration="normal" x="525.3834840982422" y="324.23779299827265" text-anchor="start" dominant-baseline="alphabetic" xml:space="preserve">Post Login attempt</text></g><g><path fill="none" stroke="black" paint-order="fill stroke markers" d=" M 449.78411572657063 333.7876041582727 L 719.4761612654746 333.7876041582727" stroke-miterlimit="10" stroke-width="1.9895439916666666" stroke-dasharray=""/><g transform="translate(739.1328559031413,333.7876041582727) translate(-739.1328559031413,-333.7876041582727)"><path fill="black" stroke="none" paint-order="stroke fill markers" d=" M 719.2374159864746 323.8398841999394 L 739.1328559031413 333.7876041582727 L 719.2374159864746 343.735324116606 Z"/></g></g><g><rect fill="white" stroke="none" x="872.6677162705379" y="369.59939600827266" width="236.84569272058593" height="31.03688627"/><text fill="black" stroke="none" font-family="sans-serif" font-size="11pt" font-style="normal" font-weight="normal" text-decoration="normal" x="876.2488954555379" y="391.08647111827264" text-anchor="start" dominant-baseline="alphabetic" xml:space="preserve">Route to Accounts Microservice</text></g><g><path fill="none" stroke="black" paint-order="fill stroke markers" d=" M 739.1328559031413 400.6362822782727 L 1223.3915689988078 400.6362822782727" stroke-miterlimit="10" stroke-width="1.9895439916666666" stroke-dasharray=""/><g transform="translate(1243.0482636364745,400.6362822782727) translate(-1243.0482636364745,-400.6362822782727)"><path fill="black" stroke="none" paint-order="stroke fill markers" d=" M 1223.1528237198079 390.68856231993936 L 1243.0482636364745 400.6362822782727 L 1223.1528237198079 410.584002236606 Z"/></g></g><g><rect fill="white" stroke="none" x="1271.299788318141" y="436.44807412827265" width="276.64569577234374" height="31.03688627"/><text fill="black" stroke="none" font-family="sans-serif" font-size="11pt" font-style="normal" font-weight="normal" text-decoration="normal" x="1274.8809675031412" y="457.93514923827263" text-anchor="start" dominant-baseline="alphabetic" xml:space="preserve">Select Username and Password hash</text></g><g><path fill="none" stroke="black" paint-order="fill stroke markers" d=" M 1243.0482636364745 467.4849603982727 L 1556.5403103197875 467.4849603982727" stroke-miterlimit="10" stroke-width="1.9895439916666666" stroke-dasharray=""/><g transform="translate(1576.1970049574543,467.4849603982727) translate(-1576.1970049574543,-467.4849603982727)"><path fill="black" stroke="none" paint-order="stroke fill markers" d=" M 1556.3015650407876 457.53724043993935 L 1576.1970049574543 467.4849603982727 L 1556.3015650407876 477.432680356606 Z"/></g></g><g><rect fill="white" stroke="none" x="1313.57478984402" y="503.2967522482727" width="192.09569272058593" height="31.03688627"/><text fill="black" stroke="none" font-family="sans-serif" font-size="11pt" font-style="normal" font-weight="normal" text-decoration="normal" x="1317.15596902902" y="524.7838273582727" text-anchor="start" dominant-baseline="alphabetic" xml:space="preserve">Return existing user data</text></g><g><path fill="none" stroke="black" paint-order="fill stroke markers" d=" M 1576.1970049574543 534.3336385182727 L 1262.7049582741413 534.3336385182727" stroke-miterlimit="10" stroke-width="1.9895439916666666" stroke-dasharray="9.54981116"/><g transform="translate(1243.0482636364745,534.3336385182727) translate(-1243.0482636364745,-534.3336385182727)"><path fill="black" stroke="none" paint-order="stroke fill markers" d=" M 1262.9437035531412 524.3859185599393 L 1243.0482636364745 534.3336385182727 L 1262.9437035531412 544.281358476606 Z"/></g></g><g><rect fill="white" stroke="none" x="767.3843805848079" y="634.6066556982727" width="447.41235837" height="31.03688627"/><text fill="black" stroke="none" font-family="sans-serif" font-size="11pt" font-style="normal" font-weight="normal" text-decoration="normal" x="770.9655597698079" y="656.0937308082727" text-anchor="start" dominant-baseline="alphabetic" xml:space="preserve">Return success status response with success message body</text></g><g><path fill="none" stroke="black" paint-order="fill stroke markers" d=" M 1243.0482636364745 665.6435419682726 L 758.7895505408079 665.6435419682726" stroke-miterlimit="10" stroke-width="1.9895439916666666" stroke-dasharray="9.54981116"/><g transform="translate(739.1328559031413,665.6435419682726) translate(-739.1328559031413,-665.6435419682726)"><path fill="black" stroke="none" paint-order="stroke fill markers" d=" M 759.0282958198079 655.6958220099393 L 739.1328559031413 665.6435419682726 L 759.0282958198079 675.591261926606 Z"/></g></g><g><rect fill="white" stroke="none" x="531.2939745680884" y="701.4553338182727" width="126.32902249353515" height="31.03688627"/><text fill="black" stroke="none" font-family="sans-serif" font-size="11pt" font-style="normal" font-weight="normal" text-decoration="normal" x="534.8751537530884" y="722.9424089282727" text-anchor="start" dominant-baseline="alphabetic" xml:space="preserve">Forward request</text></g><g><path fill="none" stroke="black" paint-order="fill stroke markers" d=" M 739.1328559031413 732.4922200882727 L 469.4408103642373 732.4922200882727" stroke-miterlimit="10" stroke-width="1.9895439916666666" stroke-dasharray="9.54981116"/><g transform="translate(449.78411572657063,732.4922200882727) translate(-449.78411572657063,-732.4922200882727)"><path fill="black" stroke="none" paint-order="stroke fill markers" d=" M 469.6795556432373 722.5445001299394 L 449.78411572657063 732.4922200882727 L 469.6795556432373 742.439940046606 Z"/></g></g><g><rect fill="white" stroke="none" x="184.47023305637367" y="768.3040119382728" width="188.27902707117187" height="31.03688627"/><text fill="black" stroke="none" font-family="sans-serif" font-size="11pt" font-style="normal" font-weight="normal" text-decoration="normal" x="188.05141224137367" y="789.7910870482727" text-anchor="start" dominant-baseline="alphabetic" xml:space="preserve">Route user to homepage</text></g><g><path fill="none" stroke="black" paint-order="fill stroke markers" d=" M 449.78411572657063 799.3408982082727 L 127.09207018766668 799.3408982082727" stroke-miterlimit="10" stroke-width="1.9895439916666666" stroke-dasharray="9.54981116"/><g transform="translate(107.43537555,799.3408982082727) translate(-107.43537555,-799.3408982082727)"><path fill="black" stroke="none" paint-order="stroke fill markers" d=" M 127.33081546666668 789.3931782499394 L 107.43537555 799.3408982082727 L 127.33081546666668 809.288618166606 Z"/></g></g><g><rect fill="white" stroke="none" x="824.8093836365657" y="899.6139153882729" width="332.56235226648437" height="31.03688627"/><text fill="black" stroke="none" font-family="sans-serif" font-size="11pt" font-style="normal" font-weight="normal" text-decoration="normal" x="828.3905628215657" y="921.1009904982728" text-anchor="start" dominant-baseline="alphabetic" xml:space="preserve">Return error status with error message body</text></g><g><path fill="none" stroke="black" paint-order="fill stroke markers" d=" M 1243.0482636364745 930.6508016582728 L 758.7895505408079 930.6508016582728" stroke-miterlimit="10" stroke-width="1.9895439916666666" stroke-dasharray="9.54981116"/><g transform="translate(739.1328559031413,930.6508016582728) translate(-739.1328559031413,-930.6508016582728)"><path fill="black" stroke="none" paint-order="stroke fill markers" d=" M 759.0282958198079 920.7030816999395 L 739.1328559031413 930.6508016582728 L 759.0282958198079 940.5985216166061 Z"/></g></g><g><rect fill="white" stroke="none" x="525.8689734236792" y="966.4625935082729" width="137.17902096765624" height="31.03688627"/><text fill="black" stroke="none" font-family="sans-serif" font-size="11pt" font-style="normal" font-weight="normal" text-decoration="normal" x="529.4501526086792" y="987.9496686182729" text-anchor="start" dominant-baseline="alphabetic" xml:space="preserve">Forward response</text></g><g><path fill="none" stroke="black" paint-order="fill stroke markers" d=" M 739.1328559031413 997.4994797782729 L 469.4408103642373 997.4994797782729" stroke-miterlimit="10" stroke-width="1.9895439916666666" stroke-dasharray="9.54981116"/><g transform="translate(449.78411572657063,997.4994797782729) translate(-449.78411572657063,-997.4994797782729)"><path fill="black" stroke="none" paint-order="stroke fill markers" d=" M 469.6795556432373 987.5517598199395 L 449.78411572657063 997.4994797782729 L 469.6795556432373 1007.4471997366062 Z"/></g></g><g><rect fill="white" stroke="none" x="179.21190175754555" y="1033.3112716282728" width="198.79568966882812" height="31.03688627"/><text fill="black" stroke="none" font-family="sans-serif" font-size="11pt" font-style="normal" font-weight="normal" text-decoration="normal" x="182.79308094254554" y="1054.7983467382728" text-anchor="start" dominant-baseline="alphabetic" xml:space="preserve">Display login fail message</text></g><g><path fill="none" stroke="black" paint-order="fill stroke markers" d=" M 449.78411572657063 1064.3481578982728 L 127.09207018766668 1064.3481578982728" stroke-miterlimit="10" stroke-width="1.9895439916666666" stroke-dasharray="9.54981116"/><g transform="translate(107.43537555,1064.3481578982728) translate(-107.43537555,-1064.3481578982728)"><path fill="black" stroke="none" paint-order="stroke fill markers" d=" M 127.33081546666668 1054.4004379399394 L 107.43537555 1064.3481578982728 L 127.33081546666668 1074.2958778566062 Z"/></g></g><g><rect fill="white" stroke="none" x="210.470234010048" y="1135.9717415982727" width="136.27902707117187" height="31.03688627"/><text fill="black" stroke="none" font-family="sans-serif" font-size="11pt" font-style="normal" font-weight="normal" text-decoration="normal" x="214.05141319504799" y="1157.4588167082727" text-anchor="start" dominant-baseline="alphabetic" xml:space="preserve">Create new guest</text></g><g><path fill="none" stroke="black" paint-order="fill stroke markers" d=" M 107.43537555 1167.0086278682727 L 430.127421088904 1167.0086278682727" stroke-miterlimit="10" stroke-width="1.9895439916666666" stroke-dasharray=""/><g transform="translate(449.78411572657063,1167.0086278682727) translate(-449.78411572657063,-1167.0086278682727)"><path fill="black" stroke="none" paint-order="stroke fill markers" d=" M 429.888675809904 1157.0609079099393 L 449.78411572657063 1167.0086278682727 L 429.888675809904 1176.9563478266061 Z"/></g></g><g><rect fill="white" stroke="none" x="478.0356404082373" y="1202.8204197182727" width="232.84569272058593" height="31.03688627"/><text fill="black" stroke="none" font-family="sans-serif" font-size="11pt" font-style="normal" font-weight="normal" text-decoration="normal" x="481.6168195932373" y="1224.3074948282726" text-anchor="start" dominant-baseline="alphabetic" xml:space="preserve">Post request for guest creation</text></g><g><path fill="none" stroke="black" paint-order="fill stroke markers" d=" M 449.78411572657063 1233.8573059882726 L 719.4761612654746 1233.8573059882726" stroke-miterlimit="10" stroke-width="1.9895439916666666" stroke-dasharray=""/><g transform="translate(739.1328559031413,1233.8573059882726) translate(-739.1328559031413,-1233.8573059882726)"><path fill="black" stroke="none" paint-order="stroke fill markers" d=" M 719.2374159864746 1223.9095860299392 L 739.1328559031413 1233.8573059882726 L 719.2374159864746 1243.805025946606 Z"/></g></g><g><rect fill="white" stroke="none" x="927.9260485230403" y="1269.6690978382726" width="126.32902249353515" height="31.03688627"/><text fill="black" stroke="none" font-family="sans-serif" font-size="11pt" font-style="normal" font-weight="normal" text-decoration="normal" x="931.5072277080403" y="1291.1561729482726" text-anchor="start" dominant-baseline="alphabetic" xml:space="preserve">Forward request</text></g><g><path fill="none" stroke="black" paint-order="fill stroke markers" d=" M 739.1328559031413 1300.7059841082726 L 1223.3915689988078 1300.7059841082726" stroke-miterlimit="10" stroke-width="1.9895439916666666" stroke-dasharray=""/><g transform="translate(1243.0482636364745,1300.7059841082726) translate(-1243.0482636364745,-1300.7059841082726)"><path fill="black" stroke="none" paint-order="stroke fill markers" d=" M 1223.1528237198079 1290.7582641499391 L 1243.0482636364745 1300.7059841082726 L 1223.1528237198079 1310.653704066606 Z"/></g></g><g><rect fill="white" stroke="none" x="1339.8164537768203" y="1336.5177759582725" width="139.61235531824218" height="31.03688627"/><text fill="black" stroke="none" font-family="sans-serif" font-size="11pt" font-style="normal" font-weight="normal" text-decoration="normal" x="1343.3976329618204" y="1358.0048510682725" text-anchor="start" dominant-baseline="alphabetic" xml:space="preserve">Get existing users</text></g><g><path fill="none" stroke="black" paint-order="fill stroke markers" d=" M 1243.0482636364745 1367.5546622282725 L 1556.5403103197875 1367.5546622282725" stroke-miterlimit="10" stroke-width="1.9895439916666666" stroke-dasharray=""/><g transform="translate(1576.1970049574543,1367.5546622282725) translate(-1576.1970049574543,-1367.5546622282725)"><path fill="black" stroke="none" paint-order="stroke fill markers" d=" M 1556.3015650407876 1357.606942269939 L 1576.1970049574543 1367.5546622282725 L 1556.3015650407876 1377.502382186606 Z"/></g></g><g><rect fill="white" stroke="none" x="1328.5664547304946" y="1403.3664540782725" width="162.11235531824218" height="31.03688627"/><text fill="black" stroke="none" font-family="sans-serif" font-size="11pt" font-style="normal" font-weight="normal" text-decoration="normal" x="1332.1476339154947" y="1424.8535291882724" text-anchor="start" dominant-baseline="alphabetic" xml:space="preserve">Return existing users</text></g><g><path fill="none" stroke="black" paint-order="fill stroke markers" d=" M 1576.1970049574543 1434.4033403482724 L 1262.7049582741413 1434.4033403482724" stroke-miterlimit="10" stroke-width="1.9895439916666666" stroke-dasharray=""/><g transform="translate(1243.0482636364745,1434.4033403482724) translate(-1243.0482636364745,-1434.4033403482724)"><path fill="black" stroke="none" paint-order="stroke fill markers" d=" M 1262.9437035531412 1424.455620389939 L 1243.0482636364745 1434.4033403482724 L 1262.9437035531412 1444.3510603066059 Z"/></g></g><g><rect fill="white" stroke="none" x="767.3843805848079" y="1534.6763575282723" width="447.41235837" height="31.03688627"/><text fill="black" stroke="none" font-family="sans-serif" font-size="11pt" font-style="normal" font-weight="normal" text-decoration="normal" x="770.9655597698079" y="1556.1634326382723" text-anchor="start" dominant-baseline="alphabetic" xml:space="preserve">Return success status response with success message body</text></g><g><path fill="none" stroke="black" paint-order="fill stroke markers" d=" M 1243.0482636364745 1565.7132437982723 L 758.7895505408079 1565.7132437982723" stroke-miterlimit="10" stroke-width="1.9895439916666666" stroke-dasharray="9.54981116"/><g transform="translate(739.1328559031413,1565.7132437982723) translate(-739.1328559031413,-1565.7132437982723)"><path fill="black" stroke="none" paint-order="stroke fill markers" d=" M 759.0282958198079 1555.7655238399389 L 739.1328559031413 1565.7132437982723 L 759.0282958198079 1575.6609637566057 Z"/></g></g><g><rect fill="white" stroke="none" x="525.8689734236792" y="1601.5250356482723" width="137.17902096765624" height="31.03688627"/><text fill="black" stroke="none" font-family="sans-serif" font-size="11pt" font-style="normal" font-weight="normal" text-decoration="normal" x="529.4501526086792" y="1623.0121107582722" text-anchor="start" dominant-baseline="alphabetic" xml:space="preserve">Forward response</text></g><g><path fill="none" stroke="black" paint-order="fill stroke markers" d=" M 739.1328559031413 1632.5619219182722 L 469.4408103642373 1632.5619219182722" stroke-miterlimit="10" stroke-width="1.9895439916666666" stroke-dasharray="9.54981116"/><g transform="translate(449.78411572657063,1632.5619219182722) translate(-449.78411572657063,-1632.5619219182722)"><path fill="black" stroke="none" paint-order="stroke fill markers" d=" M 469.6795556432373 1622.6142019599388 L 449.78411572657063 1632.5619219182722 L 469.6795556432373 1642.5096418766057 Z"/></g></g><g><rect fill="white" stroke="none" x="203.35356626255043" y="1668.3737137682722" width="150.51236447351562" height="31.03688627"/><text fill="black" stroke="none" font-family="sans-serif" font-size="11pt" font-style="normal" font-weight="normal" text-decoration="normal" x="206.93474544755043" y="1689.8607888782722" text-anchor="start" dominant-baseline="alphabetic" xml:space="preserve">Route to login page</text></g><g><path fill="none" stroke="black" paint-order="fill stroke markers" d=" M 449.78411572657063 1699.4106000382722 L 127.09207018766668 1699.4106000382722" stroke-miterlimit="10" stroke-width="1.9895439916666666" stroke-dasharray="9.54981116"/><g transform="translate(107.43537555,1699.4106000382722) translate(-107.43537555,-1699.4106000382722)"><path fill="black" stroke="none" paint-order="stroke fill markers" d=" M 127.33081546666668 1689.4628800799387 L 107.43537555 1699.4106000382722 L 127.33081546666668 1709.3583199966056 Z"/></g></g><g><rect fill="white" stroke="none" x="824.8093836365657" y="1799.683617218272" width="332.56235226648437" height="31.03688627"/><text fill="black" stroke="none" font-family="sans-serif" font-size="11pt" font-style="normal" font-weight="normal" text-decoration="normal" x="828.3905628215657" y="1821.170692328272" text-anchor="start" dominant-baseline="alphabetic" xml:space="preserve">Return error status with error message body</text></g><g><path fill="none" stroke="black" paint-order="fill stroke markers" d=" M 1243.0482636364745 1830.720503488272 L 758.7895505408079 1830.720503488272" stroke-miterlimit="10" stroke-width="1.9895439916666666" stroke-dasharray="9.54981116"/><g transform="translate(739.1328559031413,1830.720503488272) translate(-739.1328559031413,-1830.720503488272)"><path fill="black" stroke="none" paint-order="stroke fill markers" d=" M 759.0282958198079 1820.7727835299386 L 739.1328559031413 1830.720503488272 L 759.0282958198079 1840.6682234466055 Z"/></g></g><g><rect fill="white" stroke="none" x="523.5439733759955" y="1866.532295338272" width="141.82903012292968" height="31.03688627"/><text fill="black" stroke="none" font-family="sans-serif" font-size="11pt" font-style="normal" font-weight="normal" text-decoration="normal" x="527.1251525609955" y="1888.019370448272" text-anchor="start" dominant-baseline="alphabetic" xml:space="preserve">Forward response </text></g><g><path fill="none" stroke="black" paint-order="fill stroke markers" d=" M 739.1328559031413 1897.569181608272 L 469.4408103642373 1897.569181608272" stroke-miterlimit="10" stroke-width="1.9895439916666666" stroke-dasharray="9.54981116"/><g transform="translate(449.78411572657063,1897.569181608272) translate(-449.78411572657063,-1897.569181608272)"><path fill="black" stroke="none" paint-order="stroke fill markers" d=" M 469.6795556432373 1887.6214616499385 L 449.78411572657063 1897.569181608272 L 469.6795556432373 1907.5169015666054 Z"/></g></g><g><rect fill="white" stroke="none" x="135.68690023166664" y="1933.380973458272" width="285.84567746179687" height="31.03688627"/><text fill="black" stroke="none" font-family="sans-serif" font-size="11pt" font-style="normal" font-weight="normal" text-decoration="normal" x="139.26807941666664" y="1954.868048568272" text-anchor="start" dominant-baseline="alphabetic" xml:space="preserve">Display account creation fail message</text></g><g><path fill="none" stroke="black" paint-order="fill stroke markers" d=" M 449.78411572657063 1964.4178597282719 L 127.09207018766668 1964.4178597282719" stroke-miterlimit="10" stroke-width="1.9895439916666666" stroke-dasharray="9.54981116"/><g transform="translate(107.43537555,1964.4178597282719) translate(-107.43537555,-1964.4178597282719)"><path fill="black" stroke="none" paint-order="stroke fill markers" d=" M 127.33081546666668 1954.4701397699384 L 107.43537555 1964.4178597282719 L 127.33081546666668 1974.3655796866053 Z"/></g></g><g><g/><path fill="none" stroke="black" paint-order="fill stroke markers" d=" M 23.874527900000004 570.1454303682726 L 1326.6091112864744 570.1454303682726 L 1326.6091112864744 1100.1599497482728 L 23.874527900000004 1100.1599497482728 L 23.874527900000004 570.1454303682726 Z" stroke-miterlimit="10" stroke-width="3.410646842857143" stroke-dasharray=""/><path fill="white" stroke="black" paint-order="fill stroke markers" d=" M 23.874527900000004 570.1454303682726 L 23.874527900000004 598.7948638482726 L 89.20691766911622 598.7948638482726 L 103.53163440911622 584.4701471082726 L 103.53163440911622 570.1454303682726 L 23.874527900000004 570.1454303682726" stroke-miterlimit="10" stroke-width="3.410646842857143" stroke-dasharray=""/><text fill="black" stroke="none" font-family="sans-serif" font-size="8.8pt" font-style="normal" font-weight="bold" text-decoration="normal" x="47.74905580000001" y="589.2450526882726" text-anchor="start" dominant-baseline="alphabetic" xml:space="preserve">alt</text><g><rect fill="white" stroke="none" x="123.82498312411623" y="572.0553926002726" width="153.54568966882812" height="24.829509016000003"/></g><text fill="black" stroke="none" font-family="sans-serif" font-size="8.8pt" font-style="normal" font-weight="bold" text-decoration="normal" x="127.40616230911623" y="589.2450526882726" text-anchor="start" dominant-baseline="alphabetic" xml:space="preserve">[login was successful]</text><g><path fill="none" stroke="black" paint-order="fill stroke markers" d=" M 23.874527900000004 835.1526900582728 L 1326.6091112864744 835.1526900582728" stroke-miterlimit="10" stroke-width="3.410646842857143" stroke-dasharray="5.968631975"/></g><g/><g><rect fill="white" stroke="none" x="123.82498312411623" y="837.0626522902728" width="170.27902707117187" height="24.829509016000003"/></g><text fill="black" stroke="none" font-family="sans-serif" font-size="8.8pt" font-style="normal" font-weight="bold" text-decoration="normal" x="127.40616230911623" y="854.2523123782728" text-anchor="start" dominant-baseline="alphabetic" xml:space="preserve">[login was unsuccessful]</text></g><g/><g><g/><path fill="none" stroke="black" paint-order="fill stroke markers" d=" M 23.874527900000004 1470.2151321982724 L 1326.6091112864744 1470.2151321982724 L 1326.6091112864744 2000.2296515782718 L 23.874527900000004 2000.2296515782718 L 23.874527900000004 1470.2151321982724 Z" stroke-miterlimit="10" stroke-width="3.410646842857143" stroke-dasharray=""/><path fill="white" stroke="black" paint-order="fill stroke markers" d=" M 23.874527900000004 1470.2151321982724 L 23.874527900000004 1498.8645656782724 L 89.20691766911622 1498.8645656782724 L 103.53163440911622 1484.5398489382724 L 103.53163440911622 1470.2151321982724 L 23.874527900000004 1470.2151321982724" stroke-miterlimit="10" stroke-width="3.410646842857143" stroke-dasharray=""/><text fill="black" stroke="none" font-family="sans-serif" font-size="8.8pt" font-style="normal" font-weight="bold" text-decoration="normal" x="47.74905580000001" y="1489.3147545182724" text-anchor="start" dominant-baseline="alphabetic" xml:space="preserve">alt</text><g><rect fill="white" stroke="none" x="123.82498312411623" y="1472.1250944302724" width="154.16235837" height="24.829509016000003"/></g><text fill="black" stroke="none" font-family="sans-serif" font-size="8.8pt" font-style="normal" font-weight="bold" text-decoration="normal" x="127.40616230911623" y="1489.3147545182724" text-anchor="start" dominant-baseline="alphabetic" xml:space="preserve">[Creation successsful]</text><g><path fill="none" stroke="black" paint-order="fill stroke markers" d=" M 23.874527900000004 1735.222391888272 L 1326.6091112864744 1735.222391888272" stroke-miterlimit="10" stroke-width="3.410646842857143" stroke-dasharray="5.968631975"/></g><g/><g><rect fill="white" stroke="none" x="123.82498312411623" y="1737.132354120272" width="111.8123598958789" height="24.829509016000003"/></g><text fill="black" stroke="none" font-family="sans-serif" font-size="8.8pt" font-style="normal" font-weight="bold" text-decoration="normal" x="127.40616230911623" y="1754.322014208272" text-anchor="start" dominant-baseline="alphabetic" xml:space="preserve">[Creation error]</text></g><g/></g><g/><g/><g/></g></svg>