<svg xmlns="http://www.w3.org/2000/svg" xmlns:xlink="http://www.w3.org/1999/xlink" version="1.1" width="1482.3139783175131" height="1517.2285326888182"><desc>title%20Incident%20Reports%0A%0Aactor%20Guest%0Aparticipant%20%22Guest%20Front-end%22%20as%20GuestFrontend%0Aparticipant%20NGINX%0Aparticipant%20%22Incident%20Reports%20Microservice%22%20as%20IncidentReportsService%0Adatabase%20Incident%20Reports%20Database%0A%0AGuest%20-%3E%20GuestFrontend%20%3A%20(1)%20Request%20to%20view%20incident%20reports%0Aactivate%20GuestFrontend%0AGuestFrontend%20-%3E%20NGINX%20%3A%20(2)%20Request%20for%20list%20of%20incident%20reports%0A%0ANGINX%20-%3E%20IncidentReportsService%20%3A%20(3)%20Route%20to%20Incident%20Reports%20Microservice%0Aactivate%20IncidentReportsService%0A%0AIncidentReportsService%20-%3E%20Incident%20Reports%20Database%20%3A%20(4)%20Query%20for%20incident%20reports%0Aactivate%20Incident%20Reports%20Database%0Aalt%20Incident%20reports%20were%20not%20found%0A%20%20%20%20Incident%20Reports%20Database%20--%3E%20IncidentReportsService%20%3A%20(5)%20Return%20null%0A%20%20%20%20IncidentReportsService%20--%3E%20NGINX%20%3A%20(6)%20Return%20404%20status%0A%20%20%20%20NGINX%20--%3E%20GuestFrontend%20%3A%20(7)%20Return%20response%20%0A%20%20%20%20GuestFrontend%20--%3E%20Guest%20%3A%20(8)%20Display%20error%20%22Incident%20reports%20not%20found%22%0Aelse%20Incident%20reports%20were%20found%0A%20%20%20%20Incident%20Reports%20Database%20--%3E%20IncidentReportsService%20%3A%20(5)%20Return%20incident%20reports%20data%0A%20%20%20%20deactivate%20Incident%20Reports%20Database%0A%0A%20%20%20%20IncidentReportsService%20--%3E%20NGINX%20%3A%20(6)%20Return%20200%20status%0A%20%20%20%20deactivate%20IncidentReportsService%0A%20%20%20%20NGINX%20--%3E%20GuestFrontend%20%3A%20(7)%20Return%20response%20%0A%20%20%20%20GuestFrontend%20--%3E%20Guest%20%3A%20(8)%20Display%20incident%20reports%20list%0A%20%20%20%20deactivate%20GuestFrontend%0Aend%0A%0AGuest%20-%3E%20GuestFrontend%20%3A%20(9)%20Request%20to%20view%20specified%20incident%20report%0Aactivate%20GuestFrontend%0AGuestFrontend%20-%3E%20NGINX%20%3A%20(10)%20Request%20for%20specified%20incident%20report%0A%0ANGINX%20-%3E%20IncidentReportsService%20%3A%20(11)%20Route%20to%20Incident%20Reports%20Microservice%0Aactivate%20IncidentReportsService%0A%0AIncidentReportsService%20-%3E%20Incident%20Reports%20Database%20%3A%20(12)%20Query%20for%20specified%20incident%20report%0Aactivate%20Incident%20Reports%20Database%0A%0Aalt%20Incident%20report%20not%20found%0A%20%20%20%20Incident%20Reports%20Database%20--%3E%20IncidentReportsService%20%3A%20(13)%20Return%20null%20incident%20report%0A%20%20%20%20IncidentReportsService%20--%3E%20NGINX%20%3A%20(14)%20Return%20404%20status%0A%20%20%20%20NGINX%20--%3E%20GuestFrontend%20%3A%20(15)%20Return%20response%20%0A%20%20%20%20GuestFrontend%20--%3E%20Guest%20%3A%20(16)%20Display%20error%20%22Incident%20report%20not%20found%22%0Aelse%20Incident%20report%20found%0A%20%20%20%20Incident%20Reports%20Database%20--%3E%20IncidentReportsService%20%3A%20(13)%20Return%20specified%20incident%20report%20data%0A%20%20%20%20deactivate%20Incident%20Reports%20Database%0A%0A%20%20%20%20IncidentReportsService%20--%3E%20NGINX%20%3A%20(14)%20Return%20200%20status%0A%20%20%20%20deactivate%20IncidentReportsService%0A%20%20%20%20NGINX%20--%3E%20GuestFrontend%20%3A%20(15)%20Return%20response%20%0A%20%20%20%20GuestFrontend%20--%3E%20Guest%20%3A%20(16)%20Display%20specified%20incident%20report%20details%0A%20%20%20%20deactivate%20GuestFrontend%0Aend%0A%0A</desc><defs/><g><g/><g/><g/><g/><g/><g/><g/><g/><g/><g/><g/><g/><g/><g/><g/><g/><g/><g/><g/><g/><g/><g/><g/><g/><g/><g/><g/><g/><g/><g/><g/><g/><g/><g/><g/><g/><g/><g/><g/><g/><g/><g/><g/><g/><g/><g/><g/><g/><g/><g/><g/><g/><g/><g/><g/><g/><g/><g/><g/><g/><g/><g/><g/><g/><g/><g/><g/><g/><g/><g/><g/><g/><g/><g/><g/><g/><g/><g/><g/><g/><g/><g/><g/><g/><g/><g/><g/><g/><g/><g/><g/><g/><g/><g/><g/><g/><g/><g/><g/><g/><g/><g/><g/><g/><g/><g/><g/><g/><g/><g/><g/><g/><g/><g/><g/><g/><g/><g/><g/><g/><g/><g/><g/><g/><g/><g/><g/><g/><g/><g/><g/><g/><g/><g/><g/><g/><g/><g/><g/><g/><g/><g/><g/><g/><g/><g/><g/><g/><g/><g/><g/><g/><g/><g/><g/><g/><g/><g/><g/><g/><g/><g/><g/><g/><g/><g/><g/><g/><g/><g/><g/><g/><g/><g/><g/><g/><g/><g/><g/><g/><g/><g/><g/><g/><g/><g/><g/><g/><g/><g/><g/><g/><g/><g/><g/><g/><g/><g/><g/><g/><g/><g/><g/><g/><g/><g/><g/><g/><g/><g/><g/><g/><g/><g/><g/><g/><g/><g/><g/><g/><g/><g/><g/><g/><g/><g/><g/><g/><g/><g/><g/><g/><g/><g/><g/><g/><g/><g/><g/><g/><g/><g/><g/><g/><g/><g/><g/><g/><g/><g/><g/><g/><g/><g/><g/><g/><g/><g/><g/><g/><g/><g/><g/><g/><g><rect fill="white" stroke="none" x="0" y="0" width="1482" height="1517"/></g><g/><g><path fill="none" stroke="black" paint-order="fill stroke markers" d=" M 73.50841485 128.73625218881818 L 73.50841485 1517.2285326888182" stroke-miterlimit="10" stroke-width="1.3612669416666667" stroke-dasharray="12.565541,5.445067766666667"/><path fill="none" stroke="black" paint-order="fill stroke markers" d=" M 411.8792283110677 128.73625218881818 L 411.8792283110677 1517.2285326888182" stroke-miterlimit="10" stroke-width="1.3612669416666667" stroke-dasharray="12.565541,5.445067766666667"/><path fill="none" stroke="black" paint-order="fill stroke markers" d=" M 728.4390218746745 128.73625218881818 L 728.4390218746745 1517.2285326888182" stroke-miterlimit="10" stroke-width="1.3612669416666667" stroke-dasharray="12.565541,5.445067766666667"/><path fill="none" stroke="black" paint-order="fill stroke markers" d=" M 1061.8062647791016 128.73625218881818 L 1061.8062647791016 1517.2285326888182" stroke-miterlimit="10" stroke-width="1.3612669416666667" stroke-dasharray="12.565541,5.445067766666667"/><path fill="none" stroke="black" paint-order="fill stroke markers" d=" M 1387.3568564038412 128.73625218881818 L 1387.3568564038412 1517.2285326888182" stroke-miterlimit="10" stroke-width="1.3612669416666667" stroke-dasharray="12.565541,5.445067766666667"/></g><g><g><path fill="white" stroke="black" paint-order="fill stroke markers" d=" M 82.819480731 59.63834222981819 A 9.311065881 9.311065881 0 1 1 82.81947607546743 59.62903116548903 M 73.50841485 68.9494081108182 L 73.50841485 88.8783561368182 M 61.747068473999995 76.13689756281819 L 85.26976122599999 76.13689756281819 M 73.50841485 88.8783561368182 L 61.747068473999995 107.50048789881819 M 73.50841485 88.8783561368182 L 85.26976122599999 107.50048789881819" stroke-miterlimit="10" stroke-width="2.7769845610000004" stroke-dasharray=""/></g><g><g/><text fill="black" stroke="none" font-family="sans-serif" font-size="11pt" font-style="normal" font-weight="normal" text-decoration="normal" x="53.95222435927734" y="123.83569119881818" text-anchor="start" dominant-baseline="alphabetic" xml:space="preserve">Guest</text></g><path fill="none" stroke="none"/><g><path fill="white" stroke="black" paint-order="fill stroke markers" d=" M 340.78403462265754 84.7945553118182 L 482.97442199947784 84.7945553118182 L 482.97442199947784 128.73625218881818 L 340.78403462265754 128.73625218881818 L 340.78403462265754 84.7945553118182 Z" stroke-miterlimit="10" stroke-width="2.613632528" stroke-dasharray=""/></g><g><text fill="black" stroke="none" font-family="sans-serif" font-size="11pt" font-style="normal" font-weight="normal" text-decoration="normal" x="358.50773020315756" y="112.40104888881818" text-anchor="start" dominant-baseline="alphabetic" xml:space="preserve">Guest Front-end</text></g><path fill="none" stroke="none"/><g><path fill="white" stroke="black" paint-order="fill stroke markers" d=" M 687.5012912599948 84.63120327881819 L 769.3767524893542 84.63120327881819 L 769.3767524893542 128.73625218881818 L 687.5012912599948 128.73625218881818 L 687.5012912599948 84.63120327881819 Z" stroke-miterlimit="10" stroke-width="2.613632528" stroke-dasharray=""/></g><g><g/><text fill="black" stroke="none" font-family="sans-serif" font-size="11pt" font-style="normal" font-weight="normal" text-decoration="normal" x="705.2249868404948" y="112.40104888881817" text-anchor="start" dominant-baseline="alphabetic" xml:space="preserve">NGINX</text></g><path fill="none" stroke="none"/><g><path fill="white" stroke="black" paint-order="fill stroke markers" d=" M 947.5364495086602 84.7945553118182 L 1176.076080049543 84.7945553118182 L 1176.076080049543 128.73625218881818 L 947.5364495086602 128.73625218881818 L 947.5364495086602 84.7945553118182 Z" stroke-miterlimit="10" stroke-width="2.613632528" stroke-dasharray=""/></g><g><text fill="black" stroke="none" font-family="sans-serif" font-size="11pt" font-style="normal" font-weight="normal" text-decoration="normal" x="965.2601450891602" y="112.40104888881818" text-anchor="start" dominant-baseline="alphabetic" xml:space="preserve">Incident Reports Microservice</text></g><g><path fill="white" stroke="black" paint-order="fill stroke markers" d=" M 1363.5074595858412 96.71925372081819 L 1363.5074595858412 62.41532679081819 L 1411.2062532218413 62.41532679081819 L 1411.2062532218413 96.71925372081819" stroke-miterlimit="10" stroke-width="2.7769845610000004" stroke-dasharray=""/><path fill="white" stroke="black" paint-order="fill stroke markers" d=" M 1411.2062532218413 61.22285694991819 L 1411.2050607619376 61.33066749483481 L 1411.2014835014716 61.43846725878678 L 1411.195521798166 61.546245461887544 L 1411.187176248187 61.65399132640659 L 1411.1764476860817 61.761694077847274 L 1411.1633371846979 61.86934294602419 L 1411.1478460550745 61.976927166140236 L 1411.129975846312 62.084435979863045 L 1411.109728345416 62.19185863640084 L 1411.0871055771197 62.299184393577484 L 1411.0621098036813 62.4064025189067 L 1411.0347435246574 62.51350229066531 L 1411.0050094766527 62.62047299896537 L 1410.9729106330476 62.7273039468252 L 1410.9384502036994 62.83398445123905 L 1410.9016316346226 62.94050384424536 L 1410.8624586076435 63.04685147399361 L 1410.8209350400316 63.15301670580944 L 1410.7770650841096 63.25898892325815 L 1410.7308531268363 63.364757529206294 L 1410.682303789369 63.47031194688142 L 1410.631421926601 63.575641620929716 L 1410.5782126266758 63.68073601847156 L 1410.5226812104797 63.78558463015478 L 1410.4648332311078 63.89017697120557 L 1410.4046744733096 63.994502582477 L 1410.3422109529108 64.09855103149486 L 1410.2774489162118 64.20231191350096 L 1410.2103948393617 64.3057748524936 L 1410.1410554277127 64.40892950226505 L 1410.0694376151482 64.51176554743633 L 1409.9955485633895 64.61427270448858 L 1409.9193956612803 64.71644072279157 L 1409.8409865240476 64.81825938562858 L 1409.7603289925396 64.91971851121816 L 1409.677431132442 65.02080795373233 L 1409.5923012334722 65.12151760431107 L 1409.5049478085489 65.22183739207324 L 1409.4153795929417 65.32175728512367 L 1409.3236055433974 65.42126729155632 L 1409.2296348372452 65.52035746045347 L 1409.1334768714767 65.6190178828808 L 1409.0351412618083 65.71723869287828 L 1408.9346378417197 65.81501006844678 L 1408.8319766614684 65.91232223253022 L 1408.7271679870873 66.00916545399325 L 1408.6202222993566 66.10553004859446 L 1408.5111502927557 66.20140637995469 L 1408.3999628743943 66.29678486052069 L 1408.2866711629217 66.39165595252388 L 1408.1712864874148 66.48601016893414 L 1408.0538203862448 66.57983807440844 L 1407.934284605924 66.67313028623443 L 1407.8126910999306 66.76587747526865 L 1407.6890520275142 66.85807036686953 L 1407.5633797524788 66.94969974182469 L 1407.4356868419472 67.04075643727302 L 1407.3059860651044 67.13123134762085 L 1407.1742903919194 67.22111542545254 L 1407.0406129918501 67.3103996824352 L 1406.9049672325252 67.39907519021754 L 1406.7673666784074 67.4871330813227 L 1406.6278250894375 67.57456455003492 L 1406.4863564196583 67.6613608532802 L 1406.3429748158185 67.74751331150055 L 1406.197694615959 67.83301330952195 L 1406.0505303479795 67.91785229741582 L 1405.9014967281832 68.00202179135408 L 1405.7506086598084 68.08551337445749 L 1405.5978812315361 68.1683186976373 L 1405.4433297159817 68.25042948043021 L 1405.2869695681682 68.33183751182635 L 1405.12881642398 68.41253465109044 L 1404.9688860985998 68.4925128285758 L 1404.8071945849265 68.5717640465313 L 1404.643758051977 68.65028037990122 L 1404.4785928432686 68.72805397711764 L 1404.3117154751844 68.80507706088565 L 1404.143142635322 68.88134192896105 L 1403.9728911808247 68.95684095492061 L 1403.8009781366966 69.03156658892462 L 1403.6274206940986 69.10551135847197 L 1403.4522362086302 69.17866786914732 L 1403.2754421985942 69.25102880536058 L 1403.097056343244 69.3225869310784 L 1402.9170964810169 69.39333509054786 L 1402.7355806077487 69.46326620901198 L 1402.5525268748759 69.53237329341717 L 1402.3679535876188 69.60064943311258 L 1402.1818792031527 69.66808780054113 L 1401.9943223287607 69.7346816519223 L 1401.805301719974 69.80042432792644 L 1401.6148362786962 69.86530925434072 L 1401.4229450513124 69.92932994272657 L 1401.2296472267856 69.9924799910685 L 1401.034962134737 70.05475308441433 L 1400.8389092435139 70.1161429955066 L 1400.6415081582418 70.17664358540536 L 1400.4427786188646 70.23624880410202 L 1400.2427404981709 70.29495269112441 L 1400.041413799806 70.35274937613272 L 1399.8388186562718 70.40963307950663 L 1399.6349753269142 70.46559811292322 L 1399.4299041958957 70.52063887992576 L 1399.223625770159 70.57474987648341 L 1399.0161606773747 70.62792569154163 L 1398.807529663879 70.68016100756323 L 1398.5977535925995 70.73145060106012 L 1398.3868534409685 70.78178934311569 L 1398.1748502988255 70.8311721998977 L 1397.9617653663079 70.8795942331616 L 1397.7476199517314 70.92705060074444 L 1397.5324354694592 70.973536557049 L 1397.31623343776 71.01904745351838 L 1397.0990354766568 71.06357873910088 L 1396.8808633057647 71.10712596070502 L 1396.6617387421193 71.14968476364494 L 1396.441683697994 71.19125089207583 L 1396.2207201787098 71.23182018941947 L 1395.9988702804349 71.27138859877994 L 1395.7761561879738 71.30995216334925 L 1395.5526001725505 71.34750702680313 L 1395.3282245895798 71.38404943368649 L 1395.1030518764335 71.4195757297891 L 1394.877104550195 71.45408236251096 L 1394.650405205409 71.48756588121756 L 1394.4229765118205 71.52002293758491 L 1394.1948412121098 71.55145028593446 L 1393.9660221196164 71.58184478355753 L 1393.7365421160591 71.61120339102969 L 1393.506424149247 71.63952317251467 L 1393.275691230785 71.66680129605793 L 1393.0443664337727 71.69303503386982 L 1392.8124728904968 71.71822176259843 L 1392.5800337901187 71.7423589635919 L 1392.3470723763546 71.7654442231502 L 1392.1136119451517 71.78747523276665 L 1391.8796758423587 71.80844978935863 L 1391.6452874613908 71.82836579548797 L 1391.4104702408908 71.84722125957065 L 1391.1752476623851 71.86501429607597 L 1390.9396432479355 71.8817431257151 L 1390.7036805577873 71.89740607561903 L 1390.4673831880125 71.91200157950583 L 1390.2307747681514 71.92552817783725 L 1389.9938789588489 71.93798451796474 L 1389.7567194494884 71.94936935426468 L 1389.5193199558232 71.95968154826289 L 1389.2817042176048 71.96892006874862 L 1389.0438959962091 71.97708399187748 L 1388.8059190722602 71.98417250126396 L 1388.5677972432518 71.99018488806304 L 1388.3295543211684 71.99512055104105 L 1388.0912141301042 71.99897899663581 L 1387.852800503879 72.00175983900598 L 1387.6143372836575 72.00346280006961 L 1387.3758483155623 72.00408770953204 L 1387.1373574482918 72.00363450490285 L 1386.898888530734 72.0021032315021 L 1386.6604654095818 71.99949404245586 L 1386.4221119269487 71.9958071986809 L 1386.1838519179844 71.99104306885846 L 1385.945709208491 71.98520212939759 L 1385.7077076125413 71.97828496438737 L 1385.4698709300965 71.97029226553852 L 1385.2322229446265 71.96122483211428 L 1384.994787420732 71.95108357085043 L 1384.7575881017674 71.93986949586466 L 1384.520648707467 71.92758372855508 L 1384.2839929315726 71.91422749748824 L 1384.0476444394649 71.89980213827607 L 1383.811626865796 71.8843090934425 L 1383.5759638121262 71.86774991227908 L 1383.3406788445652 71.85012625069015 L 1383.1057954914131 71.83143987102717 L 1382.87133724081 71.81169264191253 L 1382.6373275383849 71.79088653805269 L 1382.4037897849137 71.7690236400407 L 1382.1707473339766 71.74610613414815 L 1381.938223489625 71.72213631210651 L 1381.706241504049 71.69711657087802 L 1381.4748245752544 71.67104941241597 L 1381.243995844741 71.64393744341446 L 1381.0137783951893 71.6157833750478 L 1380.7841952481529 71.58659002269937 L 1380.5552693617547 71.55636030568009 L 1380.3270236283927 71.52509724693644 L 1380.09948087245 71.49280397274828 L 1379.8726638480127 71.45948371241609 L 1379.646595236594 71.42513979793813 L 1379.421297644867 71.38977566367726 L 1379.1967936024032 71.35339484601741 L 1378.9731055594193 71.31600098301004 L 1378.7502558845333 71.27759781401028 L 1378.5282668625273 71.23818917930303 L 1378.307160692118 71.19777901971894 L 1378.0869594837388 71.15637137624027 L 1377.8676852573265 71.11397038959687 L 1377.6493599401213 71.07058029985207 L 1377.432005364473 71.02620544597868 L 1377.215643265658 70.98085026542512 L 1377.0002952797056 70.93451929367163 L 1376.7859829412353 70.8872171637768 L 1376.5727276813022 70.8389486059142 L 1376.3605508252547 70.78971844689937 L 1376.1494735906015 70.7395316097072 L 1375.9395170848902 70.6883931129796 L 1375.7307023035962 70.6363080705236 L 1375.523050128024 70.58328169080006 L 1375.3165813232176 70.52931927640276 L 1375.111316535886 70.47442622352818 L 1374.9072762923365 70.41860802143584 L 1374.7044809964236 70.36187025189946 L 1374.502950927508 70.3042185886487 L 1374.302706238428 70.24565879680183 L 1374.1037669534867 70.18619673228926 L 1373.906152966446 70.12583834126788 L 1373.70988403854 70.06458965952649 L 1373.5149797964982 70.00245681188221 L 1373.321459730582 69.93944601156807 L 1373.1293431926374 69.87556355961155 L 1372.9386493941577 69.81081584420461 L 1372.7493974043637 69.74520934006487 L 1372.5616061482967 69.67875060778805 L 1372.375294404926 69.61144629319199 L 1372.1904808052707 69.54330312665208 L 1372.0071838305366 69.47432792242817 L 1371.8254218102684 69.40452757798322 L 1371.6452129205168 69.3339090732935 L 1371.4665751820205 69.26247947015062 L 1371.2895264584047 69.19024591145539 L 1371.1140844543938 69.11721562050347 L 1370.9402667140423 69.0433959002631 L 1370.7680906189794 68.96879413264479 L 1370.5975733866712 68.89341777776313 L 1370.4287320686985 68.81727437319081 L 1370.2615835490526 68.74037153320482 L 1370.0961445424462 68.66271694802508 L 1369.9324315926422 68.58431838304537 L 1369.7704610707988 68.5051836780569 L 1369.6102491738334 68.4253207464642 L 1369.4518119228023 68.34473757449386 L 1369.2951651612987 68.26344222039596 L 1369.1403245538677 68.18144281363814 L 1368.9873055844414 68.09874755409275 L 1368.836123554789 68.01536471121685 L 1368.6867935829878 67.9313026232252 L 1368.5393306019103 67.84656969625658 L 1368.3937493577318 67.76117440353308 L 1368.2500644084553 67.67512528451279 L 1368.108290122456 67.5884309440359 L 1367.9684406770446 67.50110005146425 L 1367.830530057049 67.41314133981427 L 1367.6945720534159 67.32456360488388 L 1367.560580261833 67.23537570437271 L 1367.428568081367 67.14558655699653 L 1367.2985487131268 67.05520514159522 L 1367.1705351589403 66.96424049623502 L 1367.0445402200564 66.87270171730466 L 1366.920576495864 66.78059795860575 L 1366.7986563826323 66.68793843043741 L 1366.6787920722709 66.59473239867523 L 1366.5609955511109 66.50098918384472 L 1366.4452785987064 66.40671816018926 L 1366.3316527866564 66.31192875473263 L 1366.2201294774468 66.2166304463364 L 1366.1107198233162 66.120832764752 L 1366.0034347651385 66.02454528966774 L 1365.8982850313303 65.92777764975091 L 1365.7952811367772 65.83053952168484 L 1365.694433381783 65.73284062920132 L 1365.5957518510388 65.63469074210818 L 1365.499246412616 65.53609967531233 L 1365.4049267169773 65.4370772878383 L 1365.3128021960144 65.33763348184232 L 1365.2228820621021 65.23777820162212 L 1365.1351753071792 65.13752143262249 L 1365.049690701848 65.03687320043682 L 1364.9664367944977 64.93584356980442 L 1364.8854219104498 64.83444264360419 L 1364.806654151125 64.73268056184422 L 1364.7301413932337 64.63056750064791 L 1364.655891287988 64.52811367123628 L 1364.5839112603362 64.42532931890689 L 1364.5142085082216 64.32222472200931 L 1364.446790001861 64.21881019091732 L 1364.381662483049 64.11509606699785 L 1364.3188324644832 64.01109272157687 L 1364.258306229113 63.90681055490224 L 1364.2000898295116 63.80225999510374 L 1364.1441890872702 63.697451497150205 L 1364.0906095924167 63.59239554180411 L 1364.0393567028561 63.48710263457343 L 1363.990435543834 63.381583304661156 L 1363.9438510074265 63.27584810391234 L 1363.8996077520474 63.16990760575894 L 1363.857710201986 63.06377240416249 L 1363.8181625469622 62.95745311255472 L 1363.7809687417086 62.85096036277616 L 1363.7461325055747 62.744304804013076 L 1363.713657322155 62.63749710173245 L 1363.683546438941 62.530547936615505 L 1363.6558028669958 62.423468003489624 L 1363.6304293806534 62.316268010258895 L 1363.6074285172415 62.208958676833305 L 1363.586802576827 62.10155073405677 L 1363.568553621987 61.99405492263407 L 1363.5526834776015 61.88648199205676 L 1363.539193730672 61.77884269952825 L 1363.5280857301618 61.6711478088881 L 1363.5193605868617 61.56340808953563 L 1363.5130191732787 61.45563431535299 L 1363.509062123549 61.34783726362778 L 1363.5074898333744 61.24002771397536 L 1363.5083024599824 61.13221644726084 L 1363.511499922111 61.02441424452105 L 1363.5170819000166 60.916631885886424 L 1363.5250478355063 60.808880149503025 L 1363.535396931993 60.70116981045468 L 1363.5481281545758 60.59351163968555 L 1363.563240230143 60.48591640292299 L 1363.5807316474995 60.378394859601016 L 1363.6006006575183 60.27095776178435 L 1363.622845273315 60.163615853093255 L 1363.6474632704465 60.05637986762915 L 1363.6744521871335 59.949260528901206 L 1363.703809324507 59.84226854875404 L 1363.7355317468773 59.7354146262965 L 1363.7696162820291 59.62870944683179 L 1363.8060595215372 59.52216368078894 L 1363.844857821108 59.41578798265577 L 1363.8860073009437 59.30959298991343 L 1363.9295038461307 59.203589321972714 L 1363.9753431070508 59.09778757911208 L 1364.023520499816 58.992198341417634 L 1364.074031206727 58.88683216772516 L 1364.1268701767558 58.78169959456423 L 1364.1820321260489 58.67681113510454 L 1364.2395115384575 58.57217727810464 L 1364.2993026660884 58.46780848686303 L 1364.3613995298783 58.36371519817185 L 1364.4257959201927 58.25990782127324 L 1364.4924853974464 58.15639673681838 L 1364.5614612927473 58.053192295829454 L 1364.632716708563 57.950304818664556 L 1364.7062445194117 57.84774459398567 L 1364.7820373725733 57.745521877729786 L 1364.8600876888258 57.64364689208335 L 1364.9403876632025 57.54212982446004 L 1365.022929265773 57.44098082648201 L 1365.1077042424458 57.340210012964775 L 1365.1947041157937 57.2398274609057 L 1365.2839201859022 57.13984320847635 L 1365.375343531238 57.040267254018644 L 1365.4689650095436 56.94110955504505 L 1365.5647752587488 56.84238002724283 L 1365.6627646979084 56.74408854348249 L 1365.7629235281602 56.646244932830506 L 1365.8652417337046 56.54885897956639 L 1365.9697090828065 56.45194042220433 L 1366.076315128818 56.35549895251929 L 1366.1850492112233 56.25954421457787 L 1366.2959004567047 56.16408580377391 L 1366.40885778023 56.06913326586893 L 1366.523909886161 55.974696096037604 L 1366.641045269383 55.88078373791821 L 1366.7602522164557 55.7874055826683 L 1366.881518806783 55.694570968025594 L 1367.0048329138074 55.60228917737418 L 1367.130182206221 55.51056943881623 L 1367.2575541491985 55.41942092424918 L 1367.3869360056524 55.328852748448504 L 1367.5183148375045 55.23887396815633 L 1367.651677506981 55.14949358117568 L 1367.7870106779264 55.0607205254708 L 1367.9243008171363 54.97256367827326 L 1368.063534195711 54.88503185519433 L 1368.204696890429 54.79813380934336 L 1368.3477747851382 54.71187823045254 L 1368.4927535721683 54.62627374400786 L 1368.6396187537616 54.541328910386646 L 1368.7883556435222 54.45705222400146 L 1368.9389493678852 54.373452112450714 L 1369.0913848676034 54.290536935675895 L 1369.2456468992543 54.20831498512558 L 1369.401720036763 54.12679448292632 L 1369.559588672946 54.0459835810604 L 1369.7192370210707 53.965890360550645 L 1369.880649116436 53.88652283065238 L 1370.0438088179662 53.80788892805245 L 1370.208699809828 53.72999651607559 L 1370.375305603059 53.652853383898076 L 1370.5436095372186 53.57646724576885 L 1370.7135947820539 53.50084574023808 L 1370.8852443391822 53.42599642939328 L 1371.0585410437905 53.35192679810317 L 1371.233467566353 53.278644253269164 L 1371.4100064143631 53.20615612308466 L 1371.5881399340833 53.13446965630228 L 1371.7678503123097 53.06359202150896 L 1371.9491195781548 52.99353030640911 L 1372.1319296048425 52.924291517115876 L 1372.3162621115227 52.85588257745046 L 1372.5020986650984 52.78831032824984 L 1372.6894206820689 52.72158152668263 L 1372.878209430389 52.65570284557336 L 1373.0684460313407 52.590680872735255 L 1373.2601114614229 52.52652211031142 L 1373.453186554252 52.463232974124615 L 1373.6476520024796 52.40081979303573 L 1373.843488359723 52.33928880831086 L 1374.04067604251 52.278646172997206 L 1374.2391953322362 52.21889795130775 L 1374.4390263771381 52.160050118014894 L 1374.6401491942781 52.1021085578529 L 1374.8425436715418 52.045079064929524 L 1375.0461895696499 51.98896734214652 L 1375.2510665241828 51.933779000629414 L 1375.4571540476154 51.87951955916637 L 1375.6644315313674 51.826194443656306 L 1375.872878247863 51.77380898656634 L 1376.082473352604 51.72236842639853 L 1376.293195886255 51.67187790716602 L 1376.505024776738 51.622342477878675 L 1376.7179388413406 51.57376709203812 L 1376.9319167888336 51.526156607142475 L 1377.1469372216009 51.47951578420055 L 1377.362978637778 51.43384928725578 L 1377.5800194334038 51.38916168291979 L 1377.798037904579 51.34545743991578 L 1378.0170122496386 51.302740928631636 L 1378.2369205713303 51.261016420682886 L 1378.4577408790055 51.220288088485546 L 1378.679451090817 51.18056000483891 L 1378.902029035929 51.14183614251822 L 1379.125452456732 51.10412037387746 L 1379.3496990110702 51.06741647046204 L 1379.5747462744753 51.03172810263173 L 1379.800571742408 50.99705883919358 L 1380.02715283251 50.96341214704502 L 1380.254466886861 50.930791390827245 L 1380.4824911742453 50.899199832588685 L 1380.7112028924237 50.86864063145883 L 1380.9405791704153 50.83911684333235 L 1381.1705970707833 50.81063142056343 L 1381.4012335919294 50.78318721167063 L 1381.632465670394 50.75678696105195 L 1381.8642701831614 50.731433308710464 L 1382.0966239499737 50.70712878999027 L 1382.329503735648 50.683875835323 L 1382.5628862523995 50.66167676998473 L 1382.796748162171 50.6405338138635 L 1383.031066078967 50.6204490812373 L 1383.2658165711905 50.60142458056266 L 1383.500976163988 50.583462214273794 L 1383.7365213415965 50.566563778592354 L 1383.972428549694 50.55073096334783 L 1384.2086741977569 50.53596535180856 L 1384.4452346614166 50.52226842052339 L 1384.6820862848244 50.50964153917403 L 1384.919205383015 50.49808597043808 L 1385.1565682442765 50.48760286986282 L 1385.3941511325202 50.47819328574954 L 1385.6319302896557 50.46985815904882 L 1385.869881937965 50.462598323266384 L 1386.1079822824818 50.456414504379765 L 1386.3462075133698 50.45130732076569 L 1386.5845338083047 50.44727728313828 L 1386.8229373348559 50.444324794497916 L 1387.0613942528687 50.44245015009101 L 1387.2998807168506 50.44165353738045 L 1387.5383728783536 50.44193503602685 L 1387.7768468883605 50.443294617880554 L 1388.0152788996688 50.445732146984525 L 1388.2536450692762 50.44924737958788 L 1388.4919215607647 50.45383996417029 L 1388.730084546683 50.459509441477124 L 1388.9681102109316 50.46625524456538 L 1389.205974751142 50.474076698860365 L 1389.4436543810589 50.48297302222316 L 1389.6811253329167 50.49294332502887 L 1389.9183638598188 50.50398661025549 L 1390.1553462381098 50.51610177358371 L 1390.3920487697494 50.52928760350731 L 1390.6284477846816 50.54354278145426 L 1390.8645196432021 50.55886588191867 L 1391.1002407383219 50.575255372603245 L 1391.3355874981276 50.592709614572584 L 1391.5705363881393 50.61122686241703 L 1391.8050639136643 50.630805264427224 L 1392.039146622145 50.651442862779284 L 1392.2727611055057 50.67313759373059 L 1392.5058840024928 50.695887287826096 L 1392.7384920010109 50.71968967011537 L 1392.970561840454 50.74454236038002 L 1393.2020703140315 50.77044287337172 L 1393.4329942710888 50.797388619060754 L 1393.663310619423 50.825376902895016 L 1393.892996327591 50.85440492606945 L 1394.1220284272133 50.88446978580591 L 1394.350384015271 50.9155684756435 L 1394.5780402563955 50.947697885739125 L 1394.8049743851523 50.980854803178566 L 1395.0311637083178 51.01503591229771 L 1395.2565856071478 51.05023779501413 L 1395.481217539641 51.08645693116888 L 1395.7050370427905 51.12368969887854 L 1395.928021734833 51.16193237489736 L 1396.150149317485 51.201181134989596 L 1396.3713975781736 51.241432054311964 L 1396.5917443922567 51.28268110780607 L 1396.8111677252366 51.32492417060092 L 1397.0296456349631 51.368157018425464 L 1397.247156273827 51.41237532803093 L 1397.4636778909457 51.45757467762322 L 1397.6791888343382 51.503750547305025 L 1397.8936675530895 51.55089831952786 L 1398.1070925995064 51.5990132795538 L 1398.3194426312623 51.64809061592693 L 1398.530696413531 51.69812542095451 L 1398.7408328211102 51.749112691197745 L 1398.9498308405343 51.801047327972086 L 1399.1576695721753 51.85392413785714 L 1399.3643282323337 51.90773783321599 L 1399.5697861553153 51.962483032723924 L 1399.7740227954994 52.01815426190663 L 1399.9770177293917 52.07474595368758 L 1400.1787506576684 52.132252448944755 L 1400.3792014072044 52.190667997076545 L 1400.578349933092 52.24998675657682 L 1400.7761763206447 52.310202795619055 L 1400.9726607873883 52.371310092649544 L 1401.16778368504 52.43330253698949 L 1401.3615255014727 52.49617392944612 L 1401.5538668626662 52.559917982932596 L 1401.7447885346446 52.62452832309667 L 1401.9342714253999 52.68999848895818 L 1402.1222965868008 52.7563219335551 L 1402.3088452164877 52.823492024598224 L 1402.4938986597535 52.89150204513444 L 1402.6774384114078 52.960345194218355 L 1402.8594461176285 53.03001458759244 L 1403.0399035777964 53.10050325837541 L 1403.2187927463162 53.171804157758935 L 1403.3960957344202 53.243910155712484 L 1403.5717948119568 53.31681404169635 L 1403.7458724091653 53.39050852538269 L 1403.9183111184304 53.46498623738456 L 1404.0890936960254 53.5402397299928 L 1404.2582030638348 53.61626147792087 L 1404.4256223110624 53.69304387905734 L 1404.5913346959233 53.770579255226075 L 1404.755323647317 53.848859852954064 L 1404.917572766485 53.92787784424677 L 1405.0780658286506 54.00762532737092 L 1405.2367867846413 54.08809432764465 L 1405.393719762494 54.16927679823499 L 1405.5488490690414 54.251164620962534 L 1405.702159191482 54.33374960711325 L 1405.8536347989318 54.41702349825734 L 1406.003260743956 54.500977967075094 L 1406.1510220640848 54.58560461818958 L 1406.2969039833092 54.670894989006214 L 1406.4408919135592 54.75684055055899 L 1406.5829714561614 54.84343270836337 L 1406.72312840328 54.93066280327574 L 1406.8613487393372 55.0185221123593 L 1406.9976186424146 55.107001849756344 L 1407.1319244856354 55.196093167566886 L 1407.2642528385272 55.28578715673337 L 1407.3945904683649 55.37607484793163 L 1407.5229243414942 55.46694721246779 L 1407.649241624635 55.55839516318112 L 1407.7735296861636 55.65040955535275 L 1407.895776097378 55.742981187620146 L 1408.0159686337388 55.83610080289723 L 1408.1340952760922 55.92975908930006 L 1408.250144211873 56.02394668107806 L 1408.364103836284 56.11865415955053 L 1408.4759627534575 56.213872054048544 L 1408.5857097775954 56.30959084286201 L 1408.6933339340865 56.405800954191804 L 1408.798824460605 56.50249276710697 L 1408.9021708081862 56.5996566125068 L 1409.003362642281 56.69728277408771 L 1409.102389843791 56.79536148931491 L 1409.199242510078 56.89388295039859 L 1409.2939109559563 56.99283730527477 L 1409.3863857146603 57.09221465859041 L 1409.476657538791 57.19200507269298 L 1409.5647174012413 57.29219856862425 L 1409.6505564960985 57.39278512711811 L 1409.7341662395243 57.49375468960253 L 1409.8155382706143 57.59509715920541 L 1409.8946644522332 57.69680240176424 L 1409.9715368718287 57.79886024683951 L 1410.0461478422228 57.90126048873177 L 1410.1184899023808 58.003992887502164 L 1410.188555818157 58.10704716999642 L 1410.256338583018 58.21041303087217 L 1410.321831418744 58.31408013362946 L 1410.385027776106 58.41803811164441 L 1410.4459213355206 58.52227656920584 L 1410.5045060076832 58.62678508255487 L 1410.5607759341747 58.731553200927245 L 1410.61472548805 58.83657044759845 L 1410.666349274398 58.94182632093131 L 1410.715642130884 59.04731029542622 L 1410.7625991282623 59.153011822773635 L 1410.8072155708733 59.25892033290889 L 1410.8494869971094 59.36502523506925 L 1410.8894091798632 59.471315918852895 L 1410.9269781269497 59.57778175528004 L 1410.962190081506 59.684412097855756 L 1410.9950415223652 59.79119628363465 L 1411.025529164411 59.89812363428712 L 1411.0536499589048 60.005183457167206 L 1411.0794010937902 60.11236504638185 L 1411.1027799939752 60.21965768386144 L 1411.1237843215897 60.327050640431644 L 1411.1424119762178 60.43453317688629 L 1411.1586610951101 60.5420945450613 L 1411.172530053368 60.6497239889095 L 1411.1840174641072 60.757410745576195 L 1411.1931221785965 60.86514404647545 L 1411.1998432863716 60.972913118366954 L 1411.2041801153277 61.08070718443333 L 1411.2061322317852 61.188515465357796 M 1411.2062532218413 95.52678387991818 L 1411.2050607619376 95.6345944248348 L 1411.2014835014716 95.74239418878678 L 1411.195521798166 95.85017239188754 L 1411.187176248187 95.95791825640659 L 1411.1764476860817 96.06562100784727 L 1411.1633371846979 96.1732698760242 L 1411.1478460550745 96.28085409614023 L 1411.129975846312 96.38836290986303 L 1411.109728345416 96.49578556640084 L 1411.0871055771197 96.60311132357748 L 1411.0621098036813 96.7103294489067 L 1411.0347435246574 96.8174292206653 L 1411.0050094766527 96.92439992896537 L 1410.9729106330476 97.0312308768252 L 1410.9384502036994 97.13791138123905 L 1410.9016316346226 97.24443077424536 L 1410.8624586076435 97.35077840399362 L 1410.8209350400316 97.45694363580944 L 1410.7770650841096 97.56291585325815 L 1410.7308531268363 97.66868445920629 L 1410.682303789369 97.77423887688141 L 1410.631421926601 97.8795685509297 L 1410.5782126266758 97.98466294847155 L 1410.5226812104797 98.08951156015478 L 1410.4648332311078 98.19410390120557 L 1410.4046744733096 98.29842951247699 L 1410.3422109529108 98.40247796149485 L 1410.2774489162118 98.50623884350097 L 1410.2103948393617 98.60970178249359 L 1410.1410554277127 98.71285643226504 L 1410.0694376151482 98.81569247743631 L 1409.9955485633895 98.91819963448859 L 1409.9193956612803 99.02036765279156 L 1409.8409865240476 99.12218631562857 L 1409.7603289925396 99.22364544121817 L 1409.677431132442 99.32473488373233 L 1409.5923012334722 99.42544453431107 L 1409.5049478085489 99.52576432207324 L 1409.4153795929417 99.62568421512367 L 1409.3236055433974 99.72519422155631 L 1409.2296348372452 99.82428439045346 L 1409.1334768714767 99.92294481288079 L 1409.0351412618083 100.02116562287829 L 1408.9346378417197 100.11893699844678 L 1408.8319766614684 100.2162491625302 L 1408.7271679870873 100.31309238399325 L 1408.6202222993566 100.40945697859446 L 1408.5111502927557 100.50533330995468 L 1408.3999628743943 100.60071179052068 L 1408.2866711629217 100.69558288252388 L 1408.1712864874148 100.78993709893413 L 1408.0538203862448 100.88376500440843 L 1407.934284605924 100.97705721623441 L 1407.8126910999306 101.06980440526866 L 1407.6890520275142 101.16199729686952 L 1407.5633797524788 101.25362667182469 L 1407.4356868419472 101.34468336727302 L 1407.3059860651044 101.43515827762084 L 1407.1742903919194 101.52504235545253 L 1407.0406129918501 101.61432661243519 L 1406.9049672325252 101.70300212021755 L 1406.7673666784074 101.7910600113227 L 1406.6278250894375 101.87849148003492 L 1406.4863564196583 101.9652877832802 L 1406.3429748158185 102.05144024150056 L 1406.197694615959 102.13694023952193 L 1406.0505303479795 102.22177922741581 L 1405.9014967281832 102.30594872135407 L 1405.7506086598084 102.38944030445748 L 1405.5978812315361 102.47224562763729 L 1405.4433297159817 102.5543564104302 L 1405.2869695681682 102.63576444182635 L 1405.12881642398 102.71646158109044 L 1404.9688860985998 102.79643975857579 L 1404.8071945849265 102.8756909765313 L 1404.643758051977 102.95420730990122 L 1404.4785928432686 103.03198090711763 L 1404.3117154751844 103.10900399088564 L 1404.143142635322 103.18526885896105 L 1403.9728911808247 103.2607678849206 L 1403.8009781366966 103.33549351892461 L 1403.6274206940986 103.40943828847196 L 1403.4522362086302 103.48259479914732 L 1403.2754421985942 103.55495573536056 L 1403.097056343244 103.6265138610784 L 1402.9170964810169 103.69726202054787 L 1402.7355806077487 103.76719313901197 L 1402.5525268748759 103.83630022341715 L 1402.3679535876188 103.90457636311257 L 1402.1818792031527 103.97201473054113 L 1401.9943223287607 104.03860858192229 L 1401.805301719974 104.10435125792642 L 1401.6148362786962 104.1692361843407 L 1401.4229450513124 104.23325687272656 L 1401.2296472267856 104.29640692106851 L 1401.034962134737 104.35868001441433 L 1400.8389092435139 104.4200699255066 L 1400.6415081582418 104.48057051540535 L 1400.4427786188646 104.54017573410202 L 1400.2427404981709 104.5988796211244 L 1400.041413799806 104.65667630613272 L 1399.8388186562718 104.71356000950664 L 1399.6349753269142 104.7695250429232 L 1399.4299041958957 104.82456580992574 L 1399.223625770159 104.87867680648341 L 1399.0161606773747 104.93185262154162 L 1398.807529663879 104.98408793756322 L 1398.5977535925995 105.0353775310601 L 1398.3868534409685 105.08571627311568 L 1398.1748502988255 105.13509912989768 L 1397.9617653663079 105.1835211631616 L 1397.7476199517314 105.23097753074444 L 1397.5324354694592 105.27746348704899 L 1397.31623343776 105.32297438351839 L 1397.0990354766568 105.36750566910086 L 1396.8808633057647 105.41105289070501 L 1396.6617387421193 105.45361169364494 L 1396.441683697994 105.49517782207583 L 1396.2207201787098 105.53574711941947 L 1395.9988702804349 105.57531552877992 L 1395.7761561879738 105.61387909334925 L 1395.5526001725505 105.65143395680312 L 1395.3282245895798 105.68797636368647 L 1395.1030518764335 105.72350265978909 L 1394.877104550195 105.75800929251095 L 1394.650405205409 105.79149281121755 L 1394.4229765118205 105.82394986758491 L 1394.1948412121098 105.85537721593445 L 1393.9660221196164 105.88577171355752 L 1393.7365421160591 105.9151303210297 L 1393.506424149247 105.94345010251467 L 1393.275691230785 105.97072822605791 L 1393.0443664337727 105.99696196386981 L 1392.8124728904968 106.02214869259844 L 1392.5800337901187 106.04628589359189 L 1392.3470723763546 106.0693711531502 L 1392.1136119451517 106.09140216276666 L 1391.8796758423587 106.11237671935864 L 1391.6452874613908 106.13229272548797 L 1391.4104702408908 106.15114818957065 L 1391.1752476623851 106.16894122607596 L 1390.9396432479355 106.1856700557151 L 1390.7036805577873 106.20133300561903 L 1390.4673831880125 106.21592850950582 L 1390.2307747681514 106.22945510783724 L 1389.9938789588489 106.24191144796474 L 1389.7567194494884 106.25329628426466 L 1389.5193199558232 106.2636084782629 L 1389.2817042176048 106.2728469987486 L 1389.0438959962091 106.28101092187747 L 1388.8059190722602 106.28809943126396 L 1388.5677972432518 106.29411181806304 L 1388.3295543211684 106.29904748104106 L 1388.0912141301042 106.30290592663582 L 1387.852800503879 106.30568676900597 L 1387.6143372836575 106.30738973006962 L 1387.3758483155623 106.30801463953205 L 1387.1373574482918 106.30756143490284 L 1386.898888530734 106.3060301615021 L 1386.6604654095818 106.30342097245587 L 1386.4221119269487 106.29973412868088 L 1386.1838519179844 106.29496999885845 L 1385.945709208491 106.28912905939758 L 1385.7077076125413 106.28221189438736 L 1385.4698709300965 106.27421919553852 L 1385.2322229446265 106.26515176211427 L 1384.994787420732 106.25501050085043 L 1384.7575881017674 106.24379642586464 L 1384.520648707467 106.23151065855508 L 1384.2839929315726 106.21815442748823 L 1384.0476444394649 106.20372906827606 L 1383.811626865796 106.1882360234425 L 1383.5759638121262 106.17167684227908 L 1383.3406788445652 106.15405318069014 L 1383.1057954914131 106.13536680102716 L 1382.87133724081 106.11561957191253 L 1382.6373275383849 106.09481346805269 L 1382.4037897849137 106.0729505700407 L 1382.1707473339766 106.05003306414814 L 1381.938223489625 106.0260632421065 L 1381.706241504049 106.00104350087803 L 1381.4748245752544 105.97497634241597 L 1381.243995844741 105.94786437341445 L 1381.0137783951893 105.9197103050478 L 1380.7841952481529 105.89051695269937 L 1380.5552693617547 105.86028723568009 L 1380.3270236283927 105.82902417693644 L 1380.09948087245 105.79673090274827 L 1379.8726638480127 105.76341064241608 L 1379.646595236594 105.72906672793813 L 1379.421297644867 105.69370259367726 L 1379.1967936024032 105.6573217760174 L 1378.9731055594193 105.61992791301003 L 1378.7502558845333 105.58152474401028 L 1378.5282668625273 105.54211610930304 L 1378.307160692118 105.50170594971894 L 1378.0869594837388 105.46029830624026 L 1377.8676852573265 105.41789731959686 L 1377.6493599401213 105.37450722985206 L 1377.432005364473 105.33013237597868 L 1377.215643265658 105.28477719542511 L 1377.0002952797056 105.23844622367163 L 1376.7859829412353 105.1911440937768 L 1376.5727276813022 105.14287553591419 L 1376.3605508252547 105.09364537689936 L 1376.1494735906015 105.0434585397072 L 1375.9395170848902 104.99232004297959 L 1375.7307023035962 104.9402350005236 L 1375.523050128024 104.88720862080007 L 1375.3165813232176 104.83324620640276 L 1375.111316535886 104.77835315352817 L 1374.9072762923365 104.72253495143585 L 1374.7044809964236 104.66579718189945 L 1374.502950927508 104.60814551864868 L 1374.302706238428 104.54958572680184 L 1374.1037669534867 104.49012366228926 L 1373.906152966446 104.42976527126788 L 1373.70988403854 104.36851658952648 L 1373.5149797964982 104.30638374188221 L 1373.321459730582 104.24337294156805 L 1373.1293431926374 104.17949048961154 L 1372.9386493941577 104.11474277420461 L 1372.7493974043637 104.04913627006486 L 1372.5616061482967 103.98267753778805 L 1372.375294404926 103.91537322319199 L 1372.1904808052707 103.84723005665208 L 1372.0071838305366 103.77825485242818 L 1371.8254218102684 103.70845450798322 L 1371.6452129205168 103.63783600329349 L 1371.4665751820205 103.56640640015061 L 1371.2895264584047 103.49417284145538 L 1371.1140844543938 103.42114255050346 L 1370.9402667140423 103.3473228302631 L 1370.7680906189794 103.27272106264479 L 1370.5975733866712 103.19734470776314 L 1370.4287320686985 103.1212013031908 L 1370.2615835490526 103.04429846320481 L 1370.0961445424462 102.96664387802507 L 1369.9324315926422 102.88824531304537 L 1369.7704610707988 102.8091106080569 L 1369.6102491738334 102.72924767646418 L 1369.4518119228023 102.64866450449387 L 1369.2951651612987 102.56736915039596 L 1369.1403245538677 102.48536974363815 L 1368.9873055844414 102.40267448409276 L 1368.836123554789 102.31929164121684 L 1368.6867935829878 102.2352295532252 L 1368.5393306019103 102.15049662625658 L 1368.3937493577318 102.06510133353308 L 1368.2500644084553 101.97905221451278 L 1368.108290122456 101.89235787403591 L 1367.9684406770446 101.80502698146424 L 1367.830530057049 101.71706826981428 L 1367.6945720534159 101.62849053488388 L 1367.560580261833 101.53930263437272 L 1367.428568081367 101.44951348699652 L 1367.2985487131268 101.35913207159521 L 1367.1705351589403 101.26816742623502 L 1367.0445402200564 101.17662864730465 L 1366.920576495864 101.08452488860574 L 1366.7986563826323 100.9918653604374 L 1366.6787920722709 100.89865932867522 L 1366.5609955511109 100.80491611384473 L 1366.4452785987064 100.71064509018925 L 1366.3316527866564 100.61585568473262 L 1366.2201294774468 100.5205573763364 L 1366.1107198233162 100.424759694752 L 1366.0034347651385 100.32847221966773 L 1365.8982850313303 100.2317045797509 L 1365.7952811367772 100.13446645168483 L 1365.694433381783 100.03676755920131 L 1365.5957518510388 99.93861767210817 L 1365.499246412616 99.84002660531232 L 1365.4049267169773 99.7410042178383 L 1365.3128021960144 99.64156041184232 L 1365.2228820621021 99.54170513162211 L 1365.1351753071792 99.4414483626225 L 1365.049690701848 99.34080013043682 L 1364.9664367944977 99.23977049980442 L 1364.8854219104498 99.13836957360418 L 1364.806654151125 99.03660749184422 L 1364.7301413932337 98.9344944306479 L 1364.655891287988 98.83204060123627 L 1364.5839112603362 98.72925624890688 L 1364.5142085082216 98.6261516520093 L 1364.446790001861 98.52273712091731 L 1364.381662483049 98.41902299699785 L 1364.3188324644832 98.31501965157686 L 1364.258306229113 98.21073748490224 L 1364.2000898295116 98.10618692510373 L 1364.1441890872702 98.0013784271502 L 1364.0906095924167 97.89632247180411 L 1364.0393567028561 97.79102956457344 L 1363.990435543834 97.68551023466115 L 1363.9438510074265 97.57977503391233 L 1363.8996077520474 97.47383453575894 L 1363.857710201986 97.3676993341625 L 1363.8181625469622 97.2613800425547 L 1363.7809687417086 97.15488729277617 L 1363.7461325055747 97.04823173401307 L 1363.713657322155 96.94142403173245 L 1363.683546438941 96.8344748666155 L 1363.6558028669958 96.72739493348962 L 1363.6304293806534 96.6201949402589 L 1363.6074285172415 96.51288560683331 L 1363.586802576827 96.40547766405678 L 1363.568553621987 96.29798185263407 L 1363.5526834776015 96.19040892205675 L 1363.539193730672 96.08276962952824 L 1363.5280857301618 95.9750747388881 L 1363.5193605868617 95.86733501953563 L 1363.5130191732787 95.75956124535298 L 1363.509062123549 95.65176419362778 L 1363.5074898333744 95.54395464397535" stroke-miterlimit="10" stroke-width="2.7769845610000004" stroke-dasharray=""/></g><g><g/><text fill="black" stroke="none" font-family="sans-serif" font-size="11pt" font-style="normal" font-weight="normal" text-decoration="normal" x="1300.5673361401693" y="123.83569119881818" text-anchor="start" dominant-baseline="alphabetic" xml:space="preserve">Incident Reports Database</text></g></g><g><path fill="white" stroke="black" paint-order="fill stroke markers" d=" M 403.7116266610677 182.64242307881818 L 420.0468299610677 182.64242307881818 L 420.0468299610677 773.976782538818 L 403.7116266610677 773.976782538818 L 403.7116266610677 182.64242307881818" stroke-miterlimit="10" stroke-width="1.3612669416666667" stroke-dasharray=""/><path fill="white" stroke="black" paint-order="fill stroke markers" d=" M 1053.6386631291016 274.1195615588182 L 1069.9738664291017 274.1195615588182 L 1069.9738664291017 682.4996440588181 L 1053.6386631291016 682.4996440588181 L 1053.6386631291016 274.1195615588182" stroke-miterlimit="10" stroke-width="1.3612669416666667" stroke-dasharray=""/><path fill="white" stroke="black" paint-order="fill stroke markers" d=" M 1379.1892547538412 319.8581307988182 L 1395.5244580538413 319.8581307988182 L 1395.5244580538413 636.7610748188182 L 1379.1892547538412 636.7610748188182 L 1379.1892547538412 319.8581307988182" stroke-miterlimit="10" stroke-width="1.3612669416666667" stroke-dasharray=""/><path fill="white" stroke="black" paint-order="fill stroke markers" d=" M 403.7116266610677 844.218156728818 L 420.0468299610677 844.218156728818 L 420.0468299610677 1435.5525161888183 L 403.7116266610677 1435.5525161888183 L 403.7116266610677 844.218156728818" stroke-miterlimit="10" stroke-width="1.3612669416666667" stroke-dasharray=""/><path fill="white" stroke="black" paint-order="fill stroke markers" d=" M 1053.6386631291016 935.6952952088179 L 1069.9738664291017 935.6952952088179 L 1069.9738664291017 1344.0753777088182 L 1053.6386631291016 1344.0753777088182 L 1053.6386631291016 935.6952952088179" stroke-miterlimit="10" stroke-width="1.3612669416666667" stroke-dasharray=""/><path fill="white" stroke="black" paint-order="fill stroke markers" d=" M 1379.1892547538412 981.4338644488179 L 1395.5244580538413 981.4338644488179 L 1395.5244580538413 1298.3368084688182 L 1379.1892547538412 1298.3368084688182 L 1379.1892547538412 981.4338644488179" stroke-miterlimit="10" stroke-width="1.3612669416666667" stroke-dasharray=""/><g><text fill="black" stroke="none" font-family="sans-serif" font-size="16pt" font-style="normal" font-weight="normal" text-decoration="normal" x="663.3403472900391" y="24.651306798181814" text-anchor="start" dominant-baseline="alphabetic" xml:space="preserve">Incident Reports</text></g><g><rect fill="white" stroke="none" x="120.8627279314323" y="161.4066587888182" width="235.49458564820313" height="21.23576429"/><text fill="black" stroke="none" font-family="sans-serif" font-size="11pt" font-style="normal" font-weight="normal" text-decoration="normal" x="123.3130084264323" y="176.10834175881817" text-anchor="start" dominant-baseline="alphabetic" xml:space="preserve">(1) Request to view incident reports</text></g><g><path fill="none" stroke="black" paint-order="fill stroke markers" d=" M 73.50841485 182.64242307881818 L 390.2623092774011 182.64242307881818" stroke-miterlimit="10" stroke-width="1.3612669416666667" stroke-dasharray=""/><g transform="translate(403.7116266610677,182.64242307881818) translate(-403.7116266610677,-182.64242307881818)"><path fill="black" stroke="none" paint-order="stroke fill markers" d=" M 390.09895724440105 175.83608837048484 L 403.7116266610677 182.64242307881818 L 390.09895724440105 189.44875778715152 Z"/></g></g><g><rect fill="white" stroke="none" x="451.61017319386724" y="207.1452280288182" width="245.26550544800781" height="21.23576429"/><text fill="black" stroke="none" font-family="sans-serif" font-size="11pt" font-style="normal" font-weight="normal" text-decoration="normal" x="454.06045368886726" y="221.84691099881817" text-anchor="start" dominant-baseline="alphabetic" xml:space="preserve">(2) Request for list of incident reports</text></g><g><path fill="none" stroke="black" paint-order="fill stroke markers" d=" M 420.0468299610677 228.3809923188182 L 714.9897044910078 228.3809923188182" stroke-miterlimit="10" stroke-width="1.3612669416666667" stroke-dasharray=""/><g transform="translate(728.4390218746745,228.3809923188182) translate(-728.4390218746745,-228.3809923188182)"><path fill="black" stroke="none" paint-order="stroke fill markers" d=" M 714.8263524580078 221.57465761048485 L 728.4390218746745 228.3809923188182 L 714.8263524580078 235.18732702715153 Z"/></g></g><g><rect fill="white" stroke="none" x="751.301582331595" y="252.88379726881823" width="279.474535599375" height="21.23576429"/><text fill="black" stroke="none" font-family="sans-serif" font-size="11pt" font-style="normal" font-weight="normal" text-decoration="normal" x="753.751862826595" y="267.5854802388182" text-anchor="start" dominant-baseline="alphabetic" xml:space="preserve">(3) Route to Incident Reports Microservice</text></g><g><path fill="none" stroke="black" paint-order="fill stroke markers" d=" M 728.4390218746745 274.1195615588182 L 1040.1893457454348 274.1195615588182" stroke-miterlimit="10" stroke-width="1.3612669416666667" stroke-dasharray=""/><g transform="translate(1053.6386631291016,274.1195615588182) translate(-1053.6386631291016,-274.1195615588182)"><path fill="black" stroke="none" paint-order="stroke fill markers" d=" M 1040.025993712435 267.31322685048485 L 1053.6386631291016 274.1195615588182 L 1040.025993712435 280.92589626715153 Z"/></g></g><g><rect fill="white" stroke="none" x="1128.4341212829947" y="298.6223665088182" width="192.29487861695313" height="21.23576429"/><text fill="black" stroke="none" font-family="sans-serif" font-size="11pt" font-style="normal" font-weight="normal" text-decoration="normal" x="1130.8844017779948" y="313.32404947881815" text-anchor="start" dominant-baseline="alphabetic" xml:space="preserve">(4) Query for incident reports</text></g><g><path fill="none" stroke="black" paint-order="fill stroke markers" d=" M 1069.9738664291017 319.8581307988182 L 1365.7399373701744 319.8581307988182" stroke-miterlimit="10" stroke-width="1.3612669416666667" stroke-dasharray=""/><g transform="translate(1379.1892547538412,319.8581307988182) translate(-1379.1892547538412,-319.8581307988182)"><path fill="black" stroke="none" paint-order="stroke fill markers" d=" M 1365.5765853371745 313.05179609048486 L 1379.1892547538412 319.8581307988182 L 1365.5765853371745 326.66446550715153 Z"/></g></g><g><rect fill="white" stroke="none" x="1175.6889278015494" y="388.4659846588182" width="97.78526557984375" height="21.23576429"/><text fill="black" stroke="none" font-family="sans-serif" font-size="11pt" font-style="normal" font-weight="normal" text-decoration="normal" x="1178.1392082965494" y="403.16766762881815" text-anchor="start" dominant-baseline="alphabetic" xml:space="preserve">(5) Return null</text></g><g><path fill="none" stroke="black" paint-order="fill stroke markers" d=" M 1379.1892547538412 409.7017489488182 L 1083.4231838127685 409.7017489488182" stroke-miterlimit="10" stroke-width="1.3612669416666667" stroke-dasharray="6.53408132"/><g transform="translate(1069.9738664291017,409.7017489488182) translate(-1069.9738664291017,-409.7017489488182)"><path fill="black" stroke="none" paint-order="stroke fill markers" d=" M 1083.5865358457684 402.89541424048485 L 1069.9738664291017 409.7017489488182 L 1083.5865358457684 416.50808365715153 Z"/></g></g><g><rect fill="white" stroke="none" x="819.7339019727083" y="434.2045538988182" width="142.60988105835938" height="21.23576429"/><text fill="black" stroke="none" font-family="sans-serif" font-size="11pt" font-style="normal" font-weight="normal" text-decoration="normal" x="822.1841824677083" y="448.90623686881816" text-anchor="start" dominant-baseline="alphabetic" xml:space="preserve">(6) Return 404 status</text></g><g><path fill="none" stroke="black" paint-order="fill stroke markers" d=" M 1053.6386631291016 455.4403181888182 L 741.8883392583411 455.4403181888182" stroke-miterlimit="10" stroke-width="1.3612669416666667" stroke-dasharray="6.53408132"/><g transform="translate(728.4390218746745,455.4403181888182) translate(-728.4390218746745,-455.4403181888182)"><path fill="black" stroke="none" paint-order="stroke fill markers" d=" M 742.0516912913412 448.63398348048486 L 728.4390218746745 455.4403181888182 L 742.0516912913412 462.24665289715153 Z"/></g></g><g><rect fill="white" stroke="none" x="504.5700578374219" y="479.9431231388182" width="139.34573616089844" height="21.23576429"/><text fill="black" stroke="none" font-family="sans-serif" font-size="11pt" font-style="normal" font-weight="normal" text-decoration="normal" x="507.02033833242194" y="494.64480610881816" text-anchor="start" dominant-baseline="alphabetic" xml:space="preserve">(7) Return response </text></g><g><path fill="none" stroke="black" paint-order="fill stroke markers" d=" M 728.4390218746745 501.1788874288182 L 433.49614734473437 501.1788874288182" stroke-miterlimit="10" stroke-width="1.3612669416666667" stroke-dasharray="6.53408132"/><g transform="translate(420.0468299610677,501.1788874288182) translate(-420.0468299610677,-501.1788874288182)"><path fill="black" stroke="none" paint-order="stroke fill markers" d=" M 433.6594993777344 494.37255272048486 L 420.0468299610677 501.1788874288182 L 433.6594993777344 507.98522213715154 Z"/></g></g><g><rect fill="white" stroke="none" x="93.25000362723308" y="525.6816923788182" width="290.7200189978125" height="21.23576429"/><text fill="black" stroke="none" font-family="sans-serif" font-size="11pt" font-style="normal" font-weight="normal" text-decoration="normal" x="95.70028412223309" y="540.3833753488182" text-anchor="start" dominant-baseline="alphabetic" xml:space="preserve">(8) Display error "Incident reports not found"</text></g><g><path fill="none" stroke="black" paint-order="fill stroke markers" d=" M 403.7116266610677 546.9174566688182 L 86.95773223366666 546.9174566688182" stroke-miterlimit="10" stroke-width="1.3612669416666667" stroke-dasharray="6.53408132"/><g transform="translate(73.50841485,546.9174566688182) translate(-73.50841485,-546.9174566688182)"><path fill="black" stroke="none" paint-order="stroke fill markers" d=" M 87.12108426666666 540.1111219604849 L 73.50841485 546.9174566688182 L 87.12108426666666 553.7237913771515 Z"/></g></g><g><rect fill="white" stroke="none" x="1120.6817943176627" y="615.5253105288182" width="207.7995325476172" height="21.23576429"/><text fill="black" stroke="none" font-family="sans-serif" font-size="11pt" font-style="normal" font-weight="normal" text-decoration="normal" x="1123.1320748126627" y="630.2269934988182" text-anchor="start" dominant-baseline="alphabetic" xml:space="preserve">(5) Return incident reports data</text></g><g><path fill="none" stroke="black" paint-order="fill stroke markers" d=" M 1379.1892547538412 636.7610748188182 L 1083.4231838127685 636.7610748188182" stroke-miterlimit="10" stroke-width="1.3612669416666667" stroke-dasharray="6.53408132"/><g transform="translate(1069.9738664291017,636.7610748188182) translate(-1069.9738664291017,-636.7610748188182)"><path fill="black" stroke="none" paint-order="stroke fill markers" d=" M 1083.5865358457684 629.9547401104849 L 1069.9738664291017 636.7610748188182 L 1083.5865358457684 643.5674095271515 Z"/></g></g><g><rect fill="white" stroke="none" x="819.7339019727083" y="661.2638797688181" width="142.60988105835938" height="21.23576429"/><text fill="black" stroke="none" font-family="sans-serif" font-size="11pt" font-style="normal" font-weight="normal" text-decoration="normal" x="822.1841824677083" y="675.9655627388181" text-anchor="start" dominant-baseline="alphabetic" xml:space="preserve">(6) Return 200 status</text></g><g><path fill="none" stroke="black" paint-order="fill stroke markers" d=" M 1053.6386631291016 682.4996440588181 L 741.8883392583411 682.4996440588181" stroke-miterlimit="10" stroke-width="1.3612669416666667" stroke-dasharray="6.53408132"/><g transform="translate(728.4390218746745,682.4996440588181) translate(-728.4390218746745,-682.4996440588181)"><path fill="black" stroke="none" paint-order="stroke fill markers" d=" M 742.0516912913412 675.6933093504848 L 728.4390218746745 682.4996440588181 L 742.0516912913412 689.3059787671515 Z"/></g></g><g><rect fill="white" stroke="none" x="504.5700578374219" y="707.0024490088181" width="139.34573616089844" height="21.23576429"/><text fill="black" stroke="none" font-family="sans-serif" font-size="11pt" font-style="normal" font-weight="normal" text-decoration="normal" x="507.02033833242194" y="721.704131978818" text-anchor="start" dominant-baseline="alphabetic" xml:space="preserve">(7) Return response </text></g><g><path fill="none" stroke="black" paint-order="fill stroke markers" d=" M 728.4390218746745 728.2382132988181 L 433.49614734473437 728.2382132988181" stroke-miterlimit="10" stroke-width="1.3612669416666667" stroke-dasharray="6.53408132"/><g transform="translate(420.0468299610677,728.2382132988181) translate(-420.0468299610677,-728.2382132988181)"><path fill="black" stroke="none" paint-order="stroke fill markers" d=" M 433.6594993777344 721.4318785904848 L 420.0468299610677 728.2382132988181 L 433.6594993777344 735.0445480071514 Z"/></g></g><g><rect fill="white" stroke="none" x="137.98514156668622" y="752.741018248818" width="201.24975837769531" height="21.23576429"/><text fill="black" stroke="none" font-family="sans-serif" font-size="11pt" font-style="normal" font-weight="normal" text-decoration="normal" x="140.4354220616862" y="767.442701218818" text-anchor="start" dominant-baseline="alphabetic" xml:space="preserve">(8) Display incident reports list</text></g><g><path fill="none" stroke="black" paint-order="fill stroke markers" d=" M 403.7116266610677 773.976782538818 L 86.95773223366666 773.976782538818" stroke-miterlimit="10" stroke-width="1.3612669416666667" stroke-dasharray="6.53408132"/><g transform="translate(73.50841485,773.976782538818) translate(-73.50841485,-773.976782538818)"><path fill="black" stroke="none" paint-order="stroke fill markers" d=" M 87.12108426666666 767.1704478304847 L 73.50841485 773.976782538818 L 87.12108426666666 780.7831172471514 Z"/></g></g><g><rect fill="white" stroke="none" x="93.56138210623699" y="822.982392438818" width="290.0972772985937" height="21.23576429"/><text fill="black" stroke="none" font-family="sans-serif" font-size="11pt" font-style="normal" font-weight="normal" text-decoration="normal" x="96.01166260123699" y="837.684075408818" text-anchor="start" dominant-baseline="alphabetic" xml:space="preserve">(9) Request to view specified incident report</text></g><g><path fill="none" stroke="black" paint-order="fill stroke markers" d=" M 73.50841485 844.218156728818 L 390.2623092774011 844.218156728818" stroke-miterlimit="10" stroke-width="1.3612669416666667" stroke-dasharray=""/><g transform="translate(403.7116266610677,844.218156728818) translate(-403.7116266610677,-844.218156728818)"><path fill="black" stroke="none" paint-order="stroke fill markers" d=" M 390.09895724440105 837.4118220204847 L 403.7116266610677 844.218156728818 L 390.09895724440105 851.0244914371514 Z"/></g></g><g><rect fill="white" stroke="none" x="439.3768205327344" y="868.720961678818" width="269.7322260290625" height="21.23576429"/><text fill="black" stroke="none" font-family="sans-serif" font-size="11pt" font-style="normal" font-weight="normal" text-decoration="normal" x="441.82710102773444" y="883.4226446488179" text-anchor="start" dominant-baseline="alphabetic" xml:space="preserve">(10) Request for specified incident report</text></g><g><path fill="none" stroke="black" paint-order="fill stroke markers" d=" M 420.0468299610677 889.956725968818 L 714.9897044910078 889.956725968818" stroke-miterlimit="10" stroke-width="1.3612669416666667" stroke-dasharray=""/><g transform="translate(728.4390218746745,889.956725968818) translate(-728.4390218746745,-889.956725968818)"><path fill="black" stroke="none" paint-order="stroke fill markers" d=" M 714.8263524580078 883.1503912604846 L 728.4390218746745 889.956725968818 L 714.8263524580078 896.7630606771513 Z"/></g></g><g><rect fill="white" stroke="none" x="747.7690124463411" y="914.4595309188179" width="286.5396601110937" height="21.23576429"/><text fill="black" stroke="none" font-family="sans-serif" font-size="11pt" font-style="normal" font-weight="normal" text-decoration="normal" x="750.2192929413411" y="929.1612138888179" text-anchor="start" dominant-baseline="alphabetic" xml:space="preserve">(11) Route to Incident Reports Microservice</text></g><g><path fill="none" stroke="black" paint-order="fill stroke markers" d=" M 728.4390218746745 935.6952952088179 L 1040.1893457454348 935.6952952088179" stroke-miterlimit="10" stroke-width="1.3612669416666667" stroke-dasharray=""/><g transform="translate(1053.6386631291016,935.6952952088179) translate(-1053.6386631291016,-935.6952952088179)"><path fill="black" stroke="none" paint-order="stroke fill markers" d=" M 1040.025993712435 928.8889605004846 L 1053.6386631291016 935.6952952088179 L 1040.025993712435 942.5016299171513 Z"/></g></g><g><rect fill="white" stroke="none" x="1097.0561839661002" y="960.1981001588179" width="255.0507532507422" height="21.23576429"/><text fill="black" stroke="none" font-family="sans-serif" font-size="11pt" font-style="normal" font-weight="normal" text-decoration="normal" x="1099.5064644611002" y="974.8997831288178" text-anchor="start" dominant-baseline="alphabetic" xml:space="preserve">(12) Query for specified incident report</text></g><g><path fill="none" stroke="black" paint-order="fill stroke markers" d=" M 1069.9738664291017 981.4338644488179 L 1365.7399373701744 981.4338644488179" stroke-miterlimit="10" stroke-width="1.3612669416666667" stroke-dasharray=""/><g transform="translate(1379.1892547538412,981.4338644488179) translate(-1379.1892547538412,-981.4338644488179)"><path fill="black" stroke="none" paint-order="stroke fill markers" d=" M 1365.5765853371745 974.6275297404845 L 1379.1892547538412 981.4338644488179 L 1365.5765853371745 988.2401991571512 Z"/></g></g><g><rect fill="white" stroke="none" x="1123.126320990026" y="1050.041718308818" width="202.91047920289063" height="21.23576429"/><text fill="black" stroke="none" font-family="sans-serif" font-size="11pt" font-style="normal" font-weight="normal" text-decoration="normal" x="1125.576601485026" y="1064.743401278818" text-anchor="start" dominant-baseline="alphabetic" xml:space="preserve">(13) Return null incident report</text></g><g><path fill="none" stroke="black" paint-order="fill stroke markers" d=" M 1379.1892547538412 1071.2774825988179 L 1083.4231838127685 1071.2774825988179" stroke-miterlimit="10" stroke-width="1.3612669416666667" stroke-dasharray="6.53408132"/><g transform="translate(1069.9738664291017,1071.2774825988179) translate(-1069.9738664291017,-1071.2774825988179)"><path fill="black" stroke="none" paint-order="stroke fill markers" d=" M 1083.5865358457684 1064.4711478904846 L 1069.9738664291017 1071.2774825988179 L 1083.5865358457684 1078.083817307151 Z"/></g></g><g><rect fill="white" stroke="none" x="815.6573104810091" y="1095.780287548818" width="150.76306404175781" height="21.23576429"/><text fill="black" stroke="none" font-family="sans-serif" font-size="11pt" font-style="normal" font-weight="normal" text-decoration="normal" x="818.1075909760091" y="1110.4819705188181" text-anchor="start" dominant-baseline="alphabetic" xml:space="preserve">(14) Return 404 status</text></g><g><path fill="none" stroke="black" paint-order="fill stroke markers" d=" M 1053.6386631291016 1117.016051838818 L 741.8883392583411 1117.016051838818" stroke-miterlimit="10" stroke-width="1.3612669416666667" stroke-dasharray="6.53408132"/><g transform="translate(728.4390218746745,1117.016051838818) translate(-728.4390218746745,-1117.016051838818)"><path fill="black" stroke="none" paint-order="stroke fill markers" d=" M 742.0516912913412 1110.2097171304847 L 728.4390218746745 1117.016051838818 L 742.0516912913412 1123.8223865471512 Z"/></g></g><g><rect fill="white" stroke="none" x="500.4934663457227" y="1141.518856788818" width="147.49891914429688" height="21.23576429"/><text fill="black" stroke="none" font-family="sans-serif" font-size="11pt" font-style="normal" font-weight="normal" text-decoration="normal" x="502.9437468407227" y="1156.2205397588182" text-anchor="start" dominant-baseline="alphabetic" xml:space="preserve">(15) Return response </text></g><g><path fill="none" stroke="black" paint-order="fill stroke markers" d=" M 728.4390218746745 1162.754621078818 L 433.49614734473437 1162.754621078818" stroke-miterlimit="10" stroke-width="1.3612669416666667" stroke-dasharray="6.53408132"/><g transform="translate(420.0468299610677,1162.754621078818) translate(-420.0468299610677,-1162.754621078818)"><path fill="black" stroke="none" paint-order="stroke fill markers" d=" M 433.6594993777344 1155.9482863704848 L 420.0468299610677 1162.754621078818 L 433.6594993777344 1169.5609557871512 Z"/></g></g><g><rect fill="white" stroke="none" x="92.83840542166668" y="1187.2574260288181" width="291.54323066773435" height="21.23576429"/><text fill="black" stroke="none" font-family="sans-serif" font-size="11pt" font-style="normal" font-weight="normal" text-decoration="normal" x="95.28868591666668" y="1201.9591089988182" text-anchor="start" dominant-baseline="alphabetic" xml:space="preserve">(16) Display error "Incident report not found"</text></g><g><path fill="none" stroke="black" paint-order="fill stroke markers" d=" M 403.7116266610677 1208.493190318818 L 86.95773223366666 1208.493190318818" stroke-miterlimit="10" stroke-width="1.3612669416666667" stroke-dasharray="6.53408132"/><g transform="translate(73.50841485,1208.493190318818) translate(-73.50841485,-1208.493190318818)"><path fill="black" stroke="none" paint-order="stroke fill markers" d=" M 87.12108426666666 1201.6868556104848 L 73.50841485 1208.493190318818 L 87.12108426666666 1215.2995250271513 Z"/></g></g><g><rect fill="white" stroke="none" x="1089.3038570007682" y="1277.1010441788183" width="270.5554071814062" height="21.23576429"/><text fill="black" stroke="none" font-family="sans-serif" font-size="11pt" font-style="normal" font-weight="normal" text-decoration="normal" x="1091.7541374957682" y="1291.8027271488183" text-anchor="start" dominant-baseline="alphabetic" xml:space="preserve">(13) Return specified incident report data</text></g><g><path fill="none" stroke="black" paint-order="fill stroke markers" d=" M 1379.1892547538412 1298.3368084688182 L 1083.4231838127685 1298.3368084688182" stroke-miterlimit="10" stroke-width="1.3612669416666667" stroke-dasharray="6.53408132"/><g transform="translate(1069.9738664291017,1298.3368084688182) translate(-1069.9738664291017,-1298.3368084688182)"><path fill="black" stroke="none" paint-order="stroke fill markers" d=" M 1083.5865358457684 1291.530473760485 L 1069.9738664291017 1298.3368084688182 L 1083.5865358457684 1305.1431431771514 Z"/></g></g><g><rect fill="white" stroke="none" x="815.6573104810091" y="1322.8396134188183" width="150.76306404175781" height="21.23576429"/><text fill="black" stroke="none" font-family="sans-serif" font-size="11pt" font-style="normal" font-weight="normal" text-decoration="normal" x="818.1075909760091" y="1337.5412963888184" text-anchor="start" dominant-baseline="alphabetic" xml:space="preserve">(14) Return 200 status</text></g><g><path fill="none" stroke="black" paint-order="fill stroke markers" d=" M 1053.6386631291016 1344.0753777088182 L 741.8883392583411 1344.0753777088182" stroke-miterlimit="10" stroke-width="1.3612669416666667" stroke-dasharray="6.53408132"/><g transform="translate(728.4390218746745,1344.0753777088182) translate(-728.4390218746745,-1344.0753777088182)"><path fill="black" stroke="none" paint-order="stroke fill markers" d=" M 742.0516912913412 1337.269043000485 L 728.4390218746745 1344.0753777088182 L 742.0516912913412 1350.8817124171514 Z"/></g></g><g><rect fill="white" stroke="none" x="500.4934663457227" y="1368.5781826588184" width="147.49891914429688" height="21.23576429"/><text fill="black" stroke="none" font-family="sans-serif" font-size="11pt" font-style="normal" font-weight="normal" text-decoration="normal" x="502.9437468407227" y="1383.2798656288185" text-anchor="start" dominant-baseline="alphabetic" xml:space="preserve">(15) Return response </text></g><g><path fill="none" stroke="black" paint-order="fill stroke markers" d=" M 728.4390218746745 1389.8139469488183 L 433.49614734473437 1389.8139469488183" stroke-miterlimit="10" stroke-width="1.3612669416666667" stroke-dasharray="6.53408132"/><g transform="translate(420.0468299610677,1389.8139469488183) translate(-420.0468299610677,-1389.8139469488183)"><path fill="black" stroke="none" paint-order="stroke fill markers" d=" M 433.6594993777344 1383.007612240485 L 420.0468299610677 1389.8139469488183 L 433.6594993777344 1396.6202816571515 Z"/></g></g><g><rect fill="white" stroke="none" x="94.37742977469402" y="1414.3167518988184" width="288.4651972204687" height="21.23576429"/><text fill="black" stroke="none" font-family="sans-serif" font-size="11pt" font-style="normal" font-weight="normal" text-decoration="normal" x="96.82771026969402" y="1429.0184348688185" text-anchor="start" dominant-baseline="alphabetic" xml:space="preserve">(16) Display specified incident report details</text></g><g><path fill="none" stroke="black" paint-order="fill stroke markers" d=" M 403.7116266610677 1435.5525161888183 L 86.95773223366666 1435.5525161888183" stroke-miterlimit="10" stroke-width="1.3612669416666667" stroke-dasharray="6.53408132"/><g transform="translate(73.50841485,1435.5525161888183) translate(-73.50841485,-1435.5525161888183)"><path fill="black" stroke="none" paint-order="stroke fill markers" d=" M 87.12108426666666 1428.7461814804851 L 73.50841485 1435.5525161888183 L 87.12108426666666 1442.3588508971516 Z"/></g></g><g><g/><path fill="none" stroke="black" paint-order="fill stroke markers" d=" M 16.335203299999996 344.3609357488182 L 1444.5300679538411 344.3609357488182 L 1444.5300679538411 798.4795874888181 L 16.335203299999996 798.4795874888181 L 16.335203299999996 344.3609357488182 Z" stroke-miterlimit="10" stroke-width="2.3336004714285714" stroke-dasharray=""/><path fill="white" stroke="black" paint-order="fill stroke markers" d=" M 16.335203299999996 344.3609357488182 L 16.335203299999996 363.9631797088182 L 62.69440689707031 363.9631797088182 L 72.49552887707031 354.1620577288182 L 72.49552887707031 344.3609357488182 L 16.335203299999996 344.3609357488182" stroke-miterlimit="10" stroke-width="2.3336004714285714" stroke-dasharray=""/><text fill="black" stroke="none" font-family="sans-serif" font-size="8.8pt" font-style="normal" font-weight="bold" text-decoration="normal" x="32.67040659999999" y="357.4290983888182" text-anchor="start" dominant-baseline="alphabetic" xml:space="preserve">alt</text><g><rect fill="white" stroke="none" x="86.38045168207032" y="345.6677520128182" width="188.66841377320313" height="16.988611432000003"/></g><text fill="black" stroke="none" font-family="sans-serif" font-size="8.8pt" font-style="normal" font-weight="bold" text-decoration="normal" x="88.83073217707032" y="357.4290983888182" text-anchor="start" dominant-baseline="alphabetic" xml:space="preserve">[Incident reports were not found]</text><g><path fill="none" stroke="black" paint-order="fill stroke markers" d=" M 16.335203299999996 571.4202616188182 L 1444.5300679538411 571.4202616188182" stroke-miterlimit="10" stroke-width="2.3336004714285714" stroke-dasharray="4.083800825"/></g><g/><g><rect fill="white" stroke="none" x="86.38045168207032" y="572.7270778828182" width="167.17299140992188" height="16.988611432000003"/></g><text fill="black" stroke="none" font-family="sans-serif" font-size="8.8pt" font-style="normal" font-weight="bold" text-decoration="normal" x="88.83073217707032" y="584.4884242588182" text-anchor="start" dominant-baseline="alphabetic" xml:space="preserve">[Incident reports were found]</text></g><g/><g><g/><path fill="none" stroke="black" paint-order="fill stroke markers" d=" M 16.335203299999996 1005.9366693988178 L 1444.5300679538411 1005.9366693988178 L 1444.5300679538411 1460.0553211388183 L 16.335203299999996 1460.0553211388183 L 16.335203299999996 1005.9366693988178 Z" stroke-miterlimit="10" stroke-width="2.3336004714285714" stroke-dasharray=""/><path fill="white" stroke="black" paint-order="fill stroke markers" d=" M 16.335203299999996 1005.9366693988178 L 16.335203299999996 1025.5389133588178 L 62.69440689707031 1025.5389133588178 L 72.49552887707031 1015.7377913788177 L 72.49552887707031 1005.9366693988178 L 16.335203299999996 1005.9366693988178" stroke-miterlimit="10" stroke-width="2.3336004714285714" stroke-dasharray=""/><text fill="black" stroke="none" font-family="sans-serif" font-size="8.8pt" font-style="normal" font-weight="bold" text-decoration="normal" x="32.67040659999999" y="1019.0048320388178" text-anchor="start" dominant-baseline="alphabetic" xml:space="preserve">alt</text><g><rect fill="white" stroke="none" x="86.38045168207032" y="1007.2434856628178" width="152.14966072144531" height="16.988611432000003"/></g><text fill="black" stroke="none" font-family="sans-serif" font-size="8.8pt" font-style="normal" font-weight="bold" text-decoration="normal" x="88.83073217707032" y="1019.0048320388178" text-anchor="start" dominant-baseline="alphabetic" xml:space="preserve">[Incident report not found]</text><g><path fill="none" stroke="black" paint-order="fill stroke markers" d=" M 16.335203299999996 1232.9959952688182 L 1444.5300679538411 1232.9959952688182" stroke-miterlimit="10" stroke-width="2.3336004714285714" stroke-dasharray="4.083800825"/></g><g/><g><rect fill="white" stroke="none" x="86.38045168207032" y="1234.3028115328182" width="130.65423835816406" height="16.988611432000003"/></g><text fill="black" stroke="none" font-family="sans-serif" font-size="8.8pt" font-style="normal" font-weight="bold" text-decoration="normal" x="88.83073217707032" y="1246.064157908818" text-anchor="start" dominant-baseline="alphabetic" xml:space="preserve">[Incident report found]</text></g><g/></g><g/><g/><g/></g></svg>