<svg xmlns="http://www.w3.org/2000/svg" xmlns:xlink="http://www.w3.org/1999/xlink" version="1.1" width="1306.0122125034507" height="1517.2285326888182"><desc>title%20Amenities%0A%0Aactor%20Guest%0Aparticipant%20%22Guest%20Front-end%22%20as%20GuestFrontend%0Aparticipant%20NGINX%0Aparticipant%20%22Amenities%20Microservice%22%20as%20AmenitiesService%0Adatabase%20Amenity%20Database%0A%0AGuest%20-%3E%20GuestFrontend%20%3A%20(1)%20Request%20to%20view%20amenities%0Aactivate%20GuestFrontend%0AGuestFrontend%20-%3E%20NGINX%20%3A%20(2)%20Request%20for%20list%20of%20amenities%0A%0ANGINX%20-%3E%20AmenitiesService%20%3A%20(3)%20Route%20to%20Amenities%20Microservice%0Aactivate%20AmenitiesService%0A%0AAmenitiesService%20-%3E%20Amenity%20Database%20%3A%20(4)%20Query%20for%20amenities%0Aactivate%20Amenity%20Database%0Aalt%20Amenities%20were%20not%20found%0A%20%20%20%20Amenity%20Database%20--%3E%20AmenitiesService%20%3A%20(5)%20Return%20null%0A%20%20%20%20AmenitiesService%20--%3E%20NGINX%20%3A%20(6)%20Return%20404%20status%0A%20%20%20%20NGINX%20--%3E%20GuestFrontend%20%3A%20(7)%20Return%20response%20%0A%20%20%20%20GuestFrontend%20--%3E%20Guest%20%3A%20(8)%20Display%20error%20%22Amenities%20not%20found%22%0Aelse%20Amenities%20were%20found%0A%20%20%20%20Amenity%20Database%20--%3E%20AmenitiesService%20%3A%20(5)%20Return%20amenities%20data%0A%20%20%20%20deactivate%20Amenity%20Database%0A%0A%20%20%20%20AmenitiesService%20--%3E%20NGINX%20%3A%20(6)%20Return%20200%20status%0A%20%20%20%20deactivate%20AmenitiesService%0A%20%20%20%20NGINX%20--%3E%20GuestFrontend%20%3A%20(7)%20Return%20response%20%0A%20%20%20%20GuestFrontend%20--%3E%20Guest%20%3A%20(8)%20Display%20amenities%20list%0A%20%20%20%20deactivate%20GuestFrontend%0Aend%0A%0AGuest%20-%3E%20GuestFrontend%20%3A%20(9)%20Request%20to%20view%20specified%20amenity%0Aactivate%20GuestFrontend%0AGuestFrontend%20-%3E%20NGINX%20%3A%20(10)%20Request%20for%20specified%20amenity%0A%0ANGINX%20-%3E%20AmenitiesService%20%3A%20(11)%20Route%20to%20Amenities%20Microservice%0Aactivate%20AmenitiesService%0A%0AAmenitiesService%20-%3E%20Amenity%20Database%20%3A%20(12)%20Query%20for%20specified%20amenity%0Aactivate%20Amenity%20Database%0A%0Aalt%20Amenity%20not%20found%0A%20%20%20%20Amenity%20Database%20--%3E%20AmenitiesService%20%3A%20(13)%20Return%20null%20amenity%0A%20%20%20%20AmenitiesService%20--%3E%20NGINX%20%3A%20(14)%20Return%20404%20status%0A%20%20%20%20NGINX%20--%3E%20GuestFrontend%20%3A%20(15)%20Return%20response%20%0A%20%20%20%20GuestFrontend%20--%3E%20Guest%20%3A%20(16)%20Display%20error%20%22Amenity%20not%20found%22%0Aelse%20Amenity%20found%0A%20%20%20%20Amenity%20Database%20--%3E%20AmenitiesService%20%3A%20(13)%20Return%20specified%20amenity%20data%0A%20%20%20%20deactivate%20Amenity%20Database%0A%0A%20%20%20%20AmenitiesService%20--%3E%20NGINX%20%3A%20(14)%20Return%20200%20status%0A%20%20%20%20deactivate%20AmenitiesService%0A%20%20%20%20NGINX%20--%3E%20GuestFrontend%20%3A%20(15)%20Return%20response%20%0A%20%20%20%20GuestFrontend%20--%3E%20Guest%20%3A%20(16)%20Display%20specified%20amenity%20details%0A%20%20%20%20deactivate%20GuestFrontend%0Aend%0A</desc><defs/><g><g/><g/><g/><g/><g/><g/><g/><g/><g/><g/><g/><g/><g/><g/><g/><g/><g/><g/><g/><g/><g/><g/><g/><g/><g/><g/><g/><g/><g/><g/><g/><g/><g/><g/><g/><g/><g/><g/><g/><g/><g/><g/><g/><g/><g/><g/><g/><g/><g/><g/><g/><g/><g/><g/><g/><g/><g/><g/><g/><g/><g/><g/><g/><g/><g/><g/><g/><g/><g/><g/><g/><g/><g/><g/><g/><g/><g/><g/><g/><g/><g/><g/><g/><g/><g/><g/><g/><g/><g/><g/><g/><g/><g/><g/><g/><g/><g/><g/><g/><g/><g/><g/><g/><g/><g/><g/><g/><g/><g/><g/><g/><g/><g/><g/><g/><g/><g/><g/><g/><g/><g/><g/><g/><g/><g/><g/><g/><g/><g/><g/><g/><g/><g/><g/><g/><g/><g/><g/><g/><g/><g/><g/><g/><g/><g/><g/><g/><g/><g/><g/><g/><g/><g/><g/><g/><g/><g/><g/><g/><g/><g/><g/><g/><g/><g/><g/><g/><g/><g/><g/><g/><g/><g/><g/><g/><g/><g/><g/><g/><g/><g/><g/><g/><g/><g/><g/><g/><g/><g/><g/><g/><g/><g/><g/><g/><g/><g/><g/><g/><g/><g/><g/><g/><g/><g/><g/><g/><g/><g/><g/><g/><g/><g/><g/><g/><g/><g/><g/><g/><g/><g/><g/><g/><g/><g/><g/><g/><g/><g/><g/><g><rect fill="white" stroke="none" x="0" y="0" width="1306" height="1517"/></g><g/><g><path fill="none" stroke="black" paint-order="fill stroke markers" d=" M 73.50841485 128.73625218881818 L 73.50841485 1517.2285326888182" stroke-miterlimit="10" stroke-width="1.3612669416666667" stroke-dasharray="12.565541,5.445067766666667"/><path fill="none" stroke="black" paint-order="fill stroke markers" d=" M 374.37745829153647 128.73625218881818 L 374.37745829153647 1517.2285326888182" stroke-miterlimit="10" stroke-width="1.3612669416666667" stroke-dasharray="12.565541,5.445067766666667"/><path fill="none" stroke="black" paint-order="fill stroke markers" d=" M 649.3696401608073 128.73625218881818 L 649.3696401608073 1517.2285326888182" stroke-miterlimit="10" stroke-width="1.3612669416666667" stroke-dasharray="12.565541,5.445067766666667"/><path fill="none" stroke="black" paint-order="fill stroke markers" d=" M 940.353216073047 128.73625218881818 L 940.353216073047 1517.2285326888182" stroke-miterlimit="10" stroke-width="1.3612669416666667" stroke-dasharray="12.565541,5.445067766666667"/><path fill="none" stroke="black" paint-order="fill stroke markers" d=" M 1224.3361960034506 128.73625218881818 L 1224.3361960034506 1517.2285326888182" stroke-miterlimit="10" stroke-width="1.3612669416666667" stroke-dasharray="12.565541,5.445067766666667"/></g><g><g><path fill="white" stroke="black" paint-order="fill stroke markers" d=" M 82.819480731 59.63834222981819 A 9.311065881 9.311065881 0 1 1 82.81947607546743 59.62903116548903 M 73.50841485 68.9494081108182 L 73.50841485 88.8783561368182 M 61.747068473999995 76.13689756281819 L 85.26976122599999 76.13689756281819 M 73.50841485 88.8783561368182 L 61.747068473999995 107.50048789881819 M 73.50841485 88.8783561368182 L 85.26976122599999 107.50048789881819" stroke-miterlimit="10" stroke-width="2.7769845610000004" stroke-dasharray=""/></g><g><g/><text fill="black" stroke="none" font-family="sans-serif" font-size="11pt" font-style="normal" font-weight="normal" text-decoration="normal" x="53.95222435927734" y="123.83569119881818" text-anchor="start" dominant-baseline="alphabetic" xml:space="preserve">Guest</text></g><path fill="none" stroke="none"/><g><path fill="white" stroke="black" paint-order="fill stroke markers" d=" M 303.2822646031263 84.7945553118182 L 445.4726519799466 84.7945553118182 L 445.4726519799466 128.73625218881818 L 303.2822646031263 128.73625218881818 L 303.2822646031263 84.7945553118182 Z" stroke-miterlimit="10" stroke-width="2.613632528" stroke-dasharray=""/></g><g><text fill="black" stroke="none" font-family="sans-serif" font-size="11pt" font-style="normal" font-weight="normal" text-decoration="normal" x="321.0059601836263" y="112.40104888881818" text-anchor="start" dominant-baseline="alphabetic" xml:space="preserve">Guest Front-end</text></g><path fill="none" stroke="none"/><g><path fill="white" stroke="black" paint-order="fill stroke markers" d=" M 608.4319095461276 84.63120327881819 L 690.307370775487 84.63120327881819 L 690.307370775487 128.73625218881818 L 608.4319095461276 128.73625218881818 L 608.4319095461276 84.63120327881819 Z" stroke-miterlimit="10" stroke-width="2.613632528" stroke-dasharray=""/></g><g><g/><text fill="black" stroke="none" font-family="sans-serif" font-size="11pt" font-style="normal" font-weight="normal" text-decoration="normal" x="626.1556051266276" y="112.40104888881817" text-anchor="start" dominant-baseline="alphabetic" xml:space="preserve">NGINX</text></g><path fill="none" stroke="none"/><g><path fill="white" stroke="black" paint-order="fill stroke markers" d=" M 847.2752342986993 84.7945553118182 L 1033.4311978473945 84.7945553118182 L 1033.4311978473945 128.73625218881818 L 847.2752342986993 128.73625218881818 L 847.2752342986993 84.7945553118182 Z" stroke-miterlimit="10" stroke-width="2.613632528" stroke-dasharray=""/></g><g><text fill="black" stroke="none" font-family="sans-serif" font-size="11pt" font-style="normal" font-weight="normal" text-decoration="normal" x="864.9989298791993" y="112.40104888881818" text-anchor="start" dominant-baseline="alphabetic" xml:space="preserve">Amenities Microservice</text></g><g><path fill="white" stroke="black" paint-order="fill stroke markers" d=" M 1200.4867991854505 96.71925372081819 L 1200.4867991854505 62.41532679081819 L 1248.1855928214507 62.41532679081819 L 1248.1855928214507 96.71925372081819" stroke-miterlimit="10" stroke-width="2.7769845610000004" stroke-dasharray=""/><path fill="white" stroke="black" paint-order="fill stroke markers" d=" M 1248.1855928214507 61.22285694991819 L 1248.184400361547 61.33066749483481 L 1248.180823101081 61.43846725878678 L 1248.1748613977754 61.546245461887544 L 1248.1665158477963 61.65399132640659 L 1248.155787285691 61.761694077847274 L 1248.1426767843072 61.86934294602419 L 1248.127185654684 61.976927166140236 L 1248.1093154459213 62.084435979863045 L 1248.0890679450254 62.19185863640084 L 1248.066445176729 62.299184393577484 L 1248.0414494032907 62.4064025189067 L 1248.0140831242668 62.51350229066531 L 1247.984349076262 62.62047299896537 L 1247.952250232657 62.7273039468252 L 1247.9177898033088 62.83398445123905 L 1247.880971234232 62.94050384424536 L 1247.8417982072529 63.04685147399361 L 1247.800274639641 63.15301670580944 L 1247.756404683719 63.25898892325815 L 1247.7101927264457 63.364757529206294 L 1247.6616433889783 63.47031194688142 L 1247.6107615262104 63.575641620929716 L 1247.5575522262852 63.68073601847156 L 1247.502020810089 63.78558463015478 L 1247.4441728307172 63.89017697120557 L 1247.384014072919 63.994502582477 L 1247.3215505525202 64.09855103149486 L 1247.2567885158212 64.20231191350096 L 1247.189734438971 64.3057748524936 L 1247.120395027322 64.40892950226505 L 1247.0487772147576 64.51176554743633 L 1246.974888162999 64.61427270448858 L 1246.8987352608897 64.71644072279157 L 1246.820326123657 64.81825938562858 L 1246.739668592149 64.91971851121816 L 1246.6567707320514 65.02080795373233 L 1246.5716408330816 65.12151760431107 L 1246.4842874081583 65.22183739207324 L 1246.394719192551 65.32175728512367 L 1246.3029451430068 65.42126729155632 L 1246.2089744368545 65.52035746045347 L 1246.112816471086 65.6190178828808 L 1246.0144808614177 65.71723869287828 L 1245.913977441329 65.81501006844678 L 1245.8113162610778 65.91232223253022 L 1245.7065075866967 66.00916545399325 L 1245.599561898966 66.10553004859446 L 1245.490489892365 66.20140637995469 L 1245.3793024740037 66.29678486052069 L 1245.266010762531 66.39165595252388 L 1245.1506260870242 66.48601016893414 L 1245.0331599858541 66.57983807440844 L 1244.9136242055333 66.67313028623443 L 1244.79203069954 66.76587747526865 L 1244.6683916271236 66.85807036686953 L 1244.5427193520882 66.94969974182469 L 1244.4150264415566 67.04075643727302 L 1244.2853256647138 67.13123134762085 L 1244.1536299915288 67.22111542545254 L 1244.0199525914595 67.3103996824352 L 1243.8843068321346 67.39907519021754 L 1243.7467062780167 67.4871330813227 L 1243.6071646890468 67.57456455003492 L 1243.4656960192676 67.6613608532802 L 1243.3223144154279 67.74751331150055 L 1243.1770342155685 67.83301330952195 L 1243.0298699475888 67.91785229741582 L 1242.8808363277926 68.00202179135408 L 1242.7299482594178 68.08551337445749 L 1242.5772208311455 68.1683186976373 L 1242.422669315591 68.25042948043021 L 1242.2663091677775 68.33183751182635 L 1242.1081560235893 68.41253465109044 L 1241.9482256982092 68.4925128285758 L 1241.7865341845359 68.5717640465313 L 1241.6230976515865 68.65028037990122 L 1241.457932442878 68.72805397711764 L 1241.2910550747938 68.80507706088565 L 1241.1224822349313 68.88134192896105 L 1240.952230780434 68.95684095492061 L 1240.780317736306 69.03156658892462 L 1240.606760293708 69.10551135847197 L 1240.4315758082396 69.17866786914732 L 1240.2547817982036 69.25102880536058 L 1240.0763959428534 69.3225869310784 L 1239.8964360806262 69.39333509054786 L 1239.714920207358 69.46326620901198 L 1239.5318664744852 69.53237329341717 L 1239.3472931872282 69.60064943311258 L 1239.161218802762 69.66808780054113 L 1238.9736619283701 69.7346816519223 L 1238.7846413195834 69.80042432792644 L 1238.5941758783056 69.86530925434072 L 1238.4022846509217 69.92932994272657 L 1238.208986826395 69.9924799910685 L 1238.0143017343464 70.05475308441433 L 1237.8182488431232 70.1161429955066 L 1237.6208477578512 70.17664358540536 L 1237.422118218474 70.23624880410202 L 1237.2220800977802 70.29495269112441 L 1237.0207533994153 70.35274937613272 L 1236.8181582558811 70.40963307950663 L 1236.6143149265235 70.46559811292322 L 1236.409243795505 70.52063887992576 L 1236.2029653697684 70.57474987648341 L 1235.995500276984 70.62792569154163 L 1235.7868692634884 70.68016100756323 L 1235.5770931922088 70.73145060106012 L 1235.3661930405779 70.78178934311569 L 1235.1541898984349 70.8311721998977 L 1234.9411049659172 70.8795942331616 L 1234.7269595513408 70.92705060074444 L 1234.5117750690686 70.973536557049 L 1234.2955730373694 71.01904745351838 L 1234.0783750762662 71.06357873910088 L 1233.860202905374 71.10712596070502 L 1233.6410783417286 71.14968476364494 L 1233.4210232976034 71.19125089207583 L 1233.2000597783192 71.23182018941947 L 1232.9782098800442 71.27138859877994 L 1232.7554957875832 71.30995216334925 L 1232.5319397721598 71.34750702680313 L 1232.3075641891892 71.38404943368649 L 1232.0823914760429 71.4195757297891 L 1231.8564441498045 71.45408236251096 L 1231.6297448050184 71.48756588121756 L 1231.4023161114299 71.52002293758491 L 1231.1741808117192 71.55145028593446 L 1230.9453617192257 71.58184478355753 L 1230.7158817156685 71.61120339102969 L 1230.4857637488565 71.63952317251467 L 1230.2550308303944 71.66680129605793 L 1230.023706033382 71.69303503386982 L 1229.7918124901062 71.71822176259843 L 1229.559373389728 71.7423589635919 L 1229.326411975964 71.7654442231502 L 1229.092951544761 71.78747523276665 L 1228.859015441968 71.80844978935863 L 1228.6246270610002 71.82836579548797 L 1228.3898098405002 71.84722125957065 L 1228.1545872619945 71.86501429607597 L 1227.9189828475448 71.8817431257151 L 1227.6830201573966 71.89740607561903 L 1227.4467227876219 71.91200157950583 L 1227.2101143677608 71.92552817783725 L 1226.9732185584583 71.93798451796474 L 1226.7360590490978 71.94936935426468 L 1226.4986595554326 71.95968154826289 L 1226.2610438172142 71.96892006874862 L 1226.0232355958185 71.97708399187748 L 1225.7852586718695 71.98417250126396 L 1225.5471368428612 71.99018488806304 L 1225.3088939207778 71.99512055104105 L 1225.0705537297135 71.99897899663581 L 1224.8321401034884 72.00175983900598 L 1224.5936768832669 72.00346280006961 L 1224.3551879151717 72.00408770953204 L 1224.1166970479012 72.00363450490285 L 1223.8782281303434 72.0021032315021 L 1223.6398050091912 71.99949404245586 L 1223.401451526558 71.9958071986809 L 1223.1631915175938 71.99104306885846 L 1222.9250488081004 71.98520212939759 L 1222.6870472121507 71.97828496438737 L 1222.4492105297059 71.97029226553852 L 1222.211562544236 71.96122483211428 L 1221.9741270203415 71.95108357085043 L 1221.7369277013768 71.93986949586466 L 1221.4999883070764 71.92758372855508 L 1221.263332531182 71.91422749748824 L 1221.0269840390743 71.89980213827607 L 1220.7909664654053 71.8843090934425 L 1220.5553034117356 71.86774991227908 L 1220.3200184441746 71.85012625069015 L 1220.0851350910225 71.83143987102717 L 1219.8506768404193 71.81169264191253 L 1219.6166671379942 71.79088653805269 L 1219.383129384523 71.7690236400407 L 1219.150086933586 71.74610613414815 L 1218.9175630892344 71.72213631210651 L 1218.6855811036585 71.69711657087802 L 1218.4541641748638 71.67104941241597 L 1218.2233354443504 71.64393744341446 L 1217.9931179947987 71.6157833750478 L 1217.7635348477622 71.58659002269937 L 1217.534608961364 71.55636030568009 L 1217.306363228002 71.52509724693644 L 1217.0788204720593 71.49280397274828 L 1216.852003447622 71.45948371241609 L 1216.6259348362034 71.42513979793813 L 1216.4006372444765 71.38977566367726 L 1216.1761332020126 71.35339484601741 L 1215.9524451590287 71.31600098301004 L 1215.7295954841427 71.27759781401028 L 1215.5076064621367 71.23818917930303 L 1215.2865002917274 71.19777901971894 L 1215.0662990833482 71.15637137624027 L 1214.8470248569358 71.11397038959687 L 1214.6286995397306 71.07058029985207 L 1214.4113449640824 71.02620544597868 L 1214.1949828652673 70.98085026542512 L 1213.979634879315 70.93451929367163 L 1213.7653225408446 70.8872171637768 L 1213.5520672809116 70.8389486059142 L 1213.339890424864 70.78971844689937 L 1213.1288131902108 70.7395316097072 L 1212.9188566844996 70.6883931129796 L 1212.7100419032056 70.6363080705236 L 1212.5023897276333 70.58328169080006 L 1212.295920922827 70.52931927640276 L 1212.0906561354955 70.47442622352818 L 1211.886615891946 70.41860802143584 L 1211.683820596033 70.36187025189946 L 1211.4822905271174 70.3042185886487 L 1211.2820458380374 70.24565879680183 L 1211.083106553096 70.18619673228926 L 1210.8854925660553 70.12583834126788 L 1210.6892236381493 70.06458965952649 L 1210.4943193961076 70.00245681188221 L 1210.3007993301915 69.93944601156807 L 1210.1086827922468 69.87556355961155 L 1209.917988993767 69.81081584420461 L 1209.728737003973 69.74520934006487 L 1209.540945747906 69.67875060778805 L 1209.3546340045355 69.61144629319199 L 1209.16982040488 69.54330312665208 L 1208.986523430146 69.47432792242817 L 1208.8047614098778 69.40452757798322 L 1208.6245525201261 69.3339090732935 L 1208.4459147816299 69.26247947015062 L 1208.268866058014 69.19024591145539 L 1208.0934240540032 69.11721562050347 L 1207.9196063136517 69.0433959002631 L 1207.7474302185888 68.96879413264479 L 1207.5769129862806 68.89341777776313 L 1207.408071668308 68.81727437319081 L 1207.240923148662 68.74037153320482 L 1207.0754841420555 68.66271694802508 L 1206.9117711922515 68.58431838304537 L 1206.7498006704081 68.5051836780569 L 1206.5895887734428 68.4253207464642 L 1206.4311515224117 68.34473757449386 L 1206.274504760908 68.26344222039596 L 1206.119664153477 68.18144281363814 L 1205.9666451840508 68.09874755409275 L 1205.8154631543985 68.01536471121685 L 1205.6661331825972 67.9313026232252 L 1205.5186702015196 67.84656969625658 L 1205.3730889573412 67.76117440353308 L 1205.2294040080646 67.67512528451279 L 1205.0876297220655 67.5884309440359 L 1204.947780276654 67.50110005146425 L 1204.8098696566583 67.41314133981427 L 1204.6739116530252 67.32456360488388 L 1204.5399198614423 67.23537570437271 L 1204.4079076809765 67.14558655699653 L 1204.2778883127362 67.05520514159522 L 1204.1498747585497 66.96424049623502 L 1204.0238798196658 66.87270171730466 L 1203.8999160954734 66.78059795860575 L 1203.7779959822417 66.68793843043741 L 1203.6581316718803 66.59473239867523 L 1203.5403351507202 66.50098918384472 L 1203.4246181983158 66.40671816018926 L 1203.3109923862658 66.31192875473263 L 1203.1994690770562 66.2166304463364 L 1203.0900594229256 66.120832764752 L 1202.982774364748 66.02454528966774 L 1202.8776246309396 65.92777764975091 L 1202.7746207363866 65.83053952168484 L 1202.6737729813924 65.73284062920132 L 1202.5750914506482 65.63469074210818 L 1202.4785860122254 65.53609967531233 L 1202.3842663165867 65.4370772878383 L 1202.2921417956238 65.33763348184232 L 1202.2022216617115 65.23777820162212 L 1202.1145149067886 65.13752143262249 L 1202.0290303014574 65.03687320043682 L 1201.945776394107 64.93584356980442 L 1201.8647615100592 64.83444264360419 L 1201.7859937507344 64.73268056184422 L 1201.709480992843 64.63056750064791 L 1201.6352308875973 64.52811367123628 L 1201.5632508599456 64.42532931890689 L 1201.493548107831 64.32222472200931 L 1201.4261296014704 64.21881019091732 L 1201.3610020826584 64.11509606699785 L 1201.2981720640926 64.01109272157687 L 1201.2376458287224 63.90681055490224 L 1201.179429429121 63.80225999510374 L 1201.1235286868796 63.697451497150205 L 1201.0699491920261 63.59239554180411 L 1201.0186963024655 63.48710263457343 L 1200.9697751434435 63.381583304661156 L 1200.9231906070358 63.27584810391234 L 1200.8789473516567 63.16990760575894 L 1200.8370498015954 63.06377240416249 L 1200.7975021465716 62.95745311255472 L 1200.760308341318 62.85096036277616 L 1200.725472105184 62.744304804013076 L 1200.6929969217645 62.63749710173245 L 1200.6628860385504 62.530547936615505 L 1200.6351424666052 62.423468003489624 L 1200.6097689802627 62.316268010258895 L 1200.5867681168509 62.208958676833305 L 1200.5661421764364 62.10155073405677 L 1200.5478932215963 61.99405492263407 L 1200.5320230772109 61.88648199205676 L 1200.5185333302813 61.77884269952825 L 1200.5074253297712 61.6711478088881 L 1200.498700186471 61.56340808953563 L 1200.492358772888 61.45563431535299 L 1200.4884017231584 61.34783726362778 L 1200.4868294329838 61.24002771397536 L 1200.4876420595917 61.13221644726084 L 1200.4908395217203 61.02441424452105 L 1200.496421499626 60.916631885886424 L 1200.5043874351156 60.808880149503025 L 1200.5147365316025 60.70116981045468 L 1200.5274677541852 60.59351163968555 L 1200.5425798297524 60.48591640292299 L 1200.560071247109 60.378394859601016 L 1200.5799402571276 60.27095776178435 L 1200.6021848729245 60.163615853093255 L 1200.6268028700558 60.05637986762915 L 1200.6537917867429 59.949260528901206 L 1200.6831489241163 59.84226854875404 L 1200.7148713464867 59.7354146262965 L 1200.7489558816385 59.62870944683179 L 1200.7853991211466 59.52216368078894 L 1200.8241974207174 59.41578798265577 L 1200.865346900553 59.30959298991343 L 1200.90884344574 59.203589321972714 L 1200.9546827066602 59.09778757911208 L 1201.0028600994253 58.992198341417634 L 1201.0533708063365 58.88683216772516 L 1201.1062097763652 58.78169959456423 L 1201.1613717256582 58.67681113510454 L 1201.2188511380668 58.57217727810464 L 1201.2786422656977 58.46780848686303 L 1201.3407391294877 58.36371519817185 L 1201.4051355198021 58.25990782127324 L 1201.4718249970558 58.15639673681838 L 1201.5408008923566 58.053192295829454 L 1201.6120563081724 57.950304818664556 L 1201.685584119021 57.84774459398567 L 1201.7613769721827 57.745521877729786 L 1201.8394272884352 57.64364689208335 L 1201.9197272628119 57.54212982446004 L 1202.0022688653823 57.44098082648201 L 1202.0870438420552 57.340210012964775 L 1202.174043715403 57.2398274609057 L 1202.2632597855115 57.13984320847635 L 1202.3546831308474 57.040267254018644 L 1202.448304609153 56.94110955504505 L 1202.5441148583582 56.84238002724283 L 1202.6421042975178 56.74408854348249 L 1202.7422631277695 56.646244932830506 L 1202.844581333314 56.54885897956639 L 1202.9490486824159 56.45194042220433 L 1203.0556547284273 56.35549895251929 L 1203.1643888108326 56.25954421457787 L 1203.275240056314 56.16408580377391 L 1203.3881973798393 56.06913326586893 L 1203.5032494857703 55.974696096037604 L 1203.6203848689925 55.88078373791821 L 1203.739591816065 55.7874055826683 L 1203.8608584063925 55.694570968025594 L 1203.9841725134168 55.60228917737418 L 1204.1095218058304 55.51056943881623 L 1204.236893748808 55.41942092424918 L 1204.3662756052618 55.328852748448504 L 1204.4976544371139 55.23887396815633 L 1204.6310171065904 55.14949358117568 L 1204.7663502775358 55.0607205254708 L 1204.9036404167457 54.97256367827326 L 1205.0428737953205 54.88503185519433 L 1205.1840364900384 54.79813380934336 L 1205.3271143847476 54.71187823045254 L 1205.4720931717777 54.62627374400786 L 1205.618958353371 54.541328910386646 L 1205.7676952431316 54.45705222400146 L 1205.9182889674946 54.373452112450714 L 1206.0707244672128 54.290536935675895 L 1206.2249864988637 54.20831498512558 L 1206.3810596363724 54.12679448292632 L 1206.5389282725553 54.0459835810604 L 1206.6985766206801 53.965890360550645 L 1206.8599887160453 53.88652283065238 L 1207.0231484175756 53.80788892805245 L 1207.1880394094374 53.72999651607559 L 1207.3546452026683 53.652853383898076 L 1207.522949136828 53.57646724576885 L 1207.6929343816632 53.50084574023808 L 1207.8645839387916 53.42599642939328 L 1208.0378806433998 53.35192679810317 L 1208.2128071659624 53.278644253269164 L 1208.3893460139725 53.20615612308466 L 1208.5674795336927 53.13446965630228 L 1208.7471899119191 53.06359202150896 L 1208.9284591777641 52.99353030640911 L 1209.111269204452 52.924291517115876 L 1209.2956017111321 52.85588257745046 L 1209.4814382647078 52.78831032824984 L 1209.6687602816783 52.72158152668263 L 1209.8575490299984 52.65570284557336 L 1210.04778563095 52.590680872735255 L 1210.2394510610322 52.52652211031142 L 1210.4325261538613 52.463232974124615 L 1210.626991602089 52.40081979303573 L 1210.8228279593325 52.33928880831086 L 1211.0200156421195 52.278646172997206 L 1211.2185349318456 52.21889795130775 L 1211.4183659767475 52.160050118014894 L 1211.6194887938875 52.1021085578529 L 1211.8218832711511 52.045079064929524 L 1212.0255291692592 51.98896734214652 L 1212.2304061237921 51.933779000629414 L 1212.4364936472248 51.87951955916637 L 1212.6437711309768 51.826194443656306 L 1212.8522178474723 51.77380898656634 L 1213.0618129522134 51.72236842639853 L 1213.2725354858644 51.67187790716602 L 1213.4843643763475 51.622342477878675 L 1213.69727844095 51.57376709203812 L 1213.911256388443 51.526156607142475 L 1214.1262768212102 51.47951578420055 L 1214.3423182373874 51.43384928725578 L 1214.5593590330132 51.38916168291979 L 1214.7773775041883 51.34545743991578 L 1214.996351849248 51.302740928631636 L 1215.2162601709397 51.261016420682886 L 1215.437080478615 51.220288088485546 L 1215.6587906904265 51.18056000483891 L 1215.8813686355384 51.14183614251822 L 1216.1047920563415 51.10412037387746 L 1216.3290386106796 51.06741647046204 L 1216.5540858740846 51.03172810263173 L 1216.7799113420174 50.99705883919358 L 1217.0064924321193 50.96341214704502 L 1217.2338064864705 50.930791390827245 L 1217.4618307738547 50.899199832588685 L 1217.690542492033 50.86864063145883 L 1217.9199187700247 50.83911684333235 L 1218.1499366703927 50.81063142056343 L 1218.3805731915388 50.78318721167063 L 1218.6118052700033 50.75678696105195 L 1218.8436097827707 50.731433308710464 L 1219.075963549583 50.70712878999027 L 1219.3088433352573 50.683875835323 L 1219.5422258520089 50.66167676998473 L 1219.7760877617804 50.6405338138635 L 1220.0104056785763 50.6204490812373 L 1220.2451561707999 50.60142458056266 L 1220.4803157635974 50.583462214273794 L 1220.7158609412058 50.566563778592354 L 1220.9517681493035 50.55073096334783 L 1221.1880137973662 50.53596535180856 L 1221.424574261026 50.52226842052339 L 1221.6614258844338 50.50964153917403 L 1221.8985449826243 50.49808597043808 L 1222.135907843886 50.48760286986282 L 1222.3734907321295 50.47819328574954 L 1222.611269889265 50.46985815904882 L 1222.8492215375743 50.462598323266384 L 1223.0873218820911 50.456414504379765 L 1223.3255471129792 50.45130732076569 L 1223.5638734079141 50.44727728313828 L 1223.8022769344652 50.444324794497916 L 1224.040733852478 50.44245015009101 L 1224.27922031646 50.44165353738045 L 1224.517712477963 50.44193503602685 L 1224.75618648797 50.443294617880554 L 1224.9946184992782 50.445732146984525 L 1225.2329846688856 50.44924737958788 L 1225.471261160374 50.45383996417029 L 1225.7094241462923 50.459509441477124 L 1225.947449810541 50.46625524456538 L 1226.1853143507515 50.474076698860365 L 1226.4229939806683 50.48297302222316 L 1226.660464932526 50.49294332502887 L 1226.8977034594282 50.50398661025549 L 1227.1346858377192 50.51610177358371 L 1227.3713883693588 50.52928760350731 L 1227.607787384291 50.54354278145426 L 1227.8438592428115 50.55886588191867 L 1228.0795803379312 50.575255372603245 L 1228.314927097737 50.592709614572584 L 1228.5498759877487 50.61122686241703 L 1228.7844035132737 50.630805264427224 L 1229.0184862217543 50.651442862779284 L 1229.252100705115 50.67313759373059 L 1229.4852236021022 50.695887287826096 L 1229.7178316006202 50.71968967011537 L 1229.9499014400633 50.74454236038002 L 1230.181409913641 50.77044287337172 L 1230.4123338706981 50.797388619060754 L 1230.6426502190325 50.825376902895016 L 1230.8723359272003 50.85440492606945 L 1231.1013680268227 50.88446978580591 L 1231.3297236148803 50.9155684756435 L 1231.557379856005 50.947697885739125 L 1231.7843139847616 50.980854803178566 L 1232.0105033079271 51.01503591229771 L 1232.2359252067572 51.05023779501413 L 1232.4605571392503 51.08645693116888 L 1232.6843766424 51.12368969887854 L 1232.9073613344424 51.16193237489736 L 1233.1294889170945 51.201181134989596 L 1233.350737177783 51.241432054311964 L 1233.571083991866 51.28268110780607 L 1233.790507324846 51.32492417060092 L 1234.0089852345725 51.368157018425464 L 1234.2264958734363 51.41237532803093 L 1234.4430174905551 51.45757467762322 L 1234.6585284339476 51.503750547305025 L 1234.8730071526988 51.55089831952786 L 1235.0864321991157 51.5990132795538 L 1235.2987822308717 51.64809061592693 L 1235.5100360131403 51.69812542095451 L 1235.7201724207196 51.749112691197745 L 1235.9291704401437 51.801047327972086 L 1236.1370091717847 51.85392413785714 L 1236.343667831943 51.90773783321599 L 1236.5491257549247 51.962483032723924 L 1236.7533623951088 52.01815426190663 L 1236.956357329001 52.07474595368758 L 1237.1580902572778 52.132252448944755 L 1237.3585410068138 52.190667997076545 L 1237.5576895327015 52.24998675657682 L 1237.755515920254 52.310202795619055 L 1237.9520003869977 52.371310092649544 L 1238.1471232846493 52.43330253698949 L 1238.340865101082 52.49617392944612 L 1238.5332064622755 52.559917982932596 L 1238.724128134254 52.62452832309667 L 1238.9136110250092 52.68999848895818 L 1239.1016361864101 52.7563219335551 L 1239.288184816097 52.823492024598224 L 1239.473238259363 52.89150204513444 L 1239.6567780110172 52.960345194218355 L 1239.838785717238 53.03001458759244 L 1240.0192431774058 53.10050325837541 L 1240.1981323459256 53.171804157758935 L 1240.3754353340296 53.243910155712484 L 1240.5511344115662 53.31681404169635 L 1240.7252120087746 53.39050852538269 L 1240.8976507180398 53.46498623738456 L 1241.0684332956348 53.5402397299928 L 1241.2375426634442 53.61626147792087 L 1241.4049619106718 53.69304387905734 L 1241.5706742955326 53.770579255226075 L 1241.7346632469264 53.848859852954064 L 1241.8969123660943 53.92787784424677 L 1242.05740542826 54.00762532737092 L 1242.2161263842506 54.08809432764465 L 1242.3730593621033 54.16927679823499 L 1242.5281886686507 54.251164620962534 L 1242.6814987910914 54.33374960711325 L 1242.8329743985412 54.41702349825734 L 1242.9826003435653 54.500977967075094 L 1243.1303616636942 54.58560461818958 L 1243.2762435829186 54.670894989006214 L 1243.4202315131686 54.75684055055899 L 1243.5623110557708 54.84343270836337 L 1243.7024680028894 54.93066280327574 L 1243.8406883389466 55.0185221123593 L 1243.976958242024 55.107001849756344 L 1244.1112640852448 55.196093167566886 L 1244.2435924381366 55.28578715673337 L 1244.3739300679742 55.37607484793163 L 1244.5022639411036 55.46694721246779 L 1244.6285812242443 55.55839516318112 L 1244.752869285773 55.65040955535275 L 1244.8751156969875 55.742981187620146 L 1244.9953082333482 55.83610080289723 L 1245.1134348757016 55.92975908930006 L 1245.2294838114824 56.02394668107806 L 1245.3434434358933 56.11865415955053 L 1245.4553023530668 56.213872054048544 L 1245.5650493772048 56.30959084286201 L 1245.6726735336958 56.405800954191804 L 1245.7781640602143 56.50249276710697 L 1245.8815104077955 56.5996566125068 L 1245.9827022418904 56.69728277408771 L 1246.0817294434003 56.79536148931491 L 1246.1785821096873 56.89388295039859 L 1246.2732505555657 56.99283730527477 L 1246.3657253142696 57.09221465859041 L 1246.4559971384003 57.19200507269298 L 1246.5440570008507 57.29219856862425 L 1246.6298960957079 57.39278512711811 L 1246.7135058391336 57.49375468960253 L 1246.7948778702237 57.59509715920541 L 1246.8740040518426 57.69680240176424 L 1246.950876471438 57.79886024683951 L 1247.0254874418322 57.90126048873177 L 1247.0978295019902 58.003992887502164 L 1247.1678954177664 58.10704716999642 L 1247.2356781826275 58.21041303087217 L 1247.3011710183534 58.31408013362946 L 1247.3643673757153 58.41803811164441 L 1247.42526093513 58.52227656920584 L 1247.4838456072926 58.62678508255487 L 1247.540115533784 58.731553200927245 L 1247.5940650876594 58.83657044759845 L 1247.6456888740074 58.94182632093131 L 1247.6949817304933 59.04731029542622 L 1247.7419387278717 59.153011822773635 L 1247.7865551704826 59.25892033290889 L 1247.8288265967187 59.36502523506925 L 1247.8687487794725 59.471315918852895 L 1247.906317726559 59.57778175528004 L 1247.9415296811153 59.684412097855756 L 1247.9743811219746 59.79119628363465 L 1248.0048687640203 59.89812363428712 L 1248.0329895585141 60.005183457167206 L 1248.0587406933996 60.11236504638185 L 1248.0821195935846 60.21965768386144 L 1248.103123921199 60.327050640431644 L 1248.1217515758271 60.43453317688629 L 1248.1380006947195 60.5420945450613 L 1248.1518696529774 60.6497239889095 L 1248.1633570637166 60.757410745576195 L 1248.1724617782058 60.86514404647545 L 1248.179182885981 60.972913118366954 L 1248.1835197149371 61.08070718443333 L 1248.1854718313946 61.188515465357796 M 1248.1855928214507 95.52678387991818 L 1248.184400361547 95.6345944248348 L 1248.180823101081 95.74239418878678 L 1248.1748613977754 95.85017239188754 L 1248.1665158477963 95.95791825640659 L 1248.155787285691 96.06562100784727 L 1248.1426767843072 96.1732698760242 L 1248.127185654684 96.28085409614023 L 1248.1093154459213 96.38836290986303 L 1248.0890679450254 96.49578556640084 L 1248.066445176729 96.60311132357748 L 1248.0414494032907 96.7103294489067 L 1248.0140831242668 96.8174292206653 L 1247.984349076262 96.92439992896537 L 1247.952250232657 97.0312308768252 L 1247.9177898033088 97.13791138123905 L 1247.880971234232 97.24443077424536 L 1247.8417982072529 97.35077840399362 L 1247.800274639641 97.45694363580944 L 1247.756404683719 97.56291585325815 L 1247.7101927264457 97.66868445920629 L 1247.6616433889783 97.77423887688141 L 1247.6107615262104 97.8795685509297 L 1247.5575522262852 97.98466294847155 L 1247.502020810089 98.08951156015478 L 1247.4441728307172 98.19410390120557 L 1247.384014072919 98.29842951247699 L 1247.3215505525202 98.40247796149485 L 1247.2567885158212 98.50623884350097 L 1247.189734438971 98.60970178249359 L 1247.120395027322 98.71285643226504 L 1247.0487772147576 98.81569247743631 L 1246.974888162999 98.91819963448859 L 1246.8987352608897 99.02036765279156 L 1246.820326123657 99.12218631562857 L 1246.739668592149 99.22364544121817 L 1246.6567707320514 99.32473488373233 L 1246.5716408330816 99.42544453431107 L 1246.4842874081583 99.52576432207324 L 1246.394719192551 99.62568421512367 L 1246.3029451430068 99.72519422155631 L 1246.2089744368545 99.82428439045346 L 1246.112816471086 99.92294481288079 L 1246.0144808614177 100.02116562287829 L 1245.913977441329 100.11893699844678 L 1245.8113162610778 100.2162491625302 L 1245.7065075866967 100.31309238399325 L 1245.599561898966 100.40945697859446 L 1245.490489892365 100.50533330995468 L 1245.3793024740037 100.60071179052068 L 1245.266010762531 100.69558288252388 L 1245.1506260870242 100.78993709893413 L 1245.0331599858541 100.88376500440843 L 1244.9136242055333 100.97705721623441 L 1244.79203069954 101.06980440526866 L 1244.6683916271236 101.16199729686952 L 1244.5427193520882 101.25362667182469 L 1244.4150264415566 101.34468336727302 L 1244.2853256647138 101.43515827762084 L 1244.1536299915288 101.52504235545253 L 1244.0199525914595 101.61432661243519 L 1243.8843068321346 101.70300212021755 L 1243.7467062780167 101.7910600113227 L 1243.6071646890468 101.87849148003492 L 1243.4656960192676 101.9652877832802 L 1243.3223144154279 102.05144024150056 L 1243.1770342155685 102.13694023952193 L 1243.0298699475888 102.22177922741581 L 1242.8808363277926 102.30594872135407 L 1242.7299482594178 102.38944030445748 L 1242.5772208311455 102.47224562763729 L 1242.422669315591 102.5543564104302 L 1242.2663091677775 102.63576444182635 L 1242.1081560235893 102.71646158109044 L 1241.9482256982092 102.79643975857579 L 1241.7865341845359 102.8756909765313 L 1241.6230976515865 102.95420730990122 L 1241.457932442878 103.03198090711763 L 1241.2910550747938 103.10900399088564 L 1241.1224822349313 103.18526885896105 L 1240.952230780434 103.2607678849206 L 1240.780317736306 103.33549351892461 L 1240.606760293708 103.40943828847196 L 1240.4315758082396 103.48259479914732 L 1240.2547817982036 103.55495573536056 L 1240.0763959428534 103.6265138610784 L 1239.8964360806262 103.69726202054787 L 1239.714920207358 103.76719313901197 L 1239.5318664744852 103.83630022341715 L 1239.3472931872282 103.90457636311257 L 1239.161218802762 103.97201473054113 L 1238.9736619283701 104.03860858192229 L 1238.7846413195834 104.10435125792642 L 1238.5941758783056 104.1692361843407 L 1238.4022846509217 104.23325687272656 L 1238.208986826395 104.29640692106851 L 1238.0143017343464 104.35868001441433 L 1237.8182488431232 104.4200699255066 L 1237.6208477578512 104.48057051540535 L 1237.422118218474 104.54017573410202 L 1237.2220800977802 104.5988796211244 L 1237.0207533994153 104.65667630613272 L 1236.8181582558811 104.71356000950664 L 1236.6143149265235 104.7695250429232 L 1236.409243795505 104.82456580992574 L 1236.2029653697684 104.87867680648341 L 1235.995500276984 104.93185262154162 L 1235.7868692634884 104.98408793756322 L 1235.5770931922088 105.0353775310601 L 1235.3661930405779 105.08571627311568 L 1235.1541898984349 105.13509912989768 L 1234.9411049659172 105.1835211631616 L 1234.7269595513408 105.23097753074444 L 1234.5117750690686 105.27746348704899 L 1234.2955730373694 105.32297438351839 L 1234.0783750762662 105.36750566910086 L 1233.860202905374 105.41105289070501 L 1233.6410783417286 105.45361169364494 L 1233.4210232976034 105.49517782207583 L 1233.2000597783192 105.53574711941947 L 1232.9782098800442 105.57531552877992 L 1232.7554957875832 105.61387909334925 L 1232.5319397721598 105.65143395680312 L 1232.3075641891892 105.68797636368647 L 1232.0823914760429 105.72350265978909 L 1231.8564441498045 105.75800929251095 L 1231.6297448050184 105.79149281121755 L 1231.4023161114299 105.82394986758491 L 1231.1741808117192 105.85537721593445 L 1230.9453617192257 105.88577171355752 L 1230.7158817156685 105.9151303210297 L 1230.4857637488565 105.94345010251467 L 1230.2550308303944 105.97072822605791 L 1230.023706033382 105.99696196386981 L 1229.7918124901062 106.02214869259844 L 1229.559373389728 106.04628589359189 L 1229.326411975964 106.0693711531502 L 1229.092951544761 106.09140216276666 L 1228.859015441968 106.11237671935864 L 1228.6246270610002 106.13229272548797 L 1228.3898098405002 106.15114818957065 L 1228.1545872619945 106.16894122607596 L 1227.9189828475448 106.1856700557151 L 1227.6830201573966 106.20133300561903 L 1227.4467227876219 106.21592850950582 L 1227.2101143677608 106.22945510783724 L 1226.9732185584583 106.24191144796474 L 1226.7360590490978 106.25329628426466 L 1226.4986595554326 106.2636084782629 L 1226.2610438172142 106.2728469987486 L 1226.0232355958185 106.28101092187747 L 1225.7852586718695 106.28809943126396 L 1225.5471368428612 106.29411181806304 L 1225.3088939207778 106.29904748104106 L 1225.0705537297135 106.30290592663582 L 1224.8321401034884 106.30568676900597 L 1224.5936768832669 106.30738973006962 L 1224.3551879151717 106.30801463953205 L 1224.1166970479012 106.30756143490284 L 1223.8782281303434 106.3060301615021 L 1223.6398050091912 106.30342097245587 L 1223.401451526558 106.29973412868088 L 1223.1631915175938 106.29496999885845 L 1222.9250488081004 106.28912905939758 L 1222.6870472121507 106.28221189438736 L 1222.4492105297059 106.27421919553852 L 1222.211562544236 106.26515176211427 L 1221.9741270203415 106.25501050085043 L 1221.7369277013768 106.24379642586464 L 1221.4999883070764 106.23151065855508 L 1221.263332531182 106.21815442748823 L 1221.0269840390743 106.20372906827606 L 1220.7909664654053 106.1882360234425 L 1220.5553034117356 106.17167684227908 L 1220.3200184441746 106.15405318069014 L 1220.0851350910225 106.13536680102716 L 1219.8506768404193 106.11561957191253 L 1219.6166671379942 106.09481346805269 L 1219.383129384523 106.0729505700407 L 1219.150086933586 106.05003306414814 L 1218.9175630892344 106.0260632421065 L 1218.6855811036585 106.00104350087803 L 1218.4541641748638 105.97497634241597 L 1218.2233354443504 105.94786437341445 L 1217.9931179947987 105.9197103050478 L 1217.7635348477622 105.89051695269937 L 1217.534608961364 105.86028723568009 L 1217.306363228002 105.82902417693644 L 1217.0788204720593 105.79673090274827 L 1216.852003447622 105.76341064241608 L 1216.6259348362034 105.72906672793813 L 1216.4006372444765 105.69370259367726 L 1216.1761332020126 105.6573217760174 L 1215.9524451590287 105.61992791301003 L 1215.7295954841427 105.58152474401028 L 1215.5076064621367 105.54211610930304 L 1215.2865002917274 105.50170594971894 L 1215.0662990833482 105.46029830624026 L 1214.8470248569358 105.41789731959686 L 1214.6286995397306 105.37450722985206 L 1214.4113449640824 105.33013237597868 L 1214.1949828652673 105.28477719542511 L 1213.979634879315 105.23844622367163 L 1213.7653225408446 105.1911440937768 L 1213.5520672809116 105.14287553591419 L 1213.339890424864 105.09364537689936 L 1213.1288131902108 105.0434585397072 L 1212.9188566844996 104.99232004297959 L 1212.7100419032056 104.9402350005236 L 1212.5023897276333 104.88720862080007 L 1212.295920922827 104.83324620640276 L 1212.0906561354955 104.77835315352817 L 1211.886615891946 104.72253495143585 L 1211.683820596033 104.66579718189945 L 1211.4822905271174 104.60814551864868 L 1211.2820458380374 104.54958572680184 L 1211.083106553096 104.49012366228926 L 1210.8854925660553 104.42976527126788 L 1210.6892236381493 104.36851658952648 L 1210.4943193961076 104.30638374188221 L 1210.3007993301915 104.24337294156805 L 1210.1086827922468 104.17949048961154 L 1209.917988993767 104.11474277420461 L 1209.728737003973 104.04913627006486 L 1209.540945747906 103.98267753778805 L 1209.3546340045355 103.91537322319199 L 1209.16982040488 103.84723005665208 L 1208.986523430146 103.77825485242818 L 1208.8047614098778 103.70845450798322 L 1208.6245525201261 103.63783600329349 L 1208.4459147816299 103.56640640015061 L 1208.268866058014 103.49417284145538 L 1208.0934240540032 103.42114255050346 L 1207.9196063136517 103.3473228302631 L 1207.7474302185888 103.27272106264479 L 1207.5769129862806 103.19734470776314 L 1207.408071668308 103.1212013031908 L 1207.240923148662 103.04429846320481 L 1207.0754841420555 102.96664387802507 L 1206.9117711922515 102.88824531304537 L 1206.7498006704081 102.8091106080569 L 1206.5895887734428 102.72924767646418 L 1206.4311515224117 102.64866450449387 L 1206.274504760908 102.56736915039596 L 1206.119664153477 102.48536974363815 L 1205.9666451840508 102.40267448409276 L 1205.8154631543985 102.31929164121684 L 1205.6661331825972 102.2352295532252 L 1205.5186702015196 102.15049662625658 L 1205.3730889573412 102.06510133353308 L 1205.2294040080646 101.97905221451278 L 1205.0876297220655 101.89235787403591 L 1204.947780276654 101.80502698146424 L 1204.8098696566583 101.71706826981428 L 1204.6739116530252 101.62849053488388 L 1204.5399198614423 101.53930263437272 L 1204.4079076809765 101.44951348699652 L 1204.2778883127362 101.35913207159521 L 1204.1498747585497 101.26816742623502 L 1204.0238798196658 101.17662864730465 L 1203.8999160954734 101.08452488860574 L 1203.7779959822417 100.9918653604374 L 1203.6581316718803 100.89865932867522 L 1203.5403351507202 100.80491611384473 L 1203.4246181983158 100.71064509018925 L 1203.3109923862658 100.61585568473262 L 1203.1994690770562 100.5205573763364 L 1203.0900594229256 100.424759694752 L 1202.982774364748 100.32847221966773 L 1202.8776246309396 100.2317045797509 L 1202.7746207363866 100.13446645168483 L 1202.6737729813924 100.03676755920131 L 1202.5750914506482 99.93861767210817 L 1202.4785860122254 99.84002660531232 L 1202.3842663165867 99.7410042178383 L 1202.2921417956238 99.64156041184232 L 1202.2022216617115 99.54170513162211 L 1202.1145149067886 99.4414483626225 L 1202.0290303014574 99.34080013043682 L 1201.945776394107 99.23977049980442 L 1201.8647615100592 99.13836957360418 L 1201.7859937507344 99.03660749184422 L 1201.709480992843 98.9344944306479 L 1201.6352308875973 98.83204060123627 L 1201.5632508599456 98.72925624890688 L 1201.493548107831 98.6261516520093 L 1201.4261296014704 98.52273712091731 L 1201.3610020826584 98.41902299699785 L 1201.2981720640926 98.31501965157686 L 1201.2376458287224 98.21073748490224 L 1201.179429429121 98.10618692510373 L 1201.1235286868796 98.0013784271502 L 1201.0699491920261 97.89632247180411 L 1201.0186963024655 97.79102956457344 L 1200.9697751434435 97.68551023466115 L 1200.9231906070358 97.57977503391233 L 1200.8789473516567 97.47383453575894 L 1200.8370498015954 97.3676993341625 L 1200.7975021465716 97.2613800425547 L 1200.760308341318 97.15488729277617 L 1200.725472105184 97.04823173401307 L 1200.6929969217645 96.94142403173245 L 1200.6628860385504 96.8344748666155 L 1200.6351424666052 96.72739493348962 L 1200.6097689802627 96.6201949402589 L 1200.5867681168509 96.51288560683331 L 1200.5661421764364 96.40547766405678 L 1200.5478932215963 96.29798185263407 L 1200.5320230772109 96.19040892205675 L 1200.5185333302813 96.08276962952824 L 1200.5074253297712 95.9750747388881 L 1200.498700186471 95.86733501953563 L 1200.492358772888 95.75956124535298 L 1200.4884017231584 95.65176419362778 L 1200.4868294329838 95.54395464397535" stroke-miterlimit="10" stroke-width="2.7769845610000004" stroke-dasharray=""/></g><g><g/><text fill="black" stroke="none" font-family="sans-serif" font-size="11pt" font-style="normal" font-weight="normal" text-decoration="normal" x="1164.4435873608725" y="123.83569119881818" text-anchor="start" dominant-baseline="alphabetic" xml:space="preserve">Amenity Database</text></g></g><g><path fill="white" stroke="black" paint-order="fill stroke markers" d=" M 366.2098566415365 182.64242307881818 L 382.54505994153646 182.64242307881818 L 382.54505994153646 773.976782538818 L 366.2098566415365 773.976782538818 L 366.2098566415365 182.64242307881818" stroke-miterlimit="10" stroke-width="1.3612669416666667" stroke-dasharray=""/><path fill="white" stroke="black" paint-order="fill stroke markers" d=" M 932.1856144230469 274.1195615588182 L 948.520817723047 274.1195615588182 L 948.520817723047 682.4996440588181 L 932.1856144230469 682.4996440588181 L 932.1856144230469 274.1195615588182" stroke-miterlimit="10" stroke-width="1.3612669416666667" stroke-dasharray=""/><path fill="white" stroke="black" paint-order="fill stroke markers" d=" M 1216.1685943534505 319.8581307988182 L 1232.5037976534506 319.8581307988182 L 1232.5037976534506 636.7610748188182 L 1216.1685943534505 636.7610748188182 L 1216.1685943534505 319.8581307988182" stroke-miterlimit="10" stroke-width="1.3612669416666667" stroke-dasharray=""/><path fill="white" stroke="black" paint-order="fill stroke markers" d=" M 366.2098566415365 844.218156728818 L 382.54505994153646 844.218156728818 L 382.54505994153646 1435.5525161888183 L 366.2098566415365 1435.5525161888183 L 366.2098566415365 844.218156728818" stroke-miterlimit="10" stroke-width="1.3612669416666667" stroke-dasharray=""/><path fill="white" stroke="black" paint-order="fill stroke markers" d=" M 932.1856144230469 935.6952952088179 L 948.520817723047 935.6952952088179 L 948.520817723047 1344.0753777088182 L 932.1856144230469 1344.0753777088182 L 932.1856144230469 935.6952952088179" stroke-miterlimit="10" stroke-width="1.3612669416666667" stroke-dasharray=""/><path fill="white" stroke="black" paint-order="fill stroke markers" d=" M 1216.1685943534505 981.4338644488179 L 1232.5037976534506 981.4338644488179 L 1232.5037976534506 1298.3368084688182 L 1216.1685943534505 1298.3368084688182 L 1216.1685943534505 981.4338644488179" stroke-miterlimit="10" stroke-width="1.3612669416666667" stroke-dasharray=""/><g><text fill="black" stroke="none" font-family="sans-serif" font-size="16pt" font-style="normal" font-weight="normal" text-decoration="normal" x="606.1740341186523" y="24.651306798181814" text-anchor="start" dominant-baseline="alphabetic" xml:space="preserve">Amenities</text></g><g><rect fill="white" stroke="none" x="120.85556392996746" y="161.4066587888182" width="198.00714363160156" height="21.23576429"/><text fill="black" stroke="none" font-family="sans-serif" font-size="11pt" font-style="normal" font-weight="normal" text-decoration="normal" x="123.30584442496746" y="176.10834175881817" text-anchor="start" dominant-baseline="alphabetic" xml:space="preserve">(1) Request to view amenities</text></g><g><path fill="none" stroke="black" paint-order="fill stroke markers" d=" M 73.50841485 182.64242307881818 L 352.7605392578698 182.64242307881818" stroke-miterlimit="10" stroke-width="1.3612669416666667" stroke-dasharray=""/><g transform="translate(366.2098566415365,182.64242307881818) translate(-366.2098566415365,-182.64242307881818)"><path fill="black" stroke="none" paint-order="stroke fill markers" d=" M 352.5971872248698 175.83608837048484 L 366.2098566415365 182.64242307881818 L 352.5971872248698 189.44875778715152 Z"/></g></g><g><rect fill="white" stroke="none" x="412.0683183354688" y="207.1452280288182" width="207.77806343140625" height="21.23576429"/><text fill="black" stroke="none" font-family="sans-serif" font-size="11pt" font-style="normal" font-weight="normal" text-decoration="normal" x="414.5185988304688" y="221.84691099881817" text-anchor="start" dominant-baseline="alphabetic" xml:space="preserve">(2) Request for list of amenities</text></g><g><path fill="none" stroke="black" paint-order="fill stroke markers" d=" M 382.54505994153646 228.3809923188182 L 635.9203227771407 228.3809923188182" stroke-miterlimit="10" stroke-width="1.3612669416666667" stroke-dasharray=""/><g transform="translate(649.3696401608073,228.3809923188182) translate(-649.3696401608073,-228.3809923188182)"><path fill="black" stroke="none" paint-order="stroke fill markers" d=" M 635.7569707441406 221.57465761048485 L 649.3696401608073 228.3809923188182 L 635.7569707441406 235.18732702715153 Z"/></g></g><g><rect fill="white" stroke="none" x="672.2322006177278" y="252.88379726881823" width="237.09085334839844" height="21.23576429"/><text fill="black" stroke="none" font-family="sans-serif" font-size="11pt" font-style="normal" font-weight="normal" text-decoration="normal" x="674.6824811127278" y="267.5854802388182" text-anchor="start" dominant-baseline="alphabetic" xml:space="preserve">(3) Route to Amenities Microservice</text></g><g><path fill="none" stroke="black" paint-order="fill stroke markers" d=" M 649.3696401608073 274.1195615588182 L 918.7362970393802 274.1195615588182" stroke-miterlimit="10" stroke-width="1.3612669416666667" stroke-dasharray=""/><g transform="translate(932.1856144230469,274.1195615588182) translate(-932.1856144230469,-274.1195615588182)"><path fill="black" stroke="none" paint-order="stroke fill markers" d=" M 918.5729450063802 267.31322685048485 L 932.1856144230469 274.1195615588182 L 918.5729450063802 280.92589626715153 Z"/></g></g><g><rect fill="white" stroke="none" x="1004.9409877380729" y="298.6223665088182" width="154.80743660035156" height="21.23576429"/><text fill="black" stroke="none" font-family="sans-serif" font-size="11pt" font-style="normal" font-weight="normal" text-decoration="normal" x="1007.3912682330729" y="313.32404947881815" text-anchor="start" dominant-baseline="alphabetic" xml:space="preserve">(4) Query for amenities</text></g><g><path fill="none" stroke="black" paint-order="fill stroke markers" d=" M 948.520817723047 319.8581307988182 L 1202.7192769697838 319.8581307988182" stroke-miterlimit="10" stroke-width="1.3612669416666667" stroke-dasharray=""/><g transform="translate(1216.1685943534505,319.8581307988182) translate(-1216.1685943534505,-319.8581307988182)"><path fill="black" stroke="none" paint-order="stroke fill markers" d=" M 1202.5559249367839 313.05179609048486 L 1216.1685943534505 319.8581307988182 L 1202.5559249367839 326.66446550715153 Z"/></g></g><g><rect fill="white" stroke="none" x="1033.4520732483268" y="388.4659846588182" width="97.78526557984375" height="21.23576429"/><text fill="black" stroke="none" font-family="sans-serif" font-size="11pt" font-style="normal" font-weight="normal" text-decoration="normal" x="1035.9023537433268" y="403.16766762881815" text-anchor="start" dominant-baseline="alphabetic" xml:space="preserve">(5) Return null</text></g><g><path fill="none" stroke="black" paint-order="fill stroke markers" d=" M 1216.1685943534505 409.7017489488182 L 961.9701351067137 409.7017489488182" stroke-miterlimit="10" stroke-width="1.3612669416666667" stroke-dasharray="6.53408132"/><g transform="translate(948.520817723047,409.7017489488182) translate(-948.520817723047,-409.7017489488182)"><path fill="black" stroke="none" paint-order="stroke fill markers" d=" M 962.1334871397137 402.89541424048485 L 948.520817723047 409.7017489488182 L 962.1334871397137 416.50808365715153 Z"/></g></g><g><rect fill="white" stroke="none" x="719.4726867627473" y="434.2045538988182" width="142.60988105835938" height="21.23576429"/><text fill="black" stroke="none" font-family="sans-serif" font-size="11pt" font-style="normal" font-weight="normal" text-decoration="normal" x="721.9229672577474" y="448.90623686881816" text-anchor="start" dominant-baseline="alphabetic" xml:space="preserve">(6) Return 404 status</text></g><g><path fill="none" stroke="black" paint-order="fill stroke markers" d=" M 932.1856144230469 455.4403181888182 L 662.818957544474 455.4403181888182" stroke-miterlimit="10" stroke-width="1.3612669416666667" stroke-dasharray="6.53408132"/><g transform="translate(649.3696401608073,455.4403181888182) translate(-649.3696401608073,-455.4403181888182)"><path fill="black" stroke="none" paint-order="stroke fill markers" d=" M 662.982309577474 448.63398348048486 L 649.3696401608073 455.4403181888182 L 662.982309577474 462.24665289715153 Z"/></g></g><g><rect fill="white" stroke="none" x="446.2844819707227" y="479.9431231388182" width="139.34573616089844" height="21.23576429"/><text fill="black" stroke="none" font-family="sans-serif" font-size="11pt" font-style="normal" font-weight="normal" text-decoration="normal" x="448.7347624657227" y="494.64480610881816" text-anchor="start" dominant-baseline="alphabetic" xml:space="preserve">(7) Return response </text></g><g><path fill="none" stroke="black" paint-order="fill stroke markers" d=" M 649.3696401608073 501.1788874288182 L 395.9943773252031 501.1788874288182" stroke-miterlimit="10" stroke-width="1.3612669416666667" stroke-dasharray="6.53408132"/><g transform="translate(382.54505994153646,501.1788874288182) translate(-382.54505994153646,-501.1788874288182)"><path fill="black" stroke="none" paint-order="stroke fill markers" d=" M 396.15772935820314 494.37255272048486 L 382.54505994153646 501.1788874288182 L 396.15772935820314 507.98522213715154 Z"/></g></g><g><rect fill="white" stroke="none" x="92.83840542166668" y="525.6816923788182" width="254.04146064820313" height="21.23576429"/><text fill="black" stroke="none" font-family="sans-serif" font-size="11pt" font-style="normal" font-weight="normal" text-decoration="normal" x="95.28868591666668" y="540.3833753488182" text-anchor="start" dominant-baseline="alphabetic" xml:space="preserve">(8) Display error "Amenities not found"</text></g><g><path fill="none" stroke="black" paint-order="fill stroke markers" d=" M 366.2098566415365 546.9174566688182 L 86.95773223366666 546.9174566688182" stroke-miterlimit="10" stroke-width="1.3612669416666667" stroke-dasharray="6.53408132"/><g transform="translate(73.50841485,546.9174566688182) translate(-73.50841485,-546.9174566688182)"><path fill="black" stroke="none" paint-order="stroke fill markers" d=" M 87.12108426666666 540.1111219604849 L 73.50841485 546.9174566688182 L 87.12108426666666 553.7237913771515 Z"/></g></g><g><rect fill="white" stroke="none" x="997.1886607727408" y="615.5253105288182" width="170.31209053101563" height="21.23576429"/><text fill="black" stroke="none" font-family="sans-serif" font-size="11pt" font-style="normal" font-weight="normal" text-decoration="normal" x="999.6389412677408" y="630.2269934988182" text-anchor="start" dominant-baseline="alphabetic" xml:space="preserve">(5) Return amenities data</text></g><g><path fill="none" stroke="black" paint-order="fill stroke markers" d=" M 1216.1685943534505 636.7610748188182 L 961.9701351067137 636.7610748188182" stroke-miterlimit="10" stroke-width="1.3612669416666667" stroke-dasharray="6.53408132"/><g transform="translate(948.520817723047,636.7610748188182) translate(-948.520817723047,-636.7610748188182)"><path fill="black" stroke="none" paint-order="stroke fill markers" d=" M 962.1334871397137 629.9547401104849 L 948.520817723047 636.7610748188182 L 962.1334871397137 643.5674095271515 Z"/></g></g><g><rect fill="white" stroke="none" x="719.4726867627473" y="661.2638797688181" width="142.60988105835938" height="21.23576429"/><text fill="black" stroke="none" font-family="sans-serif" font-size="11pt" font-style="normal" font-weight="normal" text-decoration="normal" x="721.9229672577474" y="675.9655627388181" text-anchor="start" dominant-baseline="alphabetic" xml:space="preserve">(6) Return 200 status</text></g><g><path fill="none" stroke="black" paint-order="fill stroke markers" d=" M 932.1856144230469 682.4996440588181 L 662.818957544474 682.4996440588181" stroke-miterlimit="10" stroke-width="1.3612669416666667" stroke-dasharray="6.53408132"/><g transform="translate(649.3696401608073,682.4996440588181) translate(-649.3696401608073,-682.4996440588181)"><path fill="black" stroke="none" paint-order="stroke fill markers" d=" M 662.982309577474 675.6933093504848 L 649.3696401608073 682.4996440588181 L 662.982309577474 689.3059787671515 Z"/></g></g><g><rect fill="white" stroke="none" x="446.2844819707227" y="707.0024490088181" width="139.34573616089844" height="21.23576429"/><text fill="black" stroke="none" font-family="sans-serif" font-size="11pt" font-style="normal" font-weight="normal" text-decoration="normal" x="448.7347624657227" y="721.704131978818" text-anchor="start" dominant-baseline="alphabetic" xml:space="preserve">(7) Return response </text></g><g><path fill="none" stroke="black" paint-order="fill stroke markers" d=" M 649.3696401608073 728.2382132988181 L 395.9943773252031 728.2382132988181" stroke-miterlimit="10" stroke-width="1.3612669416666667" stroke-dasharray="6.53408132"/><g transform="translate(382.54505994153646,728.2382132988181) translate(-382.54505994153646,-728.2382132988181)"><path fill="black" stroke="none" paint-order="stroke fill markers" d=" M 396.15772935820314 721.4318785904848 L 382.54505994153646 728.2382132988181 L 396.15772935820314 735.0445480071514 Z"/></g></g><g><rect fill="white" stroke="none" x="137.97797756522138" y="752.741018248818" width="163.76231636109375" height="21.23576429"/><text fill="black" stroke="none" font-family="sans-serif" font-size="11pt" font-style="normal" font-weight="normal" text-decoration="normal" x="140.42825806022137" y="767.442701218818" text-anchor="start" dominant-baseline="alphabetic" xml:space="preserve">(8) Display amenities list</text></g><g><path fill="none" stroke="black" paint-order="fill stroke markers" d=" M 366.2098566415365 773.976782538818 L 86.95773223366666 773.976782538818" stroke-miterlimit="10" stroke-width="1.3612669416666667" stroke-dasharray="6.53408132"/><g transform="translate(73.50841485,773.976782538818) translate(-73.50841485,-773.976782538818)"><path fill="black" stroke="none" paint-order="stroke fill markers" d=" M 87.12108426666666 767.1704478304847 L 73.50841485 773.976782538818 L 87.12108426666666 780.7831172471514 Z"/></g></g><g><rect fill="white" stroke="none" x="95.59430294363933" y="822.982392438818" width="248.52966560425781" height="21.23576429"/><text fill="black" stroke="none" font-family="sans-serif" font-size="11pt" font-style="normal" font-weight="normal" text-decoration="normal" x="98.04458343863934" y="837.684075408818" text-anchor="start" dominant-baseline="alphabetic" xml:space="preserve">(9) Request to view specified amenity</text></g><g><path fill="none" stroke="black" paint-order="fill stroke markers" d=" M 73.50841485 844.218156728818 L 352.7605392578698 844.218156728818" stroke-miterlimit="10" stroke-width="1.3612669416666667" stroke-dasharray=""/><g transform="translate(366.2098566415365,844.218156728818) translate(-366.2098566415365,-844.218156728818)"><path fill="black" stroke="none" paint-order="stroke fill markers" d=" M 352.5971872248698 837.4118220204847 L 366.2098566415365 844.218156728818 L 352.5971872248698 851.0244914371514 Z"/></g></g><g><rect fill="white" stroke="none" x="401.8750505132032" y="868.720961678818" width="228.1645990759375" height="21.23576429"/><text fill="black" stroke="none" font-family="sans-serif" font-size="11pt" font-style="normal" font-weight="normal" text-decoration="normal" x="404.3253310082032" y="883.4226446488179" text-anchor="start" dominant-baseline="alphabetic" xml:space="preserve">(10) Request for specified amenity</text></g><g><path fill="none" stroke="black" paint-order="fill stroke markers" d=" M 382.54505994153646 889.956725968818 L 635.9203227771407 889.956725968818" stroke-miterlimit="10" stroke-width="1.3612669416666667" stroke-dasharray=""/><g transform="translate(649.3696401608073,889.956725968818) translate(-649.3696401608073,-889.956725968818)"><path fill="black" stroke="none" paint-order="stroke fill markers" d=" M 635.7569707441406 883.1503912604846 L 649.3696401608073 889.956725968818 L 635.7569707441406 896.7630606771513 Z"/></g></g><g><rect fill="white" stroke="none" x="668.6996307324739" y="914.4595309188179" width="244.15599311890625" height="21.23576429"/><text fill="black" stroke="none" font-family="sans-serif" font-size="11pt" font-style="normal" font-weight="normal" text-decoration="normal" x="671.1499112274739" y="929.1612138888179" text-anchor="start" dominant-baseline="alphabetic" xml:space="preserve">(11) Route to Amenities Microservice</text></g><g><path fill="none" stroke="black" paint-order="fill stroke markers" d=" M 649.3696401608073 935.6952952088179 L 918.7362970393802 935.6952952088179" stroke-miterlimit="10" stroke-width="1.3612669416666667" stroke-dasharray=""/><g transform="translate(932.1856144230469,935.6952952088179) translate(-932.1856144230469,-935.6952952088179)"><path fill="black" stroke="none" paint-order="stroke fill markers" d=" M 918.5729450063802 928.8889605004846 L 932.1856144230469 935.6952952088179 L 918.5729450063802 942.5016299171513 Z"/></g></g><g><rect fill="white" stroke="none" x="975.6031352600455" y="960.1981001588179" width="213.48314155640625" height="21.23576429"/><text fill="black" stroke="none" font-family="sans-serif" font-size="11pt" font-style="normal" font-weight="normal" text-decoration="normal" x="978.0534157550455" y="974.8997831288178" text-anchor="start" dominant-baseline="alphabetic" xml:space="preserve">(12) Query for specified amenity</text></g><g><path fill="none" stroke="black" paint-order="fill stroke markers" d=" M 948.520817723047 981.4338644488179 L 1202.7192769697838 981.4338644488179" stroke-miterlimit="10" stroke-width="1.3612669416666667" stroke-dasharray=""/><g transform="translate(1216.1685943534505,981.4338644488179) translate(-1216.1685943534505,-981.4338644488179)"><path fill="black" stroke="none" paint-order="stroke fill markers" d=" M 1202.5559249367839 974.6275297404845 L 1216.1685943534505 981.4338644488179 L 1202.5559249367839 988.2401991571512 Z"/></g></g><g><rect fill="white" stroke="none" x="1001.6732722839713" y="1050.041718308818" width="161.3428675085547" height="21.23576429"/><text fill="black" stroke="none" font-family="sans-serif" font-size="11pt" font-style="normal" font-weight="normal" text-decoration="normal" x="1004.1235527789713" y="1064.743401278818" text-anchor="start" dominant-baseline="alphabetic" xml:space="preserve">(13) Return null amenity</text></g><g><path fill="none" stroke="black" paint-order="fill stroke markers" d=" M 1216.1685943534505 1071.2774825988179 L 961.9701351067137 1071.2774825988179" stroke-miterlimit="10" stroke-width="1.3612669416666667" stroke-dasharray="6.53408132"/><g transform="translate(948.520817723047,1071.2774825988179) translate(-948.520817723047,-1071.2774825988179)"><path fill="black" stroke="none" paint-order="stroke fill markers" d=" M 962.1334871397137 1064.4711478904846 L 948.520817723047 1071.2774825988179 L 962.1334871397137 1078.083817307151 Z"/></g></g><g><rect fill="white" stroke="none" x="715.3960952710481" y="1095.780287548818" width="150.76306404175781" height="21.23576429"/><text fill="black" stroke="none" font-family="sans-serif" font-size="11pt" font-style="normal" font-weight="normal" text-decoration="normal" x="717.8463757660481" y="1110.4819705188181" text-anchor="start" dominant-baseline="alphabetic" xml:space="preserve">(14) Return 404 status</text></g><g><path fill="none" stroke="black" paint-order="fill stroke markers" d=" M 932.1856144230469 1117.016051838818 L 662.818957544474 1117.016051838818" stroke-miterlimit="10" stroke-width="1.3612669416666667" stroke-dasharray="6.53408132"/><g transform="translate(649.3696401608073,1117.016051838818) translate(-649.3696401608073,-1117.016051838818)"><path fill="black" stroke="none" paint-order="stroke fill markers" d=" M 662.982309577474 1110.2097171304847 L 649.3696401608073 1117.016051838818 L 662.982309577474 1123.8223865471512 Z"/></g></g><g><rect fill="white" stroke="none" x="442.2078904790235" y="1141.518856788818" width="147.49891914429688" height="21.23576429"/><text fill="black" stroke="none" font-family="sans-serif" font-size="11pt" font-style="normal" font-weight="normal" text-decoration="normal" x="444.6581709740235" y="1156.2205397588182" text-anchor="start" dominant-baseline="alphabetic" xml:space="preserve">(15) Return response </text></g><g><path fill="none" stroke="black" paint-order="fill stroke markers" d=" M 649.3696401608073 1162.754621078818 L 395.9943773252031 1162.754621078818" stroke-miterlimit="10" stroke-width="1.3612669416666667" stroke-dasharray="6.53408132"/><g transform="translate(382.54505994153646,1162.754621078818) translate(-382.54505994153646,-1162.754621078818)"><path fill="black" stroke="none" paint-order="stroke fill markers" d=" M 396.15772935820314 1155.9482863704848 L 382.54505994153646 1162.754621078818 L 396.15772935820314 1169.5609557871512 Z"/></g></g><g><rect fill="white" stroke="none" x="94.46689205496746" y="1187.2574260288181" width="250.78448738160156" height="21.23576429"/><text fill="black" stroke="none" font-family="sans-serif" font-size="11pt" font-style="normal" font-weight="normal" text-decoration="normal" x="96.91717254996746" y="1201.9591089988182" text-anchor="start" dominant-baseline="alphabetic" xml:space="preserve">(16) Display error "Amenity not found"</text></g><g><path fill="none" stroke="black" paint-order="fill stroke markers" d=" M 366.2098566415365 1208.493190318818 L 86.95773223366666 1208.493190318818" stroke-miterlimit="10" stroke-width="1.3612669416666667" stroke-dasharray="6.53408132"/><g transform="translate(73.50841485,1208.493190318818) translate(-73.50841485,-1208.493190318818)"><path fill="black" stroke="none" paint-order="stroke fill markers" d=" M 87.12108426666666 1201.6868556104848 L 73.50841485 1208.493190318818 L 87.12108426666666 1215.2995250271513 Z"/></g></g><g><rect fill="white" stroke="none" x="967.8508082947135" y="1277.1010441788183" width="228.98779548707031" height="21.23576429"/><text fill="black" stroke="none" font-family="sans-serif" font-size="11pt" font-style="normal" font-weight="normal" text-decoration="normal" x="970.3010887897135" y="1291.8027271488183" text-anchor="start" dominant-baseline="alphabetic" xml:space="preserve">(13) Return specified amenity data</text></g><g><path fill="none" stroke="black" paint-order="fill stroke markers" d=" M 1216.1685943534505 1298.3368084688182 L 961.9701351067137 1298.3368084688182" stroke-miterlimit="10" stroke-width="1.3612669416666667" stroke-dasharray="6.53408132"/><g transform="translate(948.520817723047,1298.3368084688182) translate(-948.520817723047,-1298.3368084688182)"><path fill="black" stroke="none" paint-order="stroke fill markers" d=" M 962.1334871397137 1291.530473760485 L 948.520817723047 1298.3368084688182 L 962.1334871397137 1305.1431431771514 Z"/></g></g><g><rect fill="white" stroke="none" x="715.3960952710481" y="1322.8396134188183" width="150.76306404175781" height="21.23576429"/><text fill="black" stroke="none" font-family="sans-serif" font-size="11pt" font-style="normal" font-weight="normal" text-decoration="normal" x="717.8463757660481" y="1337.5412963888184" text-anchor="start" dominant-baseline="alphabetic" xml:space="preserve">(14) Return 200 status</text></g><g><path fill="none" stroke="black" paint-order="fill stroke markers" d=" M 932.1856144230469 1344.0753777088182 L 662.818957544474 1344.0753777088182" stroke-miterlimit="10" stroke-width="1.3612669416666667" stroke-dasharray="6.53408132"/><g transform="translate(649.3696401608073,1344.0753777088182) translate(-649.3696401608073,-1344.0753777088182)"><path fill="black" stroke="none" paint-order="stroke fill markers" d=" M 662.982309577474 1337.269043000485 L 649.3696401608073 1344.0753777088182 L 662.982309577474 1350.8817124171514 Z"/></g></g><g><rect fill="white" stroke="none" x="442.2078904790235" y="1368.5781826588184" width="147.49891914429688" height="21.23576429"/><text fill="black" stroke="none" font-family="sans-serif" font-size="11pt" font-style="normal" font-weight="normal" text-decoration="normal" x="444.6581709740235" y="1383.2798656288185" text-anchor="start" dominant-baseline="alphabetic" xml:space="preserve">(15) Return response </text></g><g><path fill="none" stroke="black" paint-order="fill stroke markers" d=" M 649.3696401608073 1389.8139469488183 L 395.9943773252031 1389.8139469488183" stroke-miterlimit="10" stroke-width="1.3612669416666667" stroke-dasharray="6.53408132"/><g transform="translate(382.54505994153646,1389.8139469488183) translate(-382.54505994153646,-1389.8139469488183)"><path fill="black" stroke="none" paint-order="stroke fill markers" d=" M 396.15772935820314 1383.007612240485 L 382.54505994153646 1389.8139469488183 L 396.15772935820314 1396.6202816571515 Z"/></g></g><g><rect fill="white" stroke="none" x="96.41035061209637" y="1414.3167518988184" width="246.89757026734375" height="21.23576429"/><text fill="black" stroke="none" font-family="sans-serif" font-size="11pt" font-style="normal" font-weight="normal" text-decoration="normal" x="98.86063110709637" y="1429.0184348688185" text-anchor="start" dominant-baseline="alphabetic" xml:space="preserve">(16) Display specified amenity details</text></g><g><path fill="none" stroke="black" paint-order="fill stroke markers" d=" M 366.2098566415365 1435.5525161888183 L 86.95773223366666 1435.5525161888183" stroke-miterlimit="10" stroke-width="1.3612669416666667" stroke-dasharray="6.53408132"/><g transform="translate(73.50841485,1435.5525161888183) translate(-73.50841485,-1435.5525161888183)"><path fill="black" stroke="none" paint-order="stroke fill markers" d=" M 87.12108426666666 1428.7461814804851 L 73.50841485 1435.5525161888183 L 87.12108426666666 1442.3588508971516 Z"/></g></g><g><g/><path fill="none" stroke="black" paint-order="fill stroke markers" d=" M 16.335203299999996 344.3609357488182 L 1281.5094075534505 344.3609357488182 L 1281.5094075534505 798.4795874888181 L 16.335203299999996 798.4795874888181 L 16.335203299999996 344.3609357488182 Z" stroke-miterlimit="10" stroke-width="2.3336004714285714" stroke-dasharray=""/><path fill="white" stroke="black" paint-order="fill stroke markers" d=" M 16.335203299999996 344.3609357488182 L 16.335203299999996 363.9631797088182 L 62.69440689707031 363.9631797088182 L 72.49552887707031 354.1620577288182 L 72.49552887707031 344.3609357488182 L 16.335203299999996 344.3609357488182" stroke-miterlimit="10" stroke-width="2.3336004714285714" stroke-dasharray=""/><text fill="black" stroke="none" font-family="sans-serif" font-size="8.8pt" font-style="normal" font-weight="bold" text-decoration="normal" x="32.67040659999999" y="357.4290983888182" text-anchor="start" dominant-baseline="alphabetic" xml:space="preserve">alt</text><g><rect fill="white" stroke="none" x="86.38045168207032" y="345.6677520128182" width="156.09022773804688" height="16.988611432000003"/></g><text fill="black" stroke="none" font-family="sans-serif" font-size="8.8pt" font-style="normal" font-weight="bold" text-decoration="normal" x="88.83073217707032" y="357.4290983888182" text-anchor="start" dominant-baseline="alphabetic" xml:space="preserve">[Amenities were not found]</text><g><path fill="none" stroke="black" paint-order="fill stroke markers" d=" M 16.335203299999996 571.4202616188182 L 1281.5094075534505 571.4202616188182" stroke-miterlimit="10" stroke-width="2.3336004714285714" stroke-dasharray="4.083800825"/></g><g/><g><rect fill="white" stroke="none" x="86.38045168207032" y="572.7270778828182" width="134.59480537476563" height="16.988611432000003"/></g><text fill="black" stroke="none" font-family="sans-serif" font-size="8.8pt" font-style="normal" font-weight="bold" text-decoration="normal" x="88.83073217707032" y="584.4884242588182" text-anchor="start" dominant-baseline="alphabetic" xml:space="preserve">[Amenities were found]</text></g><g/><g><g/><path fill="none" stroke="black" paint-order="fill stroke markers" d=" M 16.335203299999996 1005.9366693988178 L 1281.5094075534505 1005.9366693988178 L 1281.5094075534505 1460.0553211388183 L 16.335203299999996 1460.0553211388183 L 16.335203299999996 1005.9366693988178 Z" stroke-miterlimit="10" stroke-width="2.3336004714285714" stroke-dasharray=""/><path fill="white" stroke="black" paint-order="fill stroke markers" d=" M 16.335203299999996 1005.9366693988178 L 16.335203299999996 1025.5389133588178 L 62.69440689707031 1025.5389133588178 L 72.49552887707031 1015.7377913788177 L 72.49552887707031 1005.9366693988178 L 16.335203299999996 1005.9366693988178" stroke-miterlimit="10" stroke-width="2.3336004714285714" stroke-dasharray=""/><text fill="black" stroke="none" font-family="sans-serif" font-size="8.8pt" font-style="normal" font-weight="bold" text-decoration="normal" x="32.67040659999999" y="1019.0048320388178" text-anchor="start" dominant-baseline="alphabetic" xml:space="preserve">alt</text><g><rect fill="white" stroke="none" x="86.38045168207032" y="1007.2434856628178" width="116.31251777710938" height="16.988611432000003"/></g><text fill="black" stroke="none" font-family="sans-serif" font-size="8.8pt" font-style="normal" font-weight="bold" text-decoration="normal" x="88.83073217707032" y="1019.0048320388178" text-anchor="start" dominant-baseline="alphabetic" xml:space="preserve">[Amenity not found]</text><g><path fill="none" stroke="black" paint-order="fill stroke markers" d=" M 16.335203299999996 1232.9959952688182 L 1281.5094075534505 1232.9959952688182" stroke-miterlimit="10" stroke-width="2.3336004714285714" stroke-dasharray="4.083800825"/></g><g/><g><rect fill="white" stroke="none" x="86.38045168207032" y="1234.3028115328182" width="94.81709541382813" height="16.988611432000003"/></g><text fill="black" stroke="none" font-family="sans-serif" font-size="8.8pt" font-style="normal" font-weight="bold" text-decoration="normal" x="88.83073217707032" y="1246.064157908818" text-anchor="start" dominant-baseline="alphabetic" xml:space="preserve">[Amenity found]</text></g><g/></g><g/><g/><g/></g></svg>