<svg xmlns="http://www.w3.org/2000/svg" xmlns:xlink="http://www.w3.org/1999/xlink" version="1.1" width="1526.3490619745442" height="2084.0600871988186"><desc>title%20Amenities%0A%0Aactor%20Staff%0Aparticipant%20%22Staff%20Front-end%22%20as%20StaffFrontend%0Aparticipant%20NGINX%0Aparticipant%20%22Amenities%20Controller%22%20as%20AmenitiesController%0Adatabase%20Amenities%20Database%0A%0AStaff%20-%3E%20StaffFrontend%20%3A%20(1)%20Requests%20to%20view%20amenities%0Aactivate%20StaffFrontend%0AStaffFrontend%20-%3E%20NGINX%20%3A%20(2)%20Request%20for%20list%20of%20amenities%0A%0ANGINX%20-%3E%20AmenitiesController%20%3A%20(3)%20Route%20to%20Amenities%20Controller%0Aactivate%20AmenitiesController%0A%0AAmenitiesController%20-%3E%20Amenities%20Database%20%3A%20(4)%20Query%20for%20amenities%0Aactivate%20Amenities%20Database%0A%0Aalt%20Amenities%20are%20not%20found%0A%20%20%20%20Amenities%20Database%20--%3E%20AmenitiesController%3A%20(5)%20Return%20null%20amenities%0A%20%20%20%20AmenitiesController%20--%3E%20NGINX%20%3A%20(6)%20Return%20404%20status%0A%0A%20%20%20%20NGINX%20--%3E%20StaffFrontend%20%3A%20(7)%20Return%20response%20%0A%20%20%20%20StaffFrontend%20--%3E%20Staff%20%3A%20(8)%20Display%20error%20%22Amenities%20not%20found%22%0Aelse%20Amenities%20are%20found%0A%20%20%20%20Amenities%20Database%20--%3E%20AmenitiesController%20%3A%20(5)%20Return%20amenities%20data%0A%20%20%20%20deactivate%20Amenities%20Database%0A%0A%20%20%20%20AmenitiesController%20--%3E%20NGINX%20%3A%20(6)%20Return%20200%20status%0A%20%20%20%20deactivate%20AmenitiesController%0A%0A%20%20%20%20NGINX%20--%3E%20StaffFrontend%20%3A%20(7)%20Return%20response%20%0A%20%20%20%20StaffFrontend%20--%3E%20Staff%20%3A%20(8)%20Display%20amenities%20list%0A%20%20%20%20deactivate%20StaffFrontend%0Aend%0A%0AStaff%20-%3E%20StaffFrontend%20%3A%20(9)%20Clicks%20%22Update%20Amenity%22%20button%0Aactivate%20StaffFrontend%0AStaffFrontend%20-%3E%20Staff%20%3A%20(10)%20Show%20Update%20Amenity%20dashboard%0Adeactivate%20StaffFrontend%0Aactivate%20StaffFrontend%0A%0AStaff%20-%3E%20StaffFrontend%20%3A%20(11)%20Update%20specified%20amenity%20with%20new%20information%0Adeactivate%20StaffFrontend%0Aactivate%20StaffFrontend%0A%0AStaffFrontend%20-%3E%20NGINX%20%3A%20(12)%20Sends%20request%20with%20updated%20amenity%20data%0A%0ANGINX%20-%3E%20AmenitiesController%20%3A%20(13)%20Route%20to%20Amenities%20Controller%0Aactivate%20AmenitiesController%0A%0AAmenitiesController%20-%3E%20AmenitiesController%20%3A%20(14)%20Validate%20amenity%20object%0A%0Aalt%20Validation%20fails%0A%20%20%20%20AmenitiesController%20--%3E%20NGINX%20%3A%20(15)%20Return%20validation%20error%0A%20%20%20%20NGINX%20--%3E%20StaffFrontend%20%3A%20(16)%20Return%20response%0A%20%20%20%20StaffFrontend%20--%3E%20Staff%20%3A%20(17)%20Display%20error%20%22Invalid%20amenity%20information%22%0Aelse%20Validation%20passes%0A%20%20%20%20AmenitiesController%20-%3E%20AmenitiesController%20%3A%20(17)%20Return%20validation%20success%0A%0A%20%20%20%20AmenitiesController%20-%3E%20Amenities%20Database%20%3A%20(18)%20Check%20if%20amenity%20exists%20by%20ID%0A%20%20%20%20activate%20Amenities%20Database%0A%0A%20%20%20%20alt%20Amenity%20not%20found%0A%20%20%20%20%20%20%20%20Amenities%20Database%20--%3E%20AmenitiesController%20%3A%20(19)%20Return%20amenity%20not%20found%0A%20%20%20%20%20%20%20%20AmenitiesController%20--%3E%20NGINX%20%3A%20(20)%20Return%20404%20status%0A%0A%20%20%20%20%20%20%20%20NGINX%20--%3E%20StaffFrontend%20%3A%20(21)%20Return%20response%20%0A%20%20%20%20%20%20%20%20StaffFrontend%20--%3E%20Staff%20%3A%20(22)%20Display%20error%20%22Amenity%20not%20found%22%0A%20%20%20%20else%20Amenity%20found%0A%20%20%20%20%20%20%20%20Amenities%20Database%20--%3E%20AmenitiesController%20%3A%20(19)%20Return%20amenity%20data%0A%20%20%20%20%20%20%20%20deactivate%20Amenities%20Database%0A%0A%20%20%20%20%20%20%20%20AmenitiesController%20-%3E%20Amenities%20Database%20%3A%20(20)%20Update%20amenity%20with%20new%20information%0A%20%20%20%20%20%20%20%20activate%20Amenities%20Database%0A%0A%20%20%20%20%20%20%20%20Amenities%20Database%20--%3E%20AmenitiesController%20%3A%20(21)%20Return%20updated%20amenity%0A%20%20%20%20%20%20%20%20deactivate%20Amenities%20Database%0A%0A%20%20%20%20%20%20%20%20AmenitiesController%20--%3E%20NGINX%20%3A%20(22)%20Return%20200%20status%0A%20%20%20%20%20%20%20%20deactivate%20AmenitiesController%0A%0A%20%20%20%20%20%20%20%20NGINX%20--%3E%20StaffFrontend%20%3A%20(23)%20Return%20response%0A%20%20%20%20%20%20%20%20StaffFrontend%20--%3E%20Staff%20%3A%20(24)%20Display%20updated%20amenity%0A%20%20%20%20%20%20%20%20deactivate%20StaffFrontend%0A%20%20%20%20end%0Aend%0A%0A</desc><defs/><g><g/><g/><g/><g/><g/><g/><g/><g/><g/><g/><g/><g/><g/><g/><g/><g/><g/><g/><g/><g/><g/><g/><g/><g/><g/><g/><g/><g/><g/><g/><g/><g/><g/><g/><g/><g/><g/><g/><g/><g/><g/><g/><g/><g/><g/><g/><g/><g/><g/><g/><g/><g/><g/><g/><g/><g/><g/><g/><g/><g/><g/><g/><g/><g/><g/><g/><g/><g/><g/><g/><g/><g/><g/><g/><g/><g/><g/><g/><g/><g/><g/><g/><g/><g/><g/><g/><g/><g/><g/><g/><g/><g/><g/><g/><g/><g/><g/><g/><g/><g/><g/><g/><g/><g/><g/><g/><g/><g/><g/><g/><g/><g/><g/><g/><g/><g/><g/><g/><g/><g/><g/><g/><g/><g/><g/><g/><g/><g/><g/><g/><g/><g/><g/><g/><g/><g/><g/><g/><g/><g/><g/><g/><g/><g/><g/><g/><g/><g/><g/><g/><g/><g/><g/><g/><g/><g/><g/><g/><g/><g/><g/><g/><g/><g/><g/><g/><g/><g/><g/><g/><g/><g/><g/><g/><g/><g/><g/><g/><g/><g/><g/><g/><g/><g/><g/><g/><g/><g/><g/><g/><g/><g/><g/><g/><g/><g/><g/><g/><g/><g/><g/><g/><g/><g/><g/><g/><g/><g/><g/><g/><g/><g/><g/><g/><g/><g/><g/><g/><g/><g/><g/><g/><g/><g/><g/><g/><g/><g/><g/><g/><g/><g/><g/><g/><g/><g/><g/><g/><g/><g/><g/><g/><g/><g/><g/><g/><g/><g/><g/><g/><g/><g/><g/><g/><g/><g/><g/><g/><g/><g/><g/><g/><g/><g/><g/><g/><g/><g/><g/><g/><g/><g/><g/><g/><g/><g/><g/><g/><g/><g/><g/><g/><g/><g/><g/><g/><g/><g/><g/><g/><g/><g/><g/><g/><g/><g/><g/><g/><g/><g/><g/><g/><g/><g/><g/><g/><g/><g/><g/><g/><g/><g/><g/><g/><g/><g/><g/><g/><g/><g/><g><rect fill="white" stroke="none" x="0" y="0" width="1526" height="2084"/></g><g/><g><path fill="none" stroke="black" paint-order="fill stroke markers" d=" M 89.84361815 128.73625218881818 L 89.84361815 2084.0600871988186" stroke-miterlimit="10" stroke-width="1.3612669416666667" stroke-dasharray="12.565541,5.445067766666667"/><path fill="none" stroke="black" paint-order="fill stroke markers" d=" M 472.93885788059896 128.73625218881818 L 472.93885788059896 2084.0600871988186" stroke-miterlimit="10" stroke-width="1.3612669416666667" stroke-dasharray="12.565541,5.445067766666667"/><path fill="none" stroke="black" paint-order="fill stroke markers" d=" M 824.5666751258464 128.73625218881818 L 824.5666751258464 2084.0600871988186" stroke-miterlimit="10" stroke-width="1.3612669416666667" stroke-dasharray="12.565541,5.445067766666667"/><path fill="none" stroke="black" paint-order="fill stroke markers" d=" M 1097.919635803711 128.73625218881818 L 1097.919635803711 2084.0600871988186" stroke-miterlimit="10" stroke-width="1.3612669416666667" stroke-dasharray="12.565541,5.445067766666667"/><path fill="none" stroke="black" paint-order="fill stroke markers" d=" M 1428.3378421745442 128.73625218881818 L 1428.3378421745442 2084.0600871988186" stroke-miterlimit="10" stroke-width="1.3612669416666667" stroke-dasharray="12.565541,5.445067766666667"/></g><g><g><path fill="white" stroke="black" paint-order="fill stroke markers" d=" M 99.154684031 59.63834222981819 A 9.311065881 9.311065881 0 1 1 99.15467937546744 59.62903116548903 M 89.84361815 68.9494081108182 L 89.84361815 88.8783561368182 M 78.08227177399999 76.13689756281819 L 101.604964526 76.13689756281819 M 89.84361815 88.8783561368182 L 78.08227177399999 107.50048789881819 M 89.84361815 88.8783561368182 L 101.604964526 107.50048789881819" stroke-miterlimit="10" stroke-width="2.7769845610000004" stroke-dasharray=""/></g><g><g/><text fill="black" stroke="none" font-family="sans-serif" font-size="11pt" font-style="normal" font-weight="normal" text-decoration="normal" x="74.90088438535156" y="123.83569119881818" text-anchor="start" dominant-baseline="alphabetic" xml:space="preserve">Staff</text></g><path fill="none" stroke="none"/><g><path fill="white" stroke="black" paint-order="fill stroke markers" d=" M 406.457120918263 84.7945553118182 L 539.4205948429349 84.7945553118182 L 539.4205948429349 128.73625218881818 L 406.457120918263 128.73625218881818 L 406.457120918263 84.7945553118182 Z" stroke-miterlimit="10" stroke-width="2.613632528" stroke-dasharray=""/></g><g><text fill="black" stroke="none" font-family="sans-serif" font-size="11pt" font-style="normal" font-weight="normal" text-decoration="normal" x="424.180816498763" y="112.40104888881818" text-anchor="start" dominant-baseline="alphabetic" xml:space="preserve">Staff Front-end</text></g><path fill="none" stroke="none"/><g><path fill="white" stroke="black" paint-order="fill stroke markers" d=" M 783.6289445111667 84.63120327881819 L 865.5044057405261 84.63120327881819 L 865.5044057405261 128.73625218881818 L 783.6289445111667 128.73625218881818 L 783.6289445111667 84.63120327881819 Z" stroke-miterlimit="10" stroke-width="2.613632528" stroke-dasharray=""/></g><g><g/><text fill="black" stroke="none" font-family="sans-serif" font-size="11pt" font-style="normal" font-weight="normal" text-decoration="normal" x="801.3526400916667" y="112.40104888881817" text-anchor="start" dominant-baseline="alphabetic" xml:space="preserve">NGINX</text></g><path fill="none" stroke="none"/><g><path fill="white" stroke="black" paint-order="fill stroke markers" d=" M 1014.200983252996 84.7945553118182 L 1181.6382883544256 84.7945553118182 L 1181.6382883544256 128.73625218881818 L 1014.200983252996 128.73625218881818 L 1014.200983252996 84.7945553118182 Z" stroke-miterlimit="10" stroke-width="2.613632528" stroke-dasharray=""/></g><g><text fill="black" stroke="none" font-family="sans-serif" font-size="11pt" font-style="normal" font-weight="normal" text-decoration="normal" x="1031.924678833496" y="112.40104888881818" text-anchor="start" dominant-baseline="alphabetic" xml:space="preserve">Amenities Controller</text></g><g><path fill="white" stroke="black" paint-order="fill stroke markers" d=" M 1404.4884453565442 96.71925372081819 L 1404.4884453565442 62.41532679081819 L 1452.1872389925443 62.41532679081819 L 1452.1872389925443 96.71925372081819" stroke-miterlimit="10" stroke-width="2.7769845610000004" stroke-dasharray=""/><path fill="white" stroke="black" paint-order="fill stroke markers" d=" M 1452.1872389925443 61.22285694991819 L 1452.1860465326406 61.33066749483481 L 1452.1824692721746 61.43846725878678 L 1452.176507568869 61.546245461887544 L 1452.16816201889 61.65399132640659 L 1452.1574334567847 61.761694077847274 L 1452.1443229554009 61.86934294602419 L 1452.1288318257775 61.976927166140236 L 1452.110961617015 62.084435979863045 L 1452.090714116119 62.19185863640084 L 1452.0680913478227 62.299184393577484 L 1452.0430955743843 62.4064025189067 L 1452.0157292953604 62.51350229066531 L 1451.9859952473557 62.62047299896537 L 1451.9538964037506 62.7273039468252 L 1451.9194359744024 62.83398445123905 L 1451.8826174053256 62.94050384424536 L 1451.8434443783465 63.04685147399361 L 1451.8019208107346 63.15301670580944 L 1451.7580508548126 63.25898892325815 L 1451.7118388975393 63.364757529206294 L 1451.663289560072 63.47031194688142 L 1451.612407697304 63.575641620929716 L 1451.5591983973789 63.68073601847156 L 1451.5036669811827 63.78558463015478 L 1451.4458190018108 63.89017697120557 L 1451.3856602440126 63.994502582477 L 1451.3231967236138 64.09855103149486 L 1451.2584346869148 64.20231191350096 L 1451.1913806100647 64.3057748524936 L 1451.1220411984157 64.40892950226505 L 1451.0504233858512 64.51176554743633 L 1450.9765343340925 64.61427270448858 L 1450.9003814319833 64.71644072279157 L 1450.8219722947506 64.81825938562858 L 1450.7413147632426 64.91971851121816 L 1450.658416903145 65.02080795373233 L 1450.5732870041752 65.12151760431107 L 1450.4859335792519 65.22183739207324 L 1450.3963653636447 65.32175728512367 L 1450.3045913141004 65.42126729155632 L 1450.2106206079482 65.52035746045347 L 1450.1144626421797 65.6190178828808 L 1450.0161270325113 65.71723869287828 L 1449.9156236124227 65.81501006844678 L 1449.8129624321714 65.91232223253022 L 1449.7081537577903 66.00916545399325 L 1449.6012080700596 66.10553004859446 L 1449.4921360634587 66.20140637995469 L 1449.3809486450973 66.29678486052069 L 1449.2676569336247 66.39165595252388 L 1449.1522722581178 66.48601016893414 L 1449.0348061569478 66.57983807440844 L 1448.915270376627 66.67313028623443 L 1448.7936768706336 66.76587747526865 L 1448.6700377982172 66.85807036686953 L 1448.5443655231818 66.94969974182469 L 1448.4166726126502 67.04075643727302 L 1448.2869718358074 67.13123134762085 L 1448.1552761626224 67.22111542545254 L 1448.0215987625531 67.3103996824352 L 1447.8859530032282 67.39907519021754 L 1447.7483524491104 67.4871330813227 L 1447.6088108601405 67.57456455003492 L 1447.4673421903613 67.6613608532802 L 1447.3239605865215 67.74751331150055 L 1447.178680386662 67.83301330952195 L 1447.0315161186825 67.91785229741582 L 1446.8824824988862 68.00202179135408 L 1446.7315944305114 68.08551337445749 L 1446.5788670022391 68.1683186976373 L 1446.4243154866847 68.25042948043021 L 1446.2679553388712 68.33183751182635 L 1446.109802194683 68.41253465109044 L 1445.9498718693028 68.4925128285758 L 1445.7881803556295 68.5717640465313 L 1445.62474382268 68.65028037990122 L 1445.4595786139716 68.72805397711764 L 1445.2927012458874 68.80507706088565 L 1445.124128406025 68.88134192896105 L 1444.9538769515277 68.95684095492061 L 1444.7819639073996 69.03156658892462 L 1444.6084064648016 69.10551135847197 L 1444.4332219793332 69.17866786914732 L 1444.2564279692972 69.25102880536058 L 1444.078042113947 69.3225869310784 L 1443.8980822517199 69.39333509054786 L 1443.7165663784517 69.46326620901198 L 1443.5335126455789 69.53237329341717 L 1443.3489393583218 69.60064943311258 L 1443.1628649738557 69.66808780054113 L 1442.9753080994637 69.7346816519223 L 1442.786287490677 69.80042432792644 L 1442.5958220493992 69.86530925434072 L 1442.4039308220154 69.92932994272657 L 1442.2106329974886 69.9924799910685 L 1442.01594790544 70.05475308441433 L 1441.8198950142169 70.1161429955066 L 1441.6224939289448 70.17664358540536 L 1441.4237643895676 70.23624880410202 L 1441.2237262688739 70.29495269112441 L 1441.022399570509 70.35274937613272 L 1440.8198044269748 70.40963307950663 L 1440.6159610976172 70.46559811292322 L 1440.4108899665987 70.52063887992576 L 1440.204611540862 70.57474987648341 L 1439.9971464480777 70.62792569154163 L 1439.788515434582 70.68016100756323 L 1439.5787393633025 70.73145060106012 L 1439.3678392116715 70.78178934311569 L 1439.1558360695285 70.8311721998977 L 1438.9427511370109 70.8795942331616 L 1438.7286057224344 70.92705060074444 L 1438.5134212401622 70.973536557049 L 1438.297219208463 71.01904745351838 L 1438.0800212473598 71.06357873910088 L 1437.8618490764677 71.10712596070502 L 1437.6427245128223 71.14968476364494 L 1437.422669468697 71.19125089207583 L 1437.2017059494128 71.23182018941947 L 1436.9798560511379 71.27138859877994 L 1436.7571419586768 71.30995216334925 L 1436.5335859432535 71.34750702680313 L 1436.3092103602828 71.38404943368649 L 1436.0840376471365 71.4195757297891 L 1435.858090320898 71.45408236251096 L 1435.631390976112 71.48756588121756 L 1435.4039622825235 71.52002293758491 L 1435.1758269828129 71.55145028593446 L 1434.9470078903194 71.58184478355753 L 1434.7175278867621 71.61120339102969 L 1434.48740991995 71.63952317251467 L 1434.256677001488 71.66680129605793 L 1434.0253522044757 71.69303503386982 L 1433.7934586611998 71.71822176259843 L 1433.5610195608217 71.7423589635919 L 1433.3280581470576 71.7654442231502 L 1433.0945977158547 71.78747523276665 L 1432.8606616130617 71.80844978935863 L 1432.6262732320938 71.82836579548797 L 1432.3914560115938 71.84722125957065 L 1432.1562334330881 71.86501429607597 L 1431.9206290186385 71.8817431257151 L 1431.6846663284903 71.89740607561903 L 1431.4483689587155 71.91200157950583 L 1431.2117605388544 71.92552817783725 L 1430.9748647295519 71.93798451796474 L 1430.7377052201914 71.94936935426468 L 1430.5003057265262 71.95968154826289 L 1430.2626899883078 71.96892006874862 L 1430.0248817669121 71.97708399187748 L 1429.7869048429632 71.98417250126396 L 1429.5487830139548 71.99018488806304 L 1429.3105400918714 71.99512055104105 L 1429.0721999008072 71.99897899663581 L 1428.833786274582 72.00175983900598 L 1428.5953230543605 72.00346280006961 L 1428.3568340862653 72.00408770953204 L 1428.1183432189948 72.00363450490285 L 1427.879874301437 72.0021032315021 L 1427.6414511802848 71.99949404245586 L 1427.4030976976517 71.9958071986809 L 1427.1648376886874 71.99104306885846 L 1426.926694979194 71.98520212939759 L 1426.6886933832443 71.97828496438737 L 1426.4508567007995 71.97029226553852 L 1426.2132087153295 71.96122483211428 L 1425.975773191435 71.95108357085043 L 1425.7385738724704 71.93986949586466 L 1425.50163447817 71.92758372855508 L 1425.2649787022756 71.91422749748824 L 1425.0286302101679 71.89980213827607 L 1424.792612636499 71.8843090934425 L 1424.5569495828292 71.86774991227908 L 1424.3216646152682 71.85012625069015 L 1424.0867812621161 71.83143987102717 L 1423.852323011513 71.81169264191253 L 1423.6183133090879 71.79088653805269 L 1423.3847755556167 71.7690236400407 L 1423.1517331046796 71.74610613414815 L 1422.919209260328 71.72213631210651 L 1422.687227274752 71.69711657087802 L 1422.4558103459574 71.67104941241597 L 1422.224981615444 71.64393744341446 L 1421.9947641658923 71.6157833750478 L 1421.7651810188559 71.58659002269937 L 1421.5362551324577 71.55636030568009 L 1421.3080093990957 71.52509724693644 L 1421.080466643153 71.49280397274828 L 1420.8536496187157 71.45948371241609 L 1420.627581007297 71.42513979793813 L 1420.40228341557 71.38977566367726 L 1420.1777793731062 71.35339484601741 L 1419.9540913301223 71.31600098301004 L 1419.7312416552363 71.27759781401028 L 1419.5092526332303 71.23818917930303 L 1419.288146462821 71.19777901971894 L 1419.0679452544418 71.15637137624027 L 1418.8486710280295 71.11397038959687 L 1418.6303457108243 71.07058029985207 L 1418.412991135176 71.02620544597868 L 1418.196629036361 70.98085026542512 L 1417.9812810504086 70.93451929367163 L 1417.7669687119383 70.8872171637768 L 1417.5537134520052 70.8389486059142 L 1417.3415365959577 70.78971844689937 L 1417.1304593613045 70.7395316097072 L 1416.9205028555932 70.6883931129796 L 1416.7116880742992 70.6363080705236 L 1416.504035898727 70.58328169080006 L 1416.2975670939206 70.52931927640276 L 1416.092302306589 70.47442622352818 L 1415.8882620630395 70.41860802143584 L 1415.6854667671266 70.36187025189946 L 1415.483936698211 70.3042185886487 L 1415.283692009131 70.24565879680183 L 1415.0847527241897 70.18619673228926 L 1414.887138737149 70.12583834126788 L 1414.690869809243 70.06458965952649 L 1414.4959655672012 70.00245681188221 L 1414.302445501285 69.93944601156807 L 1414.1103289633404 69.87556355961155 L 1413.9196351648607 69.81081584420461 L 1413.7303831750667 69.74520934006487 L 1413.5425919189997 69.67875060778805 L 1413.356280175629 69.61144629319199 L 1413.1714665759737 69.54330312665208 L 1412.9881696012396 69.47432792242817 L 1412.8064075809714 69.40452757798322 L 1412.6261986912198 69.3339090732935 L 1412.4475609527235 69.26247947015062 L 1412.2705122291077 69.19024591145539 L 1412.0950702250968 69.11721562050347 L 1411.9212524847453 69.0433959002631 L 1411.7490763896824 68.96879413264479 L 1411.5785591573742 68.89341777776313 L 1411.4097178394015 68.81727437319081 L 1411.2425693197556 68.74037153320482 L 1411.0771303131492 68.66271694802508 L 1410.9134173633452 68.58431838304537 L 1410.7514468415018 68.5051836780569 L 1410.5912349445364 68.4253207464642 L 1410.4327976935053 68.34473757449386 L 1410.2761509320017 68.26344222039596 L 1410.1213103245707 68.18144281363814 L 1409.9682913551444 68.09874755409275 L 1409.817109325492 68.01536471121685 L 1409.6677793536908 67.9313026232252 L 1409.5203163726133 67.84656969625658 L 1409.3747351284348 67.76117440353308 L 1409.2310501791583 67.67512528451279 L 1409.089275893159 67.5884309440359 L 1408.9494264477476 67.50110005146425 L 1408.811515827752 67.41314133981427 L 1408.6755578241189 67.32456360488388 L 1408.541566032536 67.23537570437271 L 1408.40955385207 67.14558655699653 L 1408.2795344838298 67.05520514159522 L 1408.1515209296433 66.96424049623502 L 1408.0255259907594 66.87270171730466 L 1407.901562266567 66.78059795860575 L 1407.7796421533353 66.68793843043741 L 1407.6597778429739 66.59473239867523 L 1407.5419813218139 66.50098918384472 L 1407.4262643694094 66.40671816018926 L 1407.3126385573594 66.31192875473263 L 1407.2011152481498 66.2166304463364 L 1407.0917055940192 66.120832764752 L 1406.9844205358415 66.02454528966774 L 1406.8792708020333 65.92777764975091 L 1406.7762669074802 65.83053952168484 L 1406.675419152486 65.73284062920132 L 1406.5767376217418 65.63469074210818 L 1406.480232183319 65.53609967531233 L 1406.3859124876803 65.4370772878383 L 1406.2937879667174 65.33763348184232 L 1406.2038678328054 65.23777820162212 L 1406.1161610778822 65.13752143262249 L 1406.030676472551 65.03687320043682 L 1405.9474225652007 64.93584356980442 L 1405.8664076811529 64.83444264360419 L 1405.787639921828 64.73268056184422 L 1405.7111271639367 64.63056750064791 L 1405.636877058691 64.52811367123628 L 1405.5648970310392 64.42532931890689 L 1405.4951942789246 64.32222472200931 L 1405.427775772564 64.21881019091732 L 1405.362648253752 64.11509606699785 L 1405.2998182351862 64.01109272157687 L 1405.239291999816 63.90681055490224 L 1405.1810756002146 63.80225999510374 L 1405.1251748579732 63.697451497150205 L 1405.0715953631197 63.59239554180411 L 1405.0203424735591 63.48710263457343 L 1404.971421314537 63.381583304661156 L 1404.9248367781295 63.27584810391234 L 1404.8805935227504 63.16990760575894 L 1404.838695972689 63.06377240416249 L 1404.7991483176652 62.95745311255472 L 1404.7619545124116 62.85096036277616 L 1404.7271182762777 62.744304804013076 L 1404.694643092858 62.63749710173245 L 1404.664532209644 62.530547936615505 L 1404.6367886376988 62.423468003489624 L 1404.6114151513564 62.316268010258895 L 1404.5884142879445 62.208958676833305 L 1404.56778834753 62.10155073405677 L 1404.54953939269 61.99405492263407 L 1404.5336692483045 61.88648199205676 L 1404.520179501375 61.77884269952825 L 1404.5090715008648 61.6711478088881 L 1404.5003463575647 61.56340808953563 L 1404.4940049439817 61.45563431535299 L 1404.490047894252 61.34783726362778 L 1404.4884756040774 61.24002771397536 L 1404.4892882306854 61.13221644726084 L 1404.492485692814 61.02441424452105 L 1404.4980676707196 60.916631885886424 L 1404.5060336062093 60.808880149503025 L 1404.516382702696 60.70116981045468 L 1404.5291139252788 60.59351163968555 L 1404.544226000846 60.48591640292299 L 1404.5617174182025 60.378394859601016 L 1404.5815864282213 60.27095776178435 L 1404.603831044018 60.163615853093255 L 1404.6284490411495 60.05637986762915 L 1404.6554379578365 59.949260528901206 L 1404.68479509521 59.84226854875404 L 1404.7165175175803 59.7354146262965 L 1404.7506020527321 59.62870944683179 L 1404.7870452922402 59.52216368078894 L 1404.825843591811 59.41578798265577 L 1404.8669930716467 59.30959298991343 L 1404.9104896168337 59.203589321972714 L 1404.9563288777538 59.09778757911208 L 1405.004506270519 58.992198341417634 L 1405.0550169774301 58.88683216772516 L 1405.1078559474588 58.78169959456423 L 1405.1630178967519 58.67681113510454 L 1405.2204973091605 58.57217727810464 L 1405.2802884367914 58.46780848686303 L 1405.3423853005813 58.36371519817185 L 1405.4067816908957 58.25990782127324 L 1405.4734711681494 58.15639673681838 L 1405.5424470634503 58.053192295829454 L 1405.613702479266 57.950304818664556 L 1405.6872302901147 57.84774459398567 L 1405.7630231432763 57.745521877729786 L 1405.8410734595288 57.64364689208335 L 1405.9213734339055 57.54212982446004 L 1406.003915036476 57.44098082648201 L 1406.0886900131488 57.340210012964775 L 1406.1756898864967 57.2398274609057 L 1406.2649059566052 57.13984320847635 L 1406.356329301941 57.040267254018644 L 1406.4499507802466 56.94110955504505 L 1406.5457610294518 56.84238002724283 L 1406.6437504686114 56.74408854348249 L 1406.7439092988632 56.646244932830506 L 1406.8462275044076 56.54885897956639 L 1406.9506948535095 56.45194042220433 L 1407.057300899521 56.35549895251929 L 1407.1660349819263 56.25954421457787 L 1407.2768862274077 56.16408580377391 L 1407.389843550933 56.06913326586893 L 1407.504895656864 55.974696096037604 L 1407.622031040086 55.88078373791821 L 1407.7412379871587 55.7874055826683 L 1407.862504577486 55.694570968025594 L 1407.9858186845104 55.60228917737418 L 1408.111167976924 55.51056943881623 L 1408.2385399199015 55.41942092424918 L 1408.3679217763554 55.328852748448504 L 1408.4993006082075 55.23887396815633 L 1408.632663277684 55.14949358117568 L 1408.7679964486294 55.0607205254708 L 1408.9052865878393 54.97256367827326 L 1409.044519966414 54.88503185519433 L 1409.185682661132 54.79813380934336 L 1409.3287605558412 54.71187823045254 L 1409.4737393428713 54.62627374400786 L 1409.6206045244646 54.541328910386646 L 1409.7693414142252 54.45705222400146 L 1409.9199351385882 54.373452112450714 L 1410.0723706383064 54.290536935675895 L 1410.2266326699573 54.20831498512558 L 1410.382705807466 54.12679448292632 L 1410.540574443649 54.0459835810604 L 1410.7002227917737 53.965890360550645 L 1410.861634887139 53.88652283065238 L 1411.0247945886692 53.80788892805245 L 1411.189685580531 53.72999651607559 L 1411.356291373762 53.652853383898076 L 1411.5245953079216 53.57646724576885 L 1411.6945805527569 53.50084574023808 L 1411.8662301098852 53.42599642939328 L 1412.0395268144935 53.35192679810317 L 1412.214453337056 53.278644253269164 L 1412.3909921850661 53.20615612308466 L 1412.5691257047863 53.13446965630228 L 1412.7488360830127 53.06359202150896 L 1412.9301053488578 52.99353030640911 L 1413.1129153755455 52.924291517115876 L 1413.2972478822257 52.85588257745046 L 1413.4830844358014 52.78831032824984 L 1413.6704064527719 52.72158152668263 L 1413.859195201092 52.65570284557336 L 1414.0494318020437 52.590680872735255 L 1414.2410972321259 52.52652211031142 L 1414.434172324955 52.463232974124615 L 1414.6286377731826 52.40081979303573 L 1414.824474130426 52.33928880831086 L 1415.021661813213 52.278646172997206 L 1415.2201811029393 52.21889795130775 L 1415.4200121478411 52.160050118014894 L 1415.6211349649811 52.1021085578529 L 1415.8235294422448 52.045079064929524 L 1416.0271753403529 51.98896734214652 L 1416.2320522948858 51.933779000629414 L 1416.4381398183184 51.87951955916637 L 1416.6454173020704 51.826194443656306 L 1416.853864018566 51.77380898656634 L 1417.063459123307 51.72236842639853 L 1417.274181656958 51.67187790716602 L 1417.486010547441 51.622342477878675 L 1417.6989246120436 51.57376709203812 L 1417.9129025595366 51.526156607142475 L 1418.1279229923039 51.47951578420055 L 1418.343964408481 51.43384928725578 L 1418.5610052041068 51.38916168291979 L 1418.779023675282 51.34545743991578 L 1418.9979980203416 51.302740928631636 L 1419.2179063420333 51.261016420682886 L 1419.4387266497085 51.220288088485546 L 1419.66043686152 51.18056000483891 L 1419.883014806632 51.14183614251822 L 1420.106438227435 51.10412037387746 L 1420.3306847817732 51.06741647046204 L 1420.5557320451783 51.03172810263173 L 1420.781557513111 50.99705883919358 L 1421.008138603213 50.96341214704502 L 1421.235452657564 50.930791390827245 L 1421.4634769449483 50.899199832588685 L 1421.6921886631267 50.86864063145883 L 1421.9215649411183 50.83911684333235 L 1422.1515828414863 50.81063142056343 L 1422.3822193626324 50.78318721167063 L 1422.613451441097 50.75678696105195 L 1422.8452559538644 50.731433308710464 L 1423.0776097206767 50.70712878999027 L 1423.310489506351 50.683875835323 L 1423.5438720231025 50.66167676998473 L 1423.777733932874 50.6405338138635 L 1424.01205184967 50.6204490812373 L 1424.2468023418935 50.60142458056266 L 1424.481961934691 50.583462214273794 L 1424.7175071122995 50.566563778592354 L 1424.953414320397 50.55073096334783 L 1425.1896599684599 50.53596535180856 L 1425.4262204321196 50.52226842052339 L 1425.6630720555274 50.50964153917403 L 1425.900191153718 50.49808597043808 L 1426.1375540149795 50.48760286986282 L 1426.3751369032232 50.47819328574954 L 1426.6129160603587 50.46985815904882 L 1426.850867708668 50.462598323266384 L 1427.0889680531848 50.456414504379765 L 1427.3271932840728 50.45130732076569 L 1427.5655195790077 50.44727728313828 L 1427.8039231055589 50.444324794497916 L 1428.0423800235717 50.44245015009101 L 1428.2808664875536 50.44165353738045 L 1428.5193586490566 50.44193503602685 L 1428.7578326590635 50.443294617880554 L 1428.9962646703718 50.445732146984525 L 1429.2346308399792 50.44924737958788 L 1429.4729073314677 50.45383996417029 L 1429.711070317386 50.459509441477124 L 1429.9490959816346 50.46625524456538 L 1430.186960521845 50.474076698860365 L 1430.4246401517619 50.48297302222316 L 1430.6621111036197 50.49294332502887 L 1430.8993496305218 50.50398661025549 L 1431.1363320088128 50.51610177358371 L 1431.3730345404524 50.52928760350731 L 1431.6094335553846 50.54354278145426 L 1431.8455054139051 50.55886588191867 L 1432.0812265090249 50.575255372603245 L 1432.3165732688306 50.592709614572584 L 1432.5515221588423 50.61122686241703 L 1432.7860496843673 50.630805264427224 L 1433.020132392848 50.651442862779284 L 1433.2537468762087 50.67313759373059 L 1433.4868697731958 50.695887287826096 L 1433.7194777717139 50.71968967011537 L 1433.951547611157 50.74454236038002 L 1434.1830560847345 50.77044287337172 L 1434.4139800417918 50.797388619060754 L 1434.644296390126 50.825376902895016 L 1434.873982098294 50.85440492606945 L 1435.1030141979163 50.88446978580591 L 1435.331369785974 50.9155684756435 L 1435.5590260270985 50.947697885739125 L 1435.7859601558553 50.980854803178566 L 1436.0121494790208 51.01503591229771 L 1436.2375713778508 51.05023779501413 L 1436.462203310344 51.08645693116888 L 1436.6860228134935 51.12368969887854 L 1436.909007505536 51.16193237489736 L 1437.131135088188 51.201181134989596 L 1437.3523833488766 51.241432054311964 L 1437.5727301629597 51.28268110780607 L 1437.7921534959396 51.32492417060092 L 1438.0106314056661 51.368157018425464 L 1438.22814204453 51.41237532803093 L 1438.4446636616487 51.45757467762322 L 1438.6601746050412 51.503750547305025 L 1438.8746533237925 51.55089831952786 L 1439.0880783702094 51.5990132795538 L 1439.3004284019653 51.64809061592693 L 1439.511682184234 51.69812542095451 L 1439.7218185918132 51.749112691197745 L 1439.9308166112373 51.801047327972086 L 1440.1386553428783 51.85392413785714 L 1440.3453140030367 51.90773783321599 L 1440.5507719260183 51.962483032723924 L 1440.7550085662024 52.01815426190663 L 1440.9580035000947 52.07474595368758 L 1441.1597364283714 52.132252448944755 L 1441.3601871779074 52.190667997076545 L 1441.559335703795 52.24998675657682 L 1441.7571620913477 52.310202795619055 L 1441.9536465580914 52.371310092649544 L 1442.148769455743 52.43330253698949 L 1442.3425112721757 52.49617392944612 L 1442.5348526333692 52.559917982932596 L 1442.7257743053476 52.62452832309667 L 1442.9152571961029 52.68999848895818 L 1443.1032823575038 52.7563219335551 L 1443.2898309871907 52.823492024598224 L 1443.4748844304565 52.89150204513444 L 1443.6584241821108 52.960345194218355 L 1443.8404318883315 53.03001458759244 L 1444.0208893484994 53.10050325837541 L 1444.1997785170192 53.171804157758935 L 1444.3770815051232 53.243910155712484 L 1444.5527805826598 53.31681404169635 L 1444.7268581798683 53.39050852538269 L 1444.8992968891334 53.46498623738456 L 1445.0700794667284 53.5402397299928 L 1445.2391888345378 53.61626147792087 L 1445.4066080817654 53.69304387905734 L 1445.5723204666263 53.770579255226075 L 1445.73630941802 53.848859852954064 L 1445.898558537188 53.92787784424677 L 1446.0590515993536 54.00762532737092 L 1446.2177725553443 54.08809432764465 L 1446.374705533197 54.16927679823499 L 1446.5298348397444 54.251164620962534 L 1446.683144962185 54.33374960711325 L 1446.8346205696348 54.41702349825734 L 1446.984246514659 54.500977967075094 L 1447.1320078347878 54.58560461818958 L 1447.2778897540122 54.670894989006214 L 1447.4218776842622 54.75684055055899 L 1447.5639572268642 54.84343270836337 L 1447.704114173983 54.93066280327574 L 1447.8423345100402 55.0185221123593 L 1447.9786044131176 55.107001849756344 L 1448.1129102563384 55.196093167566886 L 1448.2452386092302 55.28578715673337 L 1448.3755762390679 55.37607484793163 L 1448.5039101121972 55.46694721246779 L 1448.630227395338 55.55839516318112 L 1448.7545154568666 55.65040955535275 L 1448.876761868081 55.742981187620146 L 1448.9969544044418 55.83610080289723 L 1449.1150810467952 55.92975908930006 L 1449.231129982576 56.02394668107806 L 1449.345089606987 56.11865415955053 L 1449.4569485241605 56.213872054048544 L 1449.5666955482984 56.30959084286201 L 1449.6743197047895 56.405800954191804 L 1449.779810231308 56.50249276710697 L 1449.8831565788892 56.5996566125068 L 1449.984348412984 56.69728277408771 L 1450.083375614494 56.79536148931491 L 1450.180228280781 56.89388295039859 L 1450.2748967266593 56.99283730527477 L 1450.3673714853633 57.09221465859041 L 1450.457643309494 57.19200507269298 L 1450.5457031719443 57.29219856862425 L 1450.6315422668015 57.39278512711811 L 1450.7151520102273 57.49375468960253 L 1450.7965240413173 57.59509715920541 L 1450.8756502229362 57.69680240176424 L 1450.9525226425317 57.79886024683951 L 1451.0271336129258 57.90126048873177 L 1451.0994756730838 58.003992887502164 L 1451.16954158886 58.10704716999642 L 1451.237324353721 58.21041303087217 L 1451.302817189447 58.31408013362946 L 1451.366013546809 58.41803811164441 L 1451.4269071062236 58.52227656920584 L 1451.485491778386 58.62678508255487 L 1451.5417617048777 58.731553200927245 L 1451.595711258753 58.83657044759845 L 1451.647335045101 58.94182632093131 L 1451.696627901587 59.04731029542622 L 1451.7435848989653 59.153011822773635 L 1451.7882013415763 59.25892033290889 L 1451.8304727678124 59.36502523506925 L 1451.8703949505662 59.471315918852895 L 1451.9079638976527 59.57778175528004 L 1451.943175852209 59.684412097855756 L 1451.9760272930682 59.79119628363465 L 1452.006514935114 59.89812363428712 L 1452.0346357296078 60.005183457167206 L 1452.0603868644932 60.11236504638185 L 1452.0837657646782 60.21965768386144 L 1452.1047700922927 60.327050640431644 L 1452.1233977469208 60.43453317688629 L 1452.1396468658131 60.5420945450613 L 1452.153515824071 60.6497239889095 L 1452.1650032348102 60.757410745576195 L 1452.1741079492995 60.86514404647545 L 1452.1808290570746 60.972913118366954 L 1452.1851658860307 61.08070718443333 L 1452.1871180024882 61.188515465357796 M 1452.1872389925443 95.52678387991818 L 1452.1860465326406 95.6345944248348 L 1452.1824692721746 95.74239418878678 L 1452.176507568869 95.85017239188754 L 1452.16816201889 95.95791825640659 L 1452.1574334567847 96.06562100784727 L 1452.1443229554009 96.1732698760242 L 1452.1288318257775 96.28085409614023 L 1452.110961617015 96.38836290986303 L 1452.090714116119 96.49578556640084 L 1452.0680913478227 96.60311132357748 L 1452.0430955743843 96.7103294489067 L 1452.0157292953604 96.8174292206653 L 1451.9859952473557 96.92439992896537 L 1451.9538964037506 97.0312308768252 L 1451.9194359744024 97.13791138123905 L 1451.8826174053256 97.24443077424536 L 1451.8434443783465 97.35077840399362 L 1451.8019208107346 97.45694363580944 L 1451.7580508548126 97.56291585325815 L 1451.7118388975393 97.66868445920629 L 1451.663289560072 97.77423887688141 L 1451.612407697304 97.8795685509297 L 1451.5591983973789 97.98466294847155 L 1451.5036669811827 98.08951156015478 L 1451.4458190018108 98.19410390120557 L 1451.3856602440126 98.29842951247699 L 1451.3231967236138 98.40247796149485 L 1451.2584346869148 98.50623884350097 L 1451.1913806100647 98.60970178249359 L 1451.1220411984157 98.71285643226504 L 1451.0504233858512 98.81569247743631 L 1450.9765343340925 98.91819963448859 L 1450.9003814319833 99.02036765279156 L 1450.8219722947506 99.12218631562857 L 1450.7413147632426 99.22364544121817 L 1450.658416903145 99.32473488373233 L 1450.5732870041752 99.42544453431107 L 1450.4859335792519 99.52576432207324 L 1450.3963653636447 99.62568421512367 L 1450.3045913141004 99.72519422155631 L 1450.2106206079482 99.82428439045346 L 1450.1144626421797 99.92294481288079 L 1450.0161270325113 100.02116562287829 L 1449.9156236124227 100.11893699844678 L 1449.8129624321714 100.2162491625302 L 1449.7081537577903 100.31309238399325 L 1449.6012080700596 100.40945697859446 L 1449.4921360634587 100.50533330995468 L 1449.3809486450973 100.60071179052068 L 1449.2676569336247 100.69558288252388 L 1449.1522722581178 100.78993709893413 L 1449.0348061569478 100.88376500440843 L 1448.915270376627 100.97705721623441 L 1448.7936768706336 101.06980440526866 L 1448.6700377982172 101.16199729686952 L 1448.5443655231818 101.25362667182469 L 1448.4166726126502 101.34468336727302 L 1448.2869718358074 101.43515827762084 L 1448.1552761626224 101.52504235545253 L 1448.0215987625531 101.61432661243519 L 1447.8859530032282 101.70300212021755 L 1447.7483524491104 101.7910600113227 L 1447.6088108601405 101.87849148003492 L 1447.4673421903613 101.9652877832802 L 1447.3239605865215 102.05144024150056 L 1447.178680386662 102.13694023952193 L 1447.0315161186825 102.22177922741581 L 1446.8824824988862 102.30594872135407 L 1446.7315944305114 102.38944030445748 L 1446.5788670022391 102.47224562763729 L 1446.4243154866847 102.5543564104302 L 1446.2679553388712 102.63576444182635 L 1446.109802194683 102.71646158109044 L 1445.9498718693028 102.79643975857579 L 1445.7881803556295 102.8756909765313 L 1445.62474382268 102.95420730990122 L 1445.4595786139716 103.03198090711763 L 1445.2927012458874 103.10900399088564 L 1445.124128406025 103.18526885896105 L 1444.9538769515277 103.2607678849206 L 1444.7819639073996 103.33549351892461 L 1444.6084064648016 103.40943828847196 L 1444.4332219793332 103.48259479914732 L 1444.2564279692972 103.55495573536056 L 1444.078042113947 103.6265138610784 L 1443.8980822517199 103.69726202054787 L 1443.7165663784517 103.76719313901197 L 1443.5335126455789 103.83630022341715 L 1443.3489393583218 103.90457636311257 L 1443.1628649738557 103.97201473054113 L 1442.9753080994637 104.03860858192229 L 1442.786287490677 104.10435125792642 L 1442.5958220493992 104.1692361843407 L 1442.4039308220154 104.23325687272656 L 1442.2106329974886 104.29640692106851 L 1442.01594790544 104.35868001441433 L 1441.8198950142169 104.4200699255066 L 1441.6224939289448 104.48057051540535 L 1441.4237643895676 104.54017573410202 L 1441.2237262688739 104.5988796211244 L 1441.022399570509 104.65667630613272 L 1440.8198044269748 104.71356000950664 L 1440.6159610976172 104.7695250429232 L 1440.4108899665987 104.82456580992574 L 1440.204611540862 104.87867680648341 L 1439.9971464480777 104.93185262154162 L 1439.788515434582 104.98408793756322 L 1439.5787393633025 105.0353775310601 L 1439.3678392116715 105.08571627311568 L 1439.1558360695285 105.13509912989768 L 1438.9427511370109 105.1835211631616 L 1438.7286057224344 105.23097753074444 L 1438.5134212401622 105.27746348704899 L 1438.297219208463 105.32297438351839 L 1438.0800212473598 105.36750566910086 L 1437.8618490764677 105.41105289070501 L 1437.6427245128223 105.45361169364494 L 1437.422669468697 105.49517782207583 L 1437.2017059494128 105.53574711941947 L 1436.9798560511379 105.57531552877992 L 1436.7571419586768 105.61387909334925 L 1436.5335859432535 105.65143395680312 L 1436.3092103602828 105.68797636368647 L 1436.0840376471365 105.72350265978909 L 1435.858090320898 105.75800929251095 L 1435.631390976112 105.79149281121755 L 1435.4039622825235 105.82394986758491 L 1435.1758269828129 105.85537721593445 L 1434.9470078903194 105.88577171355752 L 1434.7175278867621 105.9151303210297 L 1434.48740991995 105.94345010251467 L 1434.256677001488 105.97072822605791 L 1434.0253522044757 105.99696196386981 L 1433.7934586611998 106.02214869259844 L 1433.5610195608217 106.04628589359189 L 1433.3280581470576 106.0693711531502 L 1433.0945977158547 106.09140216276666 L 1432.8606616130617 106.11237671935864 L 1432.6262732320938 106.13229272548797 L 1432.3914560115938 106.15114818957065 L 1432.1562334330881 106.16894122607596 L 1431.9206290186385 106.1856700557151 L 1431.6846663284903 106.20133300561903 L 1431.4483689587155 106.21592850950582 L 1431.2117605388544 106.22945510783724 L 1430.9748647295519 106.24191144796474 L 1430.7377052201914 106.25329628426466 L 1430.5003057265262 106.2636084782629 L 1430.2626899883078 106.2728469987486 L 1430.0248817669121 106.28101092187747 L 1429.7869048429632 106.28809943126396 L 1429.5487830139548 106.29411181806304 L 1429.3105400918714 106.29904748104106 L 1429.0721999008072 106.30290592663582 L 1428.833786274582 106.30568676900597 L 1428.5953230543605 106.30738973006962 L 1428.3568340862653 106.30801463953205 L 1428.1183432189948 106.30756143490284 L 1427.879874301437 106.3060301615021 L 1427.6414511802848 106.30342097245587 L 1427.4030976976517 106.29973412868088 L 1427.1648376886874 106.29496999885845 L 1426.926694979194 106.28912905939758 L 1426.6886933832443 106.28221189438736 L 1426.4508567007995 106.27421919553852 L 1426.2132087153295 106.26515176211427 L 1425.975773191435 106.25501050085043 L 1425.7385738724704 106.24379642586464 L 1425.50163447817 106.23151065855508 L 1425.2649787022756 106.21815442748823 L 1425.0286302101679 106.20372906827606 L 1424.792612636499 106.1882360234425 L 1424.5569495828292 106.17167684227908 L 1424.3216646152682 106.15405318069014 L 1424.0867812621161 106.13536680102716 L 1423.852323011513 106.11561957191253 L 1423.6183133090879 106.09481346805269 L 1423.3847755556167 106.0729505700407 L 1423.1517331046796 106.05003306414814 L 1422.919209260328 106.0260632421065 L 1422.687227274752 106.00104350087803 L 1422.4558103459574 105.97497634241597 L 1422.224981615444 105.94786437341445 L 1421.9947641658923 105.9197103050478 L 1421.7651810188559 105.89051695269937 L 1421.5362551324577 105.86028723568009 L 1421.3080093990957 105.82902417693644 L 1421.080466643153 105.79673090274827 L 1420.8536496187157 105.76341064241608 L 1420.627581007297 105.72906672793813 L 1420.40228341557 105.69370259367726 L 1420.1777793731062 105.6573217760174 L 1419.9540913301223 105.61992791301003 L 1419.7312416552363 105.58152474401028 L 1419.5092526332303 105.54211610930304 L 1419.288146462821 105.50170594971894 L 1419.0679452544418 105.46029830624026 L 1418.8486710280295 105.41789731959686 L 1418.6303457108243 105.37450722985206 L 1418.412991135176 105.33013237597868 L 1418.196629036361 105.28477719542511 L 1417.9812810504086 105.23844622367163 L 1417.7669687119383 105.1911440937768 L 1417.5537134520052 105.14287553591419 L 1417.3415365959577 105.09364537689936 L 1417.1304593613045 105.0434585397072 L 1416.9205028555932 104.99232004297959 L 1416.7116880742992 104.9402350005236 L 1416.504035898727 104.88720862080007 L 1416.2975670939206 104.83324620640276 L 1416.092302306589 104.77835315352817 L 1415.8882620630395 104.72253495143585 L 1415.6854667671266 104.66579718189945 L 1415.483936698211 104.60814551864868 L 1415.283692009131 104.54958572680184 L 1415.0847527241897 104.49012366228926 L 1414.887138737149 104.42976527126788 L 1414.690869809243 104.36851658952648 L 1414.4959655672012 104.30638374188221 L 1414.302445501285 104.24337294156805 L 1414.1103289633404 104.17949048961154 L 1413.9196351648607 104.11474277420461 L 1413.7303831750667 104.04913627006486 L 1413.5425919189997 103.98267753778805 L 1413.356280175629 103.91537322319199 L 1413.1714665759737 103.84723005665208 L 1412.9881696012396 103.77825485242818 L 1412.8064075809714 103.70845450798322 L 1412.6261986912198 103.63783600329349 L 1412.4475609527235 103.56640640015061 L 1412.2705122291077 103.49417284145538 L 1412.0950702250968 103.42114255050346 L 1411.9212524847453 103.3473228302631 L 1411.7490763896824 103.27272106264479 L 1411.5785591573742 103.19734470776314 L 1411.4097178394015 103.1212013031908 L 1411.2425693197556 103.04429846320481 L 1411.0771303131492 102.96664387802507 L 1410.9134173633452 102.88824531304537 L 1410.7514468415018 102.8091106080569 L 1410.5912349445364 102.72924767646418 L 1410.4327976935053 102.64866450449387 L 1410.2761509320017 102.56736915039596 L 1410.1213103245707 102.48536974363815 L 1409.9682913551444 102.40267448409276 L 1409.817109325492 102.31929164121684 L 1409.6677793536908 102.2352295532252 L 1409.5203163726133 102.15049662625658 L 1409.3747351284348 102.06510133353308 L 1409.2310501791583 101.97905221451278 L 1409.089275893159 101.89235787403591 L 1408.9494264477476 101.80502698146424 L 1408.811515827752 101.71706826981428 L 1408.6755578241189 101.62849053488388 L 1408.541566032536 101.53930263437272 L 1408.40955385207 101.44951348699652 L 1408.2795344838298 101.35913207159521 L 1408.1515209296433 101.26816742623502 L 1408.0255259907594 101.17662864730465 L 1407.901562266567 101.08452488860574 L 1407.7796421533353 100.9918653604374 L 1407.6597778429739 100.89865932867522 L 1407.5419813218139 100.80491611384473 L 1407.4262643694094 100.71064509018925 L 1407.3126385573594 100.61585568473262 L 1407.2011152481498 100.5205573763364 L 1407.0917055940192 100.424759694752 L 1406.9844205358415 100.32847221966773 L 1406.8792708020333 100.2317045797509 L 1406.7762669074802 100.13446645168483 L 1406.675419152486 100.03676755920131 L 1406.5767376217418 99.93861767210817 L 1406.480232183319 99.84002660531232 L 1406.3859124876803 99.7410042178383 L 1406.2937879667174 99.64156041184232 L 1406.2038678328054 99.54170513162211 L 1406.1161610778822 99.4414483626225 L 1406.030676472551 99.34080013043682 L 1405.9474225652007 99.23977049980442 L 1405.8664076811529 99.13836957360418 L 1405.787639921828 99.03660749184422 L 1405.7111271639367 98.9344944306479 L 1405.636877058691 98.83204060123627 L 1405.5648970310392 98.72925624890688 L 1405.4951942789246 98.6261516520093 L 1405.427775772564 98.52273712091731 L 1405.362648253752 98.41902299699785 L 1405.2998182351862 98.31501965157686 L 1405.239291999816 98.21073748490224 L 1405.1810756002146 98.10618692510373 L 1405.1251748579732 98.0013784271502 L 1405.0715953631197 97.89632247180411 L 1405.0203424735591 97.79102956457344 L 1404.971421314537 97.68551023466115 L 1404.9248367781295 97.57977503391233 L 1404.8805935227504 97.47383453575894 L 1404.838695972689 97.3676993341625 L 1404.7991483176652 97.2613800425547 L 1404.7619545124116 97.15488729277617 L 1404.7271182762777 97.04823173401307 L 1404.694643092858 96.94142403173245 L 1404.664532209644 96.8344748666155 L 1404.6367886376988 96.72739493348962 L 1404.6114151513564 96.6201949402589 L 1404.5884142879445 96.51288560683331 L 1404.56778834753 96.40547766405678 L 1404.54953939269 96.29798185263407 L 1404.5336692483045 96.19040892205675 L 1404.520179501375 96.08276962952824 L 1404.5090715008648 95.9750747388881 L 1404.5003463575647 95.86733501953563 L 1404.4940049439817 95.75956124535298 L 1404.490047894252 95.65176419362778 L 1404.4884756040774 95.54395464397535" stroke-miterlimit="10" stroke-width="2.7769845610000004" stroke-dasharray=""/></g><g><g/><text fill="black" stroke="none" font-family="sans-serif" font-size="11pt" font-style="normal" font-weight="normal" text-decoration="normal" x="1362.740155406966" y="123.83569119881818" text-anchor="start" dominant-baseline="alphabetic" xml:space="preserve">Amenities Database</text></g></g><g><path fill="white" stroke="black" paint-order="fill stroke markers" d=" M 464.77125623059896 182.64242307881818 L 481.10645953059895 182.64242307881818 L 481.10645953059895 773.976782538818 L 464.77125623059896 773.976782538818 L 464.77125623059896 182.64242307881818" stroke-miterlimit="10" stroke-width="1.3612669416666667" stroke-dasharray=""/><path fill="white" stroke="black" paint-order="fill stroke markers" d=" M 1089.7520341537108 274.1195615588182 L 1106.087237453711 274.1195615588182 L 1106.087237453711 682.4996440588181 L 1089.7520341537108 682.4996440588181 L 1089.7520341537108 274.1195615588182" stroke-miterlimit="10" stroke-width="1.3612669416666667" stroke-dasharray=""/><path fill="white" stroke="black" paint-order="fill stroke markers" d=" M 1420.1702405245442 319.8581307988182 L 1436.5054438245443 319.8581307988182 L 1436.5054438245443 636.7610748188182 L 1420.1702405245442 636.7610748188182 L 1420.1702405245442 319.8581307988182" stroke-miterlimit="10" stroke-width="1.3612669416666667" stroke-dasharray=""/><path fill="white" stroke="black" paint-order="fill stroke markers" d=" M 464.77125623059896 844.218156728818 L 481.10645953059895 844.218156728818 L 481.10645953059895 889.956725968818 L 464.77125623059896 889.956725968818 L 464.77125623059896 844.218156728818" stroke-miterlimit="10" stroke-width="1.3612669416666667" stroke-dasharray=""/><path fill="white" stroke="black" paint-order="fill stroke markers" d=" M 464.77125623059896 889.956725968818 L 481.10645953059895 889.956725968818 L 481.10645953059895 935.6952952088179 L 464.77125623059896 935.6952952088179 L 464.77125623059896 889.956725968818" stroke-miterlimit="10" stroke-width="1.3612669416666667" stroke-dasharray=""/><path fill="white" stroke="black" paint-order="fill stroke markers" d=" M 464.77125623059896 935.6952952088179 L 481.10645953059895 935.6952952088179 L 481.10645953059895 1977.8812657488188 L 464.77125623059896 1977.8812657488188 L 464.77125623059896 935.6952952088179" stroke-miterlimit="10" stroke-width="1.3612669416666667" stroke-dasharray=""/><path fill="white" stroke="black" paint-order="fill stroke markers" d=" M 1089.7520341537108 1027.1724336888178 L 1106.087237453711 1027.1724336888178 L 1106.087237453711 1886.4041272688187 L 1089.7520341537108 1886.4041272688187 L 1089.7520341537108 1027.1724336888178" stroke-miterlimit="10" stroke-width="1.3612669416666667" stroke-dasharray=""/><path fill="white" stroke="black" paint-order="fill stroke markers" d=" M 1420.1702405245442 1432.285475528818 L 1436.5054438245443 1432.285475528818 L 1436.5054438245443 1749.1884195488185 L 1420.1702405245442 1749.1884195488185 L 1420.1702405245442 1432.285475528818" stroke-miterlimit="10" stroke-width="1.3612669416666667" stroke-dasharray=""/><path fill="white" stroke="black" paint-order="fill stroke markers" d=" M 1420.1702405245442 1794.9269887888186 L 1436.5054438245443 1794.9269887888186 L 1436.5054438245443 1840.6655580288186 L 1420.1702405245442 1840.6655580288186 L 1420.1702405245442 1794.9269887888186" stroke-miterlimit="10" stroke-width="1.3612669416666667" stroke-dasharray=""/><g><text fill="black" stroke="none" font-family="sans-serif" font-size="16pt" font-style="normal" font-weight="normal" text-decoration="normal" x="716.1740341186523" y="24.651306798181814" text-anchor="start" dominant-baseline="alphabetic" xml:space="preserve">Amenities</text></g><g><rect fill="white" stroke="none" x="174.6388720883659" y="161.4066587888182" width="205.3371302038672" height="21.23576429"/><text fill="black" stroke="none" font-family="sans-serif" font-size="11pt" font-style="normal" font-weight="normal" text-decoration="normal" x="177.0891525833659" y="176.10834175881817" text-anchor="start" dominant-baseline="alphabetic" xml:space="preserve">(1) Requests to view amenities</text></g><g><path fill="none" stroke="black" paint-order="fill stroke markers" d=" M 89.84361815 182.64242307881818 L 451.3219388469323 182.64242307881818" stroke-miterlimit="10" stroke-width="1.3612669416666667" stroke-dasharray=""/><g transform="translate(464.77125623059896,182.64242307881818) translate(-464.77125623059896,-182.64242307881818)"><path fill="black" stroke="none" paint-order="stroke fill markers" d=" M 451.1585868139323 175.83608837048484 L 464.77125623059896 182.64242307881818 L 451.1585868139323 189.44875778715152 Z"/></g></g><g><rect fill="white" stroke="none" x="548.9475356125195" y="207.1452280288182" width="207.77806343140625" height="21.23576429"/><text fill="black" stroke="none" font-family="sans-serif" font-size="11pt" font-style="normal" font-weight="normal" text-decoration="normal" x="551.3978161075195" y="221.84691099881817" text-anchor="start" dominant-baseline="alphabetic" xml:space="preserve">(2) Request for list of amenities</text></g><g><path fill="none" stroke="black" paint-order="fill stroke markers" d=" M 481.10645953059895 228.3809923188182 L 811.1173577421797 228.3809923188182" stroke-miterlimit="10" stroke-width="1.3612669416666667" stroke-dasharray=""/><g transform="translate(824.5666751258464,228.3809923188182) translate(-824.5666751258464,-228.3809923188182)"><path fill="black" stroke="none" paint-order="stroke fill markers" d=" M 810.9540057091797 221.57465761048485 L 824.5666751258464 228.3809923188182 L 810.9540057091797 235.18732702715153 Z"/></g></g><g><rect fill="white" stroke="none" x="847.9732571892122" y="252.88379726881823" width="218.37219490113281" height="21.23576429"/><text fill="black" stroke="none" font-family="sans-serif" font-size="11pt" font-style="normal" font-weight="normal" text-decoration="normal" x="850.4235376842122" y="267.5854802388182" text-anchor="start" dominant-baseline="alphabetic" xml:space="preserve">(3) Route to Amenities Controller</text></g><g><path fill="none" stroke="black" paint-order="fill stroke markers" d=" M 824.5666751258464 274.1195615588182 L 1076.302716770044 274.1195615588182" stroke-miterlimit="10" stroke-width="1.3612669416666667" stroke-dasharray=""/><g transform="translate(1089.7520341537108,274.1195615588182) translate(-1089.7520341537108,-274.1195615588182)"><path fill="black" stroke="none" paint-order="stroke fill markers" d=" M 1076.1393647370442 267.31322685048485 L 1089.7520341537108 274.1195615588182 L 1076.1393647370442 280.92589626715153 Z"/></g></g><g><rect fill="white" stroke="none" x="1185.7250206889519" y="298.6223665088182" width="154.80743660035156" height="21.23576429"/><text fill="black" stroke="none" font-family="sans-serif" font-size="11pt" font-style="normal" font-weight="normal" text-decoration="normal" x="1188.175301183952" y="313.32404947881815" text-anchor="start" dominant-baseline="alphabetic" xml:space="preserve">(4) Query for amenities</text></g><g><path fill="none" stroke="black" paint-order="fill stroke markers" d=" M 1106.087237453711 319.8581307988182 L 1406.7209231408774 319.8581307988182" stroke-miterlimit="10" stroke-width="1.3612669416666667" stroke-dasharray=""/><g transform="translate(1420.1702405245442,319.8581307988182) translate(-1420.1702405245442,-319.8581307988182)"><path fill="black" stroke="none" paint-order="stroke fill markers" d=" M 1406.5575711078775 313.05179609048486 L 1420.1702405245442 319.8581307988182 L 1406.5575711078775 326.66446550715153 Z"/></g></g><g><rect fill="white" stroke="none" x="1180.8288186015495" y="388.4659846588182" width="164.59984077515625" height="21.23576429"/><text fill="black" stroke="none" font-family="sans-serif" font-size="11pt" font-style="normal" font-weight="normal" text-decoration="normal" x="1183.2790990965495" y="403.16766762881815" text-anchor="start" dominant-baseline="alphabetic" xml:space="preserve">(5) Return null amenities</text></g><g><path fill="none" stroke="black" paint-order="fill stroke markers" d=" M 1420.1702405245442 409.7017489488182 L 1119.5365548373777 409.7017489488182" stroke-miterlimit="10" stroke-width="1.3612669416666667" stroke-dasharray="6.53408132"/><g transform="translate(1106.087237453711,409.7017489488182) translate(-1106.087237453711,-409.7017489488182)"><path fill="black" stroke="none" paint-order="stroke fill markers" d=" M 1119.6999068703776 402.89541424048485 L 1106.087237453711 409.7017489488182 L 1119.6999068703776 416.50808365715153 Z"/></g></g><g><rect fill="white" stroke="none" x="885.8544141105989" y="434.2045538988182" width="142.60988105835938" height="21.23576429"/><text fill="black" stroke="none" font-family="sans-serif" font-size="11pt" font-style="normal" font-weight="normal" text-decoration="normal" x="888.3046946055989" y="448.90623686881816" text-anchor="start" dominant-baseline="alphabetic" xml:space="preserve">(6) Return 404 status</text></g><g><path fill="none" stroke="black" paint-order="fill stroke markers" d=" M 1089.7520341537108 455.4403181888182 L 838.015992509513 455.4403181888182" stroke-miterlimit="10" stroke-width="1.3612669416666667" stroke-dasharray="6.53408132"/><g transform="translate(824.5666751258464,455.4403181888182) translate(-824.5666751258464,-455.4403181888182)"><path fill="black" stroke="none" paint-order="stroke fill markers" d=" M 838.179344542513 448.63398348048486 L 824.5666751258464 455.4403181888182 L 838.179344542513 462.24665289715153 Z"/></g></g><g><rect fill="white" stroke="none" x="583.1636992477734" y="479.9431231388182" width="139.34573616089844" height="21.23576429"/><text fill="black" stroke="none" font-family="sans-serif" font-size="11pt" font-style="normal" font-weight="normal" text-decoration="normal" x="585.6139797427734" y="494.64480610881816" text-anchor="start" dominant-baseline="alphabetic" xml:space="preserve">(7) Return response </text></g><g><path fill="none" stroke="black" paint-order="fill stroke markers" d=" M 824.5666751258464 501.1788874288182 L 494.5557769142656 501.1788874288182" stroke-miterlimit="10" stroke-width="1.3612669416666667" stroke-dasharray="6.53408132"/><g transform="translate(481.10645953059895,501.1788874288182) translate(-481.10645953059895,-501.1788874288182)"><path fill="black" stroke="none" paint-order="stroke fill markers" d=" M 494.71912894726563 494.37255272048486 L 481.10645953059895 501.1788874288182 L 494.71912894726563 507.98522213715154 Z"/></g></g><g><rect fill="white" stroke="none" x="150.28670686619793" y="525.6816923788182" width="254.04146064820313" height="21.23576429"/><text fill="black" stroke="none" font-family="sans-serif" font-size="11pt" font-style="normal" font-weight="normal" text-decoration="normal" x="152.73698736119792" y="540.3833753488182" text-anchor="start" dominant-baseline="alphabetic" xml:space="preserve">(8) Display error "Amenities not found"</text></g><g><path fill="none" stroke="black" paint-order="fill stroke markers" d=" M 464.77125623059896 546.9174566688182 L 103.29293553366666 546.9174566688182" stroke-miterlimit="10" stroke-width="1.3612669416666667" stroke-dasharray="6.53408132"/><g transform="translate(89.84361815,546.9174566688182) translate(-89.84361815,-546.9174566688182)"><path fill="black" stroke="none" paint-order="stroke fill markers" d=" M 103.45628756666666 540.1111219604849 L 89.84361815 546.9174566688182 L 103.45628756666666 553.7237913771515 Z"/></g></g><g><rect fill="white" stroke="none" x="1177.9726937236198" y="615.5253105288182" width="170.31209053101563" height="21.23576429"/><text fill="black" stroke="none" font-family="sans-serif" font-size="11pt" font-style="normal" font-weight="normal" text-decoration="normal" x="1180.4229742186199" y="630.2269934988182" text-anchor="start" dominant-baseline="alphabetic" xml:space="preserve">(5) Return amenities data</text></g><g><path fill="none" stroke="black" paint-order="fill stroke markers" d=" M 1420.1702405245442 636.7610748188182 L 1119.5365548373777 636.7610748188182" stroke-miterlimit="10" stroke-width="1.3612669416666667" stroke-dasharray="6.53408132"/><g transform="translate(1106.087237453711,636.7610748188182) translate(-1106.087237453711,-636.7610748188182)"><path fill="black" stroke="none" paint-order="stroke fill markers" d=" M 1119.6999068703776 629.9547401104849 L 1106.087237453711 636.7610748188182 L 1119.6999068703776 643.5674095271515 Z"/></g></g><g><rect fill="white" stroke="none" x="885.8544141105989" y="661.2638797688181" width="142.60988105835938" height="21.23576429"/><text fill="black" stroke="none" font-family="sans-serif" font-size="11pt" font-style="normal" font-weight="normal" text-decoration="normal" x="888.3046946055989" y="675.9655627388181" text-anchor="start" dominant-baseline="alphabetic" xml:space="preserve">(6) Return 200 status</text></g><g><path fill="none" stroke="black" paint-order="fill stroke markers" d=" M 1089.7520341537108 682.4996440588181 L 838.015992509513 682.4996440588181" stroke-miterlimit="10" stroke-width="1.3612669416666667" stroke-dasharray="6.53408132"/><g transform="translate(824.5666751258464,682.4996440588181) translate(-824.5666751258464,-682.4996440588181)"><path fill="black" stroke="none" paint-order="stroke fill markers" d=" M 838.179344542513 675.6933093504848 L 824.5666751258464 682.4996440588181 L 838.179344542513 689.3059787671515 Z"/></g></g><g><rect fill="white" stroke="none" x="583.1636992477734" y="707.0024490088181" width="139.34573616089844" height="21.23576429"/><text fill="black" stroke="none" font-family="sans-serif" font-size="11pt" font-style="normal" font-weight="normal" text-decoration="normal" x="585.6139797427734" y="721.704131978818" text-anchor="start" dominant-baseline="alphabetic" xml:space="preserve">(7) Return response </text></g><g><path fill="none" stroke="black" paint-order="fill stroke markers" d=" M 824.5666751258464 728.2382132988181 L 494.5557769142656 728.2382132988181" stroke-miterlimit="10" stroke-width="1.3612669416666667" stroke-dasharray="6.53408132"/><g transform="translate(481.10645953059895,728.2382132988181) translate(-481.10645953059895,-728.2382132988181)"><path fill="black" stroke="none" paint-order="stroke fill markers" d=" M 494.71912894726563 721.4318785904848 L 481.10645953059895 728.2382132988181 L 494.71912894726563 735.0445480071514 Z"/></g></g><g><rect fill="white" stroke="none" x="195.42627900975262" y="752.741018248818" width="163.76231636109375" height="21.23576429"/><text fill="black" stroke="none" font-family="sans-serif" font-size="11pt" font-style="normal" font-weight="normal" text-decoration="normal" x="197.8765595047526" y="767.442701218818" text-anchor="start" dominant-baseline="alphabetic" xml:space="preserve">(8) Display amenities list</text></g><g><path fill="none" stroke="black" paint-order="fill stroke markers" d=" M 464.77125623059896 773.976782538818 L 103.29293553366666 773.976782538818" stroke-miterlimit="10" stroke-width="1.3612669416666667" stroke-dasharray="6.53408132"/><g transform="translate(89.84361815,773.976782538818) translate(-89.84361815,-773.976782538818)"><path fill="black" stroke="none" paint-order="stroke fill markers" d=" M 103.45628756666666 767.1704478304847 L 89.84361815 773.976782538818 L 103.45628756666666 780.7831172471514 Z"/></g></g><g><rect fill="white" stroke="none" x="162.5093097104362" y="822.982392438818" width="229.59625495972656" height="21.23576429"/><text fill="black" stroke="none" font-family="sans-serif" font-size="11pt" font-style="normal" font-weight="normal" text-decoration="normal" x="164.9595902054362" y="837.684075408818" text-anchor="start" dominant-baseline="alphabetic" xml:space="preserve">(9) Clicks "Update Amenity" button</text></g><g><path fill="none" stroke="black" paint-order="fill stroke markers" d=" M 89.84361815 844.218156728818 L 451.3219388469323 844.218156728818" stroke-miterlimit="10" stroke-width="1.3612669416666667" stroke-dasharray=""/><g transform="translate(464.77125623059896,844.218156728818) translate(-464.77125623059896,-844.218156728818)"><path fill="black" stroke="none" paint-order="stroke fill markers" d=" M 451.1585868139323 837.4118220204847 L 464.77125623059896 844.218156728818 L 451.1585868139323 851.0244914371514 Z"/></g></g><g><rect fill="white" stroke="none" x="150.58375734227215" y="868.720961678818" width="253.4473596960547" height="21.23576429"/><text fill="black" stroke="none" font-family="sans-serif" font-size="11pt" font-style="normal" font-weight="normal" text-decoration="normal" x="153.03403783727214" y="883.4226446488179" text-anchor="start" dominant-baseline="alphabetic" xml:space="preserve">(10) Show Update Amenity dashboard</text></g><g><path fill="none" stroke="black" paint-order="fill stroke markers" d=" M 464.77125623059896 889.956725968818 L 103.29293553366666 889.956725968818" stroke-miterlimit="10" stroke-width="1.3612669416666667" stroke-dasharray=""/><g transform="translate(89.84361815,889.956725968818) translate(-89.84361815,-889.956725968818)"><path fill="black" stroke="none" paint-order="stroke fill markers" d=" M 103.45628756666666 883.1503912604846 L 89.84361815 889.956725968818 L 103.45628756666666 896.7630606771513 Z"/></g></g><g><rect fill="white" stroke="none" x="109.17360872166667" y="914.4595309188179" width="336.2676569372656" height="21.23576429"/><text fill="black" stroke="none" font-family="sans-serif" font-size="11pt" font-style="normal" font-weight="normal" text-decoration="normal" x="111.62388921666667" y="929.1612138888179" text-anchor="start" dominant-baseline="alphabetic" xml:space="preserve">(11) Update specified amenity with new information</text></g><g><path fill="none" stroke="black" paint-order="fill stroke markers" d=" M 89.84361815 935.6952952088179 L 451.3219388469323 935.6952952088179" stroke-miterlimit="10" stroke-width="1.3612669416666667" stroke-dasharray=""/><g transform="translate(464.77125623059896,935.6952952088179) translate(-464.77125623059896,-935.6952952088179)"><path fill="black" stroke="none" paint-order="stroke fill markers" d=" M 451.1585868139323 928.8889605004846 L 464.77125623059896 935.6952952088179 L 451.1585868139323 942.5016299171513 Z"/></g></g><g><rect fill="white" stroke="none" x="500.43645010226555" y="960.1981001588179" width="304.8002497107031" height="21.23576429"/><text fill="black" stroke="none" font-family="sans-serif" font-size="11pt" font-style="normal" font-weight="normal" text-decoration="normal" x="502.88673059726557" y="974.8997831288178" text-anchor="start" dominant-baseline="alphabetic" xml:space="preserve">(12) Sends request with updated amenity data</text></g><g><path fill="none" stroke="black" paint-order="fill stroke markers" d=" M 481.10645953059895 981.4338644488179 L 811.1173577421797 981.4338644488179" stroke-miterlimit="10" stroke-width="1.3612669416666667" stroke-dasharray=""/><g transform="translate(824.5666751258464,981.4338644488179) translate(-824.5666751258464,-981.4338644488179)"><path fill="black" stroke="none" paint-order="stroke fill markers" d=" M 810.9540057091797 974.6275297404845 L 824.5666751258464 981.4338644488179 L 810.9540057091797 988.2401991571512 Z"/></g></g><g><rect fill="white" stroke="none" x="843.896665697513" y="1005.9366693988178" width="226.52537788453125" height="21.23576429"/><text fill="black" stroke="none" font-family="sans-serif" font-size="11pt" font-style="normal" font-weight="normal" text-decoration="normal" x="846.346946192513" y="1020.6383523688178" text-anchor="start" dominant-baseline="alphabetic" xml:space="preserve">(13) Route to Amenities Controller</text></g><g><path fill="none" stroke="black" paint-order="fill stroke markers" d=" M 824.5666751258464 1027.1724336888178 L 1076.302716770044 1027.1724336888178" stroke-miterlimit="10" stroke-width="1.3612669416666667" stroke-dasharray=""/><g transform="translate(1089.7520341537108,1027.1724336888178) translate(-1089.7520341537108,-1027.1724336888178)"><path fill="black" stroke="none" paint-order="stroke fill markers" d=" M 1076.1393647370442 1020.3660989804845 L 1089.7520341537108 1027.1724336888178 L 1076.1393647370442 1033.978768397151 Z"/></g></g><g><rect fill="white" stroke="none" x="1125.4172280253777" y="1051.6752386388177" width="185.53039802613281" height="21.23576429"/><text fill="black" stroke="none" font-family="sans-serif" font-size="11pt" font-style="normal" font-weight="normal" text-decoration="normal" x="1127.8675085203777" y="1066.3769216088178" text-anchor="start" dominant-baseline="alphabetic" xml:space="preserve">(14) Validate amenity object</text></g><g><path fill="none" stroke="black" paint-order="fill stroke markers" d=" M 1106.087237453711 1072.9110029288179 L 1171.428050653711 1072.9110029288179 L 1171.428050653711 1094.1467672188178 L 1119.5365548373777 1094.1467672188178" stroke-miterlimit="10" stroke-width="1.3612669416666667" stroke-dasharray=""/><g transform="translate(1106.087237453711,1094.1467672188178) translate(-1106.087237453711,-1094.1467672188178)"><path fill="black" stroke="none" paint-order="stroke fill markers" d=" M 1119.6999068703776 1087.3404325104846 L 1106.087237453711 1094.1467672188178 L 1119.6999068703776 1100.953101927151 Z"/></g></g><g><rect fill="white" stroke="none" x="867.117857103763" y="1162.754621078818" width="180.08299507203125" height="21.23576429"/><text fill="black" stroke="none" font-family="sans-serif" font-size="11pt" font-style="normal" font-weight="normal" text-decoration="normal" x="869.568137598763" y="1177.456304048818" text-anchor="start" dominant-baseline="alphabetic" xml:space="preserve">(15) Return validation error</text></g><g><path fill="none" stroke="black" paint-order="fill stroke markers" d=" M 1089.7520341537108 1183.990385368818 L 838.015992509513 1183.990385368818" stroke-miterlimit="10" stroke-width="1.3612669416666667" stroke-dasharray="6.53408132"/><g transform="translate(824.5666751258464,1183.990385368818) translate(-824.5666751258464,-1183.990385368818)"><path fill="black" stroke="none" paint-order="stroke fill markers" d=" M 838.179344542513 1177.1840506604847 L 824.5666751258464 1183.990385368818 L 838.179344542513 1190.7967200771511 Z"/></g></g><g><rect fill="white" stroke="none" x="581.1236144089062" y="1208.493190318818" width="143.42590583863281" height="21.23576429"/><text fill="black" stroke="none" font-family="sans-serif" font-size="11pt" font-style="normal" font-weight="normal" text-decoration="normal" x="583.5738949039062" y="1223.1948732888181" text-anchor="start" dominant-baseline="alphabetic" xml:space="preserve">(16) Return response</text></g><g><path fill="none" stroke="black" paint-order="fill stroke markers" d=" M 824.5666751258464 1229.728954608818 L 494.5557769142656 1229.728954608818" stroke-miterlimit="10" stroke-width="1.3612669416666667" stroke-dasharray="6.53408132"/><g transform="translate(481.10645953059895,1229.728954608818) translate(-481.10645953059895,-1229.728954608818)"><path fill="black" stroke="none" paint-order="stroke fill markers" d=" M 494.71912894726563 1222.9226199004847 L 481.10645953059895 1229.728954608818 L 494.71912894726563 1236.5352893171512 Z"/></g></g><g><rect fill="white" stroke="none" x="123.81213563817057" y="1254.231759558818" width="306.9905878454687" height="21.23576429"/><text fill="black" stroke="none" font-family="sans-serif" font-size="11pt" font-style="normal" font-weight="normal" text-decoration="normal" x="126.26241613317057" y="1268.9334425288182" text-anchor="start" dominant-baseline="alphabetic" xml:space="preserve">(17) Display error "Invalid amenity information"</text></g><g><path fill="none" stroke="black" paint-order="fill stroke markers" d=" M 464.77125623059896 1275.467523848818 L 103.29293553366666 1275.467523848818" stroke-miterlimit="10" stroke-width="1.3612669416666667" stroke-dasharray="6.53408132"/><g transform="translate(89.84361815,1275.467523848818) translate(-89.84361815,-1275.467523848818)"><path fill="black" stroke="none" paint-order="stroke fill markers" d=" M 103.45628756666666 1268.6611891404848 L 89.84361815 1275.467523848818 L 103.45628756666666 1282.2738585571512 Z"/></g></g><g><rect fill="white" stroke="none" x="1125.4172280253777" y="1344.075377708818" width="202.08728279175781" height="21.23576429"/><text fill="black" stroke="none" font-family="sans-serif" font-size="11pt" font-style="normal" font-weight="normal" text-decoration="normal" x="1127.8675085203777" y="1358.777060678818" text-anchor="start" dominant-baseline="alphabetic" xml:space="preserve">(17) Return validation success</text></g><g><path fill="none" stroke="black" paint-order="fill stroke markers" d=" M 1106.087237453711 1365.3111419988181 L 1171.428050653711 1365.3111419988181 L 1171.428050653711 1386.546906288818 L 1119.5365548373777 1386.546906288818" stroke-miterlimit="10" stroke-width="1.3612669416666667" stroke-dasharray=""/><g transform="translate(1106.087237453711,1386.546906288818) translate(-1106.087237453711,-1386.546906288818)"><path fill="black" stroke="none" paint-order="stroke fill markers" d=" M 1119.6999068703776 1379.7405715804848 L 1106.087237453711 1386.546906288818 L 1119.6999068703776 1393.3532409971513 Z"/></g></g><g><rect fill="white" stroke="none" x="1151.508857053698" y="1411.0497112388182" width="223.23976387085938" height="21.23576429"/><text fill="black" stroke="none" font-family="sans-serif" font-size="11pt" font-style="normal" font-weight="normal" text-decoration="normal" x="1153.959137548698" y="1425.7513942088183" text-anchor="start" dominant-baseline="alphabetic" xml:space="preserve">(18) Check if amenity exists by ID</text></g><g><path fill="none" stroke="black" paint-order="fill stroke markers" d=" M 1106.087237453711 1432.285475528818 L 1406.7209231408774 1432.285475528818" stroke-miterlimit="10" stroke-width="1.3612669416666667" stroke-dasharray=""/><g transform="translate(1420.1702405245442,1432.285475528818) translate(-1420.1702405245442,-1432.285475528818)"><path fill="black" stroke="none" paint-order="stroke fill markers" d=" M 1406.5575711078775 1425.4791408204849 L 1420.1702405245442 1432.285475528818 L 1406.5575711078775 1439.0918102371513 Z"/></g></g><g><rect fill="white" stroke="none" x="1163.298392576159" y="1500.8933293888183" width="199.6606928259375" height="21.23576429"/><text fill="black" stroke="none" font-family="sans-serif" font-size="11pt" font-style="normal" font-weight="normal" text-decoration="normal" x="1165.748673071159" y="1515.5950123588184" text-anchor="start" dominant-baseline="alphabetic" xml:space="preserve">(19) Return amenity not found</text></g><g><path fill="none" stroke="black" paint-order="fill stroke markers" d=" M 1420.1702405245442 1522.1290936788182 L 1119.5365548373777 1522.1290936788182" stroke-miterlimit="10" stroke-width="1.3612669416666667" stroke-dasharray="6.53408132"/><g transform="translate(1106.087237453711,1522.1290936788182) translate(-1106.087237453711,-1522.1290936788182)"><path fill="black" stroke="none" paint-order="stroke fill markers" d=" M 1119.6999068703776 1515.322758970485 L 1106.087237453711 1522.1290936788182 L 1119.6999068703776 1528.9354283871514 Z"/></g></g><g><rect fill="white" stroke="none" x="881.7778226188997" y="1546.6318986288184" width="150.76306404175781" height="21.23576429"/><text fill="black" stroke="none" font-family="sans-serif" font-size="11pt" font-style="normal" font-weight="normal" text-decoration="normal" x="884.2281031138997" y="1561.3335815988185" text-anchor="start" dominant-baseline="alphabetic" xml:space="preserve">(20) Return 404 status</text></g><g><path fill="none" stroke="black" paint-order="fill stroke markers" d=" M 1089.7520341537108 1567.8676629188183 L 838.015992509513 1567.8676629188183" stroke-miterlimit="10" stroke-width="1.3612669416666667" stroke-dasharray="6.53408132"/><g transform="translate(824.5666751258464,1567.8676629188183) translate(-824.5666751258464,-1567.8676629188183)"><path fill="black" stroke="none" paint-order="stroke fill markers" d=" M 838.179344542513 1561.061328210485 L 824.5666751258464 1567.8676629188183 L 838.179344542513 1574.6739976271515 Z"/></g></g><g><rect fill="white" stroke="none" x="579.0871077560741" y="1592.3704678688184" width="147.49891914429688" height="21.23576429"/><text fill="black" stroke="none" font-family="sans-serif" font-size="11pt" font-style="normal" font-weight="normal" text-decoration="normal" x="581.5373882510742" y="1607.0721508388185" text-anchor="start" dominant-baseline="alphabetic" xml:space="preserve">(21) Return response </text></g><g><path fill="none" stroke="black" paint-order="fill stroke markers" d=" M 824.5666751258464 1613.6062321588183 L 494.5557769142656 1613.6062321588183" stroke-miterlimit="10" stroke-width="1.3612669416666667" stroke-dasharray="6.53408132"/><g transform="translate(481.10645953059895,1613.6062321588183) translate(-481.10645953059895,-1613.6062321588183)"><path fill="black" stroke="none" paint-order="stroke fill markers" d=" M 494.71912894726563 1606.799897450485 L 481.10645953059895 1613.6062321588183 L 494.71912894726563 1620.4125668671516 Z"/></g></g><g><rect fill="white" stroke="none" x="151.9151934994987" y="1638.1090371088185" width="250.78448738160156" height="21.23576429"/><text fill="black" stroke="none" font-family="sans-serif" font-size="11pt" font-style="normal" font-weight="normal" text-decoration="normal" x="154.3654739944987" y="1652.8107200788186" text-anchor="start" dominant-baseline="alphabetic" xml:space="preserve">(22) Display error "Amenity not found"</text></g><g><path fill="none" stroke="black" paint-order="fill stroke markers" d=" M 464.77125623059896 1659.3448013988184 L 103.29293553366666 1659.3448013988184" stroke-miterlimit="10" stroke-width="1.3612669416666667" stroke-dasharray="6.53408132"/><g transform="translate(89.84361815,1659.3448013988184) translate(-89.84361815,-1659.3448013988184)"><path fill="black" stroke="none" paint-order="stroke fill markers" d=" M 103.45628756666666 1652.5384666904852 L 89.84361815 1659.3448013988184 L 103.45628756666666 1666.1511361071516 Z"/></g></g><g><rect fill="white" stroke="none" x="1179.6011803569206" y="1727.9526552588186" width="167.05511726441406" height="21.23576429"/><text fill="black" stroke="none" font-family="sans-serif" font-size="11pt" font-style="normal" font-weight="normal" text-decoration="normal" x="1182.0514608519206" y="1742.6543382288187" text-anchor="start" dominant-baseline="alphabetic" xml:space="preserve">(19) Return amenity data</text></g><g><path fill="none" stroke="black" paint-order="fill stroke markers" d=" M 1420.1702405245442 1749.1884195488185 L 1119.5365548373777 1749.1884195488185" stroke-miterlimit="10" stroke-width="1.3612669416666667" stroke-dasharray="6.53408132"/><g transform="translate(1106.087237453711,1749.1884195488185) translate(-1106.087237453711,-1749.1884195488185)"><path fill="black" stroke="none" paint-order="stroke fill markers" d=" M 1119.6999068703776 1742.3820848404853 L 1106.087237453711 1749.1884195488185 L 1119.6999068703776 1755.9947542571517 Z"/></g></g><g><rect fill="white" stroke="none" x="1125.4172280253777" y="1773.6912244988187" width="275.4230219275" height="21.23576429"/><text fill="black" stroke="none" font-family="sans-serif" font-size="11pt" font-style="normal" font-weight="normal" text-decoration="normal" x="1127.8675085203777" y="1788.3929074688187" text-anchor="start" dominant-baseline="alphabetic" xml:space="preserve">(20) Update amenity with new information</text></g><g><path fill="none" stroke="black" paint-order="fill stroke markers" d=" M 1106.087237453711 1794.9269887888186 L 1406.7209231408774 1794.9269887888186" stroke-miterlimit="10" stroke-width="1.3612669416666667" stroke-dasharray=""/><g transform="translate(1420.1702405245442,1794.9269887888186) translate(-1420.1702405245442,-1794.9269887888186)"><path fill="black" stroke="none" paint-order="stroke fill markers" d=" M 1406.5575711078775 1788.1206540804853 L 1420.1702405245442 1794.9269887888186 L 1406.5575711078775 1801.7333234971518 Z"/></g></g><g><rect fill="white" stroke="none" x="1167.371405881823" y="1819.4297937388187" width="191.51466621460938" height="21.23576429"/><text fill="black" stroke="none" font-family="sans-serif" font-size="11pt" font-style="normal" font-weight="normal" text-decoration="normal" x="1169.821686376823" y="1834.1314767088188" text-anchor="start" dominant-baseline="alphabetic" xml:space="preserve">(21) Return updated amenity</text></g><g><path fill="none" stroke="black" paint-order="fill stroke markers" d=" M 1420.1702405245442 1840.6655580288186 L 1119.5365548373777 1840.6655580288186" stroke-miterlimit="10" stroke-width="1.3612669416666667" stroke-dasharray="6.53408132"/><g transform="translate(1106.087237453711,1840.6655580288186) translate(-1106.087237453711,-1840.6655580288186)"><path fill="black" stroke="none" paint-order="stroke fill markers" d=" M 1119.6999068703776 1833.8592233204854 L 1106.087237453711 1840.6655580288186 L 1119.6999068703776 1847.4718927371518 Z"/></g></g><g><rect fill="white" stroke="none" x="881.7778226188997" y="1865.1683629788188" width="150.76306404175781" height="21.23576429"/><text fill="black" stroke="none" font-family="sans-serif" font-size="11pt" font-style="normal" font-weight="normal" text-decoration="normal" x="884.2281031138997" y="1879.8700459488189" text-anchor="start" dominant-baseline="alphabetic" xml:space="preserve">(22) Return 200 status</text></g><g><path fill="none" stroke="black" paint-order="fill stroke markers" d=" M 1089.7520341537108 1886.4041272688187 L 838.015992509513 1886.4041272688187" stroke-miterlimit="10" stroke-width="1.3612669416666667" stroke-dasharray="6.53408132"/><g transform="translate(824.5666751258464,1886.4041272688187) translate(-824.5666751258464,-1886.4041272688187)"><path fill="black" stroke="none" paint-order="stroke fill markers" d=" M 838.179344542513 1879.5977925604855 L 824.5666751258464 1886.4041272688187 L 838.179344542513 1893.210461977152 Z"/></g></g><g><rect fill="white" stroke="none" x="581.1236144089062" y="1910.9069322188188" width="143.42590583863281" height="21.23576429"/><text fill="black" stroke="none" font-family="sans-serif" font-size="11pt" font-style="normal" font-weight="normal" text-decoration="normal" x="583.5738949039062" y="1925.608615188819" text-anchor="start" dominant-baseline="alphabetic" xml:space="preserve">(23) Return response</text></g><g><path fill="none" stroke="black" paint-order="fill stroke markers" d=" M 824.5666751258464 1932.1426965088187 L 494.5557769142656 1932.1426965088187" stroke-miterlimit="10" stroke-width="1.3612669416666667" stroke-dasharray="6.53408132"/><g transform="translate(481.10645953059895,1932.1426965088187) translate(-481.10645953059895,-1932.1426965088187)"><path fill="black" stroke="none" paint-order="stroke fill markers" d=" M 494.71912894726563 1925.3363618004855 L 481.10645953059895 1932.1426965088187 L 494.71912894726563 1938.949031217152 Z"/></g></g><g><rect fill="white" stroke="none" x="179.51718324559246" y="1956.645501458819" width="195.58050788941406" height="21.23576429"/><text fill="black" stroke="none" font-family="sans-serif" font-size="11pt" font-style="normal" font-weight="normal" text-decoration="normal" x="181.96746374059245" y="1971.347184428819" text-anchor="start" dominant-baseline="alphabetic" xml:space="preserve">(24) Display updated amenity</text></g><g><path fill="none" stroke="black" paint-order="fill stroke markers" d=" M 464.77125623059896 1977.8812657488188 L 103.29293553366666 1977.8812657488188" stroke-miterlimit="10" stroke-width="1.3612669416666667" stroke-dasharray="6.53408132"/><g transform="translate(89.84361815,1977.8812657488188) translate(-89.84361815,-1977.8812657488188)"><path fill="black" stroke="none" paint-order="stroke fill markers" d=" M 103.45628756666666 1971.0749310404856 L 89.84361815 1977.8812657488188 L 103.45628756666666 1984.687600457152 Z"/></g></g><g><g/><path fill="none" stroke="black" paint-order="fill stroke markers" d=" M 32.6704066 344.3609357488182 L 1485.5110537245441 344.3609357488182 L 1485.5110537245441 798.4795874888181 L 32.6704066 798.4795874888181 L 32.6704066 344.3609357488182 Z" stroke-miterlimit="10" stroke-width="2.3336004714285714" stroke-dasharray=""/><path fill="white" stroke="black" paint-order="fill stroke markers" d=" M 32.6704066 344.3609357488182 L 32.6704066 363.9631797088182 L 79.02961019707031 363.9631797088182 L 88.83073217707032 354.1620577288182 L 88.83073217707032 344.3609357488182 L 32.6704066 344.3609357488182" stroke-miterlimit="10" stroke-width="2.3336004714285714" stroke-dasharray=""/><text fill="black" stroke="none" font-family="sans-serif" font-size="8.8pt" font-style="normal" font-weight="bold" text-decoration="normal" x="49.005609899999996" y="357.4290983888182" text-anchor="start" dominant-baseline="alphabetic" xml:space="preserve">alt</text><g><rect fill="white" stroke="none" x="102.71565498207032" y="345.6677520128182" width="146.96626533570313" height="16.988611432000003"/></g><text fill="black" stroke="none" font-family="sans-serif" font-size="8.8pt" font-style="normal" font-weight="bold" text-decoration="normal" x="105.16593547707032" y="357.4290983888182" text-anchor="start" dominant-baseline="alphabetic" xml:space="preserve">[Amenities are not found]</text><g><path fill="none" stroke="black" paint-order="fill stroke markers" d=" M 32.6704066 571.4202616188182 L 1485.5110537245441 571.4202616188182" stroke-miterlimit="10" stroke-width="2.3336004714285714" stroke-dasharray="4.083800825"/></g><g/><g><rect fill="white" stroke="none" x="102.71565498207032" y="572.7270778828182" width="125.47084297242188" height="16.988611432000003"/></g><text fill="black" stroke="none" font-family="sans-serif" font-size="8.8pt" font-style="normal" font-weight="bold" text-decoration="normal" x="105.16593547707032" y="584.4884242588182" text-anchor="start" dominant-baseline="alphabetic" xml:space="preserve">[Amenities are found]</text></g><g/><g><g/><path fill="none" stroke="black" paint-order="fill stroke markers" d=" M 16.335203300000003 1118.649572168818 L 1501.8462570245442 1118.649572168818 L 1501.8462570245442 2026.8868756488187 L 16.335203300000003 2026.8868756488187 L 16.335203300000003 1118.649572168818 Z" stroke-miterlimit="10" stroke-width="2.3336004714285714" stroke-dasharray=""/><path fill="white" stroke="black" paint-order="fill stroke markers" d=" M 16.335203300000003 1118.649572168818 L 16.335203300000003 1138.2518161288178 L 62.694406897070316 1138.2518161288178 L 72.49552887707031 1128.450694148818 L 72.49552887707031 1118.649572168818 L 16.335203300000003 1118.649572168818" stroke-miterlimit="10" stroke-width="2.3336004714285714" stroke-dasharray=""/><text fill="black" stroke="none" font-family="sans-serif" font-size="8.8pt" font-style="normal" font-weight="bold" text-decoration="normal" x="32.67040660000001" y="1131.7177348088178" text-anchor="start" dominant-baseline="alphabetic" xml:space="preserve">alt</text><g><rect fill="white" stroke="none" x="86.38045168207032" y="1119.956388432818" width="94.84569038453125" height="16.988611432000003"/></g><text fill="black" stroke="none" font-family="sans-serif" font-size="8.8pt" font-style="normal" font-weight="bold" text-decoration="normal" x="88.83073217707032" y="1131.7177348088178" text-anchor="start" dominant-baseline="alphabetic" xml:space="preserve">[Validation fails]</text><g><path fill="none" stroke="black" paint-order="fill stroke markers" d=" M 16.335203300000003 1299.9703287988182 L 1501.8462570245442 1299.9703287988182" stroke-miterlimit="10" stroke-width="2.3336004714285714" stroke-dasharray="4.083800825"/></g><g/><g><rect fill="white" stroke="none" x="86.38045168207032" y="1301.2771450628181" width="111.15774787964844" height="16.988611432000003"/></g><text fill="black" stroke="none" font-family="sans-serif" font-size="8.8pt" font-style="normal" font-weight="bold" text-decoration="normal" x="88.83073217707032" y="1313.038491438818" text-anchor="start" dominant-baseline="alphabetic" xml:space="preserve">[Validation passes]</text></g><g/><g><g/><path fill="none" stroke="black" paint-order="fill stroke markers" d=" M 32.6704066 1456.7882804788183 L 1485.5110537245441 1456.7882804788183 L 1485.5110537245441 2002.3840706988187 L 32.6704066 2002.3840706988187 L 32.6704066 1456.7882804788183 Z" stroke-miterlimit="10" stroke-width="2.3336004714285714" stroke-dasharray=""/><path fill="white" stroke="black" paint-order="fill stroke markers" d=" M 32.6704066 1456.7882804788183 L 32.6704066 1476.3905244388181 L 79.02961019707031 1476.3905244388181 L 88.83073217707032 1466.5894024588183 L 88.83073217707032 1456.7882804788183 L 32.6704066 1456.7882804788183" stroke-miterlimit="10" stroke-width="2.3336004714285714" stroke-dasharray=""/><text fill="black" stroke="none" font-family="sans-serif" font-size="8.8pt" font-style="normal" font-weight="bold" text-decoration="normal" x="49.005609899999996" y="1469.856443118818" text-anchor="start" dominant-baseline="alphabetic" xml:space="preserve">alt</text><g><rect fill="white" stroke="none" x="102.71565498207032" y="1458.0950967428182" width="116.31251777710938" height="16.988611432000003"/></g><text fill="black" stroke="none" font-family="sans-serif" font-size="8.8pt" font-style="normal" font-weight="bold" text-decoration="normal" x="105.16593547707032" y="1469.856443118818" text-anchor="start" dominant-baseline="alphabetic" xml:space="preserve">[Amenity not found]</text><g><path fill="none" stroke="black" paint-order="fill stroke markers" d=" M 32.6704066 1683.8476063488185 L 1485.5110537245441 1683.8476063488185" stroke-miterlimit="10" stroke-width="2.3336004714285714" stroke-dasharray="4.083800825"/></g><g/><g><rect fill="white" stroke="none" x="102.71565498207032" y="1685.1544226128185" width="94.81709541382813" height="16.988611432000003"/></g><text fill="black" stroke="none" font-family="sans-serif" font-size="8.8pt" font-style="normal" font-weight="bold" text-decoration="normal" x="105.16593547707032" y="1696.9157689888184" text-anchor="start" dominant-baseline="alphabetic" xml:space="preserve">[Amenity found]</text></g><g/></g><g/><g/><g/></g></svg>