<svg xmlns="http://www.w3.org/2000/svg" xmlns:xlink="http://www.w3.org/1999/xlink" version="1.1" width="1726.1059706497397" height="2467.937364748818"><desc>title%20Incident%20Reports%0A%0Aactor%20Staff%0Aparticipant%20%22Staff%20Front-end%22%20as%20StaffFrontend%0Aparticipant%20NGINX%0Aparticipant%20%22Incident%20Reports%20Controller%22%20as%20IncidentReportsController%0Adatabase%20Incident%20Reports%20Database%0A%0AStaff%20-%3E%20StaffFrontend%20%3A%20(1)%20Requests%20to%20view%20incident%20reports%0Aactivate%20StaffFrontend%0AStaffFrontend%20-%3E%20NGINX%20%3A%20(2)%20Request%20for%20list%20of%20incident%20reports%0A%0ANGINX%20-%3E%20IncidentReportsController%20%3A%20(3)%20Route%20to%20Incident%20Reports%20Controller%0Aactivate%20IncidentReportsController%0A%0AIncidentReportsController%20-%3E%20Incident%20Reports%20Database%20%3A%20(4)%20Query%20for%20incident%20reports%0Aactivate%20Incident%20Reports%20Database%0A%0Aalt%20Incident%20reports%20are%20not%20found%0A%20%20%20%20Incident%20Reports%20Database%20--%3E%20IncidentReportsController%3A%20(5)%20Return%20null%20incident%20reports%0A%20%20%20%20IncidentReportsController%20--%3E%20NGINX%20%3A%20(6)%20Return%20404%20status%0A%0A%20%20%20%20NGINX%20--%3E%20StaffFrontend%20%3A%20(7)%20Return%20response%20%0A%20%20%20%20StaffFrontend%20--%3E%20Staff%20%3A%20(8)%20Display%20error%20%22Incident%20reports%20not%20found%22%0Aelse%20Incident%20reports%20are%20found%0A%20%20%20%20Incident%20Reports%20Database%20--%3E%20IncidentReportsController%20%3A%20(5)%20Return%20incident%20reports%20data%0A%20%20%20%20deactivate%20Incident%20Reports%20Database%0A%0A%20%20%20%20IncidentReportsController%20--%3E%20NGINX%20%3A%20(6)%20Return%20200%20status%0A%20%20%20%20deactivate%20IncidentReportsController%0A%0A%20%20%20%20NGINX%20--%3E%20StaffFrontend%20%3A%20(7)%20Return%20response%20%0A%20%20%20%20StaffFrontend%20--%3E%20Staff%20%3A%20(8)%20Display%20incident%20reports%20list%0A%20%20%20%20deactivate%20StaffFrontend%0Aend%0A%0AStaff%20-%3E%20StaffFrontend%20%3A%20(9)%20Clicks%20%22Update%20Incident%20Report%22%20button%0Aactivate%20StaffFrontend%0AStaffFrontend%20-%3E%20Staff%20%3A%20(10)%20Show%20Update%20Incident%20Report%20dashboard%0Adeactivate%20StaffFrontend%0Aactivate%20StaffFrontend%0A%0AStaff%20-%3E%20StaffFrontend%20%3A%20(11)%20Update%20specified%20incident%20report%20with%20new%20information%0Adeactivate%20StaffFrontend%0Aactivate%20StaffFrontend%0A%0AStaffFrontend%20-%3E%20NGINX%20%3A%20(12)%20Sends%20request%20with%20updated%20incident%20report%20data%0A%0ANGINX%20-%3E%20IncidentReportsController%20%3A%20(13)%20Route%20to%20Incident%20Reports%20Controller%0Aactivate%20IncidentReportsController%0A%0AIncidentReportsController%20-%3E%20IncidentReportsController%20%3A%20(14)%20Convert%20JSON%20to%20Incident%20Report%20object%0A%0Aalt%20JSON%20conversion%20fails%0A%20%20%20%20IncidentReportsController%20--%3E%20NGINX%20%3A%20(15)%20Return%20400%0A%20%20%20%20NGINX%20--%3E%20StaffFrontend%20%3A%20(16)%20Return%20response%0A%20%20%20%20StaffFrontend%20--%3E%20Staff%20%3A%20(17)%20Display%20error%20%22Invalid%20incident%20report%20information%22%0Aelse%20JSON%20conversion%20succeeds%0A%20%20%20%20IncidentReportsController%20-%3E%20IncidentReportsController%3A%20(15)%20Return%20new%20Incident%20Report%20object%0A%0A%20%20%20%20IncidentReportsController%20-%3E%20IncidentReportsController%20%3A%20(16)%20Validate%20incident%20report%20object%0A%0A%20%20%20%20alt%20Validation%20fails%0A%20%20%20%20%20%20%20%20IncidentReportsController%20--%3E%20NGINX%20%3A%20(17)%20Return%20validation%20error%0A%20%20%20%20%20%20%20%20NGINX%20--%3E%20StaffFrontend%20%3A%20(18)%20Return%20response%0A%20%20%20%20%20%20%20%20StaffFrontend%20--%3E%20Staff%20%3A%20(19)%20Display%20error%20%22Invalid%20incident%20report%20information%22%0A%20%20%20%20else%20Validation%20passes%0A%20%20%20%20%20%20%20%20IncidentReportsController%20-%3E%20IncidentReportsController%20%3A%20(17)%20Return%20validation%20success%0A%0A%20%20%20%20%20%20%20%20IncidentReportsController%20-%3E%20Incident%20Reports%20Database%20%3A%20(18)%20Check%20if%20incident%20report%20exists%20by%20ID%0A%20%20%20%20%20%20%20%20activate%20Incident%20Reports%20Database%0A%0A%20%20%20%20%20%20%20%20alt%20Incident%20report%20not%20found%0A%20%20%20%20%20%20%20%20%20%20%20%20Incident%20Reports%20Database%20--%3E%20IncidentReportsController%20%3A%20(19)%20Return%20incident%20report%20not%20found%0A%20%20%20%20%20%20%20%20%20%20%20%20IncidentReportsController%20--%3E%20NGINX%20%3A%20(20)%20Return%20404%20status%0A%0A%20%20%20%20%20%20%20%20%20%20%20%20NGINX%20--%3E%20StaffFrontend%20%3A%20(21)%20Return%20response%20%0A%20%20%20%20%20%20%20%20%20%20%20%20StaffFrontend%20--%3E%20Staff%20%3A%20(22)%20Display%20error%20%22Incident%20report%20not%20found%22%0A%20%20%20%20%20%20%20%20else%20Incident%20report%20found%0A%20%20%20%20%20%20%20%20%20%20%20%20Incident%20Reports%20Database%20--%3E%20IncidentReportsController%20%3A%20(19)%20Return%20incident%20report%20data%0A%20%20%20%20%20%20%20%20%20%20%20%20deactivate%20Incident%20Reports%20Database%0A%0A%20%20%20%20%20%20%20%20%20%20%20%20IncidentReportsController%20-%3E%20Incident%20Reports%20Database%20%3A%20(20)%20Update%20incident%20report%20with%20new%20information%0A%20%20%20%20%20%20%20%20%20%20%20%20activate%20Incident%20Reports%20Database%0A%0A%20%20%20%20%20%20%20%20%20%20%20%20Incident%20Reports%20Database%20--%3E%20IncidentReportsController%20%3A%20(21)%20Return%20updated%20incident%20report%0A%20%20%20%20%20%20%20%20%20%20%20%20deactivate%20Incident%20Reports%20Database%0A%0A%20%20%20%20%20%20%20%20%20%20%20%20IncidentReportsController%20--%3E%20NGINX%20%3A%20(22)%20Return%20200%20status%0A%20%20%20%20%20%20%20%20%20%20%20%20deactivate%20IncidentReportsController%0A%0A%20%20%20%20%20%20%20%20%20%20%20%20NGINX%20--%3E%20StaffFrontend%20%3A%20(23)%20Return%20response%0A%20%20%20%20%20%20%20%20%20%20%20%20StaffFrontend%20--%3E%20Staff%20%3A%20(24)%20Display%20updated%20incident%20report%0A%20%20%20%20%20%20%20%20%20%20%20%20deactivate%20StaffFrontend%0A%20%20%20%20%20%20%20%20end%0A%20%20%20%20end%0Aend%0A%0A%0A</desc><defs/><g><g/><g/><g/><g/><g/><g/><g/><g/><g/><g/><g/><g/><g/><g/><g/><g/><g/><g/><g/><g/><g/><g/><g/><g/><g/><g/><g/><g/><g/><g/><g/><g/><g/><g/><g/><g/><g/><g/><g/><g/><g/><g/><g/><g/><g/><g/><g/><g/><g/><g/><g/><g/><g/><g/><g/><g/><g/><g/><g/><g/><g/><g/><g/><g/><g/><g/><g/><g/><g/><g/><g/><g/><g/><g/><g/><g/><g/><g/><g/><g/><g/><g/><g/><g/><g/><g/><g/><g/><g/><g/><g/><g/><g/><g/><g/><g/><g/><g/><g/><g/><g/><g/><g/><g/><g/><g/><g/><g/><g/><g/><g/><g/><g/><g/><g/><g/><g/><g/><g/><g/><g/><g/><g/><g/><g/><g/><g/><g/><g/><g/><g/><g/><g/><g/><g/><g/><g/><g/><g/><g/><g/><g/><g/><g/><g/><g/><g/><g/><g/><g/><g/><g/><g/><g/><g/><g/><g/><g/><g/><g/><g/><g/><g/><g/><g/><g/><g/><g/><g/><g/><g/><g/><g/><g/><g/><g/><g/><g/><g/><g/><g/><g/><g/><g/><g/><g/><g/><g/><g/><g/><g/><g/><g/><g/><g/><g/><g/><g/><g/><g/><g/><g/><g/><g/><g/><g/><g/><g/><g/><g/><g/><g/><g/><g/><g/><g/><g/><g/><g/><g/><g/><g/><g/><g/><g/><g/><g/><g/><g/><g/><g/><g/><g/><g/><g/><g/><g/><g/><g/><g/><g/><g/><g/><g/><g/><g/><g/><g/><g/><g/><g/><g/><g/><g/><g/><g/><g/><g/><g/><g/><g/><g/><g/><g/><g/><g/><g/><g/><g/><g/><g/><g/><g/><g/><g/><g/><g/><g/><g/><g/><g/><g/><g/><g/><g/><g/><g/><g/><g/><g/><g/><g/><g/><g/><g/><g/><g/><g/><g/><g/><g/><g/><g/><g/><g/><g/><g/><g/><g/><g/><g/><g/><g/><g/><g/><g/><g/><g/><g/><g/><g/><g/><g/><g/><g/><g/><g/><g/><g/><g/><g/><g/><g/><g/><g/><g/><g/><g/><g/><g/><g/><g/><g/><g/><g/><g/><g/><g/><g/><g/><g/><g/><g/><g/><g/><g/><g/><g/><g/><g/><g/><g/><g/><g/><g/><g/><g/><g/><g/><g/><g/><g/><g/><g/><g/><g/><g/><g/><g/><g/><g/><g/><g/><g/><g/><g/><g/><g/><g/><g/><g/><g/><g/><g/><g/><g/><g/><g/><g/><g/><g/><g/><g/><g/><g/><g/><g/><g/><g/><g/><g/><g/><g/><g/><g/><g/><g/><g/><g/><g/><g><rect fill="white" stroke="none" x="0" y="0" width="1726" height="2467"/></g><g/><g><path fill="none" stroke="black" paint-order="fill stroke markers" d=" M 106.17882145 128.73625218881818 L 106.17882145 2467.937364748818" stroke-miterlimit="10" stroke-width="1.3612669416666667" stroke-dasharray="12.565541,5.445067766666667"/><path fill="none" stroke="black" paint-order="fill stroke markers" d=" M 530.8416728749349 128.73625218881818 L 530.8416728749349 2467.937364748818" stroke-miterlimit="10" stroke-width="1.3612669416666667" stroke-dasharray="12.565541,5.445067766666667"/><path fill="none" stroke="black" paint-order="fill stroke markers" d=" M 924.0371018145183 128.73625218881818 L 924.0371018145183 2467.937364748818" stroke-miterlimit="10" stroke-width="1.3612669416666667" stroke-dasharray="12.565541,5.445067766666667"/><path fill="none" stroke="black" paint-order="fill stroke markers" d=" M 1239.7737294845704 128.73625218881818 L 1239.7737294845704 2467.937364748818" stroke-miterlimit="10" stroke-width="1.3612669416666667" stroke-dasharray="12.565541,5.445067766666667"/><path fill="none" stroke="black" paint-order="fill stroke markers" d=" M 1611.7595475497396 128.73625218881818 L 1611.7595475497396 2467.937364748818" stroke-miterlimit="10" stroke-width="1.3612669416666667" stroke-dasharray="12.565541,5.445067766666667"/></g><g><g><path fill="white" stroke="black" paint-order="fill stroke markers" d=" M 115.489887331 59.63834222981819 A 9.311065881 9.311065881 0 1 1 115.48988267546744 59.62903116548903 M 106.17882145 68.9494081108182 L 106.17882145 88.8783561368182 M 94.41747507400001 76.13689756281819 L 117.94016782599999 76.13689756281819 M 106.17882145 88.8783561368182 L 94.41747507400001 107.50048789881819 M 106.17882145 88.8783561368182 L 117.94016782599999 107.50048789881819" stroke-miterlimit="10" stroke-width="2.7769845610000004" stroke-dasharray=""/></g><g><g/><text fill="black" stroke="none" font-family="sans-serif" font-size="11pt" font-style="normal" font-weight="normal" text-decoration="normal" x="91.23608768535156" y="123.83569119881818" text-anchor="start" dominant-baseline="alphabetic" xml:space="preserve">Staff</text></g><path fill="none" stroke="none"/><g><path fill="white" stroke="black" paint-order="fill stroke markers" d=" M 464.359935912599 84.7945553118182 L 597.3234098372709 84.7945553118182 L 597.3234098372709 128.73625218881818 L 464.359935912599 128.73625218881818 L 464.359935912599 84.7945553118182 Z" stroke-miterlimit="10" stroke-width="2.613632528" stroke-dasharray=""/></g><g><text fill="black" stroke="none" font-family="sans-serif" font-size="11pt" font-style="normal" font-weight="normal" text-decoration="normal" x="482.083631493099" y="112.40104888881818" text-anchor="start" dominant-baseline="alphabetic" xml:space="preserve">Staff Front-end</text></g><path fill="none" stroke="none"/><g><path fill="white" stroke="black" paint-order="fill stroke markers" d=" M 883.0993711998386 84.63120327881819 L 964.974832429198 84.63120327881819 L 964.974832429198 128.73625218881818 L 883.0993711998386 128.73625218881818 L 883.0993711998386 84.63120327881819 Z" stroke-miterlimit="10" stroke-width="2.613632528" stroke-dasharray=""/></g><g><g/><text fill="black" stroke="none" font-family="sans-serif" font-size="11pt" font-style="normal" font-weight="normal" text-decoration="normal" x="900.8230667803386" y="112.40104888881817" text-anchor="start" dominant-baseline="alphabetic" xml:space="preserve">NGINX</text></g><path fill="none" stroke="none"/><g><path fill="white" stroke="black" paint-order="fill stroke markers" d=" M 1134.8632434377619 84.7945553118182 L 1344.684215531379 84.7945553118182 L 1344.684215531379 128.73625218881818 L 1134.8632434377619 128.73625218881818 L 1134.8632434377619 84.7945553118182 Z" stroke-miterlimit="10" stroke-width="2.613632528" stroke-dasharray=""/></g><g><text fill="black" stroke="none" font-family="sans-serif" font-size="11pt" font-style="normal" font-weight="normal" text-decoration="normal" x="1152.5869390182618" y="112.40104888881818" text-anchor="start" dominant-baseline="alphabetic" xml:space="preserve">Incident Reports Controller</text></g><g><path fill="white" stroke="black" paint-order="fill stroke markers" d=" M 1587.9101507317396 96.71925372081819 L 1587.9101507317396 62.41532679081819 L 1635.6089443677397 62.41532679081819 L 1635.6089443677397 96.71925372081819" stroke-miterlimit="10" stroke-width="2.7769845610000004" stroke-dasharray=""/><path fill="white" stroke="black" paint-order="fill stroke markers" d=" M 1635.6089443677397 61.22285694991819 L 1635.607751907836 61.33066749483481 L 1635.60417464737 61.43846725878678 L 1635.5982129440645 61.546245461887544 L 1635.5898673940853 61.65399132640659 L 1635.5791388319801 61.761694077847274 L 1635.5660283305963 61.86934294602419 L 1635.550537200973 61.976927166140236 L 1635.5326669922104 62.084435979863045 L 1635.5124194913144 62.19185863640084 L 1635.4897967230181 62.299184393577484 L 1635.4648009495797 62.4064025189067 L 1635.4374346705558 62.51350229066531 L 1635.4077006225511 62.62047299896537 L 1635.375601778946 62.7273039468252 L 1635.3411413495978 62.83398445123905 L 1635.304322780521 62.94050384424536 L 1635.265149753542 63.04685147399361 L 1635.22362618593 63.15301670580944 L 1635.179756230008 63.25898892325815 L 1635.1335442727348 63.364757529206294 L 1635.0849949352673 63.47031194688142 L 1635.0341130724994 63.575641620929716 L 1634.9809037725743 63.68073601847156 L 1634.9253723563781 63.78558463015478 L 1634.8675243770062 63.89017697120557 L 1634.807365619208 63.994502582477 L 1634.7449020988092 64.09855103149486 L 1634.6801400621102 64.20231191350096 L 1634.61308598526 64.3057748524936 L 1634.543746573611 64.40892950226505 L 1634.4721287610466 64.51176554743633 L 1634.398239709288 64.61427270448858 L 1634.3220868071787 64.71644072279157 L 1634.243677669946 64.81825938562858 L 1634.163020138438 64.91971851121816 L 1634.0801222783405 65.02080795373233 L 1633.9949923793706 65.12151760431107 L 1633.9076389544473 65.22183739207324 L 1633.81807073884 65.32175728512367 L 1633.7262966892959 65.42126729155632 L 1633.6323259831436 65.52035746045347 L 1633.536168017375 65.6190178828808 L 1633.4378324077068 65.71723869287828 L 1633.337328987618 65.81501006844678 L 1633.2346678073668 65.91232223253022 L 1633.1298591329858 66.00916545399325 L 1633.022913445255 66.10553004859446 L 1632.9138414386541 66.20140637995469 L 1632.8026540202927 66.29678486052069 L 1632.6893623088201 66.39165595252388 L 1632.5739776333132 66.48601016893414 L 1632.4565115321432 66.57983807440844 L 1632.3369757518224 66.67313028623443 L 1632.215382245829 66.76587747526865 L 1632.0917431734126 66.85807036686953 L 1631.9660708983772 66.94969974182469 L 1631.8383779878457 67.04075643727302 L 1631.7086772110029 67.13123134762085 L 1631.5769815378178 67.22111542545254 L 1631.4433041377486 67.3103996824352 L 1631.3076583784236 67.39907519021754 L 1631.1700578243058 67.4871330813227 L 1631.0305162353359 67.57456455003492 L 1630.8890475655567 67.6613608532802 L 1630.745665961717 67.74751331150055 L 1630.6003857618575 67.83301330952195 L 1630.453221493878 67.91785229741582 L 1630.3041878740817 68.00202179135408 L 1630.1532998057069 68.08551337445749 L 1630.0005723774345 68.1683186976373 L 1629.84602086188 68.25042948043021 L 1629.6896607140666 68.33183751182635 L 1629.5315075698784 68.41253465109044 L 1629.3715772444982 68.4925128285758 L 1629.209885730825 68.5717640465313 L 1629.0464491978755 68.65028037990122 L 1628.881283989167 68.72805397711764 L 1628.7144066210828 68.80507706088565 L 1628.5458337812204 68.88134192896105 L 1628.3755823267231 68.95684095492061 L 1628.203669282595 69.03156658892462 L 1628.030111839997 69.10551135847197 L 1627.8549273545286 69.17866786914732 L 1627.6781333444926 69.25102880536058 L 1627.4997474891425 69.3225869310784 L 1627.3197876269153 69.39333509054786 L 1627.1382717536471 69.46326620901198 L 1626.9552180207743 69.53237329341717 L 1626.7706447335172 69.60064943311258 L 1626.584570349051 69.66808780054113 L 1626.3970134746592 69.7346816519223 L 1626.2079928658725 69.80042432792644 L 1626.0175274245946 69.86530925434072 L 1625.8256361972108 69.92932994272657 L 1625.632338372684 69.9924799910685 L 1625.4376532806355 70.05475308441433 L 1625.2416003894123 70.1161429955066 L 1625.0441993041402 70.17664358540536 L 1624.845469764763 70.23624880410202 L 1624.6454316440693 70.29495269112441 L 1624.4441049457043 70.35274937613272 L 1624.2415098021702 70.40963307950663 L 1624.0376664728126 70.46559811292322 L 1623.832595341794 70.52063887992576 L 1623.6263169160575 70.57474987648341 L 1623.4188518232731 70.62792569154163 L 1623.2102208097774 70.68016100756323 L 1623.000444738498 70.73145060106012 L 1622.789544586867 70.78178934311569 L 1622.577541444724 70.8311721998977 L 1622.3644565122063 70.8795942331616 L 1622.1503110976298 70.92705060074444 L 1621.9351266153576 70.973536557049 L 1621.7189245836585 71.01904745351838 L 1621.5017266225552 71.06357873910088 L 1621.2835544516631 71.10712596070502 L 1621.0644298880177 71.14968476364494 L 1620.8443748438924 71.19125089207583 L 1620.6234113246082 71.23182018941947 L 1620.4015614263333 71.27138859877994 L 1620.1788473338722 71.30995216334925 L 1619.9552913184489 71.34750702680313 L 1619.7309157354782 71.38404943368649 L 1619.505743022332 71.4195757297891 L 1619.2797956960935 71.45408236251096 L 1619.0530963513074 71.48756588121756 L 1618.825667657719 71.52002293758491 L 1618.5975323580083 71.55145028593446 L 1618.3687132655148 71.58184478355753 L 1618.1392332619575 71.61120339102969 L 1617.9091152951455 71.63952317251467 L 1617.6783823766834 71.66680129605793 L 1617.447057579671 71.69303503386982 L 1617.2151640363952 71.71822176259843 L 1616.9827249360171 71.7423589635919 L 1616.749763522253 71.7654442231502 L 1616.51630309105 71.78747523276665 L 1616.282366988257 71.80844978935863 L 1616.0479786072892 71.82836579548797 L 1615.8131613867893 71.84722125957065 L 1615.5779388082835 71.86501429607597 L 1615.3423343938339 71.8817431257151 L 1615.1063717036857 71.89740607561903 L 1614.870074333911 71.91200157950583 L 1614.6334659140498 71.92552817783725 L 1614.3965701047473 71.93798451796474 L 1614.1594105953868 71.94936935426468 L 1613.9220111017216 71.95968154826289 L 1613.6843953635032 71.96892006874862 L 1613.4465871421075 71.97708399187748 L 1613.2086102181586 71.98417250126396 L 1612.9704883891502 71.99018488806304 L 1612.7322454670668 71.99512055104105 L 1612.4939052760026 71.99897899663581 L 1612.2554916497775 72.00175983900598 L 1612.017028429556 72.00346280006961 L 1611.7785394614607 72.00408770953204 L 1611.5400485941902 72.00363450490285 L 1611.3015796766324 72.0021032315021 L 1611.0631565554802 71.99949404245586 L 1610.824803072847 71.9958071986809 L 1610.5865430638828 71.99104306885846 L 1610.3484003543895 71.98520212939759 L 1610.1103987584397 71.97828496438737 L 1609.872562075995 71.97029226553852 L 1609.634914090525 71.96122483211428 L 1609.3974785666305 71.95108357085043 L 1609.1602792476658 71.93986949586466 L 1608.9233398533654 71.92758372855508 L 1608.686684077471 71.91422749748824 L 1608.4503355853633 71.89980213827607 L 1608.2143180116943 71.8843090934425 L 1607.9786549580247 71.86774991227908 L 1607.7433699904636 71.85012625069015 L 1607.5084866373115 71.83143987102717 L 1607.2740283867083 71.81169264191253 L 1607.0400186842833 71.79088653805269 L 1606.806480930812 71.7690236400407 L 1606.573438479875 71.74610613414815 L 1606.3409146355234 71.72213631210651 L 1606.1089326499475 71.69711657087802 L 1605.8775157211528 71.67104941241597 L 1605.6466869906394 71.64393744341446 L 1605.4164695410877 71.6157833750478 L 1605.1868863940513 71.58659002269937 L 1604.957960507653 71.55636030568009 L 1604.729714774291 71.52509724693644 L 1604.5021720183483 71.49280397274828 L 1604.2753549939112 71.45948371241609 L 1604.0492863824925 71.42513979793813 L 1603.8239887907655 71.38977566367726 L 1603.5994847483016 71.35339484601741 L 1603.3757967053177 71.31600098301004 L 1603.1529470304317 71.27759781401028 L 1602.9309580084257 71.23818917930303 L 1602.7098518380164 71.19777901971894 L 1602.4896506296373 71.15637137624027 L 1602.2703764032249 71.11397038959687 L 1602.0520510860197 71.07058029985207 L 1601.8346965103715 71.02620544597868 L 1601.6183344115564 70.98085026542512 L 1601.402986425604 70.93451929367163 L 1601.1886740871337 70.8872171637768 L 1600.9754188272007 70.8389486059142 L 1600.763241971153 70.78971844689937 L 1600.5521647365 70.7395316097072 L 1600.3422082307886 70.6883931129796 L 1600.1333934494946 70.6363080705236 L 1599.9257412739223 70.58328169080006 L 1599.719272469116 70.52931927640276 L 1599.5140076817845 70.47442622352818 L 1599.309967438235 70.41860802143584 L 1599.107172142322 70.36187025189946 L 1598.9056420734064 70.3042185886487 L 1598.7053973843265 70.24565879680183 L 1598.506458099385 70.18619673228926 L 1598.3088441123443 70.12583834126788 L 1598.1125751844384 70.06458965952649 L 1597.9176709423966 70.00245681188221 L 1597.7241508764805 69.93944601156807 L 1597.5320343385358 69.87556355961155 L 1597.341340540056 69.81081584420461 L 1597.152088550262 69.74520934006487 L 1596.9642972941951 69.67875060778805 L 1596.7779855508245 69.61144629319199 L 1596.593171951169 69.54330312665208 L 1596.409874976435 69.47432792242817 L 1596.2281129561668 69.40452757798322 L 1596.0479040664152 69.3339090732935 L 1595.869266327919 69.26247947015062 L 1595.692217604303 69.19024591145539 L 1595.5167756002922 69.11721562050347 L 1595.3429578599407 69.0433959002631 L 1595.1707817648778 68.96879413264479 L 1595.0002645325696 68.89341777776313 L 1594.831423214597 68.81727437319081 L 1594.664274694951 68.74037153320482 L 1594.4988356883446 68.66271694802508 L 1594.3351227385406 68.58431838304537 L 1594.1731522166972 68.5051836780569 L 1594.0129403197318 68.4253207464642 L 1593.8545030687008 68.34473757449386 L 1593.697856307197 68.26344222039596 L 1593.543015699766 68.18144281363814 L 1593.3899967303398 68.09874755409275 L 1593.2388147006875 68.01536471121685 L 1593.0894847288862 67.9313026232252 L 1592.9420217478087 67.84656969625658 L 1592.7964405036303 67.76117440353308 L 1592.6527555543537 67.67512528451279 L 1592.5109812683545 67.5884309440359 L 1592.371131822943 67.50110005146425 L 1592.2332212029473 67.41314133981427 L 1592.0972631993143 67.32456360488388 L 1591.9632714077313 67.23537570437271 L 1591.8312592272655 67.14558655699653 L 1591.7012398590252 67.05520514159522 L 1591.5732263048387 66.96424049623502 L 1591.4472313659548 66.87270171730466 L 1591.3232676417624 66.78059795860575 L 1591.2013475285307 66.68793843043741 L 1591.0814832181693 66.59473239867523 L 1590.9636866970093 66.50098918384472 L 1590.8479697446048 66.40671816018926 L 1590.7343439325548 66.31192875473263 L 1590.6228206233452 66.2166304463364 L 1590.5134109692146 66.120832764752 L 1590.406125911037 66.02454528966774 L 1590.3009761772287 65.92777764975091 L 1590.1979722826757 65.83053952168484 L 1590.0971245276814 65.73284062920132 L 1589.9984429969372 65.63469074210818 L 1589.9019375585144 65.53609967531233 L 1589.8076178628758 65.4370772878383 L 1589.7154933419129 65.33763348184232 L 1589.6255732080008 65.23777820162212 L 1589.5378664530776 65.13752143262249 L 1589.4523818477464 65.03687320043682 L 1589.369127940396 64.93584356980442 L 1589.2881130563483 64.83444264360419 L 1589.2093452970234 64.73268056184422 L 1589.132832539132 64.63056750064791 L 1589.0585824338864 64.52811367123628 L 1588.9866024062346 64.42532931890689 L 1588.91689965412 64.32222472200931 L 1588.8494811477594 64.21881019091732 L 1588.7843536289474 64.11509606699785 L 1588.7215236103816 64.01109272157687 L 1588.6609973750114 63.90681055490224 L 1588.60278097541 63.80225999510374 L 1588.5468802331686 63.697451497150205 L 1588.4933007383152 63.59239554180411 L 1588.4420478487546 63.48710263457343 L 1588.3931266897325 63.381583304661156 L 1588.346542153325 63.27584810391234 L 1588.3022988979458 63.16990760575894 L 1588.2604013478845 63.06377240416249 L 1588.2208536928606 62.95745311255472 L 1588.183659887607 62.85096036277616 L 1588.148823651473 62.744304804013076 L 1588.1163484680535 62.63749710173245 L 1588.0862375848394 62.530547936615505 L 1588.0584940128942 62.423468003489624 L 1588.0331205265518 62.316268010258895 L 1588.01011966314 62.208958676833305 L 1587.9894937227255 62.10155073405677 L 1587.9712447678853 61.99405492263407 L 1587.9553746235 61.88648199205676 L 1587.9418848765704 61.77884269952825 L 1587.9307768760602 61.6711478088881 L 1587.92205173276 61.56340808953563 L 1587.9157103191772 61.45563431535299 L 1587.9117532694474 61.34783726362778 L 1587.9101809792728 61.24002771397536 L 1587.9109936058808 61.13221644726084 L 1587.9141910680094 61.02441424452105 L 1587.919773045915 60.916631885886424 L 1587.9277389814047 60.808880149503025 L 1587.9380880778915 60.70116981045468 L 1587.9508193004742 60.59351163968555 L 1587.9659313760415 60.48591640292299 L 1587.983422793398 60.378394859601016 L 1588.0032918034167 60.27095776178435 L 1588.0255364192135 60.163615853093255 L 1588.0501544163449 60.05637986762915 L 1588.077143333032 59.949260528901206 L 1588.1065004704053 59.84226854875404 L 1588.1382228927757 59.7354146262965 L 1588.1723074279275 59.62870944683179 L 1588.2087506674357 59.52216368078894 L 1588.2475489670064 59.41578798265577 L 1588.288698446842 59.30959298991343 L 1588.3321949920291 59.203589321972714 L 1588.3780342529492 59.09778757911208 L 1588.4262116457144 58.992198341417634 L 1588.4767223526255 58.88683216772516 L 1588.5295613226542 58.78169959456423 L 1588.5847232719473 58.67681113510454 L 1588.6422026843559 58.57217727810464 L 1588.7019938119868 58.46780848686303 L 1588.7640906757767 58.36371519817185 L 1588.8284870660912 58.25990782127324 L 1588.8951765433449 58.15639673681838 L 1588.9641524386457 58.053192295829454 L 1589.0354078544615 57.950304818664556 L 1589.1089356653101 57.84774459398567 L 1589.1847285184717 57.745521877729786 L 1589.2627788347243 57.64364689208335 L 1589.343078809101 57.54212982446004 L 1589.4256204116714 57.44098082648201 L 1589.5103953883443 57.340210012964775 L 1589.597395261692 57.2398274609057 L 1589.6866113318006 57.13984320847635 L 1589.7780346771365 57.040267254018644 L 1589.871656155442 56.94110955504505 L 1589.9674664046472 56.84238002724283 L 1590.0654558438068 56.74408854348249 L 1590.1656146740586 56.646244932830506 L 1590.267932879603 56.54885897956639 L 1590.372400228705 56.45194042220433 L 1590.4790062747163 56.35549895251929 L 1590.5877403571217 56.25954421457787 L 1590.698591602603 56.16408580377391 L 1590.8115489261284 56.06913326586893 L 1590.9266010320594 55.974696096037604 L 1591.0437364152815 55.88078373791821 L 1591.162943362354 55.7874055826683 L 1591.2842099526815 55.694570968025594 L 1591.4075240597058 55.60228917737418 L 1591.5328733521194 55.51056943881623 L 1591.660245295097 55.41942092424918 L 1591.7896271515508 55.328852748448504 L 1591.921005983403 55.23887396815633 L 1592.0543686528795 55.14949358117568 L 1592.1897018238249 55.0607205254708 L 1592.3269919630347 54.97256367827326 L 1592.4662253416095 54.88503185519433 L 1592.6073880363274 54.79813380934336 L 1592.7504659310366 54.71187823045254 L 1592.8954447180668 54.62627374400786 L 1593.04230989966 54.541328910386646 L 1593.1910467894206 54.45705222400146 L 1593.3416405137837 54.373452112450714 L 1593.4940760135019 54.290536935675895 L 1593.6483380451527 54.20831498512558 L 1593.8044111826614 54.12679448292632 L 1593.9622798188443 54.0459835810604 L 1594.1219281669692 53.965890360550645 L 1594.2833402623344 53.88652283065238 L 1594.4464999638647 53.80788892805245 L 1594.6113909557264 53.72999651607559 L 1594.7779967489573 53.652853383898076 L 1594.946300683117 53.57646724576885 L 1595.1162859279523 53.50084574023808 L 1595.2879354850807 53.42599642939328 L 1595.4612321896889 53.35192679810317 L 1595.6361587122515 53.278644253269164 L 1595.8126975602615 53.20615612308466 L 1595.9908310799817 53.13446965630228 L 1596.1705414582082 53.06359202150896 L 1596.3518107240532 52.99353030640911 L 1596.534620750741 52.924291517115876 L 1596.7189532574212 52.85588257745046 L 1596.9047898109968 52.78831032824984 L 1597.0921118279673 52.72158152668263 L 1597.2809005762874 52.65570284557336 L 1597.4711371772391 52.590680872735255 L 1597.6628026073213 52.52652211031142 L 1597.8558777001504 52.463232974124615 L 1598.050343148378 52.40081979303573 L 1598.2461795056215 52.33928880831086 L 1598.4433671884085 52.278646172997206 L 1598.6418864781347 52.21889795130775 L 1598.8417175230366 52.160050118014894 L 1599.0428403401766 52.1021085578529 L 1599.2452348174402 52.045079064929524 L 1599.4488807155483 51.98896734214652 L 1599.6537576700812 51.933779000629414 L 1599.8598451935138 51.87951955916637 L 1600.0671226772658 51.826194443656306 L 1600.2755693937613 51.77380898656634 L 1600.4851644985024 51.72236842639853 L 1600.6958870321535 51.67187790716602 L 1600.9077159226365 51.622342477878675 L 1601.120629987239 51.57376709203812 L 1601.334607934732 51.526156607142475 L 1601.5496283674993 51.47951578420055 L 1601.7656697836765 51.43384928725578 L 1601.9827105793022 51.38916168291979 L 1602.2007290504773 51.34545743991578 L 1602.419703395537 51.302740928631636 L 1602.6396117172287 51.261016420682886 L 1602.860432024904 51.220288088485546 L 1603.0821422367155 51.18056000483891 L 1603.3047201818274 51.14183614251822 L 1603.5281436026305 51.10412037387746 L 1603.7523901569687 51.06741647046204 L 1603.9774374203737 51.03172810263173 L 1604.2032628883064 50.99705883919358 L 1604.4298439784084 50.96341214704502 L 1604.6571580327595 50.930791390827245 L 1604.8851823201437 50.899199832588685 L 1605.113894038322 50.86864063145883 L 1605.3432703163137 50.83911684333235 L 1605.5732882166817 50.81063142056343 L 1605.8039247378279 50.78318721167063 L 1606.0351568162923 50.75678696105195 L 1606.2669613290598 50.731433308710464 L 1606.4993150958721 50.70712878999027 L 1606.7321948815463 50.683875835323 L 1606.965577398298 50.66167676998473 L 1607.1994393080695 50.6405338138635 L 1607.4337572248653 50.6204490812373 L 1607.668507717089 50.60142458056266 L 1607.9036673098865 50.583462214273794 L 1608.139212487495 50.566563778592354 L 1608.3751196955925 50.55073096334783 L 1608.6113653436553 50.53596535180856 L 1608.847925807315 50.52226842052339 L 1609.0847774307229 50.50964153917403 L 1609.3218965289134 50.49808597043808 L 1609.559259390175 50.48760286986282 L 1609.7968422784186 50.47819328574954 L 1610.034621435554 50.46985815904882 L 1610.2725730838633 50.462598323266384 L 1610.5106734283802 50.456414504379765 L 1610.7488986592682 50.45130732076569 L 1610.9872249542032 50.44727728313828 L 1611.2256284807543 50.444324794497916 L 1611.464085398767 50.44245015009101 L 1611.702571862749 50.44165353738045 L 1611.941064024252 50.44193503602685 L 1612.179538034259 50.443294617880554 L 1612.4179700455672 50.445732146984525 L 1612.6563362151746 50.44924737958788 L 1612.894612706663 50.45383996417029 L 1613.1327756925814 50.459509441477124 L 1613.37080135683 50.46625524456538 L 1613.6086658970405 50.474076698860365 L 1613.8463455269573 50.48297302222316 L 1614.0838164788152 50.49294332502887 L 1614.3210550057172 50.50398661025549 L 1614.5580373840082 50.51610177358371 L 1614.7947399156478 50.52928760350731 L 1615.03113893058 50.54354278145426 L 1615.2672107891005 50.55886588191867 L 1615.5029318842203 50.575255372603245 L 1615.738278644026 50.592709614572584 L 1615.9732275340377 50.61122686241703 L 1616.2077550595627 50.630805264427224 L 1616.4418377680433 50.651442862779284 L 1616.675452251404 50.67313759373059 L 1616.9085751483913 50.695887287826096 L 1617.1411831469093 50.71968967011537 L 1617.3732529863523 50.74454236038002 L 1617.60476145993 50.77044287337172 L 1617.8356854169872 50.797388619060754 L 1618.0660017653215 50.825376902895016 L 1618.2956874734894 50.85440492606945 L 1618.5247195731117 50.88446978580591 L 1618.7530751611694 50.9155684756435 L 1618.980731402294 50.947697885739125 L 1619.2076655310507 50.980854803178566 L 1619.4338548542162 51.01503591229771 L 1619.6592767530462 51.05023779501413 L 1619.8839086855394 51.08645693116888 L 1620.107728188689 51.12368969887854 L 1620.3307128807314 51.16193237489736 L 1620.5528404633835 51.201181134989596 L 1620.774088724072 51.241432054311964 L 1620.9944355381551 51.28268110780607 L 1621.213858871135 51.32492417060092 L 1621.4323367808615 51.368157018425464 L 1621.6498474197253 51.41237532803093 L 1621.8663690368442 51.45757467762322 L 1622.0818799802366 51.503750547305025 L 1622.296358698988 51.55089831952786 L 1622.5097837454048 51.5990132795538 L 1622.7221337771607 51.64809061592693 L 1622.9333875594293 51.69812542095451 L 1623.1435239670086 51.749112691197745 L 1623.3525219864327 51.801047327972086 L 1623.5603607180738 51.85392413785714 L 1623.7670193782321 51.90773783321599 L 1623.9724773012138 51.962483032723924 L 1624.1767139413978 52.01815426190663 L 1624.3797088752901 52.07474595368758 L 1624.5814418035668 52.132252448944755 L 1624.7818925531028 52.190667997076545 L 1624.9810410789905 52.24998675657682 L 1625.1788674665431 52.310202795619055 L 1625.3753519332868 52.371310092649544 L 1625.5704748309383 52.43330253698949 L 1625.764216647371 52.49617392944612 L 1625.9565580085646 52.559917982932596 L 1626.147479680543 52.62452832309667 L 1626.3369625712983 52.68999848895818 L 1626.5249877326992 52.7563219335551 L 1626.7115363623861 52.823492024598224 L 1626.896589805652 52.89150204513444 L 1627.0801295573062 52.960345194218355 L 1627.262137263527 53.03001458759244 L 1627.4425947236948 53.10050325837541 L 1627.6214838922147 53.171804157758935 L 1627.7987868803186 53.243910155712484 L 1627.9744859578552 53.31681404169635 L 1628.1485635550637 53.39050852538269 L 1628.3210022643289 53.46498623738456 L 1628.4917848419238 53.5402397299928 L 1628.6608942097332 53.61626147792087 L 1628.8283134569608 53.69304387905734 L 1628.9940258418217 53.770579255226075 L 1629.1580147932154 53.848859852954064 L 1629.3202639123833 53.92787784424677 L 1629.480756974549 54.00762532737092 L 1629.6394779305397 54.08809432764465 L 1629.7964109083923 54.16927679823499 L 1629.9515402149398 54.251164620962534 L 1630.1048503373804 54.33374960711325 L 1630.2563259448302 54.41702349825734 L 1630.4059518898544 54.500977967075094 L 1630.5537132099832 54.58560461818958 L 1630.6995951292076 54.670894989006214 L 1630.8435830594576 54.75684055055899 L 1630.9856626020596 54.84343270836337 L 1631.1258195491785 54.93066280327574 L 1631.2640398852357 55.0185221123593 L 1631.400309788313 55.107001849756344 L 1631.5346156315338 55.196093167566886 L 1631.6669439844256 55.28578715673337 L 1631.7972816142633 55.37607484793163 L 1631.9256154873926 55.46694721246779 L 1632.0519327705333 55.55839516318112 L 1632.176220832062 55.65040955535275 L 1632.2984672432765 55.742981187620146 L 1632.4186597796372 55.83610080289723 L 1632.5367864219907 55.92975908930006 L 1632.6528353577714 56.02394668107806 L 1632.7667949821823 56.11865415955053 L 1632.8786538993559 56.213872054048544 L 1632.9884009234938 56.30959084286201 L 1633.0960250799849 56.405800954191804 L 1633.2015156065033 56.50249276710697 L 1633.3048619540846 56.5996566125068 L 1633.4060537881794 56.69728277408771 L 1633.5050809896893 56.79536148931491 L 1633.6019336559764 56.89388295039859 L 1633.6966021018548 56.99283730527477 L 1633.7890768605587 57.09221465859041 L 1633.8793486846894 57.19200507269298 L 1633.9674085471397 57.29219856862425 L 1634.053247641997 57.39278512711811 L 1634.1368573854227 57.49375468960253 L 1634.2182294165127 57.59509715920541 L 1634.2973555981316 57.69680240176424 L 1634.374228017727 57.79886024683951 L 1634.4488389881212 57.90126048873177 L 1634.5211810482792 58.003992887502164 L 1634.5912469640555 58.10704716999642 L 1634.6590297289165 58.21041303087217 L 1634.7245225646425 58.31408013362946 L 1634.7877189220044 58.41803811164441 L 1634.848612481419 58.52227656920584 L 1634.9071971535814 58.62678508255487 L 1634.963467080073 58.731553200927245 L 1635.0174166339484 58.83657044759845 L 1635.0690404202965 58.94182632093131 L 1635.1183332767823 59.04731029542622 L 1635.1652902741607 59.153011822773635 L 1635.2099067167717 59.25892033290889 L 1635.2521781430078 59.36502523506925 L 1635.2921003257616 59.471315918852895 L 1635.3296692728482 59.57778175528004 L 1635.3648812274043 59.684412097855756 L 1635.3977326682636 59.79119628363465 L 1635.4282203103094 59.89812363428712 L 1635.4563411048032 60.005183457167206 L 1635.4820922396887 60.11236504638185 L 1635.5054711398736 60.21965768386144 L 1635.5264754674881 60.327050640431644 L 1635.5451031221162 60.43453317688629 L 1635.5613522410085 60.5420945450613 L 1635.5752211992665 60.6497239889095 L 1635.5867086100056 60.757410745576195 L 1635.5958133244949 60.86514404647545 L 1635.60253443227 60.972913118366954 L 1635.6068712612262 61.08070718443333 L 1635.6088233776836 61.188515465357796 M 1635.6089443677397 95.52678387991818 L 1635.607751907836 95.6345944248348 L 1635.60417464737 95.74239418878678 L 1635.5982129440645 95.85017239188754 L 1635.5898673940853 95.95791825640659 L 1635.5791388319801 96.06562100784727 L 1635.5660283305963 96.1732698760242 L 1635.550537200973 96.28085409614023 L 1635.5326669922104 96.38836290986303 L 1635.5124194913144 96.49578556640084 L 1635.4897967230181 96.60311132357748 L 1635.4648009495797 96.7103294489067 L 1635.4374346705558 96.8174292206653 L 1635.4077006225511 96.92439992896537 L 1635.375601778946 97.0312308768252 L 1635.3411413495978 97.13791138123905 L 1635.304322780521 97.24443077424536 L 1635.265149753542 97.35077840399362 L 1635.22362618593 97.45694363580944 L 1635.179756230008 97.56291585325815 L 1635.1335442727348 97.66868445920629 L 1635.0849949352673 97.77423887688141 L 1635.0341130724994 97.8795685509297 L 1634.9809037725743 97.98466294847155 L 1634.9253723563781 98.08951156015478 L 1634.8675243770062 98.19410390120557 L 1634.807365619208 98.29842951247699 L 1634.7449020988092 98.40247796149485 L 1634.6801400621102 98.50623884350097 L 1634.61308598526 98.60970178249359 L 1634.543746573611 98.71285643226504 L 1634.4721287610466 98.81569247743631 L 1634.398239709288 98.91819963448859 L 1634.3220868071787 99.02036765279156 L 1634.243677669946 99.12218631562857 L 1634.163020138438 99.22364544121817 L 1634.0801222783405 99.32473488373233 L 1633.9949923793706 99.42544453431107 L 1633.9076389544473 99.52576432207324 L 1633.81807073884 99.62568421512367 L 1633.7262966892959 99.72519422155631 L 1633.6323259831436 99.82428439045346 L 1633.536168017375 99.92294481288079 L 1633.4378324077068 100.02116562287829 L 1633.337328987618 100.11893699844678 L 1633.2346678073668 100.2162491625302 L 1633.1298591329858 100.31309238399325 L 1633.022913445255 100.40945697859446 L 1632.9138414386541 100.50533330995468 L 1632.8026540202927 100.60071179052068 L 1632.6893623088201 100.69558288252388 L 1632.5739776333132 100.78993709893413 L 1632.4565115321432 100.88376500440843 L 1632.3369757518224 100.97705721623441 L 1632.215382245829 101.06980440526866 L 1632.0917431734126 101.16199729686952 L 1631.9660708983772 101.25362667182469 L 1631.8383779878457 101.34468336727302 L 1631.7086772110029 101.43515827762084 L 1631.5769815378178 101.52504235545253 L 1631.4433041377486 101.61432661243519 L 1631.3076583784236 101.70300212021755 L 1631.1700578243058 101.7910600113227 L 1631.0305162353359 101.87849148003492 L 1630.8890475655567 101.9652877832802 L 1630.745665961717 102.05144024150056 L 1630.6003857618575 102.13694023952193 L 1630.453221493878 102.22177922741581 L 1630.3041878740817 102.30594872135407 L 1630.1532998057069 102.38944030445748 L 1630.0005723774345 102.47224562763729 L 1629.84602086188 102.5543564104302 L 1629.6896607140666 102.63576444182635 L 1629.5315075698784 102.71646158109044 L 1629.3715772444982 102.79643975857579 L 1629.209885730825 102.8756909765313 L 1629.0464491978755 102.95420730990122 L 1628.881283989167 103.03198090711763 L 1628.7144066210828 103.10900399088564 L 1628.5458337812204 103.18526885896105 L 1628.3755823267231 103.2607678849206 L 1628.203669282595 103.33549351892461 L 1628.030111839997 103.40943828847196 L 1627.8549273545286 103.48259479914732 L 1627.6781333444926 103.55495573536056 L 1627.4997474891425 103.6265138610784 L 1627.3197876269153 103.69726202054787 L 1627.1382717536471 103.76719313901197 L 1626.9552180207743 103.83630022341715 L 1626.7706447335172 103.90457636311257 L 1626.584570349051 103.97201473054113 L 1626.3970134746592 104.03860858192229 L 1626.2079928658725 104.10435125792642 L 1626.0175274245946 104.1692361843407 L 1625.8256361972108 104.23325687272656 L 1625.632338372684 104.29640692106851 L 1625.4376532806355 104.35868001441433 L 1625.2416003894123 104.4200699255066 L 1625.0441993041402 104.48057051540535 L 1624.845469764763 104.54017573410202 L 1624.6454316440693 104.5988796211244 L 1624.4441049457043 104.65667630613272 L 1624.2415098021702 104.71356000950664 L 1624.0376664728126 104.7695250429232 L 1623.832595341794 104.82456580992574 L 1623.6263169160575 104.87867680648341 L 1623.4188518232731 104.93185262154162 L 1623.2102208097774 104.98408793756322 L 1623.000444738498 105.0353775310601 L 1622.789544586867 105.08571627311568 L 1622.577541444724 105.13509912989768 L 1622.3644565122063 105.1835211631616 L 1622.1503110976298 105.23097753074444 L 1621.9351266153576 105.27746348704899 L 1621.7189245836585 105.32297438351839 L 1621.5017266225552 105.36750566910086 L 1621.2835544516631 105.41105289070501 L 1621.0644298880177 105.45361169364494 L 1620.8443748438924 105.49517782207583 L 1620.6234113246082 105.53574711941947 L 1620.4015614263333 105.57531552877992 L 1620.1788473338722 105.61387909334925 L 1619.9552913184489 105.65143395680312 L 1619.7309157354782 105.68797636368647 L 1619.505743022332 105.72350265978909 L 1619.2797956960935 105.75800929251095 L 1619.0530963513074 105.79149281121755 L 1618.825667657719 105.82394986758491 L 1618.5975323580083 105.85537721593445 L 1618.3687132655148 105.88577171355752 L 1618.1392332619575 105.9151303210297 L 1617.9091152951455 105.94345010251467 L 1617.6783823766834 105.97072822605791 L 1617.447057579671 105.99696196386981 L 1617.2151640363952 106.02214869259844 L 1616.9827249360171 106.04628589359189 L 1616.749763522253 106.0693711531502 L 1616.51630309105 106.09140216276666 L 1616.282366988257 106.11237671935864 L 1616.0479786072892 106.13229272548797 L 1615.8131613867893 106.15114818957065 L 1615.5779388082835 106.16894122607596 L 1615.3423343938339 106.1856700557151 L 1615.1063717036857 106.20133300561903 L 1614.870074333911 106.21592850950582 L 1614.6334659140498 106.22945510783724 L 1614.3965701047473 106.24191144796474 L 1614.1594105953868 106.25329628426466 L 1613.9220111017216 106.2636084782629 L 1613.6843953635032 106.2728469987486 L 1613.4465871421075 106.28101092187747 L 1613.2086102181586 106.28809943126396 L 1612.9704883891502 106.29411181806304 L 1612.7322454670668 106.29904748104106 L 1612.4939052760026 106.30290592663582 L 1612.2554916497775 106.30568676900597 L 1612.017028429556 106.30738973006962 L 1611.7785394614607 106.30801463953205 L 1611.5400485941902 106.30756143490284 L 1611.3015796766324 106.3060301615021 L 1611.0631565554802 106.30342097245587 L 1610.824803072847 106.29973412868088 L 1610.5865430638828 106.29496999885845 L 1610.3484003543895 106.28912905939758 L 1610.1103987584397 106.28221189438736 L 1609.872562075995 106.27421919553852 L 1609.634914090525 106.26515176211427 L 1609.3974785666305 106.25501050085043 L 1609.1602792476658 106.24379642586464 L 1608.9233398533654 106.23151065855508 L 1608.686684077471 106.21815442748823 L 1608.4503355853633 106.20372906827606 L 1608.2143180116943 106.1882360234425 L 1607.9786549580247 106.17167684227908 L 1607.7433699904636 106.15405318069014 L 1607.5084866373115 106.13536680102716 L 1607.2740283867083 106.11561957191253 L 1607.0400186842833 106.09481346805269 L 1606.806480930812 106.0729505700407 L 1606.573438479875 106.05003306414814 L 1606.3409146355234 106.0260632421065 L 1606.1089326499475 106.00104350087803 L 1605.8775157211528 105.97497634241597 L 1605.6466869906394 105.94786437341445 L 1605.4164695410877 105.9197103050478 L 1605.1868863940513 105.89051695269937 L 1604.957960507653 105.86028723568009 L 1604.729714774291 105.82902417693644 L 1604.5021720183483 105.79673090274827 L 1604.2753549939112 105.76341064241608 L 1604.0492863824925 105.72906672793813 L 1603.8239887907655 105.69370259367726 L 1603.5994847483016 105.6573217760174 L 1603.3757967053177 105.61992791301003 L 1603.1529470304317 105.58152474401028 L 1602.9309580084257 105.54211610930304 L 1602.7098518380164 105.50170594971894 L 1602.4896506296373 105.46029830624026 L 1602.2703764032249 105.41789731959686 L 1602.0520510860197 105.37450722985206 L 1601.8346965103715 105.33013237597868 L 1601.6183344115564 105.28477719542511 L 1601.402986425604 105.23844622367163 L 1601.1886740871337 105.1911440937768 L 1600.9754188272007 105.14287553591419 L 1600.763241971153 105.09364537689936 L 1600.5521647365 105.0434585397072 L 1600.3422082307886 104.99232004297959 L 1600.1333934494946 104.9402350005236 L 1599.9257412739223 104.88720862080007 L 1599.719272469116 104.83324620640276 L 1599.5140076817845 104.77835315352817 L 1599.309967438235 104.72253495143585 L 1599.107172142322 104.66579718189945 L 1598.9056420734064 104.60814551864868 L 1598.7053973843265 104.54958572680184 L 1598.506458099385 104.49012366228926 L 1598.3088441123443 104.42976527126788 L 1598.1125751844384 104.36851658952648 L 1597.9176709423966 104.30638374188221 L 1597.7241508764805 104.24337294156805 L 1597.5320343385358 104.17949048961154 L 1597.341340540056 104.11474277420461 L 1597.152088550262 104.04913627006486 L 1596.9642972941951 103.98267753778805 L 1596.7779855508245 103.91537322319199 L 1596.593171951169 103.84723005665208 L 1596.409874976435 103.77825485242818 L 1596.2281129561668 103.70845450798322 L 1596.0479040664152 103.63783600329349 L 1595.869266327919 103.56640640015061 L 1595.692217604303 103.49417284145538 L 1595.5167756002922 103.42114255050346 L 1595.3429578599407 103.3473228302631 L 1595.1707817648778 103.27272106264479 L 1595.0002645325696 103.19734470776314 L 1594.831423214597 103.1212013031908 L 1594.664274694951 103.04429846320481 L 1594.4988356883446 102.96664387802507 L 1594.3351227385406 102.88824531304537 L 1594.1731522166972 102.8091106080569 L 1594.0129403197318 102.72924767646418 L 1593.8545030687008 102.64866450449387 L 1593.697856307197 102.56736915039596 L 1593.543015699766 102.48536974363815 L 1593.3899967303398 102.40267448409276 L 1593.2388147006875 102.31929164121684 L 1593.0894847288862 102.2352295532252 L 1592.9420217478087 102.15049662625658 L 1592.7964405036303 102.06510133353308 L 1592.6527555543537 101.97905221451278 L 1592.5109812683545 101.89235787403591 L 1592.371131822943 101.80502698146424 L 1592.2332212029473 101.71706826981428 L 1592.0972631993143 101.62849053488388 L 1591.9632714077313 101.53930263437272 L 1591.8312592272655 101.44951348699652 L 1591.7012398590252 101.35913207159521 L 1591.5732263048387 101.26816742623502 L 1591.4472313659548 101.17662864730465 L 1591.3232676417624 101.08452488860574 L 1591.2013475285307 100.9918653604374 L 1591.0814832181693 100.89865932867522 L 1590.9636866970093 100.80491611384473 L 1590.8479697446048 100.71064509018925 L 1590.7343439325548 100.61585568473262 L 1590.6228206233452 100.5205573763364 L 1590.5134109692146 100.424759694752 L 1590.406125911037 100.32847221966773 L 1590.3009761772287 100.2317045797509 L 1590.1979722826757 100.13446645168483 L 1590.0971245276814 100.03676755920131 L 1589.9984429969372 99.93861767210817 L 1589.9019375585144 99.84002660531232 L 1589.8076178628758 99.7410042178383 L 1589.7154933419129 99.64156041184232 L 1589.6255732080008 99.54170513162211 L 1589.5378664530776 99.4414483626225 L 1589.4523818477464 99.34080013043682 L 1589.369127940396 99.23977049980442 L 1589.2881130563483 99.13836957360418 L 1589.2093452970234 99.03660749184422 L 1589.132832539132 98.9344944306479 L 1589.0585824338864 98.83204060123627 L 1588.9866024062346 98.72925624890688 L 1588.91689965412 98.6261516520093 L 1588.8494811477594 98.52273712091731 L 1588.7843536289474 98.41902299699785 L 1588.7215236103816 98.31501965157686 L 1588.6609973750114 98.21073748490224 L 1588.60278097541 98.10618692510373 L 1588.5468802331686 98.0013784271502 L 1588.4933007383152 97.89632247180411 L 1588.4420478487546 97.79102956457344 L 1588.3931266897325 97.68551023466115 L 1588.346542153325 97.57977503391233 L 1588.3022988979458 97.47383453575894 L 1588.2604013478845 97.3676993341625 L 1588.2208536928606 97.2613800425547 L 1588.183659887607 97.15488729277617 L 1588.148823651473 97.04823173401307 L 1588.1163484680535 96.94142403173245 L 1588.0862375848394 96.8344748666155 L 1588.0584940128942 96.72739493348962 L 1588.0331205265518 96.6201949402589 L 1588.01011966314 96.51288560683331 L 1587.9894937227255 96.40547766405678 L 1587.9712447678853 96.29798185263407 L 1587.9553746235 96.19040892205675 L 1587.9418848765704 96.08276962952824 L 1587.9307768760602 95.9750747388881 L 1587.92205173276 95.86733501953563 L 1587.9157103191772 95.75956124535298 L 1587.9117532694474 95.65176419362778 L 1587.9101809792728 95.54395464397535" stroke-miterlimit="10" stroke-width="2.7769845610000004" stroke-dasharray=""/></g><g><g/><text fill="black" stroke="none" font-family="sans-serif" font-size="11pt" font-style="normal" font-weight="normal" text-decoration="normal" x="1524.9700272860678" y="123.83569119881818" text-anchor="start" dominant-baseline="alphabetic" xml:space="preserve">Incident Reports Database</text></g></g><g><path fill="white" stroke="black" paint-order="fill stroke markers" d=" M 522.6740712249349 182.64242307881818 L 539.009274524935 182.64242307881818 L 539.009274524935 773.976782538818 L 522.6740712249349 773.976782538818 L 522.6740712249349 182.64242307881818" stroke-miterlimit="10" stroke-width="1.3612669416666667" stroke-dasharray=""/><path fill="white" stroke="black" paint-order="fill stroke markers" d=" M 1231.6061278345703 274.1195615588182 L 1247.9413311345704 274.1195615588182 L 1247.9413311345704 682.4996440588181 L 1231.6061278345703 682.4996440588181 L 1231.6061278345703 274.1195615588182" stroke-miterlimit="10" stroke-width="1.3612669416666667" stroke-dasharray=""/><path fill="white" stroke="black" paint-order="fill stroke markers" d=" M 1603.5919458997396 319.8581307988182 L 1619.9271491997397 319.8581307988182 L 1619.9271491997397 636.7610748188182 L 1603.5919458997396 636.7610748188182 L 1603.5919458997396 319.8581307988182" stroke-miterlimit="10" stroke-width="1.3612669416666667" stroke-dasharray=""/><path fill="white" stroke="black" paint-order="fill stroke markers" d=" M 522.6740712249349 844.218156728818 L 539.009274524935 844.218156728818 L 539.009274524935 889.956725968818 L 522.6740712249349 889.956725968818 L 522.6740712249349 844.218156728818" stroke-miterlimit="10" stroke-width="1.3612669416666667" stroke-dasharray=""/><path fill="white" stroke="black" paint-order="fill stroke markers" d=" M 522.6740712249349 889.956725968818 L 539.009274524935 889.956725968818 L 539.009274524935 935.6952952088179 L 522.6740712249349 935.6952952088179 L 522.6740712249349 889.956725968818" stroke-miterlimit="10" stroke-width="1.3612669416666667" stroke-dasharray=""/><path fill="white" stroke="black" paint-order="fill stroke markers" d=" M 522.6740712249349 935.6952952088179 L 539.009274524935 935.6952952088179 L 539.009274524935 2337.2557383488174 L 522.6740712249349 2337.2557383488174 L 522.6740712249349 935.6952952088179" stroke-miterlimit="10" stroke-width="1.3612669416666667" stroke-dasharray=""/><path fill="white" stroke="black" paint-order="fill stroke markers" d=" M 1231.6061278345703 1027.1724336888178 L 1247.9413311345704 1027.1724336888178 L 1247.9413311345704 2245.7785998688178 L 1231.6061278345703 2245.7785998688178 L 1231.6061278345703 1027.1724336888178" stroke-miterlimit="10" stroke-width="1.3612669416666667" stroke-dasharray=""/><path fill="white" stroke="black" paint-order="fill stroke markers" d=" M 1603.5919458997396 1791.6599481288183 L 1619.9271491997397 1791.6599481288183 L 1619.9271491997397 2108.5628921488183 L 1603.5919458997396 2108.5628921488183 L 1603.5919458997396 1791.6599481288183" stroke-miterlimit="10" stroke-width="1.3612669416666667" stroke-dasharray=""/><path fill="white" stroke="black" paint-order="fill stroke markers" d=" M 1603.5919458997396 2154.301461388818 L 1619.9271491997397 2154.301461388818 L 1619.9271491997397 2200.040030628818 L 1603.5919458997396 2200.040030628818 L 1603.5919458997396 2154.301461388818" stroke-miterlimit="10" stroke-width="1.3612669416666667" stroke-dasharray=""/><g><text fill="black" stroke="none" font-family="sans-serif" font-size="16pt" font-style="normal" font-weight="normal" text-decoration="normal" x="785.3403472900391" y="24.651306798181814" text-anchor="start" dominant-baseline="alphabetic" xml:space="preserve">Incident Reports</text></g><g><rect fill="white" stroke="none" x="193.01416022723308" y="161.4066587888182" width="242.82457222046875" height="21.23576429"/><text fill="black" stroke="none" font-family="sans-serif" font-size="11pt" font-style="normal" font-weight="normal" text-decoration="normal" x="195.46444072223306" y="176.10834175881817" text-anchor="start" dominant-baseline="alphabetic" xml:space="preserve">(1) Requests to view incident reports</text></g><g><path fill="none" stroke="black" paint-order="fill stroke markers" d=" M 106.17882145 182.64242307881818 L 509.22475384126824 182.64242307881818" stroke-miterlimit="10" stroke-width="1.3612669416666667" stroke-dasharray=""/><g transform="translate(522.6740712249349,182.64242307881818) translate(-522.6740712249349,-182.64242307881818)"><path fill="black" stroke="none" paint-order="stroke fill markers" d=" M 509.0614018082682 175.83608837048484 L 522.6740712249349 182.64242307881818 L 509.0614018082682 189.44875778715152 Z"/></g></g><g><rect fill="white" stroke="none" x="608.8904354457227" y="207.1452280288182" width="245.26550544800781" height="21.23576429"/><text fill="black" stroke="none" font-family="sans-serif" font-size="11pt" font-style="normal" font-weight="normal" text-decoration="normal" x="611.3407159407227" y="221.84691099881817" text-anchor="start" dominant-baseline="alphabetic" xml:space="preserve">(2) Request for list of incident reports</text></g><g><path fill="none" stroke="black" paint-order="fill stroke markers" d=" M 539.009274524935 228.3809923188182 L 910.5877844308517 228.3809923188182" stroke-miterlimit="10" stroke-width="1.3612669416666667" stroke-dasharray=""/><g transform="translate(924.0371018145183,228.3809923188182) translate(-924.0371018145183,-228.3809923188182)"><path fill="black" stroke="none" paint-order="stroke fill markers" d=" M 910.4244323978517 221.57465761048485 L 924.0371018145183 228.3809923188182 L 910.4244323978517 235.18732702715153 Z"/></g></g><g><rect fill="white" stroke="none" x="947.443683877884" y="252.88379726881823" width="260.7558618933203" height="21.23576429"/><text fill="black" stroke="none" font-family="sans-serif" font-size="11pt" font-style="normal" font-weight="normal" text-decoration="normal" x="949.893964372884" y="267.5854802388182" text-anchor="start" dominant-baseline="alphabetic" xml:space="preserve">(3) Route to Incident Reports Controller</text></g><g><path fill="none" stroke="black" paint-order="fill stroke markers" d=" M 924.0371018145183 274.1195615588182 L 1218.1568104509035 274.1195615588182" stroke-miterlimit="10" stroke-width="1.3612669416666667" stroke-dasharray=""/><g transform="translate(1231.6061278345703,274.1195615588182) translate(-1231.6061278345703,-274.1195615588182)"><path fill="black" stroke="none" paint-order="stroke fill markers" d=" M 1217.9934584179036 267.31322685048485 L 1231.6061278345703 274.1195615588182 L 1217.9934584179036 280.92589626715153 Z"/></g></g><g><rect fill="white" stroke="none" x="1329.6191992086785" y="298.6223665088182" width="192.29487861695313" height="21.23576429"/><text fill="black" stroke="none" font-family="sans-serif" font-size="11pt" font-style="normal" font-weight="normal" text-decoration="normal" x="1332.0694797036786" y="313.32404947881815" text-anchor="start" dominant-baseline="alphabetic" xml:space="preserve">(4) Query for incident reports</text></g><g><path fill="none" stroke="black" paint-order="fill stroke markers" d=" M 1247.9413311345704 319.8581307988182 L 1590.1426285160728 319.8581307988182" stroke-miterlimit="10" stroke-width="1.3612669416666667" stroke-dasharray=""/><g transform="translate(1603.5919458997396,319.8581307988182) translate(-1603.5919458997396,-319.8581307988182)"><path fill="black" stroke="none" paint-order="stroke fill markers" d=" M 1589.979276483073 313.05179609048486 L 1603.5919458997396 319.8581307988182 L 1589.979276483073 326.66446550715153 Z"/></g></g><g><rect fill="white" stroke="none" x="1324.7229971212762" y="388.4659846588182" width="202.08728279175781" height="21.23576429"/><text fill="black" stroke="none" font-family="sans-serif" font-size="11pt" font-style="normal" font-weight="normal" text-decoration="normal" x="1327.1732776162762" y="403.16766762881815" text-anchor="start" dominant-baseline="alphabetic" xml:space="preserve">(5) Return null incident reports</text></g><g><path fill="none" stroke="black" paint-order="fill stroke markers" d=" M 1603.5919458997396 409.7017489488182 L 1261.3906485182372 409.7017489488182" stroke-miterlimit="10" stroke-width="1.3612669416666667" stroke-dasharray="6.53408132"/><g transform="translate(1247.9413311345704,409.7017489488182) translate(-1247.9413311345704,-409.7017489488182)"><path fill="black" stroke="none" paint-order="stroke fill markers" d=" M 1261.554000551237 402.89541424048485 L 1247.9413311345704 409.7017489488182 L 1261.554000551237 416.50808365715153 Z"/></g></g><g><rect fill="white" stroke="none" x="1006.5166742953645" y="434.2045538988182" width="142.60988105835938" height="21.23576429"/><text fill="black" stroke="none" font-family="sans-serif" font-size="11pt" font-style="normal" font-weight="normal" text-decoration="normal" x="1008.9669547903645" y="448.90623686881816" text-anchor="start" dominant-baseline="alphabetic" xml:space="preserve">(6) Return 404 status</text></g><g><path fill="none" stroke="black" paint-order="fill stroke markers" d=" M 1231.6061278345703 455.4403181888182 L 937.486419198185 455.4403181888182" stroke-miterlimit="10" stroke-width="1.3612669416666667" stroke-dasharray="6.53408132"/><g transform="translate(924.0371018145183,455.4403181888182) translate(-924.0371018145183,-455.4403181888182)"><path fill="black" stroke="none" paint-order="stroke fill markers" d=" M 937.649771231185 448.63398348048486 L 924.0371018145183 455.4403181888182 L 937.649771231185 462.24665289715153 Z"/></g></g><g><rect fill="white" stroke="none" x="661.8503200892774" y="479.9431231388182" width="139.34573616089844" height="21.23576429"/><text fill="black" stroke="none" font-family="sans-serif" font-size="11pt" font-style="normal" font-weight="normal" text-decoration="normal" x="664.3006005842774" y="494.64480610881816" text-anchor="start" dominant-baseline="alphabetic" xml:space="preserve">(7) Return response </text></g><g><path fill="none" stroke="black" paint-order="fill stroke markers" d=" M 924.0371018145183 501.1788874288182 L 552.4585919086016 501.1788874288182" stroke-miterlimit="10" stroke-width="1.3612669416666667" stroke-dasharray="6.53408132"/><g transform="translate(539.009274524935,501.1788874288182) translate(-539.009274524935,-501.1788874288182)"><path fill="black" stroke="none" paint-order="stroke fill markers" d=" M 552.6219439416017 494.37255272048486 L 539.009274524935 501.1788874288182 L 552.6219439416017 507.98522213715154 Z"/></g></g><g><rect fill="white" stroke="none" x="169.06642920916667" y="525.6816923788182" width="290.7200189978125" height="21.23576429"/><text fill="black" stroke="none" font-family="sans-serif" font-size="11pt" font-style="normal" font-weight="normal" text-decoration="normal" x="171.51670970416666" y="540.3833753488182" text-anchor="start" dominant-baseline="alphabetic" xml:space="preserve">(8) Display error "Incident reports not found"</text></g><g><path fill="none" stroke="black" paint-order="fill stroke markers" d=" M 522.6740712249349 546.9174566688182 L 119.62813883366667 546.9174566688182" stroke-miterlimit="10" stroke-width="1.3612669416666667" stroke-dasharray="6.53408132"/><g transform="translate(106.17882145,546.9174566688182) translate(-106.17882145,-546.9174566688182)"><path fill="black" stroke="none" paint-order="stroke fill markers" d=" M 119.79149086666666 540.1111219604849 L 106.17882145 546.9174566688182 L 119.79149086666666 553.7237913771515 Z"/></g></g><g><rect fill="white" stroke="none" x="1321.8668722433465" y="615.5253105288182" width="207.7995325476172" height="21.23576429"/><text fill="black" stroke="none" font-family="sans-serif" font-size="11pt" font-style="normal" font-weight="normal" text-decoration="normal" x="1324.3171527383465" y="630.2269934988182" text-anchor="start" dominant-baseline="alphabetic" xml:space="preserve">(5) Return incident reports data</text></g><g><path fill="none" stroke="black" paint-order="fill stroke markers" d=" M 1603.5919458997396 636.7610748188182 L 1261.3906485182372 636.7610748188182" stroke-miterlimit="10" stroke-width="1.3612669416666667" stroke-dasharray="6.53408132"/><g transform="translate(1247.9413311345704,636.7610748188182) translate(-1247.9413311345704,-636.7610748188182)"><path fill="black" stroke="none" paint-order="stroke fill markers" d=" M 1261.554000551237 629.9547401104849 L 1247.9413311345704 636.7610748188182 L 1261.554000551237 643.5674095271515 Z"/></g></g><g><rect fill="white" stroke="none" x="1006.5166742953645" y="661.2638797688181" width="142.60988105835938" height="21.23576429"/><text fill="black" stroke="none" font-family="sans-serif" font-size="11pt" font-style="normal" font-weight="normal" text-decoration="normal" x="1008.9669547903645" y="675.9655627388181" text-anchor="start" dominant-baseline="alphabetic" xml:space="preserve">(6) Return 200 status</text></g><g><path fill="none" stroke="black" paint-order="fill stroke markers" d=" M 1231.6061278345703 682.4996440588181 L 937.486419198185 682.4996440588181" stroke-miterlimit="10" stroke-width="1.3612669416666667" stroke-dasharray="6.53408132"/><g transform="translate(924.0371018145183,682.4996440588181) translate(-924.0371018145183,-682.4996440588181)"><path fill="black" stroke="none" paint-order="stroke fill markers" d=" M 937.649771231185 675.6933093504848 L 924.0371018145183 682.4996440588181 L 937.649771231185 689.3059787671515 Z"/></g></g><g><rect fill="white" stroke="none" x="661.8503200892774" y="707.0024490088181" width="139.34573616089844" height="21.23576429"/><text fill="black" stroke="none" font-family="sans-serif" font-size="11pt" font-style="normal" font-weight="normal" text-decoration="normal" x="664.3006005842774" y="721.704131978818" text-anchor="start" dominant-baseline="alphabetic" xml:space="preserve">(7) Return response </text></g><g><path fill="none" stroke="black" paint-order="fill stroke markers" d=" M 924.0371018145183 728.2382132988181 L 552.4585919086016 728.2382132988181" stroke-miterlimit="10" stroke-width="1.3612669416666667" stroke-dasharray="6.53408132"/><g transform="translate(539.009274524935,728.2382132988181) translate(-539.009274524935,-728.2382132988181)"><path fill="black" stroke="none" paint-order="stroke fill markers" d=" M 552.6219439416017 721.4318785904848 L 539.009274524935 728.2382132988181 L 552.6219439416017 735.0445480071514 Z"/></g></g><g><rect fill="white" stroke="none" x="213.8015671486198" y="752.741018248818" width="201.24975837769531" height="21.23576429"/><text fill="black" stroke="none" font-family="sans-serif" font-size="11pt" font-style="normal" font-weight="normal" text-decoration="normal" x="216.25184764361978" y="767.442701218818" text-anchor="start" dominant-baseline="alphabetic" xml:space="preserve">(8) Display incident reports list</text></g><g><path fill="none" stroke="black" paint-order="fill stroke markers" d=" M 522.6740712249349 773.976782538818 L 119.62813883366667 773.976782538818" stroke-miterlimit="10" stroke-width="1.3612669416666667" stroke-dasharray="6.53408132"/><g transform="translate(106.17882145,773.976782538818) translate(-106.17882145,-773.976782538818)"><path fill="black" stroke="none" paint-order="stroke fill markers" d=" M 119.79149086666666 767.1704478304847 L 106.17882145 773.976782538818 L 119.79149086666666 780.7831172471514 Z"/></g></g><g><rect fill="white" stroke="none" x="176.39640052264323" y="822.982392438818" width="276.0601068884375" height="21.23576429"/><text fill="black" stroke="none" font-family="sans-serif" font-size="11pt" font-style="normal" font-weight="normal" text-decoration="normal" x="178.84668101764322" y="837.684075408818" text-anchor="start" dominant-baseline="alphabetic" xml:space="preserve">(9) Clicks "Update Incident Report" button</text></g><g><path fill="none" stroke="black" paint-order="fill stroke markers" d=" M 106.17882145 844.218156728818 L 509.22475384126824 844.218156728818" stroke-miterlimit="10" stroke-width="1.3612669416666667" stroke-dasharray=""/><g transform="translate(522.6740712249349,844.218156728818) translate(-522.6740712249349,-844.218156728818)"><path fill="black" stroke="none" paint-order="stroke fill markers" d=" M 509.0614018082682 837.4118220204847 L 522.6740712249349 844.218156728818 L 509.0614018082682 851.0244914371514 Z"/></g></g><g><rect fill="white" stroke="none" x="164.47084815447917" y="868.720961678818" width="299.9111811071875" height="21.23576429"/><text fill="black" stroke="none" font-family="sans-serif" font-size="11pt" font-style="normal" font-weight="normal" text-decoration="normal" x="166.92112864947916" y="883.4226446488179" text-anchor="start" dominant-baseline="alphabetic" xml:space="preserve">(10) Show Update Incident Report dashboard</text></g><g><path fill="none" stroke="black" paint-order="fill stroke markers" d=" M 522.6740712249349 889.956725968818 L 119.62813883366667 889.956725968818" stroke-miterlimit="10" stroke-width="1.3612669416666667" stroke-dasharray=""/><g transform="translate(106.17882145,889.956725968818) translate(-106.17882145,-889.956725968818)"><path fill="black" stroke="none" paint-order="stroke fill markers" d=" M 119.79149086666666 883.1503912604846 L 106.17882145 889.956725968818 L 119.79149086666666 896.7630606771513 Z"/></g></g><g><rect fill="white" stroke="none" x="125.50881202166666" y="914.4595309188179" width="377.8352533728125" height="21.23576429"/><text fill="black" stroke="none" font-family="sans-serif" font-size="11pt" font-style="normal" font-weight="normal" text-decoration="normal" x="127.95909251666666" y="929.1612138888179" text-anchor="start" dominant-baseline="alphabetic" xml:space="preserve">(11) Update specified incident report with new information</text></g><g><path fill="none" stroke="black" paint-order="fill stroke markers" d=" M 106.17882145 935.6952952088179 L 509.22475384126824 935.6952952088179" stroke-miterlimit="10" stroke-width="1.3612669416666667" stroke-dasharray=""/><g transform="translate(522.6740712249349,935.6952952088179) translate(-522.6740712249349,-935.6952952088179)"><path fill="black" stroke="none" paint-order="stroke fill markers" d=" M 509.0614018082682 928.8889605004846 L 522.6740712249349 935.6952952088179 L 509.0614018082682 942.5016299171513 Z"/></g></g><g><rect fill="white" stroke="none" x="558.3392650966016" y="960.1981001588179" width="346.36781562867185" height="21.23576429"/><text fill="black" stroke="none" font-family="sans-serif" font-size="11pt" font-style="normal" font-weight="normal" text-decoration="normal" x="560.7895455916016" y="974.8997831288178" text-anchor="start" dominant-baseline="alphabetic" xml:space="preserve">(12) Sends request with updated incident report data</text></g><g><path fill="none" stroke="black" paint-order="fill stroke markers" d=" M 539.009274524935 981.4338644488179 L 910.5877844308517 981.4338644488179" stroke-miterlimit="10" stroke-width="1.3612669416666667" stroke-dasharray=""/><g transform="translate(924.0371018145183,981.4338644488179) translate(-924.0371018145183,-981.4338644488179)"><path fill="black" stroke="none" paint-order="stroke fill markers" d=" M 910.4244323978517 974.6275297404845 L 924.0371018145183 981.4338644488179 L 910.4244323978517 988.2401991571512 Z"/></g></g><g><rect fill="white" stroke="none" x="943.3670923861848" y="1005.9366693988178" width="268.9090448767187" height="21.23576429"/><text fill="black" stroke="none" font-family="sans-serif" font-size="11pt" font-style="normal" font-weight="normal" text-decoration="normal" x="945.8173728811848" y="1020.6383523688178" text-anchor="start" dominant-baseline="alphabetic" xml:space="preserve">(13) Route to Incident Reports Controller</text></g><g><path fill="none" stroke="black" paint-order="fill stroke markers" d=" M 924.0371018145183 1027.1724336888178 L 1218.1568104509035 1027.1724336888178" stroke-miterlimit="10" stroke-width="1.3612669416666667" stroke-dasharray=""/><g transform="translate(1231.6061278345703,1027.1724336888178) translate(-1231.6061278345703,-1027.1724336888178)"><path fill="black" stroke="none" paint-order="stroke fill markers" d=" M 1217.9934584179036 1020.3660989804845 L 1231.6061278345703 1027.1724336888178 L 1217.9934584179036 1033.978768397151 Z"/></g></g><g><rect fill="white" stroke="none" x="1267.2713217062371" y="1051.6752386388177" width="292.5311151892187" height="21.23576429"/><text fill="black" stroke="none" font-family="sans-serif" font-size="11pt" font-style="normal" font-weight="normal" text-decoration="normal" x="1269.7216022012371" y="1066.3769216088178" text-anchor="start" dominant-baseline="alphabetic" xml:space="preserve">(14) Convert JSON to Incident Report object</text></g><g><path fill="none" stroke="black" paint-order="fill stroke markers" d=" M 1247.9413311345704 1072.9110029288179 L 1313.2821443345704 1072.9110029288179 L 1313.2821443345704 1094.1467672188178 L 1261.3906485182372 1094.1467672188178" stroke-miterlimit="10" stroke-width="1.3612669416666667" stroke-dasharray=""/><g transform="translate(1247.9413311345704,1094.1467672188178) translate(-1247.9413311345704,-1094.1467672188178)"><path fill="black" stroke="none" paint-order="stroke fill markers" d=" M 1261.554000551237 1087.3404325104846 L 1247.9413311345704 1094.1467672188178 L 1261.554000551237 1100.953101927151 Z"/></g></g><g><rect fill="white" stroke="none" x="1024.0327723178254" y="1162.754621078818" width="107.5776850134375" height="21.23576429"/><text fill="black" stroke="none" font-family="sans-serif" font-size="11pt" font-style="normal" font-weight="normal" text-decoration="normal" x="1026.4830528128255" y="1177.456304048818" text-anchor="start" dominant-baseline="alphabetic" xml:space="preserve">(15) Return 400</text></g><g><path fill="none" stroke="black" paint-order="fill stroke markers" d=" M 1231.6061278345703 1183.990385368818 L 937.486419198185 1183.990385368818" stroke-miterlimit="10" stroke-width="1.3612669416666667" stroke-dasharray="6.53408132"/><g transform="translate(924.0371018145183,1183.990385368818) translate(-924.0371018145183,-1183.990385368818)"><path fill="black" stroke="none" paint-order="stroke fill markers" d=" M 937.649771231185 1177.1840506604847 L 924.0371018145183 1183.990385368818 L 937.649771231185 1190.7967200771511 Z"/></g></g><g><rect fill="white" stroke="none" x="659.8102352504102" y="1208.493190318818" width="143.42590583863281" height="21.23576429"/><text fill="black" stroke="none" font-family="sans-serif" font-size="11pt" font-style="normal" font-weight="normal" text-decoration="normal" x="662.2605157454102" y="1223.1948732888181" text-anchor="start" dominant-baseline="alphabetic" xml:space="preserve">(16) Return response</text></g><g><path fill="none" stroke="black" paint-order="fill stroke markers" d=" M 924.0371018145183 1229.728954608818 L 552.4585919086016 1229.728954608818" stroke-miterlimit="10" stroke-width="1.3612669416666667" stroke-dasharray="6.53408132"/><g transform="translate(539.009274524935,1229.728954608818) translate(-539.009274524935,-1229.728954608818)"><path fill="black" stroke="none" paint-order="stroke fill markers" d=" M 552.6219439416017 1222.9226199004847 L 539.009274524935 1229.728954608818 L 552.6219439416017 1236.5352893171512 Z"/></g></g><g><rect fill="white" stroke="none" x="140.14733893817058" y="1254.231759558818" width="348.5581842810156" height="21.23576429"/><text fill="black" stroke="none" font-family="sans-serif" font-size="11pt" font-style="normal" font-weight="normal" text-decoration="normal" x="142.59761943317056" y="1268.9334425288182" text-anchor="start" dominant-baseline="alphabetic" xml:space="preserve">(17) Display error "Invalid incident report information"</text></g><g><path fill="none" stroke="black" paint-order="fill stroke markers" d=" M 522.6740712249349 1275.467523848818 L 119.62813883366667 1275.467523848818" stroke-miterlimit="10" stroke-width="1.3612669416666667" stroke-dasharray="6.53408132"/><g transform="translate(106.17882145,1275.467523848818) translate(-106.17882145,-1275.467523848818)"><path fill="black" stroke="none" paint-order="stroke fill markers" d=" M 119.79149086666666 1268.6611891404848 L 106.17882145 1275.467523848818 L 119.79149086666666 1282.2738585571512 Z"/></g></g><g><rect fill="white" stroke="none" x="1267.2713217062371" y="1344.075377708818" width="256.6971765905859" height="21.23576429"/><text fill="black" stroke="none" font-family="sans-serif" font-size="11pt" font-style="normal" font-weight="normal" text-decoration="normal" x="1269.7216022012371" y="1358.777060678818" text-anchor="start" dominant-baseline="alphabetic" xml:space="preserve">(15) Return new Incident Report object</text></g><g><path fill="none" stroke="black" paint-order="fill stroke markers" d=" M 1247.9413311345704 1365.3111419988181 L 1313.2821443345704 1365.3111419988181 L 1313.2821443345704 1386.546906288818 L 1261.3906485182372 1386.546906288818" stroke-miterlimit="10" stroke-width="1.3612669416666667" stroke-dasharray=""/><g transform="translate(1247.9413311345704,1386.546906288818) translate(-1247.9413311345704,-1386.546906288818)"><path fill="black" stroke="none" paint-order="stroke fill markers" d=" M 1261.554000551237 1379.7405715804848 L 1247.9413311345704 1386.546906288818 L 1261.554000551237 1393.3532409971513 Z"/></g></g><g><rect fill="white" stroke="none" x="1267.2713217062371" y="1411.049711238818" width="227.09800972046875" height="21.23576429"/><text fill="black" stroke="none" font-family="sans-serif" font-size="11pt" font-style="normal" font-weight="normal" text-decoration="normal" x="1269.7216022012371" y="1425.751394208818" text-anchor="start" dominant-baseline="alphabetic" xml:space="preserve">(16) Validate incident report object</text></g><g><path fill="none" stroke="black" paint-order="fill stroke markers" d=" M 1247.9413311345704 1432.285475528818 L 1313.2821443345704 1432.285475528818 L 1313.2821443345704 1453.521239818818 L 1261.3906485182372 1453.521239818818" stroke-miterlimit="10" stroke-width="1.3612669416666667" stroke-dasharray=""/><g transform="translate(1247.9413311345704,1453.521239818818) translate(-1247.9413311345704,-1453.521239818818)"><path fill="black" stroke="none" paint-order="stroke fill markers" d=" M 1261.554000551237 1446.7149051104848 L 1247.9413311345704 1453.521239818818 L 1261.554000551237 1460.3275745271512 Z"/></g></g><g><rect fill="white" stroke="none" x="987.7801172885286" y="1522.1290936788182" width="180.08299507203125" height="21.23576429"/><text fill="black" stroke="none" font-family="sans-serif" font-size="11pt" font-style="normal" font-weight="normal" text-decoration="normal" x="990.2303977835286" y="1536.8307766488183" text-anchor="start" dominant-baseline="alphabetic" xml:space="preserve">(17) Return validation error</text></g><g><path fill="none" stroke="black" paint-order="fill stroke markers" d=" M 1231.6061278345703 1543.3648579688181 L 937.486419198185 1543.3648579688181" stroke-miterlimit="10" stroke-width="1.3612669416666667" stroke-dasharray="6.53408132"/><g transform="translate(924.0371018145183,1543.3648579688181) translate(-924.0371018145183,-1543.3648579688181)"><path fill="black" stroke="none" paint-order="stroke fill markers" d=" M 937.649771231185 1536.558523260485 L 924.0371018145183 1543.3648579688181 L 937.649771231185 1550.1711926771513 Z"/></g></g><g><rect fill="white" stroke="none" x="659.8102352504102" y="1567.8676629188183" width="143.42590583863281" height="21.23576429"/><text fill="black" stroke="none" font-family="sans-serif" font-size="11pt" font-style="normal" font-weight="normal" text-decoration="normal" x="662.2605157454102" y="1582.5693458888184" text-anchor="start" dominant-baseline="alphabetic" xml:space="preserve">(18) Return response</text></g><g><path fill="none" stroke="black" paint-order="fill stroke markers" d=" M 924.0371018145183 1589.1034272088182 L 552.4585919086016 1589.1034272088182" stroke-miterlimit="10" stroke-width="1.3612669416666667" stroke-dasharray="6.53408132"/><g transform="translate(539.009274524935,1589.1034272088182) translate(-539.009274524935,-1589.1034272088182)"><path fill="black" stroke="none" paint-order="stroke fill markers" d=" M 552.6219439416017 1582.297092500485 L 539.009274524935 1589.1034272088182 L 552.6219439416017 1595.9097619171514 Z"/></g></g><g><rect fill="white" stroke="none" x="140.14733893817058" y="1613.6062321588183" width="348.5581842810156" height="21.23576429"/><text fill="black" stroke="none" font-family="sans-serif" font-size="11pt" font-style="normal" font-weight="normal" text-decoration="normal" x="142.59761943317056" y="1628.3079151288184" text-anchor="start" dominant-baseline="alphabetic" xml:space="preserve">(19) Display error "Invalid incident report information"</text></g><g><path fill="none" stroke="black" paint-order="fill stroke markers" d=" M 522.6740712249349 1634.8419964488182 L 119.62813883366667 1634.8419964488182" stroke-miterlimit="10" stroke-width="1.3612669416666667" stroke-dasharray="6.53408132"/><g transform="translate(106.17882145,1634.8419964488182) translate(-106.17882145,-1634.8419964488182)"><path fill="black" stroke="none" paint-order="stroke fill markers" d=" M 119.79149086666666 1628.035661740485 L 106.17882145 1634.8419964488182 L 119.79149086666666 1641.6483311571515 Z"/></g></g><g><rect fill="white" stroke="none" x="1267.2713217062371" y="1703.4498503088182" width="202.08728279175781" height="21.23576429"/><text fill="black" stroke="none" font-family="sans-serif" font-size="11pt" font-style="normal" font-weight="normal" text-decoration="normal" x="1269.7216022012371" y="1718.1515332788183" text-anchor="start" dominant-baseline="alphabetic" xml:space="preserve">(17) Return validation success</text></g><g><path fill="none" stroke="black" paint-order="fill stroke markers" d=" M 1247.9413311345704 1724.6856145988183 L 1313.2821443345704 1724.6856145988183 L 1313.2821443345704 1745.9213788888183 L 1261.3906485182372 1745.9213788888183" stroke-miterlimit="10" stroke-width="1.3612669416666667" stroke-dasharray=""/><g transform="translate(1247.9413311345704,1745.9213788888183) translate(-1247.9413311345704,-1745.9213788888183)"><path fill="black" stroke="none" paint-order="stroke fill markers" d=" M 1261.554000551237 1739.115044180485 L 1247.9413311345704 1745.9213788888183 L 1261.554000551237 1752.7277135971515 Z"/></g></g><g><rect fill="white" stroke="none" x="1293.3629507345574" y="1770.4241838388184" width="264.8073603064062" height="21.23576429"/><text fill="black" stroke="none" font-family="sans-serif" font-size="11pt" font-style="normal" font-weight="normal" text-decoration="normal" x="1295.8132312295575" y="1785.1258668088185" text-anchor="start" dominant-baseline="alphabetic" xml:space="preserve">(18) Check if incident report exists by ID</text></g><g><path fill="none" stroke="black" paint-order="fill stroke markers" d=" M 1247.9413311345704 1791.6599481288183 L 1590.1426285160728 1791.6599481288183" stroke-miterlimit="10" stroke-width="1.3612669416666667" stroke-dasharray=""/><g transform="translate(1603.5919458997396,1791.6599481288183) translate(-1603.5919458997396,-1791.6599481288183)"><path fill="black" stroke="none" paint-order="stroke fill markers" d=" M 1589.979276483073 1784.853613420485 L 1603.5919458997396 1791.6599481288183 L 1589.979276483073 1798.4662828371515 Z"/></g></g><g><rect fill="white" stroke="none" x="1305.1524862570184" y="1860.2678019888185" width="241.22830452027344" height="21.23576429"/><text fill="black" stroke="none" font-family="sans-serif" font-size="11pt" font-style="normal" font-weight="normal" text-decoration="normal" x="1307.6027667520184" y="1874.9694849588186" text-anchor="start" dominant-baseline="alphabetic" xml:space="preserve">(19) Return incident report not found</text></g><g><path fill="none" stroke="black" paint-order="fill stroke markers" d=" M 1603.5919458997396 1881.5035662788184 L 1261.3906485182372 1881.5035662788184" stroke-miterlimit="10" stroke-width="1.3612669416666667" stroke-dasharray="6.53408132"/><g transform="translate(1247.9413311345704,1881.5035662788184) translate(-1247.9413311345704,-1881.5035662788184)"><path fill="black" stroke="none" paint-order="stroke fill markers" d=" M 1261.554000551237 1874.6972315704852 L 1247.9413311345704 1881.5035662788184 L 1261.554000551237 1888.3099009871517 Z"/></g></g><g><rect fill="white" stroke="none" x="1002.4400828036653" y="1906.0063712288186" width="150.76306404175781" height="21.23576429"/><text fill="black" stroke="none" font-family="sans-serif" font-size="11pt" font-style="normal" font-weight="normal" text-decoration="normal" x="1004.8903632986653" y="1920.7080541988187" text-anchor="start" dominant-baseline="alphabetic" xml:space="preserve">(20) Return 404 status</text></g><g><path fill="none" stroke="black" paint-order="fill stroke markers" d=" M 1231.6061278345703 1927.2421355188185 L 937.486419198185 1927.2421355188185" stroke-miterlimit="10" stroke-width="1.3612669416666667" stroke-dasharray="6.53408132"/><g transform="translate(924.0371018145183,1927.2421355188185) translate(-924.0371018145183,-1927.2421355188185)"><path fill="black" stroke="none" paint-order="stroke fill markers" d=" M 937.649771231185 1920.4358008104853 L 924.0371018145183 1927.2421355188185 L 937.649771231185 1934.0484702271517 Z"/></g></g><g><rect fill="white" stroke="none" x="657.7737285975782" y="1951.7449404688186" width="147.49891914429688" height="21.23576429"/><text fill="black" stroke="none" font-family="sans-serif" font-size="11pt" font-style="normal" font-weight="normal" text-decoration="normal" x="660.2240090925782" y="1966.4466234388187" text-anchor="start" dominant-baseline="alphabetic" xml:space="preserve">(21) Return response </text></g><g><path fill="none" stroke="black" paint-order="fill stroke markers" d=" M 924.0371018145183 1972.9807047588185 L 552.4585919086016 1972.9807047588185" stroke-miterlimit="10" stroke-width="1.3612669416666667" stroke-dasharray="6.53408132"/><g transform="translate(539.009274524935,1972.9807047588185) translate(-539.009274524935,-1972.9807047588185)"><path fill="black" stroke="none" paint-order="stroke fill markers" d=" M 552.6219439416017 1966.1743700504853 L 539.009274524935 1972.9807047588185 L 552.6219439416017 1979.7870394671518 Z"/></g></g><g><rect fill="white" stroke="none" x="168.65483100360026" y="1997.4835097088187" width="291.54323066773435" height="21.23576429"/><text fill="black" stroke="none" font-family="sans-serif" font-size="11pt" font-style="normal" font-weight="normal" text-decoration="normal" x="171.10511149860025" y="2012.1851926788188" text-anchor="start" dominant-baseline="alphabetic" xml:space="preserve">(22) Display error "Incident report not found"</text></g><g><path fill="none" stroke="black" paint-order="fill stroke markers" d=" M 522.6740712249349 2018.7192739988186 L 119.62813883366667 2018.7192739988186" stroke-miterlimit="10" stroke-width="1.3612669416666667" stroke-dasharray="6.53408132"/><g transform="translate(106.17882145,2018.7192739988186) translate(-106.17882145,-2018.7192739988186)"><path fill="black" stroke="none" paint-order="stroke fill markers" d=" M 119.79149086666666 2011.9129392904854 L 106.17882145 2018.7192739988186 L 119.79149086666666 2025.5256087071518 Z"/></g></g><g><rect fill="white" stroke="none" x="1321.45527403778" y="2087.327127858818" width="208.62272895875" height="21.23576429"/><text fill="black" stroke="none" font-family="sans-serif" font-size="11pt" font-style="normal" font-weight="normal" text-decoration="normal" x="1323.9055545327801" y="2102.028810828818" text-anchor="start" dominant-baseline="alphabetic" xml:space="preserve">(19) Return incident report data</text></g><g><path fill="none" stroke="black" paint-order="fill stroke markers" d=" M 1603.5919458997396 2108.5628921488183 L 1261.3906485182372 2108.5628921488183" stroke-miterlimit="10" stroke-width="1.3612669416666667" stroke-dasharray="6.53408132"/><g transform="translate(1247.9413311345704,2108.5628921488183) translate(-1247.9413311345704,-2108.5628921488183)"><path fill="black" stroke="none" paint-order="stroke fill markers" d=" M 1261.554000551237 2101.756557440485 L 1247.9413311345704 2108.5628921488183 L 1261.554000551237 2115.3692268571517 Z"/></g></g><g><rect fill="white" stroke="none" x="1267.2713217062371" y="2133.065697098818" width="316.990648880625" height="21.23576429"/><text fill="black" stroke="none" font-family="sans-serif" font-size="11pt" font-style="normal" font-weight="normal" text-decoration="normal" x="1269.7216022012371" y="2147.767380068818" text-anchor="start" dominant-baseline="alphabetic" xml:space="preserve">(20) Update incident report with new information</text></g><g><path fill="none" stroke="black" paint-order="fill stroke markers" d=" M 1247.9413311345704 2154.301461388818 L 1590.1426285160728 2154.301461388818" stroke-miterlimit="10" stroke-width="1.3612669416666667" stroke-dasharray=""/><g transform="translate(1603.5919458997396,2154.301461388818) translate(-1603.5919458997396,-2154.301461388818)"><path fill="black" stroke="none" paint-order="stroke fill markers" d=" M 1589.979276483073 2147.4951266804846 L 1603.5919458997396 2154.301461388818 L 1589.979276483073 2161.1077960971515 Z"/></g></g><g><rect fill="white" stroke="none" x="1309.2254995626824" y="2178.804266338818" width="233.08227790894531" height="21.23576429"/><text fill="black" stroke="none" font-family="sans-serif" font-size="11pt" font-style="normal" font-weight="normal" text-decoration="normal" x="1311.6757800576825" y="2193.505949308818" text-anchor="start" dominant-baseline="alphabetic" xml:space="preserve">(21) Return updated incident report</text></g><g><path fill="none" stroke="black" paint-order="fill stroke markers" d=" M 1603.5919458997396 2200.040030628818 L 1261.3906485182372 2200.040030628818" stroke-miterlimit="10" stroke-width="1.3612669416666667" stroke-dasharray="6.53408132"/><g transform="translate(1247.9413311345704,2200.040030628818) translate(-1247.9413311345704,-2200.040030628818)"><path fill="black" stroke="none" paint-order="stroke fill markers" d=" M 1261.554000551237 2193.2336959204845 L 1247.9413311345704 2200.040030628818 L 1261.554000551237 2206.8463653371514 Z"/></g></g><g><rect fill="white" stroke="none" x="1002.4400828036653" y="2224.5428355788176" width="150.76306404175781" height="21.23576429"/><text fill="black" stroke="none" font-family="sans-serif" font-size="11pt" font-style="normal" font-weight="normal" text-decoration="normal" x="1004.8903632986653" y="2239.2445185488177" text-anchor="start" dominant-baseline="alphabetic" xml:space="preserve">(22) Return 200 status</text></g><g><path fill="none" stroke="black" paint-order="fill stroke markers" d=" M 1231.6061278345703 2245.7785998688178 L 937.486419198185 2245.7785998688178" stroke-miterlimit="10" stroke-width="1.3612669416666667" stroke-dasharray="6.53408132"/><g transform="translate(924.0371018145183,2245.7785998688178) translate(-924.0371018145183,-2245.7785998688178)"><path fill="black" stroke="none" paint-order="stroke fill markers" d=" M 937.649771231185 2238.9722651604843 L 924.0371018145183 2245.7785998688178 L 937.649771231185 2252.584934577151 Z"/></g></g><g><rect fill="white" stroke="none" x="659.8102352504102" y="2270.2814048188175" width="143.42590583863281" height="21.23576429"/><text fill="black" stroke="none" font-family="sans-serif" font-size="11pt" font-style="normal" font-weight="normal" text-decoration="normal" x="662.2605157454102" y="2284.9830877888176" text-anchor="start" dominant-baseline="alphabetic" xml:space="preserve">(23) Return response</text></g><g><path fill="none" stroke="black" paint-order="fill stroke markers" d=" M 924.0371018145183 2291.5171691088176 L 552.4585919086016 2291.5171691088176" stroke-miterlimit="10" stroke-width="1.3612669416666667" stroke-dasharray="6.53408132"/><g transform="translate(539.009274524935,2291.5171691088176) translate(-539.009274524935,-2291.5171691088176)"><path fill="black" stroke="none" paint-order="stroke fill markers" d=" M 552.6219439416017 2284.710834400484 L 539.009274524935 2291.5171691088176 L 552.6219439416017 2298.323503817151 Z"/></g></g><g><rect fill="white" stroke="none" x="195.85238654559245" y="2316.0199740588173" width="237.14811958375" height="21.23576429"/><text fill="black" stroke="none" font-family="sans-serif" font-size="11pt" font-style="normal" font-weight="normal" text-decoration="normal" x="198.30266704059244" y="2330.7216570288174" text-anchor="start" dominant-baseline="alphabetic" xml:space="preserve">(24) Display updated incident report</text></g><g><path fill="none" stroke="black" paint-order="fill stroke markers" d=" M 522.6740712249349 2337.2557383488174 L 119.62813883366667 2337.2557383488174" stroke-miterlimit="10" stroke-width="1.3612669416666667" stroke-dasharray="6.53408132"/><g transform="translate(106.17882145,2337.2557383488174) translate(-106.17882145,-2337.2557383488174)"><path fill="black" stroke="none" paint-order="stroke fill markers" d=" M 119.79149086666666 2330.449403640484 L 106.17882145 2337.2557383488174 L 119.79149086666666 2344.062073057151 Z"/></g></g><g><g/><path fill="none" stroke="black" paint-order="fill stroke markers" d=" M 49.0056099 344.3609357488182 L 1668.9327590997395 344.3609357488182 L 1668.9327590997395 798.4795874888181 L 49.0056099 798.4795874888181 L 49.0056099 344.3609357488182 Z" stroke-miterlimit="10" stroke-width="2.3336004714285714" stroke-dasharray=""/><path fill="white" stroke="black" paint-order="fill stroke markers" d=" M 49.0056099 344.3609357488182 L 49.0056099 363.9631797088182 L 95.36481349707032 363.9631797088182 L 105.16593547707032 354.1620577288182 L 105.16593547707032 344.3609357488182 L 49.0056099 344.3609357488182" stroke-miterlimit="10" stroke-width="2.3336004714285714" stroke-dasharray=""/><text fill="black" stroke="none" font-family="sans-serif" font-size="8.8pt" font-style="normal" font-weight="bold" text-decoration="normal" x="65.3408132" y="357.4290983888182" text-anchor="start" dominant-baseline="alphabetic" xml:space="preserve">alt</text><g><rect fill="white" stroke="none" x="119.05085828207032" y="345.6677520128182" width="179.54445137085938" height="16.988611432000003"/></g><text fill="black" stroke="none" font-family="sans-serif" font-size="8.8pt" font-style="normal" font-weight="bold" text-decoration="normal" x="121.50113877707032" y="357.4290983888182" text-anchor="start" dominant-baseline="alphabetic" xml:space="preserve">[Incident reports are not found]</text><g><path fill="none" stroke="black" paint-order="fill stroke markers" d=" M 49.0056099 571.4202616188182 L 1668.9327590997395 571.4202616188182" stroke-miterlimit="10" stroke-width="2.3336004714285714" stroke-dasharray="4.083800825"/></g><g/><g><rect fill="white" stroke="none" x="119.05085828207032" y="572.7270778828182" width="158.04902900757813" height="16.988611432000003"/></g><text fill="black" stroke="none" font-family="sans-serif" font-size="8.8pt" font-style="normal" font-weight="bold" text-decoration="normal" x="121.50113877707032" y="584.4884242588182" text-anchor="start" dominant-baseline="alphabetic" xml:space="preserve">[Incident reports are found]</text></g><g/><g><g/><path fill="none" stroke="black" paint-order="fill stroke markers" d=" M 16.335203300000003 1118.649572168818 L 1701.6031656997397 1118.649572168818 L 1701.6031656997397 2410.764153198818 L 16.335203300000003 2410.764153198818 L 16.335203300000003 1118.649572168818 Z" stroke-miterlimit="10" stroke-width="2.3336004714285714" stroke-dasharray=""/><path fill="white" stroke="black" paint-order="fill stroke markers" d=" M 16.335203300000003 1118.649572168818 L 16.335203300000003 1138.2518161288178 L 62.694406897070316 1138.2518161288178 L 72.49552887707031 1128.450694148818 L 72.49552887707031 1118.649572168818 L 16.335203300000003 1118.649572168818" stroke-miterlimit="10" stroke-width="2.3336004714285714" stroke-dasharray=""/><text fill="black" stroke="none" font-family="sans-serif" font-size="8.8pt" font-style="normal" font-weight="bold" text-decoration="normal" x="32.67040660000001" y="1131.7177348088178" text-anchor="start" dominant-baseline="alphabetic" xml:space="preserve">alt</text><g><rect fill="white" stroke="none" x="86.38045168207032" y="1119.956388432818" width="137.22374214234375" height="16.988611432000003"/></g><text fill="black" stroke="none" font-family="sans-serif" font-size="8.8pt" font-style="normal" font-weight="bold" text-decoration="normal" x="88.83073217707032" y="1131.7177348088178" text-anchor="start" dominant-baseline="alphabetic" xml:space="preserve">[JSON conversion fails]</text><g><path fill="none" stroke="black" paint-order="fill stroke markers" d=" M 16.335203300000003 1299.9703287988182 L 1701.6031656997397 1299.9703287988182" stroke-miterlimit="10" stroke-width="2.3336004714285714" stroke-dasharray="4.083800825"/></g><g/><g><rect fill="white" stroke="none" x="86.38045168207032" y="1301.2771450628181" width="167.22461189332031" height="16.988611432000003"/></g><text fill="black" stroke="none" font-family="sans-serif" font-size="8.8pt" font-style="normal" font-weight="bold" text-decoration="normal" x="88.83073217707032" y="1313.038491438818" text-anchor="start" dominant-baseline="alphabetic" xml:space="preserve">[JSON conversion succeeds]</text></g><g/><g><g/><path fill="none" stroke="black" paint-order="fill stroke markers" d=" M 32.67040660000001 1478.0240447688182 L 1685.2679623997396 1478.0240447688182 L 1685.2679623997396 2386.2613482488177 L 32.67040660000001 2386.2613482488177 L 32.67040660000001 1478.0240447688182 Z" stroke-miterlimit="10" stroke-width="2.3336004714285714" stroke-dasharray=""/><path fill="white" stroke="black" paint-order="fill stroke markers" d=" M 32.67040660000001 1478.0240447688182 L 32.67040660000001 1497.626288728818 L 79.02961019707033 1497.626288728818 L 88.83073217707033 1487.8251667488182 L 88.83073217707033 1478.0240447688182 L 32.67040660000001 1478.0240447688182" stroke-miterlimit="10" stroke-width="2.3336004714285714" stroke-dasharray=""/><text fill="black" stroke="none" font-family="sans-serif" font-size="8.8pt" font-style="normal" font-weight="bold" text-decoration="normal" x="49.00560990000001" y="1491.092207408818" text-anchor="start" dominant-baseline="alphabetic" xml:space="preserve">alt</text><g><rect fill="white" stroke="none" x="102.71565498207033" y="1479.3308610328181" width="94.84569038453125" height="16.988611432000003"/></g><text fill="black" stroke="none" font-family="sans-serif" font-size="8.8pt" font-style="normal" font-weight="bold" text-decoration="normal" x="105.16593547707033" y="1491.092207408818" text-anchor="start" dominant-baseline="alphabetic" xml:space="preserve">[Validation fails]</text><g><path fill="none" stroke="black" paint-order="fill stroke markers" d=" M 32.67040660000001 1659.3448013988184 L 1685.2679623997396 1659.3448013988184" stroke-miterlimit="10" stroke-width="2.3336004714285714" stroke-dasharray="4.083800825"/></g><g/><g><rect fill="white" stroke="none" x="102.71565498207033" y="1660.6516176628184" width="111.15774787964844" height="16.988611432000003"/></g><text fill="black" stroke="none" font-family="sans-serif" font-size="8.8pt" font-style="normal" font-weight="bold" text-decoration="normal" x="105.16593547707033" y="1672.4129640388182" text-anchor="start" dominant-baseline="alphabetic" xml:space="preserve">[Validation passes]</text></g><g/><g><g/><path fill="none" stroke="black" paint-order="fill stroke markers" d=" M 49.0056099 1816.1627530788185 L 1668.9327590997395 1816.1627530788185 L 1668.9327590997395 2361.7585432988176 L 49.0056099 2361.7585432988176 L 49.0056099 1816.1627530788185 Z" stroke-miterlimit="10" stroke-width="2.3336004714285714" stroke-dasharray=""/><path fill="white" stroke="black" paint-order="fill stroke markers" d=" M 49.0056099 1816.1627530788185 L 49.0056099 1835.7649970388184 L 95.36481349707032 1835.7649970388184 L 105.16593547707032 1825.9638750588185 L 105.16593547707032 1816.1627530788185 L 49.0056099 1816.1627530788185" stroke-miterlimit="10" stroke-width="2.3336004714285714" stroke-dasharray=""/><text fill="black" stroke="none" font-family="sans-serif" font-size="8.8pt" font-style="normal" font-weight="bold" text-decoration="normal" x="65.3408132" y="1829.2309157188183" text-anchor="start" dominant-baseline="alphabetic" xml:space="preserve">alt</text><g><rect fill="white" stroke="none" x="119.05085828207032" y="1817.4695693428184" width="152.14966072144531" height="16.988611432000003"/></g><text fill="black" stroke="none" font-family="sans-serif" font-size="8.8pt" font-style="normal" font-weight="bold" text-decoration="normal" x="121.50113877707032" y="1829.2309157188183" text-anchor="start" dominant-baseline="alphabetic" xml:space="preserve">[Incident report not found]</text><g><path fill="none" stroke="black" paint-order="fill stroke markers" d=" M 49.0056099 2043.2220789488185 L 1668.9327590997395 2043.2220789488185" stroke-miterlimit="10" stroke-width="2.3336004714285714" stroke-dasharray="4.083800825"/></g><g/><g><rect fill="white" stroke="none" x="119.05085828207032" y="2044.5288952128185" width="130.65423835816406" height="16.988611432000003"/></g><text fill="black" stroke="none" font-family="sans-serif" font-size="8.8pt" font-style="normal" font-weight="bold" text-decoration="normal" x="121.50113877707032" y="2056.2902415888184" text-anchor="start" dominant-baseline="alphabetic" xml:space="preserve">[Incident report found]</text></g><g/></g><g/><g/><g/></g></svg>