<svg version="1.1" xmlns="http://www.w3.org/2000/svg" xmlns:xlink="http://www.w3.org/1999/xlink" width="1651.8759337939289" height="2083.790499228272"><desc>title%20Accounts%0A%0Aactor%20Staff%0Aparticipant%20%22Staff%20Front-end%22%20as%20Staff%20Frontend%0Aparticipant%20NGINX%0Aparticipant%20%22Accounts%20Microservice%22%20as%20AccountsService%0Adatabase%20Accounts%20Database%0A%0AStaff%20-%3E%20Staff%20Frontend%20%3A%20Login%20attempt%0AStaff%20Frontend%20-%3E%20NGINX%20%3A%20Post%20Login%20attempt%0ANGINX%20-%3E%20AccountsService%20%3A%20Route%20to%20Accounts%20Microservice%0AAccountsService%20-%3E%20Accounts%20Database%20%3A%20Select%20Username%20and%20Password%20hash%0AAccounts%20Database%20--%3E%20AccountsService%20%3A%20Return%20existing%20user%20data%0A%0Aalt%20login%20was%20successful%0A%20%20%20%20AccountsService%20--%3E%20NGINX%20%3A%20Return%20success%20status%20response%20with%20success%20message%20body%0A%20%20%20%20NGINX%20--%3E%20Staff%20Frontend%20%3A%20Forward%20request%0A%20%20%20%20Staff%20Frontend%20--%3E%20Staff%20%3A%20Route%20user%20to%20homepage%0Aelse%20login%20was%20unsuccessful%0A%20%20%20%20AccountsService%20--%3E%20NGINX%20%3A%20Return%20error%20status%20with%20error%20message%20body%0A%20%20%20%20NGINX%20--%3E%20Staff%20Frontend%20%3A%20Forward%20response%0A%20%20%20%20Staff%20Frontend%20--%3E%20Staff%20%3A%20Display%20login%20fail%20message%0Aend%0A%0AStaff%20-%3E%20Staff%20Frontend%20%3A%20Create%20new%20Staff%0AStaff%20Frontend%20-%3E%20NGINX%20%3A%20Post%20request%20for%20Staff%20creation%0ANGINX%20-%3E%20AccountsService%20%3A%20Forward%20request%0AAccountsService%20-%3E%20Accounts%20Database%20%3A%20Get%20existing%20users%0AAccountsService%20%3C-%20Accounts%20Database%20%3A%20Return%20existing%20users%0Aalt%20Creation%20successsful%0A%20%20%20%20AccountsService%20--%3E%20NGINX%20%3A%20Return%20success%20status%20response%20with%20success%20message%20body%0A%20%20%20%20NGINX%20--%3E%20Staff%20Frontend%20%3A%20Forward%20response%0A%20%20%20%20Staff%20Frontend%20--%3E%20Staff%20%3A%20Route%20to%20login%20page%0Aelse%20Creation%20error%0A%20%20%20%20AccountsService%20--%3E%20NGINX%20%3A%20Return%20error%20status%20with%20error%20message%20body%0A%20%20%20%20NGINX%20--%3E%20Staff%20Frontend%20%3A%20Forward%20response%20%0A%20%20%20%20Staff%20Frontend%20--%3E%20Staff%20%3A%20Display%20account%20creation%20fail%20message%0Aend%0A%0A%20%20%20%20%20%20%20%0A</desc><defs/><g><g/><g/><g/><g/><g/><g/><g/><g/><g/><g/><g/><g/><g/><g/><g/><g/><g/><g/><g/><g/><g/><g/><g/><g/><g/><g/><g/><g/><g/><g/><g/><g/><g/><g/><g/><g/><g/><g/><g/><g/><g/><g/><g/><g/><g/><g/><g/><g/><g/><g/><g/><g/><g/><g/><g/><g/><g/><g/><g/><g/><g/><g/><g/><g/><g/><g/><g/><g/><g/><g/><g/><g/><g/><g/><g/><g/><g/><g/><g/><g/><g/><g/><g/><g/><g/><g/><g/><g/><g/><g/><g/><g/><g/><g/><g/><g/><g/><g/><g/><g/><g/><g/><g/><g/><g/><g/><g/><g/><g/><g/><g/><g/><g/><g/><g/><g/><g/><g/><g/><g/><g/><g/><g/><g/><g/><g/><g/><g/><g/><g/><g/><g/><g/><g/><g/><g/><g/><g/><g/><g/><g/><g/><g/><g/><g/><g/><g/><g/><g/><g/><g/><g/><g/><g/><g/><g/><g/><g/><g/><g/><g/><g/><g/><g/><g/><g/><g/><g/><g/><g/><g/><g/><g/><g/><g/><g/><g/><g/><g/><g/><g/><g/><g/><g/><g/><g/><g/><g/><g/><g/><g><rect fill="white" stroke="none" x="0" y="0" width="1651" height="2083"/></g><g/><g><path fill="none" stroke="black" paint-order="fill stroke markers" d=" M 107.43537555 188.1529839682727 L 107.43537555 2083.790499228272" stroke-miterlimit="10" stroke-width="1.9895439916666666" stroke-dasharray="18.36502146153846,7.9581759666666665"/><path fill="none" stroke="black" paint-order="fill stroke markers" d=" M 449.78411572657063 188.1529839682727 L 449.78411572657063 2083.790499228272" stroke-miterlimit="10" stroke-width="1.9895439916666666" stroke-dasharray="18.36502146153846,7.9581759666666665"/><path fill="none" stroke="black" paint-order="fill stroke markers" d=" M 732.2661910166667 188.1529839682727 L 732.2661910166667 2083.790499228272" stroke-miterlimit="10" stroke-width="1.9895439916666666" stroke-dasharray="18.36502146153846,7.9581759666666665"/><path fill="none" stroke="black" paint-order="fill stroke markers" d=" M 1236.18159875 188.1529839682727 L 1236.18159875 2083.790499228272" stroke-miterlimit="10" stroke-width="1.9895439916666666" stroke-dasharray="18.36502146153846,7.9581759666666665"/><path fill="none" stroke="black" paint-order="fill stroke markers" d=" M 1569.3303400709797 188.1529839682727 L 1569.3303400709797 2083.790499228272" stroke-miterlimit="10" stroke-width="1.9895439916666666" stroke-dasharray="18.36502146153846,7.9581759666666665"/></g><g><g><path fill="white" stroke="black" paint-order="fill stroke markers" d=" M 121.043856453 87.16373095127274 A 13.608480902999998 13.608480902999998 0 1 1 121.04384964876012 87.15012247263782 M 107.43537555 100.77221185427274 L 107.43537555 129.89913589227274 M 90.245715462 111.27700413027273 L 124.625035638 111.27700413027273 M 107.43537555 129.89913589227274 L 90.245715462 157.11609769827274 M 107.43537555 129.89913589227274 L 124.625035638 157.11609769827274" stroke-miterlimit="10" stroke-width="4.058669743" stroke-dasharray=""/></g><g><g/><text fill="black" stroke="none" font-family="sans-serif" font-size="11pt" font-style="normal" font-weight="normal" text-decoration="normal" x="90.39370951911621" y="180.99062559827274" text-anchor="start" dominant-baseline="alphabetic" xml:space="preserve">Staff</text></g><path fill="none" stroke="none"/><g><path fill="white" stroke="black" paint-order="fill stroke markers" d=" M 369.57192051183335 123.93050391727273 L 529.9963109413079 123.93050391727273 L 529.9963109413079 188.15298396827274 L 369.57192051183335 188.15298396827274 L 369.57192051183335 123.93050391727273 Z" stroke-miterlimit="10" stroke-width="3.819924464" stroke-dasharray=""/></g><g><text fill="black" stroke="none" font-family="sans-serif" font-size="11pt" font-style="normal" font-weight="normal" text-decoration="normal" x="395.4757813759847" y="164.27845606827273" text-anchor="start" dominant-baseline="alphabetic" xml:space="preserve">Staff Front-end</text></g><path fill="none" stroke="none"/><g><path fill="white" stroke="black" paint-order="fill stroke markers" d=" M 682.5623290081061 123.69175863827273 L 781.9700530252271 123.69175863827273 L 781.9700530252271 188.15298396827274 L 682.5623290081061 188.15298396827274 L 682.5623290081061 123.69175863827273 Z" stroke-miterlimit="10" stroke-width="3.819924464" stroke-dasharray=""/></g><g><g/><text fill="black" stroke="none" font-family="sans-serif" font-size="11pt" font-style="normal" font-weight="normal" text-decoration="normal" x="708.4661917796061" y="164.27845606827273" text-anchor="start" dominant-baseline="alphabetic" xml:space="preserve">NGINX</text></g><path fill="none" stroke="none"/><g><path fill="white" stroke="black" paint-order="fill stroke markers" d=" M 1128.6694062055508 123.93050391727273 L 1343.6937912944493 123.93050391727273 L 1343.6937912944493 188.15298396827274 L 1128.6694062055508 188.15298396827274 L 1128.6694062055508 123.93050391727273 Z" stroke-miterlimit="10" stroke-width="3.819924464" stroke-dasharray=""/></g><g><text fill="black" stroke="none" font-family="sans-serif" font-size="11pt" font-style="normal" font-weight="normal" text-decoration="normal" x="1154.5732689770507" y="164.27845606827273" text-anchor="start" dominant-baseline="alphabetic" xml:space="preserve">Accounts Microservice</text></g><g><path fill="white" stroke="black" paint-order="fill stroke markers" d=" M 1534.4735293369797 141.35890928427273 L 1534.4735293369797 91.22240069427274 L 1604.1871508049796 91.22240069427274 L 1604.1871508049796 141.35890928427273" stroke-miterlimit="10" stroke-width="4.058669743" stroke-dasharray=""/><path fill="white" stroke="black" paint-order="fill stroke markers" d=" M 1604.1871508049796 89.47956015757273 L 1604.1854079789666 89.6371294155278 L 1604.1801796752086 89.79468291668837 L 1604.1714664165315 89.95220490583563 L 1604.159269074254 90.10967963090194 L 1604.1435888681003 90.26709134454602 L 1604.1244273660777 90.42442430572765 L 1604.1017864843207 90.58166278128188 L 1604.0756684868984 90.73879104749214 L 1604.0460759855887 90.89579339166276 L 1604.0130119396174 91.05265411369017 L 1603.9764796553613 91.20935752763287 L 1603.9364827860186 91.36588796328006 L 1603.8930253312426 91.52222976771861 L 1603.8461116367428 91.67836730689837 L 1603.7957463938494 91.83428496719553 L 1603.741934639045 91.98996715697399 L 1603.6846817534597 92.14539830814451 L 1603.623993462335 92.30056287772149 L 1603.5598758344488 92.4554453493773 L 1603.4923352815108 92.61003023499381 L 1603.4213785575203 92.7643020762113 L 1603.34701275809 92.9182454459742 L 1603.269245319738 93.07184495007382 L 1603.1880840191436 93.22508522868775 L 1603.1035369723693 93.37795095791583 L 1603.0156126340487 93.53042685131253 L 1602.924319796543 93.68249766141557 L 1602.8296675890597 93.83414818127065 L 1602.7316654767403 93.98536324595217 L 1602.630323259715 94.13612773407968 L 1602.5256510721206 94.28642656933 L 1602.4176593810887 94.43624472194486 L 1602.3063589856984 94.58556721023383 L 1602.1917610158966 94.73437910207252 L 1602.0738769313848 94.88266551639578 L 1601.9527185204731 95.03041162468571 L 1601.8282978989018 95.17760265245464 L 1601.7006275086292 95.32422388072243 L 1601.5697201165879 95.47026064748844 L 1601.4355888134082 95.61569834919769 L 1601.2982470121085 95.76052244220121 L 1601.1577084467544 95.90471844421039 L 1601.0139871710855 96.04827193574518 L 1600.8670975571097 96.19116856157606 L 1600.7170542936656 96.33339403215953 L 1600.563872384955 96.47493412506707 L 1600.4075671490407 96.61577468640729 L 1600.2481542163162 96.75590163224146 L 1600.0856495279418 96.89530094999176 L 1599.9200693342511 97.0339586998426 L 1599.7514301931255 97.1718610161345 L 1599.5797489683387 97.3089941087508 L 1599.4050428278697 97.44534426449646 L 1599.2273292421871 97.58089784846958 L 1599.0466259825016 97.71564130542468 L 1598.8629511189886 97.84956116112839 L 1598.6763230189808 97.98264402370673 L 1598.4867603451335 98.11487658498432 L 1598.2942820535554 98.24624562181525 L 1598.0989073919159 98.37673799740529 L 1597.9006558975177 98.50634066262565 L 1597.6995473953457 98.63504065731779 L 1597.4956019960819 98.7628251115895 L 1597.2888400940967 98.88968124710183 L 1597.0792823654078 99.01559637834697 L 1596.8669497656135 99.14055791391668 L 1596.651863527797 99.26455335776157 L 1596.4340451604025 99.38757031044058 L 1596.2135164450856 99.50959647036095 L 1595.9902994345337 99.63061963500836 L 1595.764416450262 99.75062770216722 L 1595.5358900803808 99.86960867113083 L 1595.3047431773364 99.98755064390141 L 1595.0709988556266 100.10444182638 L 1594.834680489489 100.22027052954574 L 1594.5958117105629 100.33502517062486 L 1594.3544164055274 100.44869427424885 L 1594.1105187137118 100.56126647360209 L 1593.864143024682 100.67273051155846 L 1593.6153139758017 100.78307524180704 L 1593.3640564497682 100.89228962996675 L 1593.110395572125 101.0003627546898 L 1592.8543567087481 101.10728380875378 L 1592.595965463311 101.21304210014237 L 1592.3352476747225 101.31762705311459 L 1592.0722294145442 101.42102820926226 L 1591.8069369843831 101.52323522855596 L 1591.539396913261 101.62423789037894 L 1591.2696359549625 101.72402609454915 L 1590.997681085358 101.82258986232935 L 1590.7235594997082 101.9199193374249 L 1590.4472986099431 102.0160047869694 L 1590.1689260419216 102.11083660249795 L 1589.8884696326684 102.20440530090806 L 1589.6059574275907 102.29670152540783 L 1589.3214176776737 102.38771604645171 L 1589.034878836655 102.4774397626635 L 1588.7463695581803 102.56586370174628 L 1588.4559186929368 102.65297902137988 L 1588.1635552857692 102.7387770101049 L 1587.8693085727743 102.82324908819398 L 1587.5732079783784 102.9063868085097 L 1587.275283112394 102.98818185734932 L 1586.9755637670594 103.0686260552761 L 1586.6740799140596 103.1477113579373 L 1586.3708617015286 103.22542985686854 L 1586.0659394510349 103.30177378028472 L 1585.7593436545496 103.37673549385708 L 1585.4511049713965 103.45030750147677 L 1585.1412542251876 103.52248244600432 L 1584.8298224007387 103.59325311000542 L 1584.5168406409732 103.66261241647264 L 1584.202340243806 103.73055342953315 L 1583.8863526590148 103.79706935514226 L 1583.5689094850948 103.86215354176281 L 1583.2500424660986 103.92579948103041 L 1582.929783488463 103.98800080840415 L 1582.6081645778183 104.04875130380314 L 1582.2852178957876 104.10804489222845 L 1581.9609757367703 104.16587564437067 L 1581.6354705247118 104.22223777720276 L 1581.3087348098622 104.2771256545584 L 1580.9808012655208 104.33053378769563 L 1580.6517026847685 104.3824568358456 L 1580.3214719771893 104.43288960674678 L 1579.9901421655786 104.48182705716411 L 1579.6577463826418 104.52926429339334 L 1579.3243178676798 104.57519657175035 L 1578.9898899632665 104.61961929904561 L 1578.6544961119137 104.6625280330434 L 1578.3181698527267 104.70391848290606 L 1577.9809448180513 104.74378650962312 L 1577.6428547301102 104.78212812642512 L 1577.30393339763 104.81893949918232 L 1576.964214712462 104.85421694678814 L 1576.6237326461915 104.88795694152722 L 1576.2825212467412 104.92015610942818 L 1575.9406146349668 104.95081123060109 L 1575.5980470012444 104.97991923955935 L 1575.254852602052 105.00747722552633 L 1574.9110657565438 105.03348243272642 L 1574.5667208431175 105.05793226066054 L 1574.2218522959777 105.08082426436629 L 1573.8764946016915 105.10215615466235 L 1573.5306822957407 105.12192579837752 L 1573.184449959068 105.14013121856385 L 1572.837832214618 105.15677059469452 L 1572.4908637238764 105.17184226284577 L 1572.1435791834035 105.18534471586337 L 1571.7960133213635 105.19727660351323 L 1571.4482008940533 105.20763673261655 L 1571.1001766824256 105.21642406716907 L 1570.7519754886118 105.22363772844463 L 1570.4036321324409 105.22927699508311 L 1570.0551814479581 105.23334130316258 L 1569.7066582799418 105.23583024625559 L 1569.358097480418 105.23674357546992 L 1569.0095339051766 105.23608119947339 L 1568.6610024102843 105.23384318450307 L 1568.3125378486004 105.23002975435858 L 1567.9641750662904 105.22464129037975 L 1567.6159488993426 105.21767833140851 L 1567.2678941700833 105.20914157373494 L 1566.9200456836952 105.19903187102769 L 1566.5724382247374 105.18735023424861 L 1566.225106553666 105.17409783155163 L 1565.8780854033587 105.15927598816602 L 1565.531409475641 105.14288618626372 L 1565.1851134378173 105.12493006481128 L 1564.8392319192026 105.10540941940587 L 1564.4937995076605 105.0843262020958 L 1564.148850746144 105.06168252118519 L 1563.8044201292425 105.03748064102328 L 1563.46054209973 105.01172298177791 L 1563.1172510451233 104.98441211919355 L 1562.7745812942414 104.9555507843337 L 1562.4325671137742 104.92514186330779 L 1562.0912427048547 104.89318839698257 L 1561.750642199639 104.85969358067806 L 1561.4107996578944 104.82466076384797 L 1561.0717490635911 104.7880934497448 L 1560.7335243215068 104.7499952950695 L 1560.3961592538333 104.71037010960575 L 1560.0596875967963 104.6692218558391 L 1559.7241429972812 104.62655464856063 L 1559.3895590094685 104.5823727544555 L 1559.055969091478 104.53668059167634 L 1558.7234066020233 104.48948272940132 L 1558.3919047970764 104.44078388737735 L 1558.0614968265415 104.39058893544804 L 1557.7322157309407 104.33890289306676 L 1557.4040944381086 104.28573092879466 L 1557.0771657599014 104.2310783597839 L 1556.7514623889142 104.1749506512458 L 1556.427016895213 104.11735341590443 L 1556.1038617230765 104.05829241343537 L 1555.782029187753 103.99777354988962 L 1555.4615514722275 103.93580287710311 L 1555.1424606240046 103.87238659209147 L 1554.824788551903 103.80753103643038 L 1554.5085670228657 103.74124269562132 L 1554.1938276587816 103.67352819844315 L 1553.880601933325 103.60439431628917 L 1553.5689211688075 103.53384796248997 L 1553.2588165330455 103.46189619162216 L 1552.9503190362448 103.38854619880283 L 1552.6434595278972 103.31380531897018 L 1552.3382686936984 103.23768102614987 L 1552.0347770524775 103.16018093270779 L 1551.7330149531454 103.08131278858866 L 1551.4330125716606 103.00108448054118 L 1551.1347999080112 102.91950403132931 L 1550.8384067832155 102.83657959892997 L 1550.5438628363386 102.75231947571733 L 1550.2511975215298 102.66673208763345 L 1549.9604401050767 102.57982599334585 L 1549.6716196624786 102.49160988339152 L 1549.3847650755392 102.40209257930793 L 1549.0999050294781 102.31128303275094 L 1548.8170680100627 102.21919032459948 L 1548.5362823007588 102.12582366404763 L 1548.2575759799035 102.03119238768367 L 1547.9809769178971 101.93530595855636 L 1547.7065127744147 101.83817396522869 L 1547.4342109956422 101.73980612081907 L 1547.1640988115305 101.64021226202996 L 1546.8962032330728 101.53940234816426 L 1546.630551049604 101.43738646012932 L 1546.3671688261209 101.33417479942895 L 1546.1060829006265 101.22977768714321 L 1545.8473193814955 101.12420556289634 L 1545.5909041448642 101.01746898381276 L 1545.336862832043 100.90957862346146 L 1545.085220846951 100.80054527078855 L 1544.8360033535773 100.69037982903843 L 1544.5892352734634 100.5790933146635 L 1544.3449412832117 100.46669685622243 L 1544.1031458120178 100.35320169326741 L 1543.8638730392272 100.23861917522017 L 1543.6271468919176 100.122960760237 L 1543.3929910425068 100.00623801406304 L 1543.1614289063843 99.88846260887564 L 1542.9324836395713 99.76964632211717 L 1542.706178136403 99.64980103531728 L 1542.4825350272413 99.5289387329048 L 1542.2615766762112 99.40707150100923 L 1542.0433251789632 99.28421152625222 L 1541.8278023604653 99.16037109452886 L 1541.6150297728198 99.03556258977912 L 1541.4050286931079 98.90979849274946 L 1541.197820121263 98.78309137974479 L 1540.9934247779693 98.65545392137082 L 1540.791863102591 98.52689888126702 L 1540.5931552511272 98.39743911483028 L 1540.397321094198 98.26708756792935 L 1540.2043802150558 98.1358572756103 L 1540.0143519076278 98.00376136079302 L 1539.8272551745858 97.87081303295888 L 1539.643108725448 97.73702558682989 L 1539.4619309747052 97.60241240103917 L 1539.283740039982 97.46698693679313 L 1539.108553740223 97.33076273652533 L 1538.9363895939123 97.19375342254229 L 1538.7672648173213 97.05597269566121 L 1538.6011963227863 96.91743433383999 L 1538.4382007170188 96.77815219079936 L 1538.2782942994431 96.63814019463753 L 1538.1214930605681 96.49741234643746 L 1537.9678126803867 96.3559827188667 L 1537.8172685268091 96.21386545477014 L 1537.6698756541252 96.07107476575577 L 1537.5256488014993 95.92762493077348 L 1537.3846023914964 95.78353029468724 L 1537.2467505286404 95.63880526684059 L 1537.112106998002 95.4934643196157 L 1536.9806852638228 95.34752198698617 L 1536.8524984681662 95.20099286306365 L 1536.727559429605 95.05389160063842 L 1536.6058806419392 94.90623290971416 L 1536.487474272946 94.75803155603688 L 1536.3723521631637 94.60930235961848 L 1536.260525824707 94.46006019325463 L 1536.152006440117 94.31031998103764 L 1536.0468048612418 94.1600966968639 L 1535.9449316081511 94.00940536293668 L 1535.8463968680858 93.85826104826377 L 1535.7512104944374 93.70667886715071 L 1535.6593820057642 93.55467397768926 L 1535.5709205848384 93.40226158024174 L 1535.4858350777286 93.24945691592085 L 1535.4041339929145 93.09627526506569 L 1535.3258255004364 92.9427319457137 L 1535.2509174310783 92.78884231206887 L 1535.179417275585 92.6346217529663 L 1535.1113321839118 92.48008569033341 L 1535.0466689645118 92.32524957764768 L 1534.9854340836528 92.17012889839134 L 1534.927633664772 92.01473916450304 L 1534.873273487863 91.8590959148267 L 1534.8223589888978 91.70321471355757 L 1534.7748952592847 91.54711114868589 L 1534.7308870453564 91.39080083043804 L 1534.690338747898 91.2342993897156 L 1534.6532544217052 91.07762247653223 L 1534.61963777518 90.92078575844867 L 1534.589492169959 90.76380491900605 L 1534.5628206205772 90.60669565615748 L 1534.5396257941677 90.44947368069833 L 1534.5199100101938 90.29215471469513 L 1534.5036752402173 90.13475448991338 L 1534.4909231077017 89.97728874624438 L 1534.4816548878498 89.81977323013129 L 1534.4758715074759 89.66222369299444 L 1534.4735735449128 89.50465588965629 L 1534.4747612299552 89.34708557676583 L 1534.4794344438353 89.18952851122306 L 1534.487592719236 89.03200044860324 L 1534.4992352403362 88.87451714158134 L 1534.514360842894 88.71709433835684 L 1534.532968014361 88.55974778107888 L 1534.555054894036 88.40249320427206 L 1534.5806192732496 88.24534633326302 L 1534.6096585955847 88.0883228826079 L 1534.6421699571335 87.93143855452091 L 1534.6781501067871 87.77470903730413 L 1534.7175954465606 87.61815000377868 L 1534.7605020319525 87.46177710971743 L 1534.8068655723403 87.3056059922795 L 1534.8566814314083 87.14965226844647 L 1534.9099446276123 86.99393153346077 L 1534.9666498346771 86.83845935926612 L 1535.0267913821294 86.6832512929504 L 1535.0903632558643 86.5283228551909 L 1535.1573590987475 86.37368953870227 L 1535.2277722112503 86.2193668066873 L 1535.3015955521207 86.06537009129062 L 1535.3788217390857 85.91171479205542 L 1535.459443049591 85.75841627438356 L 1535.5434514215729 85.60548986799908 L 1535.6308384542638 85.45295086541519 L 1535.7215954090339 85.30081452040501 L 1535.8157132102626 85.14909604647627 L 1535.913182446249 84.99781061534993 L 1536.01399337015 84.84697335544304 L 1536.118135900958 84.69659935035588 L 1536.2255996245058 84.54670363736366 L 1536.3363737945112 84.39730120591275 L 1536.4504473336494 84.24840699612182 L 1536.5678088346617 84.10003589728775 L 1536.6884465614953 83.95220274639678 L 1536.8123484504786 83.80492232664082 L 1536.9395021115256 83.6582093659391 L 1537.0698948293764 83.51207853546543 L 1537.2035135648675 83.36654444818109 L 1537.340344956237 83.22162165737353 L 1537.4803753204599 83.07732465520105 L 1537.6235906546162 82.93366787124364 L 1537.7699766372918 82.79066567105997 L 1537.9195186300108 82.64833235475088 L 1538.0722016786983 82.5066821555294 L 1538.2280105151765 82.36572923829742 L 1538.386929558692 82.2254876982292 L 1538.5489429174722 82.08597155936187 L 1538.714034390317 81.94719477319305 L 1538.8821874682162 81.80917121728572 L 1539.0533853360025 81.67191469388045 L 1539.2276108740314 81.5354389285152 L 1539.4048466598947 81.39975756865279 L 1539.585074970161 81.26488418231611 L 1539.7682777821499 81.13083225673142 L 1539.9544367757328 80.99761519697957 L 1540.143533335165 80.8652463246555 L 1540.335548550949 80.73373887653617 L 1540.5304632217226 80.60310600325677 L 1540.7282578561812 80.47336076799579 L 1540.9289126750264 80.34451614516861 L 1541.1324076129433 80.21658501913016 L 1541.338722320608 80.08958018288645 L 1541.5478361667213 79.96351433681525 L 1541.759728240073 79.83840008739611 L 1541.9743773516325 79.71424994594972 L 1542.1917620366673 79.59107632738674 L 1542.4118605568901 79.46889154896643 L 1542.6346509026323 79.34770782906476 L 1542.860110795045 79.22753728595278 L 1543.088217688327 79.10839193658462 L 1543.3189487719787 78.99028369539596 L 1543.5522809730842 78.87322437311248 L 1543.788190958618 78.75722567556886 L 1544.0266551377779 78.6422992025382 L 1544.2676496643448 78.52845644657201 L 1544.511150439067 78.41570879185103 L 1544.7571331120696 78.30406751304679 L 1545.0055730852905 78.19354377419411 L 1545.2564455149395 78.08414862757479 L 1545.5097253139825 77.97589301261233 L 1545.7653871546509 77.868787754778 L 1546.0234054709733 77.76284356450834 L 1546.2837544613335 77.65807103613409 L 1546.5464080910492 77.55448064682078 L 1546.8113400949765 77.452082755521 L 1547.0785239801353 77.35088760193858 L 1547.3479330283603 77.25090530550452 L 1547.6195402989708 77.15214586436515 L 1547.8933186314664 77.0546191543823 L 1548.1692406482416 76.95833492814567 L 1548.4472787573252 76.86330281399768 L 1548.7274051551374 76.76953231507053 L 1549.0095918292723 76.67703280833597 L 1549.2938105612973 76.5858135436676 L 1549.5800329295764 76.49588364291587 L 1549.8682303121109 76.40725209899591 L 1550.158373889403 76.31992777498826 L 1550.4504346473368 76.23391940325253 L 1550.7443833800796 76.14923558455425 L 1551.0401906930033 76.06588478720468 L 1551.3378270056232 75.98387534621415 L 1551.6372625545557 75.90321546245838 L 1551.9384673964958 75.82391320185853 L 1552.24141141121 75.74597649457459 L 1552.5460643045496 75.66941313421233 L 1552.852395611479 75.594230777044 L 1553.160374699123 75.52043694124265 L 1553.469970769829 75.44803900613036 L 1553.781152864248 75.37704421144032 L 1554.0938898644304 75.30745965659284 L 1554.4081504969363 75.23929229998542 L 1554.7239033359645 75.1725489582969 L 1555.041116806494 75.10723630580584 L 1555.3597591874425 75.04336087372306 L 1555.6797986148374 74.98092904953855 L 1556.0012030850023 74.91994707638267 L 1556.3239404577582 74.86042105240195 L 1556.647978459637 74.80235693014917 L 1556.9732846871082 74.74576051598817 L 1557.2998266098202 74.6906374695132 L 1557.627571573853 74.63699330298299 L 1557.9564868049831 74.58483338076945 L 1558.2865394119617 74.53416291882138 L 1558.6176963898033 74.48498698414272 L 1558.9499246230855 74.43731049428597 L 1559.2831908892624 74.39113821686038 L 1559.6174618619848 74.34647476905522 L 1559.952704114434 74.30332461717805 L 1560.2888841226643 74.26169207620809 L 1560.625968268955 74.22158130936475 L 1560.963922845172 74.18299632769131 L 1561.3027140561398 74.14594098965375 L 1561.6423080230193 74.11041900075502 L 1561.982670786697 74.07643391316438 L 1562.3237683111802 74.04398912536229 L 1562.6655664870004 74.01308788180049 L 1563.008031134625 73.9837332725776 L 1563.3511280078749 73.95592823313004 L 1563.6948227973483 73.92967554393861 L 1564.0390811338527 73.90497783025036 L 1564.3838685918415 73.88183756181606 L 1564.7291506928564 73.86025705264328 L 1565.0748929089746 73.84023846076495 L 1565.4210606662627 73.82178378802357 L 1565.7676193482337 73.80489487987104 L 1566.1145342993082 73.78957342518412 L 1566.46177082828 73.77582095609547 L 1566.8092942117853 73.76363884784058 L 1567.1570696977758 73.7530283186201 L 1567.5050625089925 73.74399042947812 L 1567.8532378464445 73.73652608419602 L 1568.201560892888 73.73063602920209 L 1568.5499968163087 73.72632085349694 L 1568.8985107734045 73.72358098859456 L 1569.2470679130702 73.72241670847913 L 1569.5956333798824 73.72282812957769 L 1569.9441723175846 73.72481521074849 L 1570.292649872574 73.72837775328506 L 1570.6410311973848 73.73351540093613 L 1570.9892814541754 73.7402276399412 L 1571.33736581821 73.74851379908195 L 1571.6852494813425 73.7583730497494 L 1572.0328976554963 73.76980440602668 L 1572.380275576144 73.7828067247877 L 1572.7273485057824 73.79737870581141 L 1573.0740817374085 73.81351889191187 L 1573.4204405979874 73.83122566908389 L 1573.7663904519222 73.85049726666452 L 1574.1118967045156 73.87133175751008 L 1574.4569248054304 73.89372705818883 L 1574.8014402521437 73.91768092918936 L 1575.145408593398 73.94319097514453 L 1575.4887954326462 73.97025464507104 L 1575.8315664314903 73.9988692326244 L 1576.1736873131158 74.02903187636971 L 1576.51512386572 74.06073956006777 L 1576.8558419459318 74.0939891129766 L 1577.1958074822276 74.12877721016861 L 1577.5349864783368 74.1651003728631 L 1577.8733450166424 74.20295496877404 L 1578.2108492615723 74.24233721247342 L 1578.5474654629838 74.28324316576963 L 1578.8831599595371 74.3256687381015 L 1579.2178991820622 74.3696096869471 L 1579.5516496569155 74.41506161824817 L 1579.8843780093282 74.46201998684948 L 1580.216050966742 74.51048009695329 L 1580.5466353621375 74.56043710258896 L 1580.876098137351 74.61188600809757 L 1581.204406346379 74.66482166863145 L 1581.5315271586749 74.71923879066864 L 1581.8574278624294 74.7751319325423 L 1582.1820758678439 74.83249550498479 L 1582.5054387103885 74.89132377168671 L 1582.8274840540485 74.9516108498704 L 1583.1481796945575 75.01335071087827 L 1583.4674935626192 75.07653718077569 L 1583.7853937271127 75.14116394096828 L 1584.1018483982862 75.20722452883393 L 1584.4168259309367 75.27471233836887 L 1584.7302948275733 75.34362062084841 L 1585.0422237415673 75.4139424855017 L 1585.3525814802874 75.48567090020089 L 1585.6613370082187 75.55879869216429 L 1585.968459450065 75.63331854867363 L 1586.2739180938388 75.70922301780536 L 1586.5776823939295 75.78650450917581 L 1586.879721974161 75.86515529470029 L 1587.1800066308265 75.94516750936573 L 1587.4785063357108 76.02653315201738 L 1587.775191239092 76.10924408615877 L 1588.0700316727268 76.1932920407654 L 1588.3629981528181 76.27866861111187 L 1588.6540613829616 76.36536525961226 L 1588.9431922570768 76.453373316674 L 1589.2303618623177 76.5426839815647 L 1589.5155414819626 76.63328832329232 L 1589.7987025982873 76.72517728149818 L 1590.0798168954161 76.81834166736301 L 1590.3588562621537 76.9127721645259 L 1590.635792794796 77.0084593300158 L 1590.9105987999203 77.1053935951959 L 1591.1832467971553 77.20356526672047 L 1591.4537095219284 77.30296452750417 L 1591.7219599281923 77.40358143770375 L 1591.98797119113 77.50540593571202 L 1592.2517167098374 77.60842783916407 L 1592.5131701099817 77.71263684595536 L 1592.7723052464412 77.81802253527208 L 1593.029096205918 77.92457436863312 L 1593.2835173095302 78.03228169094393 L 1593.5355431153794 78.14113373156204 L 1593.785148421095 78.25111960537409 L 1594.032308266355 78.36222831388436 L 1594.2769979353798 78.47444874631458 L 1594.5191929594073 78.58776968071503 L 1594.7588691191365 78.70217978508671 L 1594.9960024471513 78.8176676185145 L 1595.2305692303164 78.93422163231133 L 1595.462546012149 79.05183017117294 L 1595.6919095951644 79.17048147434345 L 1595.918637043195 79.2901636767914 L 1596.1427056836856 79.41086481039628 L 1596.3640931099583 79.53257280514535 L 1596.5827771834552 79.65527549034051 L 1596.798736035951 79.77896059581553 L 1597.0119480717406 79.90361575316292 L 1597.222391969798 80.02922849697083 L 1597.430046685909 80.15578626606954 L 1597.6348914547748 80.28327640478761 L 1597.8369057920893 80.41168616421743 L 1598.036069496587 80.54100270349004 L 1598.2323626520636 80.67121309105929 L 1598.4257656293669 80.80230430599492 L 1598.6162590883605 80.93426323928469 L 1598.8038239798573 81.06707669514523 L 1598.9884415475242 81.20073139234162 L 1599.1700933297586 81.33521396551555 L 1599.3487611615335 81.47051096652174 L 1599.5244271762144 81.60660886577287 L 1599.6970738073467 81.7434940535924 L 1599.8666837904107 81.88115284157563 L 1600.0332401645496 82.01957146395846 L 1600.196726274265 82.15873607899402 L 1600.3571257710819 82.29863277033678 L 1600.5144226151845 82.43924754843417 L 1600.668601077019 82.58056635192557 L 1600.8196457388683 82.72257504904839 L 1600.9675414963917 82.86525943905127 L 1601.1122735601368 83.00860525361409 L 1601.253827457018 83.15259815827487 L 1601.392189031763 83.29722375386312 L 1601.5273444483305 83.44246757793982 L 1601.6592801912907 83.58831510624358 L 1601.7879830671798 83.73475175414313 L 1601.913440205817 83.88176287809569 L 1602.0356390615934 84.02933377711139 L 1602.154567414725 84.17744969422328 L 1602.2702133724756 84.32609581796311 L 1602.382565370346 84.47525728384235 L 1602.4916121732297 84.62491917583874 L 1602.5973428765376 84.77506652788777 L 1602.6997469072874 84.92568432537938 L 1602.7988140251612 85.07675750665932 L 1602.89453432353 85.22827096453535 L 1602.9868982304436 85.38020954778797 L 1603.0758965095881 85.53255806268545 L 1603.1615202612102 85.68530127450326 L 1603.2437609230055 85.8384239090475 L 1603.322610270977 85.99191065418235 L 1603.3980604202552 86.14574616136115 L 1603.4701038258881 86.2999150471614 L 1603.5387332835953 86.454401894823 L 1603.603941930488 86.60919125578992 L 1603.665723245756 86.76426765125505 L 1603.7240710513195 86.91961557370807 L 1603.778979512446 87.07521948848621 L 1603.8304431383356 87.23106383532765 L 1603.8784567826685 87.38713302992755 L 1603.9230156441201 87.54341146549655 L 1603.9641152668416 87.6998835143213 L 1604.001751540905 87.85653352932732 L 1604.035920702714 88.01334584564364 L 1604.0666193353811 88.17030478216932 L 1604.0938443690686 88.32739464314149 L 1604.1175930812958 88.48459971970497 L 1604.1378630972113 88.64190429148312 L 1604.15465238983 88.79929262814981 L 1604.1679592802373 88.95674899100257 L 1604.177782437755 89.11425763453632 L 1604.1841208800752 89.27180280801794 L 1604.1869739733593 89.4293687570614 M 1604.1871508049796 139.61606874757274 L 1604.1854079789666 139.7736380055278 L 1604.1801796752086 139.93119150668838 L 1604.1714664165315 140.08871349583563 L 1604.159269074254 140.24618822090196 L 1604.1435888681003 140.403599934546 L 1604.1244273660777 140.56093289572766 L 1604.1017864843207 140.71817137128187 L 1604.0756684868984 140.87529963749213 L 1604.0460759855887 141.03230198166275 L 1604.0130119396174 141.1891627036902 L 1603.9764796553613 141.34586611763288 L 1603.9364827860186 141.50239655328008 L 1603.8930253312426 141.65873835771862 L 1603.8461116367428 141.81487589689837 L 1603.7957463938494 141.97079355719555 L 1603.741934639045 142.126475746974 L 1603.6846817534597 142.2819068981445 L 1603.623993462335 142.4370714677215 L 1603.5598758344488 142.5919539393773 L 1603.4923352815108 142.74653882499382 L 1603.4213785575203 142.9008106662113 L 1603.34701275809 143.0547540359742 L 1603.269245319738 143.20835354007383 L 1603.1880840191436 143.36159381868777 L 1603.1035369723693 143.51445954791583 L 1603.0156126340487 143.66693544131255 L 1602.924319796543 143.81900625141557 L 1602.8296675890597 143.97065677127065 L 1602.7316654767403 144.12187183595216 L 1602.630323259715 144.27263632407968 L 1602.5256510721206 144.42293515933 L 1602.4176593810887 144.57275331194487 L 1602.3063589856984 144.72207580023382 L 1602.1917610158966 144.87088769207253 L 1602.0738769313848 145.01917410639578 L 1601.9527185204731 145.16692021468572 L 1601.8282978989018 145.31411124245466 L 1601.7006275086292 145.46073247072243 L 1601.5697201165879 145.60676923748844 L 1601.4355888134082 145.7522069391977 L 1601.2982470121085 145.89703103220123 L 1601.1577084467544 146.0412270342104 L 1601.0139871710855 146.1847805257452 L 1600.8670975571097 146.32767715157607 L 1600.7170542936656 146.46990262215954 L 1600.563872384955 146.61144271506706 L 1600.4075671490407 146.7522832764073 L 1600.2481542163162 146.89241022224147 L 1600.0856495279418 147.03180953999177 L 1599.9200693342511 147.1704672898426 L 1599.7514301931255 147.3083696061345 L 1599.5797489683387 147.4455026987508 L 1599.4050428278697 147.58185285449647 L 1599.2273292421871 147.71740643846957 L 1599.0466259825016 147.8521498954247 L 1598.8629511189886 147.9860697511284 L 1598.6763230189808 148.11915261370672 L 1598.4867603451335 148.25138517498434 L 1598.2942820535554 148.38275421181524 L 1598.0989073919159 148.5132465874053 L 1597.9006558975177 148.64284925262567 L 1597.6995473953457 148.7715492473178 L 1597.4956019960819 148.8993337015895 L 1597.2888400940967 149.02618983710184 L 1597.0792823654078 149.15210496834698 L 1596.8669497656135 149.2770665039167 L 1596.651863527797 149.40106194776158 L 1596.4340451604025 149.52407890044057 L 1596.2135164450856 149.64610506036095 L 1595.9902994345337 149.76712822500838 L 1595.764416450262 149.88713629216724 L 1595.5358900803808 150.00611726113084 L 1595.3047431773364 150.12405923390142 L 1595.0709988556266 150.24095041638 L 1594.834680489489 150.35677911954576 L 1594.5958117105629 150.47153376062485 L 1594.3544164055274 150.58520286424886 L 1594.1105187137118 150.6977750636021 L 1593.864143024682 150.80923910155846 L 1593.6153139758017 150.91958383180705 L 1593.3640564497682 151.02879821996675 L 1593.110395572125 151.1368713446898 L 1592.8543567087481 151.24379239875378 L 1592.595965463311 151.3495506901424 L 1592.3352476747225 151.4541356431146 L 1592.0722294145442 151.55753679926227 L 1591.8069369843831 151.65974381855597 L 1591.539396913261 151.76074648037894 L 1591.2696359549625 151.86053468454915 L 1590.997681085358 151.95909845232936 L 1590.7235594997082 152.05642792742492 L 1590.4472986099431 152.1525133769694 L 1590.1689260419216 152.24734519249796 L 1589.8884696326684 152.34091389090807 L 1589.6059574275907 152.43321011540783 L 1589.3214176776737 152.52422463645172 L 1589.034878836655 152.6139483526635 L 1588.7463695581803 152.7023722917463 L 1588.4559186929368 152.78948761137988 L 1588.1635552857692 152.87528560010492 L 1587.8693085727743 152.959757678194 L 1587.5732079783784 153.0428953985097 L 1587.275283112394 153.1246904473493 L 1586.9755637670594 153.2051346452761 L 1586.6740799140596 153.2842199479373 L 1586.3708617015286 153.36193844686855 L 1586.0659394510349 153.43828237028472 L 1585.7593436545496 153.5132440838571 L 1585.4511049713965 153.58681609147678 L 1585.1412542251876 153.65899103600432 L 1584.8298224007387 153.7297617000054 L 1584.5168406409732 153.79912100647266 L 1584.202340243806 153.86706201953317 L 1583.8863526590148 153.93357794514225 L 1583.5689094850948 153.9986621317628 L 1583.2500424660986 154.06230807103043 L 1582.929783488463 154.12450939840414 L 1582.6081645778183 154.18525989380313 L 1582.2852178957876 154.24455348222847 L 1581.9609757367703 154.30238423437066 L 1581.6354705247118 154.35874636720277 L 1581.3087348098622 154.4136342445584 L 1580.9808012655208 154.46704237769563 L 1580.6517026847685 154.5189654258456 L 1580.3214719771893 154.5693981967468 L 1579.9901421655786 154.61833564716412 L 1579.6577463826418 154.66577288339334 L 1579.3243178676798 154.71170516175036 L 1578.9898899632665 154.75612788904562 L 1578.6544961119137 154.7990366230434 L 1578.3181698527267 154.84042707290607 L 1577.9809448180513 154.8802950996231 L 1577.6428547301102 154.9186367164251 L 1577.30393339763 154.95544808918234 L 1576.964214712462 154.99072553678815 L 1576.6237326461915 155.02446553152723 L 1576.2825212467412 155.05666469942818 L 1575.9406146349668 155.0873198206011 L 1575.5980470012444 155.11642782955934 L 1575.254852602052 155.14398581552635 L 1574.9110657565438 155.1699910227264 L 1574.5667208431175 155.19444085066053 L 1574.2218522959777 155.21733285436628 L 1573.8764946016915 155.23866474466237 L 1573.5306822957407 155.2584343883775 L 1573.184449959068 155.27663980856386 L 1572.837832214618 155.2932791846945 L 1572.4908637238764 155.3083508528458 L 1572.1435791834035 155.32185330586336 L 1571.7960133213635 155.33378519351322 L 1571.4482008940533 155.34414532261655 L 1571.1001766824256 155.35293265716908 L 1570.7519754886118 155.36014631844463 L 1570.4036321324409 155.36578558508313 L 1570.0551814479581 155.36984989316258 L 1569.7066582799418 155.3723388362556 L 1569.358097480418 155.37325216546992 L 1569.0095339051766 155.3725897894734 L 1568.6610024102843 155.37035177450306 L 1568.3125378486004 155.3665383443586 L 1567.9641750662904 155.36114988037977 L 1567.6159488993426 155.3541869214085 L 1567.2678941700833 155.34565016373494 L 1566.9200456836952 155.33554046102768 L 1566.5724382247374 155.32385882424862 L 1566.225106553666 155.31060642155165 L 1565.8780854033587 155.29578457816604 L 1565.531409475641 155.27939477626373 L 1565.1851134378173 155.2614386548113 L 1564.8392319192026 155.24191800940588 L 1564.4937995076605 155.2208347920958 L 1564.148850746144 155.1981911111852 L 1563.8044201292425 155.17398923102328 L 1563.46054209973 155.14823157177793 L 1563.1172510451233 155.12092070919357 L 1562.7745812942414 155.0920593743337 L 1562.4325671137742 155.06165045330778 L 1562.0912427048547 155.02969698698257 L 1561.750642199639 154.99620217067806 L 1561.4107996578944 154.961169353848 L 1561.0717490635911 154.92460203974483 L 1560.7335243215068 154.8865038850695 L 1560.3961592538333 154.84687869960575 L 1560.0596875967963 154.8057304458391 L 1559.7241429972812 154.76306323856062 L 1559.3895590094685 154.71888134445553 L 1559.055969091478 154.67318918167635 L 1558.7234066020233 154.62599131940132 L 1558.3919047970764 154.57729247737734 L 1558.0614968265415 154.52709752544806 L 1557.7322157309407 154.47541148306675 L 1557.4040944381086 154.42223951879467 L 1557.0771657599014 154.3675869497839 L 1556.7514623889142 154.31145924124579 L 1556.427016895213 154.25386200590444 L 1556.1038617230765 154.19480100343537 L 1555.782029187753 154.13428213988962 L 1555.4615514722275 154.0723114671031 L 1555.1424606240046 154.0088951820915 L 1554.824788551903 153.94403962643037 L 1554.5085670228657 153.87775128562131 L 1554.1938276587816 153.81003678844317 L 1553.880601933325 153.7409029062892 L 1553.5689211688075 153.67035655248998 L 1553.2588165330455 153.59840478162215 L 1552.9503190362448 153.52505478880283 L 1552.6434595278972 153.45031390897017 L 1552.3382686936984 153.3741896161499 L 1552.0347770524775 153.2966895227078 L 1551.7330149531454 153.21782137858867 L 1551.4330125716606 153.1375930705412 L 1551.1347999080112 153.0560126213293 L 1550.8384067832155 152.97308818892998 L 1550.5438628363386 152.88882806571732 L 1550.2511975215298 152.80324067763345 L 1549.9604401050767 152.71633458334585 L 1549.6716196624786 152.6281184733915 L 1549.3847650755392 152.53860116930795 L 1549.0999050294781 152.44779162275094 L 1548.8170680100627 152.3556989145995 L 1548.5362823007588 152.26233225404764 L 1548.2575759799035 152.16770097768367 L 1547.9809769178971 152.07181454855635 L 1547.7065127744147 151.9746825552287 L 1547.4342109956422 151.8763147108191 L 1547.1640988115305 151.77672085202997 L 1546.8962032330728 151.67591093816426 L 1546.630551049604 151.57389505012932 L 1546.3671688261209 151.47068338942896 L 1546.1060829006265 151.36628627714322 L 1545.8473193814955 151.26071415289636 L 1545.5909041448642 151.15397757381277 L 1545.336862832043 151.04608721346145 L 1545.085220846951 150.93705386078855 L 1544.8360033535773 150.82688841903843 L 1544.5892352734634 150.7156019046635 L 1544.3449412832117 150.60320544622243 L 1544.1031458120178 150.4897102832674 L 1543.8638730392272 150.37512776522016 L 1543.6271468919176 150.259469350237 L 1543.3929910425068 150.14274660406306 L 1543.1614289063843 150.02497119887565 L 1542.9324836395713 149.9061549121172 L 1542.706178136403 149.7863096253173 L 1542.4825350272413 149.6654473229048 L 1542.2615766762112 149.54358009100923 L 1542.0433251789632 149.42072011625223 L 1541.8278023604653 149.29687968452885 L 1541.6150297728198 149.17207117977912 L 1541.4050286931079 149.04630708274945 L 1541.197820121263 148.91959996974478 L 1540.9934247779693 148.79196251137083 L 1540.791863102591 148.66340747126702 L 1540.5931552511272 148.5339477048303 L 1540.397321094198 148.40359615792937 L 1540.2043802150558 148.2723658656103 L 1540.0143519076278 148.14026995079303 L 1539.8272551745858 148.00732162295887 L 1539.643108725448 147.8735341768299 L 1539.4619309747052 147.73892099103918 L 1539.283740039982 147.60349552679313 L 1539.108553740223 147.46727132652535 L 1538.9363895939123 147.3302620125423 L 1538.7672648173213 147.19248128566122 L 1538.6011963227863 147.05394292384 L 1538.4382007170188 146.91466078079935 L 1538.2782942994431 146.77464878463755 L 1538.1214930605681 146.63392093643748 L 1537.9678126803867 146.4924913088667 L 1537.8172685268091 146.35037404477015 L 1537.6698756541252 146.20758335575576 L 1537.5256488014993 146.06413352077348 L 1537.3846023914964 145.92003888468724 L 1537.2467505286404 145.7753138568406 L 1537.112106998002 145.6299729096157 L 1536.9806852638228 145.48403057698619 L 1536.8524984681662 145.33750145306365 L 1536.727559429605 145.19040019063843 L 1536.6058806419392 145.04274149971417 L 1536.487474272946 144.8945401460369 L 1536.3723521631637 144.7458109496185 L 1536.260525824707 144.59656878325464 L 1536.152006440117 144.44682857103766 L 1536.0468048612418 144.29660528686392 L 1535.9449316081511 144.1459139529367 L 1535.8463968680858 143.9947696382638 L 1535.7512104944374 143.84318745715072 L 1535.6593820057642 143.69118256768928 L 1535.5709205848384 143.53877017024175 L 1535.4858350777286 143.38596550592084 L 1535.4041339929145 143.2327838550657 L 1535.3258255004364 143.0792405357137 L 1535.2509174310783 142.92535090206886 L 1535.179417275585 142.7711303429663 L 1535.1113321839118 142.61659428033343 L 1535.0466689645118 142.46175816764767 L 1534.9854340836528 142.30663748839135 L 1534.927633664772 142.15124775450306 L 1534.873273487863 141.9956045048267 L 1534.8223589888978 141.83972330355758 L 1534.7748952592847 141.68361973868588 L 1534.7308870453564 141.52730942043806 L 1534.690338747898 141.3708079797156 L 1534.6532544217052 141.21413106653225 L 1534.61963777518 141.0572943484487 L 1534.589492169959 140.90031350900605 L 1534.5628206205772 140.7432042461575 L 1534.5396257941677 140.58598227069834 L 1534.5199100101938 140.42866330469514 L 1534.5036752402173 140.27126307991338 L 1534.4909231077017 140.11379733624437 L 1534.4816548878498 139.9562818201313 L 1534.4758715074759 139.79873228299445 L 1534.4735735449128 139.64116447965628" stroke-miterlimit="10" stroke-width="4.058669743" stroke-dasharray=""/></g><g><g/><text fill="black" stroke="none" font-family="sans-serif" font-size="11pt" font-style="normal" font-weight="normal" text-decoration="normal" x="1498.7220102980305" y="180.99062559827274" text-anchor="start" dominant-baseline="alphabetic" xml:space="preserve">Accounts Database</text></g></g><g><g><text fill="black" stroke="none" font-family="sans-serif" font-size="16pt" font-style="normal" font-weight="normal" text-decoration="normal" x="777.0666656494141" y="36.02883301272727" text-anchor="start" dominant-baseline="alphabetic" xml:space="preserve">Accounts</text></g><g><rect fill="white" stroke="none" x="223.5868988965226" y="235.90203976827272" width="110.04568966882812" height="31.03688627"/><text fill="black" stroke="none" font-family="sans-serif" font-size="11pt" font-style="normal" font-weight="normal" text-decoration="normal" x="227.1680780815226" y="257.3891148782727" text-anchor="start" dominant-baseline="alphabetic" xml:space="preserve">Login attempt</text></g><g><path fill="none" stroke="black" paint-order="fill stroke markers" d=" M 107.43537555 266.9389260382727 L 430.127421088904 266.9389260382727" stroke-miterlimit="10" stroke-width="1.9895439916666666" stroke-dasharray=""/><g transform="translate(449.78411572657063,266.9389260382727) translate(-449.78411572657063,-266.9389260382727)"><path fill="black" stroke="none" paint-order="stroke fill markers" d=" M 429.888675809904 256.9912060799394 L 449.78411572657063 266.9389260382727 L 429.888675809904 276.88664599660603 Z"/></g></g><g><rect fill="white" stroke="none" x="518.3689724700049" y="302.7507178882727" width="145.31235226648437" height="31.03688627"/><text fill="black" stroke="none" font-family="sans-serif" font-size="11pt" font-style="normal" font-weight="normal" text-decoration="normal" x="521.9501516550049" y="324.23779299827265" text-anchor="start" dominant-baseline="alphabetic" xml:space="preserve">Post Login attempt</text></g><g><path fill="none" stroke="black" paint-order="fill stroke markers" d=" M 449.78411572657063 333.7876041582727 L 712.609496379 333.7876041582727" stroke-miterlimit="10" stroke-width="1.9895439916666666" stroke-dasharray=""/><g transform="translate(732.2661910166667,333.7876041582727) translate(-732.2661910166667,-333.7876041582727)"><path fill="black" stroke="none" paint-order="stroke fill markers" d=" M 712.3707511 323.8398841999394 L 732.2661910166667 333.7876041582727 L 712.3707511 343.735324116606 Z"/></g></g><g><rect fill="white" stroke="none" x="865.8010513840633" y="369.59939600827266" width="236.84569272058593" height="31.03688627"/><text fill="black" stroke="none" font-family="sans-serif" font-size="11pt" font-style="normal" font-weight="normal" text-decoration="normal" x="869.3822305690633" y="391.08647111827264" text-anchor="start" dominant-baseline="alphabetic" xml:space="preserve">Route to Accounts Microservice</text></g><g><path fill="none" stroke="black" paint-order="fill stroke markers" d=" M 732.2661910166667 400.6362822782727 L 1216.5249041123332 400.6362822782727" stroke-miterlimit="10" stroke-width="1.9895439916666666" stroke-dasharray=""/><g transform="translate(1236.18159875,400.6362822782727) translate(-1236.18159875,-400.6362822782727)"><path fill="black" stroke="none" paint-order="stroke fill markers" d=" M 1216.2861588333333 390.68856231993936 L 1236.18159875 400.6362822782727 L 1216.2861588333333 410.584002236606 Z"/></g></g><g><rect fill="white" stroke="none" x="1264.4331234316664" y="436.44807412827265" width="276.64569577234374" height="31.03688627"/><text fill="black" stroke="none" font-family="sans-serif" font-size="11pt" font-style="normal" font-weight="normal" text-decoration="normal" x="1268.0143026166666" y="457.93514923827263" text-anchor="start" dominant-baseline="alphabetic" xml:space="preserve">Select Username and Password hash</text></g><g><path fill="none" stroke="black" paint-order="fill stroke markers" d=" M 1236.18159875 467.4849603982727 L 1549.673645433313 467.4849603982727" stroke-miterlimit="10" stroke-width="1.9895439916666666" stroke-dasharray=""/><g transform="translate(1569.3303400709797,467.4849603982727) translate(-1569.3303400709797,-467.4849603982727)"><path fill="black" stroke="none" paint-order="stroke fill markers" d=" M 1549.434900154313 457.53724043993935 L 1569.3303400709797 467.4849603982727 L 1549.434900154313 477.432680356606 Z"/></g></g><g><rect fill="white" stroke="none" x="1306.7081249575454" y="503.2967522482727" width="192.09569272058593" height="31.03688627"/><text fill="black" stroke="none" font-family="sans-serif" font-size="11pt" font-style="normal" font-weight="normal" text-decoration="normal" x="1310.2893041425455" y="524.7838273582727" text-anchor="start" dominant-baseline="alphabetic" xml:space="preserve">Return existing user data</text></g><g><path fill="none" stroke="black" paint-order="fill stroke markers" d=" M 1569.3303400709797 534.3336385182727 L 1255.8382933876667 534.3336385182727" stroke-miterlimit="10" stroke-width="1.9895439916666666" stroke-dasharray="9.54981116"/><g transform="translate(1236.18159875,534.3336385182727) translate(-1236.18159875,-534.3336385182727)"><path fill="black" stroke="none" paint-order="stroke fill markers" d=" M 1256.0770386666666 524.3859185599393 L 1236.18159875 534.3336385182727 L 1256.0770386666666 544.281358476606 Z"/></g></g><g><rect fill="white" stroke="none" x="760.5177156983333" y="634.6066556982727" width="447.41235837" height="31.03688627"/><text fill="black" stroke="none" font-family="sans-serif" font-size="11pt" font-style="normal" font-weight="normal" text-decoration="normal" x="764.0988948833333" y="656.0937308082727" text-anchor="start" dominant-baseline="alphabetic" xml:space="preserve">Return success status response with success message body</text></g><g><path fill="none" stroke="black" paint-order="fill stroke markers" d=" M 1236.18159875 665.6435419682726 L 751.9228856543333 665.6435419682726" stroke-miterlimit="10" stroke-width="1.9895439916666666" stroke-dasharray="9.54981116"/><g transform="translate(732.2661910166667,665.6435419682726) translate(-732.2661910166667,-665.6435419682726)"><path fill="black" stroke="none" paint-order="stroke fill markers" d=" M 752.1616309333333 655.6958220099393 L 732.2661910166667 665.6435419682726 L 752.1616309333333 675.591261926606 Z"/></g></g><g><rect fill="white" stroke="none" x="527.8606421248511" y="701.4553338182727" width="126.32902249353515" height="31.03688627"/><text fill="black" stroke="none" font-family="sans-serif" font-size="11pt" font-style="normal" font-weight="normal" text-decoration="normal" x="531.4418213098511" y="722.9424089282727" text-anchor="start" dominant-baseline="alphabetic" xml:space="preserve">Forward request</text></g><g><path fill="none" stroke="black" paint-order="fill stroke markers" d=" M 732.2661910166667 732.4922200882727 L 469.4408103642373 732.4922200882727" stroke-miterlimit="10" stroke-width="1.9895439916666666" stroke-dasharray="9.54981116"/><g transform="translate(449.78411572657063,732.4922200882727) translate(-449.78411572657063,-732.4922200882727)"><path fill="black" stroke="none" paint-order="stroke fill markers" d=" M 469.6795556432373 722.5445001299394 L 449.78411572657063 732.4922200882727 L 469.6795556432373 742.439940046606 Z"/></g></g><g><rect fill="white" stroke="none" x="184.47023305637367" y="768.3040119382728" width="188.27902707117187" height="31.03688627"/><text fill="black" stroke="none" font-family="sans-serif" font-size="11pt" font-style="normal" font-weight="normal" text-decoration="normal" x="188.05141224137367" y="789.7910870482727" text-anchor="start" dominant-baseline="alphabetic" xml:space="preserve">Route user to homepage</text></g><g><path fill="none" stroke="black" paint-order="fill stroke markers" d=" M 449.78411572657063 799.3408982082727 L 127.09207018766668 799.3408982082727" stroke-miterlimit="10" stroke-width="1.9895439916666666" stroke-dasharray="9.54981116"/><g transform="translate(107.43537555,799.3408982082727) translate(-107.43537555,-799.3408982082727)"><path fill="black" stroke="none" paint-order="stroke fill markers" d=" M 127.33081546666668 789.3931782499394 L 107.43537555 799.3408982082727 L 127.33081546666668 809.288618166606 Z"/></g></g><g><rect fill="white" stroke="none" x="817.9427187500911" y="899.6139153882729" width="332.56235226648437" height="31.03688627"/><text fill="black" stroke="none" font-family="sans-serif" font-size="11pt" font-style="normal" font-weight="normal" text-decoration="normal" x="821.5238979350911" y="921.1009904982728" text-anchor="start" dominant-baseline="alphabetic" xml:space="preserve">Return error status with error message body</text></g><g><path fill="none" stroke="black" paint-order="fill stroke markers" d=" M 1236.18159875 930.6508016582728 L 751.9228856543333 930.6508016582728" stroke-miterlimit="10" stroke-width="1.9895439916666666" stroke-dasharray="9.54981116"/><g transform="translate(732.2661910166667,930.6508016582728) translate(-732.2661910166667,-930.6508016582728)"><path fill="black" stroke="none" paint-order="stroke fill markers" d=" M 752.1616309333333 920.7030816999395 L 732.2661910166667 930.6508016582728 L 752.1616309333333 940.5985216166061 Z"/></g></g><g><rect fill="white" stroke="none" x="522.4356409804419" y="966.4625935082729" width="137.17902096765624" height="31.03688627"/><text fill="black" stroke="none" font-family="sans-serif" font-size="11pt" font-style="normal" font-weight="normal" text-decoration="normal" x="526.0168201654419" y="987.9496686182729" text-anchor="start" dominant-baseline="alphabetic" xml:space="preserve">Forward response</text></g><g><path fill="none" stroke="black" paint-order="fill stroke markers" d=" M 732.2661910166667 997.4994797782729 L 469.4408103642373 997.4994797782729" stroke-miterlimit="10" stroke-width="1.9895439916666666" stroke-dasharray="9.54981116"/><g transform="translate(449.78411572657063,997.4994797782729) translate(-449.78411572657063,-997.4994797782729)"><path fill="black" stroke="none" paint-order="stroke fill markers" d=" M 469.6795556432373 987.5517598199395 L 449.78411572657063 997.4994797782729 L 469.6795556432373 1007.4471997366062 Z"/></g></g><g><rect fill="white" stroke="none" x="179.21190175754555" y="1033.3112716282728" width="198.79568966882812" height="31.03688627"/><text fill="black" stroke="none" font-family="sans-serif" font-size="11pt" font-style="normal" font-weight="normal" text-decoration="normal" x="182.79308094254554" y="1054.7983467382728" text-anchor="start" dominant-baseline="alphabetic" xml:space="preserve">Display login fail message</text></g><g><path fill="none" stroke="black" paint-order="fill stroke markers" d=" M 449.78411572657063 1064.3481578982728 L 127.09207018766668 1064.3481578982728" stroke-miterlimit="10" stroke-width="1.9895439916666666" stroke-dasharray="9.54981116"/><g transform="translate(107.43537555,1064.3481578982728) translate(-107.43537555,-1064.3481578982728)"><path fill="black" stroke="none" paint-order="stroke fill markers" d=" M 127.33081546666668 1054.4004379399394 L 107.43537555 1064.3481578982728 L 127.33081546666668 1074.2958778566062 Z"/></g></g><g><rect fill="white" stroke="none" x="213.9035664532853" y="1135.9717415982727" width="129.41235837" height="31.03688627"/><text fill="black" stroke="none" font-family="sans-serif" font-size="11pt" font-style="normal" font-weight="normal" text-decoration="normal" x="217.4847456382853" y="1157.4588167082727" text-anchor="start" dominant-baseline="alphabetic" xml:space="preserve">Create new Staff</text></g><g><path fill="none" stroke="black" paint-order="fill stroke markers" d=" M 107.43537555 1167.0086278682727 L 430.127421088904 1167.0086278682727" stroke-miterlimit="10" stroke-width="1.9895439916666666" stroke-dasharray=""/><g transform="translate(449.78411572657063,1167.0086278682727) translate(-449.78411572657063,-1167.0086278682727)"><path fill="black" stroke="none" paint-order="stroke fill markers" d=" M 429.888675809904 1157.0609079099393 L 449.78411572657063 1167.0086278682727 L 429.888675809904 1176.9563478266061 Z"/></g></g><g><rect fill="white" stroke="none" x="478.0356404082373" y="1202.8204197182727" width="225.97902401941406" height="31.03688627"/><text fill="black" stroke="none" font-family="sans-serif" font-size="11pt" font-style="normal" font-weight="normal" text-decoration="normal" x="481.6168195932373" y="1224.3074948282726" text-anchor="start" dominant-baseline="alphabetic" xml:space="preserve">Post request for Staff creation</text></g><g><path fill="none" stroke="black" paint-order="fill stroke markers" d=" M 449.78411572657063 1233.8573059882726 L 712.609496379 1233.8573059882726" stroke-miterlimit="10" stroke-width="1.9895439916666666" stroke-dasharray=""/><g transform="translate(732.2661910166667,1233.8573059882726) translate(-732.2661910166667,-1233.8573059882726)"><path fill="black" stroke="none" paint-order="stroke fill markers" d=" M 712.3707511 1223.9095860299392 L 732.2661910166667 1233.8573059882726 L 712.3707511 1243.805025946606 Z"/></g></g><g><rect fill="white" stroke="none" x="921.0593836365657" y="1269.6690978382726" width="126.32902249353515" height="31.03688627"/><text fill="black" stroke="none" font-family="sans-serif" font-size="11pt" font-style="normal" font-weight="normal" text-decoration="normal" x="924.6405628215657" y="1291.1561729482726" text-anchor="start" dominant-baseline="alphabetic" xml:space="preserve">Forward request</text></g><g><path fill="none" stroke="black" paint-order="fill stroke markers" d=" M 732.2661910166667 1300.7059841082726 L 1216.5249041123332 1300.7059841082726" stroke-miterlimit="10" stroke-width="1.9895439916666666" stroke-dasharray=""/><g transform="translate(1236.18159875,1300.7059841082726) translate(-1236.18159875,-1300.7059841082726)"><path fill="black" stroke="none" paint-order="stroke fill markers" d=" M 1216.2861588333333 1290.7582641499391 L 1236.18159875 1300.7059841082726 L 1216.2861588333333 1310.653704066606 Z"/></g></g><g><rect fill="white" stroke="none" x="1332.9497888903456" y="1336.5177759582725" width="139.61235531824218" height="31.03688627"/><text fill="black" stroke="none" font-family="sans-serif" font-size="11pt" font-style="normal" font-weight="normal" text-decoration="normal" x="1336.5309680753458" y="1358.0048510682725" text-anchor="start" dominant-baseline="alphabetic" xml:space="preserve">Get existing users</text></g><g><path fill="none" stroke="black" paint-order="fill stroke markers" d=" M 1236.18159875 1367.5546622282725 L 1549.673645433313 1367.5546622282725" stroke-miterlimit="10" stroke-width="1.9895439916666666" stroke-dasharray=""/><g transform="translate(1569.3303400709797,1367.5546622282725) translate(-1569.3303400709797,-1367.5546622282725)"><path fill="black" stroke="none" paint-order="stroke fill markers" d=" M 1549.434900154313 1357.606942269939 L 1569.3303400709797 1367.5546622282725 L 1549.434900154313 1377.502382186606 Z"/></g></g><g><rect fill="white" stroke="none" x="1321.69978984402" y="1403.3664540782725" width="162.11235531824218" height="31.03688627"/><text fill="black" stroke="none" font-family="sans-serif" font-size="11pt" font-style="normal" font-weight="normal" text-decoration="normal" x="1325.28096902902" y="1424.8535291882724" text-anchor="start" dominant-baseline="alphabetic" xml:space="preserve">Return existing users</text></g><g><path fill="none" stroke="black" paint-order="fill stroke markers" d=" M 1569.3303400709797 1434.4033403482724 L 1255.8382933876667 1434.4033403482724" stroke-miterlimit="10" stroke-width="1.9895439916666666" stroke-dasharray=""/><g transform="translate(1236.18159875,1434.4033403482724) translate(-1236.18159875,-1434.4033403482724)"><path fill="black" stroke="none" paint-order="stroke fill markers" d=" M 1256.0770386666666 1424.455620389939 L 1236.18159875 1434.4033403482724 L 1256.0770386666666 1444.3510603066059 Z"/></g></g><g><rect fill="white" stroke="none" x="760.5177156983333" y="1534.6763575282723" width="447.41235837" height="31.03688627"/><text fill="black" stroke="none" font-family="sans-serif" font-size="11pt" font-style="normal" font-weight="normal" text-decoration="normal" x="764.0988948833333" y="1556.1634326382723" text-anchor="start" dominant-baseline="alphabetic" xml:space="preserve">Return success status response with success message body</text></g><g><path fill="none" stroke="black" paint-order="fill stroke markers" d=" M 1236.18159875 1565.7132437982723 L 751.9228856543333 1565.7132437982723" stroke-miterlimit="10" stroke-width="1.9895439916666666" stroke-dasharray="9.54981116"/><g transform="translate(732.2661910166667,1565.7132437982723) translate(-732.2661910166667,-1565.7132437982723)"><path fill="black" stroke="none" paint-order="stroke fill markers" d=" M 752.1616309333333 1555.7655238399389 L 732.2661910166667 1565.7132437982723 L 752.1616309333333 1575.6609637566057 Z"/></g></g><g><rect fill="white" stroke="none" x="522.4356409804419" y="1601.5250356482723" width="137.17902096765624" height="31.03688627"/><text fill="black" stroke="none" font-family="sans-serif" font-size="11pt" font-style="normal" font-weight="normal" text-decoration="normal" x="526.0168201654419" y="1623.0121107582722" text-anchor="start" dominant-baseline="alphabetic" xml:space="preserve">Forward response</text></g><g><path fill="none" stroke="black" paint-order="fill stroke markers" d=" M 732.2661910166667 1632.5619219182722 L 469.4408103642373 1632.5619219182722" stroke-miterlimit="10" stroke-width="1.9895439916666666" stroke-dasharray="9.54981116"/><g transform="translate(449.78411572657063,1632.5619219182722) translate(-449.78411572657063,-1632.5619219182722)"><path fill="black" stroke="none" paint-order="stroke fill markers" d=" M 469.6795556432373 1622.6142019599388 L 449.78411572657063 1632.5619219182722 L 469.6795556432373 1642.5096418766057 Z"/></g></g><g><rect fill="white" stroke="none" x="203.35356626255043" y="1668.3737137682722" width="150.51236447351562" height="31.03688627"/><text fill="black" stroke="none" font-family="sans-serif" font-size="11pt" font-style="normal" font-weight="normal" text-decoration="normal" x="206.93474544755043" y="1689.8607888782722" text-anchor="start" dominant-baseline="alphabetic" xml:space="preserve">Route to login page</text></g><g><path fill="none" stroke="black" paint-order="fill stroke markers" d=" M 449.78411572657063 1699.4106000382722 L 127.09207018766668 1699.4106000382722" stroke-miterlimit="10" stroke-width="1.9895439916666666" stroke-dasharray="9.54981116"/><g transform="translate(107.43537555,1699.4106000382722) translate(-107.43537555,-1699.4106000382722)"><path fill="black" stroke="none" paint-order="stroke fill markers" d=" M 127.33081546666668 1689.4628800799387 L 107.43537555 1699.4106000382722 L 127.33081546666668 1709.3583199966056 Z"/></g></g><g><rect fill="white" stroke="none" x="817.9427187500911" y="1799.683617218272" width="332.56235226648437" height="31.03688627"/><text fill="black" stroke="none" font-family="sans-serif" font-size="11pt" font-style="normal" font-weight="normal" text-decoration="normal" x="821.5238979350911" y="1821.170692328272" text-anchor="start" dominant-baseline="alphabetic" xml:space="preserve">Return error status with error message body</text></g><g><path fill="none" stroke="black" paint-order="fill stroke markers" d=" M 1236.18159875 1830.720503488272 L 751.9228856543333 1830.720503488272" stroke-miterlimit="10" stroke-width="1.9895439916666666" stroke-dasharray="9.54981116"/><g transform="translate(732.2661910166667,1830.720503488272) translate(-732.2661910166667,-1830.720503488272)"><path fill="black" stroke="none" paint-order="stroke fill markers" d=" M 752.1616309333333 1820.7727835299386 L 732.2661910166667 1830.720503488272 L 752.1616309333333 1840.6682234466055 Z"/></g></g><g><rect fill="white" stroke="none" x="520.1106409327582" y="1866.532295338272" width="141.82903012292968" height="31.03688627"/><text fill="black" stroke="none" font-family="sans-serif" font-size="11pt" font-style="normal" font-weight="normal" text-decoration="normal" x="523.6918201177582" y="1888.019370448272" text-anchor="start" dominant-baseline="alphabetic" xml:space="preserve">Forward response </text></g><g><path fill="none" stroke="black" paint-order="fill stroke markers" d=" M 732.2661910166667 1897.569181608272 L 469.4408103642373 1897.569181608272" stroke-miterlimit="10" stroke-width="1.9895439916666666" stroke-dasharray="9.54981116"/><g transform="translate(449.78411572657063,1897.569181608272) translate(-449.78411572657063,-1897.569181608272)"><path fill="black" stroke="none" paint-order="stroke fill markers" d=" M 469.6795556432373 1887.6214616499385 L 449.78411572657063 1897.569181608272 L 469.6795556432373 1907.5169015666054 Z"/></g></g><g><rect fill="white" stroke="none" x="135.68690023166664" y="1933.380973458272" width="285.84567746179687" height="31.03688627"/><text fill="black" stroke="none" font-family="sans-serif" font-size="11pt" font-style="normal" font-weight="normal" text-decoration="normal" x="139.26807941666664" y="1954.868048568272" text-anchor="start" dominant-baseline="alphabetic" xml:space="preserve">Display account creation fail message</text></g><g><path fill="none" stroke="black" paint-order="fill stroke markers" d=" M 449.78411572657063 1964.4178597282719 L 127.09207018766668 1964.4178597282719" stroke-miterlimit="10" stroke-width="1.9895439916666666" stroke-dasharray="9.54981116"/><g transform="translate(107.43537555,1964.4178597282719) translate(-107.43537555,-1964.4178597282719)"><path fill="black" stroke="none" paint-order="stroke fill markers" d=" M 127.33081546666668 1954.4701397699384 L 107.43537555 1964.4178597282719 L 127.33081546666668 1974.3655796866053 Z"/></g></g><g><g/><path fill="none" stroke="black" paint-order="fill stroke markers" d=" M 23.874527900000004 570.1454303682726 L 1319.7424463999998 570.1454303682726 L 1319.7424463999998 1100.1599497482728 L 23.874527900000004 1100.1599497482728 L 23.874527900000004 570.1454303682726 Z" stroke-miterlimit="10" stroke-width="3.410646842857143" stroke-dasharray=""/><path fill="white" stroke="black" paint-order="fill stroke markers" d=" M 23.874527900000004 570.1454303682726 L 23.874527900000004 598.7948638482726 L 89.20691766911622 598.7948638482726 L 103.53163440911622 584.4701471082726 L 103.53163440911622 570.1454303682726 L 23.874527900000004 570.1454303682726" stroke-miterlimit="10" stroke-width="3.410646842857143" stroke-dasharray=""/><text fill="black" stroke="none" font-family="sans-serif" font-size="8.8pt" font-style="normal" font-weight="bold" text-decoration="normal" x="47.74905580000001" y="589.2450526882726" text-anchor="start" dominant-baseline="alphabetic" xml:space="preserve">alt</text><g><rect fill="white" stroke="none" x="123.82498312411623" y="572.0553926002726" width="153.54568966882812" height="24.829509016000003"/></g><text fill="black" stroke="none" font-family="sans-serif" font-size="8.8pt" font-style="normal" font-weight="bold" text-decoration="normal" x="127.40616230911623" y="589.2450526882726" text-anchor="start" dominant-baseline="alphabetic" xml:space="preserve">[login was successful]</text><g><path fill="none" stroke="black" paint-order="fill stroke markers" d=" M 23.874527900000004 835.1526900582728 L 1319.7424463999998 835.1526900582728" stroke-miterlimit="10" stroke-width="3.410646842857143" stroke-dasharray="5.968631975"/></g><g/><g><rect fill="white" stroke="none" x="123.82498312411623" y="837.0626522902728" width="170.27902707117187" height="24.829509016000003"/></g><text fill="black" stroke="none" font-family="sans-serif" font-size="8.8pt" font-style="normal" font-weight="bold" text-decoration="normal" x="127.40616230911623" y="854.2523123782728" text-anchor="start" dominant-baseline="alphabetic" xml:space="preserve">[login was unsuccessful]</text></g><g/><g><g/><path fill="none" stroke="black" paint-order="fill stroke markers" d=" M 23.874527900000004 1470.2151321982724 L 1319.7424463999998 1470.2151321982724 L 1319.7424463999998 2000.2296515782718 L 23.874527900000004 2000.2296515782718 L 23.874527900000004 1470.2151321982724 Z" stroke-miterlimit="10" stroke-width="3.410646842857143" stroke-dasharray=""/><path fill="white" stroke="black" paint-order="fill stroke markers" d=" M 23.874527900000004 1470.2151321982724 L 23.874527900000004 1498.8645656782724 L 89.20691766911622 1498.8645656782724 L 103.53163440911622 1484.5398489382724 L 103.53163440911622 1470.2151321982724 L 23.874527900000004 1470.2151321982724" stroke-miterlimit="10" stroke-width="3.410646842857143" stroke-dasharray=""/><text fill="black" stroke="none" font-family="sans-serif" font-size="8.8pt" font-style="normal" font-weight="bold" text-decoration="normal" x="47.74905580000001" y="1489.3147545182724" text-anchor="start" dominant-baseline="alphabetic" xml:space="preserve">alt</text><g><rect fill="white" stroke="none" x="123.82498312411623" y="1472.1250944302724" width="154.16235837" height="24.829509016000003"/></g><text fill="black" stroke="none" font-family="sans-serif" font-size="8.8pt" font-style="normal" font-weight="bold" text-decoration="normal" x="127.40616230911623" y="1489.3147545182724" text-anchor="start" dominant-baseline="alphabetic" xml:space="preserve">[Creation successsful]</text><g><path fill="none" stroke="black" paint-order="fill stroke markers" d=" M 23.874527900000004 1735.222391888272 L 1319.7424463999998 1735.222391888272" stroke-miterlimit="10" stroke-width="3.410646842857143" stroke-dasharray="5.968631975"/></g><g/><g><rect fill="white" stroke="none" x="123.82498312411623" y="1737.132354120272" width="111.8123598958789" height="24.829509016000003"/></g><text fill="black" stroke="none" font-family="sans-serif" font-size="8.8pt" font-style="normal" font-weight="bold" text-decoration="normal" x="127.40616230911623" y="1754.322014208272" text-anchor="start" dominant-baseline="alphabetic" xml:space="preserve">[Creation error]</text></g><g/></g><g/><g/><g/></g></svg>