<svg xmlns="http://www.w3.org/2000/svg" xmlns:xlink="http://www.w3.org/1999/xlink" version="1.1" width="961.2869787951133" height="427.818974427"><desc>actor%20User%0Aparticipant%20Staff%20Frontend%0Aparticipant%20nGINX%0Aparticipant%20Permissions%0Aparticipant%20Accounts%0Adatabase%20PermissionDB%0Adatabase%20AccountDB%0A%0A%0AUser-%3EnGINX%3A%20Update%20permission%20status%0AnGINX-%3EPermissions%3A%20forward%20message%0APermissions-%3EPermissionDB%3A%20Validate%20and%20update%20data%0A%0APermissions-%3EnGINX%3A%20Forward%20result%20message%0AnGINX-%3EStaff%20Frontend%3A%20Forward%20result%0AStaff%20Frontend-%3EUser%3A%20Update%20permissions%20display</desc><defs/><g><g/><g/><g/><g/><g/><g/><g/><g/><g/><g/><g/><g/><g/><g/><g/><g/><g/><g/><g/><g/><g/><g/><g/><g/><g/><g/><g/><g/><g/><g/><g/><g/><g/><g/><g><rect fill="white" stroke="none" x="0" y="0" width="961" height="427"/></g><g/><g><path fill="none" stroke="black" paint-order="fill stroke markers" d=" M 23.64361483359375 88.04674578699999 L 23.64361483359375 427.818974427" stroke-miterlimit="10" stroke-width="1.3612669416666667" stroke-dasharray="12.565541,5.445067766666667"/><path fill="none" stroke="black" paint-order="fill stroke markers" d=" M 246.46677598548175 88.04674578699999 L 246.46677598548175 427.818974427" stroke-miterlimit="10" stroke-width="1.3612669416666667" stroke-dasharray="12.565541,5.445067766666667"/><path fill="none" stroke="black" paint-order="fill stroke markers" d=" M 383.7137500035807 88.04674578699999 L 383.7137500035807 427.818974427" stroke-miterlimit="10" stroke-width="1.3612669416666667" stroke-dasharray="12.565541,5.445067766666667"/><path fill="none" stroke="black" paint-order="fill stroke markers" d=" M 584.5183259503906 88.04674578699999 L 584.5183259503906 427.818974427" stroke-miterlimit="10" stroke-width="1.3612669416666667" stroke-dasharray="12.565541,5.445067766666667"/><path fill="none" stroke="black" paint-order="fill stroke markers" d=" M 706.368883057875 88.04674578699999 L 706.368883057875 427.818974427" stroke-miterlimit="10" stroke-width="1.3612669416666667" stroke-dasharray="12.565541,5.445067766666667"/><path fill="none" stroke="black" paint-order="fill stroke markers" d=" M 817.0132845628867 88.04674578699999 L 817.0132845628867 427.818974427" stroke-miterlimit="10" stroke-width="1.3612669416666667" stroke-dasharray="12.565541,5.445067766666667"/><path fill="none" stroke="black" paint-order="fill stroke markers" d=" M 916.4515304654258 88.04674578699999 L 916.4515304654258 427.818974427" stroke-miterlimit="10" stroke-width="1.3612669416666667" stroke-dasharray="12.565541,5.445067766666667"/></g><g><g><path fill="white" stroke="black" paint-order="fill stroke markers" d=" M 32.95468071459375 18.948835828 A 9.311065881 9.311065881 0 1 1 32.9546760590612 18.93952476367084 M 23.64361483359375 28.259901709 L 23.64361483359375 48.188849735000005 M 11.882268457593753 35.447391161 L 35.40496120959375 35.447391161 M 23.64361483359375 48.188849735000005 L 11.882268457593753 66.810981497 M 23.64361483359375 48.188849735000005 L 35.40496120959375 66.810981497" stroke-miterlimit="10" stroke-width="2.7769845610000004" stroke-dasharray=""/></g><g><g/><text fill="black" stroke="none" font-family="sans-serif" font-size="11pt" font-style="normal" font-weight="normal" text-decoration="normal" x="8.167601650000002" y="83.14618479699999" text-anchor="start" dominant-baseline="alphabetic" xml:space="preserve">User</text></g><path fill="none" stroke="none"/><g><path fill="white" stroke="black" paint-order="fill stroke markers" d=" M 182.4259798800794 43.941696877 L 310.5075720908841 43.941696877 L 310.5075720908841 88.04674578699999 L 182.4259798800794 88.04674578699999 L 182.4259798800794 43.941696877 Z" stroke-miterlimit="10" stroke-width="2.613632528" stroke-dasharray=""/></g><g><g/><text fill="black" stroke="none" font-family="sans-serif" font-size="11pt" font-style="normal" font-weight="normal" text-decoration="normal" x="200.1496754605794" y="71.711542487" text-anchor="start" dominant-baseline="alphabetic" xml:space="preserve">Staff Frontend</text></g><path fill="none" stroke="none"/><g><path fill="white" stroke="black" paint-order="fill stroke markers" d=" M 343.9929154460299 43.941696877 L 423.4345845611315 43.941696877 L 423.4345845611315 88.04674578699999 L 343.9929154460299 88.04674578699999 L 343.9929154460299 43.941696877 Z" stroke-miterlimit="10" stroke-width="2.613632528" stroke-dasharray=""/></g><g><g/><text fill="black" stroke="none" font-family="sans-serif" font-size="11pt" font-style="normal" font-weight="normal" text-decoration="normal" x="361.7166110265299" y="71.711542487" text-anchor="start" dominant-baseline="alphabetic" xml:space="preserve">nGINX</text></g><path fill="none" stroke="none"/><g><path fill="white" stroke="black" paint-order="fill stroke markers" d=" M 526.8769744250664 43.941696877 L 642.1596774757148 43.941696877 L 642.1596774757148 88.04674578699999 L 526.8769744250664 88.04674578699999 L 526.8769744250664 43.941696877 Z" stroke-miterlimit="10" stroke-width="2.613632528" stroke-dasharray=""/></g><g><g/><text fill="black" stroke="none" font-family="sans-serif" font-size="11pt" font-style="normal" font-weight="normal" text-decoration="normal" x="544.6006700055664" y="71.711542487" text-anchor="start" dominant-baseline="alphabetic" xml:space="preserve">Permissions</text></g><path fill="none" stroke="none"/><g><path fill="white" stroke="black" paint-order="fill stroke markers" d=" M 658.4948807757148 43.941696877 L 754.2428853400352 43.941696877 L 754.2428853400352 88.04674578699999 L 658.4948807757148 88.04674578699999 L 658.4948807757148 43.941696877 Z" stroke-miterlimit="10" stroke-width="2.613632528" stroke-dasharray=""/></g><g><g/><text fill="black" stroke="none" font-family="sans-serif" font-size="11pt" font-style="normal" font-weight="normal" text-decoration="normal" x="676.2185763562148" y="71.711542487" text-anchor="start" dominant-baseline="alphabetic" xml:space="preserve">Accounts</text></g><g><path fill="white" stroke="black" paint-order="fill stroke markers" d=" M 793.1638877448868 56.029747319 L 793.1638877448868 21.725820389 L 840.8626813808867 21.725820389 L 840.8626813808867 56.029747319" stroke-miterlimit="10" stroke-width="2.7769845610000004" stroke-dasharray=""/><path fill="white" stroke="black" paint-order="fill stroke markers" d=" M 840.8626813808867 20.5333505481 L 840.861488920983 20.64116109301662 L 840.857911660517 20.748960856968594 L 840.8519499572117 20.85673906006935 L 840.8436044072323 20.964484924588405 L 840.8328758451271 21.072187676029085 L 840.8197653437433 21.179836544206 L 840.80427421412 21.287420764322043 L 840.7864040053574 21.394929578044856 L 840.7661565044614 21.502352234582652 L 840.7435337361652 21.6096779917593 L 840.7185379627268 21.716896117088513 L 840.6911716837028 21.82399588884712 L 840.6614376356982 21.93096659714718 L 840.6293387920931 22.037797545007013 L 840.594878362745 22.144478049420858 L 840.5580597936682 22.250997442427174 L 840.5188867666889 22.357345072175423 L 840.4773631990771 22.463510303991256 L 840.4334932431551 22.56948252143996 L 840.3872812858817 22.6752511273881 L 840.3387319484144 22.780805545063224 L 840.2878500856464 22.886135219111527 L 840.2346407857215 22.991229616653374 L 840.1791093695252 23.09607822833659 L 840.1212613901532 23.200670569387384 L 840.0611026323551 23.304996180658804 L 839.9986391119564 23.40904462967667 L 839.9338770752572 23.51280551168278 L 839.8668229984072 23.616268450675403 L 839.7974835867583 23.719423100446857 L 839.7258657741936 23.82225914561813 L 839.6519767224349 23.9247663026704 L 839.5758238203259 24.026934320973382 L 839.4974146830931 24.128752983810383 L 839.416757151585 24.230212109399975 L 839.3338592914876 24.331301551914144 L 839.2487293925177 24.432011202492884 L 839.1613759675943 24.532330990255055 L 839.0718077519871 24.63225088330548 L 838.980033702443 24.731760889738126 L 838.8860629962905 24.830851058635275 L 838.789905030522 24.929511481062605 L 838.691569420854 25.027732291060094 L 838.5910660007651 25.125503666628592 L 838.488404820514 25.222815830712022 L 838.383596146133 25.319659052175062 L 838.2766504584021 25.416023646776274 L 838.1675784518011 25.511899978136498 L 838.0563910334398 25.607278458702496 L 837.9430993219672 25.70214955070569 L 837.8277146464603 25.796503767115947 L 837.7102485452903 25.890331672590246 L 837.5907127649693 25.983623884416232 L 837.4691192589761 26.076371073450467 L 837.3454801865597 26.168563965051334 L 837.2198079115243 26.260193340006502 L 837.0921150009929 26.351250035454832 L 836.9624142241498 26.44172494580266 L 836.8307185509649 26.531609023634346 L 836.6970411508956 26.62089328061701 L 836.5613953915707 26.709568788399363 L 836.4237948374529 26.79762667950451 L 836.284253248483 26.885058148216736 L 836.1427845787036 26.97185445146202 L 835.9994029748639 27.05800690968237 L 835.8541227750047 27.143506907703753 L 835.7069585070249 27.228345895597624 L 835.5579248872288 27.31251538953589 L 835.4070368188538 27.3960069726393 L 835.2543093905815 27.47881229581911 L 835.0997578750273 27.56092307861202 L 834.9433977272138 27.64233111000817 L 834.7852445830255 27.723028249272257 L 834.6253142576452 27.803006426757605 L 834.463622743972 27.882257644713114 L 834.3001862110227 27.96077397808303 L 834.1350210023141 28.038547575299447 L 833.9681436342298 28.115570659067455 L 833.7995707943674 28.19183552714286 L 833.6293193398702 28.267334553102412 L 833.4574062957421 28.34206018710643 L 833.283848853144 28.416004956653783 L 833.1086643676757 28.489161467329136 L 832.9318703576397 28.561522403542384 L 832.7534845022897 28.633080529260212 L 832.5735246400624 28.70382868872968 L 832.3920087667943 28.773759807193787 L 832.2089550339214 28.842866891598973 L 832.0243817466644 28.911143031294383 L 831.8383073621982 28.978581398722945 L 831.6507504878062 29.045175250104112 L 831.4617298790196 29.110917926108243 L 831.2712644377417 29.175802852522523 L 831.0793732103579 29.239823540908375 L 830.8860753858311 29.30297358925032 L 830.6913902937825 29.365246682596148 L 830.4953374025594 29.426636593688414 L 830.2979363172872 29.487137183587166 L 830.0992067779101 29.546742402283833 L 829.8991686572164 29.605446289306215 L 829.6978419588514 29.663242974314535 L 829.4952468153174 29.720126677688448 L 829.2914034859596 29.776091711105025 L 829.0863323549413 29.831132478107563 L 828.8800539292046 29.885243474665224 L 828.6725888364202 29.938419289723445 L 828.4639578229245 29.990654605745036 L 828.2541817516451 30.041944199241925 L 828.0432816000141 30.092282941297498 L 827.831278457871 30.1416657980795 L 827.6181935253534 30.190087831343412 L 827.404048110777 30.23754419892625 L 827.1888636285047 30.28403015523081 L 826.9726615968054 30.329541051700197 L 826.7554636357023 30.374072337282684 L 826.5372914648103 30.417619558886827 L 826.3181669011648 30.460178361826756 L 826.0981118570394 30.501744490257643 L 825.8771483377553 30.54231378760128 L 825.6552984394804 30.581882196961743 L 825.4325843470193 30.620445761531066 L 825.2090283315958 30.658000624984936 L 824.9846527486254 30.694543031868292 L 824.7594800354791 30.730069327970906 L 824.5335327092407 30.764575960692767 L 824.3068333644545 30.798059479399367 L 824.0794046708661 30.830516535766726 L 823.8512693711552 30.86194388411627 L 823.622450278662 30.892338381739336 L 823.3929702751046 30.921696989211505 L 823.1628523082926 30.950016770696486 L 822.9321193898305 30.977294894239733 L 822.7007945928182 31.003528632051626 L 822.4689010495423 31.028715360780247 L 822.2364619491642 31.052852561773705 L 822.0035005354001 31.075937821332012 L 821.7700401041972 31.097968830948464 L 821.5361040014042 31.118943387540448 L 821.3017156204362 31.138859393669783 L 821.0668983999362 31.15771485775246 L 820.8316758214306 31.175507894257777 L 820.596071406981 31.19223672389691 L 820.3601087168327 31.207899673800846 L 820.123811347058 31.222495177687634 L 819.887202927197 31.236021776019058 L 819.6503071178944 31.24847811614655 L 819.4131476085339 31.259862952446483 L 819.1757481148687 31.27017514644471 L 818.9381323766503 31.279413666930427 L 818.7003241552546 31.287577590059286 L 818.4623472313056 31.29466609944577 L 818.2242254022972 31.300678486244855 L 817.985982480214 31.30561414922287 L 817.7476422891497 31.309472594817628 L 817.5092286629247 31.31225343718779 L 817.2707654427029 31.313956398251428 L 817.0322764746078 31.31458130771386 L 816.7937856073372 31.314128103084656 L 816.5553166897794 31.312596829683912 L 816.3168935686272 31.30998764063768 L 816.0785400859942 31.306300796862697 L 815.8402800770298 31.301536667040267 L 815.6021373675366 31.2956957275794 L 815.3641357715869 31.288778562569174 L 815.1262990891421 31.280785863720332 L 814.8886511036721 31.27171843029609 L 814.6512155797776 31.261577169032243 L 814.4140162608129 31.25036309404646 L 814.1770768665125 31.238077326736896 L 813.9404210906182 31.224721095670045 L 813.7040725985104 31.21029573645788 L 813.4680550248413 31.194802691624307 L 813.2323919711718 31.178243510460895 L 812.9971070036106 31.16061984887196 L 812.7622236504586 31.14193346920898 L 812.5277653998553 31.12218624009434 L 812.2937556974305 31.101380136234503 L 812.0602179439591 31.079517238222515 L 811.8271754930222 31.056599732329957 L 811.5946516486705 31.03262991028832 L 811.3626696630946 31.007610169059838 L 811.1312527343 30.98154301059778 L 810.9004240037865 30.954431041596266 L 810.6702065542349 30.926276973229612 L 810.4406234071984 30.897083620881187 L 810.2116975208 30.866853903861898 L 809.9834517874381 30.835590845118258 L 809.7559090314954 30.803297570930084 L 809.5290920070581 30.769977310597895 L 809.3030233956397 30.735633396119944 L 809.0777258039127 30.70026926185907 L 808.8532217614486 30.663888444199216 L 808.6295337184647 30.62649458119185 L 808.4066840435788 30.588091412192092 L 808.1846950215727 30.54868277748485 L 807.9635888511636 30.50827261790075 L 807.7433876427842 30.46686497442208 L 807.5241134163721 30.42446398777868 L 807.3057880991669 30.381073898033875 L 807.0884335235185 30.33669904416049 L 806.8720714247034 30.291343863606926 L 806.6567234387511 30.245012891853445 L 806.4424111002809 30.197710761958614 L 806.2291558403477 30.149442204096005 L 806.0169789843003 30.10021204508118 L 805.805901749647 30.050025207889014 L 805.5959452439356 29.998886711161404 L 805.3871304626417 29.94680166870541 L 805.1794782870694 29.893775288981875 L 804.9730094822633 29.839812874584574 L 804.7677446949316 29.784919821709988 L 804.5637044513821 29.729101619617655 L 804.3609091554691 29.67236385008127 L 804.1593790865534 29.614712186830506 L 803.9591343974737 29.55615239498365 L 803.7601951125321 29.496690330471075 L 803.5625811254913 29.43633193944969 L 803.3663121975854 29.375083257708297 L 803.1714079555436 29.31295041006403 L 802.9778878896277 29.249939609749873 L 802.7857713516829 29.186057157793353 L 802.5950775532032 29.121309442386426 L 802.4058255634092 29.055702938246682 L 802.2180343073422 28.98924420596986 L 802.0317225639716 28.921939891373807 L 801.8469089643162 28.85379672483389 L 801.6636119895821 28.784821520609988 L 801.481849969314 28.71502117616503 L 801.3016410795624 28.644402671475305 L 801.1230033410661 28.572973068332434 L 800.9459546174502 28.5007395096372 L 800.7705126134393 28.42770921868528 L 800.5966948730879 28.353889498444914 L 800.424518778025 28.279287730826603 L 800.2540015457166 28.20391137594495 L 800.085160227744 28.127767971372624 L 799.9180117080981 28.05086513138663 L 799.7525727014918 27.973210546206882 L 799.5888597516876 27.894811981227186 L 799.4268892298443 27.81567727623871 L 799.266677332879 27.735814344646005 L 799.1082400818478 27.655231172675677 L 798.951593320344 27.573935818577773 L 798.7967527129132 27.491936411819957 L 798.6437337434868 27.409241152274568 L 798.4925517138346 27.325858309398654 L 798.3432217420333 27.241796221407014 L 798.1957587609558 27.157063294438398 L 798.0501775167772 27.07166800171489 L 797.9064925675008 26.985618882694595 L 797.7647182815016 26.89892454221772 L 797.6248688360902 26.811593649646056 L 797.4869582160944 26.723634937996092 L 797.3510002124614 26.63505720306569 L 797.2170084208783 26.54586930255453 L 797.0849962404126 26.45608015517834 L 796.9549768721722 26.365698739777034 L 796.8269633179857 26.274734094416832 L 796.7009683791018 26.183195315486472 L 796.5770046549095 26.09109155678756 L 796.4550845416778 25.998432028619217 L 796.3352202313164 25.90522599685704 L 796.2174237101565 25.811482782026534 L 796.101706757752 25.717211758371064 L 795.9880809457018 25.62242235291444 L 795.8765576364924 25.527124044518214 L 795.7671479823617 25.431326362933806 L 795.659862924184 25.33503888784955 L 795.5547131903758 25.238271247932712 L 795.4517092958228 25.141033119866645 L 795.3508615408284 25.043334227383127 L 795.2521800100843 24.945184340289984 L 795.1556745716614 24.84659327349414 L 795.061354876023 24.74757088602011 L 794.96923035506 24.648127080024132 L 794.8793102211478 24.548271799803928 L 794.7916034662248 24.448015030804306 L 794.7061188608935 24.34736679861863 L 794.6228649535433 24.246337167986233 L 794.5418500694952 24.144936241786 L 794.4630823101704 24.043174160026034 L 794.3865695522792 23.941061098829724 L 794.3123194470334 23.83860726941809 L 794.2403394193818 23.735822917088697 L 794.1706366672671 23.63271832019112 L 794.1032181609066 23.52930378909913 L 794.0380906420946 23.425589665179665 L 793.9752606235287 23.32158631975868 L 793.9147343881585 23.21730415308405 L 793.856517988557 23.112753593285547 L 793.8006172463158 23.00794509533202 L 793.7470377514624 22.90288913998592 L 793.6957848619015 22.797596232755243 L 793.6468637028797 22.692076902842967 L 793.6002791664719 22.58634170209415 L 793.556035911093 22.48040120394075 L 793.5141383610315 22.374266002344307 L 793.4745907060078 22.267946710736528 L 793.4373969007542 22.161453960957978 L 793.4025606646203 22.05479840219489 L 793.3700854812006 21.94799069991426 L 793.3399745979866 21.841041534797313 L 793.3122310260413 21.733961601671435 L 793.286857539699 21.62676160844071 L 793.263856676287 21.51945227501512 L 793.2432307358725 21.412044332238587 L 793.2249817810324 21.30454852081588 L 793.209111636647 21.19697559023857 L 793.1956218897175 21.08933629771006 L 793.1845138892072 20.98164140706991 L 793.1757887459072 20.87390168771744 L 793.1694473323242 20.7661279135348 L 793.1654902825946 20.658330861809592 L 793.1639179924199 20.55052131215717 L 793.1647306190279 20.442710045442645 L 793.1679280811564 20.334907842702854 L 793.1735100590621 20.227125484068235 L 793.1814759945518 20.119373747684833 L 793.1918250910385 20.011663408636494 L 793.2045563136213 19.904005237867363 L 793.2196683891884 19.7964100011048 L 793.237159806545 19.688888457782824 L 793.2570288165639 19.581451359966163 L 793.2792734323605 19.47410945127507 L 793.303891429492 19.366873465810958 L 793.3308803461789 19.259754127083017 L 793.3602374835523 19.15276214693585 L 793.3919599059228 19.04590822447831 L 793.4260444410747 18.939203045013606 L 793.4624876805827 18.832657278970757 L 793.5012859801535 18.72628158083758 L 793.5424354599892 18.620086588095244 L 793.5859320051762 18.51408292015453 L 793.6317712660963 18.408281177293887 L 793.6799486588615 18.302691939599445 L 793.7304593657727 18.197325765906974 L 793.7832983358013 18.092193192746045 L 793.8384602850945 17.987304733286358 L 793.8959396975031 17.882670876286454 L 793.9557308251339 17.77830208504484 L 794.0178276889237 17.674208796353664 L 794.0822240792382 17.570401419455052 L 794.1489135564921 17.46689033500019 L 794.2178894517929 17.36368589401126 L 794.2891448676087 17.260798416846367 L 794.3626726784573 17.158238192167477 L 794.4384655316189 17.056015475911597 L 794.5165158478713 16.954140490265164 L 794.5968158222481 16.85262342264185 L 794.6793574248185 16.751474424663822 L 794.7641324014912 16.650703611146586 L 794.8511322748392 16.550321059087512 L 794.9403483449476 16.450336806658164 L 795.0317716902837 16.350760852200455 L 795.1253931685892 16.25160315322686 L 795.2212034177942 16.15287362542464 L 795.3191928569538 16.054582141664305 L 795.4193516872057 15.956738531012315 L 795.5216698927502 15.859352577748204 L 795.626137241852 15.762434020386143 L 795.7327432878635 15.665992550701102 L 795.8414773702688 15.570037812759686 L 795.95232861575 15.47457940195572 L 796.0652859392754 15.379626864050742 L 796.1803380452066 15.285189694219413 L 796.2974734284287 15.191277336100018 L 796.4166803755011 15.097899180850114 L 796.5379469658285 15.005064566207405 L 796.661261072853 14.912782775555993 L 796.7866103652664 14.821063036998048 L 796.913982308244 14.729914522430988 L 797.0433641646979 14.639346346630315 L 797.17474299655 14.549367566338134 L 797.3081056660266 14.459987179357494 L 797.443438836972 14.371214123652608 L 797.5807289761818 14.283057276455072 L 797.7199623547566 14.195525453376138 L 797.8611250494745 14.108627407525177 L 798.0042029441836 14.022371828634352 L 798.1491817312137 13.936767342189675 L 798.296046912807 13.851822508568457 L 798.4447838025677 13.76754582218327 L 798.5953775269306 13.683945710632521 L 798.747813026649 13.601030533857704 L 798.9020750582998 13.518808583307395 L 799.0581481958085 13.437288081108132 L 799.2160168319913 13.356477179242205 L 799.3756651801162 13.276383958732454 L 799.5370772754814 13.19701642883419 L 799.7002369770119 13.11838252623426 L 799.8651279688734 13.040490114257395 L 800.0317337621043 12.963346982079887 L 800.2000376962641 12.886960843950664 L 800.3700229410994 12.811339338419888 L 800.5416724982276 12.73649002757509 L 800.7149692028361 12.662420396284983 L 800.8898957253986 12.589137851450971 L 801.0664345734087 12.51664972126647 L 801.2445680931288 12.444963254484088 L 801.4242784713554 12.37408561969077 L 801.6055477372003 12.304023904590924 L 801.7883577638879 12.234785115297683 L 801.9726902705681 12.166376175632273 L 802.1585268241439 12.098803926431655 L 802.3458488411145 12.032075124864438 L 802.5346375894344 11.966196443755171 L 802.7248741903862 11.901174470917068 L 802.9165396204684 11.837015708493228 L 803.1096147132974 11.773726572306426 L 803.3040801615251 11.71131339121754 L 803.4999165187687 11.64978240649267 L 803.6971042015555 11.589139771179015 L 803.8956234912818 11.529391549489564 L 804.0954545361838 11.470543716196703 L 804.2965773533235 11.412602156034716 L 804.4989718305872 11.355572663111337 L 804.7026177286955 11.299460940328336 L 804.9074946832283 11.244272598811229 L 805.1135822066609 11.190013157348178 L 805.3208596904128 11.136688041838113 L 805.5293064069083 11.084302584748148 L 805.7389015116495 11.03286202458034 L 805.9496240453004 10.982371505347833 L 806.1614529357835 10.932836076060482 L 806.3743670003861 10.88426069021993 L 806.5883449478792 10.836650205324288 L 806.8033653806465 10.790009382382364 L 807.0194067968237 10.74434288543759 L 807.2364475924492 10.6996552811016 L 807.4544660636245 10.655951038097594 L 807.6734404086841 10.613234526813446 L 807.8933487303759 10.571510018864695 L 808.114169038051 10.530781686667359 L 808.3358792498627 10.49105360302072 L 808.5584571949746 10.452329740700035 L 808.7818806157776 10.41461397205927 L 809.0061271701157 10.377910068643855 L 809.2311744335207 10.342221700813546 L 809.4569999014534 10.307552437375389 L 809.6835809915555 10.273905745226832 L 809.9108950459066 10.241284989009054 L 810.1389193332907 10.209693430770495 L 810.3676310514692 10.179134229640646 L 810.5970073294608 10.14961044151416 L 810.8270252298289 10.121125018745243 L 811.0576617509751 10.093680809852438 L 811.2888938294394 10.067280559233762 L 811.5206983422067 10.041926906892275 L 811.7530521090191 10.017622388172084 L 811.9859318946933 9.99436943350481 L 812.2193144114449 9.972170368166541 L 812.4531763212167 9.95102741204531 L 812.6874942380125 9.930942679419111 L 812.922244730236 9.91191817874447 L 813.1574043230336 9.893955812455602 L 813.392949500642 9.877057376774163 L 813.6288567087396 9.861224561529642 L 813.8651023568024 9.846458949990371 L 814.1016628204621 9.832762018705198 L 814.3385144438699 9.820135137355836 L 814.5756335420606 9.808579568619898 L 814.812996403322 9.798096468044628 L 815.0505792915658 9.78868688393135 L 815.288358448701 9.780351757230632 L 815.5263100970104 9.773091921448197 L 815.7644104415272 9.766908102561576 L 816.0026356724153 9.761800918947504 L 816.2409619673504 9.757770881320084 L 816.4793654939014 9.754818392679725 L 816.7178224119142 9.752943748272825 L 816.9563088758961 9.752147135562266 L 817.1948010373991 9.752428634208655 L 817.4332750474059 9.753788216062361 L 817.6717070587143 9.756225745166333 L 817.9100732283218 9.75974097776969 L 818.1483497198101 9.764333562352103 L 818.3865127057286 9.770003039658938 L 818.6245383699771 9.776748842747192 L 818.8624029101876 9.784570297042176 L 819.1000825401043 9.793466620404978 L 819.3375534919624 9.803436923210677 L 819.5747920188643 9.8144802084373 L 819.8117743971552 9.826595371765528 L 820.0484769287948 9.83978120168912 L 820.2848759437271 9.854036379636078 L 820.5209478022477 9.869359480100481 L 820.7566688973674 9.885748970785057 L 820.992015657173 9.903203212754391 L 821.2269645471849 9.921720460598834 L 821.4614920727097 9.941298862609031 L 821.6955747811904 9.961936460961097 L 821.9291892645512 9.983631191912394 L 822.1623121615382 10.006380886007905 L 822.3949201600564 10.030183268297181 L 822.6269899994994 10.055035958561827 L 822.8584984730769 10.080936471553528 L 823.0894224301344 10.107882217242567 L 823.3197387784686 10.13587050107683 L 823.5494244866366 10.164898524251257 L 823.7784565862589 10.194963383987721 L 824.0068121743166 10.226062073825304 L 824.234468415441 10.258191483920934 L 824.4614025441978 10.291348401360379 L 824.6875918673632 10.325529510479525 L 824.9130137661934 10.360731393195941 L 825.1376456986864 10.396950529350695 L 825.361465201836 10.434183297060352 L 825.5844498938786 10.472425973079169 L 825.8065774765306 10.51167473317141 L 826.0278257372191 10.551925652493777 L 826.2481725513022 10.593174705987877 L 826.4675958842821 10.635417768782737 L 826.6860737940085 10.678650616607278 L 826.9035844328724 10.722868926212747 L 827.1201060499913 10.76806827580503 L 827.3356169933836 10.814244145486835 L 827.5500957121349 10.861391917709673 L 827.7635207585519 10.909506877735609 L 827.9758707903078 10.95858421410874 L 828.1871245725765 11.008619019136324 L 828.3972609801557 11.059606289379555 L 828.6062589995797 11.111540926153898 L 828.814097731221 11.164417736038953 L 829.0207563913792 11.218231431397797 L 829.226214314361 11.272976630905736 L 829.4304509545449 11.328647860088443 L 829.6334458884372 11.385239551869391 L 829.8351788167138 11.442746047126562 L 830.0356295662499 11.501161595258353 L 830.2347780921375 11.560480354758626 L 830.4326044796901 11.620696393800868 L 830.6290889464337 11.681803690831353 L 830.8242118440855 11.7437961351713 L 831.0179536605183 11.806667527627935 L 831.2102950217117 11.870411581114405 L 831.4012166936901 11.935021921278484 L 831.5906995844452 12.000492087139994 L 831.7787247458461 12.066815531736909 L 831.9652733755332 12.133985622780036 L 832.1503268187989 12.201995643316248 L 832.3338665704532 12.270838792400168 L 832.5158742766739 12.340508185774253 L 832.696331736842 12.410996856557224 L 832.8752209053619 12.482297755940746 L 833.0525238934656 12.554403753894292 L 833.2282229710024 12.627307639878161 L 833.4023005682108 12.701002123564503 L 833.574739277476 12.775479835566365 L 833.745521855071 12.85073332817461 L 833.9146312228803 12.926755076102687 L 834.0820504701079 13.003537477239155 L 834.2477628549688 13.081072853407886 L 834.4117518063624 13.159353451135875 L 834.5740009255304 13.238371442428583 L 834.734493987696 13.318118925552731 L 834.8932149436869 13.398587925826458 L 835.0501479215394 13.4797703964168 L 835.2052772280867 13.561658219144345 L 835.3585873505276 13.64424320529506 L 835.5100629579773 13.727517096439154 L 835.6596889030014 13.811471565256904 L 835.8074502231302 13.89609821637139 L 835.9533321423547 13.981388587188025 L 836.0973200726046 14.0673341487408 L 836.2393996152068 14.153926306545182 L 836.3795565623255 14.241156401457552 L 836.5177768983827 14.329015710541107 L 836.6540468014601 14.417495447938157 L 836.7883526446809 14.506586765748693 L 836.9206809975727 14.59628075491518 L 837.0510186274104 14.68656844611344 L 837.1793525005397 14.777440810649601 L 837.3056697836804 14.868888761362928 L 837.4299578452091 14.96090315353456 L 837.5522042564235 15.05347478580196 L 837.6723967927842 15.146594401079039 L 837.7905234351379 15.240252687481874 L 837.9065723709185 15.33444027925987 L 838.0205319953294 15.429147757732338 L 838.1323909125031 15.524365652230356 L 838.2421379366409 15.62008444104382 L 838.3497620931321 15.716294552373615 L 838.4552526196505 15.812986365288783 L 838.5585989672315 15.910150210688608 L 838.6597908013265 16.00777637226952 L 838.7588180028364 16.105855087496717 L 838.8556706691234 16.204376548580406 L 838.9503391150017 16.30333090345658 L 839.0428138737057 16.402708256772215 L 839.1330856978365 16.502498670874793 L 839.2211455602868 16.602692166806058 L 839.3069846551439 16.703278725299917 L 839.3905943985699 16.80424828778434 L 839.4719664296598 16.90559075738722 L 839.5510926112787 17.00729599994605 L 839.6279650308742 17.10935384502132 L 839.7025760012683 17.211754086913583 L 839.7749180614264 17.314486485683975 L 839.8449839772026 17.41754076817823 L 839.9127667420636 17.52090662905398 L 839.9782595777896 17.62457373181127 L 840.0414559351514 17.728531709826218 L 840.1023494945662 17.83277016738765 L 840.1609341667286 17.93727868073668 L 840.2172040932202 18.04204679910906 L 840.2711536470954 18.147064045780258 L 840.3227774334437 18.252319919113123 L 840.3720702899293 18.357803893608033 L 840.4190272873079 18.463505420955443 L 840.4636437299188 18.569413931090704 L 840.5059151561549 18.675518833251058 L 840.5458373389087 18.781809517034706 L 840.5834062859954 18.88827535346185 L 840.6186182405513 18.994905696037566 L 840.6514696814106 19.101689881816455 L 840.6819573234566 19.208617232468924 L 840.7100781179503 19.31567705534902 L 840.7358292528356 19.422858644563664 L 840.7592081530208 19.530151282043253 L 840.7802124806351 19.637544238613454 L 840.7988401352634 19.745026775068098 L 840.8150892541556 19.852588143243114 L 840.8289582124136 19.960217587091314 L 840.8404456231528 20.067904343758006 L 840.849550337642 20.17563764465726 L 840.8562714454172 20.283406716548765 L 840.8606082743731 20.39120078261514 L 840.8625603908307 20.49900906353961 M 840.8626813808867 54.8372774781 L 840.861488920983 54.94508802301662 L 840.857911660517 55.05288778696859 L 840.8519499572117 55.160665990069354 L 840.8436044072323 55.2684118545884 L 840.8328758451271 55.376114606029084 L 840.8197653437433 55.483763474206 L 840.80427421412 55.591347694322046 L 840.7864040053574 55.698856508044855 L 840.7661565044614 55.80627916458265 L 840.7435337361652 55.913604921759294 L 840.7185379627268 56.02082304708851 L 840.6911716837028 56.12792281884712 L 840.6614376356982 56.23489352714718 L 840.6293387920931 56.34172447500701 L 840.594878362745 56.44840497942086 L 840.5580597936682 56.55492437242717 L 840.5188867666889 56.66127200217542 L 840.4773631990771 56.76743723399125 L 840.4334932431551 56.87340945143996 L 840.3872812858817 56.979178057388104 L 840.3387319484144 57.08473247506323 L 840.2878500856464 57.190062149111526 L 840.2346407857215 57.295156546653374 L 840.1791093695252 57.40000515833659 L 840.1212613901532 57.50459749938738 L 840.0611026323551 57.60892311065881 L 839.9986391119564 57.71297155967667 L 839.9338770752572 57.81673244168278 L 839.8668229984072 57.9201953806754 L 839.7974835867583 58.023350030446856 L 839.7258657741936 58.12618607561813 L 839.6519767224349 58.228693232670395 L 839.5758238203259 58.33086125097338 L 839.4974146830931 58.43267991381038 L 839.416757151585 58.534139039399975 L 839.3338592914876 58.63522848191415 L 839.2487293925177 58.73593813249288 L 839.1613759675943 58.83625792025505 L 839.0718077519871 58.93617781330548 L 838.980033702443 59.03568781973813 L 838.8860629962905 59.13477798863527 L 838.789905030522 59.23343841106261 L 838.691569420854 59.33165922106009 L 838.5910660007651 59.42943059662859 L 838.488404820514 59.52674276071202 L 838.383596146133 59.623585982175065 L 838.2766504584021 59.71995057677627 L 838.1675784518011 59.8158269081365 L 838.0563910334398 59.9112053887025 L 837.9430993219672 60.006076480705694 L 837.8277146464603 60.10043069711595 L 837.7102485452903 60.194258602590246 L 837.5907127649693 60.287550814416235 L 837.4691192589761 60.38029800345047 L 837.3454801865597 60.47249089505134 L 837.2198079115243 60.564120270006505 L 837.0921150009929 60.655176965454835 L 836.9624142241498 60.74565187580266 L 836.8307185509649 60.83553595363435 L 836.6970411508956 60.924820210617014 L 836.5613953915707 61.01349571839936 L 836.4237948374529 61.10155360950451 L 836.284253248483 61.18898507821674 L 836.1427845787036 61.27578138146202 L 835.9994029748639 61.361933839682365 L 835.8541227750047 61.447433837703755 L 835.7069585070249 61.53227282559762 L 835.5579248872288 61.61644231953589 L 835.4070368188538 61.699933902639295 L 835.2543093905815 61.782739225819114 L 835.0997578750273 61.86485000861202 L 834.9433977272138 61.94625804000817 L 834.7852445830255 62.02695517927226 L 834.6253142576452 62.1069333567576 L 834.463622743972 62.18618457471311 L 834.3001862110227 62.26470090808303 L 834.1350210023141 62.34247450529945 L 833.9681436342298 62.419497589067454 L 833.7995707943674 62.49576245714286 L 833.6293193398702 62.57126148310241 L 833.4574062957421 62.64598711710643 L 833.283848853144 62.71993188665378 L 833.1086643676757 62.793088397329136 L 832.9318703576397 62.86544933354239 L 832.7534845022897 62.937007459260215 L 832.5735246400624 63.007755618729675 L 832.3920087667943 63.07768673719379 L 832.2089550339214 63.146793821598976 L 832.0243817466644 63.21506996129438 L 831.8383073621982 63.28250832872294 L 831.6507504878062 63.34910218010411 L 831.4617298790196 63.414844856108246 L 831.2712644377417 63.47972978252252 L 831.0793732103579 63.54375047090838 L 830.8860753858311 63.606900519250324 L 830.6913902937825 63.66917361259615 L 830.4953374025594 63.73056352368841 L 830.2979363172872 63.79106411358716 L 830.0992067779101 63.85066933228383 L 829.8991686572164 63.90937321930622 L 829.6978419588514 63.96716990431453 L 829.4952468153174 64.02405360768844 L 829.2914034859596 64.08001864110503 L 829.0863323549413 64.13505940810757 L 828.8800539292046 64.18917040466522 L 828.6725888364202 64.24234621972344 L 828.4639578229245 64.29458153574504 L 828.2541817516451 64.34587112924193 L 828.0432816000141 64.3962098712975 L 827.831278457871 64.4455927280795 L 827.6181935253534 64.49401476134341 L 827.404048110777 64.54147112892625 L 827.1888636285047 64.58795708523081 L 826.9726615968054 64.63346798170019 L 826.7554636357023 64.67799926728269 L 826.5372914648103 64.72154648888683 L 826.3181669011648 64.76410529182675 L 826.0981118570394 64.80567142025764 L 825.8771483377553 64.84624071760128 L 825.6552984394804 64.88580912696175 L 825.4325843470193 64.92437269153106 L 825.2090283315958 64.96192755498494 L 824.9846527486254 64.9984699618683 L 824.7594800354791 65.0339962579709 L 824.5335327092407 65.06850289069277 L 824.3068333644545 65.10198640939936 L 824.0794046708661 65.13444346576672 L 823.8512693711552 65.16587081411626 L 823.622450278662 65.19626531173934 L 823.3929702751046 65.2256239192115 L 823.1628523082926 65.25394370069648 L 822.9321193898305 65.28122182423974 L 822.7007945928182 65.30745556205163 L 822.4689010495423 65.33264229078024 L 822.2364619491642 65.35677949177371 L 822.0035005354001 65.37986475133201 L 821.7700401041972 65.40189576094846 L 821.5361040014042 65.42287031754044 L 821.3017156204362 65.44278632366978 L 821.0668983999362 65.46164178775246 L 820.8316758214306 65.47943482425778 L 820.596071406981 65.49616365389691 L 820.3601087168327 65.51182660380084 L 820.123811347058 65.52642210768764 L 819.887202927197 65.53994870601906 L 819.6503071178944 65.55240504614655 L 819.4131476085339 65.56378988244649 L 819.1757481148687 65.57410207644472 L 818.9381323766503 65.58334059693043 L 818.7003241552546 65.59150452005929 L 818.4623472313056 65.59859302944577 L 818.2242254022972 65.60460541624485 L 817.985982480214 65.60954107922286 L 817.7476422891497 65.61339952481762 L 817.5092286629247 65.61618036718778 L 817.2707654427029 65.61788332825142 L 817.0322764746078 65.61850823771385 L 816.7937856073372 65.61805503308466 L 816.5553166897794 65.61652375968391 L 816.3168935686272 65.61391457063768 L 816.0785400859942 65.61022772686269 L 815.8402800770298 65.60546359704027 L 815.6021373675366 65.5996226575794 L 815.3641357715869 65.59270549256917 L 815.1262990891421 65.58471279372033 L 814.8886511036721 65.5756453602961 L 814.6512155797776 65.56550409903224 L 814.4140162608129 65.55429002404645 L 814.1770768665125 65.5420042567369 L 813.9404210906182 65.52864802567004 L 813.7040725985104 65.51422266645788 L 813.4680550248413 65.4987296216243 L 813.2323919711718 65.48217044046089 L 812.9971070036106 65.46454677887196 L 812.7622236504586 65.44586039920898 L 812.5277653998553 65.42611317009434 L 812.2937556974305 65.4053070662345 L 812.0602179439591 65.38344416822251 L 811.8271754930222 65.36052666232996 L 811.5946516486705 65.33655684028832 L 811.3626696630946 65.31153709905983 L 811.1312527343 65.28546994059778 L 810.9004240037865 65.25835797159627 L 810.6702065542349 65.23020390322961 L 810.4406234071984 65.2010105508812 L 810.2116975208 65.1707808338619 L 809.9834517874381 65.13951777511826 L 809.7559090314954 65.10722450093009 L 809.5290920070581 65.0739042405979 L 809.3030233956397 65.03956032611994 L 809.0777258039127 65.00419619185907 L 808.8532217614486 64.96781537419922 L 808.6295337184647 64.93042151119185 L 808.4066840435788 64.89201834219209 L 808.1846950215727 64.85260970748485 L 807.9635888511636 64.81219954790075 L 807.7433876427842 64.77079190442208 L 807.5241134163721 64.72839091777868 L 807.3057880991669 64.68500082803388 L 807.0884335235185 64.64062597416049 L 806.8720714247034 64.59527079360693 L 806.6567234387511 64.54893982185345 L 806.4424111002809 64.50163769195862 L 806.2291558403477 64.45336913409601 L 806.0169789843003 64.40413897508118 L 805.805901749647 64.35395213788901 L 805.5959452439356 64.3028136411614 L 805.3871304626417 64.25072859870541 L 805.1794782870694 64.19770221898187 L 804.9730094822633 64.14373980458457 L 804.7677446949316 64.08884675170998 L 804.5637044513821 64.03302854961765 L 804.3609091554691 63.97629078008127 L 804.1593790865534 63.918639116830505 L 803.9591343974737 63.860079324983644 L 803.7601951125321 63.80061726047107 L 803.5625811254913 63.74025886944969 L 803.3663121975854 63.67901018770829 L 803.1714079555436 63.61687734006403 L 802.9778878896277 63.553866539749876 L 802.7857713516829 63.48998408779335 L 802.5950775532032 63.42523637238643 L 802.4058255634092 63.359629868246685 L 802.2180343073422 63.29317113596986 L 802.0317225639716 63.225866821373806 L 801.8469089643162 63.15772365483389 L 801.6636119895821 63.088748450609984 L 801.481849969314 63.01894810616503 L 801.3016410795624 62.94832960147531 L 801.1230033410661 62.87689999833243 L 800.9459546174502 62.8046664396372 L 800.7705126134393 62.73163614868528 L 800.5966948730879 62.65781642844491 L 800.424518778025 62.583214660826606 L 800.2540015457166 62.50783830594495 L 800.085160227744 62.43169490137262 L 799.9180117080981 62.35479206138663 L 799.7525727014918 62.27713747620688 L 799.5888597516876 62.19873891122719 L 799.4268892298443 62.11960420623871 L 799.266677332879 62.039741274646005 L 799.1082400818478 61.95915810267567 L 798.951593320344 61.87786274857777 L 798.7967527129132 61.79586334181995 L 798.6437337434868 61.71316808227457 L 798.4925517138346 61.62978523939866 L 798.3432217420333 61.54572315140702 L 798.1957587609558 61.4609902244384 L 798.0501775167772 61.375594931714886 L 797.9064925675008 61.2895458126946 L 797.7647182815016 61.202851472217716 L 797.6248688360902 61.11552057964606 L 797.4869582160944 61.02756186799609 L 797.3510002124614 60.93898413306569 L 797.2170084208783 60.84979623255453 L 797.0849962404126 60.76000708517834 L 796.9549768721722 60.669625669777034 L 796.8269633179857 60.57866102441683 L 796.7009683791018 60.487122245486475 L 796.5770046549095 60.39501848678756 L 796.4550845416778 60.302358958619216 L 796.3352202313164 60.20915292685704 L 796.2174237101565 60.11540971202653 L 796.101706757752 60.02113868837107 L 795.9880809457018 59.926349282914444 L 795.8765576364924 59.83105097451821 L 795.7671479823617 59.735253292933805 L 795.659862924184 59.63896581784955 L 795.5547131903758 59.54219817793271 L 795.4517092958228 59.444960049866644 L 795.3508615408284 59.34726115738312 L 795.2521800100843 59.24911127028998 L 795.1556745716614 59.15052020349414 L 795.061354876023 59.05149781602011 L 794.96923035506 58.95205401002413 L 794.8793102211478 58.85219872980392 L 794.7916034662248 58.75194196080431 L 794.7061188608935 58.651293728618626 L 794.6228649535433 58.550264097986236 L 794.5418500694952 58.448863171785995 L 794.4630823101704 58.34710109002604 L 794.3865695522792 58.244988028829724 L 794.3123194470334 58.14253419941809 L 794.2403394193818 58.03974984708869 L 794.1706366672671 57.93664525019112 L 794.1032181609066 57.833230719099134 L 794.0380906420946 57.72951659517967 L 793.9752606235287 57.62551324975868 L 793.9147343881585 57.521231083084054 L 793.856517988557 57.41668052328555 L 793.8006172463158 57.311872025332015 L 793.7470377514624 57.20681606998592 L 793.6957848619015 57.10152316275524 L 793.6468637028797 56.996003832842966 L 793.6002791664719 56.89026863209415 L 793.556035911093 56.78432813394075 L 793.5141383610315 56.6781929323443 L 793.4745907060078 56.57187364073653 L 793.4373969007542 56.465380890957974 L 793.4025606646203 56.35872533219489 L 793.3700854812006 56.25191762991426 L 793.3399745979866 56.144968464797316 L 793.3122310260413 56.037888531671435 L 793.286857539699 55.930688538440705 L 793.263856676287 55.823379205015115 L 793.2432307358725 55.71597126223858 L 793.2249817810324 55.60847545081588 L 793.209111636647 55.50090252023857 L 793.1956218897175 55.39326322771006 L 793.1845138892072 55.28556833706991 L 793.1757887459072 55.17782861771744 L 793.1694473323242 55.0700548435348 L 793.1654902825946 54.96225779180959 L 793.1639179924199 54.85444824215717" stroke-miterlimit="10" stroke-width="2.7769845610000004" stroke-dasharray=""/></g><g><g/><text fill="black" stroke="none" font-family="sans-serif" font-size="11pt" font-style="normal" font-weight="normal" text-decoration="normal" x="770.5780886400352" y="83.14618479699999" text-anchor="start" dominant-baseline="alphabetic" xml:space="preserve">PermissionDB</text></g><g><path fill="white" stroke="black" paint-order="fill stroke markers" d=" M 892.6021336474258 56.029747319 L 892.6021336474258 21.725820389 L 940.3009272834257 21.725820389 L 940.3009272834257 56.029747319" stroke-miterlimit="10" stroke-width="2.7769845610000004" stroke-dasharray=""/><path fill="white" stroke="black" paint-order="fill stroke markers" d=" M 940.3009272834257 20.5333505481 L 940.299734823522 20.64116109301662 L 940.296157563056 20.748960856968594 L 940.2901958597507 20.85673906006935 L 940.2818503097714 20.964484924588405 L 940.2711217476661 21.072187676029085 L 940.2580112462823 21.179836544206 L 940.2425201166591 21.287420764322043 L 940.2246499078965 21.394929578044856 L 940.2044024070004 21.502352234582652 L 940.1817796387043 21.6096779917593 L 940.1567838652659 21.716896117088513 L 940.1294175862419 21.82399588884712 L 940.0996835382373 21.93096659714718 L 940.0675846946322 22.037797545007013 L 940.0331242652841 22.144478049420858 L 939.9963056962073 22.250997442427174 L 939.9571326692279 22.357345072175423 L 939.9156091016162 22.463510303991256 L 939.8717391456942 22.56948252143996 L 939.8255271884208 22.6752511273881 L 939.7769778509535 22.780805545063224 L 939.7260959881854 22.886135219111527 L 939.6728866882605 22.991229616653374 L 939.6173552720643 23.09607822833659 L 939.5595072926923 23.200670569387384 L 939.4993485348941 23.304996180658804 L 939.4368850144955 23.40904462967667 L 939.3721229777963 23.51280551168278 L 939.3050689009463 23.616268450675403 L 939.2357294892973 23.719423100446857 L 939.1641116767327 23.82225914561813 L 939.090222624974 23.9247663026704 L 939.014069722865 24.026934320973382 L 938.9356605856321 24.128752983810383 L 938.855003054124 24.230212109399975 L 938.7721051940266 24.331301551914144 L 938.6869752950568 24.432011202492884 L 938.5996218701333 24.532330990255055 L 938.5100536545261 24.63225088330548 L 938.4182796049821 24.731760889738126 L 938.3243088988297 24.830851058635275 L 938.2281509330611 24.929511481062605 L 938.129815323393 25.027732291060094 L 938.0293119033042 25.125503666628592 L 937.9266507230531 25.222815830712022 L 937.821842048672 25.319659052175062 L 937.7148963609411 25.416023646776274 L 937.6058243543401 25.511899978136498 L 937.4946369359789 25.607278458702496 L 937.3813452245063 25.70214955070569 L 937.2659605489994 25.796503767115947 L 937.1484944478293 25.890331672590246 L 937.0289586675084 25.983623884416232 L 936.9073651615151 26.076371073450467 L 936.7837260890988 26.168563965051334 L 936.6580538140634 26.260193340006502 L 936.5303609035319 26.351250035454832 L 936.4006601266889 26.44172494580266 L 936.2689644535039 26.531609023634346 L 936.1352870534347 26.62089328061701 L 935.9996412941098 26.709568788399363 L 935.8620407399919 26.79762667950451 L 935.722499151022 26.885058148216736 L 935.5810304812427 26.97185445146202 L 935.4376488774029 27.05800690968237 L 935.2923686775438 27.143506907703753 L 935.1452044095639 27.228345895597624 L 934.9961707897678 27.31251538953589 L 934.8452827213929 27.3960069726393 L 934.6925552931206 27.47881229581911 L 934.5380037775662 27.56092307861202 L 934.3816436297528 27.64233111000817 L 934.2234904855645 27.723028249272257 L 934.0635601601842 27.803006426757605 L 933.901868646511 27.882257644713114 L 933.7384321135618 27.96077397808303 L 933.5732669048532 28.038547575299447 L 933.4063895367689 28.115570659067455 L 933.2378166969064 28.19183552714286 L 933.0675652424093 28.267334553102412 L 932.8956521982811 28.34206018710643 L 932.7220947556831 28.416004956653783 L 932.5469102702148 28.489161467329136 L 932.3701162601787 28.561522403542384 L 932.1917304048287 28.633080529260212 L 932.0117705426014 28.70382868872968 L 931.8302546693334 28.773759807193787 L 931.6472009364604 28.842866891598973 L 931.4626276492035 28.911143031294383 L 931.2765532647372 28.978581398722945 L 931.0889963903453 29.045175250104112 L 930.8999757815586 29.110917926108243 L 930.7095103402808 29.175802852522523 L 930.5176191128969 29.239823540908375 L 930.3243212883701 29.30297358925032 L 930.1296361963216 29.365246682596148 L 929.9335833050984 29.426636593688414 L 929.7361822198262 29.487137183587166 L 929.5374526804492 29.546742402283833 L 929.3374145597554 29.605446289306215 L 929.1360878613905 29.663242974314535 L 928.9334927178564 29.720126677688448 L 928.7296493884986 29.776091711105025 L 928.5245782574804 29.831132478107563 L 928.3182998317436 29.885243474665224 L 928.1108347389593 29.938419289723445 L 927.9022037254636 29.990654605745036 L 927.6924276541841 30.041944199241925 L 927.4815275025531 30.092282941297498 L 927.2695243604101 30.1416657980795 L 927.0564394278924 30.190087831343412 L 926.8422940133161 30.23754419892625 L 926.6271095310437 30.28403015523081 L 926.4109074993445 30.329541051700197 L 926.1937095382414 30.374072337282684 L 925.9755373673494 30.417619558886827 L 925.7564128037038 30.460178361826756 L 925.5363577595784 30.501744490257643 L 925.3153942402944 30.54231378760128 L 925.0935443420194 30.581882196961743 L 924.8708302495584 30.620445761531066 L 924.6472742341349 30.658000624984936 L 924.4228986511645 30.694543031868292 L 924.1977259380182 30.730069327970906 L 923.9717786117798 30.764575960692767 L 923.7450792669936 30.798059479399367 L 923.5176505734051 30.830516535766726 L 923.2895152736943 30.86194388411627 L 923.060696181201 30.892338381739336 L 922.8312161776437 30.921696989211505 L 922.6010982108317 30.950016770696486 L 922.3703652923696 30.977294894239733 L 922.1390404953572 31.003528632051626 L 921.9071469520813 31.028715360780247 L 921.6747078517033 31.052852561773705 L 921.4417464379392 31.075937821332012 L 921.2082860067362 31.097968830948464 L 920.9743499039432 31.118943387540448 L 920.7399615229752 31.138859393669783 L 920.5051443024753 31.15771485775246 L 920.2699217239697 31.175507894257777 L 920.03431730952 31.19223672389691 L 919.7983546193717 31.207899673800846 L 919.562057249597 31.222495177687634 L 919.325448829736 31.236021776019058 L 919.0885530204334 31.24847811614655 L 918.851393511073 31.259862952446483 L 918.6139940174078 31.27017514644471 L 918.3763782791893 31.279413666930427 L 918.1385700577937 31.287577590059286 L 917.9005931338446 31.29466609944577 L 917.6624713048362 31.300678486244855 L 917.4242283827531 31.30561414922287 L 917.1858881916887 31.309472594817628 L 916.9474745654637 31.31225343718779 L 916.709011345242 31.313956398251428 L 916.4705223771468 31.31458130771386 L 916.2320315098763 31.314128103084656 L 915.9935625923184 31.312596829683912 L 915.7551394711662 31.30998764063768 L 915.5167859885332 31.306300796862697 L 915.2785259795688 31.301536667040267 L 915.0403832700756 31.2956957275794 L 914.802381674126 31.288778562569174 L 914.5645449916811 31.280785863720332 L 914.3268970062112 31.27171843029609 L 914.0894614823167 31.261577169032243 L 913.852262163352 31.25036309404646 L 913.6153227690515 31.238077326736896 L 913.3786669931573 31.224721095670045 L 913.1423185010494 31.21029573645788 L 912.9063009273804 31.194802691624307 L 912.6706378737108 31.178243510460895 L 912.4353529061497 31.16061984887196 L 912.2004695529977 31.14193346920898 L 911.9660113023943 31.12218624009434 L 911.7320015999695 31.101380136234503 L 911.4984638464981 31.079517238222515 L 911.2654213955612 31.056599732329957 L 911.0328975512095 31.03262991028832 L 910.8009155656337 31.007610169059838 L 910.5694986368391 30.98154301059778 L 910.3386699063255 30.954431041596266 L 910.108452456774 30.926276973229612 L 909.8788693097374 30.897083620881187 L 909.6499434233391 30.866853903861898 L 909.4216976899771 30.835590845118258 L 909.1941549340345 30.803297570930084 L 908.9673379095972 30.769977310597895 L 908.7412692981787 30.735633396119944 L 908.5159717064518 30.70026926185907 L 908.2914676639876 30.663888444199216 L 908.0677796210038 30.62649458119185 L 907.8449299461179 30.588091412192092 L 907.6229409241117 30.54868277748485 L 907.4018347537027 30.50827261790075 L 907.1816335453233 30.46686497442208 L 906.9623593189111 30.42446398777868 L 906.7440340017059 30.381073898033875 L 906.5266794260575 30.33669904416049 L 906.3103173272425 30.291343863606926 L 906.0949693412902 30.245012891853445 L 905.8806570028199 30.197710761958614 L 905.6674017428868 30.149442204096005 L 905.4552248868393 30.10021204508118 L 905.244147652186 30.050025207889014 L 905.0341911464747 29.998886711161404 L 904.8253763651808 29.94680166870541 L 904.6177241896085 29.893775288981875 L 904.4112553848023 29.839812874584574 L 904.2059905974706 29.784919821709988 L 904.0019503539212 29.729101619617655 L 903.7991550580082 29.67236385008127 L 903.5976249890924 29.614712186830506 L 903.3973803000127 29.55615239498365 L 903.1984410150711 29.496690330471075 L 903.0008270280304 29.43633193944969 L 902.8045581001245 29.375083257708297 L 902.6096538580827 29.31295041006403 L 902.4161337921668 29.249939609749873 L 902.224017254222 29.186057157793353 L 902.0333234557422 29.121309442386426 L 901.8440714659482 29.055702938246682 L 901.6562802098813 28.98924420596986 L 901.4699684665106 28.921939891373807 L 901.2851548668552 28.85379672483389 L 901.1018578921212 28.784821520609988 L 900.9200958718529 28.71502117616503 L 900.7398869821014 28.644402671475305 L 900.5612492436052 28.572973068332434 L 900.3842005199892 28.5007395096372 L 900.2087585159784 28.42770921868528 L 900.034940775627 28.353889498444914 L 899.862764680564 28.279287730826603 L 899.6922474482557 28.20391137594495 L 899.5234061302831 28.127767971372624 L 899.3562576106372 28.05086513138663 L 899.1908186040308 27.973210546206882 L 899.0271056542266 27.894811981227186 L 898.8651351323833 27.81567727623871 L 898.704923235418 27.735814344646005 L 898.5464859843869 27.655231172675677 L 898.3898392228831 27.573935818577773 L 898.2349986154522 27.491936411819957 L 898.081979646026 27.409241152274568 L 897.9307976163736 27.325858309398654 L 897.7814676445723 27.241796221407014 L 897.6340046634948 27.157063294438398 L 897.4884234193163 27.07166800171489 L 897.3447384700398 26.985618882694595 L 897.2029641840406 26.89892454221772 L 897.0631147386292 26.811593649646056 L 896.9252041186335 26.723634937996092 L 896.7892461150004 26.63505720306569 L 896.6552543234174 26.54586930255453 L 896.5232421429516 26.45608015517834 L 896.3932227747113 26.365698739777034 L 896.2652092205248 26.274734094416832 L 896.1392142816409 26.183195315486472 L 896.0152505574486 26.09109155678756 L 895.8933304442169 25.998432028619217 L 895.7734661338554 25.90522599685704 L 895.6556696126955 25.811482782026534 L 895.5399526602911 25.717211758371064 L 895.4263268482408 25.62242235291444 L 895.3148035390315 25.527124044518214 L 895.2053938849008 25.431326362933806 L 895.0981088267231 25.33503888784955 L 894.9929590929148 25.238271247932712 L 894.8899551983618 25.141033119866645 L 894.7891074433675 25.043334227383127 L 894.6904259126234 24.945184340289984 L 894.5939204742004 24.84659327349414 L 894.499600778562 24.74757088602011 L 894.407476257599 24.648127080024132 L 894.3175561236868 24.548271799803928 L 894.2298493687639 24.448015030804306 L 894.1443647634326 24.34736679861863 L 894.0611108560823 24.246337167986233 L 893.9800959720343 24.144936241786 L 893.9013282127095 24.043174160026034 L 893.8248154548182 23.941061098829724 L 893.7505653495724 23.83860726941809 L 893.6785853219209 23.735822917088697 L 893.6088825698062 23.63271832019112 L 893.5414640634457 23.52930378909913 L 893.4763365446337 23.425589665179665 L 893.4135065260677 23.32158631975868 L 893.3529802906976 23.21730415308405 L 893.2947638910961 23.112753593285547 L 893.2388631488549 23.00794509533202 L 893.1852836540014 22.90288913998592 L 893.1340307644406 22.797596232755243 L 893.0851096054188 22.692076902842967 L 893.0385250690109 22.58634170209415 L 892.994281813632 22.48040120394075 L 892.9523842635706 22.374266002344307 L 892.9128366085469 22.267946710736528 L 892.8756428032932 22.161453960957978 L 892.8408065671593 22.05479840219489 L 892.8083313837396 21.94799069991426 L 892.7782205005257 21.841041534797313 L 892.7504769285804 21.733961601671435 L 892.725103442238 21.62676160844071 L 892.702102578826 21.51945227501512 L 892.6814766384116 21.412044332238587 L 892.6632276835714 21.30454852081588 L 892.647357539186 21.19697559023857 L 892.6338677922565 21.08933629771006 L 892.6227597917463 20.98164140706991 L 892.6140346484462 20.87390168771744 L 892.6076932348633 20.7661279135348 L 892.6037361851337 20.658330861809592 L 892.602163894959 20.55052131215717 L 892.6029765215669 20.442710045442645 L 892.6061739836955 20.334907842702854 L 892.6117559616011 20.227125484068235 L 892.6197218970908 20.119373747684833 L 892.6300709935775 20.011663408636494 L 892.6428022161604 19.904005237867363 L 892.6579142917275 19.7964100011048 L 892.6754057090841 19.688888457782824 L 892.6952747191028 19.581451359966163 L 892.7175193348995 19.47410945127507 L 892.742137332031 19.366873465810958 L 892.769126248718 19.259754127083017 L 892.7984833860913 19.15276214693585 L 892.8302058084619 19.04590822447831 L 892.8642903436138 18.939203045013606 L 892.9007335831218 18.832657278970757 L 892.9395318826926 18.72628158083758 L 892.9806813625282 18.620086588095244 L 893.0241779077153 18.51408292015453 L 893.0700171686353 18.408281177293887 L 893.1181945614005 18.302691939599445 L 893.1687052683118 18.197325765906974 L 893.2215442383404 18.092193192746045 L 893.2767061876335 17.987304733286358 L 893.3341856000421 17.882670876286454 L 893.3939767276729 17.77830208504484 L 893.4560735914628 17.674208796353664 L 893.5204699817773 17.570401419455052 L 893.5871594590311 17.46689033500019 L 893.6561353543319 17.36368589401126 L 893.7273907701477 17.260798416846367 L 893.8009185809964 17.158238192167477 L 893.876711434158 17.056015475911597 L 893.9547617504104 16.954140490265164 L 894.0350617247872 16.85262342264185 L 894.1176033273575 16.751474424663822 L 894.2023783040303 16.650703611146586 L 894.2893781773782 16.550321059087512 L 894.3785942474866 16.450336806658164 L 894.4700175928227 16.350760852200455 L 894.5636390711283 16.25160315322686 L 894.6594493203332 16.15287362542464 L 894.7574387594929 16.054582141664305 L 894.8575975897447 15.956738531012315 L 894.9599157952892 15.859352577748204 L 895.0643831443911 15.762434020386143 L 895.1709891904026 15.665992550701102 L 895.2797232728078 15.570037812759686 L 895.3905745182891 15.47457940195572 L 895.5035318418145 15.379626864050742 L 895.6185839477456 15.285189694219413 L 895.7357193309678 15.191277336100018 L 895.8549262780401 15.097899180850114 L 895.9761928683675 15.005064566207405 L 896.0995069753919 14.912782775555993 L 896.2248562678054 14.821063036998048 L 896.3522282107831 14.729914522430988 L 896.4816100672369 14.639346346630315 L 896.612988899089 14.549367566338134 L 896.7463515685656 14.459987179357494 L 896.881684739511 14.371214123652608 L 897.0189748787209 14.283057276455072 L 897.1582082572957 14.195525453376138 L 897.2993709520135 14.108627407525177 L 897.4424488467226 14.022371828634352 L 897.5874276337528 13.936767342189675 L 897.7342928153461 13.851822508568457 L 897.8830297051068 13.76754582218327 L 898.0336234294697 13.683945710632521 L 898.1860589291881 13.601030533857704 L 898.3403209608389 13.518808583307395 L 898.4963940983475 13.437288081108132 L 898.6542627345303 13.356477179242205 L 898.8139110826553 13.276383958732454 L 898.9753231780204 13.19701642883419 L 899.1384828795509 13.11838252623426 L 899.3033738714124 13.040490114257395 L 899.4699796646433 12.963346982079887 L 899.6382835988031 12.886960843950664 L 899.8082688436384 12.811339338419888 L 899.9799184007667 12.73649002757509 L 900.1532151053751 12.662420396284983 L 900.3281416279376 12.589137851450971 L 900.5046804759478 12.51664972126647 L 900.6828139956679 12.444963254484088 L 900.8625243738944 12.37408561969077 L 901.0437936397393 12.304023904590924 L 901.226603666427 12.234785115297683 L 901.4109361731072 12.166376175632273 L 901.596772726683 12.098803926431655 L 901.7840947436536 12.032075124864438 L 901.9728834919734 11.966196443755171 L 902.1631200929253 11.901174470917068 L 902.3547855230074 11.837015708493228 L 902.5478606158365 11.773726572306426 L 902.7423260640642 11.71131339121754 L 902.9381624213078 11.64978240649267 L 903.1353501040945 11.589139771179015 L 903.3338693938208 11.529391549489564 L 903.5337004387228 11.470543716196703 L 903.7348232558626 11.412602156034716 L 903.9372177331262 11.355572663111337 L 904.1408636312345 11.299460940328336 L 904.3457405857673 11.244272598811229 L 904.5518281092 11.190013157348178 L 904.7591055929519 11.136688041838113 L 904.9675523094473 11.084302584748148 L 905.1771474141885 11.03286202458034 L 905.3878699478395 10.982371505347833 L 905.5996988383225 10.932836076060482 L 905.8126129029251 10.88426069021993 L 906.0265908504183 10.836650205324288 L 906.2416112831855 10.790009382382364 L 906.4576526993627 10.74434288543759 L 906.6746934949882 10.6996552811016 L 906.8927119661636 10.655951038097594 L 907.1116863112231 10.613234526813446 L 907.3315946329149 10.571510018864695 L 907.5524149405901 10.530781686667359 L 907.7741251524018 10.49105360302072 L 907.9967030975137 10.452329740700035 L 908.2201265183166 10.41461397205927 L 908.4443730726548 10.377910068643855 L 908.6694203360597 10.342221700813546 L 908.8952458039925 10.307552437375389 L 909.1218268940945 10.273905745226832 L 909.3491409484457 10.241284989009054 L 909.5771652358297 10.209693430770495 L 909.8058769540082 10.179134229640646 L 910.0352532319998 10.14961044151416 L 910.265271132368 10.121125018745243 L 910.4959076535141 10.093680809852438 L 910.7271397319785 10.067280559233762 L 910.9589442447458 10.041926906892275 L 911.1912980115582 10.017622388172084 L 911.4241777972323 9.99436943350481 L 911.6575603139839 9.972170368166541 L 911.8914222237557 9.95102741204531 L 912.1257401405516 9.930942679419111 L 912.360490632775 9.91191817874447 L 912.5956502255726 9.893955812455602 L 912.831195403181 9.877057376774163 L 913.0671026112786 9.861224561529642 L 913.3033482593414 9.846458949990371 L 913.5399087230012 9.832762018705198 L 913.776760346409 9.820135137355836 L 914.0138794445996 9.808579568619898 L 914.2512423058611 9.798096468044628 L 914.4888251941048 9.78868688393135 L 914.7266043512401 9.780351757230632 L 914.9645559995495 9.773091921448197 L 915.2026563440662 9.766908102561576 L 915.4408815749543 9.761800918947504 L 915.6792078698894 9.757770881320084 L 915.9176113964404 9.754818392679725 L 916.1560683144533 9.752943748272825 L 916.3945547784351 9.752147135562266 L 916.6330469399381 9.752428634208655 L 916.871520949945 9.753788216062361 L 917.1099529612534 9.756225745166333 L 917.3483191308609 9.75974097776969 L 917.5865956223491 9.764333562352103 L 917.8247586082676 9.770003039658938 L 918.0627842725162 9.776748842747192 L 918.3006488127266 9.784570297042176 L 918.5383284426433 9.793466620404978 L 918.7757993945014 9.803436923210677 L 919.0130379214033 9.8144802084373 L 919.2500202996943 9.826595371765528 L 919.4867228313339 9.83978120168912 L 919.7231218462662 9.854036379636078 L 919.9591937047868 9.869359480100481 L 920.1949147999064 9.885748970785057 L 920.4302615597121 9.903203212754391 L 920.665210449724 9.921720460598834 L 920.8997379752487 9.941298862609031 L 921.1338206837295 9.961936460961097 L 921.3674351670902 9.983631191912394 L 921.6005580640773 10.006380886007905 L 921.8331660625954 10.030183268297181 L 922.0652359020385 10.055035958561827 L 922.296744375616 10.080936471553528 L 922.5276683326734 10.107882217242567 L 922.7579846810077 10.13587050107683 L 922.9876703891756 10.164898524251257 L 923.216702488798 10.194963383987721 L 923.4450580768556 10.226062073825304 L 923.6727143179801 10.258191483920934 L 923.8996484467368 10.291348401360379 L 924.1258377699022 10.325529510479525 L 924.3512596687325 10.360731393195941 L 924.5758916012254 10.396950529350695 L 924.7997111043751 10.434183297060352 L 925.0226957964177 10.472425973079169 L 925.2448233790697 10.51167473317141 L 925.4660716397582 10.551925652493777 L 925.6864184538413 10.593174705987877 L 925.9058417868212 10.635417768782737 L 926.1243196965476 10.678650616607278 L 926.3418303354115 10.722868926212747 L 926.5583519525303 10.76806827580503 L 926.7738628959227 10.814244145486835 L 926.9883416146739 10.861391917709673 L 927.2017666610909 10.909506877735609 L 927.4141166928468 10.95858421410874 L 927.6253704751156 11.008619019136324 L 927.8355068826947 11.059606289379555 L 928.0445049021188 11.111540926153898 L 928.25234363376 11.164417736038953 L 928.4590022939183 11.218231431397797 L 928.6644602169 11.272976630905736 L 928.8686968570839 11.328647860088443 L 929.0716917909763 11.385239551869391 L 929.2734247192528 11.442746047126562 L 929.473875468789 11.501161595258353 L 929.6730239946766 11.560480354758626 L 929.8708503822292 11.620696393800868 L 930.0673348489728 11.681803690831353 L 930.2624577466246 11.7437961351713 L 930.4561995630573 11.806667527627935 L 930.6485409242507 11.870411581114405 L 930.8394625962292 11.935021921278484 L 931.0289454869843 12.000492087139994 L 931.2169706483852 12.066815531736909 L 931.4035192780723 12.133985622780036 L 931.588572721338 12.201995643316248 L 931.7721124729923 12.270838792400168 L 931.954120179213 12.340508185774253 L 932.1345776393811 12.410996856557224 L 932.3134668079009 12.482297755940746 L 932.4907697960047 12.554403753894292 L 932.6664688735415 12.627307639878161 L 932.8405464707498 12.701002123564503 L 933.0129851800151 12.775479835566365 L 933.1837677576101 12.85073332817461 L 933.3528771254194 12.926755076102687 L 933.520296372647 13.003537477239155 L 933.6860087575078 13.081072853407886 L 933.8499977089015 13.159353451135875 L 934.0122468280695 13.238371442428583 L 934.1727398902351 13.318118925552731 L 934.3314608462259 13.398587925826458 L 934.4883938240785 13.4797703964168 L 934.6435231306258 13.561658219144345 L 934.7968332530667 13.64424320529506 L 934.9483088605164 13.727517096439154 L 935.0979348055405 13.811471565256904 L 935.2456961256693 13.89609821637139 L 935.3915780448938 13.981388587188025 L 935.5355659751436 14.0673341487408 L 935.6776455177459 14.153926306545182 L 935.8178024648646 14.241156401457552 L 935.9560228009218 14.329015710541107 L 936.0922927039992 14.417495447938157 L 936.22659854722 14.506586765748693 L 936.3589269001118 14.59628075491518 L 936.4892645299494 14.68656844611344 L 936.6175984030788 14.777440810649601 L 936.7439156862195 14.868888761362928 L 936.8682037477481 14.96090315353456 L 936.9904501589625 15.05347478580196 L 937.1106426953232 15.146594401079039 L 937.2287693376769 15.240252687481874 L 937.3448182734576 15.33444027925987 L 937.4587778978685 15.429147757732338 L 937.5706368150421 15.524365652230356 L 937.68038383918 15.62008444104382 L 937.7880079956711 15.716294552373615 L 937.8934985221896 15.812986365288783 L 937.9968448697706 15.910150210688608 L 938.0980367038655 16.00777637226952 L 938.1970639053754 16.105855087496717 L 938.2939165716624 16.204376548580406 L 938.3885850175408 16.30333090345658 L 938.4810597762447 16.402708256772215 L 938.5713316003755 16.502498670874793 L 938.6593914628259 16.602692166806058 L 938.7452305576829 16.703278725299917 L 938.8288403011089 16.80424828778434 L 938.9102123321989 16.90559075738722 L 938.9893385138178 17.00729599994605 L 939.0662109334132 17.10935384502132 L 939.1408219038074 17.211754086913583 L 939.2131639639654 17.314486485683975 L 939.2832298797416 17.41754076817823 L 939.3510126446026 17.52090662905398 L 939.4165054803286 17.62457373181127 L 939.4797018376905 17.728531709826218 L 939.5405953971052 17.83277016738765 L 939.5991800692676 17.93727868073668 L 939.6554499957592 18.04204679910906 L 939.7093995496344 18.147064045780258 L 939.7610233359827 18.252319919113123 L 939.8103161924683 18.357803893608033 L 939.857273189847 18.463505420955443 L 939.9018896324578 18.569413931090704 L 939.9441610586939 18.675518833251058 L 939.9840832414477 18.781809517034706 L 940.0216521885344 18.88827535346185 L 940.0568641430904 18.994905696037566 L 940.0897155839498 19.101689881816455 L 940.1202032259956 19.208617232468924 L 940.1483240204893 19.31567705534902 L 940.1740751553747 19.422858644563664 L 940.1974540555599 19.530151282043253 L 940.2184583831742 19.637544238613454 L 940.2370860378024 19.745026775068098 L 940.2533351566947 19.852588143243114 L 940.2672041149526 19.960217587091314 L 940.2786915256919 20.067904343758006 L 940.287796240181 20.17563764465726 L 940.2945173479562 20.283406716548765 L 940.2988541769122 20.39120078261514 L 940.3008062933698 20.49900906353961 M 940.3009272834257 54.8372774781 L 940.299734823522 54.94508802301662 L 940.296157563056 55.05288778696859 L 940.2901958597507 55.160665990069354 L 940.2818503097714 55.2684118545884 L 940.2711217476661 55.376114606029084 L 940.2580112462823 55.483763474206 L 940.2425201166591 55.591347694322046 L 940.2246499078965 55.698856508044855 L 940.2044024070004 55.80627916458265 L 940.1817796387043 55.913604921759294 L 940.1567838652659 56.02082304708851 L 940.1294175862419 56.12792281884712 L 940.0996835382373 56.23489352714718 L 940.0675846946322 56.34172447500701 L 940.0331242652841 56.44840497942086 L 939.9963056962073 56.55492437242717 L 939.9571326692279 56.66127200217542 L 939.9156091016162 56.76743723399125 L 939.8717391456942 56.87340945143996 L 939.8255271884208 56.979178057388104 L 939.7769778509535 57.08473247506323 L 939.7260959881854 57.190062149111526 L 939.6728866882605 57.295156546653374 L 939.6173552720643 57.40000515833659 L 939.5595072926923 57.50459749938738 L 939.4993485348941 57.60892311065881 L 939.4368850144955 57.71297155967667 L 939.3721229777963 57.81673244168278 L 939.3050689009463 57.9201953806754 L 939.2357294892973 58.023350030446856 L 939.1641116767327 58.12618607561813 L 939.090222624974 58.228693232670395 L 939.014069722865 58.33086125097338 L 938.9356605856321 58.43267991381038 L 938.855003054124 58.534139039399975 L 938.7721051940266 58.63522848191415 L 938.6869752950568 58.73593813249288 L 938.5996218701333 58.83625792025505 L 938.5100536545261 58.93617781330548 L 938.4182796049821 59.03568781973813 L 938.3243088988297 59.13477798863527 L 938.2281509330611 59.23343841106261 L 938.129815323393 59.33165922106009 L 938.0293119033042 59.42943059662859 L 937.9266507230531 59.52674276071202 L 937.821842048672 59.623585982175065 L 937.7148963609411 59.71995057677627 L 937.6058243543401 59.8158269081365 L 937.4946369359789 59.9112053887025 L 937.3813452245063 60.006076480705694 L 937.2659605489994 60.10043069711595 L 937.1484944478293 60.194258602590246 L 937.0289586675084 60.287550814416235 L 936.9073651615151 60.38029800345047 L 936.7837260890988 60.47249089505134 L 936.6580538140634 60.564120270006505 L 936.5303609035319 60.655176965454835 L 936.4006601266889 60.74565187580266 L 936.2689644535039 60.83553595363435 L 936.1352870534347 60.924820210617014 L 935.9996412941098 61.01349571839936 L 935.8620407399919 61.10155360950451 L 935.722499151022 61.18898507821674 L 935.5810304812427 61.27578138146202 L 935.4376488774029 61.361933839682365 L 935.2923686775438 61.447433837703755 L 935.1452044095639 61.53227282559762 L 934.9961707897678 61.61644231953589 L 934.8452827213929 61.699933902639295 L 934.6925552931206 61.782739225819114 L 934.5380037775662 61.86485000861202 L 934.3816436297528 61.94625804000817 L 934.2234904855645 62.02695517927226 L 934.0635601601842 62.1069333567576 L 933.901868646511 62.18618457471311 L 933.7384321135618 62.26470090808303 L 933.5732669048532 62.34247450529945 L 933.4063895367689 62.419497589067454 L 933.2378166969064 62.49576245714286 L 933.0675652424093 62.57126148310241 L 932.8956521982811 62.64598711710643 L 932.7220947556831 62.71993188665378 L 932.5469102702148 62.793088397329136 L 932.3701162601787 62.86544933354239 L 932.1917304048287 62.937007459260215 L 932.0117705426014 63.007755618729675 L 931.8302546693334 63.07768673719379 L 931.6472009364604 63.146793821598976 L 931.4626276492035 63.21506996129438 L 931.2765532647372 63.28250832872294 L 931.0889963903453 63.34910218010411 L 930.8999757815586 63.414844856108246 L 930.7095103402808 63.47972978252252 L 930.5176191128969 63.54375047090838 L 930.3243212883701 63.606900519250324 L 930.1296361963216 63.66917361259615 L 929.9335833050984 63.73056352368841 L 929.7361822198262 63.79106411358716 L 929.5374526804492 63.85066933228383 L 929.3374145597554 63.90937321930622 L 929.1360878613905 63.96716990431453 L 928.9334927178564 64.02405360768844 L 928.7296493884986 64.08001864110503 L 928.5245782574804 64.13505940810757 L 928.3182998317436 64.18917040466522 L 928.1108347389593 64.24234621972344 L 927.9022037254636 64.29458153574504 L 927.6924276541841 64.34587112924193 L 927.4815275025531 64.3962098712975 L 927.2695243604101 64.4455927280795 L 927.0564394278924 64.49401476134341 L 926.8422940133161 64.54147112892625 L 926.6271095310437 64.58795708523081 L 926.4109074993445 64.63346798170019 L 926.1937095382414 64.67799926728269 L 925.9755373673494 64.72154648888683 L 925.7564128037038 64.76410529182675 L 925.5363577595784 64.80567142025764 L 925.3153942402944 64.84624071760128 L 925.0935443420194 64.88580912696175 L 924.8708302495584 64.92437269153106 L 924.6472742341349 64.96192755498494 L 924.4228986511645 64.9984699618683 L 924.1977259380182 65.0339962579709 L 923.9717786117798 65.06850289069277 L 923.7450792669936 65.10198640939936 L 923.5176505734051 65.13444346576672 L 923.2895152736943 65.16587081411626 L 923.060696181201 65.19626531173934 L 922.8312161776437 65.2256239192115 L 922.6010982108317 65.25394370069648 L 922.3703652923696 65.28122182423974 L 922.1390404953572 65.30745556205163 L 921.9071469520813 65.33264229078024 L 921.6747078517033 65.35677949177371 L 921.4417464379392 65.37986475133201 L 921.2082860067362 65.40189576094846 L 920.9743499039432 65.42287031754044 L 920.7399615229752 65.44278632366978 L 920.5051443024753 65.46164178775246 L 920.2699217239697 65.47943482425778 L 920.03431730952 65.49616365389691 L 919.7983546193717 65.51182660380084 L 919.562057249597 65.52642210768764 L 919.325448829736 65.53994870601906 L 919.0885530204334 65.55240504614655 L 918.851393511073 65.56378988244649 L 918.6139940174078 65.57410207644472 L 918.3763782791893 65.58334059693043 L 918.1385700577937 65.59150452005929 L 917.9005931338446 65.59859302944577 L 917.6624713048362 65.60460541624485 L 917.4242283827531 65.60954107922286 L 917.1858881916887 65.61339952481762 L 916.9474745654637 65.61618036718778 L 916.709011345242 65.61788332825142 L 916.4705223771468 65.61850823771385 L 916.2320315098763 65.61805503308466 L 915.9935625923184 65.61652375968391 L 915.7551394711662 65.61391457063768 L 915.5167859885332 65.61022772686269 L 915.2785259795688 65.60546359704027 L 915.0403832700756 65.5996226575794 L 914.802381674126 65.59270549256917 L 914.5645449916811 65.58471279372033 L 914.3268970062112 65.5756453602961 L 914.0894614823167 65.56550409903224 L 913.852262163352 65.55429002404645 L 913.6153227690515 65.5420042567369 L 913.3786669931573 65.52864802567004 L 913.1423185010494 65.51422266645788 L 912.9063009273804 65.4987296216243 L 912.6706378737108 65.48217044046089 L 912.4353529061497 65.46454677887196 L 912.2004695529977 65.44586039920898 L 911.9660113023943 65.42611317009434 L 911.7320015999695 65.4053070662345 L 911.4984638464981 65.38344416822251 L 911.2654213955612 65.36052666232996 L 911.0328975512095 65.33655684028832 L 910.8009155656337 65.31153709905983 L 910.5694986368391 65.28546994059778 L 910.3386699063255 65.25835797159627 L 910.108452456774 65.23020390322961 L 909.8788693097374 65.2010105508812 L 909.6499434233391 65.1707808338619 L 909.4216976899771 65.13951777511826 L 909.1941549340345 65.10722450093009 L 908.9673379095972 65.0739042405979 L 908.7412692981787 65.03956032611994 L 908.5159717064518 65.00419619185907 L 908.2914676639876 64.96781537419922 L 908.0677796210038 64.93042151119185 L 907.8449299461179 64.89201834219209 L 907.6229409241117 64.85260970748485 L 907.4018347537027 64.81219954790075 L 907.1816335453233 64.77079190442208 L 906.9623593189111 64.72839091777868 L 906.7440340017059 64.68500082803388 L 906.5266794260575 64.64062597416049 L 906.3103173272425 64.59527079360693 L 906.0949693412902 64.54893982185345 L 905.8806570028199 64.50163769195862 L 905.6674017428868 64.45336913409601 L 905.4552248868393 64.40413897508118 L 905.244147652186 64.35395213788901 L 905.0341911464747 64.3028136411614 L 904.8253763651808 64.25072859870541 L 904.6177241896085 64.19770221898187 L 904.4112553848023 64.14373980458457 L 904.2059905974706 64.08884675170998 L 904.0019503539212 64.03302854961765 L 903.7991550580082 63.97629078008127 L 903.5976249890924 63.918639116830505 L 903.3973803000127 63.860079324983644 L 903.1984410150711 63.80061726047107 L 903.0008270280304 63.74025886944969 L 902.8045581001245 63.67901018770829 L 902.6096538580827 63.61687734006403 L 902.4161337921668 63.553866539749876 L 902.224017254222 63.48998408779335 L 902.0333234557422 63.42523637238643 L 901.8440714659482 63.359629868246685 L 901.6562802098813 63.29317113596986 L 901.4699684665106 63.225866821373806 L 901.2851548668552 63.15772365483389 L 901.1018578921212 63.088748450609984 L 900.9200958718529 63.01894810616503 L 900.7398869821014 62.94832960147531 L 900.5612492436052 62.87689999833243 L 900.3842005199892 62.8046664396372 L 900.2087585159784 62.73163614868528 L 900.034940775627 62.65781642844491 L 899.862764680564 62.583214660826606 L 899.6922474482557 62.50783830594495 L 899.5234061302831 62.43169490137262 L 899.3562576106372 62.35479206138663 L 899.1908186040308 62.27713747620688 L 899.0271056542266 62.19873891122719 L 898.8651351323833 62.11960420623871 L 898.704923235418 62.039741274646005 L 898.5464859843869 61.95915810267567 L 898.3898392228831 61.87786274857777 L 898.2349986154522 61.79586334181995 L 898.081979646026 61.71316808227457 L 897.9307976163736 61.62978523939866 L 897.7814676445723 61.54572315140702 L 897.6340046634948 61.4609902244384 L 897.4884234193163 61.375594931714886 L 897.3447384700398 61.2895458126946 L 897.2029641840406 61.202851472217716 L 897.0631147386292 61.11552057964606 L 896.9252041186335 61.02756186799609 L 896.7892461150004 60.93898413306569 L 896.6552543234174 60.84979623255453 L 896.5232421429516 60.76000708517834 L 896.3932227747113 60.669625669777034 L 896.2652092205248 60.57866102441683 L 896.1392142816409 60.487122245486475 L 896.0152505574486 60.39501848678756 L 895.8933304442169 60.302358958619216 L 895.7734661338554 60.20915292685704 L 895.6556696126955 60.11540971202653 L 895.5399526602911 60.02113868837107 L 895.4263268482408 59.926349282914444 L 895.3148035390315 59.83105097451821 L 895.2053938849008 59.735253292933805 L 895.0981088267231 59.63896581784955 L 894.9929590929148 59.54219817793271 L 894.8899551983618 59.444960049866644 L 894.7891074433675 59.34726115738312 L 894.6904259126234 59.24911127028998 L 894.5939204742004 59.15052020349414 L 894.499600778562 59.05149781602011 L 894.407476257599 58.95205401002413 L 894.3175561236868 58.85219872980392 L 894.2298493687639 58.75194196080431 L 894.1443647634326 58.651293728618626 L 894.0611108560823 58.550264097986236 L 893.9800959720343 58.448863171785995 L 893.9013282127095 58.34710109002604 L 893.8248154548182 58.244988028829724 L 893.7505653495724 58.14253419941809 L 893.6785853219209 58.03974984708869 L 893.6088825698062 57.93664525019112 L 893.5414640634457 57.833230719099134 L 893.4763365446337 57.72951659517967 L 893.4135065260677 57.62551324975868 L 893.3529802906976 57.521231083084054 L 893.2947638910961 57.41668052328555 L 893.2388631488549 57.311872025332015 L 893.1852836540014 57.20681606998592 L 893.1340307644406 57.10152316275524 L 893.0851096054188 56.996003832842966 L 893.0385250690109 56.89026863209415 L 892.994281813632 56.78432813394075 L 892.9523842635706 56.6781929323443 L 892.9128366085469 56.57187364073653 L 892.8756428032932 56.465380890957974 L 892.8408065671593 56.35872533219489 L 892.8083313837396 56.25191762991426 L 892.7782205005257 56.144968464797316 L 892.7504769285804 56.037888531671435 L 892.725103442238 55.930688538440705 L 892.702102578826 55.823379205015115 L 892.6814766384116 55.71597126223858 L 892.6632276835714 55.60847545081588 L 892.647357539186 55.50090252023857 L 892.6338677922565 55.39326322771006 L 892.6227597917463 55.28556833706991 L 892.6140346484462 55.17782861771744 L 892.6076932348633 55.0700548435348 L 892.6037361851337 54.96225779180959 L 892.602163894959 54.85444824215717" stroke-miterlimit="10" stroke-width="2.7769845610000004" stroke-dasharray=""/></g><g><g/><text fill="black" stroke="none" font-family="sans-serif" font-size="11pt" font-style="normal" font-weight="normal" text-decoration="normal" x="879.7836837857383" y="83.14618479699999" text-anchor="start" dominant-baseline="alphabetic" xml:space="preserve">AccountDB</text></g></g><g><g><rect fill="white" stroke="none" x="118.5226371530794" y="120.717152387" width="170.31209053101563" height="21.23576429"/><text fill="black" stroke="none" font-family="sans-serif" font-size="11pt" font-style="normal" font-weight="normal" text-decoration="normal" x="120.9729176480794" y="135.418835357" text-anchor="start" dominant-baseline="alphabetic" xml:space="preserve">Update permission status</text></g><g><path fill="none" stroke="black" paint-order="fill stroke markers" d=" M 23.64361483359375 141.952916677 L 370.26443261991403 141.952916677" stroke-miterlimit="10" stroke-width="1.3612669416666667" stroke-dasharray=""/><g transform="translate(383.7137500035807,141.952916677) translate(-383.7137500035807,-141.952916677)"><path fill="black" stroke="none" paint-order="stroke fill markers" d=" M 370.101080586914 135.14658196866665 L 383.7137500035807 141.952916677 L 370.101080586914 148.75925138533333 Z"/></g></g><g><rect fill="white" stroke="none" x="425.44530612700515" y="166.455721627" width="117.34146369996094" height="21.23576429"/><text fill="black" stroke="none" font-family="sans-serif" font-size="11pt" font-style="normal" font-weight="normal" text-decoration="normal" x="427.89558662200517" y="181.15740459699998" text-anchor="start" dominant-baseline="alphabetic" xml:space="preserve">forward message</text></g><g><path fill="none" stroke="black" paint-order="fill stroke markers" d=" M 383.7137500035807 187.691485917 L 571.0690085667239 187.691485917" stroke-miterlimit="10" stroke-width="1.3612669416666667" stroke-dasharray=""/><g transform="translate(584.5183259503906,187.691485917) translate(-584.5183259503906,-187.691485917)"><path fill="black" stroke="none" paint-order="stroke fill markers" d=" M 570.9056565337239 180.88515120866666 L 584.5183259503906 187.691485917 L 570.9056565337239 194.49782062533333 Z"/></g></g><g><rect fill="white" stroke="none" x="617.34561509367" y="212.194290867" width="166.8403803259375" height="21.23576429"/><text fill="black" stroke="none" font-family="sans-serif" font-size="11pt" font-style="normal" font-weight="normal" text-decoration="normal" x="619.79589558867" y="226.89597383699999" text-anchor="start" dominant-baseline="alphabetic" xml:space="preserve">Validate and update data</text></g><g><path fill="none" stroke="black" paint-order="fill stroke markers" d=" M 584.5183259503906 233.430055157 L 803.5639671792201 233.430055157" stroke-miterlimit="10" stroke-width="1.3612669416666667" stroke-dasharray=""/><g transform="translate(817.0132845628867,233.430055157) translate(-817.0132845628867,-233.430055157)"><path fill="black" stroke="none" paint-order="stroke fill markers" d=" M 803.40061514622 226.62372044866666 L 817.0132845628867 233.430055157 L 803.40061514622 240.23638986533334 Z"/></g></g><g><rect fill="white" stroke="none" x="403.04374057524734" y="257.93286010699995" width="162.14459480347656" height="21.23576429"/><text fill="black" stroke="none" font-family="sans-serif" font-size="11pt" font-style="normal" font-weight="normal" text-decoration="normal" x="405.49402107024736" y="272.63454307699993" text-anchor="start" dominant-baseline="alphabetic" xml:space="preserve">Forward result message</text></g><g><path fill="none" stroke="black" paint-order="fill stroke markers" d=" M 584.5183259503906 279.168624397 L 397.16306738724734 279.168624397" stroke-miterlimit="10" stroke-width="1.3612669416666667" stroke-dasharray=""/><g transform="translate(383.7137500035807,279.168624397) translate(-383.7137500035807,-279.168624397)"><path fill="black" stroke="none" paint-order="stroke fill markers" d=" M 397.32641942024736 272.36228968866664 L 383.7137500035807 279.168624397 L 397.32641942024736 285.9749591053333 Z"/></g></g><g><rect fill="white" stroke="none" x="265.7967665571484" y="303.67142934699996" width="98.58699287476563" height="21.23576429"/><text fill="black" stroke="none" font-family="sans-serif" font-size="11pt" font-style="normal" font-weight="normal" text-decoration="normal" x="268.2470470521484" y="318.37311231699994" text-anchor="start" dominant-baseline="alphabetic" xml:space="preserve">Forward result</text></g><g><path fill="none" stroke="black" paint-order="fill stroke markers" d=" M 383.7137500035807 324.907193637 L 259.9160933691484 324.907193637" stroke-miterlimit="10" stroke-width="1.3612669416666667" stroke-dasharray=""/><g transform="translate(246.46677598548175,324.907193637) translate(-246.46677598548175,-324.907193637)"><path fill="black" stroke="none" paint-order="stroke fill markers" d=" M 260.0794454021484 318.10085892866664 L 246.46677598548175 324.907193637 L 260.0794454021484 331.7135283453333 Z"/></g></g><g><rect fill="white" stroke="none" x="42.973605405260415" y="349.40999858699996" width="184.1631800085547" height="21.23576429"/><text fill="black" stroke="none" font-family="sans-serif" font-size="11pt" font-style="normal" font-weight="normal" text-decoration="normal" x="45.423885900260416" y="364.11168155699994" text-anchor="start" dominant-baseline="alphabetic" xml:space="preserve">Update permissions display</text></g><g><path fill="none" stroke="black" paint-order="fill stroke markers" d=" M 246.46677598548175 370.645762877 L 37.09293221726042 370.645762877" stroke-miterlimit="10" stroke-width="1.3612669416666667" stroke-dasharray=""/><g transform="translate(23.64361483359375,370.645762877) translate(-23.64361483359375,-370.645762877)"><path fill="black" stroke="none" paint-order="stroke fill markers" d=" M 37.25628425026042 363.83942816866664 L 23.64361483359375 370.645762877 L 37.25628425026042 377.4520975853333 Z"/></g></g></g><g/><g/><g/><g/><g/><g/><g/></g></svg>