<svg xmlns="http://www.w3.org/2000/svg" xmlns:xlink="http://www.w3.org/1999/xlink" version="1.1" width="1448.779397927798" height="2291.5171691088185"><desc>title%20Amenities%0A%0Aactor%20Guest%0Aparticipant%20%22Guest%20Front-end%22%20as%20GuestFrontend%0Aparticipant%20NGINX%0Aparticipant%20%22Amenities%20Microservice%22%20as%20AmenitiesService%0Aparticipant%20%22Permission%20Validator%22%20as%20PermissionValidator%0Adatabase%20Amenity%20Database%0A%0AGuest%20-%3E%20GuestFrontend%20%3A%20(1)%20Request%20to%20view%20amenities%0Aactivate%20GuestFrontend%0AGuestFrontend%20-%3E%20NGINX%20%3A%20(2)%20Request%20for%20list%20of%20amenities%0A%0ANGINX%20-%3E%20AmenitiesService%20%3A%20(3)%20Route%20to%20Amenities%20Microservice%0Aactivate%20AmenitiesService%0A%0AAmenitiesService%20-%3E%20PermissionValidator%20%3A%20(4)%20Validate%20permissions%0Aactivate%20PermissionValidator%0A%0Aalt%20Permissions%20denied%0A%20%20%20%20PermissionValidator%20--%3E%20AmenitiesService%20%3A%20(5)%20Return%20403%20status%0A%20%20%20%20AmenitiesService%20--%3E%20NGINX%20%3A%20(6)%20Return%20response%20%0A%20%20%20%20NGINX%20--%3E%20GuestFrontend%20%3A%20(7)%20Return%20response%20%0A%20%20%20%20GuestFrontend%20--%3E%20Guest%20%3A%20(8)%20Display%20error%20%22Permission%20denied%22%0A%20%20%20%20deactivate%20GuestFrontend%0Aelse%20Permissions%20granted%0A%20%20%20%20PermissionValidator%20--%3E%20AmenitiesService%20%3A%20(5)%20Return%20success%0A%20%20%20%20deactivate%20PermissionValidator%0A%0A%20%20%20%20AmenitiesService%20-%3E%20Amenity%20Database%20%3A%20(6)%20Query%20for%20amenities%0A%20%20%20%20activate%20Amenity%20Database%0A%20%20%20%20alt%20Amenities%20were%20not%20found%0A%20%20%20%20%20%20%20%20Amenity%20Database%20--%3E%20AmenitiesService%20%3A%20(7)%20Return%20null%0A%20%20%20%20%20%20%20%20AmenitiesService%20--%3E%20NGINX%20%3A%20(8)%20Return%20404%20status%0A%20%20%20%20%20%20%20%20NGINX%20--%3E%20GuestFrontend%20%3A%20(9)%20Return%20response%20%0A%20%20%20%20%20%20%20%20GuestFrontend%20--%3E%20Guest%20%3A%20(10)%20Display%20error%20%22Amenities%20not%20found%22%0A%20%20%20%20%20%20%20%20deactivate%20Amenity%20Database%0A%20%20%20%20%20%20%20%20deactivate%20GuestFrontend%0A%20%20%20%20else%20Amenities%20were%20found%0A%20%20%20%20%20%20%20%20Amenity%20Database%20--%3E%20AmenitiesService%20%3A%20(7)%20Return%20amenities%20data%0A%20%20%20%20%20%20%20%20deactivate%20Amenity%20Database%0A%0A%20%20%20%20%20%20%20%20AmenitiesService%20--%3E%20NGINX%20%3A%20(8)%20Return%20200%20status%0A%20%20%20%20%20%20%20%20%20%20%20%20%20%20%20%20deactivate%20AmenitiesService%0A%0A%20%20%20%20%20%20%20%20NGINX%20--%3E%20GuestFrontend%20%3A%20(9)%20Return%20success%20response%0A%20%20%20%20%20%20%20%20GuestFrontend%20--%3E%20Guest%20%3A%20(10)%20Display%20amenities%20list%0A%20%20%20%20%20%20%20%20deactivate%20GuestFrontend%0A%20%20%20%20end%0Aend%0A%0AGuest%20-%3E%20GuestFrontend%20%3A%20(11)%20Request%20to%20view%20specified%20amenity%0Aactivate%20GuestFrontend%0AGuestFrontend%20-%3E%20NGINX%20%3A%20(12)%20Request%20for%20specified%20amenity%0A%0ANGINX%20-%3E%20AmenitiesService%20%3A%20(13)%20Route%20to%20Amenities%20Microservice%0Aactivate%20AmenitiesService%0A%0AAmenitiesService%20-%3E%20PermissionValidator%20%3A%20(14)%20Validate%20permissions%0Aactivate%20PermissionValidator%0A%0Aalt%20Permissions%20denied%0A%20%20%20%20PermissionValidator%20--%3E%20AmenitiesService%20%3A%20(15)%20Return%20403%20status%0A%20%20%20%20AmenitiesService%20--%3E%20NGINX%20%3A%20(16)%20Return%20response%20%0A%20%20%20%20NGINX%20--%3E%20GuestFrontend%20%3A%20(17)%20Return%20response%20%0A%20%20%20%20GuestFrontend%20--%3E%20Guest%20%3A%20(18)%20Display%20error%20%22Permission%20denied%22%0A%20%20%20%20deactivate%20GuestFrontend%0Aelse%20Permissions%20granted%0A%20%20%20%20PermissionValidator%20--%3E%20AmenitiesService%20%3A%20(15)%20Return%20success%0A%20%20%20%20deactivate%20PermissionValidator%0A%0A%20%20%20%20AmenitiesService%20-%3E%20Amenity%20Database%20%3A%20(16)%20Query%20for%20specified%20amenity%0A%20%20%20%20activate%20Amenity%20Database%0A%0A%20%20%20%20alt%20Amenity%20not%20found%0A%20%20%20%20%20%20%20%20Amenity%20Database%20--%3E%20AmenitiesService%20%3A%20(17)%20Return%20null%20amenity%0A%20%20%20%20%20%20%20%20AmenitiesService%20--%3E%20NGINX%20%3A%20(18)%20Return%20404%20status%0A%20%20%20%20%20%20%20%20NGINX%20--%3E%20GuestFrontend%20%3A%20(19)%20Return%20response%20%0A%20%20%20%20%20%20%20%20GuestFrontend%20--%3E%20Guest%20%3A%20(20)%20Display%20error%20%22Amenity%20not%20found%22%0A%20%20%20%20%20%20%20%20deactivate%20Amenity%20Database%0A%20%20%20%20%20%20%20%20deactivate%20GuestFrontend%0A%20%20%20%20else%20Amenity%20found%0A%20%20%20%20%20%20%20%20Amenity%20Database%20--%3E%20AmenitiesService%20%3A%20(17)%20Return%20specified%20amenity%20data%0A%20%20%20%20%20%20%20%20deactivate%20Amenity%20Database%0A%0A%20%20%20%20%20%20%20%20AmenitiesService%20--%3E%20NGINX%20%3A%20(18)%20Return%20200%20status%0A%20%20%20%20%20%20%20%20%20%20%20%20%20%20%20%20deactivate%20AmenitiesService%0A%0A%20%20%20%20%20%20%20%20NGINX%20--%3E%20GuestFrontend%20%3A%20(19)%20Return%20success%20response%0A%20%20%20%20%20%20%20%20GuestFrontend%20--%3E%20Guest%20%3A%20(20)%20Display%20specified%20amenity%20details%0A%20%20%20%20%20%20%20%20deactivate%20GuestFrontend%0A%20%20%20%20end%0Aend%0A%0A%0A%0A%0A%0A%0A%0A%0A%0A%0A</desc><defs/><g><g/><g/><g/><g/><g/><g/><g/><g/><g/><g/><g/><g/><g/><g/><g/><g/><g/><g/><g/><g/><g/><g/><g/><g/><g/><g/><g/><g/><g/><g/><g/><g/><g/><g/><g/><g/><g/><g/><g/><g/><g/><g/><g/><g/><g/><g/><g/><g/><g/><g/><g/><g/><g/><g/><g/><g/><g/><g/><g/><g/><g/><g/><g/><g/><g/><g/><g/><g/><g/><g/><g/><g/><g/><g/><g/><g/><g/><g/><g/><g/><g/><g/><g/><g/><g/><g/><g/><g/><g/><g/><g/><g/><g/><g/><g/><g/><g/><g/><g/><g/><g/><g/><g/><g/><g/><g/><g/><g/><g/><g/><g/><g/><g/><g/><g/><g/><g/><g/><g/><g/><g/><g/><g/><g/><g/><g/><g/><g/><g/><g/><g/><g/><g/><g/><g/><g/><g/><g/><g/><g/><g/><g/><g/><g/><g/><g/><g/><g/><g/><g/><g/><g/><g/><g/><g/><g/><g/><g/><g/><g/><g/><g/><g/><g/><g/><g/><g/><g/><g/><g/><g/><g/><g/><g/><g/><g/><g/><g/><g/><g/><g/><g/><g/><g/><g/><g/><g/><g/><g/><g/><g/><g/><g/><g/><g/><g/><g/><g/><g/><g/><g/><g/><g/><g/><g/><g/><g/><g/><g/><g/><g/><g/><g/><g/><g/><g/><g/><g/><g/><g/><g/><g/><g/><g/><g/><g/><g/><g/><g/><g/><g/><g/><g/><g/><g/><g/><g/><g/><g/><g/><g/><g/><g/><g/><g/><g/><g/><g/><g/><g/><g/><g/><g/><g/><g/><g/><g/><g/><g/><g/><g/><g/><g/><g/><g/><g/><g/><g/><g/><g/><g/><g/><g/><g/><g/><g/><g/><g/><g/><g/><g/><g/><g/><g/><g/><g/><g/><g/><g/><g/><g/><g/><g/><g/><g/><g/><g/><g/><g/><g/><g/><g/><g/><g/><g/><g/><g/><g/><g/><g/><g/><g/><g/><g/><g/><g/><g/><g/><g/><g/><g/><g/><g/><g/><g/><g/><g><rect fill="white" stroke="none" x="0" y="0" width="1448" height="2291"/></g><g/><g><path fill="none" stroke="black" paint-order="fill stroke markers" d=" M 89.84361815 128.73625218881818 L 89.84361815 2291.5171691088185" stroke-miterlimit="10" stroke-width="1.3612669416666667" stroke-dasharray="12.565541,5.445067766666667"/><path fill="none" stroke="black" paint-order="fill stroke markers" d=" M 398.8658445749349 128.73625218881818 L 398.8658445749349 2291.5171691088185" stroke-miterlimit="10" stroke-width="1.3612669416666667" stroke-dasharray="12.565541,5.445067766666667"/><path fill="none" stroke="black" paint-order="fill stroke markers" d=" M 673.8580264442057 128.73625218881818 L 673.8580264442057 2291.5171691088185" stroke-miterlimit="10" stroke-width="1.3612669416666667" stroke-dasharray="12.565541,5.445067766666667"/><path fill="none" stroke="black" paint-order="fill stroke markers" d=" M 965.9296455693359 128.73625218881818 L 965.9296455693359 2291.5171691088185" stroke-miterlimit="10" stroke-width="1.3612669416666667" stroke-dasharray="12.565541,5.445067766666667"/><path fill="none" stroke="black" paint-order="fill stroke markers" d=" M 1190.1416904411458 128.73625218881818 L 1190.1416904411458 2291.5171691088185" stroke-miterlimit="10" stroke-width="1.3612669416666667" stroke-dasharray="12.565541,5.445067766666667"/><path fill="none" stroke="black" paint-order="fill stroke markers" d=" M 1350.7681781277981 128.73625218881818 L 1350.7681781277981 2291.5171691088185" stroke-miterlimit="10" stroke-width="1.3612669416666667" stroke-dasharray="12.565541,5.445067766666667"/></g><g><g><path fill="white" stroke="black" paint-order="fill stroke markers" d=" M 99.154684031 59.63834222981819 A 9.311065881 9.311065881 0 1 1 99.15467937546744 59.62903116548903 M 89.84361815 68.9494081108182 L 89.84361815 88.8783561368182 M 78.08227177399999 76.13689756281819 L 101.604964526 76.13689756281819 M 89.84361815 88.8783561368182 L 78.08227177399999 107.50048789881819 M 89.84361815 88.8783561368182 L 101.604964526 107.50048789881819" stroke-miterlimit="10" stroke-width="2.7769845610000004" stroke-dasharray=""/></g><g><g/><text fill="black" stroke="none" font-family="sans-serif" font-size="11pt" font-style="normal" font-weight="normal" text-decoration="normal" x="70.28742765927734" y="123.83569119881818" text-anchor="start" dominant-baseline="alphabetic" xml:space="preserve">Guest</text></g><path fill="none" stroke="none"/><g><path fill="white" stroke="black" paint-order="fill stroke markers" d=" M 327.7706508865247 84.7945553118182 L 469.961038263345 84.7945553118182 L 469.961038263345 128.73625218881818 L 327.7706508865247 128.73625218881818 L 327.7706508865247 84.7945553118182 Z" stroke-miterlimit="10" stroke-width="2.613632528" stroke-dasharray=""/></g><g><text fill="black" stroke="none" font-family="sans-serif" font-size="11pt" font-style="normal" font-weight="normal" text-decoration="normal" x="345.49434646702474" y="112.40104888881818" text-anchor="start" dominant-baseline="alphabetic" xml:space="preserve">Guest Front-end</text></g><path fill="none" stroke="none"/><g><path fill="white" stroke="black" paint-order="fill stroke markers" d=" M 632.920295829526 84.63120327881819 L 714.7957570588854 84.63120327881819 L 714.7957570588854 128.73625218881818 L 632.920295829526 128.73625218881818 L 632.920295829526 84.63120327881819 Z" stroke-miterlimit="10" stroke-width="2.613632528" stroke-dasharray=""/></g><g><g/><text fill="black" stroke="none" font-family="sans-serif" font-size="11pt" font-style="normal" font-weight="normal" text-decoration="normal" x="650.643991410026" y="112.40104888881817" text-anchor="start" dominant-baseline="alphabetic" xml:space="preserve">NGINX</text></g><path fill="none" stroke="none"/><g><path fill="white" stroke="black" paint-order="fill stroke markers" d=" M 872.8516637949882 84.7945553118182 L 1059.0076273436835 84.7945553118182 L 1059.0076273436835 128.73625218881818 L 872.8516637949882 128.73625218881818 L 872.8516637949882 84.7945553118182 Z" stroke-miterlimit="10" stroke-width="2.613632528" stroke-dasharray=""/></g><g><text fill="black" stroke="none" font-family="sans-serif" font-size="11pt" font-style="normal" font-weight="normal" text-decoration="normal" x="890.5753593754882" y="112.40104888881818" text-anchor="start" dominant-baseline="alphabetic" xml:space="preserve">Amenities Microservice</text></g><path fill="none" stroke="none"/><g><path fill="white" stroke="black" paint-order="fill stroke markers" d=" M 1105.7430146970717 84.7945553118182 L 1274.5403661852201 84.7945553118182 L 1274.5403661852201 128.73625218881818 L 1105.7430146970717 128.73625218881818 L 1105.7430146970717 84.7945553118182 Z" stroke-miterlimit="10" stroke-width="2.613632528" stroke-dasharray=""/></g><g><text fill="black" stroke="none" font-family="sans-serif" font-size="11pt" font-style="normal" font-weight="normal" text-decoration="normal" x="1123.4667102775716" y="112.40104888881818" text-anchor="start" dominant-baseline="alphabetic" xml:space="preserve">Permission Validator</text></g><g><path fill="white" stroke="black" paint-order="fill stroke markers" d=" M 1326.918781309798 96.71925372081819 L 1326.918781309798 62.41532679081819 L 1374.6175749457982 62.41532679081819 L 1374.6175749457982 96.71925372081819" stroke-miterlimit="10" stroke-width="2.7769845610000004" stroke-dasharray=""/><path fill="white" stroke="black" paint-order="fill stroke markers" d=" M 1374.6175749457982 61.22285694991819 L 1374.6163824858945 61.33066749483481 L 1374.6128052254285 61.43846725878678 L 1374.606843522123 61.546245461887544 L 1374.5984979721438 61.65399132640659 L 1374.5877694100386 61.761694077847274 L 1374.5746589086548 61.86934294602419 L 1374.5591677790314 61.976927166140236 L 1374.5412975702689 62.084435979863045 L 1374.521050069373 62.19185863640084 L 1374.4984273010766 62.299184393577484 L 1374.4734315276382 62.4064025189067 L 1374.4460652486143 62.51350229066531 L 1374.4163312006096 62.62047299896537 L 1374.3842323570045 62.7273039468252 L 1374.3497719276563 62.83398445123905 L 1374.3129533585795 62.94050384424536 L 1374.2737803316004 63.04685147399361 L 1374.2322567639885 63.15301670580944 L 1374.1883868080665 63.25898892325815 L 1374.1421748507933 63.364757529206294 L 1374.0936255133258 63.47031194688142 L 1374.042743650558 63.575641620929716 L 1373.9895343506328 63.68073601847156 L 1373.9340029344366 63.78558463015478 L 1373.8761549550647 63.89017697120557 L 1373.8159961972665 63.994502582477 L 1373.7535326768677 64.09855103149486 L 1373.6887706401687 64.20231191350096 L 1373.6217165633186 64.3057748524936 L 1373.5523771516696 64.40892950226505 L 1373.4807593391051 64.51176554743633 L 1373.4068702873465 64.61427270448858 L 1373.3307173852372 64.71644072279157 L 1373.2523082480045 64.81825938562858 L 1373.1716507164965 64.91971851121816 L 1373.088752856399 65.02080795373233 L 1373.0036229574291 65.12151760431107 L 1372.9162695325058 65.22183739207324 L 1372.8267013168986 65.32175728512367 L 1372.7349272673544 65.42126729155632 L 1372.640956561202 65.52035746045347 L 1372.5447985954336 65.6190178828808 L 1372.4464629857653 65.71723869287828 L 1372.3459595656766 65.81501006844678 L 1372.2432983854253 65.91232223253022 L 1372.1384897110443 66.00916545399325 L 1372.0315440233135 66.10553004859446 L 1371.9224720167126 66.20140637995469 L 1371.8112845983512 66.29678486052069 L 1371.6979928868786 66.39165595252388 L 1371.5826082113717 66.48601016893414 L 1371.4651421102017 66.57983807440844 L 1371.3456063298809 66.67313028623443 L 1371.2240128238875 66.76587747526865 L 1371.1003737514711 66.85807036686953 L 1370.9747014764357 66.94969974182469 L 1370.8470085659042 67.04075643727302 L 1370.7173077890614 67.13123134762085 L 1370.5856121158763 67.22111542545254 L 1370.451934715807 67.3103996824352 L 1370.3162889564821 67.39907519021754 L 1370.1786884023643 67.4871330813227 L 1370.0391468133944 67.57456455003492 L 1369.8976781436152 67.6613608532802 L 1369.7542965397754 67.74751331150055 L 1369.609016339916 67.83301330952195 L 1369.4618520719364 67.91785229741582 L 1369.3128184521402 68.00202179135408 L 1369.1619303837654 68.08551337445749 L 1369.009202955493 68.1683186976373 L 1368.8546514399386 68.25042948043021 L 1368.698291292125 68.33183751182635 L 1368.540138147937 68.41253465109044 L 1368.3802078225567 68.4925128285758 L 1368.2185163088834 68.5717640465313 L 1368.055079775934 68.65028037990122 L 1367.8899145672256 68.72805397711764 L 1367.7230371991413 68.80507706088565 L 1367.5544643592789 68.88134192896105 L 1367.3842129047816 68.95684095492061 L 1367.2122998606535 69.03156658892462 L 1367.0387424180556 69.10551135847197 L 1366.8635579325871 69.17866786914732 L 1366.686763922551 69.25102880536058 L 1366.508378067201 69.3225869310784 L 1366.3284182049738 69.39333509054786 L 1366.1469023317056 69.46326620901198 L 1365.9638485988328 69.53237329341717 L 1365.7792753115757 69.60064943311258 L 1365.5932009271096 69.66808780054113 L 1365.4056440527177 69.7346816519223 L 1365.216623443931 69.80042432792644 L 1365.0261580026531 69.86530925434072 L 1364.8342667752693 69.92932994272657 L 1364.6409689507425 69.9924799910685 L 1364.446283858694 70.05475308441433 L 1364.2502309674708 70.1161429955066 L 1364.0528298821987 70.17664358540536 L 1363.8541003428215 70.23624880410202 L 1363.6540622221278 70.29495269112441 L 1363.4527355237628 70.35274937613272 L 1363.2501403802287 70.40963307950663 L 1363.046297050871 70.46559811292322 L 1362.8412259198526 70.52063887992576 L 1362.634947494116 70.57474987648341 L 1362.4274824013316 70.62792569154163 L 1362.218851387836 70.68016100756323 L 1362.0090753165564 70.73145060106012 L 1361.7981751649254 70.78178934311569 L 1361.5861720227824 70.8311721998977 L 1361.3730870902648 70.8795942331616 L 1361.1589416756883 70.92705060074444 L 1360.943757193416 70.973536557049 L 1360.727555161717 71.01904745351838 L 1360.5103572006137 71.06357873910088 L 1360.2921850297216 71.10712596070502 L 1360.0730604660762 71.14968476364494 L 1359.853005421951 71.19125089207583 L 1359.6320419026667 71.23182018941947 L 1359.4101920043918 71.27138859877994 L 1359.1874779119307 71.30995216334925 L 1358.9639218965074 71.34750702680313 L 1358.7395463135367 71.38404943368649 L 1358.5143736003904 71.4195757297891 L 1358.288426274152 71.45408236251096 L 1358.061726929366 71.48756588121756 L 1357.8342982357774 71.52002293758491 L 1357.6061629360668 71.55145028593446 L 1357.3773438435733 71.58184478355753 L 1357.147863840016 71.61120339102969 L 1356.917745873204 71.63952317251467 L 1356.687012954742 71.66680129605793 L 1356.4556881577296 71.69303503386982 L 1356.2237946144537 71.71822176259843 L 1355.9913555140756 71.7423589635919 L 1355.7583941003115 71.7654442231502 L 1355.5249336691086 71.78747523276665 L 1355.2909975663156 71.80844978935863 L 1355.0566091853477 71.82836579548797 L 1354.8217919648478 71.84722125957065 L 1354.586569386342 71.86501429607597 L 1354.3509649718924 71.8817431257151 L 1354.1150022817442 71.89740607561903 L 1353.8787049119694 71.91200157950583 L 1353.6420964921083 71.92552817783725 L 1353.4052006828058 71.93798451796474 L 1353.1680411734453 71.94936935426468 L 1352.9306416797801 71.95968154826289 L 1352.6930259415617 71.96892006874862 L 1352.455217720166 71.97708399187748 L 1352.217240796217 71.98417250126396 L 1351.9791189672087 71.99018488806304 L 1351.7408760451253 71.99512055104105 L 1351.502535854061 71.99897899663581 L 1351.264122227836 72.00175983900598 L 1351.0256590076144 72.00346280006961 L 1350.7871700395192 72.00408770953204 L 1350.5486791722487 72.00363450490285 L 1350.310210254691 72.0021032315021 L 1350.0717871335387 71.99949404245586 L 1349.8334336509056 71.9958071986809 L 1349.5951736419413 71.99104306885846 L 1349.357030932448 71.98520212939759 L 1349.1190293364982 71.97828496438737 L 1348.8811926540534 71.97029226553852 L 1348.6435446685834 71.96122483211428 L 1348.406109144689 71.95108357085043 L 1348.1689098257243 71.93986949586466 L 1347.931970431424 71.92758372855508 L 1347.6953146555295 71.91422749748824 L 1347.4589661634218 71.89980213827607 L 1347.2229485897528 71.8843090934425 L 1346.9872855360832 71.86774991227908 L 1346.7520005685221 71.85012625069015 L 1346.51711721537 71.83143987102717 L 1346.2826589647668 71.81169264191253 L 1346.0486492623418 71.79088653805269 L 1345.8151115088706 71.7690236400407 L 1345.5820690579335 71.74610613414815 L 1345.349545213582 71.72213631210651 L 1345.117563228006 71.69711657087802 L 1344.8861462992113 71.67104941241597 L 1344.655317568698 71.64393744341446 L 1344.4251001191462 71.6157833750478 L 1344.1955169721098 71.58659002269937 L 1343.9665910857116 71.55636030568009 L 1343.7383453523496 71.52509724693644 L 1343.5108025964068 71.49280397274828 L 1343.2839855719697 71.45948371241609 L 1343.057916960551 71.42513979793813 L 1342.832619368824 71.38977566367726 L 1342.6081153263601 71.35339484601741 L 1342.3844272833762 71.31600098301004 L 1342.1615776084902 71.27759781401028 L 1341.9395885864842 71.23818917930303 L 1341.718482416075 71.19777901971894 L 1341.4982812076958 71.15637137624027 L 1341.2790069812834 71.11397038959687 L 1341.0606816640782 71.07058029985207 L 1340.84332708843 71.02620544597868 L 1340.6269649896149 70.98085026542512 L 1340.4116170036625 70.93451929367163 L 1340.1973046651922 70.8872171637768 L 1339.9840494052592 70.8389486059142 L 1339.7718725492116 70.78971844689937 L 1339.5607953145584 70.7395316097072 L 1339.3508388088471 70.6883931129796 L 1339.1420240275531 70.6363080705236 L 1338.9343718519808 70.58328169080006 L 1338.7279030471746 70.52931927640276 L 1338.522638259843 70.47442622352818 L 1338.3185980162934 70.41860802143584 L 1338.1158027203805 70.36187025189946 L 1337.914272651465 70.3042185886487 L 1337.714027962385 70.24565879680183 L 1337.5150886774436 70.18619673228926 L 1337.3174746904028 70.12583834126788 L 1337.1212057624969 70.06458965952649 L 1336.9263015204551 70.00245681188221 L 1336.732781454539 69.93944601156807 L 1336.5406649165943 69.87556355961155 L 1336.3499711181146 69.81081584420461 L 1336.1607191283206 69.74520934006487 L 1335.9729278722536 69.67875060778805 L 1335.786616128883 69.61144629319199 L 1335.6018025292276 69.54330312665208 L 1335.4185055544935 69.47432792242817 L 1335.2367435342253 69.40452757798322 L 1335.0565346444737 69.3339090732935 L 1334.8778969059774 69.26247947015062 L 1334.7008481823616 69.19024591145539 L 1334.5254061783507 69.11721562050347 L 1334.3515884379992 69.0433959002631 L 1334.1794123429363 68.96879413264479 L 1334.0088951106281 68.89341777776313 L 1333.8400537926555 68.81727437319081 L 1333.6729052730095 68.74037153320482 L 1333.507466266403 68.66271694802508 L 1333.343753316599 68.58431838304537 L 1333.1817827947557 68.5051836780569 L 1333.0215708977903 68.4253207464642 L 1332.8631336467593 68.34473757449386 L 1332.7064868852556 68.26344222039596 L 1332.5516462778246 68.18144281363814 L 1332.3986273083983 68.09874755409275 L 1332.247445278746 68.01536471121685 L 1332.0981153069447 67.9313026232252 L 1331.9506523258672 67.84656969625658 L 1331.8050710816888 67.76117440353308 L 1331.6613861324122 67.67512528451279 L 1331.519611846413 67.5884309440359 L 1331.3797624010015 67.50110005146425 L 1331.2418517810058 67.41314133981427 L 1331.1058937773728 67.32456360488388 L 1330.9719019857898 67.23537570437271 L 1330.839889805324 67.14558655699653 L 1330.7098704370837 67.05520514159522 L 1330.5818568828972 66.96424049623502 L 1330.4558619440133 66.87270171730466 L 1330.331898219821 66.78059795860575 L 1330.2099781065892 66.68793843043741 L 1330.0901137962278 66.59473239867523 L 1329.9723172750678 66.50098918384472 L 1329.8566003226633 66.40671816018926 L 1329.7429745106133 66.31192875473263 L 1329.6314512014037 66.2166304463364 L 1329.5220415472731 66.120832764752 L 1329.4147564890955 66.02454528966774 L 1329.3096067552872 65.92777764975091 L 1329.2066028607342 65.83053952168484 L 1329.10575510574 65.73284062920132 L 1329.0070735749957 65.63469074210818 L 1328.910568136573 65.53609967531233 L 1328.8162484409343 65.4370772878383 L 1328.7241239199714 65.33763348184232 L 1328.634203786059 65.23777820162212 L 1328.5464970311361 65.13752143262249 L 1328.461012425805 65.03687320043682 L 1328.3777585184546 64.93584356980442 L 1328.2967436344068 64.83444264360419 L 1328.217975875082 64.73268056184422 L 1328.1414631171906 64.63056750064791 L 1328.067213011945 64.52811367123628 L 1327.9952329842931 64.42532931890689 L 1327.9255302321785 64.32222472200931 L 1327.858111725818 64.21881019091732 L 1327.792984207006 64.11509606699785 L 1327.73015418844 64.01109272157687 L 1327.66962795307 63.90681055490224 L 1327.6114115534685 63.80225999510374 L 1327.5555108112271 63.697451497150205 L 1327.5019313163737 63.59239554180411 L 1327.450678426813 63.48710263457343 L 1327.401757267791 63.381583304661156 L 1327.3551727313834 63.27584810391234 L 1327.3109294760043 63.16990760575894 L 1327.269031925943 63.06377240416249 L 1327.229484270919 62.95745311255472 L 1327.1922904656656 62.85096036277616 L 1327.1574542295316 62.744304804013076 L 1327.124979046112 62.63749710173245 L 1327.094868162898 62.530547936615505 L 1327.0671245909527 62.423468003489624 L 1327.0417511046103 62.316268010258895 L 1327.0187502411984 62.208958676833305 L 1326.998124300784 62.10155073405677 L 1326.9798753459438 61.99405492263407 L 1326.9640052015584 61.88648199205676 L 1326.9505154546289 61.77884269952825 L 1326.9394074541187 61.6711478088881 L 1326.9306823108186 61.56340808953563 L 1326.9243408972357 61.45563431535299 L 1326.920383847506 61.34783726362778 L 1326.9188115573313 61.24002771397536 L 1326.9196241839393 61.13221644726084 L 1326.9228216460679 61.02441424452105 L 1326.9284036239735 60.916631885886424 L 1326.9363695594632 60.808880149503025 L 1326.94671865595 60.70116981045468 L 1326.9594498785327 60.59351163968555 L 1326.9745619541 60.48591640292299 L 1326.9920533714564 60.378394859601016 L 1327.0119223814752 60.27095776178435 L 1327.034166997272 60.163615853093255 L 1327.0587849944034 60.05637986762915 L 1327.0857739110904 59.949260528901206 L 1327.1151310484638 59.84226854875404 L 1327.1468534708342 59.7354146262965 L 1327.180938005986 59.62870944683179 L 1327.2173812454942 59.52216368078894 L 1327.256179545065 59.41578798265577 L 1327.2973290249006 59.30959298991343 L 1327.3408255700876 59.203589321972714 L 1327.3866648310077 59.09778757911208 L 1327.4348422237729 58.992198341417634 L 1327.485352930684 58.88683216772516 L 1327.5381919007127 58.78169959456423 L 1327.5933538500058 58.67681113510454 L 1327.6508332624144 58.57217727810464 L 1327.7106243900453 58.46780848686303 L 1327.7727212538352 58.36371519817185 L 1327.8371176441497 58.25990782127324 L 1327.9038071214034 58.15639673681838 L 1327.9727830167042 58.053192295829454 L 1328.04403843252 57.950304818664556 L 1328.1175662433686 57.84774459398567 L 1328.1933590965302 57.745521877729786 L 1328.2714094127828 57.64364689208335 L 1328.3517093871594 57.54212982446004 L 1328.43425098973 57.44098082648201 L 1328.5190259664028 57.340210012964775 L 1328.6060258397506 57.2398274609057 L 1328.695241909859 57.13984320847635 L 1328.786665255195 57.040267254018644 L 1328.8802867335005 56.94110955504505 L 1328.9760969827057 56.84238002724283 L 1329.0740864218653 56.74408854348249 L 1329.174245252117 56.646244932830506 L 1329.2765634576615 56.54885897956639 L 1329.3810308067634 56.45194042220433 L 1329.4876368527748 56.35549895251929 L 1329.5963709351802 56.25954421457787 L 1329.7072221806616 56.16408580377391 L 1329.8201795041869 56.06913326586893 L 1329.9352316101179 55.974696096037604 L 1330.05236699334 55.88078373791821 L 1330.1715739404126 55.7874055826683 L 1330.29284053074 55.694570968025594 L 1330.4161546377643 55.60228917737418 L 1330.541503930178 55.51056943881623 L 1330.6688758731555 55.41942092424918 L 1330.7982577296093 55.328852748448504 L 1330.9296365614614 55.23887396815633 L 1331.062999230938 55.14949358117568 L 1331.1983324018834 55.0607205254708 L 1331.3356225410932 54.97256367827326 L 1331.474855919668 54.88503185519433 L 1331.616018614386 54.79813380934336 L 1331.7590965090951 54.71187823045254 L 1331.9040752961253 54.62627374400786 L 1332.0509404777185 54.541328910386646 L 1332.1996773674791 54.45705222400146 L 1332.3502710918422 54.373452112450714 L 1332.5027065915604 54.290536935675895 L 1332.6569686232112 54.20831498512558 L 1332.81304176072 54.12679448292632 L 1332.9709103969028 54.0459835810604 L 1333.1305587450277 53.965890360550645 L 1333.2919708403929 53.88652283065238 L 1333.4551305419232 53.80788892805245 L 1333.620021533785 53.72999651607559 L 1333.7866273270158 53.652853383898076 L 1333.9549312611755 53.57646724576885 L 1334.1249165060108 53.50084574023808 L 1334.2965660631392 53.42599642939328 L 1334.4698627677474 53.35192679810317 L 1334.64478929031 53.278644253269164 L 1334.82132813832 53.20615612308466 L 1334.9994616580402 53.13446965630228 L 1335.1791720362667 53.06359202150896 L 1335.3604413021117 52.99353030640911 L 1335.5432513287994 52.924291517115876 L 1335.7275838354797 52.85588257745046 L 1335.9134203890553 52.78831032824984 L 1336.1007424060258 52.72158152668263 L 1336.289531154346 52.65570284557336 L 1336.4797677552976 52.590680872735255 L 1336.6714331853798 52.52652211031142 L 1336.8645082782089 52.463232974124615 L 1337.0589737264365 52.40081979303573 L 1337.25481008368 52.33928880831086 L 1337.451997766467 52.278646172997206 L 1337.6505170561932 52.21889795130775 L 1337.850348101095 52.160050118014894 L 1338.051470918235 52.1021085578529 L 1338.2538653954987 52.045079064929524 L 1338.4575112936068 51.98896734214652 L 1338.6623882481397 51.933779000629414 L 1338.8684757715723 51.87951955916637 L 1339.0757532553243 51.826194443656306 L 1339.2841999718198 51.77380898656634 L 1339.493795076561 51.72236842639853 L 1339.704517610212 51.67187790716602 L 1339.916346500695 51.622342477878675 L 1340.1292605652975 51.57376709203812 L 1340.3432385127905 51.526156607142475 L 1340.5582589455578 51.47951578420055 L 1340.774300361735 51.43384928725578 L 1340.9913411573607 51.38916168291979 L 1341.2093596285358 51.34545743991578 L 1341.4283339735955 51.302740928631636 L 1341.6482422952872 51.261016420682886 L 1341.8690626029625 51.220288088485546 L 1342.090772814774 51.18056000483891 L 1342.313350759886 51.14183614251822 L 1342.536774180689 51.10412037387746 L 1342.7610207350272 51.06741647046204 L 1342.9860679984322 51.03172810263173 L 1343.211893466365 50.99705883919358 L 1343.4384745564669 50.96341214704502 L 1343.665788610818 50.930791390827245 L 1343.8938128982022 50.899199832588685 L 1344.1225246163806 50.86864063145883 L 1344.3519008943722 50.83911684333235 L 1344.5819187947402 50.81063142056343 L 1344.8125553158864 50.78318721167063 L 1345.0437873943508 50.75678696105195 L 1345.2755919071183 50.731433308710464 L 1345.5079456739306 50.70712878999027 L 1345.7408254596048 50.683875835323 L 1345.9742079763564 50.66167676998473 L 1346.208069886128 50.6405338138635 L 1346.4423878029238 50.6204490812373 L 1346.6771382951474 50.60142458056266 L 1346.912297887945 50.583462214273794 L 1347.1478430655534 50.566563778592354 L 1347.383750273651 50.55073096334783 L 1347.6199959217138 50.53596535180856 L 1347.8565563853736 50.52226842052339 L 1348.0934080087814 50.50964153917403 L 1348.3305271069719 50.49808597043808 L 1348.5678899682334 50.48760286986282 L 1348.805472856477 50.47819328574954 L 1349.0432520136126 50.46985815904882 L 1349.2812036619218 50.462598323266384 L 1349.5193040064387 50.456414504379765 L 1349.7575292373267 50.45130732076569 L 1349.9958555322617 50.44727728313828 L 1350.2342590588128 50.444324794497916 L 1350.4727159768256 50.44245015009101 L 1350.7112024408075 50.44165353738045 L 1350.9496946023105 50.44193503602685 L 1351.1881686123174 50.443294617880554 L 1351.4266006236257 50.445732146984525 L 1351.6649667932331 50.44924737958788 L 1351.9032432847216 50.45383996417029 L 1352.14140627064 50.459509441477124 L 1352.3794319348885 50.46625524456538 L 1352.617296475099 50.474076698860365 L 1352.8549761050158 50.48297302222316 L 1353.0924470568737 50.49294332502887 L 1353.3296855837757 50.50398661025549 L 1353.5666679620667 50.51610177358371 L 1353.8033704937063 50.52928760350731 L 1354.0397695086385 50.54354278145426 L 1354.275841367159 50.55886588191867 L 1354.5115624622788 50.575255372603245 L 1354.7469092220845 50.592709614572584 L 1354.9818581120962 50.61122686241703 L 1355.2163856376212 50.630805264427224 L 1355.4504683461018 50.651442862779284 L 1355.6840828294626 50.67313759373059 L 1355.9172057264498 50.695887287826096 L 1356.1498137249678 50.71968967011537 L 1356.3818835644108 50.74454236038002 L 1356.6133920379884 50.77044287337172 L 1356.8443159950457 50.797388619060754 L 1357.07463234338 50.825376902895016 L 1357.3043180515479 50.85440492606945 L 1357.5333501511702 50.88446978580591 L 1357.7617057392279 50.9155684756435 L 1357.9893619803524 50.947697885739125 L 1358.2162961091092 50.980854803178566 L 1358.4424854322747 51.01503591229771 L 1358.6679073311047 51.05023779501413 L 1358.8925392635979 51.08645693116888 L 1359.1163587667475 51.12368969887854 L 1359.33934345879 51.16193237489736 L 1359.561471041442 51.201181134989596 L 1359.7827193021305 51.241432054311964 L 1360.0030661162136 51.28268110780607 L 1360.2224894491935 51.32492417060092 L 1360.44096735892 51.368157018425464 L 1360.6584779977838 51.41237532803093 L 1360.8749996149027 51.45757467762322 L 1361.0905105582951 51.503750547305025 L 1361.3049892770464 51.55089831952786 L 1361.5184143234633 51.5990132795538 L 1361.7307643552192 51.64809061592693 L 1361.9420181374878 51.69812542095451 L 1362.152154545067 51.749112691197745 L 1362.3611525644912 51.801047327972086 L 1362.5689912961323 51.85392413785714 L 1362.7756499562906 51.90773783321599 L 1362.9811078792723 51.962483032723924 L 1363.1853445194563 52.01815426190663 L 1363.3883394533486 52.07474595368758 L 1363.5900723816253 52.132252448944755 L 1363.7905231311613 52.190667997076545 L 1363.989671657049 52.24998675657682 L 1364.1874980446016 52.310202795619055 L 1364.3839825113453 52.371310092649544 L 1364.5791054089968 52.43330253698949 L 1364.7728472254296 52.49617392944612 L 1364.965188586623 52.559917982932596 L 1365.1561102586015 52.62452832309667 L 1365.3455931493568 52.68999848895818 L 1365.5336183107577 52.7563219335551 L 1365.7201669404446 52.823492024598224 L 1365.9052203837105 52.89150204513444 L 1366.0887601353647 52.960345194218355 L 1366.2707678415854 53.03001458759244 L 1366.4512253017533 53.10050325837541 L 1366.6301144702732 53.171804157758935 L 1366.8074174583771 53.243910155712484 L 1366.9831165359137 53.31681404169635 L 1367.1571941331222 53.39050852538269 L 1367.3296328423874 53.46498623738456 L 1367.5004154199823 53.5402397299928 L 1367.6695247877917 53.61626147792087 L 1367.8369440350193 53.69304387905734 L 1368.0026564198802 53.770579255226075 L 1368.166645371274 53.848859852954064 L 1368.3288944904418 53.92787784424677 L 1368.4893875526075 54.00762532737092 L 1368.6481085085982 54.08809432764465 L 1368.8050414864508 54.16927679823499 L 1368.9601707929983 54.251164620962534 L 1369.113480915439 54.33374960711325 L 1369.2649565228887 54.41702349825734 L 1369.4145824679129 54.500977967075094 L 1369.5623437880417 54.58560461818958 L 1369.7082257072661 54.670894989006214 L 1369.8522136375161 54.75684055055899 L 1369.9942931801183 54.84343270836337 L 1370.134450127237 54.93066280327574 L 1370.2726704632942 55.0185221123593 L 1370.4089403663716 55.107001849756344 L 1370.5432462095923 55.196093167566886 L 1370.6755745624841 55.28578715673337 L 1370.8059121923218 55.37607484793163 L 1370.9342460654511 55.46694721246779 L 1371.0605633485918 55.55839516318112 L 1371.1848514101205 55.65040955535275 L 1371.307097821335 55.742981187620146 L 1371.4272903576957 55.83610080289723 L 1371.5454170000492 55.92975908930006 L 1371.66146593583 56.02394668107806 L 1371.7754255602408 56.11865415955053 L 1371.8872844774144 56.213872054048544 L 1371.9970315015523 56.30959084286201 L 1372.1046556580434 56.405800954191804 L 1372.2101461845618 56.50249276710697 L 1372.313492532143 56.5996566125068 L 1372.414684366238 56.69728277408771 L 1372.5137115677478 56.79536148931491 L 1372.6105642340349 56.89388295039859 L 1372.7052326799133 56.99283730527477 L 1372.7977074386172 57.09221465859041 L 1372.8879792627479 57.19200507269298 L 1372.9760391251982 57.29219856862425 L 1373.0618782200554 57.39278512711811 L 1373.1454879634812 57.49375468960253 L 1373.2268599945712 57.59509715920541 L 1373.3059861761901 57.69680240176424 L 1373.3828585957856 57.79886024683951 L 1373.4574695661797 57.90126048873177 L 1373.5298116263377 58.003992887502164 L 1373.599877542114 58.10704716999642 L 1373.667660306975 58.21041303087217 L 1373.733153142701 58.31408013362946 L 1373.796349500063 58.41803811164441 L 1373.8572430594775 58.52227656920584 L 1373.91582773164 58.62678508255487 L 1373.9720976581316 58.731553200927245 L 1374.026047212007 58.83657044759845 L 1374.077670998355 58.94182632093131 L 1374.1269638548408 59.04731029542622 L 1374.1739208522192 59.153011822773635 L 1374.2185372948302 59.25892033290889 L 1374.2608087210663 59.36502523506925 L 1374.30073090382 59.471315918852895 L 1374.3382998509067 59.57778175528004 L 1374.3735118054628 59.684412097855756 L 1374.4063632463221 59.79119628363465 L 1374.4368508883679 59.89812363428712 L 1374.4649716828617 60.005183457167206 L 1374.4907228177472 60.11236504638185 L 1374.5141017179321 60.21965768386144 L 1374.5351060455466 60.327050640431644 L 1374.5537337001747 60.43453317688629 L 1374.569982819067 60.5420945450613 L 1374.583851777325 60.6497239889095 L 1374.5953391880641 60.757410745576195 L 1374.6044439025534 60.86514404647545 L 1374.6111650103285 60.972913118366954 L 1374.6155018392847 61.08070718443333 L 1374.6174539557421 61.188515465357796 M 1374.6175749457982 95.52678387991818 L 1374.6163824858945 95.6345944248348 L 1374.6128052254285 95.74239418878678 L 1374.606843522123 95.85017239188754 L 1374.5984979721438 95.95791825640659 L 1374.5877694100386 96.06562100784727 L 1374.5746589086548 96.1732698760242 L 1374.5591677790314 96.28085409614023 L 1374.5412975702689 96.38836290986303 L 1374.521050069373 96.49578556640084 L 1374.4984273010766 96.60311132357748 L 1374.4734315276382 96.7103294489067 L 1374.4460652486143 96.8174292206653 L 1374.4163312006096 96.92439992896537 L 1374.3842323570045 97.0312308768252 L 1374.3497719276563 97.13791138123905 L 1374.3129533585795 97.24443077424536 L 1374.2737803316004 97.35077840399362 L 1374.2322567639885 97.45694363580944 L 1374.1883868080665 97.56291585325815 L 1374.1421748507933 97.66868445920629 L 1374.0936255133258 97.77423887688141 L 1374.042743650558 97.8795685509297 L 1373.9895343506328 97.98466294847155 L 1373.9340029344366 98.08951156015478 L 1373.8761549550647 98.19410390120557 L 1373.8159961972665 98.29842951247699 L 1373.7535326768677 98.40247796149485 L 1373.6887706401687 98.50623884350097 L 1373.6217165633186 98.60970178249359 L 1373.5523771516696 98.71285643226504 L 1373.4807593391051 98.81569247743631 L 1373.4068702873465 98.91819963448859 L 1373.3307173852372 99.02036765279156 L 1373.2523082480045 99.12218631562857 L 1373.1716507164965 99.22364544121817 L 1373.088752856399 99.32473488373233 L 1373.0036229574291 99.42544453431107 L 1372.9162695325058 99.52576432207324 L 1372.8267013168986 99.62568421512367 L 1372.7349272673544 99.72519422155631 L 1372.640956561202 99.82428439045346 L 1372.5447985954336 99.92294481288079 L 1372.4464629857653 100.02116562287829 L 1372.3459595656766 100.11893699844678 L 1372.2432983854253 100.2162491625302 L 1372.1384897110443 100.31309238399325 L 1372.0315440233135 100.40945697859446 L 1371.9224720167126 100.50533330995468 L 1371.8112845983512 100.60071179052068 L 1371.6979928868786 100.69558288252388 L 1371.5826082113717 100.78993709893413 L 1371.4651421102017 100.88376500440843 L 1371.3456063298809 100.97705721623441 L 1371.2240128238875 101.06980440526866 L 1371.1003737514711 101.16199729686952 L 1370.9747014764357 101.25362667182469 L 1370.8470085659042 101.34468336727302 L 1370.7173077890614 101.43515827762084 L 1370.5856121158763 101.52504235545253 L 1370.451934715807 101.61432661243519 L 1370.3162889564821 101.70300212021755 L 1370.1786884023643 101.7910600113227 L 1370.0391468133944 101.87849148003492 L 1369.8976781436152 101.9652877832802 L 1369.7542965397754 102.05144024150056 L 1369.609016339916 102.13694023952193 L 1369.4618520719364 102.22177922741581 L 1369.3128184521402 102.30594872135407 L 1369.1619303837654 102.38944030445748 L 1369.009202955493 102.47224562763729 L 1368.8546514399386 102.5543564104302 L 1368.698291292125 102.63576444182635 L 1368.540138147937 102.71646158109044 L 1368.3802078225567 102.79643975857579 L 1368.2185163088834 102.8756909765313 L 1368.055079775934 102.95420730990122 L 1367.8899145672256 103.03198090711763 L 1367.7230371991413 103.10900399088564 L 1367.5544643592789 103.18526885896105 L 1367.3842129047816 103.2607678849206 L 1367.2122998606535 103.33549351892461 L 1367.0387424180556 103.40943828847196 L 1366.8635579325871 103.48259479914732 L 1366.686763922551 103.55495573536056 L 1366.508378067201 103.6265138610784 L 1366.3284182049738 103.69726202054787 L 1366.1469023317056 103.76719313901197 L 1365.9638485988328 103.83630022341715 L 1365.7792753115757 103.90457636311257 L 1365.5932009271096 103.97201473054113 L 1365.4056440527177 104.03860858192229 L 1365.216623443931 104.10435125792642 L 1365.0261580026531 104.1692361843407 L 1364.8342667752693 104.23325687272656 L 1364.6409689507425 104.29640692106851 L 1364.446283858694 104.35868001441433 L 1364.2502309674708 104.4200699255066 L 1364.0528298821987 104.48057051540535 L 1363.8541003428215 104.54017573410202 L 1363.6540622221278 104.5988796211244 L 1363.4527355237628 104.65667630613272 L 1363.2501403802287 104.71356000950664 L 1363.046297050871 104.7695250429232 L 1362.8412259198526 104.82456580992574 L 1362.634947494116 104.87867680648341 L 1362.4274824013316 104.93185262154162 L 1362.218851387836 104.98408793756322 L 1362.0090753165564 105.0353775310601 L 1361.7981751649254 105.08571627311568 L 1361.5861720227824 105.13509912989768 L 1361.3730870902648 105.1835211631616 L 1361.1589416756883 105.23097753074444 L 1360.943757193416 105.27746348704899 L 1360.727555161717 105.32297438351839 L 1360.5103572006137 105.36750566910086 L 1360.2921850297216 105.41105289070501 L 1360.0730604660762 105.45361169364494 L 1359.853005421951 105.49517782207583 L 1359.6320419026667 105.53574711941947 L 1359.4101920043918 105.57531552877992 L 1359.1874779119307 105.61387909334925 L 1358.9639218965074 105.65143395680312 L 1358.7395463135367 105.68797636368647 L 1358.5143736003904 105.72350265978909 L 1358.288426274152 105.75800929251095 L 1358.061726929366 105.79149281121755 L 1357.8342982357774 105.82394986758491 L 1357.6061629360668 105.85537721593445 L 1357.3773438435733 105.88577171355752 L 1357.147863840016 105.9151303210297 L 1356.917745873204 105.94345010251467 L 1356.687012954742 105.97072822605791 L 1356.4556881577296 105.99696196386981 L 1356.2237946144537 106.02214869259844 L 1355.9913555140756 106.04628589359189 L 1355.7583941003115 106.0693711531502 L 1355.5249336691086 106.09140216276666 L 1355.2909975663156 106.11237671935864 L 1355.0566091853477 106.13229272548797 L 1354.8217919648478 106.15114818957065 L 1354.586569386342 106.16894122607596 L 1354.3509649718924 106.1856700557151 L 1354.1150022817442 106.20133300561903 L 1353.8787049119694 106.21592850950582 L 1353.6420964921083 106.22945510783724 L 1353.4052006828058 106.24191144796474 L 1353.1680411734453 106.25329628426466 L 1352.9306416797801 106.2636084782629 L 1352.6930259415617 106.2728469987486 L 1352.455217720166 106.28101092187747 L 1352.217240796217 106.28809943126396 L 1351.9791189672087 106.29411181806304 L 1351.7408760451253 106.29904748104106 L 1351.502535854061 106.30290592663582 L 1351.264122227836 106.30568676900597 L 1351.0256590076144 106.30738973006962 L 1350.7871700395192 106.30801463953205 L 1350.5486791722487 106.30756143490284 L 1350.310210254691 106.3060301615021 L 1350.0717871335387 106.30342097245587 L 1349.8334336509056 106.29973412868088 L 1349.5951736419413 106.29496999885845 L 1349.357030932448 106.28912905939758 L 1349.1190293364982 106.28221189438736 L 1348.8811926540534 106.27421919553852 L 1348.6435446685834 106.26515176211427 L 1348.406109144689 106.25501050085043 L 1348.1689098257243 106.24379642586464 L 1347.931970431424 106.23151065855508 L 1347.6953146555295 106.21815442748823 L 1347.4589661634218 106.20372906827606 L 1347.2229485897528 106.1882360234425 L 1346.9872855360832 106.17167684227908 L 1346.7520005685221 106.15405318069014 L 1346.51711721537 106.13536680102716 L 1346.2826589647668 106.11561957191253 L 1346.0486492623418 106.09481346805269 L 1345.8151115088706 106.0729505700407 L 1345.5820690579335 106.05003306414814 L 1345.349545213582 106.0260632421065 L 1345.117563228006 106.00104350087803 L 1344.8861462992113 105.97497634241597 L 1344.655317568698 105.94786437341445 L 1344.4251001191462 105.9197103050478 L 1344.1955169721098 105.89051695269937 L 1343.9665910857116 105.86028723568009 L 1343.7383453523496 105.82902417693644 L 1343.5108025964068 105.79673090274827 L 1343.2839855719697 105.76341064241608 L 1343.057916960551 105.72906672793813 L 1342.832619368824 105.69370259367726 L 1342.6081153263601 105.6573217760174 L 1342.3844272833762 105.61992791301003 L 1342.1615776084902 105.58152474401028 L 1341.9395885864842 105.54211610930304 L 1341.718482416075 105.50170594971894 L 1341.4982812076958 105.46029830624026 L 1341.2790069812834 105.41789731959686 L 1341.0606816640782 105.37450722985206 L 1340.84332708843 105.33013237597868 L 1340.6269649896149 105.28477719542511 L 1340.4116170036625 105.23844622367163 L 1340.1973046651922 105.1911440937768 L 1339.9840494052592 105.14287553591419 L 1339.7718725492116 105.09364537689936 L 1339.5607953145584 105.0434585397072 L 1339.3508388088471 104.99232004297959 L 1339.1420240275531 104.9402350005236 L 1338.9343718519808 104.88720862080007 L 1338.7279030471746 104.83324620640276 L 1338.522638259843 104.77835315352817 L 1338.3185980162934 104.72253495143585 L 1338.1158027203805 104.66579718189945 L 1337.914272651465 104.60814551864868 L 1337.714027962385 104.54958572680184 L 1337.5150886774436 104.49012366228926 L 1337.3174746904028 104.42976527126788 L 1337.1212057624969 104.36851658952648 L 1336.9263015204551 104.30638374188221 L 1336.732781454539 104.24337294156805 L 1336.5406649165943 104.17949048961154 L 1336.3499711181146 104.11474277420461 L 1336.1607191283206 104.04913627006486 L 1335.9729278722536 103.98267753778805 L 1335.786616128883 103.91537322319199 L 1335.6018025292276 103.84723005665208 L 1335.4185055544935 103.77825485242818 L 1335.2367435342253 103.70845450798322 L 1335.0565346444737 103.63783600329349 L 1334.8778969059774 103.56640640015061 L 1334.7008481823616 103.49417284145538 L 1334.5254061783507 103.42114255050346 L 1334.3515884379992 103.3473228302631 L 1334.1794123429363 103.27272106264479 L 1334.0088951106281 103.19734470776314 L 1333.8400537926555 103.1212013031908 L 1333.6729052730095 103.04429846320481 L 1333.507466266403 102.96664387802507 L 1333.343753316599 102.88824531304537 L 1333.1817827947557 102.8091106080569 L 1333.0215708977903 102.72924767646418 L 1332.8631336467593 102.64866450449387 L 1332.7064868852556 102.56736915039596 L 1332.5516462778246 102.48536974363815 L 1332.3986273083983 102.40267448409276 L 1332.247445278746 102.31929164121684 L 1332.0981153069447 102.2352295532252 L 1331.9506523258672 102.15049662625658 L 1331.8050710816888 102.06510133353308 L 1331.6613861324122 101.97905221451278 L 1331.519611846413 101.89235787403591 L 1331.3797624010015 101.80502698146424 L 1331.2418517810058 101.71706826981428 L 1331.1058937773728 101.62849053488388 L 1330.9719019857898 101.53930263437272 L 1330.839889805324 101.44951348699652 L 1330.7098704370837 101.35913207159521 L 1330.5818568828972 101.26816742623502 L 1330.4558619440133 101.17662864730465 L 1330.331898219821 101.08452488860574 L 1330.2099781065892 100.9918653604374 L 1330.0901137962278 100.89865932867522 L 1329.9723172750678 100.80491611384473 L 1329.8566003226633 100.71064509018925 L 1329.7429745106133 100.61585568473262 L 1329.6314512014037 100.5205573763364 L 1329.5220415472731 100.424759694752 L 1329.4147564890955 100.32847221966773 L 1329.3096067552872 100.2317045797509 L 1329.2066028607342 100.13446645168483 L 1329.10575510574 100.03676755920131 L 1329.0070735749957 99.93861767210817 L 1328.910568136573 99.84002660531232 L 1328.8162484409343 99.7410042178383 L 1328.7241239199714 99.64156041184232 L 1328.634203786059 99.54170513162211 L 1328.5464970311361 99.4414483626225 L 1328.461012425805 99.34080013043682 L 1328.3777585184546 99.23977049980442 L 1328.2967436344068 99.13836957360418 L 1328.217975875082 99.03660749184422 L 1328.1414631171906 98.9344944306479 L 1328.067213011945 98.83204060123627 L 1327.9952329842931 98.72925624890688 L 1327.9255302321785 98.6261516520093 L 1327.858111725818 98.52273712091731 L 1327.792984207006 98.41902299699785 L 1327.73015418844 98.31501965157686 L 1327.66962795307 98.21073748490224 L 1327.6114115534685 98.10618692510373 L 1327.5555108112271 98.0013784271502 L 1327.5019313163737 97.89632247180411 L 1327.450678426813 97.79102956457344 L 1327.401757267791 97.68551023466115 L 1327.3551727313834 97.57977503391233 L 1327.3109294760043 97.47383453575894 L 1327.269031925943 97.3676993341625 L 1327.229484270919 97.2613800425547 L 1327.1922904656656 97.15488729277617 L 1327.1574542295316 97.04823173401307 L 1327.124979046112 96.94142403173245 L 1327.094868162898 96.8344748666155 L 1327.0671245909527 96.72739493348962 L 1327.0417511046103 96.6201949402589 L 1327.0187502411984 96.51288560683331 L 1326.998124300784 96.40547766405678 L 1326.9798753459438 96.29798185263407 L 1326.9640052015584 96.19040892205675 L 1326.9505154546289 96.08276962952824 L 1326.9394074541187 95.9750747388881 L 1326.9306823108186 95.86733501953563 L 1326.9243408972357 95.75956124535298 L 1326.920383847506 95.65176419362778 L 1326.9188115573313 95.54395464397535" stroke-miterlimit="10" stroke-width="2.7769845610000004" stroke-dasharray=""/></g><g><g/><text fill="black" stroke="none" font-family="sans-serif" font-size="11pt" font-style="normal" font-weight="normal" text-decoration="normal" x="1290.87556948522" y="123.83569119881818" text-anchor="start" dominant-baseline="alphabetic" xml:space="preserve">Amenity Database</text></g></g><g><path fill="white" stroke="black" paint-order="fill stroke markers" d=" M 390.6982429249349 182.64242307881818 L 407.0334462249349 182.64242307881818 L 407.0334462249349 546.9174566688182 L 390.6982429249349 546.9174566688182 L 390.6982429249349 182.64242307881818" stroke-miterlimit="10" stroke-width="1.3612669416666667" stroke-dasharray=""/><path fill="white" stroke="black" paint-order="fill stroke markers" d=" M 957.7620439193358 274.1195615588182 L 974.0972472193359 274.1195615588182 L 974.0972472193359 1045.141157318818 L 957.7620439193358 1045.141157318818 L 957.7620439193358 274.1195615588182" stroke-miterlimit="10" stroke-width="1.3612669416666667" stroke-dasharray=""/><path fill="white" stroke="black" paint-order="fill stroke markers" d=" M 1181.9740887911457 319.8581307988182 L 1198.3092920911458 319.8581307988182 L 1198.3092920911458 636.7610748188182 L 1181.9740887911457 636.7610748188182 L 1181.9740887911457 319.8581307988182" stroke-miterlimit="10" stroke-width="1.3612669416666667" stroke-dasharray=""/><path fill="white" stroke="black" paint-order="fill stroke markers" d=" M 1342.600576477798 682.4996440588181 L 1358.9357797777982 682.4996440588181 L 1358.9357797777982 909.558969928818 L 1342.600576477798 909.558969928818 L 1342.600576477798 682.4996440588181" stroke-miterlimit="10" stroke-width="1.3612669416666667" stroke-dasharray=""/><path fill="white" stroke="black" paint-order="fill stroke markers" d=" M 390.6982429249349 1231.362474938818 L 407.0334462249349 1231.362474938818 L 407.0334462249349 1595.6375085288184 L 390.6982429249349 1595.6375085288184 L 390.6982429249349 1231.362474938818" stroke-miterlimit="10" stroke-width="1.3612669416666667" stroke-dasharray=""/><path fill="white" stroke="black" paint-order="fill stroke markers" d=" M 957.7620439193358 1322.839613418818 L 974.0972472193359 1322.839613418818 L 974.0972472193359 2093.8612091788186 L 957.7620439193358 2093.8612091788186 L 957.7620439193358 1322.839613418818" stroke-miterlimit="10" stroke-width="1.3612669416666667" stroke-dasharray=""/><path fill="white" stroke="black" paint-order="fill stroke markers" d=" M 1181.9740887911457 1368.5781826588182 L 1198.3092920911458 1368.5781826588182 L 1198.3092920911458 1685.4811266788186 L 1181.9740887911457 1685.4811266788186 L 1181.9740887911457 1368.5781826588182" stroke-miterlimit="10" stroke-width="1.3612669416666667" stroke-dasharray=""/><path fill="white" stroke="black" paint-order="fill stroke markers" d=" M 1342.600576477798 1731.2196959188186 L 1358.9357797777982 1731.2196959188186 L 1358.9357797777982 1958.279021788819 L 1342.600576477798 1958.279021788819 L 1342.600576477798 1731.2196959188186" stroke-miterlimit="10" stroke-width="1.3612669416666667" stroke-dasharray=""/><g><text fill="black" stroke="none" font-family="sans-serif" font-size="16pt" font-style="normal" font-weight="normal" text-decoration="normal" x="677.1740341186523" y="24.651306798181814" text-anchor="start" dominant-baseline="alphabetic" xml:space="preserve">Amenities</text></g><g><rect fill="white" stroke="none" x="141.26735872166668" y="161.4066587888182" width="198.00714363160156" height="21.23576429"/><text fill="black" stroke="none" font-family="sans-serif" font-size="11pt" font-style="normal" font-weight="normal" text-decoration="normal" x="143.71763921666667" y="176.10834175881817" text-anchor="start" dominant-baseline="alphabetic" xml:space="preserve">(1) Request to view amenities</text></g><g><path fill="none" stroke="black" paint-order="fill stroke markers" d=" M 89.84361815 182.64242307881818 L 377.24892554126825 182.64242307881818" stroke-miterlimit="10" stroke-width="1.3612669416666667" stroke-dasharray=""/><g transform="translate(390.6982429249349,182.64242307881818) translate(-390.6982429249349,-182.64242307881818)"><path fill="black" stroke="none" paint-order="stroke fill markers" d=" M 377.0855735082682 175.83608837048484 L 390.6982429249349 182.64242307881818 L 377.0855735082682 189.44875778715152 Z"/></g></g><g><rect fill="white" stroke="none" x="436.5567046188671" y="207.1452280288182" width="207.77806343140625" height="21.23576429"/><text fill="black" stroke="none" font-family="sans-serif" font-size="11pt" font-style="normal" font-weight="normal" text-decoration="normal" x="439.00698511386713" y="221.84691099881817" text-anchor="start" dominant-baseline="alphabetic" xml:space="preserve">(2) Request for list of amenities</text></g><g><path fill="none" stroke="black" paint-order="fill stroke markers" d=" M 407.0334462249349 228.3809923188182 L 660.4087090605391 228.3809923188182" stroke-miterlimit="10" stroke-width="1.3612669416666667" stroke-dasharray=""/><g transform="translate(673.8580264442057,228.3809923188182) translate(-673.8580264442057,-228.3809923188182)"><path fill="black" stroke="none" paint-order="stroke fill markers" d=" M 660.2453570275391 221.57465761048485 L 673.8580264442057 228.3809923188182 L 660.2453570275391 235.18732702715153 Z"/></g></g><g><rect fill="white" stroke="none" x="697.2646085075716" y="252.88379726881823" width="237.09085334839844" height="21.23576429"/><text fill="black" stroke="none" font-family="sans-serif" font-size="11pt" font-style="normal" font-weight="normal" text-decoration="normal" x="699.7148890025716" y="267.5854802388182" text-anchor="start" dominant-baseline="alphabetic" xml:space="preserve">(3) Route to Amenities Microservice</text></g><g><path fill="none" stroke="black" paint-order="fill stroke markers" d=" M 673.8580264442057 274.1195615588182 L 944.3127265356692 274.1195615588182" stroke-miterlimit="10" stroke-width="1.3612669416666667" stroke-dasharray=""/><g transform="translate(957.7620439193358,274.1195615588182) translate(-957.7620439193358,-274.1195615588182)"><path fill="black" stroke="none" paint-order="stroke fill markers" d=" M 944.1493745026692 267.31322685048485 L 957.7620439193358 274.1195615588182 L 944.1493745026692 280.92589626715153 Z"/></g></g><g><rect fill="white" stroke="none" x="997.5038292827019" y="298.6223665088182" width="161.06367744507813" height="21.23576429"/><text fill="black" stroke="none" font-family="sans-serif" font-size="11pt" font-style="normal" font-weight="normal" text-decoration="normal" x="999.9541097777019" y="313.32404947881815" text-anchor="start" dominant-baseline="alphabetic" xml:space="preserve">(4) Validate permissions</text></g><g><path fill="none" stroke="black" paint-order="fill stroke markers" d=" M 974.0972472193359 319.8581307988182 L 1168.524771407479 319.8581307988182" stroke-miterlimit="10" stroke-width="1.3612669416666667" stroke-dasharray=""/><g transform="translate(1181.9740887911457,319.8581307988182) translate(-1181.9740887911457,-319.8581307988182)"><path fill="black" stroke="none" paint-order="stroke fill markers" d=" M 1168.361419374479 313.05179609048486 L 1181.9740887911457 319.8581307988182 L 1168.361419374479 326.66446550715153 Z"/></g></g><g><rect fill="white" stroke="none" x="1006.7307274760612" y="388.4659846588182" width="142.60988105835938" height="21.23576429"/><text fill="black" stroke="none" font-family="sans-serif" font-size="11pt" font-style="normal" font-weight="normal" text-decoration="normal" x="1009.1810079710613" y="403.16766762881815" text-anchor="start" dominant-baseline="alphabetic" xml:space="preserve">(5) Return 403 status</text></g><g><path fill="none" stroke="black" paint-order="fill stroke markers" d=" M 1181.9740887911457 409.7017489488182 L 987.5465646030026 409.7017489488182" stroke-miterlimit="10" stroke-width="1.3612669416666667" stroke-dasharray="6.53408132"/><g transform="translate(974.0972472193359,409.7017489488182) translate(-974.0972472193359,-409.7017489488182)"><path fill="black" stroke="none" paint-order="stroke fill markers" d=" M 987.7099166360026 402.89541424048485 L 974.0972472193359 409.7017489488182 L 987.7099166360026 416.50808365715153 Z"/></g></g><g><rect fill="white" stroke="none" x="746.1371671013216" y="434.2045538988182" width="139.34573616089844" height="21.23576429"/><text fill="black" stroke="none" font-family="sans-serif" font-size="11pt" font-style="normal" font-weight="normal" text-decoration="normal" x="748.5874475963216" y="448.90623686881816" text-anchor="start" dominant-baseline="alphabetic" xml:space="preserve">(6) Return response </text></g><g><path fill="none" stroke="black" paint-order="fill stroke markers" d=" M 957.7620439193358 455.4403181888182 L 687.3073438278724 455.4403181888182" stroke-miterlimit="10" stroke-width="1.3612669416666667" stroke-dasharray="6.53408132"/><g transform="translate(673.8580264442057,455.4403181888182) translate(-673.8580264442057,-455.4403181888182)"><path fill="black" stroke="none" paint-order="stroke fill markers" d=" M 687.4706958608724 448.63398348048486 L 673.8580264442057 455.4403181888182 L 687.4706958608724 462.24665289715153 Z"/></g></g><g><rect fill="white" stroke="none" x="470.772868254121" y="479.9431231388182" width="139.34573616089844" height="21.23576429"/><text fill="black" stroke="none" font-family="sans-serif" font-size="11pt" font-style="normal" font-weight="normal" text-decoration="normal" x="473.22314874912104" y="494.64480610881816" text-anchor="start" dominant-baseline="alphabetic" xml:space="preserve">(7) Return response </text></g><g><path fill="none" stroke="black" paint-order="fill stroke markers" d=" M 673.8580264442057 501.1788874288182 L 420.48276360860154 501.1788874288182" stroke-miterlimit="10" stroke-width="1.3612669416666667" stroke-dasharray="6.53408132"/><g transform="translate(407.0334462249349,501.1788874288182) translate(-407.0334462249349,-501.1788874288182)"><path fill="black" stroke="none" paint-order="stroke fill markers" d=" M 420.64611564160157 494.37255272048486 L 407.0334462249349 501.1788874288182 L 420.64611564160157 507.98522213715154 Z"/></g></g><g><rect fill="white" stroke="none" x="117.73839754002604" y="525.6816923788182" width="245.06506599488281" height="21.23576429"/><text fill="black" stroke="none" font-family="sans-serif" font-size="11pt" font-style="normal" font-weight="normal" text-decoration="normal" x="120.18867803502604" y="540.3833753488182" text-anchor="start" dominant-baseline="alphabetic" xml:space="preserve">(8) Display error "Permission denied"</text></g><g><path fill="none" stroke="black" paint-order="fill stroke markers" d=" M 390.6982429249349 546.9174566688182 L 103.29293553366666 546.9174566688182" stroke-miterlimit="10" stroke-width="1.3612669416666667" stroke-dasharray="6.53408132"/><g transform="translate(89.84361815,546.9174566688182) translate(-89.84361815,-546.9174566688182)"><path fill="black" stroke="none" paint-order="stroke fill markers" d=" M 103.45628756666666 540.1111219604849 L 89.84361815 546.9174566688182 L 103.45628756666666 553.7237913771515 Z"/></g></g><g><rect fill="white" stroke="none" x="1014.0750420512566" y="615.5253105288182" width="127.92125190796875" height="21.23576429"/><text fill="black" stroke="none" font-family="sans-serif" font-size="11pt" font-style="normal" font-weight="normal" text-decoration="normal" x="1016.5253225462566" y="630.2269934988182" text-anchor="start" dominant-baseline="alphabetic" xml:space="preserve">(5) Return success</text></g><g><path fill="none" stroke="black" paint-order="fill stroke markers" d=" M 1181.9740887911457 636.7610748188182 L 987.5465646030026 636.7610748188182" stroke-miterlimit="10" stroke-width="1.3612669416666667" stroke-dasharray="6.53408132"/><g transform="translate(974.0972472193359,636.7610748188182) translate(-974.0972472193359,-636.7610748188182)"><path fill="black" stroke="none" paint-order="stroke fill markers" d=" M 987.7099166360026 629.9547401104849 L 974.0972472193359 636.7610748188182 L 987.7099166360026 643.5674095271515 Z"/></g></g><g><rect fill="white" stroke="none" x="1080.9451935483912" y="661.2638797688181" width="154.80743660035156" height="21.23576429"/><text fill="black" stroke="none" font-family="sans-serif" font-size="11pt" font-style="normal" font-weight="normal" text-decoration="normal" x="1083.3954740433912" y="675.9655627388181" text-anchor="start" dominant-baseline="alphabetic" xml:space="preserve">(6) Query for amenities</text></g><g><path fill="none" stroke="black" paint-order="fill stroke markers" d=" M 974.0972472193359 682.4996440588181 L 1329.1512590941313 682.4996440588181" stroke-miterlimit="10" stroke-width="1.3612669416666667" stroke-dasharray=""/><g transform="translate(1342.600576477798,682.4996440588181) translate(-1342.600576477798,-682.4996440588181)"><path fill="black" stroke="none" paint-order="stroke fill markers" d=" M 1328.9879070611314 675.6933093504848 L 1342.600576477798 682.4996440588181 L 1328.9879070611314 689.3059787671515 Z"/></g></g><g><rect fill="white" stroke="none" x="1109.4562790586451" y="751.1074979188181" width="97.78526557984375" height="21.23576429"/><text fill="black" stroke="none" font-family="sans-serif" font-size="11pt" font-style="normal" font-weight="normal" text-decoration="normal" x="1111.9065595536451" y="765.8091808888181" text-anchor="start" dominant-baseline="alphabetic" xml:space="preserve">(7) Return null</text></g><g><path fill="none" stroke="black" paint-order="fill stroke markers" d=" M 1342.600576477798 772.3432622088181 L 987.5465646030026 772.3432622088181" stroke-miterlimit="10" stroke-width="1.3612669416666667" stroke-dasharray="6.53408132"/><g transform="translate(974.0972472193359,772.3432622088181) translate(-974.0972472193359,-772.3432622088181)"><path fill="black" stroke="none" paint-order="stroke fill markers" d=" M 987.7099166360026 765.5369275004848 L 974.0972472193359 772.3432622088181 L 987.7099166360026 779.1495969171515 Z"/></g></g><g><rect fill="white" stroke="none" x="744.5050946525911" y="796.8460671588181" width="142.60988105835938" height="21.23576429"/><text fill="black" stroke="none" font-family="sans-serif" font-size="11pt" font-style="normal" font-weight="normal" text-decoration="normal" x="746.9553751475911" y="811.547750128818" text-anchor="start" dominant-baseline="alphabetic" xml:space="preserve">(8) Return 404 status</text></g><g><path fill="none" stroke="black" paint-order="fill stroke markers" d=" M 957.7620439193358 818.0818314488181 L 687.3073438278724 818.0818314488181" stroke-miterlimit="10" stroke-width="1.3612669416666667" stroke-dasharray="6.53408132"/><g transform="translate(673.8580264442057,818.0818314488181) translate(-673.8580264442057,-818.0818314488181)"><path fill="black" stroke="none" paint-order="stroke fill markers" d=" M 687.4706958608724 811.2754967404848 L 673.8580264442057 818.0818314488181 L 687.4706958608724 824.8881661571514 Z"/></g></g><g><rect fill="white" stroke="none" x="466.6890674291211" y="842.584636398818" width="139.34573616089844" height="21.23576429"/><text fill="black" stroke="none" font-family="sans-serif" font-size="11pt" font-style="normal" font-weight="normal" text-decoration="normal" x="469.1393479241211" y="857.286319368818" text-anchor="start" dominant-baseline="alphabetic" xml:space="preserve">(9) Return response </text></g><g><path fill="none" stroke="black" paint-order="fill stroke markers" d=" M 673.8580264442057 863.820400688818 L 412.31516195860155 863.820400688818" stroke-miterlimit="10" stroke-width="1.3612669416666667" stroke-dasharray="6.53408132"/><g transform="translate(398.8658445749349,863.820400688818) translate(-398.8658445749349,-863.820400688818)"><path fill="black" stroke="none" paint-order="stroke fill markers" d=" M 412.4785139916016 857.0140659804847 L 398.8658445749349 863.820400688818 L 412.4785139916016 870.6267353971514 Z"/></g></g><g><rect fill="white" stroke="none" x="113.25740954666666" y="888.323205638818" width="262.1946283728125" height="21.23576429"/><text fill="black" stroke="none" font-family="sans-serif" font-size="11pt" font-style="normal" font-weight="normal" text-decoration="normal" x="115.70769004166667" y="903.024888608818" text-anchor="start" dominant-baseline="alphabetic" xml:space="preserve">(10) Display error "Amenities not found"</text></g><g><path fill="none" stroke="black" paint-order="fill stroke markers" d=" M 398.8658445749349 909.558969928818 L 103.29293553366666 909.558969928818" stroke-miterlimit="10" stroke-width="1.3612669416666667" stroke-dasharray="6.53408132"/><g transform="translate(89.84361815,909.558969928818) translate(-89.84361815,-909.558969928818)"><path fill="black" stroke="none" paint-order="stroke fill markers" d=" M 103.45628756666666 902.7526352204846 L 89.84361815 909.558969928818 L 103.45628756666666 916.3653046371513 Z"/></g></g><g><rect fill="white" stroke="none" x="1077.2766674080592" y="978.166823788818" width="170.31209053101563" height="21.23576429"/><text fill="black" stroke="none" font-family="sans-serif" font-size="11pt" font-style="normal" font-weight="normal" text-decoration="normal" x="1079.7269479030592" y="992.868506758818" text-anchor="start" dominant-baseline="alphabetic" xml:space="preserve">(7) Return amenities data</text></g><g><path fill="none" stroke="black" paint-order="fill stroke markers" d=" M 1350.7681781277981 999.402588078818 L 987.5465646030026 999.402588078818" stroke-miterlimit="10" stroke-width="1.3612669416666667" stroke-dasharray="6.53408132"/><g transform="translate(974.0972472193359,999.402588078818) translate(-974.0972472193359,-999.402588078818)"><path fill="black" stroke="none" paint-order="stroke fill markers" d=" M 987.7099166360026 992.5962533704846 L 974.0972472193359 999.402588078818 L 987.7099166360026 1006.2089227871513 Z"/></g></g><g><rect fill="white" stroke="none" x="744.5050946525911" y="1023.9053930288179" width="142.60988105835938" height="21.23576429"/><text fill="black" stroke="none" font-family="sans-serif" font-size="11pt" font-style="normal" font-weight="normal" text-decoration="normal" x="746.9553751475911" y="1038.607075998818" text-anchor="start" dominant-baseline="alphabetic" xml:space="preserve">(8) Return 200 status</text></g><g><path fill="none" stroke="black" paint-order="fill stroke markers" d=" M 957.7620439193358 1045.141157318818 L 687.3073438278724 1045.141157318818" stroke-miterlimit="10" stroke-width="1.3612669416666667" stroke-dasharray="6.53408132"/><g transform="translate(673.8580264442057,1045.141157318818) translate(-673.8580264442057,-1045.141157318818)"><path fill="black" stroke="none" paint-order="stroke fill markers" d=" M 687.4706958608724 1038.3348226104847 L 673.8580264442057 1045.141157318818 L 687.4706958608724 1051.9474920271512 Z"/></g></g><g><rect fill="white" stroke="none" x="440.2109180150586" y="1069.643962268818" width="192.30203498902344" height="21.23576429"/><text fill="black" stroke="none" font-family="sans-serif" font-size="11pt" font-style="normal" font-weight="normal" text-decoration="normal" x="442.6611985100586" y="1084.3456452388182" text-anchor="start" dominant-baseline="alphabetic" xml:space="preserve">(9) Return success response</text></g><g><path fill="none" stroke="black" paint-order="fill stroke markers" d=" M 673.8580264442057 1090.879726558818 L 412.31516195860155 1090.879726558818" stroke-miterlimit="10" stroke-width="1.3612669416666667" stroke-dasharray="6.53408132"/><g transform="translate(398.8658445749349,1090.879726558818) translate(-398.8658445749349,-1090.879726558818)"><path fill="black" stroke="none" paint-order="stroke fill markers" d=" M 412.4785139916016 1084.0733918504848 L 398.8658445749349 1090.879726558818 L 412.4785139916016 1097.6860612671512 Z"/></g></g><g><rect fill="white" stroke="none" x="158.39698169022137" y="1115.3825315088181" width="171.9154993444922" height="21.23576429"/><text fill="black" stroke="none" font-family="sans-serif" font-size="11pt" font-style="normal" font-weight="normal" text-decoration="normal" x="160.84726218522135" y="1130.0842144788182" text-anchor="start" dominant-baseline="alphabetic" xml:space="preserve">(10) Display amenities list</text></g><g><path fill="none" stroke="black" paint-order="fill stroke markers" d=" M 398.8658445749349 1136.618295798818 L 103.29293553366666 1136.618295798818" stroke-miterlimit="10" stroke-width="1.3612669416666667" stroke-dasharray="6.53408132"/><g transform="translate(89.84361815,1136.618295798818) translate(-89.84361815,-1136.618295798818)"><path fill="black" stroke="none" paint-order="stroke fill markers" d=" M 103.45628756666666 1129.8119610904848 L 89.84361815 1136.618295798818 L 103.45628756666666 1143.4246305071513 Z"/></g></g><g><rect fill="white" stroke="none" x="112.47352785008464" y="1210.126710648818" width="255.59480537476563" height="21.23576429"/><text fill="black" stroke="none" font-family="sans-serif" font-size="11pt" font-style="normal" font-weight="normal" text-decoration="normal" x="114.92380834508464" y="1224.8283936188182" text-anchor="start" dominant-baseline="alphabetic" xml:space="preserve">(11) Request to view specified amenity</text></g><g><path fill="none" stroke="black" paint-order="fill stroke markers" d=" M 89.84361815 1231.362474938818 L 377.24892554126825 1231.362474938818" stroke-miterlimit="10" stroke-width="1.3612669416666667" stroke-dasharray=""/><g transform="translate(390.6982429249349,1231.362474938818) translate(-390.6982429249349,-1231.362474938818)"><path fill="black" stroke="none" paint-order="stroke fill markers" d=" M 377.0855735082682 1224.5561402304847 L 390.6982429249349 1231.362474938818 L 377.0855735082682 1238.1688096471512 Z"/></g></g><g><rect fill="white" stroke="none" x="426.3634367966015" y="1255.8652798888181" width="228.1645990759375" height="21.23576429"/><text fill="black" stroke="none" font-family="sans-serif" font-size="11pt" font-style="normal" font-weight="normal" text-decoration="normal" x="428.8137172916015" y="1270.5669628588182" text-anchor="start" dominant-baseline="alphabetic" xml:space="preserve">(12) Request for specified amenity</text></g><g><path fill="none" stroke="black" paint-order="fill stroke markers" d=" M 407.0334462249349 1277.101044178818 L 660.4087090605391 1277.101044178818" stroke-miterlimit="10" stroke-width="1.3612669416666667" stroke-dasharray=""/><g transform="translate(673.8580264442057,1277.101044178818) translate(-673.8580264442057,-1277.101044178818)"><path fill="black" stroke="none" paint-order="stroke fill markers" d=" M 660.2453570275391 1270.2947094704848 L 673.8580264442057 1277.101044178818 L 660.2453570275391 1283.9073788871513 Z"/></g></g><g><rect fill="white" stroke="none" x="693.1880170158723" y="1301.6038491288182" width="245.24403633179688" height="21.23576429"/><text fill="black" stroke="none" font-family="sans-serif" font-size="11pt" font-style="normal" font-weight="normal" text-decoration="normal" x="695.6382975108723" y="1316.3055320988183" text-anchor="start" dominant-baseline="alphabetic" xml:space="preserve">(13) Route to Amenities Microservice</text></g><g><path fill="none" stroke="black" paint-order="fill stroke markers" d=" M 673.8580264442057 1322.839613418818 L 944.3127265356692 1322.839613418818" stroke-miterlimit="10" stroke-width="1.3612669416666667" stroke-dasharray=""/><g transform="translate(957.7620439193358,1322.839613418818) translate(-957.7620439193358,-1322.839613418818)"><path fill="black" stroke="none" paint-order="stroke fill markers" d=" M 944.1493745026692 1316.0332787104849 L 957.7620439193358 1322.839613418818 L 944.1493745026692 1329.6459481271513 Z"/></g></g><g><rect fill="white" stroke="none" x="993.4272377910027" y="1347.3424183688182" width="169.21686042847656" height="21.23576429"/><text fill="black" stroke="none" font-family="sans-serif" font-size="11pt" font-style="normal" font-weight="normal" text-decoration="normal" x="995.8775182860027" y="1362.0441013388183" text-anchor="start" dominant-baseline="alphabetic" xml:space="preserve">(14) Validate permissions</text></g><g><path fill="none" stroke="black" paint-order="fill stroke markers" d=" M 974.0972472193359 1368.5781826588182 L 1168.524771407479 1368.5781826588182" stroke-miterlimit="10" stroke-width="1.3612669416666667" stroke-dasharray=""/><g transform="translate(1181.9740887911457,1368.5781826588182) translate(-1181.9740887911457,-1368.5781826588182)"><path fill="black" stroke="none" paint-order="stroke fill markers" d=" M 1168.361419374479 1361.771847950485 L 1181.9740887911457 1368.5781826588182 L 1168.361419374479 1375.3845173671514 Z"/></g></g><g><rect fill="white" stroke="none" x="1002.654135984362" y="1437.1860365188184" width="150.76306404175781" height="21.23576429"/><text fill="black" stroke="none" font-family="sans-serif" font-size="11pt" font-style="normal" font-weight="normal" text-decoration="normal" x="1005.104416479362" y="1451.8877194888184" text-anchor="start" dominant-baseline="alphabetic" xml:space="preserve">(15) Return 403 status</text></g><g><path fill="none" stroke="black" paint-order="fill stroke markers" d=" M 1181.9740887911457 1458.4218008088183 L 987.5465646030026 1458.4218008088183" stroke-miterlimit="10" stroke-width="1.3612669416666667" stroke-dasharray="6.53408132"/><g transform="translate(974.0972472193359,1458.4218008088183) translate(-974.0972472193359,-1458.4218008088183)"><path fill="black" stroke="none" paint-order="stroke fill markers" d=" M 987.7099166360026 1451.615466100485 L 974.0972472193359 1458.4218008088183 L 987.7099166360026 1465.2281355171515 Z"/></g></g><g><rect fill="white" stroke="none" x="742.0605756096223" y="1482.9246057588184" width="147.49891914429688" height="21.23576429"/><text fill="black" stroke="none" font-family="sans-serif" font-size="11pt" font-style="normal" font-weight="normal" text-decoration="normal" x="744.5108561046223" y="1497.6262887288185" text-anchor="start" dominant-baseline="alphabetic" xml:space="preserve">(16) Return response </text></g><g><path fill="none" stroke="black" paint-order="fill stroke markers" d=" M 957.7620439193358 1504.1603700488183 L 687.3073438278724 1504.1603700488183" stroke-miterlimit="10" stroke-width="1.3612669416666667" stroke-dasharray="6.53408132"/><g transform="translate(673.8580264442057,1504.1603700488183) translate(-673.8580264442057,-1504.1603700488183)"><path fill="black" stroke="none" paint-order="stroke fill markers" d=" M 687.4706958608724 1497.354035340485 L 673.8580264442057 1504.1603700488183 L 687.4706958608724 1510.9667047571515 Z"/></g></g><g><rect fill="white" stroke="none" x="466.6962767624218" y="1528.6631749988185" width="147.49891914429688" height="21.23576429"/><text fill="black" stroke="none" font-family="sans-serif" font-size="11pt" font-style="normal" font-weight="normal" text-decoration="normal" x="469.1465572574218" y="1543.3648579688186" text-anchor="start" dominant-baseline="alphabetic" xml:space="preserve">(17) Return response </text></g><g><path fill="none" stroke="black" paint-order="fill stroke markers" d=" M 673.8580264442057 1549.8989392888184 L 420.48276360860154 1549.8989392888184" stroke-miterlimit="10" stroke-width="1.3612669416666667" stroke-dasharray="6.53408132"/><g transform="translate(407.0334462249349,1549.8989392888184) translate(-407.0334462249349,-1549.8989392888184)"><path fill="black" stroke="none" paint-order="stroke fill markers" d=" M 420.64611564160157 1543.0926045804852 L 407.0334462249349 1549.8989392888184 L 420.64611564160157 1556.7052739971516 Z"/></g></g><g><rect fill="white" stroke="none" x="113.66180604832682" y="1574.4017442388185" width="253.21824897828125" height="21.23576429"/><text fill="black" stroke="none" font-family="sans-serif" font-size="11pt" font-style="normal" font-weight="normal" text-decoration="normal" x="116.11208654332682" y="1589.1034272088186" text-anchor="start" dominant-baseline="alphabetic" xml:space="preserve">(18) Display error "Permission denied"</text></g><g><path fill="none" stroke="black" paint-order="fill stroke markers" d=" M 390.6982429249349 1595.6375085288184 L 103.29293553366666 1595.6375085288184" stroke-miterlimit="10" stroke-width="1.3612669416666667" stroke-dasharray="6.53408132"/><g transform="translate(89.84361815,1595.6375085288184) translate(-89.84361815,-1595.6375085288184)"><path fill="black" stroke="none" paint-order="stroke fill markers" d=" M 103.45628756666666 1588.8311738204852 L 89.84361815 1595.6375085288184 L 103.45628756666666 1602.4438432371517 Z"/></g></g><g><rect fill="white" stroke="none" x="1009.9984505595573" y="1664.2453623888186" width="136.0744348913672" height="21.23576429"/><text fill="black" stroke="none" font-family="sans-serif" font-size="11pt" font-style="normal" font-weight="normal" text-decoration="normal" x="1012.4487310545574" y="1678.9470453588187" text-anchor="start" dominant-baseline="alphabetic" xml:space="preserve">(15) Return success</text></g><g><path fill="none" stroke="black" paint-order="fill stroke markers" d=" M 1181.9740887911457 1685.4811266788186 L 987.5465646030026 1685.4811266788186" stroke-miterlimit="10" stroke-width="1.3612669416666667" stroke-dasharray="6.53408132"/><g transform="translate(974.0972472193359,1685.4811266788186) translate(-974.0972472193359,-1685.4811266788186)"><path fill="black" stroke="none" paint-order="stroke fill markers" d=" M 987.7099166360026 1678.6747919704853 L 974.0972472193359 1685.4811266788186 L 987.7099166360026 1692.2874613871518 Z"/></g></g><g><rect fill="white" stroke="none" x="1051.6073410703639" y="1709.9839316288187" width="213.48314155640625" height="21.23576429"/><text fill="black" stroke="none" font-family="sans-serif" font-size="11pt" font-style="normal" font-weight="normal" text-decoration="normal" x="1054.057621565364" y="1724.6856145988188" text-anchor="start" dominant-baseline="alphabetic" xml:space="preserve">(16) Query for specified amenity</text></g><g><path fill="none" stroke="black" paint-order="fill stroke markers" d=" M 974.0972472193359 1731.2196959188186 L 1329.1512590941313 1731.2196959188186" stroke-miterlimit="10" stroke-width="1.3612669416666667" stroke-dasharray=""/><g transform="translate(1342.600576477798,1731.2196959188186) translate(-1342.600576477798,-1731.2196959188186)"><path fill="black" stroke="none" paint-order="stroke fill markers" d=" M 1328.9879070611314 1724.4133612104854 L 1342.600576477798 1731.2196959188186 L 1328.9879070611314 1738.0260306271518 Z"/></g></g><g><rect fill="white" stroke="none" x="1077.6774780942897" y="1799.8275497788188" width="161.3428675085547" height="21.23576429"/><text fill="black" stroke="none" font-family="sans-serif" font-size="11pt" font-style="normal" font-weight="normal" text-decoration="normal" x="1080.1277585892897" y="1814.529232748819" text-anchor="start" dominant-baseline="alphabetic" xml:space="preserve">(17) Return null amenity</text></g><g><path fill="none" stroke="black" paint-order="fill stroke markers" d=" M 1342.600576477798 1821.0633140688187 L 987.5465646030026 1821.0633140688187" stroke-miterlimit="10" stroke-width="1.3612669416666667" stroke-dasharray="6.53408132"/><g transform="translate(974.0972472193359,1821.0633140688187) translate(-974.0972472193359,-1821.0633140688187)"><path fill="black" stroke="none" paint-order="stroke fill markers" d=" M 987.7099166360026 1814.2569793604855 L 974.0972472193359 1821.0633140688187 L 987.7099166360026 1827.869648777152 Z"/></g></g><g><rect fill="white" stroke="none" x="740.4285031608919" y="1845.5661190188189" width="150.76306404175781" height="21.23576429"/><text fill="black" stroke="none" font-family="sans-serif" font-size="11pt" font-style="normal" font-weight="normal" text-decoration="normal" x="742.8787836558919" y="1860.267801988819" text-anchor="start" dominant-baseline="alphabetic" xml:space="preserve">(18) Return 404 status</text></g><g><path fill="none" stroke="black" paint-order="fill stroke markers" d=" M 957.7620439193358 1866.8018833088188 L 687.3073438278724 1866.8018833088188" stroke-miterlimit="10" stroke-width="1.3612669416666667" stroke-dasharray="6.53408132"/><g transform="translate(673.8580264442057,1866.8018833088188) translate(-673.8580264442057,-1866.8018833088188)"><path fill="black" stroke="none" paint-order="stroke fill markers" d=" M 687.4706958608724 1859.9955486004856 L 673.8580264442057 1866.8018833088188 L 687.4706958608724 1873.608218017152 Z"/></g></g><g><rect fill="white" stroke="none" x="462.6124759374219" y="1891.304688258819" width="147.49891914429688" height="21.23576429"/><text fill="black" stroke="none" font-family="sans-serif" font-size="11pt" font-style="normal" font-weight="normal" text-decoration="normal" x="465.0627564324219" y="1906.006371228819" text-anchor="start" dominant-baseline="alphabetic" xml:space="preserve">(19) Return response </text></g><g><path fill="none" stroke="black" paint-order="fill stroke markers" d=" M 673.8580264442057 1912.5404525488188 L 412.31516195860155 1912.5404525488188" stroke-miterlimit="10" stroke-width="1.3612669416666667" stroke-dasharray="6.53408132"/><g transform="translate(398.8658445749349,1912.5404525488188) translate(-398.8658445749349,-1912.5404525488188)"><path fill="black" stroke="none" paint-order="stroke fill markers" d=" M 412.4785139916016 1905.7341178404856 L 398.8658445749349 1912.5404525488188 L 412.4785139916016 1919.346787257152 Z"/></g></g><g><rect fill="white" stroke="none" x="118.96248767166666" y="1937.043257498819" width="250.78448738160156" height="21.23576429"/><text fill="black" stroke="none" font-family="sans-serif" font-size="11pt" font-style="normal" font-weight="normal" text-decoration="normal" x="121.41276816666667" y="1951.744940468819" text-anchor="start" dominant-baseline="alphabetic" xml:space="preserve">(20) Display error "Amenity not found"</text></g><g><path fill="none" stroke="black" paint-order="fill stroke markers" d=" M 398.8658445749349 1958.279021788819 L 103.29293553366666 1958.279021788819" stroke-miterlimit="10" stroke-width="1.3612669416666667" stroke-dasharray="6.53408132"/><g transform="translate(89.84361815,1958.279021788819) translate(-89.84361815,-1958.279021788819)"><path fill="black" stroke="none" paint-order="stroke fill markers" d=" M 103.45628756666666 1951.4726870804857 L 89.84361815 1958.279021788819 L 103.45628756666666 1965.0853564971521 Z"/></g></g><g><rect fill="white" stroke="none" x="1047.9388149300319" y="2026.886875648819" width="228.98779548707031" height="21.23576429"/><text fill="black" stroke="none" font-family="sans-serif" font-size="11pt" font-style="normal" font-weight="normal" text-decoration="normal" x="1050.3890954250319" y="2041.588558618819" text-anchor="start" dominant-baseline="alphabetic" xml:space="preserve">(17) Return specified amenity data</text></g><g><path fill="none" stroke="black" paint-order="fill stroke markers" d=" M 1350.7681781277981 2048.122639938819 L 987.5465646030026 2048.122639938819" stroke-miterlimit="10" stroke-width="1.3612669416666667" stroke-dasharray="6.53408132"/><g transform="translate(974.0972472193359,2048.122639938819) translate(-974.0972472193359,-2048.122639938819)"><path fill="black" stroke="none" paint-order="stroke fill markers" d=" M 987.7099166360026 2041.3163052304856 L 974.0972472193359 2048.122639938819 L 987.7099166360026 2054.9289746471522 Z"/></g></g><g><rect fill="white" stroke="none" x="740.4285031608919" y="2072.6254448888185" width="150.76306404175781" height="21.23576429"/><text fill="black" stroke="none" font-family="sans-serif" font-size="11pt" font-style="normal" font-weight="normal" text-decoration="normal" x="742.8787836558919" y="2087.3271278588186" text-anchor="start" dominant-baseline="alphabetic" xml:space="preserve">(18) Return 200 status</text></g><g><path fill="none" stroke="black" paint-order="fill stroke markers" d=" M 957.7620439193358 2093.8612091788186 L 687.3073438278724 2093.8612091788186" stroke-miterlimit="10" stroke-width="1.3612669416666667" stroke-dasharray="6.53408132"/><g transform="translate(673.8580264442057,2093.8612091788186) translate(-673.8580264442057,-2093.8612091788186)"><path fill="black" stroke="none" paint-order="stroke fill markers" d=" M 687.4706958608724 2087.054874470485 L 673.8580264442057 2093.8612091788186 L 687.4706958608724 2100.667543887152 Z"/></g></g><g><rect fill="white" stroke="none" x="436.1343265233594" y="2118.3640141288183" width="200.45521797242188" height="21.23576429"/><text fill="black" stroke="none" font-family="sans-serif" font-size="11pt" font-style="normal" font-weight="normal" text-decoration="normal" x="438.5846070183594" y="2133.0656970988184" text-anchor="start" dominant-baseline="alphabetic" xml:space="preserve">(19) Return success response</text></g><g><path fill="none" stroke="black" paint-order="fill stroke markers" d=" M 673.8580264442057 2139.5997784188185 L 412.31516195860155 2139.5997784188185" stroke-miterlimit="10" stroke-width="1.3612669416666667" stroke-dasharray="6.53408132"/><g transform="translate(398.8658445749349,2139.5997784188185) translate(-398.8658445749349,-2139.5997784188185)"><path fill="black" stroke="none" paint-order="stroke fill markers" d=" M 412.4785139916016 2132.793443710485 L 398.8658445749349 2139.5997784188185 L 412.4785139916016 2146.406113127152 Z"/></g></g><g><rect fill="white" stroke="none" x="120.90594622879557" y="2164.102583368818" width="246.89757026734375" height="21.23576429"/><text fill="black" stroke="none" font-family="sans-serif" font-size="11pt" font-style="normal" font-weight="normal" text-decoration="normal" x="123.35622672379557" y="2178.8042663388183" text-anchor="start" dominant-baseline="alphabetic" xml:space="preserve">(20) Display specified amenity details</text></g><g><path fill="none" stroke="black" paint-order="fill stroke markers" d=" M 398.8658445749349 2185.3383476588183 L 103.29293553366666 2185.3383476588183" stroke-miterlimit="10" stroke-width="1.3612669416666667" stroke-dasharray="6.53408132"/><g transform="translate(89.84361815,2185.3383476588183) translate(-89.84361815,-2185.3383476588183)"><path fill="black" stroke="none" paint-order="stroke fill markers" d=" M 103.45628756666666 2178.532012950485 L 89.84361815 2185.3383476588183 L 103.45628756666666 2192.1446823671517 Z"/></g></g><g><g/><path fill="none" stroke="black" paint-order="fill stroke markers" d=" M 16.335203300000003 344.3609357488182 L 1424.2765929777981 344.3609357488182 L 1424.2765929777981 1185.623905698818 L 16.335203300000003 1185.623905698818 L 16.335203300000003 344.3609357488182 Z" stroke-miterlimit="10" stroke-width="2.3336004714285714" stroke-dasharray=""/><path fill="white" stroke="black" paint-order="fill stroke markers" d=" M 16.335203300000003 344.3609357488182 L 16.335203300000003 363.9631797088182 L 62.694406897070316 363.9631797088182 L 72.49552887707031 354.1620577288182 L 72.49552887707031 344.3609357488182 L 16.335203300000003 344.3609357488182" stroke-miterlimit="10" stroke-width="2.3336004714285714" stroke-dasharray=""/><text fill="black" stroke="none" font-family="sans-serif" font-size="8.8pt" font-style="normal" font-weight="bold" text-decoration="normal" x="32.67040660000001" y="357.4290983888182" text-anchor="start" dominant-baseline="alphabetic" xml:space="preserve">alt</text><g><rect fill="white" stroke="none" x="86.38045168207032" y="345.6677520128182" width="123.53494514527344" height="16.988611432000003"/></g><text fill="black" stroke="none" font-family="sans-serif" font-size="8.8pt" font-style="normal" font-weight="bold" text-decoration="normal" x="88.83073217707032" y="357.4290983888182" text-anchor="start" dominant-baseline="alphabetic" xml:space="preserve">[Permissions denied]</text><g><path fill="none" stroke="black" paint-order="fill stroke markers" d=" M 16.335203300000003 571.4202616188182 L 1424.2765929777981 571.4202616188182" stroke-miterlimit="10" stroke-width="2.3336004714285714" stroke-dasharray="4.083800825"/></g><g/><g><rect fill="white" stroke="none" x="86.38045168207032" y="572.7270778828182" width="128.746996536875" height="16.988611432000003"/></g><text fill="black" stroke="none" font-family="sans-serif" font-size="8.8pt" font-style="normal" font-weight="bold" text-decoration="normal" x="88.83073217707032" y="584.4884242588182" text-anchor="start" dominant-baseline="alphabetic" xml:space="preserve">[Permissions granted]</text></g><g/><g><g/><path fill="none" stroke="black" paint-order="fill stroke markers" d=" M 32.6704066 707.0024490088182 L 1407.941389677798 707.0024490088182 L 1407.941389677798 1161.121100748818 L 32.6704066 1161.121100748818 L 32.6704066 707.0024490088182 Z" stroke-miterlimit="10" stroke-width="2.3336004714285714" stroke-dasharray=""/><path fill="white" stroke="black" paint-order="fill stroke markers" d=" M 32.6704066 707.0024490088182 L 32.6704066 726.6046929688182 L 79.02961019707031 726.6046929688182 L 88.83073217707032 716.8035709888181 L 88.83073217707032 707.0024490088182 L 32.6704066 707.0024490088182" stroke-miterlimit="10" stroke-width="2.3336004714285714" stroke-dasharray=""/><text fill="black" stroke="none" font-family="sans-serif" font-size="8.8pt" font-style="normal" font-weight="bold" text-decoration="normal" x="49.005609899999996" y="720.0706116488182" text-anchor="start" dominant-baseline="alphabetic" xml:space="preserve">alt</text><g><rect fill="white" stroke="none" x="102.71565498207032" y="708.3092652728182" width="156.09022773804688" height="16.988611432000003"/></g><text fill="black" stroke="none" font-family="sans-serif" font-size="8.8pt" font-style="normal" font-weight="bold" text-decoration="normal" x="105.16593547707032" y="720.0706116488182" text-anchor="start" dominant-baseline="alphabetic" xml:space="preserve">[Amenities were not found]</text><g><path fill="none" stroke="black" paint-order="fill stroke markers" d=" M 32.6704066 934.061774878818 L 1407.941389677798 934.061774878818" stroke-miterlimit="10" stroke-width="2.3336004714285714" stroke-dasharray="4.083800825"/></g><g/><g><rect fill="white" stroke="none" x="102.71565498207032" y="935.368591142818" width="134.59480537476563" height="16.988611432000003"/></g><text fill="black" stroke="none" font-family="sans-serif" font-size="8.8pt" font-style="normal" font-weight="bold" text-decoration="normal" x="105.16593547707032" y="947.129937518818" text-anchor="start" dominant-baseline="alphabetic" xml:space="preserve">[Amenities were found]</text></g><g/><g><g/><path fill="none" stroke="black" paint-order="fill stroke markers" d=" M 16.335203300000003 1393.0809876088183 L 1424.2765929777981 1393.0809876088183 L 1424.2765929777981 2234.3439575588186 L 16.335203300000003 2234.3439575588186 L 16.335203300000003 1393.0809876088183 Z" stroke-miterlimit="10" stroke-width="2.3336004714285714" stroke-dasharray=""/><path fill="white" stroke="black" paint-order="fill stroke markers" d=" M 16.335203300000003 1393.0809876088183 L 16.335203300000003 1412.6832315688182 L 62.694406897070316 1412.6832315688182 L 72.49552887707031 1402.8821095888184 L 72.49552887707031 1393.0809876088183 L 16.335203300000003 1393.0809876088183" stroke-miterlimit="10" stroke-width="2.3336004714285714" stroke-dasharray=""/><text fill="black" stroke="none" font-family="sans-serif" font-size="8.8pt" font-style="normal" font-weight="bold" text-decoration="normal" x="32.67040660000001" y="1406.1491502488182" text-anchor="start" dominant-baseline="alphabetic" xml:space="preserve">alt</text><g><rect fill="white" stroke="none" x="86.38045168207032" y="1394.3878038728183" width="123.53494514527344" height="16.988611432000003"/></g><text fill="black" stroke="none" font-family="sans-serif" font-size="8.8pt" font-style="normal" font-weight="bold" text-decoration="normal" x="88.83073217707032" y="1406.1491502488182" text-anchor="start" dominant-baseline="alphabetic" xml:space="preserve">[Permissions denied]</text><g><path fill="none" stroke="black" paint-order="fill stroke markers" d=" M 16.335203300000003 1620.1403134788186 L 1424.2765929777981 1620.1403134788186" stroke-miterlimit="10" stroke-width="2.3336004714285714" stroke-dasharray="4.083800825"/></g><g/><g><rect fill="white" stroke="none" x="86.38045168207032" y="1621.4471297428186" width="128.746996536875" height="16.988611432000003"/></g><text fill="black" stroke="none" font-family="sans-serif" font-size="8.8pt" font-style="normal" font-weight="bold" text-decoration="normal" x="88.83073217707032" y="1633.2084761188185" text-anchor="start" dominant-baseline="alphabetic" xml:space="preserve">[Permissions granted]</text></g><g/><g><g/><path fill="none" stroke="black" paint-order="fill stroke markers" d=" M 32.6704066 1755.7225008688188 L 1407.941389677798 1755.7225008688188 L 1407.941389677798 2209.8411526088184 L 32.6704066 2209.8411526088184 L 32.6704066 1755.7225008688188 Z" stroke-miterlimit="10" stroke-width="2.3336004714285714" stroke-dasharray=""/><path fill="white" stroke="black" paint-order="fill stroke markers" d=" M 32.6704066 1755.7225008688188 L 32.6704066 1775.3247448288187 L 79.02961019707031 1775.3247448288187 L 88.83073217707032 1765.5236228488188 L 88.83073217707032 1755.7225008688188 L 32.6704066 1755.7225008688188" stroke-miterlimit="10" stroke-width="2.3336004714285714" stroke-dasharray=""/><text fill="black" stroke="none" font-family="sans-serif" font-size="8.8pt" font-style="normal" font-weight="bold" text-decoration="normal" x="49.005609899999996" y="1768.7906635088186" text-anchor="start" dominant-baseline="alphabetic" xml:space="preserve">alt</text><g><rect fill="white" stroke="none" x="102.71565498207032" y="1757.0293171328187" width="116.31251777710938" height="16.988611432000003"/></g><text fill="black" stroke="none" font-family="sans-serif" font-size="8.8pt" font-style="normal" font-weight="bold" text-decoration="normal" x="105.16593547707032" y="1768.7906635088186" text-anchor="start" dominant-baseline="alphabetic" xml:space="preserve">[Amenity not found]</text><g><path fill="none" stroke="black" paint-order="fill stroke markers" d=" M 32.6704066 1982.781826738819 L 1407.941389677798 1982.781826738819" stroke-miterlimit="10" stroke-width="2.3336004714285714" stroke-dasharray="4.083800825"/></g><g/><g><rect fill="white" stroke="none" x="102.71565498207032" y="1984.088643002819" width="94.81709541382813" height="16.988611432000003"/></g><text fill="black" stroke="none" font-family="sans-serif" font-size="8.8pt" font-style="normal" font-weight="bold" text-decoration="normal" x="105.16593547707032" y="1995.849989378819" text-anchor="start" dominant-baseline="alphabetic" xml:space="preserve">[Amenity found]</text></g><g/></g><g/><g/><g/></g></svg>