<svg xmlns="http://www.w3.org/2000/svg" xmlns:xlink="http://www.w3.org/1999/xlink" version="1.1" width="1418.37921387441" height="2108.5628921488187"><desc>title%20Amenities%0A%0Aactor%20Guest%0Aparticipant%20%22Guest%20Front-end%22%20as%20GuestFrontend%0Aparticipant%20NGINX%0Aparticipant%20%22Amenities%20Microservice%22%20as%20AmenitiesService%0Aparticipant%20%22Permission%20Validator%22%20as%20PermissionValidator%0Adatabase%20Amenity%20Database%0A%0AGuest%20-%3E%20GuestFrontend%20%3A%20(1)%20Request%20to%20view%20amenities%0Aactivate%20GuestFrontend%0AGuestFrontend%20-%3E%20NGINX%20%3A%20(2)%20Request%20for%20list%20of%20amenities%0A%0ANGINX%20-%3E%20PermissionValidator%20%3A%20(3)%20Validate%20permissions%0Aactivate%20PermissionValidator%0A%0Aalt%20Permissions%20denied%0A%20%20%20%20PermissionValidator%20--%3E%20NGINX%20%3A%20(4)%20Return%20403%20status%0A%20%20%20%20NGINX%20--%3E%20GuestFrontend%20%3A%20(5)%20Return%20response%20%0A%20%20%20%20GuestFrontend%20--%3E%20Guest%20%3A%20(6)%20Display%20error%20%22Permission%20denied%22%0Aelse%20Permissions%20granted%0A%20%20%20%20NGINX%20-%3E%20AmenitiesService%20%3A%20(7)%20Route%20to%20Amenities%20Microservice%0A%20%20%20%20activate%20AmenitiesService%0A%0A%20%20%20%20AmenitiesService%20-%3E%20Amenity%20Database%20%3A%20(8)%20Query%20for%20amenities%0A%20%20%20%20activate%20Amenity%20Database%0A%20%20%20%20alt%20Amenities%20were%20not%20found%0A%20%20%20%20%20%20%20%20Amenity%20Database%20--%3E%20AmenitiesService%20%3A%20(9)%20Return%20null%0A%20%20%20%20%20%20%20%20AmenitiesService%20--%3E%20NGINX%20%3A%20(10)%20Return%20404%20status%0A%20%20%20%20%20%20%20%20NGINX%20--%3E%20GuestFrontend%20%3A%20(11)%20Return%20response%20%0A%20%20%20%20%20%20%20%20GuestFrontend%20--%3E%20Guest%20%3A%20(12)%20Display%20error%20%22Amenities%20not%20found%22%0A%20%20%20%20else%20Amenities%20were%20found%0A%20%20%20%20%20%20%20%20Amenity%20Database%20--%3E%20AmenitiesService%20%3A%20(9)%20Return%20amenities%20data%0A%20%20%20%20%20%20%20%20deactivate%20Amenity%20Database%0A%0A%20%20%20%20%20%20%20%20AmenitiesService%20--%3E%20NGINX%20%3A%20(10)%20Return%20200%20status%0A%20%20%20%20%20%20%20%20deactivate%20AmenitiesService%0A%20%20%20%20%20%20%20%20NGINX%20--%3E%20GuestFrontend%20%3A%20(11)%20Return%20response%20%0A%20%20%20%20%20%20%20%20GuestFrontend%20--%3E%20Guest%20%3A%20(12)%20Display%20amenities%20list%0A%20%20%20%20%20%20%20%20deactivate%20GuestFrontend%0A%20%20%20%20end%0Aend%0A%0AGuest%20-%3E%20GuestFrontend%20%3A%20(13)%20Request%20to%20view%20specified%20amenity%0Aactivate%20GuestFrontend%0AGuestFrontend%20-%3E%20NGINX%20%3A%20(14)%20Request%20for%20specified%20amenity%0A%0ANGINX%20-%3E%20PermissionValidator%20%3A%20(15)%20Validate%20permissions%0Aactivate%20PermissionValidator%0A%0Aalt%20Permissions%20denied%0A%20%20%20%20PermissionValidator%20--%3E%20NGINX%20%3A%20(16)%20Return%20403%20status%0A%20%20%20%20NGINX%20--%3E%20GuestFrontend%20%3A%20(17)%20Return%20response%20%0A%20%20%20%20GuestFrontend%20--%3E%20Guest%20%3A%20(18)%20Display%20error%20%22Permission%20denied%22%0Aelse%20Permissions%20granted%0A%20%20%20%20NGINX%20-%3E%20AmenitiesService%20%3A%20(19)%20Route%20to%20Amenities%20Microservice%0A%20%20%20%20activate%20AmenitiesService%0A%0A%20%20%20%20AmenitiesService%20-%3E%20Amenity%20Database%20%3A%20(20)%20Query%20for%20specified%20amenity%0A%20%20%20%20activate%20Amenity%20Database%0A%0A%20%20%20%20alt%20Amenity%20not%20found%0A%20%20%20%20%20%20%20%20Amenity%20Database%20--%3E%20AmenitiesService%20%3A%20(21)%20Return%20null%20amenity%0A%20%20%20%20%20%20%20%20AmenitiesService%20--%3E%20NGINX%20%3A%20(22)%20Return%20404%20status%0A%20%20%20%20%20%20%20%20NGINX%20--%3E%20GuestFrontend%20%3A%20(23)%20Return%20response%20%0A%20%20%20%20%20%20%20%20GuestFrontend%20--%3E%20Guest%20%3A%20(24)%20Display%20error%20%22Amenity%20not%20found%22%0A%20%20%20%20else%20Amenity%20found%0A%20%20%20%20%20%20%20%20Amenity%20Database%20--%3E%20AmenitiesService%20%3A%20(21)%20Return%20specified%20amenity%20data%0A%20%20%20%20%20%20%20%20deactivate%20Amenity%20Database%0A%0A%20%20%20%20%20%20%20%20AmenitiesService%20--%3E%20NGINX%20%3A%20(22)%20Return%20200%20status%0A%20%20%20%20%20%20%20%20deactivate%20AmenitiesService%0A%20%20%20%20%20%20%20%20NGINX%20--%3E%20GuestFrontend%20%3A%20(23)%20Return%20response%20%0A%20%20%20%20%20%20%20%20GuestFrontend%20--%3E%20Guest%20%3A%20(24)%20Display%20specified%20amenity%20details%0A%20%20%20%20%20%20%20%20deactivate%20GuestFrontend%0A%20%20%20%20end%0Aend%0A%0A%0A%0A%0A%0A%0A%0A%0A%0A</desc><defs/><g><g/><g/><g/><g/><g/><g/><g/><g/><g/><g/><g/><g/><g/><g/><g/><g/><g/><g/><g/><g/><g/><g/><g/><g/><g/><g/><g/><g/><g/><g/><g/><g/><g/><g/><g/><g/><g/><g/><g/><g/><g/><g/><g/><g/><g/><g/><g/><g/><g/><g/><g/><g/><g/><g/><g/><g/><g/><g/><g/><g/><g/><g/><g/><g/><g/><g/><g/><g/><g/><g/><g/><g/><g/><g/><g/><g/><g/><g/><g/><g/><g/><g/><g/><g/><g/><g/><g/><g/><g/><g/><g/><g/><g/><g/><g/><g/><g/><g/><g/><g/><g/><g/><g/><g/><g/><g/><g/><g/><g/><g/><g/><g/><g/><g/><g/><g/><g/><g/><g/><g/><g/><g/><g/><g/><g/><g/><g/><g/><g/><g/><g/><g/><g/><g/><g/><g/><g/><g/><g/><g/><g/><g/><g/><g/><g/><g/><g/><g/><g/><g/><g/><g/><g/><g/><g/><g/><g/><g/><g/><g/><g/><g/><g/><g/><g/><g/><g/><g/><g/><g/><g/><g/><g/><g/><g/><g/><g/><g/><g/><g/><g/><g/><g/><g/><g/><g/><g/><g/><g/><g/><g/><g/><g/><g/><g/><g/><g/><g/><g/><g/><g/><g/><g/><g/><g/><g/><g/><g/><g/><g/><g/><g/><g/><g/><g/><g/><g/><g/><g/><g/><g/><g/><g/><g/><g/><g/><g/><g/><g/><g/><g/><g/><g/><g/><g/><g/><g/><g/><g/><g/><g/><g/><g/><g/><g/><g/><g/><g/><g/><g/><g/><g/><g/><g/><g/><g/><g/><g/><g/><g/><g/><g/><g/><g/><g/><g/><g/><g/><g/><g/><g/><g/><g/><g/><g/><g/><g/><g/><g/><g/><g/><g/><g/><g/><g/><g/><g/><g/><g/><g/><g/><g/><g/><g/><g/><g/><g/><g/><g><rect fill="white" stroke="none" x="0" y="0" width="1418" height="2108"/></g><g/><g><path fill="none" stroke="black" paint-order="fill stroke markers" d=" M 89.84361815 128.73625218881818 L 89.84361815 2108.5628921488187" stroke-miterlimit="10" stroke-width="1.3612669416666667" stroke-dasharray="12.565541,5.445067766666667"/><path fill="none" stroke="black" paint-order="fill stroke markers" d=" M 398.8658445749349 128.73625218881818 L 398.8658445749349 2108.5628921488187" stroke-miterlimit="10" stroke-width="1.3612669416666667" stroke-dasharray="12.565541,5.445067766666667"/><path fill="none" stroke="black" paint-order="fill stroke markers" d=" M 673.8580264442057 128.73625218881818 L 673.8580264442057 2108.5628921488187" stroke-miterlimit="10" stroke-width="1.3612669416666667" stroke-dasharray="12.565541,5.445067766666667"/><path fill="none" stroke="black" paint-order="fill stroke markers" d=" M 965.9296455693359 128.73625218881818 L 965.9296455693359 2108.5628921488187" stroke-miterlimit="10" stroke-width="1.3612669416666667" stroke-dasharray="12.565541,5.445067766666667"/><path fill="none" stroke="black" paint-order="fill stroke markers" d=" M 1159.7415063877577 128.73625218881818 L 1159.7415063877577 2108.5628921488187" stroke-miterlimit="10" stroke-width="1.3612669416666667" stroke-dasharray="12.565541,5.445067766666667"/><path fill="none" stroke="black" paint-order="fill stroke markers" d=" M 1320.36799407441 128.73625218881818 L 1320.36799407441 2108.5628921488187" stroke-miterlimit="10" stroke-width="1.3612669416666667" stroke-dasharray="12.565541,5.445067766666667"/></g><g><g><path fill="white" stroke="black" paint-order="fill stroke markers" d=" M 99.154684031 59.63834222981819 A 9.311065881 9.311065881 0 1 1 99.15467937546744 59.62903116548903 M 89.84361815 68.9494081108182 L 89.84361815 88.8783561368182 M 78.08227177399999 76.13689756281819 L 101.604964526 76.13689756281819 M 89.84361815 88.8783561368182 L 78.08227177399999 107.50048789881819 M 89.84361815 88.8783561368182 L 101.604964526 107.50048789881819" stroke-miterlimit="10" stroke-width="2.7769845610000004" stroke-dasharray=""/></g><g><g/><text fill="black" stroke="none" font-family="sans-serif" font-size="11pt" font-style="normal" font-weight="normal" text-decoration="normal" x="70.28742765927734" y="123.83569119881818" text-anchor="start" dominant-baseline="alphabetic" xml:space="preserve">Guest</text></g><path fill="none" stroke="none"/><g><path fill="white" stroke="black" paint-order="fill stroke markers" d=" M 327.7706508865247 84.7945553118182 L 469.961038263345 84.7945553118182 L 469.961038263345 128.73625218881818 L 327.7706508865247 128.73625218881818 L 327.7706508865247 84.7945553118182 Z" stroke-miterlimit="10" stroke-width="2.613632528" stroke-dasharray=""/></g><g><text fill="black" stroke="none" font-family="sans-serif" font-size="11pt" font-style="normal" font-weight="normal" text-decoration="normal" x="345.49434646702474" y="112.40104888881818" text-anchor="start" dominant-baseline="alphabetic" xml:space="preserve">Guest Front-end</text></g><path fill="none" stroke="none"/><g><path fill="white" stroke="black" paint-order="fill stroke markers" d=" M 632.920295829526 84.63120327881819 L 714.7957570588854 84.63120327881819 L 714.7957570588854 128.73625218881818 L 632.920295829526 128.73625218881818 L 632.920295829526 84.63120327881819 Z" stroke-miterlimit="10" stroke-width="2.613632528" stroke-dasharray=""/></g><g><g/><text fill="black" stroke="none" font-family="sans-serif" font-size="11pt" font-style="normal" font-weight="normal" text-decoration="normal" x="650.643991410026" y="112.40104888881817" text-anchor="start" dominant-baseline="alphabetic" xml:space="preserve">NGINX</text></g><path fill="none" stroke="none"/><g><path fill="white" stroke="black" paint-order="fill stroke markers" d=" M 872.8516637949882 84.7945553118182 L 1059.0076273436835 84.7945553118182 L 1059.0076273436835 128.73625218881818 L 872.8516637949882 128.73625218881818 L 872.8516637949882 84.7945553118182 Z" stroke-miterlimit="10" stroke-width="2.613632528" stroke-dasharray=""/></g><g><text fill="black" stroke="none" font-family="sans-serif" font-size="11pt" font-style="normal" font-weight="normal" text-decoration="normal" x="890.5753593754882" y="112.40104888881818" text-anchor="start" dominant-baseline="alphabetic" xml:space="preserve">Amenities Microservice</text></g><path fill="none" stroke="none"/><g><path fill="white" stroke="black" paint-order="fill stroke markers" d=" M 1075.3428306436836 84.7945553118182 L 1244.140182131832 84.7945553118182 L 1244.140182131832 128.73625218881818 L 1075.3428306436836 128.73625218881818 L 1075.3428306436836 84.7945553118182 Z" stroke-miterlimit="10" stroke-width="2.613632528" stroke-dasharray=""/></g><g><text fill="black" stroke="none" font-family="sans-serif" font-size="11pt" font-style="normal" font-weight="normal" text-decoration="normal" x="1093.0665262241835" y="112.40104888881818" text-anchor="start" dominant-baseline="alphabetic" xml:space="preserve">Permission Validator</text></g><g><path fill="white" stroke="black" paint-order="fill stroke markers" d=" M 1296.51859725641 96.71925372081819 L 1296.51859725641 62.41532679081819 L 1344.21739089241 62.41532679081819 L 1344.21739089241 96.71925372081819" stroke-miterlimit="10" stroke-width="2.7769845610000004" stroke-dasharray=""/><path fill="white" stroke="black" paint-order="fill stroke markers" d=" M 1344.21739089241 61.22285694991819 L 1344.2161984325064 61.33066749483481 L 1344.2126211720404 61.43846725878678 L 1344.2066594687349 61.546245461887544 L 1344.1983139187557 61.65399132640659 L 1344.1875853566505 61.761694077847274 L 1344.1744748552667 61.86934294602419 L 1344.1589837256433 61.976927166140236 L 1344.1411135168808 62.084435979863045 L 1344.1208660159848 62.19185863640084 L 1344.0982432476885 62.299184393577484 L 1344.0732474742501 62.4064025189067 L 1344.0458811952262 62.51350229066531 L 1344.0161471472215 62.62047299896537 L 1343.9840483036164 62.7273039468252 L 1343.9495878742682 62.83398445123905 L 1343.9127693051914 62.94050384424536 L 1343.8735962782123 63.04685147399361 L 1343.8320727106004 63.15301670580944 L 1343.7882027546784 63.25898892325815 L 1343.7419907974052 63.364757529206294 L 1343.6934414599377 63.47031194688142 L 1343.6425595971698 63.575641620929716 L 1343.5893502972447 63.68073601847156 L 1343.5338188810485 63.78558463015478 L 1343.4759709016766 63.89017697120557 L 1343.4158121438784 63.994502582477 L 1343.3533486234796 64.09855103149486 L 1343.2885865867806 64.20231191350096 L 1343.2215325099305 64.3057748524936 L 1343.1521930982815 64.40892950226505 L 1343.080575285717 64.51176554743633 L 1343.0066862339584 64.61427270448858 L 1342.9305333318491 64.71644072279157 L 1342.8521241946164 64.81825938562858 L 1342.7714666631084 64.91971851121816 L 1342.6885688030109 65.02080795373233 L 1342.603438904041 65.12151760431107 L 1342.5160854791177 65.22183739207324 L 1342.4265172635105 65.32175728512367 L 1342.3347432139662 65.42126729155632 L 1342.240772507814 65.52035746045347 L 1342.1446145420455 65.6190178828808 L 1342.0462789323772 65.71723869287828 L 1341.9457755122885 65.81501006844678 L 1341.8431143320372 65.91232223253022 L 1341.7383056576562 66.00916545399325 L 1341.6313599699254 66.10553004859446 L 1341.5222879633245 66.20140637995469 L 1341.4111005449631 66.29678486052069 L 1341.2978088334905 66.39165595252388 L 1341.1824241579836 66.48601016893414 L 1341.0649580568136 66.57983807440844 L 1340.9454222764928 66.67313028623443 L 1340.8238287704994 66.76587747526865 L 1340.700189698083 66.85807036686953 L 1340.5745174230476 66.94969974182469 L 1340.446824512516 67.04075643727302 L 1340.3171237356732 67.13123134762085 L 1340.1854280624882 67.22111542545254 L 1340.051750662419 67.3103996824352 L 1339.916104903094 67.39907519021754 L 1339.7785043489762 67.4871330813227 L 1339.6389627600063 67.57456455003492 L 1339.497494090227 67.6613608532802 L 1339.3541124863873 67.74751331150055 L 1339.208832286528 67.83301330952195 L 1339.0616680185483 67.91785229741582 L 1338.912634398752 68.00202179135408 L 1338.7617463303773 68.08551337445749 L 1338.609018902105 68.1683186976373 L 1338.4544673865505 68.25042948043021 L 1338.298107238737 68.33183751182635 L 1338.1399540945488 68.41253465109044 L 1337.9800237691686 68.4925128285758 L 1337.8183322554953 68.5717640465313 L 1337.654895722546 68.65028037990122 L 1337.4897305138375 68.72805397711764 L 1337.3228531457532 68.80507706088565 L 1337.1542803058908 68.88134192896105 L 1336.9840288513935 68.95684095492061 L 1336.8121158072654 69.03156658892462 L 1336.6385583646675 69.10551135847197 L 1336.463373879199 69.17866786914732 L 1336.286579869163 69.25102880536058 L 1336.1081940138129 69.3225869310784 L 1335.9282341515857 69.39333509054786 L 1335.7467182783175 69.46326620901198 L 1335.5636645454447 69.53237329341717 L 1335.3790912581876 69.60064943311258 L 1335.1930168737215 69.66808780054113 L 1335.0054599993296 69.7346816519223 L 1334.8164393905429 69.80042432792644 L 1334.625973949265 69.86530925434072 L 1334.4340827218812 69.92932994272657 L 1334.2407848973544 69.9924799910685 L 1334.0460998053059 70.05475308441433 L 1333.8500469140827 70.1161429955066 L 1333.6526458288106 70.17664358540536 L 1333.4539162894334 70.23624880410202 L 1333.2538781687397 70.29495269112441 L 1333.0525514703747 70.35274937613272 L 1332.8499563268406 70.40963307950663 L 1332.646112997483 70.46559811292322 L 1332.4410418664645 70.52063887992576 L 1332.2347634407279 70.57474987648341 L 1332.0272983479435 70.62792569154163 L 1331.8186673344478 70.68016100756323 L 1331.6088912631683 70.73145060106012 L 1331.3979911115373 70.78178934311569 L 1331.1859879693943 70.8311721998977 L 1330.9729030368767 70.8795942331616 L 1330.7587576223002 70.92705060074444 L 1330.543573140028 70.973536557049 L 1330.3273711083289 71.01904745351838 L 1330.1101731472256 71.06357873910088 L 1329.8920009763335 71.10712596070502 L 1329.672876412688 71.14968476364494 L 1329.4528213685628 71.19125089207583 L 1329.2318578492786 71.23182018941947 L 1329.0100079510037 71.27138859877994 L 1328.7872938585426 71.30995216334925 L 1328.5637378431193 71.34750702680313 L 1328.3393622601486 71.38404943368649 L 1328.1141895470023 71.4195757297891 L 1327.888242220764 71.45408236251096 L 1327.6615428759778 71.48756588121756 L 1327.4341141823893 71.52002293758491 L 1327.2059788826787 71.55145028593446 L 1326.9771597901852 71.58184478355753 L 1326.747679786628 71.61120339102969 L 1326.517561819816 71.63952317251467 L 1326.2868289013538 71.66680129605793 L 1326.0555041043415 71.69303503386982 L 1325.8236105610656 71.71822176259843 L 1325.5911714606875 71.7423589635919 L 1325.3582100469234 71.7654442231502 L 1325.1247496157205 71.78747523276665 L 1324.8908135129275 71.80844978935863 L 1324.6564251319596 71.82836579548797 L 1324.4216079114597 71.84722125957065 L 1324.186385332954 71.86501429607597 L 1323.9507809185043 71.8817431257151 L 1323.714818228356 71.89740607561903 L 1323.4785208585813 71.91200157950583 L 1323.2419124387202 71.92552817783725 L 1323.0050166294177 71.93798451796474 L 1322.7678571200572 71.94936935426468 L 1322.530457626392 71.95968154826289 L 1322.2928418881736 71.96892006874862 L 1322.055033666778 71.97708399187748 L 1321.817056742829 71.98417250126396 L 1321.5789349138206 71.99018488806304 L 1321.3406919917372 71.99512055104105 L 1321.102351800673 71.99897899663581 L 1320.8639381744479 72.00175983900598 L 1320.6254749542263 72.00346280006961 L 1320.386985986131 72.00408770953204 L 1320.1484951188606 72.00363450490285 L 1319.9100262013028 72.0021032315021 L 1319.6716030801506 71.99949404245586 L 1319.4332495975175 71.9958071986809 L 1319.1949895885532 71.99104306885846 L 1318.9568468790599 71.98520212939759 L 1318.71884528311 71.97828496438737 L 1318.4810086006653 71.97029226553852 L 1318.2433606151953 71.96122483211428 L 1318.005925091301 71.95108357085043 L 1317.7687257723362 71.93986949586466 L 1317.5317863780358 71.92758372855508 L 1317.2951306021414 71.91422749748824 L 1317.0587821100337 71.89980213827607 L 1316.8227645363647 71.8843090934425 L 1316.587101482695 71.86774991227908 L 1316.351816515134 71.85012625069015 L 1316.116933161982 71.83143987102717 L 1315.8824749113787 71.81169264191253 L 1315.6484652089537 71.79088653805269 L 1315.4149274554825 71.7690236400407 L 1315.1818850045454 71.74610613414815 L 1314.9493611601938 71.72213631210651 L 1314.717379174618 71.69711657087802 L 1314.4859622458232 71.67104941241597 L 1314.2551335153098 71.64393744341446 L 1314.0249160657581 71.6157833750478 L 1313.7953329187217 71.58659002269937 L 1313.5664070323235 71.55636030568009 L 1313.3381612989615 71.52509724693644 L 1313.1106185430187 71.49280397274828 L 1312.8838015185815 71.45948371241609 L 1312.6577329071629 71.42513979793813 L 1312.432435315436 71.38977566367726 L 1312.207931272972 71.35339484601741 L 1311.9842432299881 71.31600098301004 L 1311.7613935551021 71.27759781401028 L 1311.539404533096 71.23818917930303 L 1311.3182983626868 71.19777901971894 L 1311.0980971543077 71.15637137624027 L 1310.8788229278953 71.11397038959687 L 1310.66049761069 71.07058029985207 L 1310.4431430350419 71.02620544597868 L 1310.2267809362268 70.98085026542512 L 1310.0114329502744 70.93451929367163 L 1309.797120611804 70.8872171637768 L 1309.583865351871 70.8389486059142 L 1309.3716884958235 70.78971844689937 L 1309.1606112611703 70.7395316097072 L 1308.950654755459 70.6883931129796 L 1308.741839974165 70.6363080705236 L 1308.5341877985927 70.58328169080006 L 1308.3277189937864 70.52931927640276 L 1308.122454206455 70.47442622352818 L 1307.9184139629053 70.41860802143584 L 1307.7156186669924 70.36187025189946 L 1307.5140885980768 70.3042185886487 L 1307.313843908997 70.24565879680183 L 1307.1149046240555 70.18619673228926 L 1306.9172906370147 70.12583834126788 L 1306.7210217091088 70.06458965952649 L 1306.526117467067 70.00245681188221 L 1306.332597401151 69.93944601156807 L 1306.1404808632062 69.87556355961155 L 1305.9497870647265 69.81081584420461 L 1305.7605350749325 69.74520934006487 L 1305.5727438188655 69.67875060778805 L 1305.386432075495 69.61144629319199 L 1305.2016184758395 69.54330312665208 L 1305.0183215011054 69.47432792242817 L 1304.8365594808372 69.40452757798322 L 1304.6563505910856 69.3339090732935 L 1304.4777128525893 69.26247947015062 L 1304.3006641289735 69.19024591145539 L 1304.1252221249626 69.11721562050347 L 1303.9514043846111 69.0433959002631 L 1303.7792282895482 68.96879413264479 L 1303.60871105724 68.89341777776313 L 1303.4398697392674 68.81727437319081 L 1303.2727212196214 68.74037153320482 L 1303.107282213015 68.66271694802508 L 1302.943569263211 68.58431838304537 L 1302.7815987413676 68.5051836780569 L 1302.6213868444022 68.4253207464642 L 1302.4629495933711 68.34473757449386 L 1302.3063028318675 68.26344222039596 L 1302.1514622244365 68.18144281363814 L 1301.9984432550102 68.09874755409275 L 1301.847261225358 68.01536471121685 L 1301.6979312535566 67.9313026232252 L 1301.550468272479 67.84656969625658 L 1301.4048870283007 67.76117440353308 L 1301.261202079024 67.67512528451279 L 1301.119427793025 67.5884309440359 L 1300.9795783476134 67.50110005146425 L 1300.8416677276177 67.41314133981427 L 1300.7057097239847 67.32456360488388 L 1300.5717179324017 67.23537570437271 L 1300.439705751936 67.14558655699653 L 1300.3096863836956 67.05520514159522 L 1300.1816728295091 66.96424049623502 L 1300.0556778906252 66.87270171730466 L 1299.9317141664328 66.78059795860575 L 1299.8097940532011 66.68793843043741 L 1299.6899297428397 66.59473239867523 L 1299.5721332216797 66.50098918384472 L 1299.4564162692752 66.40671816018926 L 1299.3427904572252 66.31192875473263 L 1299.2312671480156 66.2166304463364 L 1299.121857493885 66.120832764752 L 1299.0145724357074 66.02454528966774 L 1298.909422701899 65.92777764975091 L 1298.806418807346 65.83053952168484 L 1298.7055710523518 65.73284062920132 L 1298.6068895216076 65.63469074210818 L 1298.5103840831848 65.53609967531233 L 1298.4160643875462 65.4370772878383 L 1298.3239398665833 65.33763348184232 L 1298.2340197326712 65.23777820162212 L 1298.146312977748 65.13752143262249 L 1298.0608283724168 65.03687320043682 L 1297.9775744650665 64.93584356980442 L 1297.8965595810187 64.83444264360419 L 1297.8177918216938 64.73268056184422 L 1297.7412790638025 64.63056750064791 L 1297.6670289585568 64.52811367123628 L 1297.595048930905 64.42532931890689 L 1297.5253461787904 64.32222472200931 L 1297.4579276724298 64.21881019091732 L 1297.3928001536178 64.11509606699785 L 1297.329970135052 64.01109272157687 L 1297.2694438996818 63.90681055490224 L 1297.2112275000804 63.80225999510374 L 1297.155326757839 63.697451497150205 L 1297.1017472629856 63.59239554180411 L 1297.050494373425 63.48710263457343 L 1297.001573214403 63.381583304661156 L 1296.9549886779953 63.27584810391234 L 1296.9107454226162 63.16990760575894 L 1296.8688478725549 63.06377240416249 L 1296.829300217531 62.95745311255472 L 1296.7921064122775 62.85096036277616 L 1296.7572701761435 62.744304804013076 L 1296.724794992724 62.63749710173245 L 1296.6946841095098 62.530547936615505 L 1296.6669405375646 62.423468003489624 L 1296.6415670512222 62.316268010258895 L 1296.6185661878103 62.208958676833305 L 1296.5979402473959 62.10155073405677 L 1296.5796912925557 61.99405492263407 L 1296.5638211481703 61.88648199205676 L 1296.5503314012408 61.77884269952825 L 1296.5392234007306 61.6711478088881 L 1296.5304982574305 61.56340808953563 L 1296.5241568438475 61.45563431535299 L 1296.5201997941178 61.34783726362778 L 1296.5186275039432 61.24002771397536 L 1296.5194401305512 61.13221644726084 L 1296.5226375926798 61.02441424452105 L 1296.5282195705854 60.916631885886424 L 1296.536185506075 60.808880149503025 L 1296.546534602562 60.70116981045468 L 1296.5592658251446 60.59351163968555 L 1296.5743779007119 60.48591640292299 L 1296.5918693180683 60.378394859601016 L 1296.611738328087 60.27095776178435 L 1296.633982943884 60.163615853093255 L 1296.6586009410153 60.05637986762915 L 1296.6855898577023 59.949260528901206 L 1296.7149469950757 59.84226854875404 L 1296.7466694174461 59.7354146262965 L 1296.780753952598 59.62870944683179 L 1296.817197192106 59.52216368078894 L 1296.8559954916768 59.41578798265577 L 1296.8971449715125 59.30959298991343 L 1296.9406415166995 59.203589321972714 L 1296.9864807776196 59.09778757911208 L 1297.0346581703848 58.992198341417634 L 1297.085168877296 58.88683216772516 L 1297.1380078473246 58.78169959456423 L 1297.1931697966177 58.67681113510454 L 1297.2506492090263 58.57217727810464 L 1297.3104403366572 58.46780848686303 L 1297.3725372004471 58.36371519817185 L 1297.4369335907616 58.25990782127324 L 1297.5036230680153 58.15639673681838 L 1297.572598963316 58.053192295829454 L 1297.6438543791319 57.950304818664556 L 1297.7173821899805 57.84774459398567 L 1297.7931750431421 57.745521877729786 L 1297.8712253593947 57.64364689208335 L 1297.9515253337713 57.54212982446004 L 1298.0340669363418 57.44098082648201 L 1298.1188419130146 57.340210012964775 L 1298.2058417863625 57.2398274609057 L 1298.295057856471 57.13984320847635 L 1298.3864812018069 57.040267254018644 L 1298.4801026801124 56.94110955504505 L 1298.5759129293176 56.84238002724283 L 1298.6739023684772 56.74408854348249 L 1298.774061198729 56.646244932830506 L 1298.8763794042734 56.54885897956639 L 1298.9808467533753 56.45194042220433 L 1299.0874527993867 56.35549895251929 L 1299.196186881792 56.25954421457787 L 1299.3070381272735 56.16408580377391 L 1299.4199954507988 56.06913326586893 L 1299.5350475567298 55.974696096037604 L 1299.652182939952 55.88078373791821 L 1299.7713898870245 55.7874055826683 L 1299.892656477352 55.694570968025594 L 1300.0159705843762 55.60228917737418 L 1300.1413198767898 55.51056943881623 L 1300.2686918197674 55.41942092424918 L 1300.3980736762212 55.328852748448504 L 1300.5294525080733 55.23887396815633 L 1300.6628151775499 55.14949358117568 L 1300.7981483484953 55.0607205254708 L 1300.9354384877051 54.97256367827326 L 1301.07467186628 54.88503185519433 L 1301.2158345609978 54.79813380934336 L 1301.358912455707 54.71187823045254 L 1301.5038912427372 54.62627374400786 L 1301.6507564243304 54.541328910386646 L 1301.799493314091 54.45705222400146 L 1301.950087038454 54.373452112450714 L 1302.1025225381723 54.290536935675895 L 1302.2567845698231 54.20831498512558 L 1302.4128577073318 54.12679448292632 L 1302.5707263435147 54.0459835810604 L 1302.7303746916396 53.965890360550645 L 1302.8917867870048 53.88652283065238 L 1303.054946488535 53.80788892805245 L 1303.2198374803968 53.72999651607559 L 1303.3864432736277 53.652853383898076 L 1303.5547472077874 53.57646724576885 L 1303.7247324526227 53.50084574023808 L 1303.896382009751 53.42599642939328 L 1304.0696787143593 53.35192679810317 L 1304.2446052369219 53.278644253269164 L 1304.421144084932 53.20615612308466 L 1304.5992776046521 53.13446965630228 L 1304.7789879828786 53.06359202150896 L 1304.9602572487236 52.99353030640911 L 1305.1430672754113 52.924291517115876 L 1305.3273997820916 52.85588257745046 L 1305.5132363356672 52.78831032824984 L 1305.7005583526377 52.72158152668263 L 1305.8893471009578 52.65570284557336 L 1306.0795837019095 52.590680872735255 L 1306.2712491319917 52.52652211031142 L 1306.4643242248208 52.463232974124615 L 1306.6587896730484 52.40081979303573 L 1306.854626030292 52.33928880831086 L 1307.051813713079 52.278646172997206 L 1307.250333002805 52.21889795130775 L 1307.450164047707 52.160050118014894 L 1307.651286864847 52.1021085578529 L 1307.8536813421106 52.045079064929524 L 1308.0573272402187 51.98896734214652 L 1308.2622041947516 51.933779000629414 L 1308.4682917181842 51.87951955916637 L 1308.6755692019362 51.826194443656306 L 1308.8840159184317 51.77380898656634 L 1309.0936110231728 51.72236842639853 L 1309.3043335568238 51.67187790716602 L 1309.516162447307 51.622342477878675 L 1309.7290765119094 51.57376709203812 L 1309.9430544594024 51.526156607142475 L 1310.1580748921697 51.47951578420055 L 1310.3741163083469 51.43384928725578 L 1310.5911571039726 51.38916168291979 L 1310.8091755751477 51.34545743991578 L 1311.0281499202074 51.302740928631636 L 1311.2480582418991 51.261016420682886 L 1311.4688785495744 51.220288088485546 L 1311.690588761386 51.18056000483891 L 1311.9131667064978 51.14183614251822 L 1312.136590127301 51.10412037387746 L 1312.360836681639 51.06741647046204 L 1312.585883945044 51.03172810263173 L 1312.8117094129768 50.99705883919358 L 1313.0382905030788 50.96341214704502 L 1313.26560455743 50.930791390827245 L 1313.493628844814 50.899199832588685 L 1313.7223405629925 50.86864063145883 L 1313.951716840984 50.83911684333235 L 1314.181734741352 50.81063142056343 L 1314.4123712624983 50.78318721167063 L 1314.6436033409627 50.75678696105195 L 1314.8754078537302 50.731433308710464 L 1315.1077616205425 50.70712878999027 L 1315.3406414062167 50.683875835323 L 1315.5740239229683 50.66167676998473 L 1315.8078858327399 50.6405338138635 L 1316.0422037495357 50.6204490812373 L 1316.2769542417593 50.60142458056266 L 1316.5121138345569 50.583462214273794 L 1316.7476590121653 50.566563778592354 L 1316.983566220263 50.55073096334783 L 1317.2198118683257 50.53596535180856 L 1317.4563723319854 50.52226842052339 L 1317.6932239553933 50.50964153917403 L 1317.9303430535838 50.49808597043808 L 1318.1677059148453 50.48760286986282 L 1318.405288803089 50.47819328574954 L 1318.6430679602245 50.46985815904882 L 1318.8810196085337 50.462598323266384 L 1319.1191199530506 50.456414504379765 L 1319.3573451839386 50.45130732076569 L 1319.5956714788736 50.44727728313828 L 1319.8340750054247 50.444324794497916 L 1320.0725319234375 50.44245015009101 L 1320.3110183874194 50.44165353738045 L 1320.5495105489224 50.44193503602685 L 1320.7879845589293 50.443294617880554 L 1321.0264165702376 50.445732146984525 L 1321.264782739845 50.44924737958788 L 1321.5030592313335 50.45383996417029 L 1321.7412222172518 50.459509441477124 L 1321.9792478815004 50.46625524456538 L 1322.217112421711 50.474076698860365 L 1322.4547920516277 50.48297302222316 L 1322.6922630034856 50.49294332502887 L 1322.9295015303876 50.50398661025549 L 1323.1664839086786 50.51610177358371 L 1323.4031864403182 50.52928760350731 L 1323.6395854552504 50.54354278145426 L 1323.875657313771 50.55886588191867 L 1324.1113784088907 50.575255372603245 L 1324.3467251686964 50.592709614572584 L 1324.5816740587081 50.61122686241703 L 1324.816201584233 50.630805264427224 L 1325.0502842927137 50.651442862779284 L 1325.2838987760745 50.67313759373059 L 1325.5170216730617 50.695887287826096 L 1325.7496296715797 50.71968967011537 L 1325.9816995110227 50.74454236038002 L 1326.2132079846003 50.77044287337172 L 1326.4441319416576 50.797388619060754 L 1326.674448289992 50.825376902895016 L 1326.9041339981598 50.85440492606945 L 1327.1331660977821 50.88446978580591 L 1327.3615216858398 50.9155684756435 L 1327.5891779269643 50.947697885739125 L 1327.816112055721 50.980854803178566 L 1328.0423013788866 51.01503591229771 L 1328.2677232777166 51.05023779501413 L 1328.4923552102098 51.08645693116888 L 1328.7161747133594 51.12368969887854 L 1328.9391594054018 51.16193237489736 L 1329.161286988054 51.201181134989596 L 1329.3825352487424 51.241432054311964 L 1329.6028820628255 51.28268110780607 L 1329.8223053958054 51.32492417060092 L 1330.040783305532 51.368157018425464 L 1330.2582939443957 51.41237532803093 L 1330.4748155615146 51.45757467762322 L 1330.690326504907 51.503750547305025 L 1330.9048052236583 51.55089831952786 L 1331.1182302700752 51.5990132795538 L 1331.330580301831 51.64809061592693 L 1331.5418340840997 51.69812542095451 L 1331.751970491679 51.749112691197745 L 1331.9609685111031 51.801047327972086 L 1332.1688072427442 51.85392413785714 L 1332.3754659029025 51.90773783321599 L 1332.5809238258842 51.962483032723924 L 1332.7851604660682 52.01815426190663 L 1332.9881553999605 52.07474595368758 L 1333.1898883282372 52.132252448944755 L 1333.3903390777732 52.190667997076545 L 1333.589487603661 52.24998675657682 L 1333.7873139912135 52.310202795619055 L 1333.9837984579572 52.371310092649544 L 1334.1789213556087 52.43330253698949 L 1334.3726631720415 52.49617392944612 L 1334.565004533235 52.559917982932596 L 1334.7559262052134 52.62452832309667 L 1334.9454090959687 52.68999848895818 L 1335.1334342573696 52.7563219335551 L 1335.3199828870565 52.823492024598224 L 1335.5050363303224 52.89150204513444 L 1335.6885760819766 52.960345194218355 L 1335.8705837881973 53.03001458759244 L 1336.0510412483652 53.10050325837541 L 1336.229930416885 53.171804157758935 L 1336.407233404989 53.243910155712484 L 1336.5829324825256 53.31681404169635 L 1336.757010079734 53.39050852538269 L 1336.9294487889993 53.46498623738456 L 1337.1002313665942 53.5402397299928 L 1337.2693407344036 53.61626147792087 L 1337.4367599816312 53.69304387905734 L 1337.602472366492 53.770579255226075 L 1337.7664613178858 53.848859852954064 L 1337.9287104370537 53.92787784424677 L 1338.0892034992194 54.00762532737092 L 1338.24792445521 54.08809432764465 L 1338.4048574330627 54.16927679823499 L 1338.5599867396102 54.251164620962534 L 1338.7132968620508 54.33374960711325 L 1338.8647724695006 54.41702349825734 L 1339.0143984145247 54.500977967075094 L 1339.1621597346536 54.58560461818958 L 1339.308041653878 54.670894989006214 L 1339.452029584128 54.75684055055899 L 1339.59410912673 54.84343270836337 L 1339.7342660738489 54.93066280327574 L 1339.872486409906 55.0185221123593 L 1340.0087563129835 55.107001849756344 L 1340.1430621562042 55.196093167566886 L 1340.275390509096 55.28578715673337 L 1340.4057281389337 55.37607484793163 L 1340.534062012063 55.46694721246779 L 1340.6603792952037 55.55839516318112 L 1340.7846673567324 55.65040955535275 L 1340.906913767947 55.742981187620146 L 1341.0271063043076 55.83610080289723 L 1341.145232946661 55.92975908930006 L 1341.2612818824418 56.02394668107806 L 1341.3752415068527 56.11865415955053 L 1341.4871004240263 56.213872054048544 L 1341.5968474481642 56.30959084286201 L 1341.7044716046553 56.405800954191804 L 1341.8099621311737 56.50249276710697 L 1341.913308478755 56.5996566125068 L 1342.0145003128498 56.69728277408771 L 1342.1135275143597 56.79536148931491 L 1342.2103801806468 56.89388295039859 L 1342.3050486265251 56.99283730527477 L 1342.397523385229 57.09221465859041 L 1342.4877952093598 57.19200507269298 L 1342.57585507181 57.29219856862425 L 1342.6616941666673 57.39278512711811 L 1342.745303910093 57.49375468960253 L 1342.826675941183 57.59509715920541 L 1342.905802122802 57.69680240176424 L 1342.9826745423975 57.79886024683951 L 1343.0572855127916 57.90126048873177 L 1343.1296275729496 58.003992887502164 L 1343.1996934887259 58.10704716999642 L 1343.267476253587 58.21041303087217 L 1343.3329690893129 58.31408013362946 L 1343.3961654466748 58.41803811164441 L 1343.4570590060894 58.52227656920584 L 1343.5156436782518 58.62678508255487 L 1343.5719136047435 58.731553200927245 L 1343.6258631586188 58.83657044759845 L 1343.6774869449669 58.94182632093131 L 1343.7267798014527 59.04731029542622 L 1343.7737367988311 59.153011822773635 L 1343.818353241442 59.25892033290889 L 1343.8606246676782 59.36502523506925 L 1343.900546850432 59.471315918852895 L 1343.9381157975185 59.57778175528004 L 1343.9733277520747 59.684412097855756 L 1344.006179192934 59.79119628363465 L 1344.0366668349798 59.89812363428712 L 1344.0647876294736 60.005183457167206 L 1344.090538764359 60.11236504638185 L 1344.113917664544 60.21965768386144 L 1344.1349219921585 60.327050640431644 L 1344.1535496467866 60.43453317688629 L 1344.169798765679 60.5420945450613 L 1344.1836677239369 60.6497239889095 L 1344.195155134676 60.757410745576195 L 1344.2042598491653 60.86514404647545 L 1344.2109809569404 60.972913118366954 L 1344.2153177858966 61.08070718443333 L 1344.217269902354 61.188515465357796 M 1344.21739089241 95.52678387991818 L 1344.2161984325064 95.6345944248348 L 1344.2126211720404 95.74239418878678 L 1344.2066594687349 95.85017239188754 L 1344.1983139187557 95.95791825640659 L 1344.1875853566505 96.06562100784727 L 1344.1744748552667 96.1732698760242 L 1344.1589837256433 96.28085409614023 L 1344.1411135168808 96.38836290986303 L 1344.1208660159848 96.49578556640084 L 1344.0982432476885 96.60311132357748 L 1344.0732474742501 96.7103294489067 L 1344.0458811952262 96.8174292206653 L 1344.0161471472215 96.92439992896537 L 1343.9840483036164 97.0312308768252 L 1343.9495878742682 97.13791138123905 L 1343.9127693051914 97.24443077424536 L 1343.8735962782123 97.35077840399362 L 1343.8320727106004 97.45694363580944 L 1343.7882027546784 97.56291585325815 L 1343.7419907974052 97.66868445920629 L 1343.6934414599377 97.77423887688141 L 1343.6425595971698 97.8795685509297 L 1343.5893502972447 97.98466294847155 L 1343.5338188810485 98.08951156015478 L 1343.4759709016766 98.19410390120557 L 1343.4158121438784 98.29842951247699 L 1343.3533486234796 98.40247796149485 L 1343.2885865867806 98.50623884350097 L 1343.2215325099305 98.60970178249359 L 1343.1521930982815 98.71285643226504 L 1343.080575285717 98.81569247743631 L 1343.0066862339584 98.91819963448859 L 1342.9305333318491 99.02036765279156 L 1342.8521241946164 99.12218631562857 L 1342.7714666631084 99.22364544121817 L 1342.6885688030109 99.32473488373233 L 1342.603438904041 99.42544453431107 L 1342.5160854791177 99.52576432207324 L 1342.4265172635105 99.62568421512367 L 1342.3347432139662 99.72519422155631 L 1342.240772507814 99.82428439045346 L 1342.1446145420455 99.92294481288079 L 1342.0462789323772 100.02116562287829 L 1341.9457755122885 100.11893699844678 L 1341.8431143320372 100.2162491625302 L 1341.7383056576562 100.31309238399325 L 1341.6313599699254 100.40945697859446 L 1341.5222879633245 100.50533330995468 L 1341.4111005449631 100.60071179052068 L 1341.2978088334905 100.69558288252388 L 1341.1824241579836 100.78993709893413 L 1341.0649580568136 100.88376500440843 L 1340.9454222764928 100.97705721623441 L 1340.8238287704994 101.06980440526866 L 1340.700189698083 101.16199729686952 L 1340.5745174230476 101.25362667182469 L 1340.446824512516 101.34468336727302 L 1340.3171237356732 101.43515827762084 L 1340.1854280624882 101.52504235545253 L 1340.051750662419 101.61432661243519 L 1339.916104903094 101.70300212021755 L 1339.7785043489762 101.7910600113227 L 1339.6389627600063 101.87849148003492 L 1339.497494090227 101.9652877832802 L 1339.3541124863873 102.05144024150056 L 1339.208832286528 102.13694023952193 L 1339.0616680185483 102.22177922741581 L 1338.912634398752 102.30594872135407 L 1338.7617463303773 102.38944030445748 L 1338.609018902105 102.47224562763729 L 1338.4544673865505 102.5543564104302 L 1338.298107238737 102.63576444182635 L 1338.1399540945488 102.71646158109044 L 1337.9800237691686 102.79643975857579 L 1337.8183322554953 102.8756909765313 L 1337.654895722546 102.95420730990122 L 1337.4897305138375 103.03198090711763 L 1337.3228531457532 103.10900399088564 L 1337.1542803058908 103.18526885896105 L 1336.9840288513935 103.2607678849206 L 1336.8121158072654 103.33549351892461 L 1336.6385583646675 103.40943828847196 L 1336.463373879199 103.48259479914732 L 1336.286579869163 103.55495573536056 L 1336.1081940138129 103.6265138610784 L 1335.9282341515857 103.69726202054787 L 1335.7467182783175 103.76719313901197 L 1335.5636645454447 103.83630022341715 L 1335.3790912581876 103.90457636311257 L 1335.1930168737215 103.97201473054113 L 1335.0054599993296 104.03860858192229 L 1334.8164393905429 104.10435125792642 L 1334.625973949265 104.1692361843407 L 1334.4340827218812 104.23325687272656 L 1334.2407848973544 104.29640692106851 L 1334.0460998053059 104.35868001441433 L 1333.8500469140827 104.4200699255066 L 1333.6526458288106 104.48057051540535 L 1333.4539162894334 104.54017573410202 L 1333.2538781687397 104.5988796211244 L 1333.0525514703747 104.65667630613272 L 1332.8499563268406 104.71356000950664 L 1332.646112997483 104.7695250429232 L 1332.4410418664645 104.82456580992574 L 1332.2347634407279 104.87867680648341 L 1332.0272983479435 104.93185262154162 L 1331.8186673344478 104.98408793756322 L 1331.6088912631683 105.0353775310601 L 1331.3979911115373 105.08571627311568 L 1331.1859879693943 105.13509912989768 L 1330.9729030368767 105.1835211631616 L 1330.7587576223002 105.23097753074444 L 1330.543573140028 105.27746348704899 L 1330.3273711083289 105.32297438351839 L 1330.1101731472256 105.36750566910086 L 1329.8920009763335 105.41105289070501 L 1329.672876412688 105.45361169364494 L 1329.4528213685628 105.49517782207583 L 1329.2318578492786 105.53574711941947 L 1329.0100079510037 105.57531552877992 L 1328.7872938585426 105.61387909334925 L 1328.5637378431193 105.65143395680312 L 1328.3393622601486 105.68797636368647 L 1328.1141895470023 105.72350265978909 L 1327.888242220764 105.75800929251095 L 1327.6615428759778 105.79149281121755 L 1327.4341141823893 105.82394986758491 L 1327.2059788826787 105.85537721593445 L 1326.9771597901852 105.88577171355752 L 1326.747679786628 105.9151303210297 L 1326.517561819816 105.94345010251467 L 1326.2868289013538 105.97072822605791 L 1326.0555041043415 105.99696196386981 L 1325.8236105610656 106.02214869259844 L 1325.5911714606875 106.04628589359189 L 1325.3582100469234 106.0693711531502 L 1325.1247496157205 106.09140216276666 L 1324.8908135129275 106.11237671935864 L 1324.6564251319596 106.13229272548797 L 1324.4216079114597 106.15114818957065 L 1324.186385332954 106.16894122607596 L 1323.9507809185043 106.1856700557151 L 1323.714818228356 106.20133300561903 L 1323.4785208585813 106.21592850950582 L 1323.2419124387202 106.22945510783724 L 1323.0050166294177 106.24191144796474 L 1322.7678571200572 106.25329628426466 L 1322.530457626392 106.2636084782629 L 1322.2928418881736 106.2728469987486 L 1322.055033666778 106.28101092187747 L 1321.817056742829 106.28809943126396 L 1321.5789349138206 106.29411181806304 L 1321.3406919917372 106.29904748104106 L 1321.102351800673 106.30290592663582 L 1320.8639381744479 106.30568676900597 L 1320.6254749542263 106.30738973006962 L 1320.386985986131 106.30801463953205 L 1320.1484951188606 106.30756143490284 L 1319.9100262013028 106.3060301615021 L 1319.6716030801506 106.30342097245587 L 1319.4332495975175 106.29973412868088 L 1319.1949895885532 106.29496999885845 L 1318.9568468790599 106.28912905939758 L 1318.71884528311 106.28221189438736 L 1318.4810086006653 106.27421919553852 L 1318.2433606151953 106.26515176211427 L 1318.005925091301 106.25501050085043 L 1317.7687257723362 106.24379642586464 L 1317.5317863780358 106.23151065855508 L 1317.2951306021414 106.21815442748823 L 1317.0587821100337 106.20372906827606 L 1316.8227645363647 106.1882360234425 L 1316.587101482695 106.17167684227908 L 1316.351816515134 106.15405318069014 L 1316.116933161982 106.13536680102716 L 1315.8824749113787 106.11561957191253 L 1315.6484652089537 106.09481346805269 L 1315.4149274554825 106.0729505700407 L 1315.1818850045454 106.05003306414814 L 1314.9493611601938 106.0260632421065 L 1314.717379174618 106.00104350087803 L 1314.4859622458232 105.97497634241597 L 1314.2551335153098 105.94786437341445 L 1314.0249160657581 105.9197103050478 L 1313.7953329187217 105.89051695269937 L 1313.5664070323235 105.86028723568009 L 1313.3381612989615 105.82902417693644 L 1313.1106185430187 105.79673090274827 L 1312.8838015185815 105.76341064241608 L 1312.6577329071629 105.72906672793813 L 1312.432435315436 105.69370259367726 L 1312.207931272972 105.6573217760174 L 1311.9842432299881 105.61992791301003 L 1311.7613935551021 105.58152474401028 L 1311.539404533096 105.54211610930304 L 1311.3182983626868 105.50170594971894 L 1311.0980971543077 105.46029830624026 L 1310.8788229278953 105.41789731959686 L 1310.66049761069 105.37450722985206 L 1310.4431430350419 105.33013237597868 L 1310.2267809362268 105.28477719542511 L 1310.0114329502744 105.23844622367163 L 1309.797120611804 105.1911440937768 L 1309.583865351871 105.14287553591419 L 1309.3716884958235 105.09364537689936 L 1309.1606112611703 105.0434585397072 L 1308.950654755459 104.99232004297959 L 1308.741839974165 104.9402350005236 L 1308.5341877985927 104.88720862080007 L 1308.3277189937864 104.83324620640276 L 1308.122454206455 104.77835315352817 L 1307.9184139629053 104.72253495143585 L 1307.7156186669924 104.66579718189945 L 1307.5140885980768 104.60814551864868 L 1307.313843908997 104.54958572680184 L 1307.1149046240555 104.49012366228926 L 1306.9172906370147 104.42976527126788 L 1306.7210217091088 104.36851658952648 L 1306.526117467067 104.30638374188221 L 1306.332597401151 104.24337294156805 L 1306.1404808632062 104.17949048961154 L 1305.9497870647265 104.11474277420461 L 1305.7605350749325 104.04913627006486 L 1305.5727438188655 103.98267753778805 L 1305.386432075495 103.91537322319199 L 1305.2016184758395 103.84723005665208 L 1305.0183215011054 103.77825485242818 L 1304.8365594808372 103.70845450798322 L 1304.6563505910856 103.63783600329349 L 1304.4777128525893 103.56640640015061 L 1304.3006641289735 103.49417284145538 L 1304.1252221249626 103.42114255050346 L 1303.9514043846111 103.3473228302631 L 1303.7792282895482 103.27272106264479 L 1303.60871105724 103.19734470776314 L 1303.4398697392674 103.1212013031908 L 1303.2727212196214 103.04429846320481 L 1303.107282213015 102.96664387802507 L 1302.943569263211 102.88824531304537 L 1302.7815987413676 102.8091106080569 L 1302.6213868444022 102.72924767646418 L 1302.4629495933711 102.64866450449387 L 1302.3063028318675 102.56736915039596 L 1302.1514622244365 102.48536974363815 L 1301.9984432550102 102.40267448409276 L 1301.847261225358 102.31929164121684 L 1301.6979312535566 102.2352295532252 L 1301.550468272479 102.15049662625658 L 1301.4048870283007 102.06510133353308 L 1301.261202079024 101.97905221451278 L 1301.119427793025 101.89235787403591 L 1300.9795783476134 101.80502698146424 L 1300.8416677276177 101.71706826981428 L 1300.7057097239847 101.62849053488388 L 1300.5717179324017 101.53930263437272 L 1300.439705751936 101.44951348699652 L 1300.3096863836956 101.35913207159521 L 1300.1816728295091 101.26816742623502 L 1300.0556778906252 101.17662864730465 L 1299.9317141664328 101.08452488860574 L 1299.8097940532011 100.9918653604374 L 1299.6899297428397 100.89865932867522 L 1299.5721332216797 100.80491611384473 L 1299.4564162692752 100.71064509018925 L 1299.3427904572252 100.61585568473262 L 1299.2312671480156 100.5205573763364 L 1299.121857493885 100.424759694752 L 1299.0145724357074 100.32847221966773 L 1298.909422701899 100.2317045797509 L 1298.806418807346 100.13446645168483 L 1298.7055710523518 100.03676755920131 L 1298.6068895216076 99.93861767210817 L 1298.5103840831848 99.84002660531232 L 1298.4160643875462 99.7410042178383 L 1298.3239398665833 99.64156041184232 L 1298.2340197326712 99.54170513162211 L 1298.146312977748 99.4414483626225 L 1298.0608283724168 99.34080013043682 L 1297.9775744650665 99.23977049980442 L 1297.8965595810187 99.13836957360418 L 1297.8177918216938 99.03660749184422 L 1297.7412790638025 98.9344944306479 L 1297.6670289585568 98.83204060123627 L 1297.595048930905 98.72925624890688 L 1297.5253461787904 98.6261516520093 L 1297.4579276724298 98.52273712091731 L 1297.3928001536178 98.41902299699785 L 1297.329970135052 98.31501965157686 L 1297.2694438996818 98.21073748490224 L 1297.2112275000804 98.10618692510373 L 1297.155326757839 98.0013784271502 L 1297.1017472629856 97.89632247180411 L 1297.050494373425 97.79102956457344 L 1297.001573214403 97.68551023466115 L 1296.9549886779953 97.57977503391233 L 1296.9107454226162 97.47383453575894 L 1296.8688478725549 97.3676993341625 L 1296.829300217531 97.2613800425547 L 1296.7921064122775 97.15488729277617 L 1296.7572701761435 97.04823173401307 L 1296.724794992724 96.94142403173245 L 1296.6946841095098 96.8344748666155 L 1296.6669405375646 96.72739493348962 L 1296.6415670512222 96.6201949402589 L 1296.6185661878103 96.51288560683331 L 1296.5979402473959 96.40547766405678 L 1296.5796912925557 96.29798185263407 L 1296.5638211481703 96.19040892205675 L 1296.5503314012408 96.08276962952824 L 1296.5392234007306 95.9750747388881 L 1296.5304982574305 95.86733501953563 L 1296.5241568438475 95.75956124535298 L 1296.5201997941178 95.65176419362778 L 1296.5186275039432 95.54395464397535" stroke-miterlimit="10" stroke-width="2.7769845610000004" stroke-dasharray=""/></g><g><g/><text fill="black" stroke="none" font-family="sans-serif" font-size="11pt" font-style="normal" font-weight="normal" text-decoration="normal" x="1260.475385431832" y="123.83569119881818" text-anchor="start" dominant-baseline="alphabetic" xml:space="preserve">Amenity Database</text></g></g><g><path fill="white" stroke="black" paint-order="fill stroke markers" d=" M 390.6982429249349 182.64242307881818 L 407.0334462249349 182.64242307881818 L 407.0334462249349 1045.1411573188177 L 390.6982429249349 1045.1411573188177 L 390.6982429249349 182.64242307881818" stroke-miterlimit="10" stroke-width="1.3612669416666667" stroke-dasharray=""/><path fill="white" stroke="black" paint-order="fill stroke markers" d=" M 1151.5739047377576 274.1195615588182 L 1167.9091080377577 274.1195615588182 L 1167.9091080377577 2092.2276888488186 L 1151.5739047377576 2092.2276888488186 L 1151.5739047377576 274.1195615588182" stroke-miterlimit="10" stroke-width="1.3612669416666667" stroke-dasharray=""/><path fill="white" stroke="black" paint-order="fill stroke markers" d=" M 957.7620439193358 545.2839363388182 L 974.0972472193359 545.2839363388182 L 974.0972472193359 953.6640188388178 L 957.7620439193358 953.6640188388178 L 957.7620439193358 545.2839363388182" stroke-miterlimit="10" stroke-width="1.3612669416666667" stroke-dasharray=""/><path fill="white" stroke="black" paint-order="fill stroke markers" d=" M 1312.20039242441 591.0225055788181 L 1328.53559572441 591.0225055788181 L 1328.53559572441 907.9254495988179 L 1312.20039242441 907.9254495988179 L 1312.20039242441 591.0225055788181" stroke-miterlimit="10" stroke-width="1.3612669416666667" stroke-dasharray=""/><path fill="white" stroke="black" paint-order="fill stroke markers" d=" M 390.6982429249349 1139.8853364588176 L 407.0334462249349 1139.8853364588176 L 407.0334462249349 2002.3840706988187 L 390.6982429249349 2002.3840706988187 L 390.6982429249349 1139.8853364588176" stroke-miterlimit="10" stroke-width="1.3612669416666667" stroke-dasharray=""/><path fill="white" stroke="black" paint-order="fill stroke markers" d=" M 1159.7415063877577 1231.3624749388177 L 1176.0767096877578 1231.3624749388177 L 1176.0767096877578 2092.2276888488186 L 1159.7415063877577 2092.2276888488186 L 1159.7415063877577 1231.3624749388177" stroke-miterlimit="10" stroke-width="1.3612669416666667" stroke-dasharray=""/><path fill="white" stroke="black" paint-order="fill stroke markers" d=" M 957.7620439193358 1502.526849718818 L 974.0972472193359 1502.526849718818 L 974.0972472193359 1910.9069322188186 L 957.7620439193358 1910.9069322188186 L 957.7620439193358 1502.526849718818" stroke-miterlimit="10" stroke-width="1.3612669416666667" stroke-dasharray=""/><path fill="white" stroke="black" paint-order="fill stroke markers" d=" M 1312.20039242441 1548.2654189588181 L 1328.53559572441 1548.2654189588181 L 1328.53559572441 1865.1683629788185 L 1312.20039242441 1865.1683629788185 L 1312.20039242441 1548.2654189588181" stroke-miterlimit="10" stroke-width="1.3612669416666667" stroke-dasharray=""/><g><text fill="black" stroke="none" font-family="sans-serif" font-size="16pt" font-style="normal" font-weight="normal" text-decoration="normal" x="662.1740341186523" y="24.651306798181814" text-anchor="start" dominant-baseline="alphabetic" xml:space="preserve">Amenities</text></g><g><rect fill="white" stroke="none" x="141.26735872166668" y="161.4066587888182" width="198.00714363160156" height="21.23576429"/><text fill="black" stroke="none" font-family="sans-serif" font-size="11pt" font-style="normal" font-weight="normal" text-decoration="normal" x="143.71763921666667" y="176.10834175881817" text-anchor="start" dominant-baseline="alphabetic" xml:space="preserve">(1) Request to view amenities</text></g><g><path fill="none" stroke="black" paint-order="fill stroke markers" d=" M 89.84361815 182.64242307881818 L 377.24892554126825 182.64242307881818" stroke-miterlimit="10" stroke-width="1.3612669416666667" stroke-dasharray=""/><g transform="translate(390.6982429249349,182.64242307881818) translate(-390.6982429249349,-182.64242307881818)"><path fill="black" stroke="none" paint-order="stroke fill markers" d=" M 377.0855735082682 175.83608837048484 L 390.6982429249349 182.64242307881818 L 377.0855735082682 189.44875778715152 Z"/></g></g><g><rect fill="white" stroke="none" x="436.5567046188671" y="207.1452280288182" width="207.77806343140625" height="21.23576429"/><text fill="black" stroke="none" font-family="sans-serif" font-size="11pt" font-style="normal" font-weight="normal" text-decoration="normal" x="439.00698511386713" y="221.84691099881817" text-anchor="start" dominant-baseline="alphabetic" xml:space="preserve">(2) Request for list of amenities</text></g><g><path fill="none" stroke="black" paint-order="fill stroke markers" d=" M 407.0334462249349 228.3809923188182 L 660.4087090605391 228.3809923188182" stroke-miterlimit="10" stroke-width="1.3612669416666667" stroke-dasharray=""/><g transform="translate(673.8580264442057,228.3809923188182) translate(-673.8580264442057,-228.3809923188182)"><path fill="black" stroke="none" paint-order="stroke fill markers" d=" M 660.2453570275391 221.57465761048485 L 673.8580264442057 228.3809923188182 L 660.2453570275391 235.18732702715153 Z"/></g></g><g><rect fill="white" stroke="none" x="832.1841268684426" y="252.88379726881823" width="161.06367744507813" height="21.23576429"/><text fill="black" stroke="none" font-family="sans-serif" font-size="11pt" font-style="normal" font-weight="normal" text-decoration="normal" x="834.6344073634426" y="267.5854802388182" text-anchor="start" dominant-baseline="alphabetic" xml:space="preserve">(3) Validate permissions</text></g><g><path fill="none" stroke="black" paint-order="fill stroke markers" d=" M 673.8580264442057 274.1195615588182 L 1138.1245873540909 274.1195615588182" stroke-miterlimit="10" stroke-width="1.3612669416666667" stroke-dasharray=""/><g transform="translate(1151.5739047377576,274.1195615588182) translate(-1151.5739047377576,-274.1195615588182)"><path fill="black" stroke="none" paint-order="stroke fill markers" d=" M 1137.961235321091 267.31322685048485 L 1151.5739047377576 274.1195615588182 L 1137.961235321091 280.92589626715153 Z"/></g></g><g><rect fill="white" stroke="none" x="841.411025061802" y="342.72741541881817" width="142.60988105835938" height="21.23576429"/><text fill="black" stroke="none" font-family="sans-serif" font-size="11pt" font-style="normal" font-weight="normal" text-decoration="normal" x="843.861305556802" y="357.42909838881815" text-anchor="start" dominant-baseline="alphabetic" xml:space="preserve">(4) Return 403 status</text></g><g><path fill="none" stroke="black" paint-order="fill stroke markers" d=" M 1151.5739047377576 363.9631797088182 L 687.3073438278724 363.9631797088182" stroke-miterlimit="10" stroke-width="1.3612669416666667" stroke-dasharray="6.53408132"/><g transform="translate(673.8580264442057,363.9631797088182) translate(-673.8580264442057,-363.9631797088182)"><path fill="black" stroke="none" paint-order="stroke fill markers" d=" M 687.4706958608724 357.15684500048485 L 673.8580264442057 363.9631797088182 L 687.4706958608724 370.7695144171515 Z"/></g></g><g><rect fill="white" stroke="none" x="470.772868254121" y="388.4659846588182" width="139.34573616089844" height="21.23576429"/><text fill="black" stroke="none" font-family="sans-serif" font-size="11pt" font-style="normal" font-weight="normal" text-decoration="normal" x="473.22314874912104" y="403.16766762881815" text-anchor="start" dominant-baseline="alphabetic" xml:space="preserve">(5) Return response </text></g><g><path fill="none" stroke="black" paint-order="fill stroke markers" d=" M 673.8580264442057 409.7017489488182 L 420.48276360860154 409.7017489488182" stroke-miterlimit="10" stroke-width="1.3612669416666667" stroke-dasharray="6.53408132"/><g transform="translate(407.0334462249349,409.7017489488182) translate(-407.0334462249349,-409.7017489488182)"><path fill="black" stroke="none" paint-order="stroke fill markers" d=" M 420.64611564160157 402.89541424048485 L 407.0334462249349 409.7017489488182 L 420.64611564160157 416.50808365715153 Z"/></g></g><g><rect fill="white" stroke="none" x="117.73839754002604" y="434.2045538988182" width="245.06506599488281" height="21.23576429"/><text fill="black" stroke="none" font-family="sans-serif" font-size="11pt" font-style="normal" font-weight="normal" text-decoration="normal" x="120.18867803502604" y="448.90623686881816" text-anchor="start" dominant-baseline="alphabetic" xml:space="preserve">(6) Display error "Permission denied"</text></g><g><path fill="none" stroke="black" paint-order="fill stroke markers" d=" M 390.6982429249349 455.4403181888182 L 103.29293553366666 455.4403181888182" stroke-miterlimit="10" stroke-width="1.3612669416666667" stroke-dasharray="6.53408132"/><g transform="translate(89.84361815,455.4403181888182) translate(-89.84361815,-455.4403181888182)"><path fill="black" stroke="none" paint-order="stroke fill markers" d=" M 103.45628756666666 448.63398348048486 L 89.84361815 455.4403181888182 L 103.45628756666666 462.24665289715153 Z"/></g></g><g><rect fill="white" stroke="none" x="697.2646085075716" y="524.0481720488182" width="237.09085334839844" height="21.23576429"/><text fill="black" stroke="none" font-family="sans-serif" font-size="11pt" font-style="normal" font-weight="normal" text-decoration="normal" x="699.7148890025716" y="538.7498550188182" text-anchor="start" dominant-baseline="alphabetic" xml:space="preserve">(7) Route to Amenities Microservice</text></g><g><path fill="none" stroke="black" paint-order="fill stroke markers" d=" M 673.8580264442057 545.2839363388182 L 944.3127265356692 545.2839363388182" stroke-miterlimit="10" stroke-width="1.3612669416666667" stroke-dasharray=""/><g transform="translate(957.7620439193358,545.2839363388182) translate(-957.7620439193358,-545.2839363388182)"><path fill="black" stroke="none" paint-order="stroke fill markers" d=" M 944.1493745026692 538.4776016304849 L 957.7620439193358 545.2839363388182 L 944.1493745026692 552.0902710471515 Z"/></g></g><g><rect fill="white" stroke="none" x="1065.7451015216973" y="569.7867412888181" width="154.80743660035156" height="21.23576429"/><text fill="black" stroke="none" font-family="sans-serif" font-size="11pt" font-style="normal" font-weight="normal" text-decoration="normal" x="1068.1953820166973" y="584.4884242588181" text-anchor="start" dominant-baseline="alphabetic" xml:space="preserve">(8) Query for amenities</text></g><g><path fill="none" stroke="black" paint-order="fill stroke markers" d=" M 974.0972472193359 591.0225055788181 L 1298.7510750407432 591.0225055788181" stroke-miterlimit="10" stroke-width="1.3612669416666667" stroke-dasharray=""/><g transform="translate(1312.20039242441,591.0225055788181) translate(-1312.20039242441,-591.0225055788181)"><path fill="black" stroke="none" paint-order="stroke fill markers" d=" M 1298.5877230077433 584.2161708704848 L 1312.20039242441 591.0225055788181 L 1298.5877230077433 597.8288402871515 Z"/></g></g><g><rect fill="white" stroke="none" x="1094.2561870319512" y="659.630359438818" width="97.78526557984375" height="21.23576429"/><text fill="black" stroke="none" font-family="sans-serif" font-size="11pt" font-style="normal" font-weight="normal" text-decoration="normal" x="1096.7064675269512" y="674.332042408818" text-anchor="start" dominant-baseline="alphabetic" xml:space="preserve">(9) Return null</text></g><g><path fill="none" stroke="black" paint-order="fill stroke markers" d=" M 1312.20039242441 680.866123728818 L 987.5465646030026 680.866123728818" stroke-miterlimit="10" stroke-width="1.3612669416666667" stroke-dasharray="6.53408132"/><g transform="translate(974.0972472193359,680.866123728818) translate(-974.0972472193359,-680.866123728818)"><path fill="black" stroke="none" paint-order="stroke fill markers" d=" M 987.7099166360026 674.0597890204847 L 974.0972472193359 680.866123728818 L 987.7099166360026 687.6724584371514 Z"/></g></g><g><rect fill="white" stroke="none" x="740.4285031608919" y="705.368928678818" width="150.76306404175781" height="21.23576429"/><text fill="black" stroke="none" font-family="sans-serif" font-size="11pt" font-style="normal" font-weight="normal" text-decoration="normal" x="742.8787836558919" y="720.0706116488179" text-anchor="start" dominant-baseline="alphabetic" xml:space="preserve">(10) Return 404 status</text></g><g><path fill="none" stroke="black" paint-order="fill stroke markers" d=" M 957.7620439193358 726.604692968818 L 687.3073438278724 726.604692968818" stroke-miterlimit="10" stroke-width="1.3612669416666667" stroke-dasharray="6.53408132"/><g transform="translate(673.8580264442057,726.604692968818) translate(-673.8580264442057,-726.604692968818)"><path fill="black" stroke="none" paint-order="stroke fill markers" d=" M 687.4706958608724 719.7983582604846 L 673.8580264442057 726.604692968818 L 687.4706958608724 733.4110276771513 Z"/></g></g><g><rect fill="white" stroke="none" x="467.2402983688671" y="751.1074979188179" width="146.41087593140625" height="21.23576429"/><text fill="black" stroke="none" font-family="sans-serif" font-size="11pt" font-style="normal" font-weight="normal" text-decoration="normal" x="469.69057886386713" y="765.8091808888179" text-anchor="start" dominant-baseline="alphabetic" xml:space="preserve">(11) Return response </text></g><g><path fill="none" stroke="black" paint-order="fill stroke markers" d=" M 673.8580264442057 772.3432622088179 L 420.48276360860154 772.3432622088179" stroke-miterlimit="10" stroke-width="1.3612669416666667" stroke-dasharray="6.53408132"/><g transform="translate(407.0334462249349,772.3432622088179) translate(-407.0334462249349,-772.3432622088179)"><path fill="black" stroke="none" paint-order="stroke fill markers" d=" M 420.64611564160157 765.5369275004846 L 407.0334462249349 772.3432622088179 L 420.64611564160157 779.1495969171513 Z"/></g></g><g><rect fill="white" stroke="none" x="109.17360872166667" y="796.8460671588178" width="262.1946283728125" height="21.23576429"/><text fill="black" stroke="none" font-family="sans-serif" font-size="11pt" font-style="normal" font-weight="normal" text-decoration="normal" x="111.62388921666667" y="811.5477501288178" text-anchor="start" dominant-baseline="alphabetic" xml:space="preserve">(12) Display error "Amenities not found"</text></g><g><path fill="none" stroke="black" paint-order="fill stroke markers" d=" M 390.6982429249349 818.0818314488179 L 103.29293553366666 818.0818314488179" stroke-miterlimit="10" stroke-width="1.3612669416666667" stroke-dasharray="6.53408132"/><g transform="translate(89.84361815,818.0818314488179) translate(-89.84361815,-818.0818314488179)"><path fill="black" stroke="none" paint-order="stroke fill markers" d=" M 103.45628756666666 811.2754967404845 L 89.84361815 818.0818314488179 L 103.45628756666666 824.8881661571512 Z"/></g></g><g><rect fill="white" stroke="none" x="1057.9927745563652" y="886.6896853088178" width="170.31209053101563" height="21.23576429"/><text fill="black" stroke="none" font-family="sans-serif" font-size="11pt" font-style="normal" font-weight="normal" text-decoration="normal" x="1060.4430550513653" y="901.3913682788178" text-anchor="start" dominant-baseline="alphabetic" xml:space="preserve">(9) Return amenities data</text></g><g><path fill="none" stroke="black" paint-order="fill stroke markers" d=" M 1312.20039242441 907.9254495988179 L 987.5465646030026 907.9254495988179" stroke-miterlimit="10" stroke-width="1.3612669416666667" stroke-dasharray="6.53408132"/><g transform="translate(974.0972472193359,907.9254495988179) translate(-974.0972472193359,-907.9254495988179)"><path fill="black" stroke="none" paint-order="stroke fill markers" d=" M 987.7099166360026 901.1191148904845 L 974.0972472193359 907.9254495988179 L 987.7099166360026 914.7317843071512 Z"/></g></g><g><rect fill="white" stroke="none" x="740.4285031608919" y="932.4282545488178" width="150.76306404175781" height="21.23576429"/><text fill="black" stroke="none" font-family="sans-serif" font-size="11pt" font-style="normal" font-weight="normal" text-decoration="normal" x="742.8787836558919" y="947.1299375188178" text-anchor="start" dominant-baseline="alphabetic" xml:space="preserve">(10) Return 200 status</text></g><g><path fill="none" stroke="black" paint-order="fill stroke markers" d=" M 957.7620439193358 953.6640188388178 L 687.3073438278724 953.6640188388178" stroke-miterlimit="10" stroke-width="1.3612669416666667" stroke-dasharray="6.53408132"/><g transform="translate(673.8580264442057,953.6640188388178) translate(-673.8580264442057,-953.6640188388178)"><path fill="black" stroke="none" paint-order="stroke fill markers" d=" M 687.4706958608724 946.8576841304845 L 673.8580264442057 953.6640188388178 L 687.4706958608724 960.4703535471511 Z"/></g></g><g><rect fill="white" stroke="none" x="467.2402983688671" y="978.1668237888177" width="146.41087593140625" height="21.23576429"/><text fill="black" stroke="none" font-family="sans-serif" font-size="11pt" font-style="normal" font-weight="normal" text-decoration="normal" x="469.69057886386713" y="992.8685067588177" text-anchor="start" dominant-baseline="alphabetic" xml:space="preserve">(11) Return response </text></g><g><path fill="none" stroke="black" paint-order="fill stroke markers" d=" M 673.8580264442057 999.4025880788178 L 420.48276360860154 999.4025880788178" stroke-miterlimit="10" stroke-width="1.3612669416666667" stroke-dasharray="6.53408132"/><g transform="translate(407.0334462249349,999.4025880788178) translate(-407.0334462249349,-999.4025880788178)"><path fill="black" stroke="none" paint-order="stroke fill markers" d=" M 420.64611564160157 992.5962533704844 L 407.0334462249349 999.4025880788178 L 420.64611564160157 1006.2089227871511 Z"/></g></g><g><rect fill="white" stroke="none" x="154.31318086522137" y="1023.9053930288177" width="171.9154993444922" height="21.23576429"/><text fill="black" stroke="none" font-family="sans-serif" font-size="11pt" font-style="normal" font-weight="normal" text-decoration="normal" x="156.76346136022136" y="1038.6070759988177" text-anchor="start" dominant-baseline="alphabetic" xml:space="preserve">(12) Display amenities list</text></g><g><path fill="none" stroke="black" paint-order="fill stroke markers" d=" M 390.6982429249349 1045.1411573188177 L 103.29293553366666 1045.1411573188177" stroke-miterlimit="10" stroke-width="1.3612669416666667" stroke-dasharray="6.53408132"/><g transform="translate(89.84361815,1045.1411573188177) translate(-89.84361815,-1045.1411573188177)"><path fill="black" stroke="none" paint-order="stroke fill markers" d=" M 103.45628756666666 1038.3348226104845 L 89.84361815 1045.1411573188177 L 103.45628756666666 1051.947492027151 Z"/></g></g><g><rect fill="white" stroke="none" x="111.92950624363932" y="1118.6495721688177" width="256.6828485876562" height="21.23576429"/><text fill="black" stroke="none" font-family="sans-serif" font-size="11pt" font-style="normal" font-weight="normal" text-decoration="normal" x="114.37978673863932" y="1133.3512551388178" text-anchor="start" dominant-baseline="alphabetic" xml:space="preserve">(13) Request to view specified amenity</text></g><g><path fill="none" stroke="black" paint-order="fill stroke markers" d=" M 89.84361815 1139.8853364588176 L 377.24892554126825 1139.8853364588176" stroke-miterlimit="10" stroke-width="1.3612669416666667" stroke-dasharray=""/><g transform="translate(390.6982429249349,1139.8853364588176) translate(-390.6982429249349,-1139.8853364588176)"><path fill="black" stroke="none" paint-order="stroke fill markers" d=" M 377.0855735082682 1133.0790017504844 L 390.6982429249349 1139.8853364588176 L 377.0855735082682 1146.6916711671508 Z"/></g></g><g><rect fill="white" stroke="none" x="426.3634367966015" y="1164.3881414088178" width="228.1645990759375" height="21.23576429"/><text fill="black" stroke="none" font-family="sans-serif" font-size="11pt" font-style="normal" font-weight="normal" text-decoration="normal" x="428.8137172916015" y="1179.0898243788179" text-anchor="start" dominant-baseline="alphabetic" xml:space="preserve">(14) Request for specified amenity</text></g><g><path fill="none" stroke="black" paint-order="fill stroke markers" d=" M 407.0334462249349 1185.6239056988177 L 660.4087090605391 1185.6239056988177" stroke-miterlimit="10" stroke-width="1.3612669416666667" stroke-dasharray=""/><g transform="translate(673.8580264442057,1185.6239056988177) translate(-673.8580264442057,-1185.6239056988177)"><path fill="black" stroke="none" paint-order="stroke fill markers" d=" M 660.2453570275391 1178.8175709904845 L 673.8580264442057 1185.6239056988177 L 660.2453570275391 1192.430240407151 Z"/></g></g><g><rect fill="white" stroke="none" x="832.1913362017434" y="1210.1267106488178" width="169.21686042847656" height="21.23576429"/><text fill="black" stroke="none" font-family="sans-serif" font-size="11pt" font-style="normal" font-weight="normal" text-decoration="normal" x="834.6416166967434" y="1224.828393618818" text-anchor="start" dominant-baseline="alphabetic" xml:space="preserve">(15) Validate permissions</text></g><g><path fill="none" stroke="black" paint-order="fill stroke markers" d=" M 673.8580264442057 1231.3624749388177 L 1146.292189004091 1231.3624749388177" stroke-miterlimit="10" stroke-width="1.3612669416666667" stroke-dasharray=""/><g transform="translate(1159.7415063877577,1231.3624749388177) translate(-1159.7415063877577,-1231.3624749388177)"><path fill="black" stroke="none" paint-order="stroke fill markers" d=" M 1146.128836971091 1224.5561402304845 L 1159.7415063877577 1231.3624749388177 L 1146.128836971091 1238.168809647151 Z"/></g></g><g><rect fill="white" stroke="none" x="841.4182343951028" y="1299.970328798818" width="150.76306404175781" height="21.23576429"/><text fill="black" stroke="none" font-family="sans-serif" font-size="11pt" font-style="normal" font-weight="normal" text-decoration="normal" x="843.8685148901028" y="1314.672011768818" text-anchor="start" dominant-baseline="alphabetic" xml:space="preserve">(16) Return 403 status</text></g><g><path fill="none" stroke="black" paint-order="fill stroke markers" d=" M 1159.7415063877577 1321.2060930888179 L 687.3073438278724 1321.2060930888179" stroke-miterlimit="10" stroke-width="1.3612669416666667" stroke-dasharray="6.53408132"/><g transform="translate(673.8580264442057,1321.2060930888179) translate(-673.8580264442057,-1321.2060930888179)"><path fill="black" stroke="none" paint-order="stroke fill markers" d=" M 687.4706958608724 1314.3997583804846 L 673.8580264442057 1321.2060930888179 L 687.4706958608724 1328.012427797151 Z"/></g></g><g><rect fill="white" stroke="none" x="466.6962767624218" y="1345.708898038818" width="147.49891914429688" height="21.23576429"/><text fill="black" stroke="none" font-family="sans-serif" font-size="11pt" font-style="normal" font-weight="normal" text-decoration="normal" x="469.1465572574218" y="1360.410581008818" text-anchor="start" dominant-baseline="alphabetic" xml:space="preserve">(17) Return response </text></g><g><path fill="none" stroke="black" paint-order="fill stroke markers" d=" M 673.8580264442057 1366.944662328818 L 420.48276360860154 1366.944662328818" stroke-miterlimit="10" stroke-width="1.3612669416666667" stroke-dasharray="6.53408132"/><g transform="translate(407.0334462249349,1366.944662328818) translate(-407.0334462249349,-1366.944662328818)"><path fill="black" stroke="none" paint-order="stroke fill markers" d=" M 420.64611564160157 1360.1383276204847 L 407.0334462249349 1366.944662328818 L 420.64611564160157 1373.7509970371511 Z"/></g></g><g><rect fill="white" stroke="none" x="113.66180604832682" y="1391.447467278818" width="253.21824897828125" height="21.23576429"/><text fill="black" stroke="none" font-family="sans-serif" font-size="11pt" font-style="normal" font-weight="normal" text-decoration="normal" x="116.11208654332682" y="1406.1491502488182" text-anchor="start" dominant-baseline="alphabetic" xml:space="preserve">(18) Display error "Permission denied"</text></g><g><path fill="none" stroke="black" paint-order="fill stroke markers" d=" M 390.6982429249349 1412.683231568818 L 103.29293553366666 1412.683231568818" stroke-miterlimit="10" stroke-width="1.3612669416666667" stroke-dasharray="6.53408132"/><g transform="translate(89.84361815,1412.683231568818) translate(-89.84361815,-1412.683231568818)"><path fill="black" stroke="none" paint-order="stroke fill markers" d=" M 103.45628756666666 1405.8768968604847 L 89.84361815 1412.683231568818 L 103.45628756666666 1419.4895662771512 Z"/></g></g><g><rect fill="white" stroke="none" x="693.1880170158723" y="1481.2910854288182" width="245.24403633179688" height="21.23576429"/><text fill="black" stroke="none" font-family="sans-serif" font-size="11pt" font-style="normal" font-weight="normal" text-decoration="normal" x="695.6382975108723" y="1495.9927683988183" text-anchor="start" dominant-baseline="alphabetic" xml:space="preserve">(19) Route to Amenities Microservice</text></g><g><path fill="none" stroke="black" paint-order="fill stroke markers" d=" M 673.8580264442057 1502.526849718818 L 944.3127265356692 1502.526849718818" stroke-miterlimit="10" stroke-width="1.3612669416666667" stroke-dasharray=""/><g transform="translate(957.7620439193358,1502.526849718818) translate(-957.7620439193358,-1502.526849718818)"><path fill="black" stroke="none" paint-order="stroke fill markers" d=" M 944.1493745026692 1495.7205150104849 L 957.7620439193358 1502.526849718818 L 944.1493745026692 1509.3331844271513 Z"/></g></g><g><rect fill="white" stroke="none" x="1036.40724904367" y="1527.0296546688182" width="213.48314155640625" height="21.23576429"/><text fill="black" stroke="none" font-family="sans-serif" font-size="11pt" font-style="normal" font-weight="normal" text-decoration="normal" x="1038.85752953867" y="1541.7313376388183" text-anchor="start" dominant-baseline="alphabetic" xml:space="preserve">(20) Query for specified amenity</text></g><g><path fill="none" stroke="black" paint-order="fill stroke markers" d=" M 974.0972472193359 1548.2654189588181 L 1298.7510750407432 1548.2654189588181" stroke-miterlimit="10" stroke-width="1.3612669416666667" stroke-dasharray=""/><g transform="translate(1312.20039242441,1548.2654189588181) translate(-1312.20039242441,-1548.2654189588181)"><path fill="black" stroke="none" paint-order="stroke fill markers" d=" M 1298.5877230077433 1541.459084250485 L 1312.20039242441 1548.2654189588181 L 1298.5877230077433 1555.0717536671514 Z"/></g></g><g><rect fill="white" stroke="none" x="1062.4773860675957" y="1616.8732728188184" width="161.3428675085547" height="21.23576429"/><text fill="black" stroke="none" font-family="sans-serif" font-size="11pt" font-style="normal" font-weight="normal" text-decoration="normal" x="1064.9276665625957" y="1631.5749557888184" text-anchor="start" dominant-baseline="alphabetic" xml:space="preserve">(21) Return null amenity</text></g><g><path fill="none" stroke="black" paint-order="fill stroke markers" d=" M 1312.20039242441 1638.1090371088183 L 987.5465646030026 1638.1090371088183" stroke-miterlimit="10" stroke-width="1.3612669416666667" stroke-dasharray="6.53408132"/><g transform="translate(974.0972472193359,1638.1090371088183) translate(-974.0972472193359,-1638.1090371088183)"><path fill="black" stroke="none" paint-order="stroke fill markers" d=" M 987.7099166360026 1631.302702400485 L 974.0972472193359 1638.1090371088183 L 987.7099166360026 1644.9153718171515 Z"/></g></g><g><rect fill="white" stroke="none" x="740.4285031608919" y="1662.6118420588184" width="150.76306404175781" height="21.23576429"/><text fill="black" stroke="none" font-family="sans-serif" font-size="11pt" font-style="normal" font-weight="normal" text-decoration="normal" x="742.8787836558919" y="1677.3135250288185" text-anchor="start" dominant-baseline="alphabetic" xml:space="preserve">(22) Return 404 status</text></g><g><path fill="none" stroke="black" paint-order="fill stroke markers" d=" M 957.7620439193358 1683.8476063488183 L 687.3073438278724 1683.8476063488183" stroke-miterlimit="10" stroke-width="1.3612669416666667" stroke-dasharray="6.53408132"/><g transform="translate(673.8580264442057,1683.8476063488183) translate(-673.8580264442057,-1683.8476063488183)"><path fill="black" stroke="none" paint-order="stroke fill markers" d=" M 687.4706958608724 1677.041271640485 L 673.8580264442057 1683.8476063488183 L 687.4706958608724 1690.6539410571515 Z"/></g></g><g><rect fill="white" stroke="none" x="466.6962767624218" y="1708.3504112988185" width="147.49891914429688" height="21.23576429"/><text fill="black" stroke="none" font-family="sans-serif" font-size="11pt" font-style="normal" font-weight="normal" text-decoration="normal" x="469.1465572574218" y="1723.0520942688186" text-anchor="start" dominant-baseline="alphabetic" xml:space="preserve">(23) Return response </text></g><g><path fill="none" stroke="black" paint-order="fill stroke markers" d=" M 673.8580264442057 1729.5861755888184 L 420.48276360860154 1729.5861755888184" stroke-miterlimit="10" stroke-width="1.3612669416666667" stroke-dasharray="6.53408132"/><g transform="translate(407.0334462249349,1729.5861755888184) translate(-407.0334462249349,-1729.5861755888184)"><path fill="black" stroke="none" paint-order="stroke fill markers" d=" M 420.64611564160157 1722.7798408804852 L 407.0334462249349 1729.5861755888184 L 420.64611564160157 1736.3925102971516 Z"/></g></g><g><rect fill="white" stroke="none" x="114.87868684666667" y="1754.0889805388185" width="250.78448738160156" height="21.23576429"/><text fill="black" stroke="none" font-family="sans-serif" font-size="11pt" font-style="normal" font-weight="normal" text-decoration="normal" x="117.32896734166667" y="1768.7906635088186" text-anchor="start" dominant-baseline="alphabetic" xml:space="preserve">(24) Display error "Amenity not found"</text></g><g><path fill="none" stroke="black" paint-order="fill stroke markers" d=" M 390.6982429249349 1775.3247448288184 L 103.29293553366666 1775.3247448288184" stroke-miterlimit="10" stroke-width="1.3612669416666667" stroke-dasharray="6.53408132"/><g transform="translate(89.84361815,1775.3247448288184) translate(-89.84361815,-1775.3247448288184)"><path fill="black" stroke="none" paint-order="stroke fill markers" d=" M 103.45628756666666 1768.5184101204852 L 89.84361815 1775.3247448288184 L 103.45628756666666 1782.1310795371517 Z"/></g></g><g><rect fill="white" stroke="none" x="1028.654922078338" y="1843.9325986888186" width="228.98779548707031" height="21.23576429"/><text fill="black" stroke="none" font-family="sans-serif" font-size="11pt" font-style="normal" font-weight="normal" text-decoration="normal" x="1031.105202573338" y="1858.6342816588187" text-anchor="start" dominant-baseline="alphabetic" xml:space="preserve">(21) Return specified amenity data</text></g><g><path fill="none" stroke="black" paint-order="fill stroke markers" d=" M 1312.20039242441 1865.1683629788185 L 987.5465646030026 1865.1683629788185" stroke-miterlimit="10" stroke-width="1.3612669416666667" stroke-dasharray="6.53408132"/><g transform="translate(974.0972472193359,1865.1683629788185) translate(-974.0972472193359,-1865.1683629788185)"><path fill="black" stroke="none" paint-order="stroke fill markers" d=" M 987.7099166360026 1858.3620282704853 L 974.0972472193359 1865.1683629788185 L 987.7099166360026 1871.9746976871518 Z"/></g></g><g><rect fill="white" stroke="none" x="740.4285031608919" y="1889.6711679288187" width="150.76306404175781" height="21.23576429"/><text fill="black" stroke="none" font-family="sans-serif" font-size="11pt" font-style="normal" font-weight="normal" text-decoration="normal" x="742.8787836558919" y="1904.3728508988188" text-anchor="start" dominant-baseline="alphabetic" xml:space="preserve">(22) Return 200 status</text></g><g><path fill="none" stroke="black" paint-order="fill stroke markers" d=" M 957.7620439193358 1910.9069322188186 L 687.3073438278724 1910.9069322188186" stroke-miterlimit="10" stroke-width="1.3612669416666667" stroke-dasharray="6.53408132"/><g transform="translate(673.8580264442057,1910.9069322188186) translate(-673.8580264442057,-1910.9069322188186)"><path fill="black" stroke="none" paint-order="stroke fill markers" d=" M 687.4706958608724 1904.1005975104854 L 673.8580264442057 1910.9069322188186 L 687.4706958608724 1917.7132669271518 Z"/></g></g><g><rect fill="white" stroke="none" x="466.6962767624218" y="1935.4097371688188" width="147.49891914429688" height="21.23576429"/><text fill="black" stroke="none" font-family="sans-serif" font-size="11pt" font-style="normal" font-weight="normal" text-decoration="normal" x="469.1465572574218" y="1950.1114201388189" text-anchor="start" dominant-baseline="alphabetic" xml:space="preserve">(23) Return response </text></g><g><path fill="none" stroke="black" paint-order="fill stroke markers" d=" M 673.8580264442057 1956.6455014588187 L 420.48276360860154 1956.6455014588187" stroke-miterlimit="10" stroke-width="1.3612669416666667" stroke-dasharray="6.53408132"/><g transform="translate(407.0334462249349,1956.6455014588187) translate(-407.0334462249349,-1956.6455014588187)"><path fill="black" stroke="none" paint-order="stroke fill markers" d=" M 420.64611564160157 1949.8391667504854 L 407.0334462249349 1956.6455014588187 L 420.64611564160157 1963.451836167152 Z"/></g></g><g><rect fill="white" stroke="none" x="116.82214540379557" y="1981.1483064088188" width="246.89757026734375" height="21.23576429"/><text fill="black" stroke="none" font-family="sans-serif" font-size="11pt" font-style="normal" font-weight="normal" text-decoration="normal" x="119.27242589879557" y="1995.849989378819" text-anchor="start" dominant-baseline="alphabetic" xml:space="preserve">(24) Display specified amenity details</text></g><g><path fill="none" stroke="black" paint-order="fill stroke markers" d=" M 390.6982429249349 2002.3840706988187 L 103.29293553366666 2002.3840706988187" stroke-miterlimit="10" stroke-width="1.3612669416666667" stroke-dasharray="6.53408132"/><g transform="translate(89.84361815,2002.3840706988187) translate(-89.84361815,-2002.3840706988187)"><path fill="black" stroke="none" paint-order="stroke fill markers" d=" M 103.45628756666666 1995.5777359904855 L 89.84361815 2002.3840706988187 L 103.45628756666666 2009.190405407152 Z"/></g></g><g><g/><path fill="none" stroke="black" paint-order="fill stroke markers" d=" M 16.335203300000003 298.6223665088182 L 1393.87640892441 298.6223665088182 L 1393.87640892441 1094.1467672188176 L 16.335203300000003 1094.1467672188176 L 16.335203300000003 298.6223665088182 Z" stroke-miterlimit="10" stroke-width="2.3336004714285714" stroke-dasharray=""/><path fill="white" stroke="black" paint-order="fill stroke markers" d=" M 16.335203300000003 298.6223665088182 L 16.335203300000003 318.2246104688182 L 62.694406897070316 318.2246104688182 L 72.49552887707031 308.4234884888182 L 72.49552887707031 298.6223665088182 L 16.335203300000003 298.6223665088182" stroke-miterlimit="10" stroke-width="2.3336004714285714" stroke-dasharray=""/><text fill="black" stroke="none" font-family="sans-serif" font-size="8.8pt" font-style="normal" font-weight="bold" text-decoration="normal" x="32.67040660000001" y="311.6905291488182" text-anchor="start" dominant-baseline="alphabetic" xml:space="preserve">alt</text><g><rect fill="white" stroke="none" x="86.38045168207032" y="299.9291827728182" width="123.53494514527344" height="16.988611432000003"/></g><text fill="black" stroke="none" font-family="sans-serif" font-size="8.8pt" font-style="normal" font-weight="bold" text-decoration="normal" x="88.83073217707032" y="311.6905291488182" text-anchor="start" dominant-baseline="alphabetic" xml:space="preserve">[Permissions denied]</text><g><path fill="none" stroke="black" paint-order="fill stroke markers" d=" M 16.335203300000003 479.9431231388182 L 1393.87640892441 479.9431231388182" stroke-miterlimit="10" stroke-width="2.3336004714285714" stroke-dasharray="4.083800825"/></g><g/><g><rect fill="white" stroke="none" x="86.38045168207032" y="481.2499394028182" width="128.746996536875" height="16.988611432000003"/></g><text fill="black" stroke="none" font-family="sans-serif" font-size="8.8pt" font-style="normal" font-weight="bold" text-decoration="normal" x="88.83073217707032" y="493.0112857788182" text-anchor="start" dominant-baseline="alphabetic" xml:space="preserve">[Permissions granted]</text></g><g/><g><g/><path fill="none" stroke="black" paint-order="fill stroke markers" d=" M 32.6704066 615.5253105288181 L 1377.54120562441 615.5253105288181 L 1377.54120562441 1069.6439622688176 L 32.6704066 1069.6439622688176 L 32.6704066 615.5253105288181 Z" stroke-miterlimit="10" stroke-width="2.3336004714285714" stroke-dasharray=""/><path fill="white" stroke="black" paint-order="fill stroke markers" d=" M 32.6704066 615.5253105288181 L 32.6704066 635.1275544888181 L 79.02961019707031 635.1275544888181 L 88.83073217707032 625.326432508818 L 88.83073217707032 615.5253105288181 L 32.6704066 615.5253105288181" stroke-miterlimit="10" stroke-width="2.3336004714285714" stroke-dasharray=""/><text fill="black" stroke="none" font-family="sans-serif" font-size="8.8pt" font-style="normal" font-weight="bold" text-decoration="normal" x="49.005609899999996" y="628.593473168818" text-anchor="start" dominant-baseline="alphabetic" xml:space="preserve">alt</text><g><rect fill="white" stroke="none" x="102.71565498207032" y="616.832126792818" width="156.09022773804688" height="16.988611432000003"/></g><text fill="black" stroke="none" font-family="sans-serif" font-size="8.8pt" font-style="normal" font-weight="bold" text-decoration="normal" x="105.16593547707032" y="628.593473168818" text-anchor="start" dominant-baseline="alphabetic" xml:space="preserve">[Amenities were not found]</text><g><path fill="none" stroke="black" paint-order="fill stroke markers" d=" M 32.6704066 842.5846363988179 L 1377.54120562441 842.5846363988179" stroke-miterlimit="10" stroke-width="2.3336004714285714" stroke-dasharray="4.083800825"/></g><g/><g><rect fill="white" stroke="none" x="102.71565498207032" y="843.8914526628179" width="134.59480537476563" height="16.988611432000003"/></g><text fill="black" stroke="none" font-family="sans-serif" font-size="8.8pt" font-style="normal" font-weight="bold" text-decoration="normal" x="105.16593547707032" y="855.6527990388179" text-anchor="start" dominant-baseline="alphabetic" xml:space="preserve">[Amenities were found]</text></g><g/><g><g/><path fill="none" stroke="black" paint-order="fill stroke markers" d=" M 16.335203300000003 1255.865279888818 L 1393.87640892441 1255.865279888818 L 1393.87640892441 2051.389680598819 L 16.335203300000003 2051.389680598819 L 16.335203300000003 1255.865279888818 Z" stroke-miterlimit="10" stroke-width="2.3336004714285714" stroke-dasharray=""/><path fill="white" stroke="black" paint-order="fill stroke markers" d=" M 16.335203300000003 1255.865279888818 L 16.335203300000003 1275.4675238488178 L 62.694406897070316 1275.4675238488178 L 72.49552887707031 1265.666401868818 L 72.49552887707031 1255.865279888818 L 16.335203300000003 1255.865279888818" stroke-miterlimit="10" stroke-width="2.3336004714285714" stroke-dasharray=""/><text fill="black" stroke="none" font-family="sans-serif" font-size="8.8pt" font-style="normal" font-weight="bold" text-decoration="normal" x="32.67040660000001" y="1268.9334425288177" text-anchor="start" dominant-baseline="alphabetic" xml:space="preserve">alt</text><g><rect fill="white" stroke="none" x="86.38045168207032" y="1257.1720961528179" width="123.53494514527344" height="16.988611432000003"/></g><text fill="black" stroke="none" font-family="sans-serif" font-size="8.8pt" font-style="normal" font-weight="bold" text-decoration="normal" x="88.83073217707032" y="1268.9334425288177" text-anchor="start" dominant-baseline="alphabetic" xml:space="preserve">[Permissions denied]</text><g><path fill="none" stroke="black" paint-order="fill stroke markers" d=" M 16.335203300000003 1437.1860365188181 L 1393.87640892441 1437.1860365188181" stroke-miterlimit="10" stroke-width="2.3336004714285714" stroke-dasharray="4.083800825"/></g><g/><g><rect fill="white" stroke="none" x="86.38045168207032" y="1438.492852782818" width="128.746996536875" height="16.988611432000003"/></g><text fill="black" stroke="none" font-family="sans-serif" font-size="8.8pt" font-style="normal" font-weight="bold" text-decoration="normal" x="88.83073217707032" y="1450.254199158818" text-anchor="start" dominant-baseline="alphabetic" xml:space="preserve">[Permissions granted]</text></g><g/><g><g/><path fill="none" stroke="black" paint-order="fill stroke markers" d=" M 32.6704066 1572.7682239088183 L 1377.54120562441 1572.7682239088183 L 1377.54120562441 2026.8868756488187 L 32.6704066 2026.8868756488187 L 32.6704066 1572.7682239088183 Z" stroke-miterlimit="10" stroke-width="2.3336004714285714" stroke-dasharray=""/><path fill="white" stroke="black" paint-order="fill stroke markers" d=" M 32.6704066 1572.7682239088183 L 32.6704066 1592.3704678688182 L 79.02961019707031 1592.3704678688182 L 88.83073217707032 1582.5693458888184 L 88.83073217707032 1572.7682239088183 L 32.6704066 1572.7682239088183" stroke-miterlimit="10" stroke-width="2.3336004714285714" stroke-dasharray=""/><text fill="black" stroke="none" font-family="sans-serif" font-size="8.8pt" font-style="normal" font-weight="bold" text-decoration="normal" x="49.005609899999996" y="1585.8363865488182" text-anchor="start" dominant-baseline="alphabetic" xml:space="preserve">alt</text><g><rect fill="white" stroke="none" x="102.71565498207032" y="1574.0750401728183" width="116.31251777710938" height="16.988611432000003"/></g><text fill="black" stroke="none" font-family="sans-serif" font-size="8.8pt" font-style="normal" font-weight="bold" text-decoration="normal" x="105.16593547707032" y="1585.8363865488182" text-anchor="start" dominant-baseline="alphabetic" xml:space="preserve">[Amenity not found]</text><g><path fill="none" stroke="black" paint-order="fill stroke markers" d=" M 32.6704066 1799.8275497788186 L 1377.54120562441 1799.8275497788186" stroke-miterlimit="10" stroke-width="2.3336004714285714" stroke-dasharray="4.083800825"/></g><g/><g><rect fill="white" stroke="none" x="102.71565498207032" y="1801.1343660428186" width="94.81709541382813" height="16.988611432000003"/></g><text fill="black" stroke="none" font-family="sans-serif" font-size="8.8pt" font-style="normal" font-weight="bold" text-decoration="normal" x="105.16593547707032" y="1812.8957124188184" text-anchor="start" dominant-baseline="alphabetic" xml:space="preserve">[Amenity found]</text></g><g/></g><g/><g/><g/></g></svg>