<svg xmlns="http://www.w3.org/2000/svg" xmlns:xlink="http://www.w3.org/1999/xlink" version="1.1" width="1049.3104556422513" height="816.5968129669998"><desc>actor%20User%0A%0AUser-%3EStaff%20Frontend%3A%20Login%20attempt%0AStaff%20Frontend-%3EnGINX%3A%20Route%20login%20attempt%0AnGINX-%3EPermissions%3A%20Route%20to%20permissionser%20service%0APermissions-%3EAccounts%3A%20Send%20login_attempt%20request%0Adatabase%20PermissionDB%0Adatabase%20AccountDB%0AAccounts-%3EAccountDB%3A%20Check%20credentials%0A%0Aalt%20Bad%20Credentials%0AAccounts--%3EPermissions%3ALogin%20Failed%0APermissions--%3EnGINX%3A%20Login%20Failed%20%0AnGINX--%3EStaff%20Frontend%3A%20Login%20Failed%0Aend%0A%0AAccounts--%3EPermissions%3A%20Return%20success%0APermissions-%3EPermissionDB%3A%20Get%20account%20permissions%0APermissions--%3EnGINX%3A%20send%20session%20key%0AnGINX--%3EStaff%20Frontend%3A%20Store%20session%20key%0AStaff%20Frontend--%3EUser%3A%20Login%0A%0A</desc><defs/><g><g/><g/><g/><g/><g/><g/><g/><g/><g/><g/><g/><g/><g/><g/><g/><g/><g/><g/><g/><g/><g/><g/><g/><g/><g/><g/><g/><g/><g/><g/><g/><g/><g/><g/><g/><g/><g/><g/><g/><g/><g/><g/><g/><g/><g/><g/><g/><g/><g/><g/><g/><g/><g/><g/><g/><g/><g/><g/><g/><g/><g/><g/><g/><g/><g/><g/><g><rect fill="white" stroke="none" x="0" y="0" width="1049" height="816"/></g><g/><g><path fill="none" stroke="black" paint-order="fill stroke markers" d=" M 23.64361483359375 88.04674578699999 L 23.64361483359375 816.5968129669998" stroke-miterlimit="10" stroke-width="1.3612669416666667" stroke-dasharray="12.565541,5.445067766666667"/><path fill="none" stroke="black" paint-order="fill stroke markers" d=" M 156.03734788489584 88.04674578699999 L 156.03734788489584 816.5968129669998" stroke-miterlimit="10" stroke-width="1.3612669416666667" stroke-dasharray="12.565541,5.445067766666667"/><path fill="none" stroke="black" paint-order="fill stroke markers" d=" M 326.7274218785807 88.04674578699999 L 326.7274218785807 816.5968129669998" stroke-miterlimit="10" stroke-width="1.3612669416666667" stroke-dasharray="12.565541,5.445067766666667"/><path fill="none" stroke="black" paint-order="fill stroke markers" d=" M 571.5333863751953 88.04674578699999 L 571.5333863751953 816.5968129669998" stroke-miterlimit="10" stroke-width="1.3612669416666667" stroke-dasharray="12.565541,5.445067766666667"/><path fill="none" stroke="black" paint-order="fill stroke markers" d=" M 794.392359905013 88.04674578699999 L 794.392359905013 816.5968129669998" stroke-miterlimit="10" stroke-width="1.3612669416666667" stroke-dasharray="12.565541,5.445067766666667"/><path fill="none" stroke="black" paint-order="fill stroke markers" d=" M 905.0367614100247 88.04674578699999 L 905.0367614100247 816.5968129669998" stroke-miterlimit="10" stroke-width="1.3612669416666667" stroke-dasharray="12.565541,5.445067766666667"/><path fill="none" stroke="black" paint-order="fill stroke markers" d=" M 1004.4750073125638 88.04674578699999 L 1004.4750073125638 816.5968129669998" stroke-miterlimit="10" stroke-width="1.3612669416666667" stroke-dasharray="12.565541,5.445067766666667"/></g><g><g><path fill="white" stroke="black" paint-order="fill stroke markers" d=" M 32.95468071459375 18.948835828 A 9.311065881 9.311065881 0 1 1 32.9546760590612 18.93952476367084 M 23.64361483359375 28.259901709 L 23.64361483359375 48.188849735000005 M 11.882268457593753 35.447391161 L 35.40496120959375 35.447391161 M 23.64361483359375 48.188849735000005 L 11.882268457593753 66.810981497 M 23.64361483359375 48.188849735000005 L 35.40496120959375 66.810981497" stroke-miterlimit="10" stroke-width="2.7769845610000004" stroke-dasharray=""/></g><g><g/><text fill="black" stroke="none" font-family="sans-serif" font-size="11pt" font-style="normal" font-weight="normal" text-decoration="normal" x="8.167601650000002" y="83.14618479699999" text-anchor="start" dominant-baseline="alphabetic" xml:space="preserve">User</text></g><path fill="none" stroke="none"/><g><path fill="white" stroke="black" paint-order="fill stroke markers" d=" M 91.99655177949349 43.941696877 L 220.0781439902982 43.941696877 L 220.0781439902982 88.04674578699999 L 91.99655177949349 88.04674578699999 L 91.99655177949349 43.941696877 Z" stroke-miterlimit="10" stroke-width="2.613632528" stroke-dasharray=""/></g><g><g/><text fill="black" stroke="none" font-family="sans-serif" font-size="11pt" font-style="normal" font-weight="normal" text-decoration="normal" x="109.7202473599935" y="71.711542487" text-anchor="start" dominant-baseline="alphabetic" xml:space="preserve">Staff Frontend</text></g><path fill="none" stroke="none"/><g><path fill="white" stroke="black" paint-order="fill stroke markers" d=" M 287.0065873210299 43.941696877 L 366.4482564361315 43.941696877 L 366.4482564361315 88.04674578699999 L 287.0065873210299 88.04674578699999 L 287.0065873210299 43.941696877 Z" stroke-miterlimit="10" stroke-width="2.613632528" stroke-dasharray=""/></g><g><g/><text fill="black" stroke="none" font-family="sans-serif" font-size="11pt" font-style="normal" font-weight="normal" text-decoration="normal" x="304.7302829015299" y="71.711542487" text-anchor="start" dominant-baseline="alphabetic" xml:space="preserve">nGINX</text></g><path fill="none" stroke="none"/><g><path fill="white" stroke="black" paint-order="fill stroke markers" d=" M 513.892034849871 43.941696877 L 629.1747379005195 43.941696877 L 629.1747379005195 88.04674578699999 L 513.892034849871 88.04674578699999 L 513.892034849871 43.941696877 Z" stroke-miterlimit="10" stroke-width="2.613632528" stroke-dasharray=""/></g><g><g/><text fill="black" stroke="none" font-family="sans-serif" font-size="11pt" font-style="normal" font-weight="normal" text-decoration="normal" x="531.6157304303711" y="71.711542487" text-anchor="start" dominant-baseline="alphabetic" xml:space="preserve">Permissions</text></g><path fill="none" stroke="none"/><g><path fill="white" stroke="black" paint-order="fill stroke markers" d=" M 746.5183576228528 43.941696877 L 842.2663621871732 43.941696877 L 842.2663621871732 88.04674578699999 L 746.5183576228528 88.04674578699999 L 746.5183576228528 43.941696877 Z" stroke-miterlimit="10" stroke-width="2.613632528" stroke-dasharray=""/></g><g><g/><text fill="black" stroke="none" font-family="sans-serif" font-size="11pt" font-style="normal" font-weight="normal" text-decoration="normal" x="764.2420532033528" y="71.711542487" text-anchor="start" dominant-baseline="alphabetic" xml:space="preserve">Accounts</text></g><g><path fill="white" stroke="black" paint-order="fill stroke markers" d=" M 881.1873645920248 56.029747319 L 881.1873645920248 21.725820389 L 928.8861582280247 21.725820389 L 928.8861582280247 56.029747319" stroke-miterlimit="10" stroke-width="2.7769845610000004" stroke-dasharray=""/><path fill="white" stroke="black" paint-order="fill stroke markers" d=" M 928.8861582280247 20.5333505481 L 928.884965768121 20.64116109301662 L 928.881388507655 20.748960856968594 L 928.8754268043497 20.85673906006935 L 928.8670812543703 20.964484924588405 L 928.8563526922651 21.072187676029085 L 928.8432421908813 21.179836544206 L 928.827751061258 21.287420764322043 L 928.8098808524954 21.394929578044856 L 928.7896333515994 21.502352234582652 L 928.7670105833032 21.6096779917593 L 928.7420148098648 21.716896117088513 L 928.7146485308408 21.82399588884712 L 928.6849144828362 21.93096659714718 L 928.6528156392311 22.037797545007013 L 928.618355209883 22.144478049420858 L 928.5815366408062 22.250997442427174 L 928.5423636138269 22.357345072175423 L 928.5008400462151 22.463510303991256 L 928.4569700902931 22.56948252143996 L 928.4107581330197 22.6752511273881 L 928.3622087955524 22.780805545063224 L 928.3113269327844 22.886135219111527 L 928.2581176328595 22.991229616653374 L 928.2025862166632 23.09607822833659 L 928.1447382372912 23.200670569387384 L 928.0845794794931 23.304996180658804 L 928.0221159590944 23.40904462967667 L 927.9573539223952 23.51280551168278 L 927.8902998455452 23.616268450675403 L 927.8209604338963 23.719423100446857 L 927.7493426213316 23.82225914561813 L 927.6754535695729 23.9247663026704 L 927.5993006674639 24.026934320973382 L 927.5208915302311 24.128752983810383 L 927.440233998723 24.230212109399975 L 927.3573361386256 24.331301551914144 L 927.2722062396557 24.432011202492884 L 927.1848528147323 24.532330990255055 L 927.0952845991251 24.63225088330548 L 927.003510549581 24.731760889738126 L 926.9095398434285 24.830851058635275 L 926.81338187766 24.929511481062605 L 926.715046267992 25.027732291060094 L 926.6145428479031 25.125503666628592 L 926.511881667652 25.222815830712022 L 926.407072993271 25.319659052175062 L 926.3001273055401 25.416023646776274 L 926.1910552989391 25.511899978136498 L 926.0798678805778 25.607278458702496 L 925.9665761691052 25.70214955070569 L 925.8511914935983 25.796503767115947 L 925.7337253924283 25.890331672590246 L 925.6141896121073 25.983623884416232 L 925.4925961061141 26.076371073450467 L 925.3689570336977 26.168563965051334 L 925.2432847586623 26.260193340006502 L 925.1155918481309 26.351250035454832 L 924.9858910712878 26.44172494580266 L 924.8541953981029 26.531609023634346 L 924.7205179980336 26.62089328061701 L 924.5848722387087 26.709568788399363 L 924.4472716845909 26.79762667950451 L 924.307730095621 26.885058148216736 L 924.1662614258416 26.97185445146202 L 924.0228798220019 27.05800690968237 L 923.8775996221427 27.143506907703753 L 923.7304353541629 27.228345895597624 L 923.5814017343668 27.31251538953589 L 923.4305136659918 27.3960069726393 L 923.2777862377195 27.47881229581911 L 923.1232347221653 27.56092307861202 L 922.9668745743518 27.64233111000817 L 922.8087214301635 27.723028249272257 L 922.6487911047832 27.803006426757605 L 922.48709959111 27.882257644713114 L 922.3236630581607 27.96077397808303 L 922.1584978494521 28.038547575299447 L 921.9916204813678 28.115570659067455 L 921.8230476415054 28.19183552714286 L 921.6527961870082 28.267334553102412 L 921.4808831428801 28.34206018710643 L 921.307325700282 28.416004956653783 L 921.1321412148137 28.489161467329136 L 920.9553472047777 28.561522403542384 L 920.7769613494277 28.633080529260212 L 920.5970014872004 28.70382868872968 L 920.4154856139323 28.773759807193787 L 920.2324318810594 28.842866891598973 L 920.0478585938024 28.911143031294383 L 919.8617842093362 28.978581398722945 L 919.6742273349442 29.045175250104112 L 919.4852067261576 29.110917926108243 L 919.2947412848797 29.175802852522523 L 919.1028500574959 29.239823540908375 L 918.9095522329691 29.30297358925032 L 918.7148671409205 29.365246682596148 L 918.5188142496974 29.426636593688414 L 918.3214131644252 29.487137183587166 L 918.1226836250481 29.546742402283833 L 917.9226455043544 29.605446289306215 L 917.7213188059894 29.663242974314535 L 917.5187236624554 29.720126677688448 L 917.3148803330976 29.776091711105025 L 917.1098092020793 29.831132478107563 L 916.9035307763426 29.885243474665224 L 916.6960656835582 29.938419289723445 L 916.4874346700625 29.990654605745036 L 916.2776585987831 30.041944199241925 L 916.0667584471521 30.092282941297498 L 915.854755305009 30.1416657980795 L 915.6416703724914 30.190087831343412 L 915.427524957915 30.23754419892625 L 915.2123404756427 30.28403015523081 L 914.9961384439434 30.329541051700197 L 914.7789404828403 30.374072337282684 L 914.5607683119483 30.417619558886827 L 914.3416437483028 30.460178361826756 L 914.1215887041774 30.501744490257643 L 913.9006251848933 30.54231378760128 L 913.6787752866184 30.581882196961743 L 913.4560611941573 30.620445761531066 L 913.2325051787338 30.658000624984936 L 913.0081295957634 30.694543031868292 L 912.7829568826171 30.730069327970906 L 912.5570095563787 30.764575960692767 L 912.3303102115925 30.798059479399367 L 912.1028815180041 30.830516535766726 L 911.8747462182932 30.86194388411627 L 911.6459271258 30.892338381739336 L 911.4164471222426 30.921696989211505 L 911.1863291554306 30.950016770696486 L 910.9555962369685 30.977294894239733 L 910.7242714399562 31.003528632051626 L 910.4923778966803 31.028715360780247 L 910.2599387963022 31.052852561773705 L 910.0269773825381 31.075937821332012 L 909.7935169513352 31.097968830948464 L 909.5595808485422 31.118943387540448 L 909.3251924675742 31.138859393669783 L 909.0903752470742 31.15771485775246 L 908.8551526685686 31.175507894257777 L 908.619548254119 31.19223672389691 L 908.3835855639707 31.207899673800846 L 908.147288194196 31.222495177687634 L 907.910679774335 31.236021776019058 L 907.6737839650324 31.24847811614655 L 907.4366244556719 31.259862952446483 L 907.1992249620067 31.27017514644471 L 906.9616092237883 31.279413666930427 L 906.7238010023926 31.287577590059286 L 906.4858240784436 31.29466609944577 L 906.2477022494352 31.300678486244855 L 906.009459327352 31.30561414922287 L 905.7711191362877 31.309472594817628 L 905.5327055100627 31.31225343718779 L 905.2942422898409 31.313956398251428 L 905.0557533217458 31.31458130771386 L 904.8172624544752 31.314128103084656 L 904.5787935369174 31.312596829683912 L 904.3403704157652 31.30998764063768 L 904.1020169331322 31.306300796862697 L 903.8637569241678 31.301536667040267 L 903.6256142146746 31.2956957275794 L 903.3876126187249 31.288778562569174 L 903.1497759362801 31.280785863720332 L 902.9121279508101 31.27171843029609 L 902.6746924269156 31.261577169032243 L 902.4374931079509 31.25036309404646 L 902.2005537136505 31.238077326736896 L 901.9638979377562 31.224721095670045 L 901.7275494456484 31.21029573645788 L 901.4915318719793 31.194802691624307 L 901.2558688183098 31.178243510460895 L 901.0205838507486 31.16061984887196 L 900.7857004975966 31.14193346920898 L 900.5512422469933 31.12218624009434 L 900.3172325445685 31.101380136234503 L 900.0836947910971 31.079517238222515 L 899.8506523401602 31.056599732329957 L 899.6181284958085 31.03262991028832 L 899.3861465102326 31.007610169059838 L 899.154729581438 30.98154301059778 L 898.9239008509245 30.954431041596266 L 898.6936834013729 30.926276973229612 L 898.4641002543364 30.897083620881187 L 898.235174367938 30.866853903861898 L 898.0069286345761 30.835590845118258 L 897.7793858786334 30.803297570930084 L 897.5525688541961 30.769977310597895 L 897.3265002427777 30.735633396119944 L 897.1012026510507 30.70026926185907 L 896.8766986085866 30.663888444199216 L 896.6530105656027 30.62649458119185 L 896.4301608907168 30.588091412192092 L 896.2081718687107 30.54868277748485 L 895.9870656983016 30.50827261790075 L 895.7668644899222 30.46686497442208 L 895.5475902635101 30.42446398777868 L 895.3292649463049 30.381073898033875 L 895.1119103706565 30.33669904416049 L 894.8955482718414 30.291343863606926 L 894.6802002858891 30.245012891853445 L 894.4658879474189 30.197710761958614 L 894.2526326874857 30.149442204096005 L 894.0404558314383 30.10021204508118 L 893.829378596785 30.050025207889014 L 893.6194220910736 29.998886711161404 L 893.4106073097797 29.94680166870541 L 893.2029551342074 29.893775288981875 L 892.9964863294013 29.839812874584574 L 892.7912215420696 29.784919821709988 L 892.5871812985201 29.729101619617655 L 892.3843860026071 29.67236385008127 L 892.1828559336914 29.614712186830506 L 891.9826112446117 29.55615239498365 L 891.7836719596701 29.496690330471075 L 891.5860579726293 29.43633193944969 L 891.3897890447234 29.375083257708297 L 891.1948848026816 29.31295041006403 L 891.0013647367657 29.249939609749873 L 890.8092481988209 29.186057157793353 L 890.6185544003412 29.121309442386426 L 890.4293024105472 29.055702938246682 L 890.2415111544802 28.98924420596986 L 890.0551994111096 28.921939891373807 L 889.8703858114542 28.85379672483389 L 889.6870888367201 28.784821520609988 L 889.505326816452 28.71502117616503 L 889.3251179267004 28.644402671475305 L 889.1464801882041 28.572973068332434 L 888.9694314645882 28.5007395096372 L 888.7939894605773 28.42770921868528 L 888.6201717202259 28.353889498444914 L 888.447995625163 28.279287730826603 L 888.2774783928546 28.20391137594495 L 888.108637074882 28.127767971372624 L 887.9414885552361 28.05086513138663 L 887.7760495486298 27.973210546206882 L 887.6123365988256 27.894811981227186 L 887.4503660769823 27.81567727623871 L 887.290154180017 27.735814344646005 L 887.1317169289858 27.655231172675677 L 886.975070167482 27.573935818577773 L 886.8202295600512 27.491936411819957 L 886.6672105906248 27.409241152274568 L 886.5160285609726 27.325858309398654 L 886.3666985891713 27.241796221407014 L 886.2192356080938 27.157063294438398 L 886.0736543639152 27.07166800171489 L 885.9299694146388 26.985618882694595 L 885.7881951286396 26.89892454221772 L 885.6483456832282 26.811593649646056 L 885.5104350632324 26.723634937996092 L 885.3744770595994 26.63505720306569 L 885.2404852680163 26.54586930255453 L 885.1084730875506 26.45608015517834 L 884.9784537193102 26.365698739777034 L 884.8504401651237 26.274734094416832 L 884.7244452262398 26.183195315486472 L 884.6004815020475 26.09109155678756 L 884.4785613888158 25.998432028619217 L 884.3586970784544 25.90522599685704 L 884.2409005572945 25.811482782026534 L 884.12518360489 25.717211758371064 L 884.0115577928398 25.62242235291444 L 883.9000344836304 25.527124044518214 L 883.7906248294997 25.431326362933806 L 883.683339771322 25.33503888784955 L 883.5781900375138 25.238271247932712 L 883.4751861429608 25.141033119866645 L 883.3743383879664 25.043334227383127 L 883.2756568572223 24.945184340289984 L 883.1791514187994 24.84659327349414 L 883.084831723161 24.74757088602011 L 882.992707202198 24.648127080024132 L 882.9027870682858 24.548271799803928 L 882.8150803133628 24.448015030804306 L 882.7295957080315 24.34736679861863 L 882.6463418006813 24.246337167986233 L 882.5653269166332 24.144936241786 L 882.4865591573084 24.043174160026034 L 882.4100463994172 23.941061098829724 L 882.3357962941714 23.83860726941809 L 882.2638162665198 23.735822917088697 L 882.1941135144051 23.63271832019112 L 882.1266950080446 23.52930378909913 L 882.0615674892326 23.425589665179665 L 881.9987374706667 23.32158631975868 L 881.9382112352965 23.21730415308405 L 881.879994835695 23.112753593285547 L 881.8240940934538 23.00794509533202 L 881.7705145986004 22.90288913998592 L 881.7192617090395 22.797596232755243 L 881.6703405500177 22.692076902842967 L 881.6237560136099 22.58634170209415 L 881.579512758231 22.48040120394075 L 881.5376152081695 22.374266002344307 L 881.4980675531458 22.267946710736528 L 881.4608737478922 22.161453960957978 L 881.4260375117583 22.05479840219489 L 881.3935623283386 21.94799069991426 L 881.3634514451246 21.841041534797313 L 881.3357078731793 21.733961601671435 L 881.310334386837 21.62676160844071 L 881.287333523425 21.51945227501512 L 881.2667075830105 21.412044332238587 L 881.2484586281704 21.30454852081588 L 881.232588483785 21.19697559023857 L 881.2190987368555 21.08933629771006 L 881.2079907363452 20.98164140706991 L 881.1992655930452 20.87390168771744 L 881.1929241794622 20.7661279135348 L 881.1889671297326 20.658330861809592 L 881.1873948395579 20.55052131215717 L 881.1882074661659 20.442710045442645 L 881.1914049282944 20.334907842702854 L 881.1969869062001 20.227125484068235 L 881.2049528416898 20.119373747684833 L 881.2153019381765 20.011663408636494 L 881.2280331607593 19.904005237867363 L 881.2431452363264 19.7964100011048 L 881.260636653683 19.688888457782824 L 881.2805056637019 19.581451359966163 L 881.3027502794985 19.47410945127507 L 881.32736827663 19.366873465810958 L 881.3543571933169 19.259754127083017 L 881.3837143306903 19.15276214693585 L 881.4154367530608 19.04590822447831 L 881.4495212882127 18.939203045013606 L 881.4859645277207 18.832657278970757 L 881.5247628272915 18.72628158083758 L 881.5659123071272 18.620086588095244 L 881.6094088523142 18.51408292015453 L 881.6552481132343 18.408281177293887 L 881.7034255059995 18.302691939599445 L 881.7539362129107 18.197325765906974 L 881.8067751829393 18.092193192746045 L 881.8619371322325 17.987304733286358 L 881.9194165446411 17.882670876286454 L 881.9792076722719 17.77830208504484 L 882.0413045360617 17.674208796353664 L 882.1057009263762 17.570401419455052 L 882.1723904036301 17.46689033500019 L 882.2413662989309 17.36368589401126 L 882.3126217147467 17.260798416846367 L 882.3861495255953 17.158238192167477 L 882.4619423787569 17.056015475911597 L 882.5399926950093 16.954140490265164 L 882.6202926693861 16.85262342264185 L 882.7028342719565 16.751474424663822 L 882.7876092486292 16.650703611146586 L 882.8746091219772 16.550321059087512 L 882.9638251920856 16.450336806658164 L 883.0552485374217 16.350760852200455 L 883.1488700157272 16.25160315322686 L 883.2446802649322 16.15287362542464 L 883.3426697040918 16.054582141664305 L 883.4428285343437 15.956738531012315 L 883.5451467398882 15.859352577748204 L 883.64961408899 15.762434020386143 L 883.7562201350015 15.665992550701102 L 883.8649542174068 15.570037812759686 L 883.975805462888 15.47457940195572 L 884.0887627864134 15.379626864050742 L 884.2038148923446 15.285189694219413 L 884.3209502755667 15.191277336100018 L 884.4401572226391 15.097899180850114 L 884.5614238129665 15.005064566207405 L 884.684737919991 14.912782775555993 L 884.8100872124044 14.821063036998048 L 884.937459155382 14.729914522430988 L 885.0668410118359 14.639346346630315 L 885.198219843688 14.549367566338134 L 885.3315825131646 14.459987179357494 L 885.46691568411 14.371214123652608 L 885.6042058233198 14.283057276455072 L 885.7434392018946 14.195525453376138 L 885.8846018966125 14.108627407525177 L 886.0276797913216 14.022371828634352 L 886.1726585783517 13.936767342189675 L 886.319523759945 13.851822508568457 L 886.4682606497057 13.76754582218327 L 886.6188543740686 13.683945710632521 L 886.771289873787 13.601030533857704 L 886.9255519054378 13.518808583307395 L 887.0816250429465 13.437288081108132 L 887.2394936791293 13.356477179242205 L 887.3991420272542 13.276383958732454 L 887.5605541226194 13.19701642883419 L 887.7237138241499 13.11838252623426 L 887.8886048160114 13.040490114257395 L 888.0552106092423 12.963346982079887 L 888.2235145434021 12.886960843950664 L 888.3934997882374 12.811339338419888 L 888.5651493453656 12.73649002757509 L 888.7384460499741 12.662420396284983 L 888.9133725725366 12.589137851450971 L 889.0899114205467 12.51664972126647 L 889.2680449402668 12.444963254484088 L 889.4477553184934 12.37408561969077 L 889.6290245843383 12.304023904590924 L 889.8118346110259 12.234785115297683 L 889.9961671177061 12.166376175632273 L 890.1820036712819 12.098803926431655 L 890.3693256882525 12.032075124864438 L 890.5581144365724 11.966196443755171 L 890.7483510375242 11.901174470917068 L 890.9400164676064 11.837015708493228 L 891.1330915604354 11.773726572306426 L 891.3275570086631 11.71131339121754 L 891.5233933659067 11.64978240649267 L 891.7205810486935 11.589139771179015 L 891.9191003384198 11.529391549489564 L 892.1189313833218 11.470543716196703 L 892.3200542004615 11.412602156034716 L 892.5224486777252 11.355572663111337 L 892.7260945758335 11.299460940328336 L 892.9309715303663 11.244272598811229 L 893.1370590537989 11.190013157348178 L 893.3443365375508 11.136688041838113 L 893.5527832540463 11.084302584748148 L 893.7623783587875 11.03286202458034 L 893.9731008924384 10.982371505347833 L 894.1849297829215 10.932836076060482 L 894.3978438475241 10.88426069021993 L 894.6118217950172 10.836650205324288 L 894.8268422277845 10.790009382382364 L 895.0428836439617 10.74434288543759 L 895.2599244395872 10.6996552811016 L 895.4779429107625 10.655951038097594 L 895.6969172558221 10.613234526813446 L 895.9168255775139 10.571510018864695 L 896.137645885189 10.530781686667359 L 896.3593560970007 10.49105360302072 L 896.5819340421126 10.452329740700035 L 896.8053574629156 10.41461397205927 L 897.0296040172537 10.377910068643855 L 897.2546512806587 10.342221700813546 L 897.4804767485914 10.307552437375389 L 897.7070578386935 10.273905745226832 L 897.9343718930446 10.241284989009054 L 898.1623961804287 10.209693430770495 L 898.3911078986072 10.179134229640646 L 898.6204841765988 10.14961044151416 L 898.8505020769669 10.121125018745243 L 899.0811385981131 10.093680809852438 L 899.3123706765774 10.067280559233762 L 899.5441751893447 10.041926906892275 L 899.7765289561571 10.017622388172084 L 900.0094087418313 9.99436943350481 L 900.2427912585829 9.972170368166541 L 900.4766531683547 9.95102741204531 L 900.7109710851505 9.930942679419111 L 900.945721577374 9.91191817874447 L 901.1808811701716 9.893955812455602 L 901.41642634778 9.877057376774163 L 901.6523335558776 9.861224561529642 L 901.8885792039404 9.846458949990371 L 902.1251396676001 9.832762018705198 L 902.3619912910079 9.820135137355836 L 902.5991103891986 9.808579568619898 L 902.83647325046 9.798096468044628 L 903.0740561387038 9.78868688393135 L 903.311835295839 9.780351757230632 L 903.5497869441484 9.773091921448197 L 903.7878872886652 9.766908102561576 L 904.0261125195533 9.761800918947504 L 904.2644388144884 9.757770881320084 L 904.5028423410394 9.754818392679725 L 904.7412992590522 9.752943748272825 L 904.9797857230341 9.752147135562266 L 905.2182778845371 9.752428634208655 L 905.4567518945439 9.753788216062361 L 905.6951839058523 9.756225745166333 L 905.9335500754598 9.75974097776969 L 906.1718265669481 9.764333562352103 L 906.4099895528666 9.770003039658938 L 906.6480152171151 9.776748842747192 L 906.8858797573256 9.784570297042176 L 907.1235593872423 9.793466620404978 L 907.3610303391004 9.803436923210677 L 907.5982688660023 9.8144802084373 L 907.8352512442932 9.826595371765528 L 908.0719537759328 9.83978120168912 L 908.3083527908651 9.854036379636078 L 908.5444246493857 9.869359480100481 L 908.7801457445054 9.885748970785057 L 909.015492504311 9.903203212754391 L 909.2504413943229 9.921720460598834 L 909.4849689198477 9.941298862609031 L 909.7190516283284 9.961936460961097 L 909.9526661116892 9.983631191912394 L 910.1857890086762 10.006380886007905 L 910.4183970071944 10.030183268297181 L 910.6504668466374 10.055035958561827 L 910.8819753202149 10.080936471553528 L 911.1128992772724 10.107882217242567 L 911.3432156256066 10.13587050107683 L 911.5729013337746 10.164898524251257 L 911.8019334333969 10.194963383987721 L 912.0302890214546 10.226062073825304 L 912.257945262579 10.258191483920934 L 912.4848793913358 10.291348401360379 L 912.7110687145012 10.325529510479525 L 912.9364906133314 10.360731393195941 L 913.1611225458244 10.396950529350695 L 913.384942048974 10.434183297060352 L 913.6079267410166 10.472425973079169 L 913.8300543236686 10.51167473317141 L 914.0513025843571 10.551925652493777 L 914.2716493984402 10.593174705987877 L 914.4910727314201 10.635417768782737 L 914.7095506411465 10.678650616607278 L 914.9270612800104 10.722868926212747 L 915.1435828971292 10.76806827580503 L 915.3590938405216 10.814244145486835 L 915.5735725592729 10.861391917709673 L 915.7869976056899 10.909506877735609 L 915.9993476374458 10.95858421410874 L 916.2106014197145 11.008619019136324 L 916.4207378272937 11.059606289379555 L 916.6297358467177 11.111540926153898 L 916.837574578359 11.164417736038953 L 917.0442332385172 11.218231431397797 L 917.249691161499 11.272976630905736 L 917.4539278016829 11.328647860088443 L 917.6569227355752 11.385239551869391 L 917.8586556638518 11.442746047126562 L 918.0591064133879 11.501161595258353 L 918.2582549392755 11.560480354758626 L 918.4560813268281 11.620696393800868 L 918.6525657935717 11.681803690831353 L 918.8476886912235 11.7437961351713 L 919.0414305076563 11.806667527627935 L 919.2337718688497 11.870411581114405 L 919.4246935408281 11.935021921278484 L 919.6141764315832 12.000492087139994 L 919.8022015929841 12.066815531736909 L 919.9887502226712 12.133985622780036 L 920.1738036659369 12.201995643316248 L 920.3573434175912 12.270838792400168 L 920.5393511238119 12.340508185774253 L 920.71980858398 12.410996856557224 L 920.8986977524999 12.482297755940746 L 921.0760007406036 12.554403753894292 L 921.2516998181404 12.627307639878161 L 921.4257774153488 12.701002123564503 L 921.598216124614 12.775479835566365 L 921.768998702209 12.85073332817461 L 921.9381080700183 12.926755076102687 L 922.1055273172459 13.003537477239155 L 922.2712397021068 13.081072853407886 L 922.4352286535004 13.159353451135875 L 922.5974777726684 13.238371442428583 L 922.757970834834 13.318118925552731 L 922.9166917908249 13.398587925826458 L 923.0736247686774 13.4797703964168 L 923.2287540752247 13.561658219144345 L 923.3820641976656 13.64424320529506 L 923.5335398051153 13.727517096439154 L 923.6831657501394 13.811471565256904 L 923.8309270702682 13.89609821637139 L 923.9768089894927 13.981388587188025 L 924.1207969197426 14.0673341487408 L 924.2628764623448 14.153926306545182 L 924.4030334094635 14.241156401457552 L 924.5412537455207 14.329015710541107 L 924.6775236485981 14.417495447938157 L 924.8118294918189 14.506586765748693 L 924.9441578447107 14.59628075491518 L 925.0744954745484 14.68656844611344 L 925.2028293476777 14.777440810649601 L 925.3291466308184 14.868888761362928 L 925.4534346923471 14.96090315353456 L 925.5756811035615 15.05347478580196 L 925.6958736399222 15.146594401079039 L 925.8140002822759 15.240252687481874 L 925.9300492180565 15.33444027925987 L 926.0440088424674 15.429147757732338 L 926.1558677596411 15.524365652230356 L 926.2656147837789 15.62008444104382 L 926.3732389402701 15.716294552373615 L 926.4787294667885 15.812986365288783 L 926.5820758143695 15.910150210688608 L 926.6832676484645 16.00777637226952 L 926.7822948499744 16.105855087496717 L 926.8791475162614 16.204376548580406 L 926.9738159621397 16.30333090345658 L 927.0662907208437 16.402708256772215 L 927.1565625449745 16.502498670874793 L 927.2446224074248 16.602692166806058 L 927.3304615022819 16.703278725299917 L 927.4140712457079 16.80424828778434 L 927.4954432767978 16.90559075738722 L 927.5745694584167 17.00729599994605 L 927.6514418780122 17.10935384502132 L 927.7260528484063 17.211754086913583 L 927.7983949085644 17.314486485683975 L 927.8684608243406 17.41754076817823 L 927.9362435892016 17.52090662905398 L 928.0017364249276 17.62457373181127 L 928.0649327822894 17.728531709826218 L 928.1258263417042 17.83277016738765 L 928.1844110138666 17.93727868073668 L 928.2406809403582 18.04204679910906 L 928.2946304942334 18.147064045780258 L 928.3462542805817 18.252319919113123 L 928.3955471370673 18.357803893608033 L 928.4425041344459 18.463505420955443 L 928.4871205770568 18.569413931090704 L 928.5293920032929 18.675518833251058 L 928.5693141860467 18.781809517034706 L 928.6068831331334 18.88827535346185 L 928.6420950876893 18.994905696037566 L 928.6749465285486 19.101689881816455 L 928.7054341705946 19.208617232468924 L 928.7335549650883 19.31567705534902 L 928.7593060999736 19.422858644563664 L 928.7826850001588 19.530151282043253 L 928.8036893277731 19.637544238613454 L 928.8223169824014 19.745026775068098 L 928.8385661012936 19.852588143243114 L 928.8524350595516 19.960217587091314 L 928.8639224702908 20.067904343758006 L 928.87302718478 20.17563764465726 L 928.8797482925552 20.283406716548765 L 928.8840851215111 20.39120078261514 L 928.8860372379687 20.49900906353961 M 928.8861582280247 54.8372774781 L 928.884965768121 54.94508802301662 L 928.881388507655 55.05288778696859 L 928.8754268043497 55.160665990069354 L 928.8670812543703 55.2684118545884 L 928.8563526922651 55.376114606029084 L 928.8432421908813 55.483763474206 L 928.827751061258 55.591347694322046 L 928.8098808524954 55.698856508044855 L 928.7896333515994 55.80627916458265 L 928.7670105833032 55.913604921759294 L 928.7420148098648 56.02082304708851 L 928.7146485308408 56.12792281884712 L 928.6849144828362 56.23489352714718 L 928.6528156392311 56.34172447500701 L 928.618355209883 56.44840497942086 L 928.5815366408062 56.55492437242717 L 928.5423636138269 56.66127200217542 L 928.5008400462151 56.76743723399125 L 928.4569700902931 56.87340945143996 L 928.4107581330197 56.979178057388104 L 928.3622087955524 57.08473247506323 L 928.3113269327844 57.190062149111526 L 928.2581176328595 57.295156546653374 L 928.2025862166632 57.40000515833659 L 928.1447382372912 57.50459749938738 L 928.0845794794931 57.60892311065881 L 928.0221159590944 57.71297155967667 L 927.9573539223952 57.81673244168278 L 927.8902998455452 57.9201953806754 L 927.8209604338963 58.023350030446856 L 927.7493426213316 58.12618607561813 L 927.6754535695729 58.228693232670395 L 927.5993006674639 58.33086125097338 L 927.5208915302311 58.43267991381038 L 927.440233998723 58.534139039399975 L 927.3573361386256 58.63522848191415 L 927.2722062396557 58.73593813249288 L 927.1848528147323 58.83625792025505 L 927.0952845991251 58.93617781330548 L 927.003510549581 59.03568781973813 L 926.9095398434285 59.13477798863527 L 926.81338187766 59.23343841106261 L 926.715046267992 59.33165922106009 L 926.6145428479031 59.42943059662859 L 926.511881667652 59.52674276071202 L 926.407072993271 59.623585982175065 L 926.3001273055401 59.71995057677627 L 926.1910552989391 59.8158269081365 L 926.0798678805778 59.9112053887025 L 925.9665761691052 60.006076480705694 L 925.8511914935983 60.10043069711595 L 925.7337253924283 60.194258602590246 L 925.6141896121073 60.287550814416235 L 925.4925961061141 60.38029800345047 L 925.3689570336977 60.47249089505134 L 925.2432847586623 60.564120270006505 L 925.1155918481309 60.655176965454835 L 924.9858910712878 60.74565187580266 L 924.8541953981029 60.83553595363435 L 924.7205179980336 60.924820210617014 L 924.5848722387087 61.01349571839936 L 924.4472716845909 61.10155360950451 L 924.307730095621 61.18898507821674 L 924.1662614258416 61.27578138146202 L 924.0228798220019 61.361933839682365 L 923.8775996221427 61.447433837703755 L 923.7304353541629 61.53227282559762 L 923.5814017343668 61.61644231953589 L 923.4305136659918 61.699933902639295 L 923.2777862377195 61.782739225819114 L 923.1232347221653 61.86485000861202 L 922.9668745743518 61.94625804000817 L 922.8087214301635 62.02695517927226 L 922.6487911047832 62.1069333567576 L 922.48709959111 62.18618457471311 L 922.3236630581607 62.26470090808303 L 922.1584978494521 62.34247450529945 L 921.9916204813678 62.419497589067454 L 921.8230476415054 62.49576245714286 L 921.6527961870082 62.57126148310241 L 921.4808831428801 62.64598711710643 L 921.307325700282 62.71993188665378 L 921.1321412148137 62.793088397329136 L 920.9553472047777 62.86544933354239 L 920.7769613494277 62.937007459260215 L 920.5970014872004 63.007755618729675 L 920.4154856139323 63.07768673719379 L 920.2324318810594 63.146793821598976 L 920.0478585938024 63.21506996129438 L 919.8617842093362 63.28250832872294 L 919.6742273349442 63.34910218010411 L 919.4852067261576 63.414844856108246 L 919.2947412848797 63.47972978252252 L 919.1028500574959 63.54375047090838 L 918.9095522329691 63.606900519250324 L 918.7148671409205 63.66917361259615 L 918.5188142496974 63.73056352368841 L 918.3214131644252 63.79106411358716 L 918.1226836250481 63.85066933228383 L 917.9226455043544 63.90937321930622 L 917.7213188059894 63.96716990431453 L 917.5187236624554 64.02405360768844 L 917.3148803330976 64.08001864110503 L 917.1098092020793 64.13505940810757 L 916.9035307763426 64.18917040466522 L 916.6960656835582 64.24234621972344 L 916.4874346700625 64.29458153574504 L 916.2776585987831 64.34587112924193 L 916.0667584471521 64.3962098712975 L 915.854755305009 64.4455927280795 L 915.6416703724914 64.49401476134341 L 915.427524957915 64.54147112892625 L 915.2123404756427 64.58795708523081 L 914.9961384439434 64.63346798170019 L 914.7789404828403 64.67799926728269 L 914.5607683119483 64.72154648888683 L 914.3416437483028 64.76410529182675 L 914.1215887041774 64.80567142025764 L 913.9006251848933 64.84624071760128 L 913.6787752866184 64.88580912696175 L 913.4560611941573 64.92437269153106 L 913.2325051787338 64.96192755498494 L 913.0081295957634 64.9984699618683 L 912.7829568826171 65.0339962579709 L 912.5570095563787 65.06850289069277 L 912.3303102115925 65.10198640939936 L 912.1028815180041 65.13444346576672 L 911.8747462182932 65.16587081411626 L 911.6459271258 65.19626531173934 L 911.4164471222426 65.2256239192115 L 911.1863291554306 65.25394370069648 L 910.9555962369685 65.28122182423974 L 910.7242714399562 65.30745556205163 L 910.4923778966803 65.33264229078024 L 910.2599387963022 65.35677949177371 L 910.0269773825381 65.37986475133201 L 909.7935169513352 65.40189576094846 L 909.5595808485422 65.42287031754044 L 909.3251924675742 65.44278632366978 L 909.0903752470742 65.46164178775246 L 908.8551526685686 65.47943482425778 L 908.619548254119 65.49616365389691 L 908.3835855639707 65.51182660380084 L 908.147288194196 65.52642210768764 L 907.910679774335 65.53994870601906 L 907.6737839650324 65.55240504614655 L 907.4366244556719 65.56378988244649 L 907.1992249620067 65.57410207644472 L 906.9616092237883 65.58334059693043 L 906.7238010023926 65.59150452005929 L 906.4858240784436 65.59859302944577 L 906.2477022494352 65.60460541624485 L 906.009459327352 65.60954107922286 L 905.7711191362877 65.61339952481762 L 905.5327055100627 65.61618036718778 L 905.2942422898409 65.61788332825142 L 905.0557533217458 65.61850823771385 L 904.8172624544752 65.61805503308466 L 904.5787935369174 65.61652375968391 L 904.3403704157652 65.61391457063768 L 904.1020169331322 65.61022772686269 L 903.8637569241678 65.60546359704027 L 903.6256142146746 65.5996226575794 L 903.3876126187249 65.59270549256917 L 903.1497759362801 65.58471279372033 L 902.9121279508101 65.5756453602961 L 902.6746924269156 65.56550409903224 L 902.4374931079509 65.55429002404645 L 902.2005537136505 65.5420042567369 L 901.9638979377562 65.52864802567004 L 901.7275494456484 65.51422266645788 L 901.4915318719793 65.4987296216243 L 901.2558688183098 65.48217044046089 L 901.0205838507486 65.46454677887196 L 900.7857004975966 65.44586039920898 L 900.5512422469933 65.42611317009434 L 900.3172325445685 65.4053070662345 L 900.0836947910971 65.38344416822251 L 899.8506523401602 65.36052666232996 L 899.6181284958085 65.33655684028832 L 899.3861465102326 65.31153709905983 L 899.154729581438 65.28546994059778 L 898.9239008509245 65.25835797159627 L 898.6936834013729 65.23020390322961 L 898.4641002543364 65.2010105508812 L 898.235174367938 65.1707808338619 L 898.0069286345761 65.13951777511826 L 897.7793858786334 65.10722450093009 L 897.5525688541961 65.0739042405979 L 897.3265002427777 65.03956032611994 L 897.1012026510507 65.00419619185907 L 896.8766986085866 64.96781537419922 L 896.6530105656027 64.93042151119185 L 896.4301608907168 64.89201834219209 L 896.2081718687107 64.85260970748485 L 895.9870656983016 64.81219954790075 L 895.7668644899222 64.77079190442208 L 895.5475902635101 64.72839091777868 L 895.3292649463049 64.68500082803388 L 895.1119103706565 64.64062597416049 L 894.8955482718414 64.59527079360693 L 894.6802002858891 64.54893982185345 L 894.4658879474189 64.50163769195862 L 894.2526326874857 64.45336913409601 L 894.0404558314383 64.40413897508118 L 893.829378596785 64.35395213788901 L 893.6194220910736 64.3028136411614 L 893.4106073097797 64.25072859870541 L 893.2029551342074 64.19770221898187 L 892.9964863294013 64.14373980458457 L 892.7912215420696 64.08884675170998 L 892.5871812985201 64.03302854961765 L 892.3843860026071 63.97629078008127 L 892.1828559336914 63.918639116830505 L 891.9826112446117 63.860079324983644 L 891.7836719596701 63.80061726047107 L 891.5860579726293 63.74025886944969 L 891.3897890447234 63.67901018770829 L 891.1948848026816 63.61687734006403 L 891.0013647367657 63.553866539749876 L 890.8092481988209 63.48998408779335 L 890.6185544003412 63.42523637238643 L 890.4293024105472 63.359629868246685 L 890.2415111544802 63.29317113596986 L 890.0551994111096 63.225866821373806 L 889.8703858114542 63.15772365483389 L 889.6870888367201 63.088748450609984 L 889.505326816452 63.01894810616503 L 889.3251179267004 62.94832960147531 L 889.1464801882041 62.87689999833243 L 888.9694314645882 62.8046664396372 L 888.7939894605773 62.73163614868528 L 888.6201717202259 62.65781642844491 L 888.447995625163 62.583214660826606 L 888.2774783928546 62.50783830594495 L 888.108637074882 62.43169490137262 L 887.9414885552361 62.35479206138663 L 887.7760495486298 62.27713747620688 L 887.6123365988256 62.19873891122719 L 887.4503660769823 62.11960420623871 L 887.290154180017 62.039741274646005 L 887.1317169289858 61.95915810267567 L 886.975070167482 61.87786274857777 L 886.8202295600512 61.79586334181995 L 886.6672105906248 61.71316808227457 L 886.5160285609726 61.62978523939866 L 886.3666985891713 61.54572315140702 L 886.2192356080938 61.4609902244384 L 886.0736543639152 61.375594931714886 L 885.9299694146388 61.2895458126946 L 885.7881951286396 61.202851472217716 L 885.6483456832282 61.11552057964606 L 885.5104350632324 61.02756186799609 L 885.3744770595994 60.93898413306569 L 885.2404852680163 60.84979623255453 L 885.1084730875506 60.76000708517834 L 884.9784537193102 60.669625669777034 L 884.8504401651237 60.57866102441683 L 884.7244452262398 60.487122245486475 L 884.6004815020475 60.39501848678756 L 884.4785613888158 60.302358958619216 L 884.3586970784544 60.20915292685704 L 884.2409005572945 60.11540971202653 L 884.12518360489 60.02113868837107 L 884.0115577928398 59.926349282914444 L 883.9000344836304 59.83105097451821 L 883.7906248294997 59.735253292933805 L 883.683339771322 59.63896581784955 L 883.5781900375138 59.54219817793271 L 883.4751861429608 59.444960049866644 L 883.3743383879664 59.34726115738312 L 883.2756568572223 59.24911127028998 L 883.1791514187994 59.15052020349414 L 883.084831723161 59.05149781602011 L 882.992707202198 58.95205401002413 L 882.9027870682858 58.85219872980392 L 882.8150803133628 58.75194196080431 L 882.7295957080315 58.651293728618626 L 882.6463418006813 58.550264097986236 L 882.5653269166332 58.448863171785995 L 882.4865591573084 58.34710109002604 L 882.4100463994172 58.244988028829724 L 882.3357962941714 58.14253419941809 L 882.2638162665198 58.03974984708869 L 882.1941135144051 57.93664525019112 L 882.1266950080446 57.833230719099134 L 882.0615674892326 57.72951659517967 L 881.9987374706667 57.62551324975868 L 881.9382112352965 57.521231083084054 L 881.879994835695 57.41668052328555 L 881.8240940934538 57.311872025332015 L 881.7705145986004 57.20681606998592 L 881.7192617090395 57.10152316275524 L 881.6703405500177 56.996003832842966 L 881.6237560136099 56.89026863209415 L 881.579512758231 56.78432813394075 L 881.5376152081695 56.6781929323443 L 881.4980675531458 56.57187364073653 L 881.4608737478922 56.465380890957974 L 881.4260375117583 56.35872533219489 L 881.3935623283386 56.25191762991426 L 881.3634514451246 56.144968464797316 L 881.3357078731793 56.037888531671435 L 881.310334386837 55.930688538440705 L 881.287333523425 55.823379205015115 L 881.2667075830105 55.71597126223858 L 881.2484586281704 55.60847545081588 L 881.232588483785 55.50090252023857 L 881.2190987368555 55.39326322771006 L 881.2079907363452 55.28556833706991 L 881.1992655930452 55.17782861771744 L 881.1929241794622 55.0700548435348 L 881.1889671297326 54.96225779180959 L 881.1873948395579 54.85444824215717" stroke-miterlimit="10" stroke-width="2.7769845610000004" stroke-dasharray=""/></g><g><g/><text fill="black" stroke="none" font-family="sans-serif" font-size="11pt" font-style="normal" font-weight="normal" text-decoration="normal" x="858.6015654871732" y="83.14618479699999" text-anchor="start" dominant-baseline="alphabetic" xml:space="preserve">PermissionDB</text></g><g><path fill="white" stroke="black" paint-order="fill stroke markers" d=" M 980.6256104945638 56.029747319 L 980.6256104945638 21.725820389 L 1028.3244041305638 21.725820389 L 1028.3244041305638 56.029747319" stroke-miterlimit="10" stroke-width="2.7769845610000004" stroke-dasharray=""/><path fill="white" stroke="black" paint-order="fill stroke markers" d=" M 1028.3244041305638 20.5333505481 L 1028.3232116706602 20.64116109301662 L 1028.319634410194 20.748960856968594 L 1028.3136727068886 20.85673906006935 L 1028.3053271569095 20.964484924588405 L 1028.2945985948043 21.072187676029085 L 1028.2814880934204 21.179836544206 L 1028.265996963797 21.287420764322043 L 1028.2481267550345 21.394929578044856 L 1028.2278792541385 21.502352234582652 L 1028.2052564858423 21.6096779917593 L 1028.1802607124039 21.716896117088513 L 1028.15289443338 21.82399588884712 L 1028.1231603853753 21.93096659714718 L 1028.0910615417702 22.037797545007013 L 1028.056601112422 22.144478049420858 L 1028.0197825433452 22.250997442427174 L 1027.980609516366 22.357345072175423 L 1027.9390859487542 22.463510303991256 L 1027.8952159928322 22.56948252143996 L 1027.849004035559 22.6752511273881 L 1027.8004546980915 22.780805545063224 L 1027.7495728353235 22.886135219111527 L 1027.6963635353984 22.991229616653374 L 1027.6408321192023 23.09607822833659 L 1027.5829841398304 23.200670569387384 L 1027.5228253820321 23.304996180658804 L 1027.4603618616334 23.40904462967667 L 1027.3955998249344 23.51280551168278 L 1027.3285457480843 23.616268450675403 L 1027.2592063364352 23.719423100446857 L 1027.1875885238708 23.82225914561813 L 1027.113699472112 23.9247663026704 L 1027.0375465700029 24.026934320973382 L 1026.9591374327701 24.128752983810383 L 1026.8784799012622 24.230212109399975 L 1026.7955820411646 24.331301551914144 L 1026.7104521421948 24.432011202492884 L 1026.6230987172714 24.532330990255055 L 1026.5335305016642 24.63225088330548 L 1026.44175645212 24.731760889738126 L 1026.3477857459677 24.830851058635275 L 1026.2516277801992 24.929511481062605 L 1026.153292170531 25.027732291060094 L 1026.0527887504422 25.125503666628592 L 1025.950127570191 25.222815830712022 L 1025.84531889581 25.319659052175062 L 1025.738373208079 25.416023646776274 L 1025.6293012014783 25.511899978136498 L 1025.5181137831169 25.607278458702496 L 1025.4048220716443 25.70214955070569 L 1025.2894373961374 25.796503767115947 L 1025.1719712949673 25.890331672590246 L 1025.0524355146465 25.983623884416232 L 1024.9308420086531 26.076371073450467 L 1024.8072029362368 26.168563965051334 L 1024.6815306612014 26.260193340006502 L 1024.5538377506698 26.351250035454832 L 1024.424136973827 26.44172494580266 L 1024.292441300642 26.531609023634346 L 1024.1587639005727 26.62089328061701 L 1024.0231181412478 26.709568788399363 L 1023.8855175871299 26.79762667950451 L 1023.74597599816 26.885058148216736 L 1023.6045073283807 26.97185445146202 L 1023.4611257245409 27.05800690968237 L 1023.3158455246818 27.143506907703753 L 1023.1686812567019 27.228345895597624 L 1023.0196476369058 27.31251538953589 L 1022.8687595685309 27.3960069726393 L 1022.7160321402586 27.47881229581911 L 1022.5614806247042 27.56092307861202 L 1022.4051204768908 27.64233111000817 L 1022.2469673327025 27.723028249272257 L 1022.0870370073222 27.803006426757605 L 1021.925345493649 27.882257644713114 L 1021.7619089606998 27.96077397808303 L 1021.5967437519912 28.038547575299447 L 1021.4298663839069 28.115570659067455 L 1021.2612935440444 28.19183552714286 L 1021.0910420895473 28.267334553102412 L 1020.9191290454191 28.34206018710643 L 1020.7455716028211 28.416004956653783 L 1020.5703871173528 28.489161467329136 L 1020.3935931073167 28.561522403542384 L 1020.2152072519667 28.633080529260212 L 1020.0352473897394 28.70382868872968 L 1019.8537315164714 28.773759807193787 L 1019.6706777835984 28.842866891598973 L 1019.4861044963415 28.911143031294383 L 1019.3000301118752 28.978581398722945 L 1019.1124732374833 29.045175250104112 L 1018.9234526286966 29.110917926108243 L 1018.7329871874188 29.175802852522523 L 1018.5410959600349 29.239823540908375 L 1018.3477981355081 29.30297358925032 L 1018.1531130434596 29.365246682596148 L 1017.9570601522364 29.426636593688414 L 1017.7596590669642 29.487137183587166 L 1017.5609295275872 29.546742402283833 L 1017.3608914068934 29.605446289306215 L 1017.1595647085285 29.663242974314535 L 1016.9569695649944 29.720126677688448 L 1016.7531262356366 29.776091711105025 L 1016.5480551046184 29.831132478107563 L 1016.3417766788816 29.885243474665224 L 1016.1343115860973 29.938419289723445 L 1015.9256805726016 29.990654605745036 L 1015.7159045013221 30.041944199241925 L 1015.5050043496911 30.092282941297498 L 1015.2930012075481 30.1416657980795 L 1015.0799162750304 30.190087831343412 L 1014.8657708604541 30.23754419892625 L 1014.6505863781817 30.28403015523081 L 1014.4343843464825 30.329541051700197 L 1014.2171863853794 30.374072337282684 L 1013.9990142144874 30.417619558886827 L 1013.7798896508418 30.460178361826756 L 1013.5598346067164 30.501744490257643 L 1013.3388710874324 30.54231378760128 L 1013.1170211891574 30.581882196961743 L 1012.8943070966964 30.620445761531066 L 1012.6707510812729 30.658000624984936 L 1012.4463754983025 30.694543031868292 L 1012.2212027851562 30.730069327970906 L 1011.9952554589178 30.764575960692767 L 1011.7685561141316 30.798059479399367 L 1011.5411274205431 30.830516535766726 L 1011.3129921208323 30.86194388411627 L 1011.084173028339 30.892338381739336 L 1010.8546930247817 30.921696989211505 L 1010.6245750579697 30.950016770696486 L 1010.3938421395076 30.977294894239733 L 1010.1625173424952 31.003528632051626 L 1009.9306237992193 31.028715360780247 L 1009.6981846988413 31.052852561773705 L 1009.4652232850772 31.075937821332012 L 1009.2317628538742 31.097968830948464 L 1008.9978267510812 31.118943387540448 L 1008.7634383701132 31.138859393669783 L 1008.5286211496133 31.15771485775246 L 1008.2933985711077 31.175507894257777 L 1008.057794156658 31.19223672389691 L 1007.8218314665097 31.207899673800846 L 1007.585534096735 31.222495177687634 L 1007.348925676874 31.236021776019058 L 1007.1120298675714 31.24847811614655 L 1006.874870358211 31.259862952446483 L 1006.6374708645458 31.27017514644471 L 1006.3998551263273 31.279413666930427 L 1006.1620469049317 31.287577590059286 L 1005.9240699809826 31.29466609944577 L 1005.6859481519742 31.300678486244855 L 1005.4477052298911 31.30561414922287 L 1005.2093650388267 31.309472594817628 L 1004.9709514126017 31.31225343718779 L 1004.73248819238 31.313956398251428 L 1004.4939992242848 31.31458130771386 L 1004.2555083570143 31.314128103084656 L 1004.0170394394564 31.312596829683912 L 1003.7786163183042 31.30998764063768 L 1003.5402628356712 31.306300796862697 L 1003.3020028267068 31.301536667040267 L 1003.0638601172136 31.2956957275794 L 1002.825858521264 31.288778562569174 L 1002.5880218388191 31.280785863720332 L 1002.3503738533492 31.27171843029609 L 1002.1129383294547 31.261577169032243 L 1001.87573901049 31.25036309404646 L 1001.6387996161895 31.238077326736896 L 1001.4021438402953 31.224721095670045 L 1001.1657953481874 31.21029573645788 L 1000.9297777745184 31.194802691624307 L 1000.6941147208488 31.178243510460895 L 1000.4588297532877 31.16061984887196 L 1000.2239464001357 31.14193346920898 L 999.9894881495323 31.12218624009434 L 999.7554784471075 31.101380136234503 L 999.5219406936361 31.079517238222515 L 999.2888982426992 31.056599732329957 L 999.0563743983475 31.03262991028832 L 998.8243924127717 31.007610169059838 L 998.592975483977 30.98154301059778 L 998.3621467534635 30.954431041596266 L 998.131929303912 30.926276973229612 L 997.9023461568754 30.897083620881187 L 997.6734202704771 30.866853903861898 L 997.4451745371151 30.835590845118258 L 997.2176317811725 30.803297570930084 L 996.9908147567352 30.769977310597895 L 996.7647461453167 30.735633396119944 L 996.5394485535898 30.70026926185907 L 996.3149445111256 30.663888444199216 L 996.0912564681418 30.62649458119185 L 995.8684067932559 30.588091412192092 L 995.6464177712497 30.54868277748485 L 995.4253116008407 30.50827261790075 L 995.2051103924613 30.46686497442208 L 994.9858361660491 30.42446398777868 L 994.7675108488439 30.381073898033875 L 994.5501562731955 30.33669904416049 L 994.3337941743805 30.291343863606926 L 994.1184461884282 30.245012891853445 L 993.9041338499579 30.197710761958614 L 993.6908785900248 30.149442204096005 L 993.4787017339773 30.10021204508118 L 993.267624499324 30.050025207889014 L 993.0576679936127 29.998886711161404 L 992.8488532123188 29.94680166870541 L 992.6412010367465 29.893775288981875 L 992.4347322319403 29.839812874584574 L 992.2294674446086 29.784919821709988 L 992.0254272010592 29.729101619617655 L 991.8226319051462 29.67236385008127 L 991.6211018362304 29.614712186830506 L 991.4208571471507 29.55615239498365 L 991.2219178622091 29.496690330471075 L 991.0243038751684 29.43633193944969 L 990.8280349472625 29.375083257708297 L 990.6331307052207 29.31295041006403 L 990.4396106393048 29.249939609749873 L 990.24749410136 29.186057157793353 L 990.0568003028802 29.121309442386426 L 989.8675483130862 29.055702938246682 L 989.6797570570193 28.98924420596986 L 989.4934453136486 28.921939891373807 L 989.3086317139932 28.85379672483389 L 989.1253347392592 28.784821520609988 L 988.9435727189909 28.71502117616503 L 988.7633638292394 28.644402671475305 L 988.5847260907432 28.572973068332434 L 988.4076773671272 28.5007395096372 L 988.2322353631164 28.42770921868528 L 988.058417622765 28.353889498444914 L 987.886241527702 28.279287730826603 L 987.7157242953937 28.20391137594495 L 987.5468829774211 28.127767971372624 L 987.3797344577752 28.05086513138663 L 987.2142954511688 27.973210546206882 L 987.0505825013646 27.894811981227186 L 986.8886119795213 27.81567727623871 L 986.728400082556 27.735814344646005 L 986.5699628315249 27.655231172675677 L 986.4133160700211 27.573935818577773 L 986.2584754625902 27.491936411819957 L 986.105456493164 27.409241152274568 L 985.9542744635116 27.325858309398654 L 985.8049444917103 27.241796221407014 L 985.6574815106328 27.157063294438398 L 985.5119002664543 27.07166800171489 L 985.3682153171778 26.985618882694595 L 985.2264410311786 26.89892454221772 L 985.0865915857672 26.811593649646056 L 984.9486809657715 26.723634937996092 L 984.8127229621384 26.63505720306569 L 984.6787311705554 26.54586930255453 L 984.5467189900896 26.45608015517834 L 984.4166996218493 26.365698739777034 L 984.2886860676628 26.274734094416832 L 984.1626911287789 26.183195315486472 L 984.0387274045866 26.09109155678756 L 983.9168072913549 25.998432028619217 L 983.7969429809934 25.90522599685704 L 983.6791464598335 25.811482782026534 L 983.5634295074291 25.717211758371064 L 983.4498036953788 25.62242235291444 L 983.3382803861695 25.527124044518214 L 983.2288707320388 25.431326362933806 L 983.1215856738611 25.33503888784955 L 983.0164359400528 25.238271247932712 L 982.9134320454998 25.141033119866645 L 982.8125842905055 25.043334227383127 L 982.7139027597614 24.945184340289984 L 982.6173973213384 24.84659327349414 L 982.5230776257 24.74757088602011 L 982.430953104737 24.648127080024132 L 982.3410329708248 24.548271799803928 L 982.2533262159019 24.448015030804306 L 982.1678416105706 24.34736679861863 L 982.0845877032203 24.246337167986233 L 982.0035728191723 24.144936241786 L 981.9248050598475 24.043174160026034 L 981.8482923019562 23.941061098829724 L 981.7740421967104 23.83860726941809 L 981.7020621690589 23.735822917088697 L 981.6323594169442 23.63271832019112 L 981.5649409105837 23.52930378909913 L 981.4998133917717 23.425589665179665 L 981.4369833732057 23.32158631975868 L 981.3764571378356 23.21730415308405 L 981.3182407382341 23.112753593285547 L 981.2623399959929 23.00794509533202 L 981.2087605011394 22.90288913998592 L 981.1575076115786 22.797596232755243 L 981.1085864525568 22.692076902842967 L 981.0620019161489 22.58634170209415 L 981.01775866077 22.48040120394075 L 980.9758611107086 22.374266002344307 L 980.9363134556849 22.267946710736528 L 980.8991196504312 22.161453960957978 L 980.8642834142973 22.05479840219489 L 980.8318082308776 21.94799069991426 L 980.8016973476637 21.841041534797313 L 980.7739537757184 21.733961601671435 L 980.748580289376 21.62676160844071 L 980.725579425964 21.51945227501512 L 980.7049534855496 21.412044332238587 L 980.6867045307094 21.30454852081588 L 980.670834386324 21.19697559023857 L 980.6573446393945 21.08933629771006 L 980.6462366388843 20.98164140706991 L 980.6375114955842 20.87390168771744 L 980.6311700820013 20.7661279135348 L 980.6272130322717 20.658330861809592 L 980.625640742097 20.55052131215717 L 980.6264533687049 20.442710045442645 L 980.6296508308335 20.334907842702854 L 980.6352328087391 20.227125484068235 L 980.6431987442288 20.119373747684833 L 980.6535478407155 20.011663408636494 L 980.6662790632984 19.904005237867363 L 980.6813911388655 19.7964100011048 L 980.6988825562221 19.688888457782824 L 980.7187515662408 19.581451359966163 L 980.7409961820375 19.47410945127507 L 980.765614179169 19.366873465810958 L 980.792603095856 19.259754127083017 L 980.8219602332293 19.15276214693585 L 980.8536826555999 19.04590822447831 L 980.8877671907518 18.939203045013606 L 980.9242104302598 18.832657278970757 L 980.9630087298306 18.72628158083758 L 981.0041582096662 18.620086588095244 L 981.0476547548533 18.51408292015453 L 981.0934940157733 18.408281177293887 L 981.1416714085385 18.302691939599445 L 981.1921821154498 18.197325765906974 L 981.2450210854784 18.092193192746045 L 981.3001830347715 17.987304733286358 L 981.3576624471801 17.882670876286454 L 981.4174535748109 17.77830208504484 L 981.4795504386008 17.674208796353664 L 981.5439468289153 17.570401419455052 L 981.6106363061691 17.46689033500019 L 981.6796122014699 17.36368589401126 L 981.7508676172857 17.260798416846367 L 981.8243954281344 17.158238192167477 L 981.900188281296 17.056015475911597 L 981.9782385975484 16.954140490265164 L 982.0585385719252 16.85262342264185 L 982.1410801744955 16.751474424663822 L 982.2258551511683 16.650703611146586 L 982.3128550245162 16.550321059087512 L 982.4020710946246 16.450336806658164 L 982.4934944399607 16.350760852200455 L 982.5871159182662 16.25160315322686 L 982.6829261674712 16.15287362542464 L 982.7809156066309 16.054582141664305 L 982.8810744368827 15.956738531012315 L 982.9833926424272 15.859352577748204 L 983.0878599915291 15.762434020386143 L 983.1944660375406 15.665992550701102 L 983.3032001199458 15.570037812759686 L 983.4140513654271 15.47457940195572 L 983.5270086889525 15.379626864050742 L 983.6420607948836 15.285189694219413 L 983.7591961781058 15.191277336100018 L 983.8784031251781 15.097899180850114 L 983.9996697155055 15.005064566207405 L 984.1229838225299 14.912782775555993 L 984.2483331149434 14.821063036998048 L 984.3757050579211 14.729914522430988 L 984.5050869143749 14.639346346630315 L 984.636465746227 14.549367566338134 L 984.7698284157036 14.459987179357494 L 984.905161586649 14.371214123652608 L 985.0424517258589 14.283057276455072 L 985.1816851044337 14.195525453376138 L 985.3228477991515 14.108627407525177 L 985.4659256938606 14.022371828634352 L 985.6109044808908 13.936767342189675 L 985.7577696624841 13.851822508568457 L 985.9065065522448 13.76754582218327 L 986.0571002766077 13.683945710632521 L 986.2095357763261 13.601030533857704 L 986.3637978079769 13.518808583307395 L 986.5198709454855 13.437288081108132 L 986.6777395816683 13.356477179242205 L 986.8373879297933 13.276383958732454 L 986.9988000251584 13.19701642883419 L 987.1619597266889 13.11838252623426 L 987.3268507185504 13.040490114257395 L 987.4934565117813 12.963346982079887 L 987.6617604459411 12.886960843950664 L 987.8317456907764 12.811339338419888 L 988.0033952479047 12.73649002757509 L 988.1766919525131 12.662420396284983 L 988.3516184750756 12.589137851450971 L 988.5281573230858 12.51664972126647 L 988.7062908428059 12.444963254484088 L 988.8860012210324 12.37408561969077 L 989.0672704868773 12.304023904590924 L 989.250080513565 12.234785115297683 L 989.4344130202452 12.166376175632273 L 989.620249573821 12.098803926431655 L 989.8075715907916 12.032075124864438 L 989.9963603391114 11.966196443755171 L 990.1865969400633 11.901174470917068 L 990.3782623701454 11.837015708493228 L 990.5713374629745 11.773726572306426 L 990.7658029112022 11.71131339121754 L 990.9616392684458 11.64978240649267 L 991.1588269512325 11.589139771179015 L 991.3573462409588 11.529391549489564 L 991.5571772858608 11.470543716196703 L 991.7583001030006 11.412602156034716 L 991.9606945802642 11.355572663111337 L 992.1643404783725 11.299460940328336 L 992.3692174329053 11.244272598811229 L 992.575304956338 11.190013157348178 L 992.7825824400899 11.136688041838113 L 992.9910291565853 11.084302584748148 L 993.2006242613265 11.03286202458034 L 993.4113467949775 10.982371505347833 L 993.6231756854605 10.932836076060482 L 993.8360897500631 10.88426069021993 L 994.0500676975563 10.836650205324288 L 994.2650881303235 10.790009382382364 L 994.4811295465007 10.74434288543759 L 994.6981703421262 10.6996552811016 L 994.9161888133016 10.655951038097594 L 995.1351631583611 10.613234526813446 L 995.3550714800529 10.571510018864695 L 995.5758917877281 10.530781686667359 L 995.7976019995398 10.49105360302072 L 996.0201799446517 10.452329740700035 L 996.2436033654546 10.41461397205927 L 996.4678499197928 10.377910068643855 L 996.6928971831977 10.342221700813546 L 996.9187226511305 10.307552437375389 L 997.1453037412325 10.273905745226832 L 997.3726177955837 10.241284989009054 L 997.6006420829677 10.209693430770495 L 997.8293538011462 10.179134229640646 L 998.0587300791378 10.14961044151416 L 998.288747979506 10.121125018745243 L 998.5193845006521 10.093680809852438 L 998.7506165791165 10.067280559233762 L 998.9824210918838 10.041926906892275 L 999.2147748586962 10.017622388172084 L 999.4476546443703 9.99436943350481 L 999.6810371611219 9.972170368166541 L 999.9148990708937 9.95102741204531 L 1000.1492169876896 9.930942679419111 L 1000.383967479913 9.91191817874447 L 1000.6191270727106 9.893955812455602 L 1000.854672250319 9.877057376774163 L 1001.0905794584166 9.861224561529642 L 1001.3268251064794 9.846458949990371 L 1001.5633855701392 9.832762018705198 L 1001.800237193547 9.820135137355836 L 1002.0373562917376 9.808579568619898 L 1002.2747191529991 9.798096468044628 L 1002.5123020412428 9.78868688393135 L 1002.7500811983781 9.780351757230632 L 1002.9880328466875 9.773091921448197 L 1003.2261331912042 9.766908102561576 L 1003.4643584220923 9.761800918947504 L 1003.7026847170274 9.757770881320084 L 1003.9410882435784 9.754818392679725 L 1004.1795451615912 9.752943748272825 L 1004.4180316255731 9.752147135562266 L 1004.6565237870761 9.752428634208655 L 1004.894997797083 9.753788216062361 L 1005.1334298083914 9.756225745166333 L 1005.3717959779989 9.75974097776969 L 1005.6100724694871 9.764333562352103 L 1005.8482354554056 9.770003039658938 L 1006.0862611196542 9.776748842747192 L 1006.3241256598646 9.784570297042176 L 1006.5618052897813 9.793466620404978 L 1006.7992762416394 9.803436923210677 L 1007.0365147685413 9.8144802084373 L 1007.2734971468323 9.826595371765528 L 1007.5101996784718 9.83978120168912 L 1007.7465986934042 9.854036379636078 L 1007.9826705519248 9.869359480100481 L 1008.2183916470444 9.885748970785057 L 1008.4537384068501 9.903203212754391 L 1008.688687296862 9.921720460598834 L 1008.9232148223867 9.941298862609031 L 1009.1572975308675 9.961936460961097 L 1009.3909120142282 9.983631191912394 L 1009.6240349112153 10.006380886007905 L 1009.8566429097334 10.030183268297181 L 1010.0887127491765 10.055035958561827 L 1010.320221222754 10.080936471553528 L 1010.5511451798114 10.107882217242567 L 1010.7814615281457 10.13587050107683 L 1011.0111472363136 10.164898524251257 L 1011.240179335936 10.194963383987721 L 1011.4685349239936 10.226062073825304 L 1011.6961911651181 10.258191483920934 L 1011.9231252938748 10.291348401360379 L 1012.1493146170402 10.325529510479525 L 1012.3747365158705 10.360731393195941 L 1012.5993684483634 10.396950529350695 L 1012.8231879515131 10.434183297060352 L 1013.0461726435557 10.472425973079169 L 1013.2683002262077 10.51167473317141 L 1013.4895484868962 10.551925652493777 L 1013.7098953009793 10.593174705987877 L 1013.9293186339592 10.635417768782737 L 1014.1477965436856 10.678650616607278 L 1014.3653071825495 10.722868926212747 L 1014.5818287996683 10.76806827580503 L 1014.7973397430607 10.814244145486835 L 1015.0118184618119 10.861391917709673 L 1015.2252435082289 10.909506877735609 L 1015.4375935399848 10.95858421410874 L 1015.6488473222536 11.008619019136324 L 1015.8589837298327 11.059606289379555 L 1016.0679817492568 11.111540926153898 L 1016.275820480898 11.164417736038953 L 1016.4824791410563 11.218231431397797 L 1016.687937064038 11.272976630905736 L 1016.8921737042219 11.328647860088443 L 1017.0951686381143 11.385239551869391 L 1017.2969015663908 11.442746047126562 L 1017.497352315927 11.501161595258353 L 1017.6965008418146 11.560480354758626 L 1017.8943272293671 11.620696393800868 L 1018.0908116961108 11.681803690831353 L 1018.2859345937626 11.7437961351713 L 1018.4796764101953 11.806667527627935 L 1018.6720177713887 11.870411581114405 L 1018.8629394433672 11.935021921278484 L 1019.0524223341223 12.000492087139994 L 1019.2404474955232 12.066815531736909 L 1019.4269961252103 12.133985622780036 L 1019.612049568476 12.201995643316248 L 1019.7955893201303 12.270838792400168 L 1019.977597026351 12.340508185774253 L 1020.1580544865191 12.410996856557224 L 1020.3369436550389 12.482297755940746 L 1020.5142466431427 12.554403753894292 L 1020.6899457206795 12.627307639878161 L 1020.8640233178878 12.701002123564503 L 1021.0364620271531 12.775479835566365 L 1021.2072446047481 12.85073332817461 L 1021.3763539725574 12.926755076102687 L 1021.543773219785 13.003537477239155 L 1021.7094856046458 13.081072853407886 L 1021.8734745560395 13.159353451135875 L 1022.0357236752075 13.238371442428583 L 1022.1962167373731 13.318118925552731 L 1022.3549376933639 13.398587925826458 L 1022.5118706712165 13.4797703964168 L 1022.6669999777638 13.561658219144345 L 1022.8203101002047 13.64424320529506 L 1022.9717857076544 13.727517096439154 L 1023.1214116526785 13.811471565256904 L 1023.2691729728073 13.89609821637139 L 1023.4150548920318 13.981388587188025 L 1023.5590428222816 14.0673341487408 L 1023.7011223648839 14.153926306545182 L 1023.8412793120026 14.241156401457552 L 1023.9794996480598 14.329015710541107 L 1024.1157695511372 14.417495447938157 L 1024.250075394358 14.506586765748693 L 1024.3824037472498 14.59628075491518 L 1024.5127413770874 14.68656844611344 L 1024.6410752502168 14.777440810649601 L 1024.7673925333575 14.868888761362928 L 1024.891680594886 14.96090315353456 L 1025.0139270061006 15.05347478580196 L 1025.1341195424613 15.146594401079039 L 1025.2522461848148 15.240252687481874 L 1025.3682951205956 15.33444027925987 L 1025.4822547450065 15.429147757732338 L 1025.59411366218 15.524365652230356 L 1025.703860686318 15.62008444104382 L 1025.811484842809 15.716294552373615 L 1025.9169753693275 15.812986365288783 L 1026.0203217169087 15.910150210688608 L 1026.1215135510035 16.00777637226952 L 1026.2205407525134 16.105855087496717 L 1026.3173934188005 16.204376548580406 L 1026.412061864679 16.30333090345658 L 1026.5045366233828 16.402708256772215 L 1026.5948084475135 16.502498670874793 L 1026.6828683099639 16.602692166806058 L 1026.768707404821 16.703278725299917 L 1026.8523171482468 16.80424828778434 L 1026.9336891793369 16.90559075738722 L 1027.0128153609558 17.00729599994605 L 1027.0896877805512 17.10935384502132 L 1027.1642987509454 17.211754086913583 L 1027.2366408111034 17.314486485683975 L 1027.3067067268796 17.41754076817823 L 1027.3744894917406 17.52090662905398 L 1027.4399823274666 17.62457373181127 L 1027.5031786848285 17.728531709826218 L 1027.564072244243 17.83277016738765 L 1027.6226569164055 17.93727868073668 L 1027.6789268428972 18.04204679910906 L 1027.7328763967726 18.147064045780258 L 1027.7845001831206 18.252319919113123 L 1027.8337930396065 18.357803893608033 L 1027.8807500369849 18.463505420955443 L 1027.9253664795958 18.569413931090704 L 1027.967637905832 18.675518833251058 L 1028.0075600885857 18.781809517034706 L 1028.0451290356723 18.88827535346185 L 1028.0803409902285 18.994905696037566 L 1028.1131924310878 19.101689881816455 L 1028.1436800731335 19.208617232468924 L 1028.1718008676273 19.31567705534902 L 1028.1975520025128 19.422858644563664 L 1028.2209309026978 19.530151282043253 L 1028.2419352303123 19.637544238613454 L 1028.2605628849403 19.745026775068098 L 1028.2768120038327 19.852588143243114 L 1028.2906809620906 19.960217587091314 L 1028.3021683728298 20.067904343758006 L 1028.311273087319 20.17563764465726 L 1028.3179941950941 20.283406716548765 L 1028.3223310240503 20.39120078261514 L 1028.3242831405078 20.49900906353961 M 1028.3244041305638 54.8372774781 L 1028.3232116706602 54.94508802301662 L 1028.319634410194 55.05288778696859 L 1028.3136727068886 55.160665990069354 L 1028.3053271569095 55.2684118545884 L 1028.2945985948043 55.376114606029084 L 1028.2814880934204 55.483763474206 L 1028.265996963797 55.591347694322046 L 1028.2481267550345 55.698856508044855 L 1028.2278792541385 55.80627916458265 L 1028.2052564858423 55.913604921759294 L 1028.1802607124039 56.02082304708851 L 1028.15289443338 56.12792281884712 L 1028.1231603853753 56.23489352714718 L 1028.0910615417702 56.34172447500701 L 1028.056601112422 56.44840497942086 L 1028.0197825433452 56.55492437242717 L 1027.980609516366 56.66127200217542 L 1027.9390859487542 56.76743723399125 L 1027.8952159928322 56.87340945143996 L 1027.849004035559 56.979178057388104 L 1027.8004546980915 57.08473247506323 L 1027.7495728353235 57.190062149111526 L 1027.6963635353984 57.295156546653374 L 1027.6408321192023 57.40000515833659 L 1027.5829841398304 57.50459749938738 L 1027.5228253820321 57.60892311065881 L 1027.4603618616334 57.71297155967667 L 1027.3955998249344 57.81673244168278 L 1027.3285457480843 57.9201953806754 L 1027.2592063364352 58.023350030446856 L 1027.1875885238708 58.12618607561813 L 1027.113699472112 58.228693232670395 L 1027.0375465700029 58.33086125097338 L 1026.9591374327701 58.43267991381038 L 1026.8784799012622 58.534139039399975 L 1026.7955820411646 58.63522848191415 L 1026.7104521421948 58.73593813249288 L 1026.6230987172714 58.83625792025505 L 1026.5335305016642 58.93617781330548 L 1026.44175645212 59.03568781973813 L 1026.3477857459677 59.13477798863527 L 1026.2516277801992 59.23343841106261 L 1026.153292170531 59.33165922106009 L 1026.0527887504422 59.42943059662859 L 1025.950127570191 59.52674276071202 L 1025.84531889581 59.623585982175065 L 1025.738373208079 59.71995057677627 L 1025.6293012014783 59.8158269081365 L 1025.5181137831169 59.9112053887025 L 1025.4048220716443 60.006076480705694 L 1025.2894373961374 60.10043069711595 L 1025.1719712949673 60.194258602590246 L 1025.0524355146465 60.287550814416235 L 1024.9308420086531 60.38029800345047 L 1024.8072029362368 60.47249089505134 L 1024.6815306612014 60.564120270006505 L 1024.5538377506698 60.655176965454835 L 1024.424136973827 60.74565187580266 L 1024.292441300642 60.83553595363435 L 1024.1587639005727 60.924820210617014 L 1024.0231181412478 61.01349571839936 L 1023.8855175871299 61.10155360950451 L 1023.74597599816 61.18898507821674 L 1023.6045073283807 61.27578138146202 L 1023.4611257245409 61.361933839682365 L 1023.3158455246818 61.447433837703755 L 1023.1686812567019 61.53227282559762 L 1023.0196476369058 61.61644231953589 L 1022.8687595685309 61.699933902639295 L 1022.7160321402586 61.782739225819114 L 1022.5614806247042 61.86485000861202 L 1022.4051204768908 61.94625804000817 L 1022.2469673327025 62.02695517927226 L 1022.0870370073222 62.1069333567576 L 1021.925345493649 62.18618457471311 L 1021.7619089606998 62.26470090808303 L 1021.5967437519912 62.34247450529945 L 1021.4298663839069 62.419497589067454 L 1021.2612935440444 62.49576245714286 L 1021.0910420895473 62.57126148310241 L 1020.9191290454191 62.64598711710643 L 1020.7455716028211 62.71993188665378 L 1020.5703871173528 62.793088397329136 L 1020.3935931073167 62.86544933354239 L 1020.2152072519667 62.937007459260215 L 1020.0352473897394 63.007755618729675 L 1019.8537315164714 63.07768673719379 L 1019.6706777835984 63.146793821598976 L 1019.4861044963415 63.21506996129438 L 1019.3000301118752 63.28250832872294 L 1019.1124732374833 63.34910218010411 L 1018.9234526286966 63.414844856108246 L 1018.7329871874188 63.47972978252252 L 1018.5410959600349 63.54375047090838 L 1018.3477981355081 63.606900519250324 L 1018.1531130434596 63.66917361259615 L 1017.9570601522364 63.73056352368841 L 1017.7596590669642 63.79106411358716 L 1017.5609295275872 63.85066933228383 L 1017.3608914068934 63.90937321930622 L 1017.1595647085285 63.96716990431453 L 1016.9569695649944 64.02405360768844 L 1016.7531262356366 64.08001864110503 L 1016.5480551046184 64.13505940810757 L 1016.3417766788816 64.18917040466522 L 1016.1343115860973 64.24234621972344 L 1015.9256805726016 64.29458153574504 L 1015.7159045013221 64.34587112924193 L 1015.5050043496911 64.3962098712975 L 1015.2930012075481 64.4455927280795 L 1015.0799162750304 64.49401476134341 L 1014.8657708604541 64.54147112892625 L 1014.6505863781817 64.58795708523081 L 1014.4343843464825 64.63346798170019 L 1014.2171863853794 64.67799926728269 L 1013.9990142144874 64.72154648888683 L 1013.7798896508418 64.76410529182675 L 1013.5598346067164 64.80567142025764 L 1013.3388710874324 64.84624071760128 L 1013.1170211891574 64.88580912696175 L 1012.8943070966964 64.92437269153106 L 1012.6707510812729 64.96192755498494 L 1012.4463754983025 64.9984699618683 L 1012.2212027851562 65.0339962579709 L 1011.9952554589178 65.06850289069277 L 1011.7685561141316 65.10198640939936 L 1011.5411274205431 65.13444346576672 L 1011.3129921208323 65.16587081411626 L 1011.084173028339 65.19626531173934 L 1010.8546930247817 65.2256239192115 L 1010.6245750579697 65.25394370069648 L 1010.3938421395076 65.28122182423974 L 1010.1625173424952 65.30745556205163 L 1009.9306237992193 65.33264229078024 L 1009.6981846988413 65.35677949177371 L 1009.4652232850772 65.37986475133201 L 1009.2317628538742 65.40189576094846 L 1008.9978267510812 65.42287031754044 L 1008.7634383701132 65.44278632366978 L 1008.5286211496133 65.46164178775246 L 1008.2933985711077 65.47943482425778 L 1008.057794156658 65.49616365389691 L 1007.8218314665097 65.51182660380084 L 1007.585534096735 65.52642210768764 L 1007.348925676874 65.53994870601906 L 1007.1120298675714 65.55240504614655 L 1006.874870358211 65.56378988244649 L 1006.6374708645458 65.57410207644472 L 1006.3998551263273 65.58334059693043 L 1006.1620469049317 65.59150452005929 L 1005.9240699809826 65.59859302944577 L 1005.6859481519742 65.60460541624485 L 1005.4477052298911 65.60954107922286 L 1005.2093650388267 65.61339952481762 L 1004.9709514126017 65.61618036718778 L 1004.73248819238 65.61788332825142 L 1004.4939992242848 65.61850823771385 L 1004.2555083570143 65.61805503308466 L 1004.0170394394564 65.61652375968391 L 1003.7786163183042 65.61391457063768 L 1003.5402628356712 65.61022772686269 L 1003.3020028267068 65.60546359704027 L 1003.0638601172136 65.5996226575794 L 1002.825858521264 65.59270549256917 L 1002.5880218388191 65.58471279372033 L 1002.3503738533492 65.5756453602961 L 1002.1129383294547 65.56550409903224 L 1001.87573901049 65.55429002404645 L 1001.6387996161895 65.5420042567369 L 1001.4021438402953 65.52864802567004 L 1001.1657953481874 65.51422266645788 L 1000.9297777745184 65.4987296216243 L 1000.6941147208488 65.48217044046089 L 1000.4588297532877 65.46454677887196 L 1000.2239464001357 65.44586039920898 L 999.9894881495323 65.42611317009434 L 999.7554784471075 65.4053070662345 L 999.5219406936361 65.38344416822251 L 999.2888982426992 65.36052666232996 L 999.0563743983475 65.33655684028832 L 998.8243924127717 65.31153709905983 L 998.592975483977 65.28546994059778 L 998.3621467534635 65.25835797159627 L 998.131929303912 65.23020390322961 L 997.9023461568754 65.2010105508812 L 997.6734202704771 65.1707808338619 L 997.4451745371151 65.13951777511826 L 997.2176317811725 65.10722450093009 L 996.9908147567352 65.0739042405979 L 996.7647461453167 65.03956032611994 L 996.5394485535898 65.00419619185907 L 996.3149445111256 64.96781537419922 L 996.0912564681418 64.93042151119185 L 995.8684067932559 64.89201834219209 L 995.6464177712497 64.85260970748485 L 995.4253116008407 64.81219954790075 L 995.2051103924613 64.77079190442208 L 994.9858361660491 64.72839091777868 L 994.7675108488439 64.68500082803388 L 994.5501562731955 64.64062597416049 L 994.3337941743805 64.59527079360693 L 994.1184461884282 64.54893982185345 L 993.9041338499579 64.50163769195862 L 993.6908785900248 64.45336913409601 L 993.4787017339773 64.40413897508118 L 993.267624499324 64.35395213788901 L 993.0576679936127 64.3028136411614 L 992.8488532123188 64.25072859870541 L 992.6412010367465 64.19770221898187 L 992.4347322319403 64.14373980458457 L 992.2294674446086 64.08884675170998 L 992.0254272010592 64.03302854961765 L 991.8226319051462 63.97629078008127 L 991.6211018362304 63.918639116830505 L 991.4208571471507 63.860079324983644 L 991.2219178622091 63.80061726047107 L 991.0243038751684 63.74025886944969 L 990.8280349472625 63.67901018770829 L 990.6331307052207 63.61687734006403 L 990.4396106393048 63.553866539749876 L 990.24749410136 63.48998408779335 L 990.0568003028802 63.42523637238643 L 989.8675483130862 63.359629868246685 L 989.6797570570193 63.29317113596986 L 989.4934453136486 63.225866821373806 L 989.3086317139932 63.15772365483389 L 989.1253347392592 63.088748450609984 L 988.9435727189909 63.01894810616503 L 988.7633638292394 62.94832960147531 L 988.5847260907432 62.87689999833243 L 988.4076773671272 62.8046664396372 L 988.2322353631164 62.73163614868528 L 988.058417622765 62.65781642844491 L 987.886241527702 62.583214660826606 L 987.7157242953937 62.50783830594495 L 987.5468829774211 62.43169490137262 L 987.3797344577752 62.35479206138663 L 987.2142954511688 62.27713747620688 L 987.0505825013646 62.19873891122719 L 986.8886119795213 62.11960420623871 L 986.728400082556 62.039741274646005 L 986.5699628315249 61.95915810267567 L 986.4133160700211 61.87786274857777 L 986.2584754625902 61.79586334181995 L 986.105456493164 61.71316808227457 L 985.9542744635116 61.62978523939866 L 985.8049444917103 61.54572315140702 L 985.6574815106328 61.4609902244384 L 985.5119002664543 61.375594931714886 L 985.3682153171778 61.2895458126946 L 985.2264410311786 61.202851472217716 L 985.0865915857672 61.11552057964606 L 984.9486809657715 61.02756186799609 L 984.8127229621384 60.93898413306569 L 984.6787311705554 60.84979623255453 L 984.5467189900896 60.76000708517834 L 984.4166996218493 60.669625669777034 L 984.2886860676628 60.57866102441683 L 984.1626911287789 60.487122245486475 L 984.0387274045866 60.39501848678756 L 983.9168072913549 60.302358958619216 L 983.7969429809934 60.20915292685704 L 983.6791464598335 60.11540971202653 L 983.5634295074291 60.02113868837107 L 983.4498036953788 59.926349282914444 L 983.3382803861695 59.83105097451821 L 983.2288707320388 59.735253292933805 L 983.1215856738611 59.63896581784955 L 983.0164359400528 59.54219817793271 L 982.9134320454998 59.444960049866644 L 982.8125842905055 59.34726115738312 L 982.7139027597614 59.24911127028998 L 982.6173973213384 59.15052020349414 L 982.5230776257 59.05149781602011 L 982.430953104737 58.95205401002413 L 982.3410329708248 58.85219872980392 L 982.2533262159019 58.75194196080431 L 982.1678416105706 58.651293728618626 L 982.0845877032203 58.550264097986236 L 982.0035728191723 58.448863171785995 L 981.9248050598475 58.34710109002604 L 981.8482923019562 58.244988028829724 L 981.7740421967104 58.14253419941809 L 981.7020621690589 58.03974984708869 L 981.6323594169442 57.93664525019112 L 981.5649409105837 57.833230719099134 L 981.4998133917717 57.72951659517967 L 981.4369833732057 57.62551324975868 L 981.3764571378356 57.521231083084054 L 981.3182407382341 57.41668052328555 L 981.2623399959929 57.311872025332015 L 981.2087605011394 57.20681606998592 L 981.1575076115786 57.10152316275524 L 981.1085864525568 56.996003832842966 L 981.0620019161489 56.89026863209415 L 981.01775866077 56.78432813394075 L 980.9758611107086 56.6781929323443 L 980.9363134556849 56.57187364073653 L 980.8991196504312 56.465380890957974 L 980.8642834142973 56.35872533219489 L 980.8318082308776 56.25191762991426 L 980.8016973476637 56.144968464797316 L 980.7739537757184 56.037888531671435 L 980.748580289376 55.930688538440705 L 980.725579425964 55.823379205015115 L 980.7049534855496 55.71597126223858 L 980.6867045307094 55.60847545081588 L 980.670834386324 55.50090252023857 L 980.6573446393945 55.39326322771006 L 980.6462366388843 55.28556833706991 L 980.6375114955842 55.17782861771744 L 980.6311700820013 55.0700548435348 L 980.6272130322717 54.96225779180959 L 980.625640742097 54.85444824215717" stroke-miterlimit="10" stroke-width="2.7769845610000004" stroke-dasharray=""/></g><g><g/><text fill="black" stroke="none" font-family="sans-serif" font-size="11pt" font-style="normal" font-weight="normal" text-decoration="normal" x="967.8071606328763" y="83.14618479699999" text-anchor="start" dominant-baseline="alphabetic" xml:space="preserve">AccountDB</text></g></g><g><g><rect fill="white" stroke="none" x="42.973605405260415" y="120.717152387" width="93.73375190796875" height="21.23576429"/><text fill="black" stroke="none" font-family="sans-serif" font-size="11pt" font-style="normal" font-weight="normal" text-decoration="normal" x="45.423885900260416" y="135.418835357" text-anchor="start" dominant-baseline="alphabetic" xml:space="preserve">Login attempt</text></g><g><path fill="none" stroke="black" paint-order="fill stroke markers" d=" M 23.64361483359375 141.952916677 L 142.58803050122918 141.952916677" stroke-miterlimit="10" stroke-width="1.3612669416666667" stroke-dasharray=""/><g transform="translate(156.03734788489584,141.952916677) translate(-156.03734788489584,-141.952916677)"><path fill="black" stroke="none" paint-order="stroke fill markers" d=" M 142.42467846822916 135.14658196866665 L 156.03734788489584 141.952916677 L 142.42467846822916 148.75925138533333 Z"/></g></g><g><rect fill="white" stroke="none" x="175.3673384565625" y="166.455721627" width="132.03009285035156" height="21.23576429"/><text fill="black" stroke="none" font-family="sans-serif" font-size="11pt" font-style="normal" font-weight="normal" text-decoration="normal" x="177.81761895156248" y="181.15740459699998" text-anchor="start" dominant-baseline="alphabetic" xml:space="preserve">Route login attempt</text></g><g><path fill="none" stroke="black" paint-order="fill stroke markers" d=" M 156.03734788489584 187.691485917 L 313.27810449491403 187.691485917" stroke-miterlimit="10" stroke-width="1.3612669416666667" stroke-dasharray=""/><g transform="translate(326.7274218785807,187.691485917) translate(-326.7274218785807,-187.691485917)"><path fill="black" stroke="none" paint-order="stroke fill markers" d=" M 313.114752461914 180.88515120866666 L 326.7274218785807 187.691485917 L 313.114752461914 194.49782062533333 Z"/></g></g><g><rect fill="white" stroke="none" x="346.05741245024734" y="212.194290867" width="206.14598335328125" height="21.23576429"/><text fill="black" stroke="none" font-family="sans-serif" font-size="11pt" font-style="normal" font-weight="normal" text-decoration="normal" x="348.50769294524736" y="226.89597383699999" text-anchor="start" dominant-baseline="alphabetic" xml:space="preserve">Route to permissionser service</text></g><g><path fill="none" stroke="black" paint-order="fill stroke markers" d=" M 326.7274218785807 233.430055157 L 558.0840689915286 233.430055157" stroke-miterlimit="10" stroke-width="1.3612669416666667" stroke-dasharray=""/><g transform="translate(571.5333863751953,233.430055157) translate(-571.5333863751953,-233.430055157)"><path fill="black" stroke="none" paint-order="stroke fill markers" d=" M 557.9207169585286 226.62372044866666 L 571.5333863751953 233.430055157 L 557.9207169585286 240.23638986533334 Z"/></g></g><g><rect fill="white" stroke="none" x="590.863376946862" y="257.93286010699995" width="184.19899238648438" height="21.23576429"/><text fill="black" stroke="none" font-family="sans-serif" font-size="11pt" font-style="normal" font-weight="normal" text-decoration="normal" x="593.313657441862" y="272.63454307699993" text-anchor="start" dominant-baseline="alphabetic" xml:space="preserve">Send login_attempt request</text></g><g><path fill="none" stroke="black" paint-order="fill stroke markers" d=" M 571.5333863751953 279.168624397 L 780.9430425213463 279.168624397" stroke-miterlimit="10" stroke-width="1.3612669416666667" stroke-dasharray=""/><g transform="translate(794.392359905013,279.168624397) translate(-794.392359905013,-279.168624397)"><path fill="black" stroke="none" paint-order="stroke fill markers" d=" M 780.7796904883463 272.36228968866664 L 794.392359905013 279.168624397 L 780.7796904883463 285.9749591053333 Z"/></g></g><g><rect fill="white" stroke="none" x="838.7228745493353" y="303.67142934699996" width="121.42161811890625" height="21.23576429"/><text fill="black" stroke="none" font-family="sans-serif" font-size="11pt" font-style="normal" font-weight="normal" text-decoration="normal" x="841.1731550443353" y="318.37311231699994" text-anchor="start" dominant-baseline="alphabetic" xml:space="preserve">Check credentials</text></g><g><path fill="none" stroke="black" paint-order="fill stroke markers" d=" M 794.392359905013 324.907193637 L 991.0256899288971 324.907193637" stroke-miterlimit="10" stroke-width="1.3612669416666667" stroke-dasharray=""/><g transform="translate(1004.4750073125638,324.907193637) translate(-1004.4750073125638,-324.907193637)"><path fill="black" stroke="none" paint-order="stroke fill markers" d=" M 990.8623378958971 318.10085892866664 L 1004.4750073125638 324.907193637 L 990.8623378958971 331.7135283453333 Z"/></g></g><g><rect fill="white" stroke="none" x="640.5770305113151" y="393.51504749699996" width="84.77168525757813" height="21.23576429"/><text fill="black" stroke="none" font-family="sans-serif" font-size="11pt" font-style="normal" font-weight="normal" text-decoration="normal" x="643.0273110063151" y="408.21673046699993" text-anchor="start" dominant-baseline="alphabetic" xml:space="preserve">Login Failed</text></g><g><path fill="none" stroke="black" paint-order="fill stroke markers" d=" M 794.392359905013 414.750811787 L 584.9827037588619 414.750811787" stroke-miterlimit="10" stroke-width="1.3612669416666667" stroke-dasharray="6.53408132"/><g transform="translate(571.5333863751953,414.750811787) translate(-571.5333863751953,-414.750811787)"><path fill="black" stroke="none" paint-order="stroke fill markers" d=" M 585.146055791862 407.94447707866664 L 571.5333863751953 414.750811787 L 585.146055791862 421.5571464953333 Z"/></g></g><g><rect fill="white" stroke="none" x="404.7080548452669" y="439.25361673699996" width="88.84469856324219" height="21.23576429"/><text fill="black" stroke="none" font-family="sans-serif" font-size="11pt" font-style="normal" font-weight="normal" text-decoration="normal" x="407.1583353402669" y="453.95529970699994" text-anchor="start" dominant-baseline="alphabetic" xml:space="preserve">Login Failed </text></g><g><path fill="none" stroke="black" paint-order="fill stroke markers" d=" M 571.5333863751953 460.489381027 L 340.17673926224734 460.489381027" stroke-miterlimit="10" stroke-width="1.3612669416666667" stroke-dasharray="6.53408132"/><g transform="translate(326.7274218785807,460.489381027) translate(-326.7274218785807,-460.489381027)"><path fill="black" stroke="none" paint-order="stroke fill markers" d=" M 340.34009129524736 453.68304631866664 L 326.7274218785807 460.489381027 L 340.34009129524736 467.2957157353333 Z"/></g></g><g><rect fill="white" stroke="none" x="198.9965422529492" y="484.99218597699996" width="84.77168525757813" height="21.23576429"/><text fill="black" stroke="none" font-family="sans-serif" font-size="11pt" font-style="normal" font-weight="normal" text-decoration="normal" x="201.4468227479492" y="499.69386894699994" text-anchor="start" dominant-baseline="alphabetic" xml:space="preserve">Login Failed</text></g><g><path fill="none" stroke="black" paint-order="fill stroke markers" d=" M 326.7274218785807 506.227950267 L 169.4866652685625 506.227950267" stroke-miterlimit="10" stroke-width="1.3612669416666667" stroke-dasharray="6.53408132"/><g transform="translate(156.03734788489584,506.227950267) translate(-156.03734788489584,-506.227950267)"><path fill="black" stroke="none" paint-order="stroke fill markers" d=" M 169.6500173015625 499.42161555866664 L 156.03734788489584 506.227950267 L 169.6500173015625 513.0342849753333 Z"/></g></g><g><rect fill="white" stroke="none" x="629.9972270445182" y="555.233560167" width="105.93129219117188" height="21.23576429"/><text fill="black" stroke="none" font-family="sans-serif" font-size="11pt" font-style="normal" font-weight="normal" text-decoration="normal" x="632.4475075395183" y="569.9352431369999" text-anchor="start" dominant-baseline="alphabetic" xml:space="preserve">Return success</text></g><g><path fill="none" stroke="black" paint-order="fill stroke markers" d=" M 794.392359905013 576.469324457 L 584.9827037588619 576.469324457" stroke-miterlimit="10" stroke-width="1.3612669416666667" stroke-dasharray="6.53408132"/><g transform="translate(571.5333863751953,576.469324457) translate(-571.5333863751953,-576.469324457)"><path fill="black" stroke="none" paint-order="stroke fill markers" d=" M 585.146055791862 569.6629897486666 L 571.5333863751953 576.469324457 L 585.146055791862 583.2756591653333 Z"/></g></g><g><rect fill="white" stroke="none" x="655.1691134659693" y="600.9721294069999" width="166.23192085328125" height="21.23576429"/><text fill="black" stroke="none" font-family="sans-serif" font-size="11pt" font-style="normal" font-weight="normal" text-decoration="normal" x="657.6193939609693" y="615.6738123769999" text-anchor="start" dominant-baseline="alphabetic" xml:space="preserve">Get account permissions</text></g><g><path fill="none" stroke="black" paint-order="fill stroke markers" d=" M 571.5333863751953 622.2078936969999 L 891.5874440263581 622.2078936969999" stroke-miterlimit="10" stroke-width="1.3612669416666667" stroke-dasharray=""/><g transform="translate(905.0367614100247,622.2078936969999) translate(-905.0367614100247,-622.2078936969999)"><path fill="black" stroke="none" paint-order="stroke fill markers" d=" M 891.424091993358 615.4015589886666 L 905.0367614100247 622.2078936969999 L 891.424091993358 629.0142284053333 Z"/></g></g><g><rect fill="white" stroke="none" x="390.4525235342317" y="646.7106986469998" width="117.3557611853125" height="21.23576429"/><text fill="black" stroke="none" font-family="sans-serif" font-size="11pt" font-style="normal" font-weight="normal" text-decoration="normal" x="392.90280402923173" y="661.4123816169998" text-anchor="start" dominant-baseline="alphabetic" xml:space="preserve">send session key</text></g><g><path fill="none" stroke="black" paint-order="fill stroke markers" d=" M 571.5333863751953 667.9464629369999 L 340.17673926224734 667.9464629369999" stroke-miterlimit="10" stroke-width="1.3612669416666667" stroke-dasharray="6.53408132"/><g transform="translate(326.7274218785807,667.9464629369999) translate(-326.7274218785807,-667.9464629369999)"><path fill="black" stroke="none" paint-order="stroke fill markers" d=" M 340.34009129524736 661.1401282286665 L 326.7274218785807 667.9464629369999 L 340.34009129524736 674.7527976453332 Z"/></g></g><g><rect fill="white" stroke="none" x="181.0795958418164" y="692.4492678869998" width="120.60557807984375" height="21.23576429"/><text fill="black" stroke="none" font-family="sans-serif" font-size="11pt" font-style="normal" font-weight="normal" text-decoration="normal" x="183.5298763368164" y="707.1509508569998" text-anchor="start" dominant-baseline="alphabetic" xml:space="preserve">Store session key</text></g><g><path fill="none" stroke="black" paint-order="fill stroke markers" d=" M 326.7274218785807 713.6850321769998 L 169.4866652685625 713.6850321769998" stroke-miterlimit="10" stroke-width="1.3612669416666667" stroke-dasharray="6.53408132"/><g transform="translate(156.03734788489584,713.6850321769998) translate(-156.03734788489584,-713.6850321769998)"><path fill="black" stroke="none" paint-order="stroke fill markers" d=" M 169.6500173015625 706.8786974686665 L 156.03734788489584 713.6850321769998 L 169.6500173015625 720.4913668853332 Z"/></g></g><g><rect fill="white" stroke="none" x="69.45534826414713" y="738.1878371269997" width="40.770266190195315" height="21.23576429"/><text fill="black" stroke="none" font-family="sans-serif" font-size="11pt" font-style="normal" font-weight="normal" text-decoration="normal" x="71.90562875914713" y="752.8895200969997" text-anchor="start" dominant-baseline="alphabetic" xml:space="preserve">Login</text></g><g><path fill="none" stroke="black" paint-order="fill stroke markers" d=" M 156.03734788489584 759.4236014169998 L 37.09293221726042 759.4236014169998" stroke-miterlimit="10" stroke-width="1.3612669416666667" stroke-dasharray="6.53408132"/><g transform="translate(23.64361483359375,759.4236014169998) translate(-23.64361483359375,-759.4236014169998)"><path fill="black" stroke="none" paint-order="stroke fill markers" d=" M 37.25628425026042 752.6172667086664 L 23.64361483359375 759.4236014169998 L 37.25628425026042 766.2299361253331 Z"/></g></g><g><g/><path fill="none" stroke="black" paint-order="fill stroke markers" d=" M 98.86413633489585 349.40999858699996 L 851.565571455013 349.40999858699996 L 851.565571455013 530.730755217 L 98.86413633489585 530.730755217 L 98.86413633489585 349.40999858699996 Z" stroke-miterlimit="10" stroke-width="2.3336004714285714" stroke-dasharray=""/><path fill="white" stroke="black" paint-order="fill stroke markers" d=" M 98.86413633489585 349.40999858699996 L 98.86413633489585 369.01224254699997 L 145.22333993196617 369.01224254699997 L 155.02446191196617 359.21112056699997 L 155.02446191196617 349.40999858699996 L 98.86413633489585 349.40999858699996" stroke-miterlimit="10" stroke-width="2.3336004714285714" stroke-dasharray=""/><text fill="black" stroke="none" font-family="sans-serif" font-size="8.8pt" font-style="normal" font-weight="bold" text-decoration="normal" x="115.19933963489585" y="362.478161227" text-anchor="start" dominant-baseline="alphabetic" xml:space="preserve">alt</text><g><rect fill="white" stroke="none" x="168.90938471696617" y="350.716814851" width="102.01660408082031" height="16.988611432000003"/></g><text fill="black" stroke="none" font-family="sans-serif" font-size="8.8pt" font-style="normal" font-weight="bold" text-decoration="normal" x="171.35966521196616" y="362.478161227" text-anchor="start" dominant-baseline="alphabetic" xml:space="preserve">[Bad Credentials]</text></g></g><g/><g/><g/><g/><g/><g/><g/></g></svg>