<svg xmlns="http://www.w3.org/2000/svg" xmlns:xlink="http://www.w3.org/1999/xlink" version="1.1" width="1252.582850772396" height="1471.4899634488181"><desc>title%20Amenities%0A%0Aactor%20Guest%0Aparticipant%20%22Guest%20Front-end%22%20as%20GuestFrontend%0Aparticipant%20NGINX%0Aparticipant%20%22Amenities%20Microservice%22%20as%20AmenitiesService%0Adatabase%20Amenity%20Database%0A%0AGuest%20-%3E%20GuestFrontend%20%3A%20(1)%20Request%20to%20view%20amenities%0AGuestFrontend%20-%3E%20NGINX%20%3A%20(2)%20Request%20for%20list%20of%20amenities%0ANGINX%20-%3E%20AmenitiesService%20%3A%20(3)%20Route%20to%20Amenities%20Microservice%0AAmenitiesService%20-%3E%20Amenity%20Database%20%3A%20(4)%20Query%20for%20amenities%0A%0Aalt%20Amenities%20were%20not%20found%0A%20%20%20%20AmenitiesService%20--%3E%20NGINX%20%3A%20(5)%20Return%20400%20status%0A%20%20%20%20NGINX%20--%3E%20GuestFrontend%20%3A%20(6)%20Return%20response%20%0A%20%20%20%20GuestFrontend%20--%3E%20Guest%20%3A%20(7)%20Display%20error%20%22Amenities%20not%20found%22%0Aelse%20Amenities%20were%20found%0A%20%20%20%20Amenity%20Database%20--%3E%20AmenitiesService%20%3A%20(8)%20Return%20amenities%20data%0A%20%20%20%20AmenitiesService%20--%3E%20NGINX%20%3A%20(9)%20Return%20200%20status%0A%20%20%20%20NGINX%20--%3E%20GuestFrontend%20%3A%20(10)%20Return%20response%20%0A%20%20%20%20GuestFrontend%20--%3E%20Guest%20%3A%20(11)%20Display%20amenities%20list%0Aend%0A%0AGuest%20-%3E%20GuestFrontend%20%3A%20(12)%20Request%20to%20view%20specified%20amenity%0AGuestFrontend%20-%3E%20NGINX%20%3A%20(13)%20Request%20for%20specified%20amenity%0ANGINX%20-%3E%20AmenitiesService%20%3A%20(14)%20Route%20to%20Amenities%20Service%0AAmenitiesService%20-%3E%20Amenity%20Database%20%3A%20(15)%20Query%20for%20specified%20amenity%0A%0Aalt%20Amenity%20not%20found%0A%20%20%20%20Amenity%20Database%20--%3E%20AmenitiesService%20%3A%20(16)%20Return%20amenity%20not%20found%0A%20%20%20%20AmenitiesService%20--%3E%20NGINX%20%3A%20(17)%20Return%20400%20status%0A%20%20%20%20NGINX%20--%3E%20GuestFrontend%20%3A%20(18)%20Return%20response%20%0A%20%20%20%20GuestFrontend%20--%3E%20Guest%20%3A%20(19)%20Display%20error%20%22Amenity%20not%20found%22%0Aelse%20Amenity%20found%0A%20%20%20%20Amenity%20Database%20--%3E%20AmenitiesService%20%3A%20(20)%20Return%20specified%20amenity%20data%0A%20%20%20%20AmenitiesService%20--%3E%20NGINX%20%3A%20(21)%20Return%20200%20status%0A%20%20%20%20NGINX%20--%3E%20GuestFrontend%20%3A%20(22)%20Return%20response%20%0A%20%20%20%20GuestFrontend%20--%3E%20Guest%20%3A%20(23)%20Display%20specified%20amenity%20details%0Aend%0A%0A%0A%0A%0A%0A</desc><defs/><g><g/><g/><g/><g/><g/><g/><g/><g/><g/><g/><g/><g/><g/><g/><g/><g/><g/><g/><g/><g/><g/><g/><g/><g/><g/><g/><g/><g/><g/><g/><g/><g/><g/><g/><g/><g/><g/><g/><g/><g/><g/><g/><g/><g/><g/><g/><g/><g/><g/><g/><g/><g/><g/><g/><g/><g/><g/><g/><g/><g/><g/><g/><g/><g/><g/><g/><g/><g/><g/><g/><g/><g/><g/><g/><g/><g/><g/><g/><g/><g/><g/><g/><g/><g/><g/><g/><g/><g/><g/><g/><g/><g/><g/><g/><g/><g/><g/><g/><g/><g/><g/><g/><g/><g/><g/><g/><g/><g/><g/><g/><g/><g/><g/><g/><g/><g/><g/><g/><g/><g/><g/><g/><g/><g/><g/><g/><g/><g/><g/><g/><g/><g/><g/><g/><g/><g/><g/><g/><g/><g/><g/><g/><g/><g/><g/><g/><g/><g/><g/><g/><g/><g/><g/><g/><g/><g/><g/><g/><g/><g/><g/><g/><g/><g/><g/><g/><g/><g/><g/><g/><g/><g/><g/><g/><g/><g/><g/><g/><g/><g/><g/><g/><g/><g/><g/><g/><g/><g/><g/><g/><g/><g/><g/><g/><g/><g/><g/><g/><g/><g/><g/><g/><g/><g/><g/><g/><g/><g/><g/><g/><g/><g/><g/><g/><g/><g/><g/><g/><g/><g/><g/><g/><g/><g/><g/><g/><g><rect fill="white" stroke="none" x="0" y="0" width="1252" height="1471"/></g><g/><g><path fill="none" stroke="black" paint-order="fill stroke markers" d=" M 73.50841485 128.73625218881818 L 73.50841485 1471.4899634488181" stroke-miterlimit="10" stroke-width="1.3612669416666667" stroke-dasharray="12.565541,5.445067766666667"/><path fill="none" stroke="black" paint-order="fill stroke markers" d=" M 368.8512445809896 128.73625218881818 L 368.8512445809896 1471.4899634488181" stroke-miterlimit="10" stroke-width="1.3612669416666667" stroke-dasharray="12.565541,5.445067766666667"/><path fill="none" stroke="black" paint-order="fill stroke markers" d=" M 635.6758248002604 128.73625218881818 L 635.6758248002604 1471.4899634488181" stroke-miterlimit="10" stroke-width="1.3612669416666667" stroke-dasharray="12.565541,5.445067766666667"/><path fill="none" stroke="black" paint-order="fill stroke markers" d=" M 911.4266592919922 128.73625218881818 L 911.4266592919922 1471.4899634488181" stroke-miterlimit="10" stroke-width="1.3612669416666667" stroke-dasharray="12.565541,5.445067766666667"/><path fill="none" stroke="black" paint-order="fill stroke markers" d=" M 1179.0744359223959 128.73625218881818 L 1179.0744359223959 1471.4899634488181" stroke-miterlimit="10" stroke-width="1.3612669416666667" stroke-dasharray="12.565541,5.445067766666667"/></g><g><g><path fill="white" stroke="black" paint-order="fill stroke markers" d=" M 82.819480731 59.63834222981819 A 9.311065881 9.311065881 0 1 1 82.81947607546743 59.62903116548903 M 73.50841485 68.9494081108182 L 73.50841485 88.8783561368182 M 61.747068473999995 76.13689756281819 L 85.26976122599999 76.13689756281819 M 73.50841485 88.8783561368182 L 61.747068473999995 107.50048789881819 M 73.50841485 88.8783561368182 L 85.26976122599999 107.50048789881819" stroke-miterlimit="10" stroke-width="2.7769845610000004" stroke-dasharray=""/></g><g><g/><text fill="black" stroke="none" font-family="sans-serif" font-size="11pt" font-style="normal" font-weight="normal" text-decoration="normal" x="53.95222435927734" y="123.83569119881818" text-anchor="start" dominant-baseline="alphabetic" xml:space="preserve">Guest</text></g><path fill="none" stroke="none"/><g><path fill="white" stroke="black" paint-order="fill stroke markers" d=" M 297.7560508925794 84.7945553118182 L 439.9464382693998 84.7945553118182 L 439.9464382693998 128.73625218881818 L 297.7560508925794 128.73625218881818 L 297.7560508925794 84.7945553118182 Z" stroke-miterlimit="10" stroke-width="2.613632528" stroke-dasharray=""/></g><g><text fill="black" stroke="none" font-family="sans-serif" font-size="11pt" font-style="normal" font-weight="normal" text-decoration="normal" x="315.47974647307944" y="112.40104888881818" text-anchor="start" dominant-baseline="alphabetic" xml:space="preserve">Guest Front-end</text></g><path fill="none" stroke="none"/><g><path fill="white" stroke="black" paint-order="fill stroke markers" d=" M 594.7380941855807 84.63120327881819 L 676.6135554149402 84.63120327881819 L 676.6135554149402 128.73625218881818 L 594.7380941855807 128.73625218881818 L 594.7380941855807 84.63120327881819 Z" stroke-miterlimit="10" stroke-width="2.613632528" stroke-dasharray=""/></g><g><g/><text fill="black" stroke="none" font-family="sans-serif" font-size="11pt" font-style="normal" font-weight="normal" text-decoration="normal" x="612.4617897660808" y="112.40104888881817" text-anchor="start" dominant-baseline="alphabetic" xml:space="preserve">NGINX</text></g><path fill="none" stroke="none"/><g><path fill="white" stroke="black" paint-order="fill stroke markers" d=" M 818.3486775176445 84.7945553118182 L 1004.5046410663399 84.7945553118182 L 1004.5046410663399 128.73625218881818 L 818.3486775176445 128.73625218881818 L 818.3486775176445 84.7945553118182 Z" stroke-miterlimit="10" stroke-width="2.613632528" stroke-dasharray=""/></g><g><text fill="black" stroke="none" font-family="sans-serif" font-size="11pt" font-style="normal" font-weight="normal" text-decoration="normal" x="836.0723730981446" y="112.40104888881818" text-anchor="start" dominant-baseline="alphabetic" xml:space="preserve">Amenities Microservice</text></g><g><path fill="white" stroke="black" paint-order="fill stroke markers" d=" M 1155.2250391043958 96.71925372081819 L 1155.2250391043958 62.41532679081819 L 1202.923832740396 62.41532679081819 L 1202.923832740396 96.71925372081819" stroke-miterlimit="10" stroke-width="2.7769845610000004" stroke-dasharray=""/><path fill="white" stroke="black" paint-order="fill stroke markers" d=" M 1202.923832740396 61.22285694991819 L 1202.9226402804923 61.33066749483481 L 1202.9190630200262 61.43846725878678 L 1202.9131013167207 61.546245461887544 L 1202.9047557667416 61.65399132640659 L 1202.8940272046364 61.761694077847274 L 1202.8809167032525 61.86934294602419 L 1202.8654255736292 61.976927166140236 L 1202.8475553648666 62.084435979863045 L 1202.8273078639706 62.19185863640084 L 1202.8046850956744 62.299184393577484 L 1202.779689322236 62.4064025189067 L 1202.752323043212 62.51350229066531 L 1202.7225889952074 62.62047299896537 L 1202.6904901516023 62.7273039468252 L 1202.656029722254 62.83398445123905 L 1202.6192111531773 62.94050384424536 L 1202.5800381261981 63.04685147399361 L 1202.5385145585863 63.15301670580944 L 1202.4946446026643 63.25898892325815 L 1202.448432645391 63.364757529206294 L 1202.3998833079236 63.47031194688142 L 1202.3490014451556 63.575641620929716 L 1202.2957921452305 63.68073601847156 L 1202.2402607290344 63.78558463015478 L 1202.1824127496625 63.89017697120557 L 1202.1222539918642 63.994502582477 L 1202.0597904714655 64.09855103149486 L 1201.9950284347665 64.20231191350096 L 1201.9279743579164 64.3057748524936 L 1201.8586349462673 64.40892950226505 L 1201.7870171337029 64.51176554743633 L 1201.7131280819442 64.61427270448858 L 1201.636975179835 64.71644072279157 L 1201.5585660426023 64.81825938562858 L 1201.4779085110943 64.91971851121816 L 1201.3950106509967 65.02080795373233 L 1201.3098807520269 65.12151760431107 L 1201.2225273271035 65.22183739207324 L 1201.1329591114963 65.32175728512367 L 1201.041185061952 65.42126729155632 L 1200.9472143557998 65.52035746045347 L 1200.8510563900313 65.6190178828808 L 1200.752720780363 65.71723869287828 L 1200.6522173602743 65.81501006844678 L 1200.549556180023 65.91232223253022 L 1200.444747505642 66.00916545399325 L 1200.3378018179112 66.10553004859446 L 1200.2287298113104 66.20140637995469 L 1200.117542392949 66.29678486052069 L 1200.0042506814764 66.39165595252388 L 1199.8888660059695 66.48601016893414 L 1199.7713999047994 66.57983807440844 L 1199.6518641244786 66.67313028623443 L 1199.5302706184852 66.76587747526865 L 1199.4066315460689 66.85807036686953 L 1199.2809592710335 66.94969974182469 L 1199.153266360502 67.04075643727302 L 1199.023565583659 67.13123134762085 L 1198.891869910474 67.22111542545254 L 1198.7581925104048 67.3103996824352 L 1198.6225467510799 67.39907519021754 L 1198.484946196962 67.4871330813227 L 1198.3454046079921 67.57456455003492 L 1198.203935938213 67.6613608532802 L 1198.0605543343731 67.74751331150055 L 1197.9152741345138 67.83301330952195 L 1197.7681098665341 67.91785229741582 L 1197.619076246738 68.00202179135408 L 1197.468188178363 68.08551337445749 L 1197.3154607500908 68.1683186976373 L 1197.1609092345363 68.25042948043021 L 1197.0045490867228 68.33183751182635 L 1196.8463959425346 68.41253465109044 L 1196.6864656171545 68.4925128285758 L 1196.5247741034811 68.5717640465313 L 1196.3613375705318 68.65028037990122 L 1196.1961723618233 68.72805397711764 L 1196.029294993739 68.80507706088565 L 1195.8607221538766 68.88134192896105 L 1195.6904706993794 68.95684095492061 L 1195.5185576552512 69.03156658892462 L 1195.3450002126533 69.10551135847197 L 1195.1698157271849 69.17866786914732 L 1194.9930217171488 69.25102880536058 L 1194.8146358617987 69.3225869310784 L 1194.6346759995715 69.39333509054786 L 1194.4531601263034 69.46326620901198 L 1194.2701063934305 69.53237329341717 L 1194.0855331061734 69.60064943311258 L 1193.8994587217073 69.66808780054113 L 1193.7119018473154 69.7346816519223 L 1193.5228812385287 69.80042432792644 L 1193.3324157972509 69.86530925434072 L 1193.140524569867 69.92932994272657 L 1192.9472267453402 69.9924799910685 L 1192.7525416532917 70.05475308441433 L 1192.5564887620685 70.1161429955066 L 1192.3590876767964 70.17664358540536 L 1192.1603581374193 70.23624880410202 L 1191.9603200167255 70.29495269112441 L 1191.7589933183606 70.35274937613272 L 1191.5563981748264 70.40963307950663 L 1191.3525548454688 70.46559811292322 L 1191.1474837144503 70.52063887992576 L 1190.9412052887137 70.57474987648341 L 1190.7337401959294 70.62792569154163 L 1190.5251091824337 70.68016100756323 L 1190.3153331111541 70.73145060106012 L 1190.1044329595231 70.78178934311569 L 1189.8924298173802 70.8311721998977 L 1189.6793448848625 70.8795942331616 L 1189.465199470286 70.92705060074444 L 1189.2500149880138 70.973536557049 L 1189.0338129563147 71.01904745351838 L 1188.8166149952115 71.06357873910088 L 1188.5984428243194 71.10712596070502 L 1188.379318260674 71.14968476364494 L 1188.1592632165487 71.19125089207583 L 1187.9382996972645 71.23182018941947 L 1187.7164497989895 71.27138859877994 L 1187.4937357065285 71.30995216334925 L 1187.270179691105 71.34750702680313 L 1187.0458041081345 71.38404943368649 L 1186.8206313949881 71.4195757297891 L 1186.5946840687498 71.45408236251096 L 1186.3679847239637 71.48756588121756 L 1186.1405560303751 71.52002293758491 L 1185.9124207306645 71.55145028593446 L 1185.683601638171 71.58184478355753 L 1185.4541216346138 71.61120339102969 L 1185.2240036678018 71.63952317251467 L 1184.9932707493397 71.66680129605793 L 1184.7619459523273 71.69303503386982 L 1184.5300524090515 71.71822176259843 L 1184.2976133086734 71.7423589635919 L 1184.0646518949093 71.7654442231502 L 1183.8311914637063 71.78747523276665 L 1183.5972553609133 71.80844978935863 L 1183.3628669799455 71.82836579548797 L 1183.1280497594455 71.84722125957065 L 1182.8928271809398 71.86501429607597 L 1182.6572227664901 71.8817431257151 L 1182.421260076342 71.89740607561903 L 1182.1849627065671 71.91200157950583 L 1181.948354286706 71.92552817783725 L 1181.7114584774035 71.93798451796474 L 1181.474298968043 71.94936935426468 L 1181.2368994743779 71.95968154826289 L 1180.9992837361594 71.96892006874862 L 1180.7614755147638 71.97708399187748 L 1180.5234985908148 71.98417250126396 L 1180.2853767618064 71.99018488806304 L 1180.047133839723 71.99512055104105 L 1179.8087936486588 71.99897899663581 L 1179.5703800224337 72.00175983900598 L 1179.3319168022122 72.00346280006961 L 1179.093427834117 72.00408770953204 L 1178.8549369668465 72.00363450490285 L 1178.6164680492886 72.0021032315021 L 1178.3780449281364 71.99949404245586 L 1178.1396914455033 71.9958071986809 L 1177.901431436539 71.99104306885846 L 1177.6632887270457 71.98520212939759 L 1177.425287131096 71.97828496438737 L 1177.1874504486511 71.97029226553852 L 1176.9498024631812 71.96122483211428 L 1176.7123669392868 71.95108357085043 L 1176.475167620322 71.93986949586466 L 1176.2382282260216 71.92758372855508 L 1176.0015724501272 71.91422749748824 L 1175.7652239580195 71.89980213827607 L 1175.5292063843506 71.8843090934425 L 1175.293543330681 71.86774991227908 L 1175.0582583631199 71.85012625069015 L 1174.8233750099678 71.83143987102717 L 1174.5889167593646 71.81169264191253 L 1174.3549070569395 71.79088653805269 L 1174.1213693034683 71.7690236400407 L 1173.8883268525312 71.74610613414815 L 1173.6558030081796 71.72213631210651 L 1173.4238210226038 71.69711657087802 L 1173.192404093809 71.67104941241597 L 1172.9615753632957 71.64393744341446 L 1172.731357913744 71.6157833750478 L 1172.5017747667075 71.58659002269937 L 1172.2728488803093 71.55636030568009 L 1172.0446031469473 71.52509724693644 L 1171.8170603910046 71.49280397274828 L 1171.5902433665674 71.45948371241609 L 1171.3641747551487 71.42513979793813 L 1171.1388771634217 71.38977566367726 L 1170.9143731209579 71.35339484601741 L 1170.690685077974 71.31600098301004 L 1170.467835403088 71.27759781401028 L 1170.245846381082 71.23818917930303 L 1170.0247402106727 71.19777901971894 L 1169.8045390022935 71.15637137624027 L 1169.5852647758811 71.11397038959687 L 1169.366939458676 71.07058029985207 L 1169.1495848830277 71.02620544597868 L 1168.9332227842126 70.98085026542512 L 1168.7178747982603 70.93451929367163 L 1168.50356245979 70.8872171637768 L 1168.290307199857 70.8389486059142 L 1168.0781303438093 70.78971844689937 L 1167.8670531091561 70.7395316097072 L 1167.6570966034449 70.6883931129796 L 1167.4482818221509 70.6363080705236 L 1167.2406296465786 70.58328169080006 L 1167.0341608417723 70.52931927640276 L 1166.8288960544407 70.47442622352818 L 1166.6248558108912 70.41860802143584 L 1166.4220605149783 70.36187025189946 L 1166.2205304460626 70.3042185886487 L 1166.0202857569827 70.24565879680183 L 1165.8213464720413 70.18619673228926 L 1165.6237324850006 70.12583834126788 L 1165.4274635570946 70.06458965952649 L 1165.2325593150529 70.00245681188221 L 1165.0390392491367 69.93944601156807 L 1164.846922711192 69.87556355961155 L 1164.6562289127123 69.81081584420461 L 1164.4669769229183 69.74520934006487 L 1164.2791856668514 69.67875060778805 L 1164.0928739234807 69.61144629319199 L 1163.9080603238253 69.54330312665208 L 1163.7247633490913 69.47432792242817 L 1163.543001328823 69.40452757798322 L 1163.3627924390714 69.3339090732935 L 1163.1841547005752 69.26247947015062 L 1163.0071059769593 69.19024591145539 L 1162.8316639729485 69.11721562050347 L 1162.657846232597 69.0433959002631 L 1162.485670137534 68.96879413264479 L 1162.315152905226 68.89341777776313 L 1162.1463115872532 68.81727437319081 L 1161.9791630676073 68.74037153320482 L 1161.8137240610008 68.66271694802508 L 1161.6500111111968 68.58431838304537 L 1161.4880405893534 68.5051836780569 L 1161.327828692388 68.4253207464642 L 1161.169391441357 68.34473757449386 L 1161.0127446798533 68.26344222039596 L 1160.8579040724223 68.18144281363814 L 1160.704885102996 68.09874755409275 L 1160.5537030733437 68.01536471121685 L 1160.4043731015424 67.9313026232252 L 1160.256910120465 67.84656969625658 L 1160.1113288762865 67.76117440353308 L 1159.96764392701 67.67512528451279 L 1159.8258696410107 67.5884309440359 L 1159.6860201955992 67.50110005146425 L 1159.5481095756036 67.41314133981427 L 1159.4121515719705 67.32456360488388 L 1159.2781597803876 67.23537570437271 L 1159.1461475999217 67.14558655699653 L 1159.0161282316815 67.05520514159522 L 1158.888114677495 66.96424049623502 L 1158.762119738611 66.87270171730466 L 1158.6381560144187 66.78059795860575 L 1158.516235901187 66.68793843043741 L 1158.3963715908255 66.59473239867523 L 1158.2785750696655 66.50098918384472 L 1158.162858117261 66.40671816018926 L 1158.049232305211 66.31192875473263 L 1157.9377089960014 66.2166304463364 L 1157.828299341871 66.120832764752 L 1157.7210142836932 66.02454528966774 L 1157.615864549885 65.92777764975091 L 1157.512860655332 65.83053952168484 L 1157.4120129003377 65.73284062920132 L 1157.3133313695935 65.63469074210818 L 1157.2168259311707 65.53609967531233 L 1157.122506235532 65.4370772878383 L 1157.030381714569 65.33763348184232 L 1156.940461580657 65.23777820162212 L 1156.8527548257339 65.13752143262249 L 1156.7672702204027 65.03687320043682 L 1156.6840163130523 64.93584356980442 L 1156.6030014290045 64.83444264360419 L 1156.5242336696797 64.73268056184422 L 1156.4477209117883 64.63056750064791 L 1156.3734708065426 64.52811367123628 L 1156.3014907788909 64.42532931890689 L 1156.2317880267763 64.32222472200931 L 1156.1643695204157 64.21881019091732 L 1156.0992420016037 64.11509606699785 L 1156.0364119830379 64.01109272157687 L 1155.9758857476677 63.90681055490224 L 1155.9176693480663 63.80225999510374 L 1155.8617686058249 63.697451497150205 L 1155.8081891109714 63.59239554180411 L 1155.7569362214108 63.48710263457343 L 1155.7080150623888 63.381583304661156 L 1155.6614305259811 63.27584810391234 L 1155.617187270602 63.16990760575894 L 1155.5752897205407 63.06377240416249 L 1155.5357420655168 62.95745311255472 L 1155.4985482602633 62.85096036277616 L 1155.4637120241293 62.744304804013076 L 1155.4312368407097 62.63749710173245 L 1155.4011259574957 62.530547936615505 L 1155.3733823855505 62.423468003489624 L 1155.348008899208 62.316268010258895 L 1155.3250080357961 62.208958676833305 L 1155.3043820953817 62.10155073405677 L 1155.2861331405416 61.99405492263407 L 1155.2702629961561 61.88648199205676 L 1155.2567732492266 61.77884269952825 L 1155.2456652487165 61.6711478088881 L 1155.2369401054164 61.56340808953563 L 1155.2305986918334 61.45563431535299 L 1155.2266416421037 61.34783726362778 L 1155.225069351929 61.24002771397536 L 1155.225881978537 61.13221644726084 L 1155.2290794406656 61.02441424452105 L 1155.2346614185712 60.916631885886424 L 1155.242627354061 60.808880149503025 L 1155.2529764505477 60.70116981045468 L 1155.2657076731305 60.59351163968555 L 1155.2808197486977 60.48591640292299 L 1155.2983111660542 60.378394859601016 L 1155.318180176073 60.27095776178435 L 1155.3404247918697 60.163615853093255 L 1155.365042789001 60.05637986762915 L 1155.3920317056882 59.949260528901206 L 1155.4213888430615 59.84226854875404 L 1155.453111265432 59.7354146262965 L 1155.4871958005838 59.62870944683179 L 1155.523639040092 59.52216368078894 L 1155.5624373396627 59.41578798265577 L 1155.6035868194983 59.30959298991343 L 1155.6470833646854 59.203589321972714 L 1155.6929226256054 59.09778757911208 L 1155.7411000183706 58.992198341417634 L 1155.7916107252818 58.88683216772516 L 1155.8444496953105 58.78169959456423 L 1155.8996116446035 58.67681113510454 L 1155.9570910570121 58.57217727810464 L 1156.016882184643 58.46780848686303 L 1156.078979048433 58.36371519817185 L 1156.1433754387474 58.25990782127324 L 1156.210064916001 58.15639673681838 L 1156.279040811302 58.053192295829454 L 1156.3502962271177 57.950304818664556 L 1156.4238240379664 57.84774459398567 L 1156.499616891128 57.745521877729786 L 1156.5776672073805 57.64364689208335 L 1156.6579671817572 57.54212982446004 L 1156.7405087843276 57.44098082648201 L 1156.8252837610005 57.340210012964775 L 1156.9122836343483 57.2398274609057 L 1157.0014997044568 57.13984320847635 L 1157.0929230497927 57.040267254018644 L 1157.1865445280982 56.94110955504505 L 1157.2823547773035 56.84238002724283 L 1157.380344216463 56.74408854348249 L 1157.4805030467148 56.646244932830506 L 1157.5828212522592 56.54885897956639 L 1157.6872886013612 56.45194042220433 L 1157.7938946473726 56.35549895251929 L 1157.902628729778 56.25954421457787 L 1158.0134799752593 56.16408580377391 L 1158.1264372987846 56.06913326586893 L 1158.2414894047156 55.974696096037604 L 1158.3586247879377 55.88078373791821 L 1158.4778317350103 55.7874055826683 L 1158.5990983253378 55.694570968025594 L 1158.722412432362 55.60228917737418 L 1158.8477617247756 55.51056943881623 L 1158.9751336677532 55.41942092424918 L 1159.104515524207 55.328852748448504 L 1159.2358943560591 55.23887396815633 L 1159.3692570255357 55.14949358117568 L 1159.504590196481 55.0607205254708 L 1159.641880335691 54.97256367827326 L 1159.7811137142658 54.88503185519433 L 1159.9222764089836 54.79813380934336 L 1160.0653543036929 54.71187823045254 L 1160.210333090723 54.62627374400786 L 1160.3571982723163 54.541328910386646 L 1160.5059351620769 54.45705222400146 L 1160.65652888644 54.373452112450714 L 1160.808964386158 54.290536935675895 L 1160.963226417809 54.20831498512558 L 1161.1192995553176 54.12679448292632 L 1161.2771681915006 54.0459835810604 L 1161.4368165396254 53.965890360550645 L 1161.5982286349906 53.88652283065238 L 1161.761388336521 53.80788892805245 L 1161.9262793283826 53.72999651607559 L 1162.0928851216136 53.652853383898076 L 1162.2611890557732 53.57646724576885 L 1162.4311743006085 53.50084574023808 L 1162.602823857737 53.42599642939328 L 1162.776120562345 53.35192679810317 L 1162.9510470849077 53.278644253269164 L 1163.1275859329178 53.20615612308466 L 1163.305719452638 53.13446965630228 L 1163.4854298308644 53.06359202150896 L 1163.6666990967094 52.99353030640911 L 1163.8495091233972 52.924291517115876 L 1164.0338416300774 52.85588257745046 L 1164.219678183653 52.78831032824984 L 1164.4070002006235 52.72158152668263 L 1164.5957889489437 52.65570284557336 L 1164.7860255498954 52.590680872735255 L 1164.9776909799775 52.52652211031142 L 1165.1707660728066 52.463232974124615 L 1165.3652315210343 52.40081979303573 L 1165.5610678782778 52.33928880831086 L 1165.7582555610647 52.278646172997206 L 1165.956774850791 52.21889795130775 L 1166.1566058956928 52.160050118014894 L 1166.3577287128328 52.1021085578529 L 1166.5601231900964 52.045079064929524 L 1166.7637690882045 51.98896734214652 L 1166.9686460427374 51.933779000629414 L 1167.17473356617 51.87951955916637 L 1167.382011049922 51.826194443656306 L 1167.5904577664176 51.77380898656634 L 1167.8000528711586 51.72236842639853 L 1168.0107754048097 51.67187790716602 L 1168.2226042952927 51.622342477878675 L 1168.4355183598952 51.57376709203812 L 1168.6494963073883 51.526156607142475 L 1168.8645167401555 51.47951578420055 L 1169.0805581563327 51.43384928725578 L 1169.2975989519584 51.38916168291979 L 1169.5156174231336 51.34545743991578 L 1169.7345917681932 51.302740928631636 L 1169.954500089885 51.261016420682886 L 1170.1753203975602 51.220288088485546 L 1170.3970306093718 51.18056000483891 L 1170.6196085544836 51.14183614251822 L 1170.8430319752867 51.10412037387746 L 1171.067278529625 51.06741647046204 L 1171.29232579303 51.03172810263173 L 1171.5181512609627 50.99705883919358 L 1171.7447323510646 50.96341214704502 L 1171.9720464054158 50.930791390827245 L 1172.2000706928 50.899199832588685 L 1172.4287824109783 50.86864063145883 L 1172.65815868897 50.83911684333235 L 1172.888176589338 50.81063142056343 L 1173.118813110484 50.78318721167063 L 1173.3500451889486 50.75678696105195 L 1173.581849701716 50.731433308710464 L 1173.8142034685284 50.70712878999027 L 1174.0470832542026 50.683875835323 L 1174.2804657709542 50.66167676998473 L 1174.5143276807257 50.6405338138635 L 1174.7486455975215 50.6204490812373 L 1174.9833960897452 50.60142458056266 L 1175.2185556825427 50.583462214273794 L 1175.4541008601511 50.566563778592354 L 1175.6900080682487 50.55073096334783 L 1175.9262537163115 50.53596535180856 L 1176.1628141799713 50.52226842052339 L 1176.399665803379 50.50964153917403 L 1176.6367849015696 50.49808597043808 L 1176.8741477628312 50.48760286986282 L 1177.1117306510748 50.47819328574954 L 1177.3495098082103 50.46985815904882 L 1177.5874614565196 50.462598323266384 L 1177.8255618010364 50.456414504379765 L 1178.0637870319244 50.45130732076569 L 1178.3021133268594 50.44727728313828 L 1178.5405168534105 50.444324794497916 L 1178.7789737714234 50.44245015009101 L 1179.0174602354052 50.44165353738045 L 1179.2559523969082 50.44193503602685 L 1179.4944264069152 50.443294617880554 L 1179.7328584182235 50.445732146984525 L 1179.9712245878309 50.44924737958788 L 1180.2095010793194 50.45383996417029 L 1180.4476640652376 50.459509441477124 L 1180.6856897294863 50.46625524456538 L 1180.9235542696968 50.474076698860365 L 1181.1612338996135 50.48297302222316 L 1181.3987048514714 50.49294332502887 L 1181.6359433783734 50.50398661025549 L 1181.8729257566645 50.51610177358371 L 1182.109628288304 50.52928760350731 L 1182.3460273032363 50.54354278145426 L 1182.5820991617568 50.55886588191867 L 1182.8178202568765 50.575255372603245 L 1183.0531670166822 50.592709614572584 L 1183.288115906694 50.61122686241703 L 1183.522643432219 50.630805264427224 L 1183.7567261406996 50.651442862779284 L 1183.9903406240603 50.67313759373059 L 1184.2234635210475 50.695887287826096 L 1184.4560715195655 50.71968967011537 L 1184.6881413590086 50.74454236038002 L 1184.9196498325862 50.77044287337172 L 1185.1505737896434 50.797388619060754 L 1185.3808901379778 50.825376902895016 L 1185.6105758461456 50.85440492606945 L 1185.839607945768 50.88446978580591 L 1186.0679635338256 50.9155684756435 L 1186.2956197749502 50.947697885739125 L 1186.522553903707 50.980854803178566 L 1186.7487432268724 51.01503591229771 L 1186.9741651257025 51.05023779501413 L 1187.1987970581956 51.08645693116888 L 1187.4226165613452 51.12368969887854 L 1187.6456012533877 51.16193237489736 L 1187.8677288360398 51.201181134989596 L 1188.0889770967283 51.241432054311964 L 1188.3093239108114 51.28268110780607 L 1188.5287472437913 51.32492417060092 L 1188.7472251535178 51.368157018425464 L 1188.9647357923816 51.41237532803093 L 1189.1812574095004 51.45757467762322 L 1189.3967683528929 51.503750547305025 L 1189.6112470716441 51.55089831952786 L 1189.824672118061 51.5990132795538 L 1190.037022149817 51.64809061592693 L 1190.2482759320856 51.69812542095451 L 1190.4584123396648 51.749112691197745 L 1190.667410359089 51.801047327972086 L 1190.87524909073 51.85392413785714 L 1191.0819077508884 51.90773783321599 L 1191.28736567387 51.962483032723924 L 1191.491602314054 52.01815426190663 L 1191.6945972479464 52.07474595368758 L 1191.896330176223 52.132252448944755 L 1192.096780925759 52.190667997076545 L 1192.2959294516468 52.24998675657682 L 1192.4937558391994 52.310202795619055 L 1192.690240305943 52.371310092649544 L 1192.8853632035946 52.43330253698949 L 1193.0791050200273 52.49617392944612 L 1193.2714463812208 52.559917982932596 L 1193.4623680531993 52.62452832309667 L 1193.6518509439545 52.68999848895818 L 1193.8398761053554 52.7563219335551 L 1194.0264247350424 52.823492024598224 L 1194.2114781783082 52.89150204513444 L 1194.3950179299625 52.960345194218355 L 1194.5770256361832 53.03001458759244 L 1194.757483096351 53.10050325837541 L 1194.936372264871 53.171804157758935 L 1195.1136752529749 53.243910155712484 L 1195.2893743305115 53.31681404169635 L 1195.46345192772 53.39050852538269 L 1195.635890636985 53.46498623738456 L 1195.80667321458 53.5402397299928 L 1195.9757825823895 53.61626147792087 L 1196.143201829617 53.69304387905734 L 1196.308914214478 53.770579255226075 L 1196.4729031658717 53.848859852954064 L 1196.6351522850396 53.92787784424677 L 1196.7956453472052 54.00762532737092 L 1196.954366303196 54.08809432764465 L 1197.1112992810486 54.16927679823499 L 1197.266428587596 54.251164620962534 L 1197.4197387100367 54.33374960711325 L 1197.5712143174865 54.41702349825734 L 1197.7208402625106 54.500977967075094 L 1197.8686015826395 54.58560461818958 L 1198.0144835018639 54.670894989006214 L 1198.1584714321139 54.75684055055899 L 1198.3005509747159 54.84343270836337 L 1198.4407079218347 54.93066280327574 L 1198.578928257892 55.0185221123593 L 1198.7151981609693 55.107001849756344 L 1198.84950400419 55.196093167566886 L 1198.9818323570819 55.28578715673337 L 1199.1121699869195 55.37607484793163 L 1199.2405038600489 55.46694721246779 L 1199.3668211431896 55.55839516318112 L 1199.4911092047182 55.65040955535275 L 1199.6133556159327 55.742981187620146 L 1199.7335481522935 55.83610080289723 L 1199.851674794647 55.92975908930006 L 1199.9677237304277 56.02394668107806 L 1200.0816833548386 56.11865415955053 L 1200.193542272012 56.213872054048544 L 1200.30328929615 56.30959084286201 L 1200.4109134526411 56.405800954191804 L 1200.5164039791596 56.50249276710697 L 1200.6197503267408 56.5996566125068 L 1200.7209421608356 56.69728277408771 L 1200.8199693623455 56.79536148931491 L 1200.9168220286326 56.89388295039859 L 1201.011490474511 56.99283730527477 L 1201.103965233215 57.09221465859041 L 1201.1942370573456 57.19200507269298 L 1201.282296919796 57.29219856862425 L 1201.3681360146531 57.39278512711811 L 1201.451745758079 57.49375468960253 L 1201.533117789169 57.59509715920541 L 1201.6122439707879 57.69680240176424 L 1201.6891163903833 57.79886024683951 L 1201.7637273607775 57.90126048873177 L 1201.8360694209355 58.003992887502164 L 1201.9061353367117 58.10704716999642 L 1201.9739181015727 58.21041303087217 L 1202.0394109372987 58.31408013362946 L 1202.1026072946606 58.41803811164441 L 1202.1635008540752 58.52227656920584 L 1202.2220855262376 58.62678508255487 L 1202.2783554527293 58.731553200927245 L 1202.3323050066047 58.83657044759845 L 1202.3839287929527 58.94182632093131 L 1202.4332216494386 59.04731029542622 L 1202.480178646817 59.153011822773635 L 1202.524795089428 59.25892033290889 L 1202.567066515664 59.36502523506925 L 1202.6069886984178 59.471315918852895 L 1202.6445576455044 59.57778175528004 L 1202.6797696000606 59.684412097855756 L 1202.7126210409199 59.79119628363465 L 1202.7431086829656 59.89812363428712 L 1202.7712294774594 60.005183457167206 L 1202.796980612345 60.11236504638185 L 1202.8203595125299 60.21965768386144 L 1202.8413638401444 60.327050640431644 L 1202.8599914947724 60.43453317688629 L 1202.8762406136648 60.5420945450613 L 1202.8901095719227 60.6497239889095 L 1202.9015969826619 60.757410745576195 L 1202.9107016971511 60.86514404647545 L 1202.9174228049262 60.972913118366954 L 1202.9217596338824 61.08070718443333 L 1202.9237117503399 61.188515465357796 M 1202.923832740396 95.52678387991818 L 1202.9226402804923 95.6345944248348 L 1202.9190630200262 95.74239418878678 L 1202.9131013167207 95.85017239188754 L 1202.9047557667416 95.95791825640659 L 1202.8940272046364 96.06562100784727 L 1202.8809167032525 96.1732698760242 L 1202.8654255736292 96.28085409614023 L 1202.8475553648666 96.38836290986303 L 1202.8273078639706 96.49578556640084 L 1202.8046850956744 96.60311132357748 L 1202.779689322236 96.7103294489067 L 1202.752323043212 96.8174292206653 L 1202.7225889952074 96.92439992896537 L 1202.6904901516023 97.0312308768252 L 1202.656029722254 97.13791138123905 L 1202.6192111531773 97.24443077424536 L 1202.5800381261981 97.35077840399362 L 1202.5385145585863 97.45694363580944 L 1202.4946446026643 97.56291585325815 L 1202.448432645391 97.66868445920629 L 1202.3998833079236 97.77423887688141 L 1202.3490014451556 97.8795685509297 L 1202.2957921452305 97.98466294847155 L 1202.2402607290344 98.08951156015478 L 1202.1824127496625 98.19410390120557 L 1202.1222539918642 98.29842951247699 L 1202.0597904714655 98.40247796149485 L 1201.9950284347665 98.50623884350097 L 1201.9279743579164 98.60970178249359 L 1201.8586349462673 98.71285643226504 L 1201.7870171337029 98.81569247743631 L 1201.7131280819442 98.91819963448859 L 1201.636975179835 99.02036765279156 L 1201.5585660426023 99.12218631562857 L 1201.4779085110943 99.22364544121817 L 1201.3950106509967 99.32473488373233 L 1201.3098807520269 99.42544453431107 L 1201.2225273271035 99.52576432207324 L 1201.1329591114963 99.62568421512367 L 1201.041185061952 99.72519422155631 L 1200.9472143557998 99.82428439045346 L 1200.8510563900313 99.92294481288079 L 1200.752720780363 100.02116562287829 L 1200.6522173602743 100.11893699844678 L 1200.549556180023 100.2162491625302 L 1200.444747505642 100.31309238399325 L 1200.3378018179112 100.40945697859446 L 1200.2287298113104 100.50533330995468 L 1200.117542392949 100.60071179052068 L 1200.0042506814764 100.69558288252388 L 1199.8888660059695 100.78993709893413 L 1199.7713999047994 100.88376500440843 L 1199.6518641244786 100.97705721623441 L 1199.5302706184852 101.06980440526866 L 1199.4066315460689 101.16199729686952 L 1199.2809592710335 101.25362667182469 L 1199.153266360502 101.34468336727302 L 1199.023565583659 101.43515827762084 L 1198.891869910474 101.52504235545253 L 1198.7581925104048 101.61432661243519 L 1198.6225467510799 101.70300212021755 L 1198.484946196962 101.7910600113227 L 1198.3454046079921 101.87849148003492 L 1198.203935938213 101.9652877832802 L 1198.0605543343731 102.05144024150056 L 1197.9152741345138 102.13694023952193 L 1197.7681098665341 102.22177922741581 L 1197.619076246738 102.30594872135407 L 1197.468188178363 102.38944030445748 L 1197.3154607500908 102.47224562763729 L 1197.1609092345363 102.5543564104302 L 1197.0045490867228 102.63576444182635 L 1196.8463959425346 102.71646158109044 L 1196.6864656171545 102.79643975857579 L 1196.5247741034811 102.8756909765313 L 1196.3613375705318 102.95420730990122 L 1196.1961723618233 103.03198090711763 L 1196.029294993739 103.10900399088564 L 1195.8607221538766 103.18526885896105 L 1195.6904706993794 103.2607678849206 L 1195.5185576552512 103.33549351892461 L 1195.3450002126533 103.40943828847196 L 1195.1698157271849 103.48259479914732 L 1194.9930217171488 103.55495573536056 L 1194.8146358617987 103.6265138610784 L 1194.6346759995715 103.69726202054787 L 1194.4531601263034 103.76719313901197 L 1194.2701063934305 103.83630022341715 L 1194.0855331061734 103.90457636311257 L 1193.8994587217073 103.97201473054113 L 1193.7119018473154 104.03860858192229 L 1193.5228812385287 104.10435125792642 L 1193.3324157972509 104.1692361843407 L 1193.140524569867 104.23325687272656 L 1192.9472267453402 104.29640692106851 L 1192.7525416532917 104.35868001441433 L 1192.5564887620685 104.4200699255066 L 1192.3590876767964 104.48057051540535 L 1192.1603581374193 104.54017573410202 L 1191.9603200167255 104.5988796211244 L 1191.7589933183606 104.65667630613272 L 1191.5563981748264 104.71356000950664 L 1191.3525548454688 104.7695250429232 L 1191.1474837144503 104.82456580992574 L 1190.9412052887137 104.87867680648341 L 1190.7337401959294 104.93185262154162 L 1190.5251091824337 104.98408793756322 L 1190.3153331111541 105.0353775310601 L 1190.1044329595231 105.08571627311568 L 1189.8924298173802 105.13509912989768 L 1189.6793448848625 105.1835211631616 L 1189.465199470286 105.23097753074444 L 1189.2500149880138 105.27746348704899 L 1189.0338129563147 105.32297438351839 L 1188.8166149952115 105.36750566910086 L 1188.5984428243194 105.41105289070501 L 1188.379318260674 105.45361169364494 L 1188.1592632165487 105.49517782207583 L 1187.9382996972645 105.53574711941947 L 1187.7164497989895 105.57531552877992 L 1187.4937357065285 105.61387909334925 L 1187.270179691105 105.65143395680312 L 1187.0458041081345 105.68797636368647 L 1186.8206313949881 105.72350265978909 L 1186.5946840687498 105.75800929251095 L 1186.3679847239637 105.79149281121755 L 1186.1405560303751 105.82394986758491 L 1185.9124207306645 105.85537721593445 L 1185.683601638171 105.88577171355752 L 1185.4541216346138 105.9151303210297 L 1185.2240036678018 105.94345010251467 L 1184.9932707493397 105.97072822605791 L 1184.7619459523273 105.99696196386981 L 1184.5300524090515 106.02214869259844 L 1184.2976133086734 106.04628589359189 L 1184.0646518949093 106.0693711531502 L 1183.8311914637063 106.09140216276666 L 1183.5972553609133 106.11237671935864 L 1183.3628669799455 106.13229272548797 L 1183.1280497594455 106.15114818957065 L 1182.8928271809398 106.16894122607596 L 1182.6572227664901 106.1856700557151 L 1182.421260076342 106.20133300561903 L 1182.1849627065671 106.21592850950582 L 1181.948354286706 106.22945510783724 L 1181.7114584774035 106.24191144796474 L 1181.474298968043 106.25329628426466 L 1181.2368994743779 106.2636084782629 L 1180.9992837361594 106.2728469987486 L 1180.7614755147638 106.28101092187747 L 1180.5234985908148 106.28809943126396 L 1180.2853767618064 106.29411181806304 L 1180.047133839723 106.29904748104106 L 1179.8087936486588 106.30290592663582 L 1179.5703800224337 106.30568676900597 L 1179.3319168022122 106.30738973006962 L 1179.093427834117 106.30801463953205 L 1178.8549369668465 106.30756143490284 L 1178.6164680492886 106.3060301615021 L 1178.3780449281364 106.30342097245587 L 1178.1396914455033 106.29973412868088 L 1177.901431436539 106.29496999885845 L 1177.6632887270457 106.28912905939758 L 1177.425287131096 106.28221189438736 L 1177.1874504486511 106.27421919553852 L 1176.9498024631812 106.26515176211427 L 1176.7123669392868 106.25501050085043 L 1176.475167620322 106.24379642586464 L 1176.2382282260216 106.23151065855508 L 1176.0015724501272 106.21815442748823 L 1175.7652239580195 106.20372906827606 L 1175.5292063843506 106.1882360234425 L 1175.293543330681 106.17167684227908 L 1175.0582583631199 106.15405318069014 L 1174.8233750099678 106.13536680102716 L 1174.5889167593646 106.11561957191253 L 1174.3549070569395 106.09481346805269 L 1174.1213693034683 106.0729505700407 L 1173.8883268525312 106.05003306414814 L 1173.6558030081796 106.0260632421065 L 1173.4238210226038 106.00104350087803 L 1173.192404093809 105.97497634241597 L 1172.9615753632957 105.94786437341445 L 1172.731357913744 105.9197103050478 L 1172.5017747667075 105.89051695269937 L 1172.2728488803093 105.86028723568009 L 1172.0446031469473 105.82902417693644 L 1171.8170603910046 105.79673090274827 L 1171.5902433665674 105.76341064241608 L 1171.3641747551487 105.72906672793813 L 1171.1388771634217 105.69370259367726 L 1170.9143731209579 105.6573217760174 L 1170.690685077974 105.61992791301003 L 1170.467835403088 105.58152474401028 L 1170.245846381082 105.54211610930304 L 1170.0247402106727 105.50170594971894 L 1169.8045390022935 105.46029830624026 L 1169.5852647758811 105.41789731959686 L 1169.366939458676 105.37450722985206 L 1169.1495848830277 105.33013237597868 L 1168.9332227842126 105.28477719542511 L 1168.7178747982603 105.23844622367163 L 1168.50356245979 105.1911440937768 L 1168.290307199857 105.14287553591419 L 1168.0781303438093 105.09364537689936 L 1167.8670531091561 105.0434585397072 L 1167.6570966034449 104.99232004297959 L 1167.4482818221509 104.9402350005236 L 1167.2406296465786 104.88720862080007 L 1167.0341608417723 104.83324620640276 L 1166.8288960544407 104.77835315352817 L 1166.6248558108912 104.72253495143585 L 1166.4220605149783 104.66579718189945 L 1166.2205304460626 104.60814551864868 L 1166.0202857569827 104.54958572680184 L 1165.8213464720413 104.49012366228926 L 1165.6237324850006 104.42976527126788 L 1165.4274635570946 104.36851658952648 L 1165.2325593150529 104.30638374188221 L 1165.0390392491367 104.24337294156805 L 1164.846922711192 104.17949048961154 L 1164.6562289127123 104.11474277420461 L 1164.4669769229183 104.04913627006486 L 1164.2791856668514 103.98267753778805 L 1164.0928739234807 103.91537322319199 L 1163.9080603238253 103.84723005665208 L 1163.7247633490913 103.77825485242818 L 1163.543001328823 103.70845450798322 L 1163.3627924390714 103.63783600329349 L 1163.1841547005752 103.56640640015061 L 1163.0071059769593 103.49417284145538 L 1162.8316639729485 103.42114255050346 L 1162.657846232597 103.3473228302631 L 1162.485670137534 103.27272106264479 L 1162.315152905226 103.19734470776314 L 1162.1463115872532 103.1212013031908 L 1161.9791630676073 103.04429846320481 L 1161.8137240610008 102.96664387802507 L 1161.6500111111968 102.88824531304537 L 1161.4880405893534 102.8091106080569 L 1161.327828692388 102.72924767646418 L 1161.169391441357 102.64866450449387 L 1161.0127446798533 102.56736915039596 L 1160.8579040724223 102.48536974363815 L 1160.704885102996 102.40267448409276 L 1160.5537030733437 102.31929164121684 L 1160.4043731015424 102.2352295532252 L 1160.256910120465 102.15049662625658 L 1160.1113288762865 102.06510133353308 L 1159.96764392701 101.97905221451278 L 1159.8258696410107 101.89235787403591 L 1159.6860201955992 101.80502698146424 L 1159.5481095756036 101.71706826981428 L 1159.4121515719705 101.62849053488388 L 1159.2781597803876 101.53930263437272 L 1159.1461475999217 101.44951348699652 L 1159.0161282316815 101.35913207159521 L 1158.888114677495 101.26816742623502 L 1158.762119738611 101.17662864730465 L 1158.6381560144187 101.08452488860574 L 1158.516235901187 100.9918653604374 L 1158.3963715908255 100.89865932867522 L 1158.2785750696655 100.80491611384473 L 1158.162858117261 100.71064509018925 L 1158.049232305211 100.61585568473262 L 1157.9377089960014 100.5205573763364 L 1157.828299341871 100.424759694752 L 1157.7210142836932 100.32847221966773 L 1157.615864549885 100.2317045797509 L 1157.512860655332 100.13446645168483 L 1157.4120129003377 100.03676755920131 L 1157.3133313695935 99.93861767210817 L 1157.2168259311707 99.84002660531232 L 1157.122506235532 99.7410042178383 L 1157.030381714569 99.64156041184232 L 1156.940461580657 99.54170513162211 L 1156.8527548257339 99.4414483626225 L 1156.7672702204027 99.34080013043682 L 1156.6840163130523 99.23977049980442 L 1156.6030014290045 99.13836957360418 L 1156.5242336696797 99.03660749184422 L 1156.4477209117883 98.9344944306479 L 1156.3734708065426 98.83204060123627 L 1156.3014907788909 98.72925624890688 L 1156.2317880267763 98.6261516520093 L 1156.1643695204157 98.52273712091731 L 1156.0992420016037 98.41902299699785 L 1156.0364119830379 98.31501965157686 L 1155.9758857476677 98.21073748490224 L 1155.9176693480663 98.10618692510373 L 1155.8617686058249 98.0013784271502 L 1155.8081891109714 97.89632247180411 L 1155.7569362214108 97.79102956457344 L 1155.7080150623888 97.68551023466115 L 1155.6614305259811 97.57977503391233 L 1155.617187270602 97.47383453575894 L 1155.5752897205407 97.3676993341625 L 1155.5357420655168 97.2613800425547 L 1155.4985482602633 97.15488729277617 L 1155.4637120241293 97.04823173401307 L 1155.4312368407097 96.94142403173245 L 1155.4011259574957 96.8344748666155 L 1155.3733823855505 96.72739493348962 L 1155.348008899208 96.6201949402589 L 1155.3250080357961 96.51288560683331 L 1155.3043820953817 96.40547766405678 L 1155.2861331405416 96.29798185263407 L 1155.2702629961561 96.19040892205675 L 1155.2567732492266 96.08276962952824 L 1155.2456652487165 95.9750747388881 L 1155.2369401054164 95.86733501953563 L 1155.2305986918334 95.75956124535298 L 1155.2266416421037 95.65176419362778 L 1155.225069351929 95.54395464397535" stroke-miterlimit="10" stroke-width="2.7769845610000004" stroke-dasharray=""/></g><g><g/><text fill="black" stroke="none" font-family="sans-serif" font-size="11pt" font-style="normal" font-weight="normal" text-decoration="normal" x="1119.1818272798178" y="123.83569119881818" text-anchor="start" dominant-baseline="alphabetic" xml:space="preserve">Amenity Database</text></g></g><g><g><text fill="black" stroke="none" font-family="sans-serif" font-size="16pt" font-style="normal" font-weight="normal" text-decoration="normal" x="579.1740341186523" y="24.651306798181814" text-anchor="start" dominant-baseline="alphabetic" xml:space="preserve">Amenities</text></g><g><rect fill="white" stroke="none" x="122.17625789969402" y="161.4066587888182" width="198.00714363160156" height="21.23576429"/><text fill="black" stroke="none" font-family="sans-serif" font-size="11pt" font-style="normal" font-weight="normal" text-decoration="normal" x="124.62653839469402" y="176.10834175881817" text-anchor="start" dominant-baseline="alphabetic" xml:space="preserve">(1) Request to view amenities</text></g><g><path fill="none" stroke="black" paint-order="fill stroke markers" d=" M 73.50841485 182.64242307881818 L 355.40192719732295 182.64242307881818" stroke-miterlimit="10" stroke-width="1.3612669416666667" stroke-dasharray=""/><g transform="translate(368.8512445809896,182.64242307881818) translate(-368.8512445809896,-182.64242307881818)"><path fill="black" stroke="none" paint-order="stroke fill markers" d=" M 355.2385751643229 175.83608837048484 L 368.8512445809896 182.64242307881818 L 355.2385751643229 189.44875778715152 Z"/></g></g><g><rect fill="white" stroke="none" x="398.3745029749219" y="207.1452280288182" width="207.77806343140625" height="21.23576429"/><text fill="black" stroke="none" font-family="sans-serif" font-size="11pt" font-style="normal" font-weight="normal" text-decoration="normal" x="400.8247834699219" y="221.84691099881817" text-anchor="start" dominant-baseline="alphabetic" xml:space="preserve">(2) Request for list of amenities</text></g><g><path fill="none" stroke="black" paint-order="fill stroke markers" d=" M 368.8512445809896 228.3809923188182 L 622.2265074165938 228.3809923188182" stroke-miterlimit="10" stroke-width="1.3612669416666667" stroke-dasharray=""/><g transform="translate(635.6758248002604,228.3809923188182) translate(-635.6758248002604,-228.3809923188182)"><path fill="black" stroke="none" paint-order="stroke fill markers" d=" M 622.0631553835938 221.57465761048485 L 635.6758248002604 228.3809923188182 L 622.0631553835938 235.18732702715153 Z"/></g></g><g><rect fill="white" stroke="none" x="655.0058153719272" y="252.88379726881823" width="237.09085334839844" height="21.23576429"/><text fill="black" stroke="none" font-family="sans-serif" font-size="11pt" font-style="normal" font-weight="normal" text-decoration="normal" x="657.4560958669272" y="267.5854802388182" text-anchor="start" dominant-baseline="alphabetic" xml:space="preserve">(3) Route to Amenities Microservice</text></g><g><path fill="none" stroke="black" paint-order="fill stroke markers" d=" M 635.6758248002604 274.1195615588182 L 897.9773419083256 274.1195615588182" stroke-miterlimit="10" stroke-width="1.3612669416666667" stroke-dasharray=""/><g transform="translate(911.4266592919922,274.1195615588182) translate(-911.4266592919922,-274.1195615588182)"><path fill="black" stroke="none" paint-order="stroke fill markers" d=" M 897.8139898753255 267.31322685048485 L 911.4266592919922 274.1195615588182 L 897.8139898753255 280.92589626715153 Z"/></g></g><g><rect fill="white" stroke="none" x="967.8468293070182" y="298.6223665088182" width="154.80743660035156" height="21.23576429"/><text fill="black" stroke="none" font-family="sans-serif" font-size="11pt" font-style="normal" font-weight="normal" text-decoration="normal" x="970.2971098020182" y="313.32404947881815" text-anchor="start" dominant-baseline="alphabetic" xml:space="preserve">(4) Query for amenities</text></g><g><path fill="none" stroke="black" paint-order="fill stroke markers" d=" M 911.4266592919922 319.8581307988182 L 1165.625118538729 319.8581307988182" stroke-miterlimit="10" stroke-width="1.3612669416666667" stroke-dasharray=""/><g transform="translate(1179.0744359223959,319.8581307988182) translate(-1179.0744359223959,-319.8581307988182)"><path fill="black" stroke="none" paint-order="stroke fill markers" d=" M 1165.4617665057292 313.05179609048486 L 1179.0744359223959 319.8581307988182 L 1165.4617665057292 326.66446550715153 Z"/></g></g><g><rect fill="white" stroke="none" x="702.2463015169467" y="388.4659846588182" width="142.60988105835938" height="21.23576429"/><text fill="black" stroke="none" font-family="sans-serif" font-size="11pt" font-style="normal" font-weight="normal" text-decoration="normal" x="704.6965820119467" y="403.16766762881815" text-anchor="start" dominant-baseline="alphabetic" xml:space="preserve">(5) Return 400 status</text></g><g><path fill="none" stroke="black" paint-order="fill stroke markers" d=" M 911.4266592919922 409.7017489488182 L 649.1251421839271 409.7017489488182" stroke-miterlimit="10" stroke-width="1.3612669416666667" stroke-dasharray="6.53408132"/><g transform="translate(635.6758248002604,409.7017489488182) translate(-635.6758248002604,-409.7017489488182)"><path fill="black" stroke="none" paint-order="stroke fill markers" d=" M 649.2884942169271 402.89541424048485 L 635.6758248002604 409.7017489488182 L 649.2884942169271 416.50808365715153 Z"/></g></g><g><rect fill="white" stroke="none" x="432.5906666101758" y="434.2045538988182" width="139.34573616089844" height="21.23576429"/><text fill="black" stroke="none" font-family="sans-serif" font-size="11pt" font-style="normal" font-weight="normal" text-decoration="normal" x="435.0409471051758" y="448.90623686881816" text-anchor="start" dominant-baseline="alphabetic" xml:space="preserve">(6) Return response </text></g><g><path fill="none" stroke="black" paint-order="fill stroke markers" d=" M 635.6758248002604 455.4403181888182 L 382.30056196465625 455.4403181888182" stroke-miterlimit="10" stroke-width="1.3612669416666667" stroke-dasharray="6.53408132"/><g transform="translate(368.8512445809896,455.4403181888182) translate(-368.8512445809896,-455.4403181888182)"><path fill="black" stroke="none" paint-order="stroke fill markers" d=" M 382.4639139976563 448.63398348048486 L 368.8512445809896 455.4403181888182 L 382.4639139976563 462.24665289715153 Z"/></g></g><g><rect fill="white" stroke="none" x="94.15909939139324" y="479.9431231388182" width="254.04146064820313" height="21.23576429"/><text fill="black" stroke="none" font-family="sans-serif" font-size="11pt" font-style="normal" font-weight="normal" text-decoration="normal" x="96.60937988639324" y="494.64480610881816" text-anchor="start" dominant-baseline="alphabetic" xml:space="preserve">(7) Display error "Amenities not found"</text></g><g><path fill="none" stroke="black" paint-order="fill stroke markers" d=" M 368.8512445809896 501.1788874288182 L 86.95773223366666 501.1788874288182" stroke-miterlimit="10" stroke-width="1.3612669416666667" stroke-dasharray="6.53408132"/><g transform="translate(73.50841485,501.1788874288182) translate(-73.50841485,-501.1788874288182)"><path fill="black" stroke="none" paint-order="stroke fill markers" d=" M 87.12108426666666 494.37255272048486 L 73.50841485 501.1788874288182 L 87.12108426666666 507.98522213715154 Z"/></g></g><g><rect fill="white" stroke="none" x="960.0945023416862" y="569.7867412888181" width="170.31209053101563" height="21.23576429"/><text fill="black" stroke="none" font-family="sans-serif" font-size="11pt" font-style="normal" font-weight="normal" text-decoration="normal" x="962.5447828366862" y="584.4884242588181" text-anchor="start" dominant-baseline="alphabetic" xml:space="preserve">(8) Return amenities data</text></g><g><path fill="none" stroke="black" paint-order="fill stroke markers" d=" M 1179.0744359223959 591.0225055788181 L 924.8759766756589 591.0225055788181" stroke-miterlimit="10" stroke-width="1.3612669416666667" stroke-dasharray="6.53408132"/><g transform="translate(911.4266592919922,591.0225055788181) translate(-911.4266592919922,-591.0225055788181)"><path fill="black" stroke="none" paint-order="stroke fill markers" d=" M 925.0393287086589 584.2161708704848 L 911.4266592919922 591.0225055788181 L 925.0393287086589 597.8288402871515 Z"/></g></g><g><rect fill="white" stroke="none" x="702.2463015169467" y="615.5253105288181" width="142.60988105835938" height="21.23576429"/><text fill="black" stroke="none" font-family="sans-serif" font-size="11pt" font-style="normal" font-weight="normal" text-decoration="normal" x="704.6965820119467" y="630.226993498818" text-anchor="start" dominant-baseline="alphabetic" xml:space="preserve">(9) Return 200 status</text></g><g><path fill="none" stroke="black" paint-order="fill stroke markers" d=" M 911.4266592919922 636.7610748188181 L 649.1251421839271 636.7610748188181" stroke-miterlimit="10" stroke-width="1.3612669416666667" stroke-dasharray="6.53408132"/><g transform="translate(635.6758248002604,636.7610748188181) translate(-635.6758248002604,-636.7610748188181)"><path fill="black" stroke="none" paint-order="stroke fill markers" d=" M 649.2884942169271 629.9547401104847 L 635.6758248002604 636.7610748188181 L 649.2884942169271 643.5674095271514 Z"/></g></g><g><rect fill="white" stroke="none" x="428.51407511847657" y="661.263879768818" width="147.49891914429688" height="21.23576429"/><text fill="black" stroke="none" font-family="sans-serif" font-size="11pt" font-style="normal" font-weight="normal" text-decoration="normal" x="430.9643556134766" y="675.965562738818" text-anchor="start" dominant-baseline="alphabetic" xml:space="preserve">(10) Return response </text></g><g><path fill="none" stroke="black" paint-order="fill stroke markers" d=" M 635.6758248002604 682.499644058818 L 382.30056196465625 682.499644058818" stroke-miterlimit="10" stroke-width="1.3612669416666667" stroke-dasharray="6.53408132"/><g transform="translate(368.8512445809896,682.499644058818) translate(-368.8512445809896,-682.499644058818)"><path fill="black" stroke="none" paint-order="stroke fill markers" d=" M 382.4639139976563 675.6933093504847 L 368.8512445809896 682.499644058818 L 382.4639139976563 689.3059787671514 Z"/></g></g><g><rect fill="white" stroke="none" x="135.76610164969404" y="707.002449008818" width="170.82745613160156" height="21.23576429"/><text fill="black" stroke="none" font-family="sans-serif" font-size="11pt" font-style="normal" font-weight="normal" text-decoration="normal" x="138.21638214469402" y="721.7041319788179" text-anchor="start" dominant-baseline="alphabetic" xml:space="preserve">(11) Display amenities list</text></g><g><path fill="none" stroke="black" paint-order="fill stroke markers" d=" M 368.8512445809896 728.238213298818 L 86.95773223366666 728.238213298818" stroke-miterlimit="10" stroke-width="1.3612669416666667" stroke-dasharray="6.53408132"/><g transform="translate(73.50841485,728.238213298818) translate(-73.50841485,-728.238213298818)"><path fill="black" stroke="none" paint-order="stroke fill markers" d=" M 87.12108426666666 721.4318785904846 L 73.50841485 728.238213298818 L 87.12108426666666 735.0445480071513 Z"/></g></g><g><rect fill="white" stroke="none" x="92.83840542166668" y="777.243823198818" width="256.6828485876562" height="21.23576429"/><text fill="black" stroke="none" font-family="sans-serif" font-size="11pt" font-style="normal" font-weight="normal" text-decoration="normal" x="95.28868591666668" y="791.9455061688179" text-anchor="start" dominant-baseline="alphabetic" xml:space="preserve">(12) Request to view specified amenity</text></g><g><path fill="none" stroke="black" paint-order="fill stroke markers" d=" M 73.50841485 798.479587488818 L 355.40192719732295 798.479587488818" stroke-miterlimit="10" stroke-width="1.3612669416666667" stroke-dasharray=""/><g transform="translate(368.8512445809896,798.479587488818) translate(-368.8512445809896,-798.479587488818)"><path fill="black" stroke="none" paint-order="stroke fill markers" d=" M 355.2385751643229 791.6732527804846 L 368.8512445809896 798.479587488818 L 355.2385751643229 805.2859221971513 Z"/></g></g><g><rect fill="white" stroke="none" x="388.18123515265626" y="822.9823924388179" width="228.1645990759375" height="21.23576429"/><text fill="black" stroke="none" font-family="sans-serif" font-size="11pt" font-style="normal" font-weight="normal" text-decoration="normal" x="390.6315156476563" y="837.6840754088179" text-anchor="start" dominant-baseline="alphabetic" xml:space="preserve">(13) Request for specified amenity</text></g><g><path fill="none" stroke="black" paint-order="fill stroke markers" d=" M 368.8512445809896 844.2181567288179 L 622.2265074165938 844.2181567288179" stroke-miterlimit="10" stroke-width="1.3612669416666667" stroke-dasharray=""/><g transform="translate(635.6758248002604,844.2181567288179) translate(-635.6758248002604,-844.2181567288179)"><path fill="black" stroke="none" paint-order="stroke fill markers" d=" M 622.0631553835938 837.4118220204846 L 635.6758248002604 844.2181567288179 L 622.0631553835938 851.0244914371513 Z"/></g></g><g><rect fill="white" stroke="none" x="667.6221254915561" y="868.7209616788178" width="211.85823310914063" height="21.23576429"/><text fill="black" stroke="none" font-family="sans-serif" font-size="11pt" font-style="normal" font-weight="normal" text-decoration="normal" x="670.0724059865561" y="883.4226446488178" text-anchor="start" dominant-baseline="alphabetic" xml:space="preserve">(14) Route to Amenities Service</text></g><g><path fill="none" stroke="black" paint-order="fill stroke markers" d=" M 635.6758248002604 889.9567259688179 L 897.9773419083256 889.9567259688179" stroke-miterlimit="10" stroke-width="1.3612669416666667" stroke-dasharray=""/><g transform="translate(911.4266592919922,889.9567259688179) translate(-911.4266592919922,-889.9567259688179)"><path fill="black" stroke="none" paint-order="stroke fill markers" d=" M 897.8139898753255 883.1503912604845 L 911.4266592919922 889.9567259688179 L 897.8139898753255 896.7630606771512 Z"/></g></g><g><rect fill="white" stroke="none" x="938.5089768289909" y="914.4595309188178" width="213.48314155640625" height="21.23576429"/><text fill="black" stroke="none" font-family="sans-serif" font-size="11pt" font-style="normal" font-weight="normal" text-decoration="normal" x="940.9592573239909" y="929.1612138888178" text-anchor="start" dominant-baseline="alphabetic" xml:space="preserve">(15) Query for specified amenity</text></g><g><path fill="none" stroke="black" paint-order="fill stroke markers" d=" M 911.4266592919922 935.6952952088178 L 1165.625118538729 935.6952952088178" stroke-miterlimit="10" stroke-width="1.3612669416666667" stroke-dasharray=""/><g transform="translate(1179.0744359223959,935.6952952088178) translate(-1179.0744359223959,-935.6952952088178)"><path fill="black" stroke="none" paint-order="stroke fill markers" d=" M 1165.4617665057292 928.8889605004845 L 1179.0744359223959 935.6952952088178 L 1165.4617665057292 942.5016299171511 Z"/></g></g><g><rect fill="white" stroke="none" x="945.4202011942252" y="1004.3031490688178" width="199.6606928259375" height="21.23576429"/><text fill="black" stroke="none" font-family="sans-serif" font-size="11pt" font-style="normal" font-weight="normal" text-decoration="normal" x="947.8704816892252" y="1019.0048320388178" text-anchor="start" dominant-baseline="alphabetic" xml:space="preserve">(16) Return amenity not found</text></g><g><path fill="none" stroke="black" paint-order="fill stroke markers" d=" M 1179.0744359223959 1025.5389133588178 L 924.8759766756589 1025.5389133588178" stroke-miterlimit="10" stroke-width="1.3612669416666667" stroke-dasharray="6.53408132"/><g transform="translate(911.4266592919922,1025.5389133588178) translate(-911.4266592919922,-1025.5389133588178)"><path fill="black" stroke="none" paint-order="stroke fill markers" d=" M 925.0393287086589 1018.7325786504845 L 911.4266592919922 1025.5389133588178 L 925.0393287086589 1032.345248067151 Z"/></g></g><g><rect fill="white" stroke="none" x="698.1697100252475" y="1050.041718308818" width="150.76306404175781" height="21.23576429"/><text fill="black" stroke="none" font-family="sans-serif" font-size="11pt" font-style="normal" font-weight="normal" text-decoration="normal" x="700.6199905202475" y="1064.743401278818" text-anchor="start" dominant-baseline="alphabetic" xml:space="preserve">(17) Return 400 status</text></g><g><path fill="none" stroke="black" paint-order="fill stroke markers" d=" M 911.4266592919922 1071.2774825988179 L 649.1251421839271 1071.2774825988179" stroke-miterlimit="10" stroke-width="1.3612669416666667" stroke-dasharray="6.53408132"/><g transform="translate(635.6758248002604,1071.2774825988179) translate(-635.6758248002604,-1071.2774825988179)"><path fill="black" stroke="none" paint-order="stroke fill markers" d=" M 649.2884942169271 1064.4711478904846 L 635.6758248002604 1071.2774825988179 L 649.2884942169271 1078.083817307151 Z"/></g></g><g><rect fill="white" stroke="none" x="428.51407511847657" y="1095.780287548818" width="147.49891914429688" height="21.23576429"/><text fill="black" stroke="none" font-family="sans-serif" font-size="11pt" font-style="normal" font-weight="normal" text-decoration="normal" x="430.9643556134766" y="1110.4819705188181" text-anchor="start" dominant-baseline="alphabetic" xml:space="preserve">(18) Return response </text></g><g><path fill="none" stroke="black" paint-order="fill stroke markers" d=" M 635.6758248002604 1117.016051838818 L 382.30056196465625 1117.016051838818" stroke-miterlimit="10" stroke-width="1.3612669416666667" stroke-dasharray="6.53408132"/><g transform="translate(368.8512445809896,1117.016051838818) translate(-368.8512445809896,-1117.016051838818)"><path fill="black" stroke="none" paint-order="stroke fill markers" d=" M 382.4639139976563 1110.2097171304847 L 368.8512445809896 1117.016051838818 L 382.4639139976563 1123.8223865471512 Z"/></g></g><g><rect fill="white" stroke="none" x="95.78758602469402" y="1141.518856788818" width="250.78448738160156" height="21.23576429"/><text fill="black" stroke="none" font-family="sans-serif" font-size="11pt" font-style="normal" font-weight="normal" text-decoration="normal" x="98.23786651969402" y="1156.2205397588182" text-anchor="start" dominant-baseline="alphabetic" xml:space="preserve">(19) Display error "Amenity not found"</text></g><g><path fill="none" stroke="black" paint-order="fill stroke markers" d=" M 368.8512445809896 1162.754621078818 L 86.95773223366666 1162.754621078818" stroke-miterlimit="10" stroke-width="1.3612669416666667" stroke-dasharray="6.53408132"/><g transform="translate(73.50841485,1162.754621078818) translate(-73.50841485,-1162.754621078818)"><path fill="black" stroke="none" paint-order="stroke fill markers" d=" M 87.12108426666666 1155.9482863704848 L 73.50841485 1162.754621078818 L 87.12108426666666 1169.5609557871512 Z"/></g></g><g><rect fill="white" stroke="none" x="930.7566498636588" y="1231.3624749388182" width="228.98779548707031" height="21.23576429"/><text fill="black" stroke="none" font-family="sans-serif" font-size="11pt" font-style="normal" font-weight="normal" text-decoration="normal" x="933.2069303586588" y="1246.0641579088183" text-anchor="start" dominant-baseline="alphabetic" xml:space="preserve">(20) Return specified amenity data</text></g><g><path fill="none" stroke="black" paint-order="fill stroke markers" d=" M 1179.0744359223959 1252.598239228818 L 924.8759766756589 1252.598239228818" stroke-miterlimit="10" stroke-width="1.3612669416666667" stroke-dasharray="6.53408132"/><g transform="translate(911.4266592919922,1252.598239228818) translate(-911.4266592919922,-1252.598239228818)"><path fill="black" stroke="none" paint-order="stroke fill markers" d=" M 925.0393287086589 1245.7919045204849 L 911.4266592919922 1252.598239228818 L 925.0393287086589 1259.4045739371513 Z"/></g></g><g><rect fill="white" stroke="none" x="698.1697100252475" y="1277.1010441788183" width="150.76306404175781" height="21.23576429"/><text fill="black" stroke="none" font-family="sans-serif" font-size="11pt" font-style="normal" font-weight="normal" text-decoration="normal" x="700.6199905202475" y="1291.8027271488183" text-anchor="start" dominant-baseline="alphabetic" xml:space="preserve">(21) Return 200 status</text></g><g><path fill="none" stroke="black" paint-order="fill stroke markers" d=" M 911.4266592919922 1298.3368084688182 L 649.1251421839271 1298.3368084688182" stroke-miterlimit="10" stroke-width="1.3612669416666667" stroke-dasharray="6.53408132"/><g transform="translate(635.6758248002604,1298.3368084688182) translate(-635.6758248002604,-1298.3368084688182)"><path fill="black" stroke="none" paint-order="stroke fill markers" d=" M 649.2884942169271 1291.530473760485 L 635.6758248002604 1298.3368084688182 L 649.2884942169271 1305.1431431771514 Z"/></g></g><g><rect fill="white" stroke="none" x="428.51407511847657" y="1322.8396134188183" width="147.49891914429688" height="21.23576429"/><text fill="black" stroke="none" font-family="sans-serif" font-size="11pt" font-style="normal" font-weight="normal" text-decoration="normal" x="430.9643556134766" y="1337.5412963888184" text-anchor="start" dominant-baseline="alphabetic" xml:space="preserve">(22) Return response </text></g><g><path fill="none" stroke="black" paint-order="fill stroke markers" d=" M 635.6758248002604 1344.0753777088182 L 382.30056196465625 1344.0753777088182" stroke-miterlimit="10" stroke-width="1.3612669416666667" stroke-dasharray="6.53408132"/><g transform="translate(368.8512445809896,1344.0753777088182) translate(-368.8512445809896,-1344.0753777088182)"><path fill="black" stroke="none" paint-order="stroke fill markers" d=" M 382.4639139976563 1337.269043000485 L 368.8512445809896 1344.0753777088182 L 382.4639139976563 1350.8817124171514 Z"/></g></g><g><rect fill="white" stroke="none" x="97.73104458182293" y="1368.5781826588184" width="246.89757026734375" height="21.23576429"/><text fill="black" stroke="none" font-family="sans-serif" font-size="11pt" font-style="normal" font-weight="normal" text-decoration="normal" x="100.18132507682293" y="1383.2798656288185" text-anchor="start" dominant-baseline="alphabetic" xml:space="preserve">(23) Display specified amenity details</text></g><g><path fill="none" stroke="black" paint-order="fill stroke markers" d=" M 368.8512445809896 1389.8139469488183 L 86.95773223366666 1389.8139469488183" stroke-miterlimit="10" stroke-width="1.3612669416666667" stroke-dasharray="6.53408132"/><g transform="translate(73.50841485,1389.8139469488183) translate(-73.50841485,-1389.8139469488183)"><path fill="black" stroke="none" paint-order="stroke fill markers" d=" M 87.12108426666666 1383.007612240485 L 73.50841485 1389.8139469488183 L 87.12108426666666 1396.6202816571515 Z"/></g></g><g><g/><path fill="none" stroke="black" paint-order="fill stroke markers" d=" M 16.335203299999996 344.3609357488182 L 1236.2476474723958 344.3609357488182 L 1236.2476474723958 752.741018248818 L 16.335203299999996 752.741018248818 L 16.335203299999996 344.3609357488182 Z" stroke-miterlimit="10" stroke-width="2.3336004714285714" stroke-dasharray=""/><path fill="white" stroke="black" paint-order="fill stroke markers" d=" M 16.335203299999996 344.3609357488182 L 16.335203299999996 363.9631797088182 L 62.69440689707031 363.9631797088182 L 72.49552887707031 354.1620577288182 L 72.49552887707031 344.3609357488182 L 16.335203299999996 344.3609357488182" stroke-miterlimit="10" stroke-width="2.3336004714285714" stroke-dasharray=""/><text fill="black" stroke="none" font-family="sans-serif" font-size="8.8pt" font-style="normal" font-weight="bold" text-decoration="normal" x="32.67040659999999" y="357.4290983888182" text-anchor="start" dominant-baseline="alphabetic" xml:space="preserve">alt</text><g><rect fill="white" stroke="none" x="86.38045168207032" y="345.6677520128182" width="156.09022773804688" height="16.988611432000003"/></g><text fill="black" stroke="none" font-family="sans-serif" font-size="8.8pt" font-style="normal" font-weight="bold" text-decoration="normal" x="88.83073217707032" y="357.4290983888182" text-anchor="start" dominant-baseline="alphabetic" xml:space="preserve">[Amenities were not found]</text><g><path fill="none" stroke="black" paint-order="fill stroke markers" d=" M 16.335203299999996 525.6816923788182 L 1236.2476474723958 525.6816923788182" stroke-miterlimit="10" stroke-width="2.3336004714285714" stroke-dasharray="4.083800825"/></g><g/><g><rect fill="white" stroke="none" x="86.38045168207032" y="526.9885086428181" width="134.59480537476563" height="16.988611432000003"/></g><text fill="black" stroke="none" font-family="sans-serif" font-size="8.8pt" font-style="normal" font-weight="bold" text-decoration="normal" x="88.83073217707032" y="538.7498550188182" text-anchor="start" dominant-baseline="alphabetic" xml:space="preserve">[Amenities were found]</text></g><g/><g><g/><path fill="none" stroke="black" paint-order="fill stroke markers" d=" M 16.335203299999996 960.1981001588177 L 1236.2476474723958 960.1981001588177 L 1236.2476474723958 1414.3167518988182 L 16.335203299999996 1414.3167518988182 L 16.335203299999996 960.1981001588177 Z" stroke-miterlimit="10" stroke-width="2.3336004714285714" stroke-dasharray=""/><path fill="white" stroke="black" paint-order="fill stroke markers" d=" M 16.335203299999996 960.1981001588177 L 16.335203299999996 979.8003441188177 L 62.69440689707031 979.8003441188177 L 72.49552887707031 969.9992221388177 L 72.49552887707031 960.1981001588177 L 16.335203299999996 960.1981001588177" stroke-miterlimit="10" stroke-width="2.3336004714285714" stroke-dasharray=""/><text fill="black" stroke="none" font-family="sans-serif" font-size="8.8pt" font-style="normal" font-weight="bold" text-decoration="normal" x="32.67040659999999" y="973.2662627988177" text-anchor="start" dominant-baseline="alphabetic" xml:space="preserve">alt</text><g><rect fill="white" stroke="none" x="86.38045168207032" y="961.5049164228177" width="116.31251777710938" height="16.988611432000003"/></g><text fill="black" stroke="none" font-family="sans-serif" font-size="8.8pt" font-style="normal" font-weight="bold" text-decoration="normal" x="88.83073217707032" y="973.2662627988177" text-anchor="start" dominant-baseline="alphabetic" xml:space="preserve">[Amenity not found]</text><g><path fill="none" stroke="black" paint-order="fill stroke markers" d=" M 16.335203299999996 1187.2574260288181 L 1236.2476474723958 1187.2574260288181" stroke-miterlimit="10" stroke-width="2.3336004714285714" stroke-dasharray="4.083800825"/></g><g/><g><rect fill="white" stroke="none" x="86.38045168207032" y="1188.564242292818" width="94.81709541382813" height="16.988611432000003"/></g><text fill="black" stroke="none" font-family="sans-serif" font-size="8.8pt" font-style="normal" font-weight="bold" text-decoration="normal" x="88.83073217707032" y="1200.325588668818" text-anchor="start" dominant-baseline="alphabetic" xml:space="preserve">[Amenity found]</text></g><g/></g><g/><g/><g/></g></svg>